<svg xmlns="http://www.w3.org/2000/svg" version="1" width="1357" height="563">
  <g
  >
    <path

      d="M184 315c4 11 8 22 15 31a75 75 0 0 0 64 30c14 0 27-2 37-8 11-6 20-13 26-22 7-9 12-20 15-31a131 131 0 0 0 0-70c-3-11-8-21-15-31a75 75 0 0 0-63-30c-15 0-27 3-38 8-10 6-19 13-26 22-7 10-11 20-15 31a131 131 0 0 0 0 70zm-29-81c5-15 12-28 22-39 9-11 21-20 36-27 14-7 31-10 50-10s35 3 50 10a105 105 0 0 1 57 66 147 147 0 0 1 0 92 104 104 0 0 1-58 66c-14 7-30 10-49 10s-36-3-50-10c-15-7-27-16-36-27-10-11-17-24-22-39a147 147 0 0 1 0-92M515 301c-2-7-5-12-9-18a45 45 0 0 0-36-17c-8 0-15 2-21 5-6 4-11 8-14 13-4 5-7 11-9 18a85 85 0 0 0 1 42c1 6 4 12 8 18 4 5 9 9 15 12s13 5 22 5a40 40 0 0 0 36-18l7-18c2-7 2-14 2-22l-2-20zm-90-53v20c5-8 11-14 20-18 9-3 18-5 29-5a62 62 0 0 1 53 23c5 7 10 16 13 25a100 100 0 0 1 0 60c-3 9-7 17-13 24s-13 13-22 17a72 72 0 0 1-43 5l-14-4-12-7-11-11v77h-25V248h25M667 292a42 42 0 0 0-23-22c-5-3-11-4-17-4-7 0-12 1-18 4a41 41 0 0 0-22 22l-4 16h88l-4-16zm6 95c-11 9-26 13-43 13-12 0-23-2-32-6a62 62 0 0 1-36-41c-3-9-5-20-5-31s1-22 5-31 8-18 15-24a68 68 0 0 1 51-22c14 0 25 2 34 8 9 5 16 12 22 21 5 8 9 17 11 27l3 29H583c0 7 1 13 3 19a42 42 0 0 0 23 26c6 3 14 4 22 4 10 0 19-3 26-7 7-5 11-12 13-22h25c-3 16-11 29-22 37M738 248v24c11-18 28-27 50-27 10 0 19 1 25 4 7 2 13 6 17 11s7 10 8 17c2 7 3 14 3 22v98h-25V296c0-9-3-16-9-22-5-5-13-8-22-8-8 0-15 2-20 4-6 2-11 5-14 10-4 4-7 9-9 14-2 6-2 12-2 19v84h-26V248h24M1016 395c-12 5-23 8-35 8-18 0-35-4-49-10a106 106 0 0 1-61-64 144 144 0 0 1 0-97c6-15 13-28 23-39s23-20 37-26a123 123 0 0 1 117 12 88 88 0 0 1 34 61h-50c-4-13-10-23-19-29-9-7-19-10-32-10-12 0-22 2-30 6-9 5-15 11-20 19-6 7-9 16-12 25a125 125 0 0 0 0 59c3 9 6 18 12 25a57 57 0 0 0 50 25c17 0 31-5 40-13 10-9 15-21 17-38h-53v-38h101v126h-34l-5-26c-10 12-20 20-31 24M1171 163v191h117v43h-170V163h53"
      fill="black"
    />
    <path
      d="M923 426c-81 48-201 75-335 75-242 0-439-98-439-220 0-121 197-220 439-220 134 0 255 28 335 76A646 646 0 0 0 499 0C223 0 0 126 0 281s223 281 499 282c179 0 336-57 424-137"
      fill="black"
    />
    <path
      fill="black"
      d="M1331 374h3l3-1 1-2-1-2-3-1h-3v6zm-6-10h11c3 0 5 0 6 2 2 1 2 2 2 4l-1 5-5 2 2 1 2 2 4 7h-7l-5-8-2-1h-1v9h-6v-23zm28 12c0-5-2-10-5-13-4-3-8-5-13-5-4 0-9 2-12 5-4 3-5 8-5 13 0 4 1 9 5 12 3 4 8 5 12 5 5 0 9-1 13-5 3-3 5-8 5-12zm4 0l-3 11a22 22 0 0 1-19 10 22 22 0 0 1-19-10 22 22 0 0 1 0-22 22 22 0 0 1 19-11 22 22 0 0 1 19 11c2 3 3 7 3 11"
    />
  </g>
</svg>
