<?xml version="1.0" encoding="utf-8"?>
<!-- Generator: Adobe Illustrator 22.1.0, SVG Export Plug-In . SVG Version: 6.00 Build 0)  -->
<svg version="1.1" id="Layer_1" xmlns="http://www.w3.org/2000/svg" xmlns:xlink="http://www.w3.org/1999/xlink" x="0px" y="0px"
	 viewBox="0 0 365 39.7" style="enable-background:new 0 0 365 39.7;" xml:space="preserve">
<style type="text/css">
	.st0{clip-path:url(#XMLID_3_);fill:#547DBF;}
	.st1{clip-path:url(#XMLID_3_);fill:#FFCE40;}
	.st2{clip-path:url(#XMLID_3_);}
	.st3{clip-path:url(#XMLID_4_);}
	.st4{clip-path:url(#XMLID_3_);fill:#DB4436;}
	.st5{clip-path:url(#XMLID_6_);}
	.st6{clip-path:url(#XMLID_7_);}
	.st7{clip-path:url(#XMLID_8_);fill:#EEEEEE;}
	.st8{clip-path:url(#XMLID_8_);fill:#547DBF;}
	.st9{clip-path:url(#XMLID_9_);}
	.st10{clip-path:url(#XMLID_10_);fill:#EEEEEE;}
	.st11{clip-path:url(#XMLID_11_);fill:#EEEEEE;}
	.st12{clip-path:url(#XMLID_12_);}
	.st13{clip-path:url(#XMLID_14_);}
	.st14{clip-path:url(#XMLID_17_);}
	.st15{clip-path:url(#XMLID_33_);}
	.st16{clip-path:url(#XMLID_35_);}
	.st17{clip-path:url(#XMLID_37_);}
	.st18{clip-path:url(#XMLID_39_);}
	.st19{clip-path:url(#XMLID_41_);}
	.st20{clip-path:url(#XMLID_44_);}
	.st21{clip-path:url(#XMLID_46_);}
	.st22{clip-path:url(#XMLID_51_);}
	.st23{clip-path:url(#XMLID_53_);}
	.st24{clip-path:url(#XMLID_59_);}
	.st25{clip-path:url(#XMLID_61_);}
	.st26{clip-path:url(#XMLID_63_);}
	.st27{clip-path:url(#XMLID_65_);}
	.st28{clip-path:url(#XMLID_67_);}
	.st29{clip-path:url(#XMLID_69_);}
	.st30{clip-path:url(#XMLID_71_);}
	.st31{clip-path:url(#XMLID_73_);}
	.st32{clip-path:url(#XMLID_75_);}
	.st33{clip-path:url(#XMLID_77_);}
	.st34{clip-path:url(#XMLID_79_);}
	.st35{clip-path:url(#XMLID_81_);}
	.st36{clip-path:url(#XMLID_83_);}
	.st37{clip-path:url(#XMLID_85_);}
	.st38{clip-path:url(#XMLID_87_);}
	.st39{clip-path:url(#XMLID_89_);}
	.st40{fill:#6C6D6D;}
</style>
<g id="XMLID_1_">
	<g id="XMLID_25_">
		<defs>
			<path id="XMLID_24_" d="M44.2,18.3L38.3,7.9l-3.7-6.4C34,0.6,33.1,0,32,0H12.6c-1,0-2.1,0.5-2.6,1.5L4.1,12l-3.7,6.4
				c-0.5,0.9-0.5,2.1,0,3L10,38.1c0.5,0.9,1.5,1.5,2.6,1.5H32c1,0,2.1-0.5,2.6-1.5l9.7-16.9C44.7,20.4,44.7,19.3,44.2,18.3
				 M22.2,25.8c-3.2,0-5.9-2.7-5.9-5.9c0-3.2,2.7-5.9,5.9-5.9c3.2,0,5.9,2.7,5.9,5.9C28.1,23.1,25.5,25.8,22.2,25.8"/>
		</defs>
		<clipPath id="XMLID_3_">
			<use xlink:href="#XMLID_24_"  style="overflow:visible;"/>
		</clipPath>
		<path id="XMLID_26_" class="st0" d="M15.5,8h22.8l-3.7-6.4C34,0.6,33.1,0,32,0H12.6c-1,0-2.1,0.5-2.6,1.5L4.1,12l11.3,19.7V8"/>
		<path id="XMLID_28_" class="st1" d="M15.5,31.7L4.1,12l-3.7,6.4c-0.5,0.9-0.5,2.1,0,3L10,38.1c0.5,0.9,1.5,1.5,2.6,1.5h12
			l11.5-19.8L15.5,31.7"/>
		<g id="XMLID_31_" class="st2">
			<defs>
				<path id="XMLID_30_" d="M0,19.9L0,19.9c0,0.5,0.1,1,0.4,1.5L10,38.1c0.5,0.9,1.5,1.5,2.6,1.5h12h-0.1h-1H12.6
					c-1,0-2.1-0.6-2.6-1.5L0.4,21.4C0.1,20.9,0,20.4,0,19.9L0,19.9L0,19.9"/>
			</defs>
			<clipPath id="XMLID_4_">
				<use xlink:href="#XMLID_30_"  style="overflow:visible;"/>
			</clipPath>
			<g id="XMLID_168_" class="st3">
				<defs>
					<rect id="XMLID_167_" x="-0.7" y="18.9" width="26" height="21.6"/>
				</defs>
				<clipPath id="XMLID_5_">
					<use xlink:href="#XMLID_167_"  style="overflow:visible;"/>
				</clipPath>
				<g style="clip-path:url(#XMLID_5_);">
					
						<image style="overflow:visible;" width="42" height="35" id="XMLID_169_" xlink:href="E4D9607C.jpg"  transform="matrix(0.6184 0 0 -0.6184 -0.67 40.5584)">
					</image>
				</g>
			</g>
		</g>
		<path id="XMLID_29_" class="st4" d="M38.3,8H15.5l20.5,11.9L24.5,39.7H32c1,0,2.1-0.5,2.6-1.5l9.7-16.9c0.5-0.9,0.5-2.1,0-3
			L38.3,8"/>
	</g>
	<g id="XMLID_172_">
		<defs>
			<path id="XMLID_171_" d="M44.2,18.3L38.3,7.9l-3.7-6.4C34,0.6,33.1,0,32,0H12.6c-1,0-2.1,0.5-2.6,1.5L4.1,12l-3.7,6.4
				c-0.5,0.9-0.5,2.1,0,3L10,38.1c0.5,0.9,1.5,1.5,2.6,1.5H32c1,0,2.1-0.5,2.6-1.5l9.7-16.9C44.7,20.4,44.7,19.3,44.2,18.3
				 M22.2,25.8c-3.2,0-5.9-2.7-5.9-5.9c0-3.2,2.7-5.9,5.9-5.9c3.2,0,5.9,2.7,5.9,5.9C28.1,23.1,25.5,25.8,22.2,25.8"/>
		</defs>
		<clipPath id="XMLID_6_">
			<use xlink:href="#XMLID_171_"  style="overflow:visible;"/>
		</clipPath>
		<g id="XMLID_175_" class="st5">
			<defs>
				<path id="XMLID_174_" d="M38.3,8H15.5l20.5,11.9L24.5,39.7H32c1,0,2.1-0.5,2.6-1.5l9.7-16.9c0.5-0.9,0.5-2.1,0-3L38.3,8"/>
			</defs>
			<clipPath id="XMLID_7_">
				<use xlink:href="#XMLID_174_"  style="overflow:visible;"/>
			</clipPath>
			<g id="XMLID_178_" class="st6">
				<defs>
					<path id="XMLID_177_" d="M38.3,8H15.5l20.5,11.9L24.5,39.7H32c1,0,2.1-0.5,2.6-1.5l9.7-16.9c0.5-0.9,0.5-2.1,0-3L38.3,8"/>
				</defs>
				<clipPath id="XMLID_8_">
					<use xlink:href="#XMLID_177_"  style="overflow:visible;"/>
				</clipPath>
				<polyline id="XMLID_179_" class="st7" points="29.1,8 35.9,19.8 29.1,31.7 15.5,31.7 8.6,19.8 15.5,8 29.1,8 				"/>
				<path id="XMLID_180_" class="st8" d="M15.5,8h22.8l-3.7-6.4C34,0.6,33.1,0,32,0H12.6c-1,0-2.1,0.5-2.6,1.5L4.1,12l11.3,19.7V8"
					/>
			</g>
		</g>
		<g id="XMLID_183_" class="st5">
			<defs>
				<path id="XMLID_182_" d="M44.2,18.3L38.3,7.9l-3.7-6.4C34,0.6,33.1,0,32,0H12.6c-1,0-2.1,0.5-2.6,1.5L4.1,12l-3.7,6.4
					c-0.5,0.9-0.5,2.1,0,3L10,38.1c0.5,0.9,1.5,1.5,2.6,1.5H32c1,0,2.1-0.5,2.6-1.5l9.7-16.9C44.7,20.4,44.7,19.3,44.2,18.3
					 M22.2,25.8c-3.2,0-5.9-2.7-5.9-5.9c0-3.2,2.7-5.9,5.9-5.9c3.2,0,5.9,2.7,5.9,5.9C28.1,23.1,25.5,25.8,22.2,25.8"/>
			</defs>
			<clipPath id="XMLID_9_">
				<use xlink:href="#XMLID_182_"  style="overflow:visible;"/>
			</clipPath>
			<g id="XMLID_186_" class="st9">
				<defs>
					<path id="XMLID_185_" d="M15.5,31.7L4.1,12l-3.7,6.4c-0.5,0.9-0.5,2.1,0,3L10,38.1c0.5,0.9,1.5,1.5,2.6,1.5h12l11.5-19.8
						L15.5,31.7"/>
				</defs>
				<clipPath id="XMLID_10_">
					<use xlink:href="#XMLID_185_"  style="overflow:visible;"/>
				</clipPath>
				<polyline id="XMLID_187_" class="st10" points="29.1,8 35.9,19.8 29.1,31.7 15.5,31.7 8.6,19.8 15.5,8 29.1,8 				"/>
			</g>
			<g id="XMLID_191_" class="st9">
				<defs>
					<path id="XMLID_190_" d="M44.2,18.3L38.3,7.9l-3.7-6.4C34,0.6,33.1,0,32,0H12.6c-1,0-2.1,0.5-2.6,1.5L4.1,12l-3.7,6.4
						c-0.5,0.9-0.5,2.1,0,3L10,38.1c0.5,0.9,1.5,1.5,2.6,1.5H32c1,0,2.1-0.5,2.6-1.5l9.7-16.9C44.7,20.4,44.7,19.3,44.2,18.3
						 M22.2,25.8c-3.2,0-5.9-2.7-5.9-5.9c0-3.2,2.7-5.9,5.9-5.9c3.2,0,5.9,2.7,5.9,5.9C28.1,23.1,25.5,25.8,22.2,25.8"/>
				</defs>
				<clipPath id="XMLID_11_">
					<use xlink:href="#XMLID_190_"  style="overflow:visible;"/>
				</clipPath>
				<polyline id="XMLID_192_" class="st11" points="29.1,8 35.9,19.8 29.1,31.7 15.5,31.7 8.6,19.8 15.5,8 29.1,8 				"/>
			</g>
			<g id="XMLID_194_" class="st9">
				<defs>
					<path id="XMLID_193_" d="M32,0L32,0c1.2,0,2,0.7,2.5,1.5L38.3,8l5.9,10.3L38.3,7.9l-3.7-6.4C34,0.7,33.1,0,32,0"/>
				</defs>
				<clipPath id="XMLID_12_">
					<use xlink:href="#XMLID_193_"  style="overflow:visible;"/>
				</clipPath>
				<g id="XMLID_197_" class="st12">
					<defs>
						<rect id="XMLID_196_" x="30.9" y="-0.9" width="14.2" height="19.8"/>
					</defs>
					<clipPath id="XMLID_13_">
						<use xlink:href="#XMLID_196_"  style="overflow:visible;"/>
					</clipPath>
					<g transform="matrix(1 0 0 1 -1.907349e-06 0)" style="clip-path:url(#XMLID_13_);">
						
							<image style="overflow:visible;" width="23" height="32" id="XMLID_198_" xlink:href="E4D9607D.jpg"  transform="matrix(0.6184 0 0 -0.6184 30.8697 18.9135)">
						</image>
					</g>
				</g>
			</g>
			<g id="XMLID_199_" class="st9">
				<defs>
					<path id="XMLID_195_" d="M32,0c1.1,0,2,0.7,2.5,1.7L38.2,8h0.1l-3.7-6.4C34,0.7,33.1,0,32,0"/>
				</defs>
				<clipPath id="XMLID_14_">
					<use xlink:href="#XMLID_195_"  style="overflow:visible;"/>
				</clipPath>
				<g id="XMLID_202_" class="st13">
					<defs>
						<rect id="XMLID_201_" x="30.9" y="-0.9" width="8" height="9.9"/>
					</defs>
					<clipPath id="XMLID_16_">
						<use xlink:href="#XMLID_201_"  style="overflow:visible;"/>
					</clipPath>
					<g transform="matrix(1 0 0 1 -1.907349e-06 0)" style="clip-path:url(#XMLID_16_);">
						
							<image style="overflow:visible;" width="13" height="16" id="XMLID_203_" xlink:href="E4D9607B.jpg"  transform="matrix(0.6184 0 0 -0.6184 30.8697 9.0187)">
						</image>
					</g>
				</g>
			</g>
			<g id="XMLID_204_" class="st9">
				<defs>
					<path id="XMLID_200_" d="M38.3,8L38.3,8v0.1l5.9,10.4c0.2,0.3,0.4,0.9,0.4,1.3l0-0.1c0-0.5-0.1-1-0.4-1.5L38.3,8"/>
				</defs>
				<clipPath id="XMLID_17_">
					<use xlink:href="#XMLID_200_"  style="overflow:visible;"/>
				</clipPath>
				<g id="XMLID_207_" class="st14">
					<defs>
						<rect id="XMLID_206_" x="37.1" y="7.2" width="8.7" height="13.6"/>
					</defs>
					<clipPath id="XMLID_19_">
						<use xlink:href="#XMLID_206_"  style="overflow:visible;"/>
					</clipPath>
					<g transform="matrix(1 0 0 1 0 -1.907349e-06)" style="clip-path:url(#XMLID_19_);">
						
							<image style="overflow:visible;" width="14" height="22" id="XMLID_208_" xlink:href="E4D96084.jpg"  transform="matrix(0.6184 0 0 -0.6184 37.054 20.7688)">
						</image>
					</g>
				</g>
			</g>
			<g id="XMLID_209_" class="st9">
				<defs>
					<path id="XMLID_205_" d="M32,0.3H12.6c-1,0-2.1,0.6-2.6,1.5L4.2,12.1l5.7,5.6L15.5,8h13.7h9l-3.6-6.2C34,0.8,33,0.3,32,0.3"/>
				</defs>
				<clipPath id="XMLID_33_">
					<use xlink:href="#XMLID_205_"  style="overflow:visible;"/>
				</clipPath>
				<g id="XMLID_212_" class="st15">
					<defs>
						<rect id="XMLID_211_" x="3" y="-0.9" width="35.9" height="19.2"/>
					</defs>
					<clipPath id="XMLID_34_">
						<use xlink:href="#XMLID_211_"  style="overflow:visible;"/>
					</clipPath>
					<g style="clip-path:url(#XMLID_34_);">
						
							<image style="overflow:visible;" width="58" height="31" id="XMLID_213_" xlink:href="E4D96087.jpg"  transform="matrix(0.6184 0 0 -0.6184 3.0406 18.2951)">
						</image>
					</g>
				</g>
			</g>
			<g id="XMLID_214_" class="st9">
				<defs>
					<polyline id="XMLID_210_" points="4.2,12.1 4.2,12.1 8.6,19.8 9.9,17.6 4.2,12.1 					"/>
				</defs>
				<clipPath id="XMLID_35_">
					<use xlink:href="#XMLID_210_"  style="overflow:visible;"/>
				</clipPath>
				<g id="XMLID_217_" class="st16">
					<defs>
						<rect id="XMLID_216_" x="3" y="10.9" width="8" height="9.9"/>
					</defs>
					<clipPath id="XMLID_36_">
						<use xlink:href="#XMLID_216_"  style="overflow:visible;"/>
					</clipPath>
					<g transform="matrix(1 0 0 1 0 -1.907349e-06)" style="clip-path:url(#XMLID_36_);">
						
							<image style="overflow:visible;" width="13" height="16" id="XMLID_218_" xlink:href="E4D96085.jpg"  transform="matrix(0.6184 0 0 -0.6184 3.0406 20.7688)">
						</image>
					</g>
				</g>
			</g>
			<g id="XMLID_219_" class="st9">
				<defs>
					<path id="XMLID_215_" d="M4.2,12.1l-0.1,0.1l-3.7,6.3C0.2,19,0,19.4,0,19.8c0,0.4,0.2,0.9,0.4,1.2l3.7,6.4L10,37.9
						c0.5,1,1.5,1.5,2.6,1.5h10.6l-7.7-7.7L8.6,19.8l0,0L4.2,12.1"/>
				</defs>
				<clipPath id="XMLID_37_">
					<use xlink:href="#XMLID_215_"  style="overflow:visible;"/>
				</clipPath>
				<g id="XMLID_222_" class="st17">
					<defs>
						<rect id="XMLID_221_" x="-0.7" y="10.9" width="24.7" height="29.7"/>
					</defs>
					<clipPath id="XMLID_38_">
						<use xlink:href="#XMLID_221_"  style="overflow:visible;"/>
					</clipPath>
					<g style="clip-path:url(#XMLID_38_);">
						
							<image style="overflow:visible;" width="40" height="48" id="XMLID_223_" xlink:href="E4D9608B.jpg"  transform="matrix(0.6184 0 0 -0.6184 -0.67 40.5584)">
						</image>
					</g>
				</g>
			</g>
			<g id="XMLID_224_" class="st9">
				<defs>
					<path id="XMLID_220_" d="M38.1,8h-9l14.4,14.4l0.7-1.2c0.2-0.5,0.4-0.8,0.4-1.2c0-0.4-0.2-0.9-0.4-1.2L38.3,8.2L38.1,8"/>
				</defs>
				<clipPath id="XMLID_39_">
					<use xlink:href="#XMLID_220_"  style="overflow:visible;"/>
				</clipPath>
				<g id="XMLID_227_" class="st18">
					<defs>
						<rect id="XMLID_226_" x="28.4" y="7.2" width="17.3" height="16.1"/>
					</defs>
					<clipPath id="XMLID_40_">
						<use xlink:href="#XMLID_226_"  style="overflow:visible;"/>
					</clipPath>
					<g transform="matrix(1 0 0 1 1.907349e-06 0)" style="clip-path:url(#XMLID_40_);">
						
							<image style="overflow:visible;" width="28" height="26" id="XMLID_228_" xlink:href="E4D9608C.jpg"  transform="matrix(0.6184 0 0 -0.6184 28.396 23.2425)">
						</image>
					</g>
				</g>
			</g>
			<g id="XMLID_229_" class="st9">
				<defs>
					<path id="XMLID_225_" d="M29.1,8l6.8,11.9l-6.8,11.9l-4.5,8h0.1l0.1-0.1H32c1,0,2.1-0.6,2.6-1.5l3.7-6.4l5.2-9.2L29.1,8"/>
				</defs>
				<clipPath id="XMLID_41_">
					<use xlink:href="#XMLID_225_"  style="overflow:visible;"/>
				</clipPath>
				<g id="XMLID_232_" class="st19">
					<defs>
						<rect id="XMLID_231_" x="23.4" y="7.2" width="21" height="33.4"/>
					</defs>
					<clipPath id="XMLID_42_">
						<use xlink:href="#XMLID_231_"  style="overflow:visible;"/>
					</clipPath>
					<g style="clip-path:url(#XMLID_42_);">
						
							<image style="overflow:visible;" width="34" height="54" id="XMLID_233_" xlink:href="E4D9608F.jpg"  transform="matrix(0.6184 0 0 -0.6184 23.4486 40.5584)">
						</image>
					</g>
				</g>
			</g>
			<g id="XMLID_234_" class="st9">
				<defs>
					<polyline id="XMLID_230_" points="35.9,19.8 35.9,19.8 35.9,20 29.1,31.7 35.9,19.8 					"/>
				</defs>
				<clipPath id="XMLID_44_">
					<use xlink:href="#XMLID_230_"  style="overflow:visible;"/>
				</clipPath>
				<g id="XMLID_237_" class="st20">
					<defs>
						<rect id="XMLID_236_" x="28.4" y="18.9" width="8.7" height="13.6"/>
					</defs>
					<clipPath id="XMLID_45_">
						<use xlink:href="#XMLID_236_"  style="overflow:visible;"/>
					</clipPath>
					<g transform="matrix(1 0 0 1 1.907349e-06 0)" style="clip-path:url(#XMLID_45_);">
						
							<image style="overflow:visible;" width="14" height="22" id="XMLID_238_" xlink:href="136AF24B.jpg"  transform="matrix(0.6184 0 0 -0.6184 28.396 32.5189)">
						</image>
					</g>
				</g>
			</g>
			<g id="XMLID_239_" class="st9">
				<defs>
					<path id="XMLID_235_" d="M0.4,18.4C0.2,18.8,0,19.3,0,19.7l0,0C0,19.3,0.2,18.9,0.4,18.4"/>
				</defs>
				<clipPath id="XMLID_46_">
					<use xlink:href="#XMLID_235_"  style="overflow:visible;"/>
				</clipPath>
				<g id="XMLID_242_" class="st21">
					<defs>
						<rect id="XMLID_241_" x="-0.7" y="17.7" width="1.9" height="3.1"/>
					</defs>
					<clipPath id="XMLID_50_">
						<use xlink:href="#XMLID_241_"  style="overflow:visible;"/>
					</clipPath>
					<g transform="matrix(1 0 0 1 0 -1.907349e-06)" style="clip-path:url(#XMLID_50_);">
						
							<image style="overflow:visible;" width="3" height="5" id="XMLID_243_" xlink:href="136AF249.jpg"  transform="matrix(0.6184 0 0 -0.6184 -0.67 20.7688)">
						</image>
					</g>
				</g>
			</g>
			<g id="XMLID_244_" class="st9">
				<defs>
					<polyline id="XMLID_240_" points="0,19.7 0,19.9 0,19.9 0,19.8 0,19.7 					"/>
				</defs>
				<clipPath id="XMLID_51_">
					<use xlink:href="#XMLID_240_"  style="overflow:visible;"/>
				</clipPath>
				<g id="XMLID_247_" class="st22">
					<defs>
						<rect id="XMLID_246_" x="-0.7" y="18.9" width="1.9" height="1.9"/>
					</defs>
					<clipPath id="XMLID_52_">
						<use xlink:href="#XMLID_246_"  style="overflow:visible;"/>
					</clipPath>
					<g transform="matrix(1 0 0 1 0 -1.907349e-06)" style="clip-path:url(#XMLID_52_);">
						
							<image style="overflow:visible;" width="3" height="3" id="XMLID_248_" xlink:href="136AF24F.jpg"  transform="matrix(0.6184 0 0 -0.6184 -0.67 20.7688)">
						</image>
					</g>
				</g>
			</g>
			<g id="XMLID_249_" class="st9">
				<defs>
					<polyline id="XMLID_245_" points="44.6,19.8 44.6,19.9 44.6,20 44.6,19.8 44.6,19.8 					"/>
				</defs>
				<clipPath id="XMLID_53_">
					<use xlink:href="#XMLID_245_"  style="overflow:visible;"/>
				</clipPath>
				<g id="XMLID_252_" class="st23">
					<defs>
						<rect id="XMLID_251_" x="43.9" y="18.9" width="1.9" height="1.9"/>
					</defs>
					<clipPath id="XMLID_58_">
						<use xlink:href="#XMLID_251_"  style="overflow:visible;"/>
					</clipPath>
					<g transform="matrix(1 0 0 1 0 -1.907349e-06)" style="clip-path:url(#XMLID_58_);">
						
							<image style="overflow:visible;" width="3" height="3" id="XMLID_253_" xlink:href="136AF24A.jpg"  transform="matrix(0.6184 0 0 -0.6184 43.8567 20.7688)">
						</image>
					</g>
				</g>
			</g>
			<g id="XMLID_254_" class="st9">
				<defs>
					<polyline id="XMLID_250_" points="44.6,19.8 44.6,19.9 44.6,19.9 44.6,19.8 44.6,19.8 					"/>
				</defs>
				<clipPath id="XMLID_59_">
					<use xlink:href="#XMLID_250_"  style="overflow:visible;"/>
				</clipPath>
				<g id="XMLID_257_" class="st24">
					<defs>
						<rect id="XMLID_256_" x="43.9" y="18.9" width="1.9" height="1.9"/>
					</defs>
					<clipPath id="XMLID_60_">
						<use xlink:href="#XMLID_256_"  style="overflow:visible;"/>
					</clipPath>
					<g transform="matrix(1 0 0 1 0 -1.907349e-06)" style="clip-path:url(#XMLID_60_);">
						
							<image style="overflow:visible;" width="3" height="3" id="XMLID_258_" xlink:href="136AF255.jpg"  transform="matrix(0.6184 0 0 -0.6184 43.8567 20.7688)">
						</image>
					</g>
				</g>
			</g>
			<g id="XMLID_259_" class="st9">
				<defs>
					<path id="XMLID_255_" d="M0,19.8l0,0.2c0,0.5,0.1,1,0.4,1.4L10,38.1L4.1,27.6l-3.7-6.4C0.2,20.8,0,20.3,0,19.8"/>
				</defs>
				<clipPath id="XMLID_61_">
					<use xlink:href="#XMLID_255_"  style="overflow:visible;"/>
				</clipPath>
				<g id="XMLID_262_" class="st25">
					<defs>
						<rect id="XMLID_261_" x="-0.7" y="18.9" width="11.8" height="20.4"/>
					</defs>
					<clipPath id="XMLID_62_">
						<use xlink:href="#XMLID_261_"  style="overflow:visible;"/>
					</clipPath>
					<g style="clip-path:url(#XMLID_62_);">
						
							<image style="overflow:visible;" width="19" height="33" id="XMLID_263_" xlink:href="136AF256.jpg"  transform="matrix(0.6184 0 0 -0.6184 -0.67 39.3215)">
						</image>
					</g>
				</g>
			</g>
			<g id="XMLID_264_" class="st9">
				<defs>
					<path id="XMLID_260_" d="M44.6,19.9c0,0.2,0,0.4-0.1,0.6l0,0.1C44.5,20.4,44.6,20.2,44.6,19.9L44.6,19.9"/>
				</defs>
				<clipPath id="XMLID_63_">
					<use xlink:href="#XMLID_260_"  style="overflow:visible;"/>
				</clipPath>
				<g id="XMLID_267_" class="st26">
					<defs>
						<rect id="XMLID_266_" x="43.2" y="18.9" width="2.5" height="2.5"/>
					</defs>
					<clipPath id="XMLID_64_">
						<use xlink:href="#XMLID_266_"  style="overflow:visible;"/>
					</clipPath>
					<g transform="matrix(1 0 0 1 3.814697e-06 0)" style="clip-path:url(#XMLID_64_);">
						
							<image style="overflow:visible;" width="4" height="4" id="XMLID_268_" xlink:href="136AF257.jpg"  transform="matrix(0.6184 0 0 -0.6184 43.2382 21.3872)">
						</image>
					</g>
				</g>
			</g>
			<g id="XMLID_269_" class="st9">
				<defs>
					<path id="XMLID_265_" d="M44.6,19.9c0,0.2,0,0.4-0.1,0.6C44.5,20.3,44.6,20.1,44.6,19.9L44.6,19.9"/>
				</defs>
				<clipPath id="XMLID_65_">
					<use xlink:href="#XMLID_265_"  style="overflow:visible;"/>
				</clipPath>
				<g id="XMLID_272_" class="st27">
					<defs>
						<rect id="XMLID_271_" x="43.9" y="18.9" width="1.9" height="2.5"/>
					</defs>
					<clipPath id="XMLID_66_">
						<use xlink:href="#XMLID_271_"  style="overflow:visible;"/>
					</clipPath>
					<g style="clip-path:url(#XMLID_66_);">
						
							<image style="overflow:visible;" width="3" height="4" id="XMLID_273_" xlink:href="136AF259.jpg"  transform="matrix(0.6184 0 0 -0.6184 43.8567 21.3872)">
						</image>
					</g>
				</g>
			</g>
			<g id="XMLID_276_" class="st9">
				<defs>
					<path id="XMLID_275_" d="M16.2,19.6c0-3.2,2.7-5.9,5.9-5.9c3.3,0,6.1,2.7,5.9,5.9h0l0,0.3l0,0.3h0c0,3.2-2.7,5.9-5.9,5.9
						c-3.2,0-5.9-2.7-5.9-5.9h0l0-0.3V19.6L16.2,19.6 M29.1,8H15.5l-5.6,9.6l-1.3,2.2l0,0l6.8,11.9h13.7L35.9,20l0.1-0.1L29.1,8"/>
				</defs>
				<clipPath id="XMLID_67_">
					<use xlink:href="#XMLID_275_"  style="overflow:visible;"/>
				</clipPath>
				<g id="XMLID_279_" class="st28">
					<defs>
						<rect id="XMLID_278_" x="8" y="7.2" width="29.1" height="25.4"/>
					</defs>
					<clipPath id="XMLID_68_">
						<use xlink:href="#XMLID_278_"  style="overflow:visible;"/>
					</clipPath>
					<g style="clip-path:url(#XMLID_68_);">
						
							<image style="overflow:visible;" width="47" height="41" id="XMLID_280_" xlink:href="136AF25B.jpg"  transform="matrix(0.6184 0 0 -0.6184 7.988 32.5189)">
						</image>
					</g>
				</g>
			</g>
			<g id="XMLID_283_" class="st9">
				<defs>
					<path id="XMLID_282_" d="M28.1,20.1L28.1,20.1c-0.1,3.1-2.7,5.7-5.9,5.7c-3.1,0-5.8-2.6-5.9-5.7h0c0,3.2,2.7,5.9,5.9,5.9
						C25.4,26,28.1,23.3,28.1,20.1 M22.2,13.7c-3.2,0-5.9,2.7-5.9,5.9h0c0.1-3.1,2.8-5.7,5.9-5.7c3.1,0,5.8,2.6,5.9,5.7h0
						C28.2,16.4,25.5,13.7,22.2,13.7"/>
				</defs>
				<clipPath id="XMLID_69_">
					<use xlink:href="#XMLID_282_"  style="overflow:visible;"/>
				</clipPath>
				<g id="XMLID_286_" class="st29">
					<defs>
						<rect id="XMLID_285_" x="15.4" y="12.7" width="13.6" height="14.2"/>
					</defs>
					<clipPath id="XMLID_70_">
						<use xlink:href="#XMLID_285_"  style="overflow:visible;"/>
					</clipPath>
					<g style="clip-path:url(#XMLID_70_);">
						
							<image style="overflow:visible;" width="22" height="23" id="XMLID_287_" xlink:href="136AF25E.jpg"  transform="matrix(0.6184 0 0 -0.6184 15.4091 26.953)">
						</image>
					</g>
				</g>
			</g>
			<g id="XMLID_288_" class="st9">
				<defs>
					<polyline id="XMLID_284_" points="29.1,31.7 15.5,31.7 23.2,39.4 24.6,39.4 29.1,31.7 					"/>
				</defs>
				<clipPath id="XMLID_71_">
					<use xlink:href="#XMLID_284_"  style="overflow:visible;"/>
				</clipPath>
				<g id="XMLID_291_" class="st30">
					<defs>
						<rect id="XMLID_290_" x="14.8" y="30.7" width="15.5" height="9.9"/>
					</defs>
					<clipPath id="XMLID_72_">
						<use xlink:href="#XMLID_290_"  style="overflow:visible;"/>
					</clipPath>
					<g transform="matrix(1 0 0 1 -9.536743e-07 0)" style="clip-path:url(#XMLID_72_);">
						
							<image style="overflow:visible;" width="25" height="16" id="XMLID_292_" xlink:href="136AF272.jpg"  transform="matrix(0.6184 0 0 -0.6184 14.7907 40.5584)">
						</image>
					</g>
				</g>
			</g>
			<g id="XMLID_293_" class="st9">
				<defs>
					<polyline id="XMLID_289_" points="29.1,31.7 29.1,31.7 24.6,39.4 24.7,39.4 24.6,39.7 29.1,31.7 					"/>
				</defs>
				<clipPath id="XMLID_73_">
					<use xlink:href="#XMLID_289_"  style="overflow:visible;"/>
				</clipPath>
				<g id="XMLID_296_" class="st31">
					<defs>
						<rect id="XMLID_295_" x="23.4" y="30.7" width="6.8" height="9.9"/>
					</defs>
					<clipPath id="XMLID_74_">
						<use xlink:href="#XMLID_295_"  style="overflow:visible;"/>
					</clipPath>
					<g style="clip-path:url(#XMLID_74_);">
						
							<image style="overflow:visible;" width="11" height="16" id="XMLID_297_" xlink:href="136AF271.jpg"  transform="matrix(0.6184 0 0 -0.6184 23.4486 40.5584)">
						</image>
					</g>
				</g>
			</g>
			<g id="XMLID_300_" class="st9">
				<defs>
					<path id="XMLID_299_" d="M44.5,20.5c-0.1,0.3-0.2,0.5-0.3,0.8c0.1-0.2,0.2-0.4,0.3-0.7L44.5,20.5 M44.6,19.9L44.6,19.9
						L44.6,19.9L44.6,19.9L44.6,19.9"/>
				</defs>
				<clipPath id="XMLID_75_">
					<use xlink:href="#XMLID_299_"  style="overflow:visible;"/>
				</clipPath>
				<g id="XMLID_303_" class="st32">
					<defs>
						<rect id="XMLID_302_" x="43.2" y="18.9" width="2.5" height="3.1"/>
					</defs>
					<clipPath id="XMLID_76_">
						<use xlink:href="#XMLID_302_"  style="overflow:visible;"/>
					</clipPath>
					<g transform="matrix(1 0 0 1 3.814697e-06 0)" style="clip-path:url(#XMLID_76_);">
						
							<image style="overflow:visible;" width="4" height="5" id="XMLID_304_" xlink:href="136AF27E.jpg"  transform="matrix(0.6184 0 0 -0.6184 43.2382 22.0056)">
						</image>
					</g>
				</g>
			</g>
			<g id="XMLID_305_" class="st9">
				<defs>
					<path id="XMLID_301_" d="M32,0H12.6c-1,0-2.1,0.5-2.6,1.5L4.1,12l0.1,0.1L10,1.8c0.5-0.9,1.5-1.5,2.6-1.5H32
						c1,0,2.1,0.5,2.6,1.5L38.1,8h0.1l-3.7-6.3C34,0.7,33.1,0,32,0L32,0L32,0"/>
				</defs>
				<clipPath id="XMLID_77_">
					<use xlink:href="#XMLID_301_"  style="overflow:visible;"/>
				</clipPath>
				<g id="XMLID_308_" class="st33">
					<defs>
						<rect id="XMLID_307_" x="3" y="-0.9" width="35.9" height="13.6"/>
					</defs>
					<clipPath id="XMLID_78_">
						<use xlink:href="#XMLID_307_"  style="overflow:visible;"/>
					</clipPath>
					<g transform="matrix(1 0 0 1 0 9.536743e-07)" style="clip-path:url(#XMLID_78_);">
						
							<image style="overflow:visible;" width="58" height="22" id="XMLID_309_" xlink:href="136AF270.jpg"  transform="matrix(0.6184 0 0 -0.6184 3.0406 12.7292)">
						</image>
					</g>
				</g>
			</g>
			<g id="XMLID_310_" class="st9">
				<defs>
					<polyline id="XMLID_306_" points="4.1,12 4.2,12.1 4.2,12.1 4.1,12 					"/>
				</defs>
				<clipPath id="XMLID_79_">
					<use xlink:href="#XMLID_306_"  style="overflow:visible;"/>
				</clipPath>
				<g id="XMLID_313_" class="st34">
					<defs>
						<rect id="XMLID_312_" x="3" y="10.9" width="1.9" height="1.9"/>
					</defs>
					<clipPath id="XMLID_80_">
						<use xlink:href="#XMLID_312_"  style="overflow:visible;"/>
					</clipPath>
					<g transform="matrix(1 0 0 1 0 9.536743e-07)" style="clip-path:url(#XMLID_80_);">
						
							<image style="overflow:visible;" width="3" height="3" id="XMLID_314_" xlink:href="136AF273.jpg"  transform="matrix(0.6184 0 0 -0.6184 3.0406 12.7292)">
						</image>
					</g>
				</g>
			</g>
			<g id="XMLID_315_" class="st9">
				<defs>
					<path id="XMLID_311_" d="M4.1,12L4.1,12l-3.7,6.4C0.2,18.9,0,19.3,0,19.8l0,0l0,0l0,0l0,0.2v0l0-0.2c0,0.5,0.2,1,0.4,1.3
						l3.7,6.4L10,38.1c0.5,0.9,1.5,1.5,2.6,1.5h10.8l-0.3-0.3H12.6c-1,0-2.1-0.5-2.6-1.5L4.1,27.4L0.4,21C0.2,20.7,0,20.2,0,19.8
						c0-0.4,0.2-0.8,0.4-1.2l3.7-6.3l0.1-0.1L4.1,12"/>
				</defs>
				<clipPath id="XMLID_81_">
					<use xlink:href="#XMLID_311_"  style="overflow:visible;"/>
				</clipPath>
				<g id="XMLID_318_" class="st35">
					<defs>
						<rect id="XMLID_317_" x="-0.7" y="10.9" width="24.7" height="29.7"/>
					</defs>
					<clipPath id="XMLID_82_">
						<use xlink:href="#XMLID_317_"  style="overflow:visible;"/>
					</clipPath>
					<g style="clip-path:url(#XMLID_82_);">
						
							<image style="overflow:visible;" width="40" height="48" id="XMLID_319_" xlink:href="136AF277.jpg"  transform="matrix(0.6184 0 0 -0.6184 -0.67 40.5584)">
						</image>
					</g>
				</g>
			</g>
			<g id="XMLID_320_" class="st9">
				<defs>
					<path id="XMLID_316_" d="M38.2,8L38.2,8l0.1,0.3l5.9,10.4c0.2,0.3,0.4,0.8,0.4,1.2c0,0.4-0.2,0.8-0.4,1.2l-0.7,1.2l0,0l0.7-1.1
						c0.1-0.2,0.2-0.5,0.3-0.8c0-0.2,0.1-0.4,0.1-0.6l0,0l0,0l0,0l0-0.1v0l0,0.1c0-0.5-0.2-1-0.4-1.3L38.3,8.1L38.2,8"/>
				</defs>
				<clipPath id="XMLID_83_">
					<use xlink:href="#XMLID_316_"  style="overflow:visible;"/>
				</clipPath>
				<g id="XMLID_323_" class="st36">
					<defs>
						<rect id="XMLID_322_" x="37.1" y="7.2" width="8.7" height="16.1"/>
					</defs>
					<clipPath id="XMLID_84_">
						<use xlink:href="#XMLID_322_"  style="overflow:visible;"/>
					</clipPath>
					<g style="clip-path:url(#XMLID_84_);">
						
							<image style="overflow:visible;" width="14" height="26" id="XMLID_324_" xlink:href="136AF276.jpg"  transform="matrix(0.6184 0 0 -0.6184 37.054 23.2425)">
						</image>
					</g>
				</g>
			</g>
			<g id="XMLID_325_" class="st9">
				<defs>
					<path id="XMLID_321_" d="M43.5,22.4l-5.2,9.2L34.5,38C34,38.9,33,39.6,32,39.6h-7.2l-0.1,0.1H32c1,0,2.1-0.5,2.6-1.5L43.5,22.4
						L43.5,22.4"/>
				</defs>
				<clipPath id="XMLID_85_">
					<use xlink:href="#XMLID_321_"  style="overflow:visible;"/>
				</clipPath>
				<g id="XMLID_328_" class="st37">
					<defs>
						<rect id="XMLID_327_" x="23.4" y="21.4" width="21" height="19.2"/>
					</defs>
					<clipPath id="XMLID_86_">
						<use xlink:href="#XMLID_327_"  style="overflow:visible;"/>
					</clipPath>
					<g style="clip-path:url(#XMLID_86_);">
						
							<image style="overflow:visible;" width="34" height="31" id="XMLID_329_" xlink:href="136AF24D.jpg"  transform="matrix(0.6184 0 0 -0.6184 23.4486 40.5584)">
						</image>
					</g>
				</g>
			</g>
			<g id="XMLID_330_" class="st9">
				<defs>
					<polyline id="XMLID_326_" points="24.6,39.4 23.2,39.4 23.4,39.7 24.5,39.7 24.6,39.4 					"/>
				</defs>
				<clipPath id="XMLID_87_">
					<use xlink:href="#XMLID_326_"  style="overflow:visible;"/>
				</clipPath>
				<g id="XMLID_333_" class="st38">
					<defs>
						<rect id="XMLID_332_" x="22.2" y="38.7" width="3.1" height="1.9"/>
					</defs>
					<clipPath id="XMLID_88_">
						<use xlink:href="#XMLID_332_"  style="overflow:visible;"/>
					</clipPath>
					<g style="clip-path:url(#XMLID_88_);">
						
							<image style="overflow:visible;" width="5" height="3" id="XMLID_334_" xlink:href="136AF24E.jpg"  transform="matrix(0.6184 0 0 -0.6184 22.2118 40.5584)">
						</image>
					</g>
				</g>
			</g>
			<g id="XMLID_335_" class="st9">
				<defs>
					<polyline id="XMLID_331_" points="24.7,39.4 24.6,39.4 24.5,39.7 24.6,39.7 24.7,39.4 					"/>
				</defs>
				<clipPath id="XMLID_89_">
					<use xlink:href="#XMLID_331_"  style="overflow:visible;"/>
				</clipPath>
				<g id="XMLID_338_" class="st39">
					<defs>
						<rect id="XMLID_337_" x="23.4" y="38.7" width="2.5" height="1.9"/>
					</defs>
					<clipPath id="XMLID_90_">
						<use xlink:href="#XMLID_337_"  style="overflow:visible;"/>
					</clipPath>
					<g style="clip-path:url(#XMLID_90_);">
						
							<image style="overflow:visible;" width="4" height="3" id="XMLID_339_" xlink:href="136AF24C.jpg"  transform="matrix(0.6184 0 0 -0.6184 23.4486 40.5584)">
						</image>
					</g>
				</g>
			</g>
		</g>
	</g>
	<path id="XMLID_354_" class="st40" d="M166.6,20.4c0-6.7,5.2-11.9,11.9-11.9c3.5,0,6.3,1.4,8.4,3.7l-2.1,1.9
		c-1.5-1.9-3.7-2.8-6.3-2.8c-4.8,0-8.8,3.5-8.8,9c0,5.5,4,9,8.8,9c2.8,0,5.3-1.3,7-3.3l2.1,2.1c-1.9,2.3-5.2,4-9,4
		C171.7,32.2,166.6,27.2,166.6,20.4z M189.7,31.7V9h3v22.7H189.7z M210.8,24c0,4.8-3.3,8.2-8,8.2s-8-3.6-8-8.2c0-4.8,3.3-8.2,8-8.2
		S210.8,19.2,210.8,24z M207.8,24c0-3.6-2.4-5.7-5-5.7c-2.6,0-5,2.1-5,5.7c0,3.6,2.4,5.7,5,5.7C205.4,29.5,207.8,27.4,207.8,24z
		 M223.9,31.7v-2.2h-0.1c-0.9,1.4-2.8,2.7-4.9,2.7c-4,0-5.9-2.7-5.9-6.6v-9.5h3v9c0,3.2,1.7,4.4,3.9,4.4c2.6,0,4.1-2.4,4.1-4.8v-8.5
		h3v15.6h-3V31.7z M229.1,24c0-4.8,3.5-8.2,7.3-8.2c2.4,0,4.4,1.3,5.3,2.7h0.1l-0.1-2.2V9h3v22.7H242v-2.2h-0.1
		c-0.9,1.4-2.8,2.7-5.3,2.7C232.6,32.2,229.1,28.7,229.1,24z M242,24c0-3.6-2.3-5.7-4.9-5.7c-2.6,0-4.9,2.1-4.9,5.7
		c0,3.5,2.3,5.7,4.9,5.7C239.5,29.5,242,27.4,242,24z M252.7,31.7V9h7.7c3.7,0,7.1,2.8,7.1,6.7s-3.3,6.7-7.1,6.7h-4.8v9.1h-3V31.7z
		 M260.5,19.7c2.6,0,4-2.2,4-4s-1.4-4-4-4h-4.9v8H260.5z M269.5,31.7V9h3v22.7H269.5z M274.9,27.1c0-3.5,3.2-5.4,6.8-5.4
		c2.1,0,3.6,0.6,4.3,0.9v-0.4c0-2.3-1.9-3.7-4-3.7c-1.7,0-3.2,0.8-3.7,2.2l-2.7-1.2c0.5-1.4,2.4-3.7,6.3-3.7s7,2.3,7,6.7v9.4H286
		v-2.2h-0.1c-0.9,1.3-2.4,2.7-5.2,2.7C277.6,32.2,274.9,30.3,274.9,27.1z M286,25c0,0-1.3-1-3.7-1c-3.1,0-4.3,1.7-4.3,3.1
		c0,1.7,1.7,2.4,3.2,2.4C283.6,29.5,286,27.6,286,25z M293,27.1v-8.1h-2.7v-2.7h2.7v-4.8h3v4.8h3.9v2.7h-3.9v8
		c0,1.8,0.8,2.6,2.1,2.6c0.5,0,0.9,0,1.3-0.3l1,2.4c-0.6,0.3-1.4,0.4-2.3,0.4C294.8,32,293,30.1,293,27.1z M311.9,9.3l-1,2.4
		c-0.4-0.1-0.8-0.3-1.3-0.3c-1.4,0-2.6,0.9-2.6,2.7v1.9h4v2.7h-4v12.9h-3V18.8h-2.8v-2.7h3v-1.9c0-3.2,2.2-5.3,5.5-5.3
		C310.6,8.9,311.3,9,311.9,9.3z M327.9,24c0,4.8-3.3,8.2-8,8.2c-4.6,0-8-3.6-8-8.2c0-4.8,3.3-8.2,8-8.2
		C324.5,15.7,327.9,19.2,327.9,24z M324.9,24c0-3.6-2.4-5.7-5-5.7c-2.6,0-5,2.1-5,5.7c0,3.6,2.4,5.7,5,5.7
		C322.5,29.5,324.9,27.4,324.9,24z M330.2,31.7V16.2h2.8v2.6h0.1c0.6-1.8,2.8-3,4.5-3c0.9,0,1.5,0.1,2.2,0.4l-1.2,2.7
		c-0.4-0.1-0.9-0.3-1.5-0.3c-2.1,0-4,1.7-4,4.5v8.5H330.2z M341.4,16.2h2.8v2.2h0.1c0.9-1.5,3-2.7,4.8-2.7c2.4,0,4.1,1.2,4.9,3
		c1.2-1.8,3-3,5.4-3c3.9,0,5.5,2.7,5.5,6.6v9.5h-3v-9c0-3.2-1.3-4.3-3.5-4.3c-2.3,0-4,2.4-4,4.8V32h-3v-9c0-3.2-1.3-4.3-3.5-4.3
		c-2.3,0-4,2.4-4,4.8v8.6h-3V16.2H341.4z"/>
	<path id="XMLID_362_" class="st40" d="M56.7,19.2c0-7.2,6-13,13.2-13c4,0,6.8,1.6,8.9,3.6l-2.5,2.5c-1.5-1.4-3.6-2.6-6.4-2.6
		c-5.2,0-9.3,4.2-9.3,9.4c0,5.2,4.1,9.4,9.3,9.4c3.4,0,5.3-1.4,6.6-2.6c1-1,1.7-2.5,1.9-4.5h-8.5V18h12c0.1,0.6,0.2,1.4,0.2,2.2
		c0,2.7-0.7,6-3.1,8.3c-2.3,2.4-5.2,3.6-9.1,3.6C62.7,32.2,56.7,26.4,56.7,19.2z M91.7,15.5c-4.6,0-8.4,3.5-8.4,8.4
		c0,4.8,3.8,8.4,8.4,8.4c4.6,0,8.4-3.5,8.4-8.4C100.1,19,96.3,15.5,91.7,15.5z M91.7,28.9c-2.5,0-4.7-2.1-4.7-5.1
		c0-3,2.2-5.1,4.7-5.1c2.5,0,4.7,2.1,4.7,5.1C96.4,26.8,94.2,28.9,91.7,28.9z M110,15.5c-4.6,0-8.4,3.5-8.4,8.4
		c0,4.8,3.8,8.4,8.4,8.4c4.6,0,8.4-3.5,8.4-8.4C118.4,19,114.6,15.5,110,15.5z M110,28.9c-2.5,0-4.7-2.1-4.7-5.1
		c0-3,2.2-5.1,4.7-5.1c2.6,0,4.7,2.1,4.7,5.1C114.7,26.8,112.5,28.9,110,28.9z M132.5,16v1.4h-0.1c-0.8-1-2.4-1.9-4.4-1.9
		c-4.2,0-8,3.7-8,8.4c0,4.7,3.8,8.3,8,8.3c2,0,3.6-0.9,4.4-1.9h0.1v1.2c0,3.2-1.7,4.9-4.5,4.9c-2.3,0-3.6-1.6-4.2-3l-3.2,1.3
		c0.9,2.2,3.4,5,7.4,5c4.3,0,7.9-2.5,7.9-8.7V16H132.5z M128.3,28.9c-2.5,0-4.7-2.1-4.7-5.1c0-2.9,2.1-5.1,4.7-5.1
		c2.5,0,4.5,2.2,4.5,5.1C132.8,26.8,130.8,28.9,128.3,28.9z"/>
	<rect id="XMLID_363_" x="138.5" y="7.1" class="st40" width="3.7" height="24.6"/>
	<path id="XMLID_366_" class="st40" d="M152.3,28.9c-1.9,0-3.2-0.9-4.1-2.5l11.2-4.6l-0.4-0.9c-0.7-1.9-2.8-5.3-7.2-5.3
		c-4.3,0-7.9,3.4-7.9,8.4c0,4.7,3.5,8.4,8.3,8.4c3.8,0,6-2.4,7-3.7l-2.8-1.9C155.4,28,154.1,28.9,152.3,28.9z M152,18.7
		c1.5,0,2.7,0.7,3.1,1.8l-7.5,3.1C147.5,20.4,150.1,18.7,152,18.7z"/>
</g>
</svg>
