<?xml version="1.0" encoding="utf-8"?>
<!-- Generator: Adobe Illustrator 22.1.0, SVG Export Plug-In . SVG Version: 6.00 Build 0)  -->
<svg version="1.1" id="Layer_1" xmlns="http://www.w3.org/2000/svg" xmlns:xlink="http://www.w3.org/1999/xlink" x="0px" y="0px"
	 viewBox="0 0 400 400" style="enable-background:new 0 0 400 400;" xml:space="preserve">
<style type="text/css">
	.st0{clip-path:url(#SVGID_2_);fill:#1D1D1B;}
	.st1{clip-path:url(#SVGID_2_);fill:#504897;}
	.st2{clip-path:url(#SVGID_2_);fill:#28B3AF;}
	.st3{clip-path:url(#SVGID_2_);fill:#FFFFFF;}
	.st4{clip-path:url(#SVGID_2_);fill:#EFE53C;}
</style>
<g>
	<defs>
		<rect id="SVGID_1_" width="400" height="400"/>
	</defs>
	<clipPath id="SVGID_2_">
		<use xlink:href="#SVGID_1_"  style="overflow:visible;"/>
	</clipPath>
	<rect class="st0" width="400" height="400"/>
	<path class="st1" d="M4.5,0c0,2.5-2,4.5-4.5,4.5c-2.5,0-4.5-2-4.5-4.5s2-4.5,4.5-4.5C2.5-4.5,4.5-2.5,4.5,0z"/>
	<path class="st2" d="M33.1,0c0,2.5-2,4.5-4.5,4.5c-2.5,0-4.5-2-4.5-4.5s2-4.5,4.5-4.5C31.1-4.5,33.1-2.5,33.1,0z"/>
	<path class="st3" d="M61.6,0c0,2.5-2,4.5-4.5,4.5c-2.5,0-4.5-2-4.5-4.5s2-4.5,4.5-4.5C59.6-4.5,61.6-2.5,61.6,0z"/>
	<path class="st3" d="M90.2,0c0,2.5-2,4.5-4.5,4.5c-2.5,0-4.5-2-4.5-4.5s2-4.5,4.5-4.5C88.2-4.5,90.2-2.5,90.2,0z"/>
	<path class="st4" d="M118.8,0c0,2.5-2,4.5-4.5,4.5c-2.5,0-4.5-2-4.5-4.5s2-4.5,4.5-4.5C116.8-4.5,118.8-2.5,118.8,0z"/>
	<path class="st2" d="M147.3,0c0,2.5-2,4.5-4.5,4.5c-2.5,0-4.5-2-4.5-4.5s2-4.5,4.5-4.5C145.3-4.5,147.3-2.5,147.3,0z"/>
	<path class="st3" d="M175.9,0c0,2.5-2,4.5-4.5,4.5c-2.5,0-4.5-2-4.5-4.5s2-4.5,4.5-4.5C173.9-4.5,175.9-2.5,175.9,0z"/>
	<path class="st1" d="M204.5,0c0,2.5-2,4.5-4.5,4.5c-2.5,0-4.5-2-4.5-4.5s2-4.5,4.5-4.5C202.5-4.5,204.5-2.5,204.5,0z"/>
	<path class="st3" d="M4.5,28.6c0,2.5-2,4.5-4.5,4.5c-2.5,0-4.5-2-4.5-4.5s2-4.5,4.5-4.5C2.5,24.1,4.5,26.1,4.5,28.6z"/>
	<path class="st1" d="M33.1,28.6c0,2.5-2,4.5-4.5,4.5c-2.5,0-4.5-2-4.5-4.5s2-4.5,4.5-4.5C31.1,24.1,33.1,26.1,33.1,28.6z"/>
	<path class="st2" d="M61.6,28.6c0,2.5-2,4.5-4.5,4.5c-2.5,0-4.5-2-4.5-4.5s2-4.5,4.5-4.5C59.6,24.1,61.6,26.1,61.6,28.6z"/>
	<path class="st3" d="M90.2,28.6c0,2.5-2,4.5-4.5,4.5c-2.5,0-4.5-2-4.5-4.5s2-4.5,4.5-4.5C88.2,24.1,90.2,26.1,90.2,28.6z"/>
	<path class="st3" d="M118.8,28.6c0,2.5-2,4.5-4.5,4.5c-2.5,0-4.5-2-4.5-4.5s2-4.5,4.5-4.5C116.8,24.1,118.8,26.1,118.8,28.6z"/>
	<path class="st4" d="M147.3,28.6c0,2.5-2,4.5-4.5,4.5c-2.5,0-4.5-2-4.5-4.5s2-4.5,4.5-4.5C145.3,24.1,147.3,26.1,147.3,28.6z"/>
	<path class="st2" d="M175.9,28.6c0,2.5-2,4.5-4.5,4.5c-2.5,0-4.5-2-4.5-4.5s2-4.5,4.5-4.5C173.9,24.1,175.9,26.1,175.9,28.6z"/>
	<path class="st3" d="M204.5,28.6c0,2.5-2,4.5-4.5,4.5c-2.5,0-4.5-2-4.5-4.5s2-4.5,4.5-4.5C202.5,24.1,204.5,26.1,204.5,28.6z"/>
	<path class="st2" d="M4.5,57.1c0,2.5-2,4.5-4.5,4.5c-2.5,0-4.5-2-4.5-4.5s2-4.5,4.5-4.5C2.5,52.7,4.5,54.7,4.5,57.1z"/>
	<path class="st3" d="M33.1,57.1c0,2.5-2,4.5-4.5,4.5c-2.5,0-4.5-2-4.5-4.5s2-4.5,4.5-4.5C31.1,52.7,33.1,54.7,33.1,57.1z"/>
	<path class="st1" d="M61.6,57.1c0,2.5-2,4.5-4.5,4.5c-2.5,0-4.5-2-4.5-4.5s2-4.5,4.5-4.5C59.6,52.7,61.6,54.7,61.6,57.1z"/>
	<path class="st2" d="M90.2,57.1c0,2.5-2,4.5-4.5,4.5c-2.5,0-4.5-2-4.5-4.5s2-4.5,4.5-4.5C88.2,52.7,90.2,54.7,90.2,57.1z"/>
	<path class="st3" d="M118.8,57.1c0,2.5-2,4.5-4.5,4.5c-2.5,0-4.5-2-4.5-4.5s2-4.5,4.5-4.5C116.8,52.7,118.8,54.7,118.8,57.1z"/>
	<path class="st3" d="M147.3,57.1c0,2.5-2,4.5-4.5,4.5c-2.5,0-4.5-2-4.5-4.5s2-4.5,4.5-4.5C145.3,52.7,147.3,54.7,147.3,57.1z"/>
	<path class="st4" d="M175.9,57.1c0,2.5-2,4.5-4.5,4.5c-2.5,0-4.5-2-4.5-4.5s2-4.5,4.5-4.5C173.9,52.7,175.9,54.7,175.9,57.1z"/>
	<path class="st2" d="M204.5,57.1c0,2.5-2,4.5-4.5,4.5c-2.5,0-4.5-2-4.5-4.5s2-4.5,4.5-4.5C202.5,52.7,204.5,54.7,204.5,57.1z"/>
	<path class="st4" d="M4.5,85.7c0,2.5-2,4.5-4.5,4.5c-2.5,0-4.5-2-4.5-4.5s2-4.5,4.5-4.5C2.5,81.2,4.5,83.2,4.5,85.7z"/>
	<path class="st2" d="M33.1,85.7c0,2.5-2,4.5-4.5,4.5c-2.5,0-4.5-2-4.5-4.5s2-4.5,4.5-4.5C31.1,81.2,33.1,83.2,33.1,85.7z"/>
	<path class="st3" d="M61.6,85.7c0,2.5-2,4.5-4.5,4.5c-2.5,0-4.5-2-4.5-4.5s2-4.5,4.5-4.5C59.6,81.2,61.6,83.2,61.6,85.7z"/>
	<path class="st1" d="M90.2,85.7c0,2.5-2,4.5-4.5,4.5c-2.5,0-4.5-2-4.5-4.5s2-4.5,4.5-4.5C88.2,81.2,90.2,83.2,90.2,85.7z"/>
	<path class="st2" d="M118.8,85.7c0,2.5-2,4.5-4.5,4.5c-2.5,0-4.5-2-4.5-4.5s2-4.5,4.5-4.5C116.8,81.2,118.8,83.2,118.8,85.7z"/>
	<path class="st3" d="M147.3,85.7c0,2.5-2,4.5-4.5,4.5c-2.5,0-4.5-2-4.5-4.5s2-4.5,4.5-4.5C145.3,81.2,147.3,83.2,147.3,85.7z"/>
	<path class="st3" d="M175.9,85.7c0,2.5-2,4.5-4.5,4.5c-2.5,0-4.5-2-4.5-4.5s2-4.5,4.5-4.5C173.9,81.2,175.9,83.2,175.9,85.7z"/>
	<path class="st4" d="M204.5,85.7c0,2.5-2,4.5-4.5,4.5c-2.5,0-4.5-2-4.5-4.5s2-4.5,4.5-4.5C202.5,81.2,204.5,83.2,204.5,85.7z"/>
	<path class="st3" d="M4.5,114.3c0,2.5-2,4.5-4.5,4.5c-2.5,0-4.5-2-4.5-4.5c0-2.5,2-4.5,4.5-4.5C2.5,109.8,4.5,111.8,4.5,114.3z"/>
	<path class="st4" d="M33.1,114.3c0,2.5-2,4.5-4.5,4.5c-2.5,0-4.5-2-4.5-4.5c0-2.5,2-4.5,4.5-4.5C31.1,109.8,33.1,111.8,33.1,114.3z
		"/>
	<path class="st2" d="M61.6,114.3c0,2.5-2,4.5-4.5,4.5c-2.5,0-4.5-2-4.5-4.5c0-2.5,2-4.5,4.5-4.5C59.6,109.8,61.6,111.8,61.6,114.3z
		"/>
	<path class="st3" d="M90.2,114.3c0,2.5-2,4.5-4.5,4.5c-2.5,0-4.5-2-4.5-4.5c0-2.5,2-4.5,4.5-4.5C88.2,109.8,90.2,111.8,90.2,114.3z
		"/>
	<path class="st1" d="M118.8,114.3c0,2.5-2,4.5-4.5,4.5c-2.5,0-4.5-2-4.5-4.5c0-2.5,2-4.5,4.5-4.5
		C116.8,109.8,118.8,111.8,118.8,114.3z"/>
	<path class="st2" d="M147.3,114.3c0,2.5-2,4.5-4.5,4.5c-2.5,0-4.5-2-4.5-4.5c0-2.5,2-4.5,4.5-4.5
		C145.3,109.8,147.3,111.8,147.3,114.3z"/>
	<path class="st3" d="M175.9,114.3c0,2.5-2,4.5-4.5,4.5c-2.5,0-4.5-2-4.5-4.5c0-2.5,2-4.5,4.5-4.5
		C173.9,109.8,175.9,111.8,175.9,114.3z"/>
	<path class="st3" d="M204.5,114.3c0,2.5-2,4.5-4.5,4.5c-2.5,0-4.5-2-4.5-4.5c0-2.5,2-4.5,4.5-4.5
		C202.5,109.8,204.5,111.8,204.5,114.3z"/>
	<path class="st3" d="M4.5,142.9c0,2.5-2,4.5-4.5,4.5c-2.5,0-4.5-2-4.5-4.5c0-2.5,2-4.5,4.5-4.5C2.5,138.4,4.5,140.4,4.5,142.9z"/>
	<path class="st3" d="M33.1,142.9c0,2.5-2,4.5-4.5,4.5c-2.5,0-4.5-2-4.5-4.5c0-2.5,2-4.5,4.5-4.5C31.1,138.4,33.1,140.4,33.1,142.9z
		"/>
	<path class="st4" d="M61.6,142.9c0,2.5-2,4.5-4.5,4.5c-2.5,0-4.5-2-4.5-4.5c0-2.5,2-4.5,4.5-4.5C59.6,138.4,61.6,140.4,61.6,142.9z
		"/>
	<path class="st2" d="M90.2,142.9c0,2.5-2,4.5-4.5,4.5c-2.5,0-4.5-2-4.5-4.5c0-2.5,2-4.5,4.5-4.5C88.2,138.4,90.2,140.4,90.2,142.9z
		"/>
	<path class="st3" d="M118.8,142.9c0,2.5-2,4.5-4.5,4.5c-2.5,0-4.5-2-4.5-4.5c0-2.5,2-4.5,4.5-4.5
		C116.8,138.4,118.8,140.4,118.8,142.9z"/>
	<path class="st1" d="M147.3,142.9c0,2.5-2,4.5-4.5,4.5c-2.5,0-4.5-2-4.5-4.5c0-2.5,2-4.5,4.5-4.5
		C145.3,138.4,147.3,140.4,147.3,142.9z"/>
	<path class="st2" d="M175.9,142.9c0,2.5-2,4.5-4.5,4.5c-2.5,0-4.5-2-4.5-4.5c0-2.5,2-4.5,4.5-4.5
		C173.9,138.4,175.9,140.4,175.9,142.9z"/>
	<path class="st3" d="M204.5,142.9c0,2.5-2,4.5-4.5,4.5c-2.5,0-4.5-2-4.5-4.5c0-2.5,2-4.5,4.5-4.5
		C202.5,138.4,204.5,140.4,204.5,142.9z"/>
	<path class="st2" d="M4.5,171.4c0,2.5-2,4.5-4.5,4.5c-2.5,0-4.5-2-4.5-4.5c0-2.5,2-4.5,4.5-4.5C2.5,166.9,4.5,168.9,4.5,171.4z"/>
	<path class="st3" d="M33.1,171.4c0,2.5-2,4.5-4.5,4.5c-2.5,0-4.5-2-4.5-4.5c0-2.5,2-4.5,4.5-4.5C31.1,166.9,33.1,168.9,33.1,171.4z
		"/>
	<path class="st3" d="M61.6,171.4c0,2.5-2,4.5-4.5,4.5c-2.5,0-4.5-2-4.5-4.5c0-2.5,2-4.5,4.5-4.5C59.6,166.9,61.6,168.9,61.6,171.4z
		"/>
	<path class="st4" d="M90.2,171.4c0,2.5-2,4.5-4.5,4.5c-2.5,0-4.5-2-4.5-4.5c0-2.5,2-4.5,4.5-4.5C88.2,166.9,90.2,168.9,90.2,171.4z
		"/>
	<path class="st2" d="M118.8,171.4c0,2.5-2,4.5-4.5,4.5c-2.5,0-4.5-2-4.5-4.5c0-2.5,2-4.5,4.5-4.5
		C116.8,166.9,118.8,168.9,118.8,171.4z"/>
	<path class="st3" d="M147.3,171.4c0,2.5-2,4.5-4.5,4.5c-2.5,0-4.5-2-4.5-4.5c0-2.5,2-4.5,4.5-4.5
		C145.3,166.9,147.3,168.9,147.3,171.4z"/>
	<path class="st1" d="M175.9,171.4c0,2.5-2,4.5-4.5,4.5c-2.5,0-4.5-2-4.5-4.5c0-2.5,2-4.5,4.5-4.5
		C173.9,166.9,175.9,168.9,175.9,171.4z"/>
	<path class="st2" d="M204.5,171.4c0,2.5-2,4.5-4.5,4.5c-2.5,0-4.5-2-4.5-4.5c0-2.5,2-4.5,4.5-4.5
		C202.5,166.9,204.5,168.9,204.5,171.4z"/>
	<path class="st1" d="M4.5,200c0,2.5-2,4.5-4.5,4.5c-2.5,0-4.5-2-4.5-4.5c0-2.5,2-4.5,4.5-4.5C2.5,195.5,4.5,197.5,4.5,200z"/>
	<path class="st2" d="M33.1,200c0,2.5-2,4.5-4.5,4.5c-2.5,0-4.5-2-4.5-4.5c0-2.5,2-4.5,4.5-4.5C31.1,195.5,33.1,197.5,33.1,200z"/>
	<path class="st3" d="M61.6,200c0,2.5-2,4.5-4.5,4.5c-2.5,0-4.5-2-4.5-4.5c0-2.5,2-4.5,4.5-4.5C59.6,195.5,61.6,197.5,61.6,200z"/>
	<circle class="st3" cx="85.7" cy="200" r="4.5"/>
	<path class="st4" d="M118.8,200c0,2.5-2,4.5-4.5,4.5c-2.5,0-4.5-2-4.5-4.5c0-2.5,2-4.5,4.5-4.5C116.8,195.5,118.8,197.5,118.8,200z
		"/>
	<path class="st2" d="M147.3,200c0,2.5-2,4.5-4.5,4.5c-2.5,0-4.5-2-4.5-4.5c0-2.5,2-4.5,4.5-4.5C145.3,195.5,147.3,197.5,147.3,200z
		"/>
	<path class="st3" d="M175.9,200c0,2.5-2,4.5-4.5,4.5c-2.5,0-4.5-2-4.5-4.5c0-2.5,2-4.5,4.5-4.5C173.9,195.5,175.9,197.5,175.9,200z
		"/>
	<path class="st1" d="M204.5,200c0,2.5-2,4.5-4.5,4.5c-2.5,0-4.5-2-4.5-4.5c0-2.5,2-4.5,4.5-4.5C202.5,195.5,204.5,197.5,204.5,200z
		"/>
	<path class="st2" d="M233.1,0c0,2.5-2,4.5-4.5,4.5c-2.5,0-4.5-2-4.5-4.5s2-4.5,4.5-4.5C231.1-4.5,233.1-2.5,233.1,0z"/>
	<path class="st3" d="M261.6,0c0,2.5-2,4.5-4.5,4.5c-2.5,0-4.5-2-4.5-4.5s2-4.5,4.5-4.5C259.6-4.5,261.6-2.5,261.6,0z"/>
	<path class="st3" d="M290.2,0c0,2.5-2,4.5-4.5,4.5c-2.5,0-4.5-2-4.5-4.5s2-4.5,4.5-4.5C288.2-4.5,290.2-2.5,290.2,0z"/>
	<path class="st4" d="M318.8,0c0,2.5-2,4.5-4.5,4.5c-2.5,0-4.5-2-4.5-4.5s2-4.5,4.5-4.5C316.8-4.5,318.8-2.5,318.8,0z"/>
	<path class="st2" d="M347.3,0c0,2.5-2,4.5-4.5,4.5c-2.5,0-4.5-2-4.5-4.5s2-4.5,4.5-4.5C345.3-4.5,347.3-2.5,347.3,0z"/>
	<path class="st3" d="M375.9,0c0,2.5-2,4.5-4.5,4.5c-2.5,0-4.5-2-4.5-4.5s2-4.5,4.5-4.5C373.9-4.5,375.9-2.5,375.9,0z"/>
	<path class="st1" d="M404.5,0c0,2.5-2,4.5-4.5,4.5c-2.5,0-4.5-2-4.5-4.5s2-4.5,4.5-4.5C402.5-4.5,404.5-2.5,404.5,0z"/>
	<path class="st1" d="M233.1,28.6c0,2.5-2,4.5-4.5,4.5c-2.5,0-4.5-2-4.5-4.5s2-4.5,4.5-4.5C231.1,24.1,233.1,26.1,233.1,28.6z"/>
	<path class="st2" d="M261.6,28.6c0,2.5-2,4.5-4.5,4.5c-2.5,0-4.5-2-4.5-4.5s2-4.5,4.5-4.5C259.6,24.1,261.6,26.1,261.6,28.6z"/>
	<path class="st3" d="M290.2,28.6c0,2.5-2,4.5-4.5,4.5c-2.5,0-4.5-2-4.5-4.5s2-4.5,4.5-4.5C288.2,24.1,290.2,26.1,290.2,28.6z"/>
	<path class="st3" d="M318.8,28.6c0,2.5-2,4.5-4.5,4.5c-2.5,0-4.5-2-4.5-4.5s2-4.5,4.5-4.5C316.8,24.1,318.8,26.1,318.8,28.6z"/>
	<path class="st4" d="M347.3,28.6c0,2.5-2,4.5-4.5,4.5c-2.5,0-4.5-2-4.5-4.5s2-4.5,4.5-4.5C345.3,24.1,347.3,26.1,347.3,28.6z"/>
	<path class="st2" d="M375.9,28.6c0,2.5-2,4.5-4.5,4.5c-2.5,0-4.5-2-4.5-4.5s2-4.5,4.5-4.5C373.9,24.1,375.9,26.1,375.9,28.6z"/>
	<path class="st3" d="M404.5,28.6c0,2.5-2,4.5-4.5,4.5c-2.5,0-4.5-2-4.5-4.5s2-4.5,4.5-4.5C402.5,24.1,404.5,26.1,404.5,28.6z"/>
	<path class="st3" d="M233.1,57.1c0,2.5-2,4.5-4.5,4.5c-2.5,0-4.5-2-4.5-4.5s2-4.5,4.5-4.5C231.1,52.7,233.1,54.7,233.1,57.1z"/>
	<path class="st1" d="M261.6,57.1c0,2.5-2,4.5-4.5,4.5c-2.5,0-4.5-2-4.5-4.5s2-4.5,4.5-4.5C259.6,52.7,261.6,54.7,261.6,57.1z"/>
	<path class="st2" d="M290.2,57.1c0,2.5-2,4.5-4.5,4.5c-2.5,0-4.5-2-4.5-4.5s2-4.5,4.5-4.5C288.2,52.7,290.2,54.7,290.2,57.1z"/>
	<path class="st3" d="M318.8,57.1c0,2.5-2,4.5-4.5,4.5c-2.5,0-4.5-2-4.5-4.5s2-4.5,4.5-4.5C316.8,52.7,318.8,54.7,318.8,57.1z"/>
	<path class="st3" d="M347.3,57.1c0,2.5-2,4.5-4.5,4.5c-2.5,0-4.5-2-4.5-4.5s2-4.5,4.5-4.5C345.3,52.7,347.3,54.7,347.3,57.1z"/>
	<path class="st4" d="M375.9,57.1c0,2.5-2,4.5-4.5,4.5c-2.5,0-4.5-2-4.5-4.5s2-4.5,4.5-4.5C373.9,52.7,375.9,54.7,375.9,57.1z"/>
	<path class="st2" d="M404.5,57.1c0,2.5-2,4.5-4.5,4.5c-2.5,0-4.5-2-4.5-4.5s2-4.5,4.5-4.5C402.5,52.7,404.5,54.7,404.5,57.1z"/>
	<path class="st2" d="M233.1,85.7c0,2.5-2,4.5-4.5,4.5c-2.5,0-4.5-2-4.5-4.5s2-4.5,4.5-4.5C231.1,81.2,233.1,83.2,233.1,85.7z"/>
	<path class="st3" d="M261.6,85.7c0,2.5-2,4.5-4.5,4.5c-2.5,0-4.5-2-4.5-4.5s2-4.5,4.5-4.5C259.6,81.2,261.6,83.2,261.6,85.7z"/>
	<path class="st1" d="M290.2,85.7c0,2.5-2,4.5-4.5,4.5c-2.5,0-4.5-2-4.5-4.5s2-4.5,4.5-4.5C288.2,81.2,290.2,83.2,290.2,85.7z"/>
	<path class="st2" d="M318.8,85.7c0,2.5-2,4.5-4.5,4.5c-2.5,0-4.5-2-4.5-4.5s2-4.5,4.5-4.5C316.8,81.2,318.8,83.2,318.8,85.7z"/>
	<path class="st3" d="M347.3,85.7c0,2.5-2,4.5-4.5,4.5c-2.5,0-4.5-2-4.5-4.5s2-4.5,4.5-4.5C345.3,81.2,347.3,83.2,347.3,85.7z"/>
	<path class="st3" d="M375.9,85.7c0,2.5-2,4.5-4.5,4.5c-2.5,0-4.5-2-4.5-4.5s2-4.5,4.5-4.5C373.9,81.2,375.9,83.2,375.9,85.7z"/>
	<path class="st4" d="M404.5,85.7c0,2.5-2,4.5-4.5,4.5c-2.5,0-4.5-2-4.5-4.5s2-4.5,4.5-4.5C402.5,81.2,404.5,83.2,404.5,85.7z"/>
	<path class="st4" d="M233.1,114.3c0,2.5-2,4.5-4.5,4.5c-2.5,0-4.5-2-4.5-4.5c0-2.5,2-4.5,4.5-4.5
		C231.1,109.8,233.1,111.8,233.1,114.3z"/>
	<path class="st2" d="M261.6,114.3c0,2.5-2,4.5-4.5,4.5c-2.5,0-4.5-2-4.5-4.5c0-2.5,2-4.5,4.5-4.5
		C259.6,109.8,261.6,111.8,261.6,114.3z"/>
	<path class="st3" d="M290.2,114.3c0,2.5-2,4.5-4.5,4.5c-2.5,0-4.5-2-4.5-4.5c0-2.5,2-4.5,4.5-4.5
		C288.2,109.8,290.2,111.8,290.2,114.3z"/>
	<path class="st1" d="M318.8,114.3c0,2.5-2,4.5-4.5,4.5c-2.5,0-4.5-2-4.5-4.5c0-2.5,2-4.5,4.5-4.5
		C316.8,109.8,318.8,111.8,318.8,114.3z"/>
	<path class="st2" d="M347.3,114.3c0,2.5-2,4.5-4.5,4.5c-2.5,0-4.5-2-4.5-4.5c0-2.5,2-4.5,4.5-4.5
		C345.3,109.8,347.3,111.8,347.3,114.3z"/>
	<path class="st3" d="M375.9,114.3c0,2.5-2,4.5-4.5,4.5c-2.5,0-4.5-2-4.5-4.5c0-2.5,2-4.5,4.5-4.5
		C373.9,109.8,375.9,111.8,375.9,114.3z"/>
	<path class="st3" d="M404.5,114.3c0,2.5-2,4.5-4.5,4.5c-2.5,0-4.5-2-4.5-4.5c0-2.5,2-4.5,4.5-4.5
		C402.5,109.8,404.5,111.8,404.5,114.3z"/>
	<path class="st3" d="M233.1,142.9c0,2.5-2,4.5-4.5,4.5c-2.5,0-4.5-2-4.5-4.5c0-2.5,2-4.5,4.5-4.5
		C231.1,138.4,233.1,140.4,233.1,142.9z"/>
	<path class="st4" d="M261.6,142.9c0,2.5-2,4.5-4.5,4.5c-2.5,0-4.5-2-4.5-4.5c0-2.5,2-4.5,4.5-4.5
		C259.6,138.4,261.6,140.4,261.6,142.9z"/>
	<path class="st2" d="M290.2,142.9c0,2.5-2,4.5-4.5,4.5c-2.5,0-4.5-2-4.5-4.5c0-2.5,2-4.5,4.5-4.5
		C288.2,138.4,290.2,140.4,290.2,142.9z"/>
	<path class="st3" d="M318.8,142.9c0,2.5-2,4.5-4.5,4.5c-2.5,0-4.5-2-4.5-4.5c0-2.5,2-4.5,4.5-4.5
		C316.8,138.4,318.8,140.4,318.8,142.9z"/>
	<path class="st1" d="M347.3,142.9c0,2.5-2,4.5-4.5,4.5c-2.5,0-4.5-2-4.5-4.5c0-2.5,2-4.5,4.5-4.5
		C345.3,138.4,347.3,140.4,347.3,142.9z"/>
	<path class="st2" d="M375.9,142.9c0,2.5-2,4.5-4.5,4.5c-2.5,0-4.5-2-4.5-4.5c0-2.5,2-4.5,4.5-4.5
		C373.9,138.4,375.9,140.4,375.9,142.9z"/>
	<path class="st3" d="M404.5,142.9c0,2.5-2,4.5-4.5,4.5c-2.5,0-4.5-2-4.5-4.5c0-2.5,2-4.5,4.5-4.5
		C402.5,138.4,404.5,140.4,404.5,142.9z"/>
	<path class="st3" d="M233.1,171.4c0,2.5-2,4.5-4.5,4.5c-2.5,0-4.5-2-4.5-4.5c0-2.5,2-4.5,4.5-4.5
		C231.1,166.9,233.1,168.9,233.1,171.4z"/>
	<path class="st3" d="M261.6,171.4c0,2.5-2,4.5-4.5,4.5c-2.5,0-4.5-2-4.5-4.5c0-2.5,2-4.5,4.5-4.5
		C259.6,166.9,261.6,168.9,261.6,171.4z"/>
	<path class="st4" d="M290.2,171.4c0,2.5-2,4.5-4.5,4.5c-2.5,0-4.5-2-4.5-4.5c0-2.5,2-4.5,4.5-4.5
		C288.2,166.9,290.2,168.9,290.2,171.4z"/>
	<path class="st2" d="M318.8,171.4c0,2.5-2,4.5-4.5,4.5c-2.5,0-4.5-2-4.5-4.5c0-2.5,2-4.5,4.5-4.5
		C316.8,166.9,318.8,168.9,318.8,171.4z"/>
	<path class="st3" d="M347.3,171.4c0,2.5-2,4.5-4.5,4.5c-2.5,0-4.5-2-4.5-4.5c0-2.5,2-4.5,4.5-4.5
		C345.3,166.9,347.3,168.9,347.3,171.4z"/>
	<path class="st1" d="M375.9,171.4c0,2.5-2,4.5-4.5,4.5c-2.5,0-4.5-2-4.5-4.5c0-2.5,2-4.5,4.5-4.5
		C373.9,166.9,375.9,168.9,375.9,171.4z"/>
	<path class="st2" d="M404.5,171.4c0,2.5-2,4.5-4.5,4.5c-2.5,0-4.5-2-4.5-4.5c0-2.5,2-4.5,4.5-4.5
		C402.5,166.9,404.5,168.9,404.5,171.4z"/>
	<path class="st2" d="M233.1,200c0,2.5-2,4.5-4.5,4.5c-2.5,0-4.5-2-4.5-4.5c0-2.5,2-4.5,4.5-4.5C231.1,195.5,233.1,197.5,233.1,200z
		"/>
	<path class="st3" d="M261.6,200c0,2.5-2,4.5-4.5,4.5c-2.5,0-4.5-2-4.5-4.5c0-2.5,2-4.5,4.5-4.5C259.6,195.5,261.6,197.5,261.6,200z
		"/>
	<circle class="st3" cx="285.7" cy="200" r="4.5"/>
	<path class="st4" d="M318.8,200c0,2.5-2,4.5-4.5,4.5c-2.5,0-4.5-2-4.5-4.5c0-2.5,2-4.5,4.5-4.5C316.8,195.5,318.8,197.5,318.8,200z
		"/>
	<path class="st2" d="M347.3,200c0,2.5-2,4.5-4.5,4.5c-2.5,0-4.5-2-4.5-4.5c0-2.5,2-4.5,4.5-4.5C345.3,195.5,347.3,197.5,347.3,200z
		"/>
	<path class="st3" d="M375.9,200c0,2.5-2,4.5-4.5,4.5c-2.5,0-4.5-2-4.5-4.5c0-2.5,2-4.5,4.5-4.5C373.9,195.5,375.9,197.5,375.9,200z
		"/>
	<path class="st1" d="M404.5,200c0,2.5-2,4.5-4.5,4.5c-2.5,0-4.5-2-4.5-4.5c0-2.5,2-4.5,4.5-4.5C402.5,195.5,404.5,197.5,404.5,200z
		"/>
	<path class="st3" d="M4.5,228.6c0,2.5-2,4.5-4.5,4.5c-2.5,0-4.5-2-4.5-4.5c0-2.5,2-4.5,4.5-4.5C2.5,224.1,4.5,226.1,4.5,228.6z"/>
	<path class="st1" d="M33.1,228.6c0,2.5-2,4.5-4.5,4.5c-2.5,0-4.5-2-4.5-4.5c0-2.5,2-4.5,4.5-4.5C31.1,224.1,33.1,226.1,33.1,228.6z
		"/>
	<path class="st2" d="M61.6,228.6c0,2.5-2,4.5-4.5,4.5c-2.5,0-4.5-2-4.5-4.5c0-2.5,2-4.5,4.5-4.5C59.6,224.1,61.6,226.1,61.6,228.6z
		"/>
	<path class="st3" d="M90.2,228.6c0,2.5-2,4.5-4.5,4.5c-2.5,0-4.5-2-4.5-4.5c0-2.5,2-4.5,4.5-4.5C88.2,224.1,90.2,226.1,90.2,228.6z
		"/>
	<path class="st3" d="M118.8,228.6c0,2.5-2,4.5-4.5,4.5c-2.5,0-4.5-2-4.5-4.5c0-2.5,2-4.5,4.5-4.5
		C116.8,224.1,118.8,226.1,118.8,228.6z"/>
	<path class="st4" d="M147.3,228.6c0,2.5-2,4.5-4.5,4.5c-2.5,0-4.5-2-4.5-4.5c0-2.5,2-4.5,4.5-4.5
		C145.3,224.1,147.3,226.1,147.3,228.6z"/>
	<path class="st2" d="M175.9,228.6c0,2.5-2,4.5-4.5,4.5c-2.5,0-4.5-2-4.5-4.5c0-2.5,2-4.5,4.5-4.5
		C173.9,224.1,175.9,226.1,175.9,228.6z"/>
	<path class="st3" d="M204.5,228.6c0,2.5-2,4.5-4.5,4.5c-2.5,0-4.5-2-4.5-4.5c0-2.5,2-4.5,4.5-4.5
		C202.5,224.1,204.5,226.1,204.5,228.6z"/>
	<path class="st2" d="M4.5,257.1c0,2.5-2,4.5-4.5,4.5c-2.5,0-4.5-2-4.5-4.5c0-2.5,2-4.5,4.5-4.5C2.5,252.7,4.5,254.7,4.5,257.1z"/>
	<path class="st3" d="M33.1,257.1c0,2.5-2,4.5-4.5,4.5c-2.5,0-4.5-2-4.5-4.5c0-2.5,2-4.5,4.5-4.5C31.1,252.7,33.1,254.7,33.1,257.1z
		"/>
	<path class="st1" d="M61.6,257.1c0,2.5-2,4.5-4.5,4.5c-2.5,0-4.5-2-4.5-4.5c0-2.5,2-4.5,4.5-4.5C59.6,252.7,61.6,254.7,61.6,257.1z
		"/>
	<path class="st2" d="M90.2,257.1c0,2.5-2,4.5-4.5,4.5c-2.5,0-4.5-2-4.5-4.5c0-2.5,2-4.5,4.5-4.5C88.2,252.7,90.2,254.7,90.2,257.1z
		"/>
	<path class="st3" d="M118.8,257.1c0,2.5-2,4.5-4.5,4.5c-2.5,0-4.5-2-4.5-4.5c0-2.5,2-4.5,4.5-4.5
		C116.8,252.7,118.8,254.7,118.8,257.1z"/>
	<path class="st3" d="M147.3,257.1c0,2.5-2,4.5-4.5,4.5c-2.5,0-4.5-2-4.5-4.5c0-2.5,2-4.5,4.5-4.5
		C145.3,252.7,147.3,254.7,147.3,257.1z"/>
	<path class="st4" d="M175.9,257.1c0,2.5-2,4.5-4.5,4.5c-2.5,0-4.5-2-4.5-4.5c0-2.5,2-4.5,4.5-4.5
		C173.9,252.7,175.9,254.7,175.9,257.1z"/>
	<path class="st2" d="M204.5,257.1c0,2.5-2,4.5-4.5,4.5c-2.5,0-4.5-2-4.5-4.5c0-2.5,2-4.5,4.5-4.5
		C202.5,252.7,204.5,254.7,204.5,257.1z"/>
	<path class="st4" d="M4.5,285.7c0,2.5-2,4.5-4.5,4.5c-2.5,0-4.5-2-4.5-4.5c0-2.5,2-4.5,4.5-4.5C2.5,281.2,4.5,283.2,4.5,285.7z"/>
	<path class="st2" d="M33.1,285.7c0,2.5-2,4.5-4.5,4.5c-2.5,0-4.5-2-4.5-4.5c0-2.5,2-4.5,4.5-4.5C31.1,281.2,33.1,283.2,33.1,285.7z
		"/>
	<path class="st3" d="M61.6,285.7c0,2.5-2,4.5-4.5,4.5c-2.5,0-4.5-2-4.5-4.5c0-2.5,2-4.5,4.5-4.5C59.6,281.2,61.6,283.2,61.6,285.7z
		"/>
	<path class="st1" d="M90.2,285.7c0,2.5-2,4.5-4.5,4.5c-2.5,0-4.5-2-4.5-4.5c0-2.5,2-4.5,4.5-4.5C88.2,281.2,90.2,283.2,90.2,285.7z
		"/>
	<path class="st2" d="M118.8,285.7c0,2.5-2,4.5-4.5,4.5c-2.5,0-4.5-2-4.5-4.5c0-2.5,2-4.5,4.5-4.5
		C116.8,281.2,118.8,283.2,118.8,285.7z"/>
	<path class="st3" d="M147.3,285.7c0,2.5-2,4.5-4.5,4.5c-2.5,0-4.5-2-4.5-4.5c0-2.5,2-4.5,4.5-4.5
		C145.3,281.2,147.3,283.2,147.3,285.7z"/>
	<path class="st3" d="M175.9,285.7c0,2.5-2,4.5-4.5,4.5c-2.5,0-4.5-2-4.5-4.5c0-2.5,2-4.5,4.5-4.5
		C173.9,281.2,175.9,283.2,175.9,285.7z"/>
	<path class="st4" d="M204.5,285.7c0,2.5-2,4.5-4.5,4.5c-2.5,0-4.5-2-4.5-4.5c0-2.5,2-4.5,4.5-4.5
		C202.5,281.2,204.5,283.2,204.5,285.7z"/>
	<path class="st3" d="M4.5,314.3c0,2.5-2,4.5-4.5,4.5c-2.5,0-4.5-2-4.5-4.5c0-2.5,2-4.5,4.5-4.5C2.5,309.8,4.5,311.8,4.5,314.3z"/>
	<path class="st4" d="M33.1,314.3c0,2.5-2,4.5-4.5,4.5c-2.5,0-4.5-2-4.5-4.5c0-2.5,2-4.5,4.5-4.5C31.1,309.8,33.1,311.8,33.1,314.3z
		"/>
	<path class="st2" d="M61.6,314.3c0,2.5-2,4.5-4.5,4.5c-2.5,0-4.5-2-4.5-4.5c0-2.5,2-4.5,4.5-4.5C59.6,309.8,61.6,311.8,61.6,314.3z
		"/>
	<path class="st3" d="M90.2,314.3c0,2.5-2,4.5-4.5,4.5c-2.5,0-4.5-2-4.5-4.5c0-2.5,2-4.5,4.5-4.5C88.2,309.8,90.2,311.8,90.2,314.3z
		"/>
	<path class="st1" d="M118.8,314.3c0,2.5-2,4.5-4.5,4.5c-2.5,0-4.5-2-4.5-4.5c0-2.5,2-4.5,4.5-4.5
		C116.8,309.8,118.8,311.8,118.8,314.3z"/>
	<path class="st2" d="M147.3,314.3c0,2.5-2,4.5-4.5,4.5c-2.5,0-4.5-2-4.5-4.5c0-2.5,2-4.5,4.5-4.5
		C145.3,309.8,147.3,311.8,147.3,314.3z"/>
	<path class="st3" d="M175.9,314.3c0,2.5-2,4.5-4.5,4.5c-2.5,0-4.5-2-4.5-4.5c0-2.5,2-4.5,4.5-4.5
		C173.9,309.8,175.9,311.8,175.9,314.3z"/>
	<path class="st3" d="M204.5,314.3c0,2.5-2,4.5-4.5,4.5c-2.5,0-4.5-2-4.5-4.5c0-2.5,2-4.5,4.5-4.5
		C202.5,309.8,204.5,311.8,204.5,314.3z"/>
	<path class="st3" d="M4.5,342.9c0,2.5-2,4.5-4.5,4.5c-2.5,0-4.5-2-4.5-4.5c0-2.5,2-4.5,4.5-4.5C2.5,338.4,4.5,340.4,4.5,342.9z"/>
	<path class="st3" d="M33.1,342.9c0,2.5-2,4.5-4.5,4.5c-2.5,0-4.5-2-4.5-4.5c0-2.5,2-4.5,4.5-4.5C31.1,338.4,33.1,340.4,33.1,342.9z
		"/>
	<path class="st4" d="M61.6,342.9c0,2.5-2,4.5-4.5,4.5c-2.5,0-4.5-2-4.5-4.5c0-2.5,2-4.5,4.5-4.5C59.6,338.4,61.6,340.4,61.6,342.9z
		"/>
	<path class="st2" d="M90.2,342.9c0,2.5-2,4.5-4.5,4.5c-2.5,0-4.5-2-4.5-4.5c0-2.5,2-4.5,4.5-4.5C88.2,338.4,90.2,340.4,90.2,342.9z
		"/>
	<path class="st3" d="M118.8,342.9c0,2.5-2,4.5-4.5,4.5c-2.5,0-4.5-2-4.5-4.5c0-2.5,2-4.5,4.5-4.5
		C116.8,338.4,118.8,340.4,118.8,342.9z"/>
	<path class="st1" d="M147.3,342.9c0,2.5-2,4.5-4.5,4.5c-2.5,0-4.5-2-4.5-4.5c0-2.5,2-4.5,4.5-4.5
		C145.3,338.4,147.3,340.4,147.3,342.9z"/>
	<path class="st2" d="M175.9,342.9c0,2.5-2,4.5-4.5,4.5c-2.5,0-4.5-2-4.5-4.5c0-2.5,2-4.5,4.5-4.5
		C173.9,338.4,175.9,340.4,175.9,342.9z"/>
	<path class="st3" d="M204.5,342.9c0,2.5-2,4.5-4.5,4.5c-2.5,0-4.5-2-4.5-4.5c0-2.5,2-4.5,4.5-4.5
		C202.5,338.4,204.5,340.4,204.5,342.9z"/>
	<path class="st2" d="M4.5,371.4c0,2.5-2,4.5-4.5,4.5c-2.5,0-4.5-2-4.5-4.5c0-2.5,2-4.5,4.5-4.5C2.5,366.9,4.5,368.9,4.5,371.4z"/>
	<path class="st3" d="M33.1,371.4c0,2.5-2,4.5-4.5,4.5c-2.5,0-4.5-2-4.5-4.5c0-2.5,2-4.5,4.5-4.5C31.1,366.9,33.1,368.9,33.1,371.4z
		"/>
	<path class="st3" d="M61.6,371.4c0,2.5-2,4.5-4.5,4.5c-2.5,0-4.5-2-4.5-4.5c0-2.5,2-4.5,4.5-4.5C59.6,366.9,61.6,368.9,61.6,371.4z
		"/>
	<path class="st4" d="M90.2,371.4c0,2.5-2,4.5-4.5,4.5c-2.5,0-4.5-2-4.5-4.5c0-2.5,2-4.5,4.5-4.5C88.2,366.9,90.2,368.9,90.2,371.4z
		"/>
	<path class="st2" d="M118.8,371.4c0,2.5-2,4.5-4.5,4.5c-2.5,0-4.5-2-4.5-4.5c0-2.5,2-4.5,4.5-4.5
		C116.8,366.9,118.8,368.9,118.8,371.4z"/>
	<path class="st3" d="M147.3,371.4c0,2.5-2,4.5-4.5,4.5c-2.5,0-4.5-2-4.5-4.5c0-2.5,2-4.5,4.5-4.5
		C145.3,366.9,147.3,368.9,147.3,371.4z"/>
	<path class="st1" d="M175.9,371.4c0,2.5-2,4.5-4.5,4.5c-2.5,0-4.5-2-4.5-4.5c0-2.5,2-4.5,4.5-4.5
		C173.9,366.9,175.9,368.9,175.9,371.4z"/>
	<path class="st2" d="M204.5,371.4c0,2.5-2,4.5-4.5,4.5c-2.5,0-4.5-2-4.5-4.5c0-2.5,2-4.5,4.5-4.5
		C202.5,366.9,204.5,368.9,204.5,371.4z"/>
	<path class="st1" d="M4.5,400c0,2.5-2,4.5-4.5,4.5c-2.5,0-4.5-2-4.5-4.5c0-2.5,2-4.5,4.5-4.5C2.5,395.5,4.5,397.5,4.5,400z"/>
	<path class="st2" d="M33.1,400c0,2.5-2,4.5-4.5,4.5c-2.5,0-4.5-2-4.5-4.5c0-2.5,2-4.5,4.5-4.5C31.1,395.5,33.1,397.5,33.1,400z"/>
	<path class="st3" d="M61.6,400c0,2.5-2,4.5-4.5,4.5c-2.5,0-4.5-2-4.5-4.5c0-2.5,2-4.5,4.5-4.5C59.6,395.5,61.6,397.5,61.6,400z"/>
	<circle class="st3" cx="85.7" cy="400" r="4.5"/>
	<path class="st4" d="M118.8,400c0,2.5-2,4.5-4.5,4.5c-2.5,0-4.5-2-4.5-4.5c0-2.5,2-4.5,4.5-4.5C116.8,395.5,118.8,397.5,118.8,400z
		"/>
	<path class="st2" d="M147.3,400c0,2.5-2,4.5-4.5,4.5c-2.5,0-4.5-2-4.5-4.5c0-2.5,2-4.5,4.5-4.5C145.3,395.5,147.3,397.5,147.3,400z
		"/>
	<path class="st3" d="M175.9,400c0,2.5-2,4.5-4.5,4.5c-2.5,0-4.5-2-4.5-4.5c0-2.5,2-4.5,4.5-4.5C173.9,395.5,175.9,397.5,175.9,400z
		"/>
	<path class="st1" d="M204.5,400c0,2.5-2,4.5-4.5,4.5c-2.5,0-4.5-2-4.5-4.5c0-2.5,2-4.5,4.5-4.5C202.5,395.5,204.5,397.5,204.5,400z
		"/>
	<path class="st1" d="M233.1,228.6c0,2.5-2,4.5-4.5,4.5c-2.5,0-4.5-2-4.5-4.5c0-2.5,2-4.5,4.5-4.5
		C231.1,224.1,233.1,226.1,233.1,228.6z"/>
	<path class="st2" d="M261.6,228.6c0,2.5-2,4.5-4.5,4.5c-2.5,0-4.5-2-4.5-4.5c0-2.5,2-4.5,4.5-4.5
		C259.6,224.1,261.6,226.1,261.6,228.6z"/>
	<path class="st3" d="M290.2,228.6c0,2.5-2,4.5-4.5,4.5c-2.5,0-4.5-2-4.5-4.5c0-2.5,2-4.5,4.5-4.5
		C288.2,224.1,290.2,226.1,290.2,228.6z"/>
	<path class="st3" d="M318.8,228.6c0,2.5-2,4.5-4.5,4.5c-2.5,0-4.5-2-4.5-4.5c0-2.5,2-4.5,4.5-4.5
		C316.8,224.1,318.8,226.1,318.8,228.6z"/>
	<path class="st4" d="M347.3,228.6c0,2.5-2,4.5-4.5,4.5c-2.5,0-4.5-2-4.5-4.5c0-2.5,2-4.5,4.5-4.5
		C345.3,224.1,347.3,226.1,347.3,228.6z"/>
	<path class="st2" d="M375.9,228.6c0,2.5-2,4.5-4.5,4.5c-2.5,0-4.5-2-4.5-4.5c0-2.5,2-4.5,4.5-4.5
		C373.9,224.1,375.9,226.1,375.9,228.6z"/>
	<path class="st3" d="M404.5,228.6c0,2.5-2,4.5-4.5,4.5c-2.5,0-4.5-2-4.5-4.5c0-2.5,2-4.5,4.5-4.5
		C402.5,224.1,404.5,226.1,404.5,228.6z"/>
	<path class="st3" d="M233.1,257.1c0,2.5-2,4.5-4.5,4.5c-2.5,0-4.5-2-4.5-4.5c0-2.5,2-4.5,4.5-4.5
		C231.1,252.7,233.1,254.7,233.1,257.1z"/>
	<path class="st1" d="M261.6,257.1c0,2.5-2,4.5-4.5,4.5c-2.5,0-4.5-2-4.5-4.5c0-2.5,2-4.5,4.5-4.5
		C259.6,252.7,261.6,254.7,261.6,257.1z"/>
	<path class="st2" d="M290.2,257.1c0,2.5-2,4.5-4.5,4.5c-2.5,0-4.5-2-4.5-4.5c0-2.5,2-4.5,4.5-4.5
		C288.2,252.7,290.2,254.7,290.2,257.1z"/>
	<path class="st3" d="M318.8,257.1c0,2.5-2,4.5-4.5,4.5c-2.5,0-4.5-2-4.5-4.5c0-2.5,2-4.5,4.5-4.5
		C316.8,252.7,318.8,254.7,318.8,257.1z"/>
	<path class="st3" d="M347.3,257.1c0,2.5-2,4.5-4.5,4.5c-2.5,0-4.5-2-4.5-4.5c0-2.5,2-4.5,4.5-4.5
		C345.3,252.7,347.3,254.7,347.3,257.1z"/>
	<path class="st4" d="M375.9,257.1c0,2.5-2,4.5-4.5,4.5c-2.5,0-4.5-2-4.5-4.5c0-2.5,2-4.5,4.5-4.5
		C373.9,252.7,375.9,254.7,375.9,257.1z"/>
	<path class="st2" d="M404.5,257.1c0,2.5-2,4.5-4.5,4.5c-2.5,0-4.5-2-4.5-4.5c0-2.5,2-4.5,4.5-4.5
		C402.5,252.7,404.5,254.7,404.5,257.1z"/>
	<path class="st2" d="M233.1,285.7c0,2.5-2,4.5-4.5,4.5c-2.5,0-4.5-2-4.5-4.5c0-2.5,2-4.5,4.5-4.5
		C231.1,281.2,233.1,283.2,233.1,285.7z"/>
	<path class="st3" d="M261.6,285.7c0,2.5-2,4.5-4.5,4.5c-2.5,0-4.5-2-4.5-4.5c0-2.5,2-4.5,4.5-4.5
		C259.6,281.2,261.6,283.2,261.6,285.7z"/>
	<path class="st1" d="M290.2,285.7c0,2.5-2,4.5-4.5,4.5c-2.5,0-4.5-2-4.5-4.5c0-2.5,2-4.5,4.5-4.5
		C288.2,281.2,290.2,283.2,290.2,285.7z"/>
	<path class="st2" d="M318.8,285.7c0,2.5-2,4.5-4.5,4.5c-2.5,0-4.5-2-4.5-4.5c0-2.5,2-4.5,4.5-4.5
		C316.8,281.2,318.8,283.2,318.8,285.7z"/>
	<path class="st3" d="M347.3,285.7c0,2.5-2,4.5-4.5,4.5c-2.5,0-4.5-2-4.5-4.5c0-2.5,2-4.5,4.5-4.5
		C345.3,281.2,347.3,283.2,347.3,285.7z"/>
	<path class="st3" d="M375.9,285.7c0,2.5-2,4.5-4.5,4.5c-2.5,0-4.5-2-4.5-4.5c0-2.5,2-4.5,4.5-4.5
		C373.9,281.2,375.9,283.2,375.9,285.7z"/>
	<path class="st4" d="M404.5,285.7c0,2.5-2,4.5-4.5,4.5c-2.5,0-4.5-2-4.5-4.5c0-2.5,2-4.5,4.5-4.5
		C402.5,281.2,404.5,283.2,404.5,285.7z"/>
	<path class="st4" d="M233.1,314.3c0,2.5-2,4.5-4.5,4.5c-2.5,0-4.5-2-4.5-4.5c0-2.5,2-4.5,4.5-4.5
		C231.1,309.8,233.1,311.8,233.1,314.3z"/>
	<path class="st2" d="M261.6,314.3c0,2.5-2,4.5-4.5,4.5c-2.5,0-4.5-2-4.5-4.5c0-2.5,2-4.5,4.5-4.5
		C259.6,309.8,261.6,311.8,261.6,314.3z"/>
	<path class="st3" d="M290.2,314.3c0,2.5-2,4.5-4.5,4.5c-2.5,0-4.5-2-4.5-4.5c0-2.5,2-4.5,4.5-4.5
		C288.2,309.8,290.2,311.8,290.2,314.3z"/>
	<path class="st1" d="M318.8,314.3c0,2.5-2,4.5-4.5,4.5c-2.5,0-4.5-2-4.5-4.5c0-2.5,2-4.5,4.5-4.5
		C316.8,309.8,318.8,311.8,318.8,314.3z"/>
	<path class="st2" d="M347.3,314.3c0,2.5-2,4.5-4.5,4.5c-2.5,0-4.5-2-4.5-4.5c0-2.5,2-4.5,4.5-4.5
		C345.3,309.8,347.3,311.8,347.3,314.3z"/>
	<path class="st3" d="M375.9,314.3c0,2.5-2,4.5-4.5,4.5c-2.5,0-4.5-2-4.5-4.5c0-2.5,2-4.5,4.5-4.5
		C373.9,309.8,375.9,311.8,375.9,314.3z"/>
	<path class="st3" d="M404.5,314.3c0,2.5-2,4.5-4.5,4.5c-2.5,0-4.5-2-4.5-4.5c0-2.5,2-4.5,4.5-4.5
		C402.5,309.8,404.5,311.8,404.5,314.3z"/>
	<path class="st3" d="M233.1,342.9c0,2.5-2,4.5-4.5,4.5c-2.5,0-4.5-2-4.5-4.5c0-2.5,2-4.5,4.5-4.5
		C231.1,338.4,233.1,340.4,233.1,342.9z"/>
	<path class="st4" d="M261.6,342.9c0,2.5-2,4.5-4.5,4.5c-2.5,0-4.5-2-4.5-4.5c0-2.5,2-4.5,4.5-4.5
		C259.6,338.4,261.6,340.4,261.6,342.9z"/>
	<path class="st2" d="M290.2,342.9c0,2.5-2,4.5-4.5,4.5c-2.5,0-4.5-2-4.5-4.5c0-2.5,2-4.5,4.5-4.5
		C288.2,338.4,290.2,340.4,290.2,342.9z"/>
	<path class="st3" d="M318.8,342.9c0,2.5-2,4.5-4.5,4.5c-2.5,0-4.5-2-4.5-4.5c0-2.5,2-4.5,4.5-4.5
		C316.8,338.4,318.8,340.4,318.8,342.9z"/>
	<path class="st1" d="M347.3,342.9c0,2.5-2,4.5-4.5,4.5c-2.5,0-4.5-2-4.5-4.5c0-2.5,2-4.5,4.5-4.5
		C345.3,338.4,347.3,340.4,347.3,342.9z"/>
	<path class="st2" d="M375.9,342.9c0,2.5-2,4.5-4.5,4.5c-2.5,0-4.5-2-4.5-4.5c0-2.5,2-4.5,4.5-4.5
		C373.9,338.4,375.9,340.4,375.9,342.9z"/>
	<path class="st3" d="M404.5,342.9c0,2.5-2,4.5-4.5,4.5c-2.5,0-4.5-2-4.5-4.5c0-2.5,2-4.5,4.5-4.5
		C402.5,338.4,404.5,340.4,404.5,342.9z"/>
	<path class="st3" d="M233.1,371.4c0,2.5-2,4.5-4.5,4.5c-2.5,0-4.5-2-4.5-4.5c0-2.5,2-4.5,4.5-4.5
		C231.1,366.9,233.1,368.9,233.1,371.4z"/>
	<path class="st3" d="M261.6,371.4c0,2.5-2,4.5-4.5,4.5c-2.5,0-4.5-2-4.5-4.5c0-2.5,2-4.5,4.5-4.5
		C259.6,366.9,261.6,368.9,261.6,371.4z"/>
	<path class="st4" d="M290.2,371.4c0,2.5-2,4.5-4.5,4.5c-2.5,0-4.5-2-4.5-4.5c0-2.5,2-4.5,4.5-4.5
		C288.2,366.9,290.2,368.9,290.2,371.4z"/>
	<path class="st2" d="M318.8,371.4c0,2.5-2,4.5-4.5,4.5c-2.5,0-4.5-2-4.5-4.5c0-2.5,2-4.5,4.5-4.5
		C316.8,366.9,318.8,368.9,318.8,371.4z"/>
	<path class="st3" d="M347.3,371.4c0,2.5-2,4.5-4.5,4.5c-2.5,0-4.5-2-4.5-4.5c0-2.5,2-4.5,4.5-4.5
		C345.3,366.9,347.3,368.9,347.3,371.4z"/>
	<path class="st1" d="M375.9,371.4c0,2.5-2,4.5-4.5,4.5c-2.5,0-4.5-2-4.5-4.5c0-2.5,2-4.5,4.5-4.5
		C373.9,366.9,375.9,368.9,375.9,371.4z"/>
	<path class="st2" d="M404.5,371.4c0,2.5-2,4.5-4.5,4.5c-2.5,0-4.5-2-4.5-4.5c0-2.5,2-4.5,4.5-4.5
		C402.5,366.9,404.5,368.9,404.5,371.4z"/>
	<path class="st2" d="M233.1,400c0,2.5-2,4.5-4.5,4.5c-2.5,0-4.5-2-4.5-4.5c0-2.5,2-4.5,4.5-4.5C231.1,395.5,233.1,397.5,233.1,400z
		"/>
	<path class="st3" d="M261.6,400c0,2.5-2,4.5-4.5,4.5c-2.5,0-4.5-2-4.5-4.5c0-2.5,2-4.5,4.5-4.5C259.6,395.5,261.6,397.5,261.6,400z
		"/>
	<circle class="st3" cx="285.7" cy="400" r="4.5"/>
	<path class="st4" d="M318.8,400c0,2.5-2,4.5-4.5,4.5c-2.5,0-4.5-2-4.5-4.5c0-2.5,2-4.5,4.5-4.5C316.8,395.5,318.8,397.5,318.8,400z
		"/>
	<path class="st2" d="M347.3,400c0,2.5-2,4.5-4.5,4.5c-2.5,0-4.5-2-4.5-4.5c0-2.5,2-4.5,4.5-4.5C345.3,395.5,347.3,397.5,347.3,400z
		"/>
	<path class="st3" d="M375.9,400c0,2.5-2,4.5-4.5,4.5c-2.5,0-4.5-2-4.5-4.5c0-2.5,2-4.5,4.5-4.5C373.9,395.5,375.9,397.5,375.9,400z
		"/>
	<path class="st1" d="M404.5,400c0,2.5-2,4.5-4.5,4.5c-2.5,0-4.5-2-4.5-4.5c0-2.5,2-4.5,4.5-4.5C402.5,395.5,404.5,397.5,404.5,400z
		"/>
</g>
</svg>
