<?xml version="1.0" encoding="utf-8"?>
<!-- Generator: Adobe Illustrator 22.1.0, SVG Export Plug-In . SVG Version: 6.00 Build 0)  -->
<svg version="1.1" id="Layer_1" xmlns="http://www.w3.org/2000/svg" xmlns:xlink="http://www.w3.org/1999/xlink" x="0px" y="0px"
	 viewBox="0 0 400 400" style="enable-background:new 0 0 400 400;" xml:space="preserve">
<style type="text/css">
	.st0{clip-path:url(#SVGID_1_);fill:#DCFFFC;}
	.st1{clip-path:url(#SVGID_1_);}
	.st2{fill:#ED8D93;}
	.st3{fill:#76C6CD;}
	.st4{fill:#233A87;}
	.st5{fill:#8A5688;}
	.st6{clip-path:url(#SVGID_2_);}
	.st7{fill:#FFFFFF;}
	.st8{clip-path:url(#SVGID_3_);}
	.st9{fill:#886C95;}
	.st10{clip-path:url(#SVGID_4_);}
	.st11{clip-path:url(#SVGID_1_);fill:#ED8D93;}
	.st12{clip-path:url(#SVGID_1_);fill:#233A87;}
	.st13{fill:#8A5788;}
	.st14{clip-path:url(#SVGID_5_);}
	.st15{clip-path:url(#SVGID_1_);fill:#76C6CD;}
	.st16{fill:#223B83;}
	.st17{clip-path:url(#SVGID_6_);}
	.st18{clip-path:url(#SVGID_7_);}
	.st19{clip-path:url(#SVGID_8_);}
	.st20{fill:none;stroke:#76C6CC;stroke-width:2.3333;stroke-linecap:round;stroke-linejoin:round;stroke-miterlimit:10;}
	.st21{fill:#76C6CC;}
	.st22{clip-path:url(#SVGID_9_);}
</style>
<g>
	<g>
		<defs>
			<rect id="SVGID_40_" width="400" height="400"/>
		</defs>
		<clipPath id="SVGID_1_">
			<use xlink:href="#SVGID_40_"  style="overflow:visible;"/>
		</clipPath>
		<rect class="st0" width="400" height="400"/>
		<g class="st1">
			<g>
				<path class="st2" d="M370.8,258.5c-0.3,0-0.6-0.1-0.8-0.3l-5.3-5.2l-5.1,5.1c-0.5,0.5-1.2,0.5-1.6,0c-0.5-0.5-0.5-1.2,0-1.6
					l5.9-5.9c0.5-0.5,1.2-0.5,1.6,0l6.1,6.1c0.5,0.5,0.5,1.2,0,1.6C371.4,258.4,371.1,258.5,370.8,258.5z"/>
				<path class="st2" d="M358.8,258.5c-0.3,0-0.6-0.1-0.8-0.3l-5.2-5.2l-5.1,5.1c-0.5,0.5-1.2,0.5-1.6,0c-0.5-0.5-0.5-1.2,0-1.6
					l5.9-5.9c0.5-0.5,1.2-0.5,1.6,0l6.1,6.1c0.5,0.5,0.5,1.2,0,1.6C359.4,258.4,359.1,258.5,358.8,258.5z"/>
				<path class="st2" d="M346.8,258.5c-0.3,0-0.6-0.1-0.8-0.3l-5.3-5.3l-5.1,5.1c-0.5,0.5-1.2,0.5-1.6,0c-0.5-0.5-0.5-1.2,0-1.7
					l5.9-5.9c0.5-0.5,1.2-0.5,1.6,0l6.1,6.1c0.5,0.5,0.5,1.2,0,1.6C347.3,258.4,347,258.5,346.8,258.5z"/>
			</g>
		</g>
		<g class="st1">
			<polygon class="st3" points="13.2,166 -6.1,124.4 66.1,135.5 			"/>
			<path class="st2" d="M52.4,165.4c-9.2,0.9-18.3-1.8-25.4-7.3c-4.8-3.8-8.8-8.8-11.2-14.9c0-0.1-0.1-0.1-0.1-0.2
				c-5.9-15.2-0.6-32,11.9-41.3L42.2,139l3.3,8.4L52.4,165.4z"/>
			<path class="st3" d="M45.4,147.5l-1.5,0.8l-1.7,1l-2.5,1.5l-1.7,1l-2.5,1.5l-1.7,1l-2.5,1.5l-1.7,1l-2.5,1.5l-0.2,0.1
				c-0.5-0.4-1-0.8-1.5-1.3c-0.9-0.8-1.7-1.6-2.5-2.4c-0.6-0.6-1.1-1.3-1.7-1.9c-0.9-1.1-1.7-2.3-2.5-3.5c-0.6-1-1.2-2-1.7-3
				c-0.5-0.9-0.9-1.9-1.3-2.8l1.3-0.2l1.7-0.3l2.5-0.4L23,142l2.5-0.4l1.7-0.3l2.5-0.4l1.7-0.3l2.5-0.4l1.7-0.3l2.5-0.4l1.7-0.3
				l2.4-0.4l0.1,0.3l1.7,4.3L45.4,147.5z"/>
			<g>
				<path class="st4" d="M18.8,142.7v6.3c-0.6-1-1.2-2-1.7-3v-3L18.8,142.7z"/>
				<path class="st4" d="M23,142v12.4c-0.6-0.6-1.1-1.3-1.7-1.9v-10.2L23,142z"/>
				<path class="st4" d="M27.2,141.4V158l-0.2,0.1c-0.5-0.4-1-0.8-1.5-1.3v-15.2L27.2,141.4z"/>
				<polygon class="st4" points="31.4,140.7 31.4,155.6 29.7,156.5 29.7,141 				"/>
				<polygon class="st4" points="35.6,140.1 35.6,153.1 33.9,154.1 33.9,140.3 				"/>
				<polygon class="st4" points="39.8,139.4 39.8,150.7 38.1,151.7 38.1,139.7 				"/>
				<polygon class="st4" points="44,143.7 44,148.3 42.3,149.3 42.3,139.4 				"/>
			</g>
		</g>
		<g class="st1">
			<polygon class="st4" points="327.5,189.3 327.5,185.7 283.7,160.4 283.7,164 			"/>
			<g>
				<path class="st5" d="M312.1,180.6c-3.4,3.4-9,3.4-12.5,0c-3.4-3.4-3.4-9,0-12.5c3.4-3.4,9-3.4,12.5,0
					C315.5,171.5,315.5,177.1,312.1,180.6z"/>
				<polygon class="st5" points="322.9,161.5 319,157.6 327.5,153.1 				"/>
				<polygon class="st5" points="320.5,165.8 314.6,159.8 317.4,158.4 322.1,163 				"/>
				<polygon class="st5" points="318.2,170.2 310.1,162.1 313,160.7 319.7,167.4 				"/>
				<polygon class="st5" points="313.6,178.5 301.7,166.5 308.6,162.9 317.3,171.7 313.7,178.4 				"/>
			</g>
			<polygon class="st4" points="327.5,185.7 327.5,189.3 308.5,178.3 308.5,174.8 			"/>
		</g>
		<g class="st1">
			<path class="st2" d="M329.1,30.7L329.1,30.7c-0.6,0-1.2-0.5-1.2-1.2l0-6.6c0-0.6,0.5-1.2,1.2-1.2l0,0c0.6,0,1.2,0.5,1.2,1.2
				l0,6.6C330.3,30.2,329.7,30.7,329.1,30.7z"/>
			<path class="st2" d="M329.1,20L329.1,20c-0.6,0-1.2-0.5-1.2-1.2l0-15.3c0-0.6,0.5-1.2,1.2-1.2l0,0c0.6,0,1.2,0.5,1.2,1.2l0,15.3
				C330.3,19.5,329.7,20,329.1,20z"/>
			<path class="st2" d="M332.8,25.4L332.8,25.4c-0.6,0-1.2-0.5-1.2-1.2l0-13.7c0-0.6,0.5-1.2,1.2-1.2l0,0c0.6,0,1.2,0.5,1.2,1.2
				l0,13.7C334,24.8,333.4,25.4,332.8,25.4z"/>
			<path class="st2" d="M332.8,30.5L332.8,30.5c-0.6,0-1.2-0.5-1.2-1.2l0-1.8c0-0.6,0.5-1.2,1.2-1.2h0c0.6,0,1.2,0.5,1.2,1.2l0,1.8
				C334,30,333.4,30.5,332.8,30.5z"/>
			<path class="st2" d="M336.5,11.3c-0.6,0-1.2-0.5-1.2-1.2V8.3c0-0.6,0.5-1.2,1.2-1.2s1.2,0.5,1.2,1.2v1.8
				C337.7,10.8,337.1,11.3,336.5,11.3z"/>
			<path class="st2" d="M336.5,4.8L336.5,4.8c-0.6,0-1.2-0.5-1.2-1.2l0-9c0-0.6,0.5-1.2,1.2-1.2l0,0c0.6,0,1.2,0.5,1.2,1.2l0,9
				C337.7,4.2,337.1,4.8,336.5,4.8z"/>
			<path class="st2" d="M332.8,6.8c-0.6,0-1.2-0.5-1.2-1.2v-7.7c0-0.6,0.5-1.2,1.2-1.2s1.2,0.5,1.2,1.2v7.7
				C334,6.3,333.4,6.8,332.8,6.8z"/>
			<path class="st2" d="M336.5,28.3c-0.6,0-1.2-0.5-1.2-1.2V14c0-0.6,0.5-1.2,1.2-1.2s1.2,0.5,1.2,1.2v13.1
				C337.7,27.8,337.1,28.3,336.5,28.3z"/>
			<path class="st2" d="M325.4,25.9c-0.6,0-1.2-0.5-1.2-1.2v-3.6c0-0.6,0.5-1.2,1.2-1.2s1.2,0.5,1.2,1.2v3.6
				C326.6,25.4,326,25.9,325.4,25.9z"/>
			<path class="st2" d="M340.2,17.6L340.2,17.6c-0.6,0-1.2-0.5-1.2-1.2l0-9.5c0-0.6,0.5-1.2,1.2-1.2l0,0c0.6,0,1.2,0.5,1.2,1.2
				l0,9.5C341.4,17.1,340.8,17.6,340.2,17.6z"/>
			<path class="st2" d="M340.2,27.2c-0.6,0-1.2-0.5-1.2-1.2v-5.3c0-0.6,0.5-1.2,1.2-1.2c0.6,0,1.2,0.5,1.2,1.2v5.3
				C341.4,26.7,340.8,27.2,340.2,27.2z"/>
			<path class="st2" d="M343.9,25.9c-0.6,0-1.2-0.5-1.2-1.2V13.4c0-0.6,0.5-1.2,1.2-1.2c0.6,0,1.2,0.5,1.2,1.2v11.4
				C345.1,25.4,344.5,25.9,343.9,25.9z"/>
			<path class="st2" d="M310.6,2.7c-0.6,0-1.2-0.5-1.2-1.2v-13.4c0-0.6,0.5-1.2,1.2-1.2c0.6,0,1.2,0.5,1.2,1.2V1.5
				C311.8,2.2,311.3,2.7,310.6,2.7z"/>
			<path class="st2" d="M314.3,7.8L314.3,7.8c-0.6,0-1.2-0.5-1.2-1.2l0-15c0-0.6,0.5-1.2,1.2-1.2l0,0c0.6,0,1.2,0.5,1.2,1.2l0,15
				C315.5,7.3,315,7.8,314.3,7.8z"/>
			<path class="st2" d="M318,13.6L318,13.6c-0.6,0-1.2-0.5-1.2-1.2l0-11.4c0-0.6,0.5-1.2,1.2-1.2l0,0c0.6,0,1.2,0.5,1.2,1.2l0,11.4
				C319.2,13.1,318.7,13.6,318,13.6z"/>
			<path class="st2" d="M321.7,21.6c-0.6,0-1.2-0.5-1.2-1.2V-4c0-0.6,0.5-1.2,1.2-1.2s1.2,0.5,1.2,1.2v24.4
				C322.9,21,322.4,21.6,321.7,21.6z"/>
			<path class="st2" d="M325.4,17.9c-0.6,0-1.2-0.5-1.2-1.2V7c0-0.6,0.5-1.2,1.2-1.2s1.2,0.5,1.2,1.2v9.7
				C326.6,17.3,326,17.9,325.4,17.9z"/>
			<path class="st2" d="M325.4,5.1c-0.6,0-1.2-0.5-1.2-1.2v-7.6c0-0.6,0.5-1.2,1.2-1.2s1.2,0.5,1.2,1.2v7.6
				C326.6,4.5,326,5.1,325.4,5.1z"/>
		</g>
		<g class="st1">
			<path class="st2" d="M79.8,77.2L79.8,77.2c-0.6,0-1.2-0.5-1.2-1.2l0-8.5c0-0.6,0.5-1.2,1.2-1.2l0,0c0.6,0,1.2,0.5,1.2,1.2l0,8.5
				C80.9,76.7,80.4,77.2,79.8,77.2z"/>
			<path class="st2" d="M79.8,34.7L79.8,34.7c-0.6,0-1.2-0.5-1.2-1.2l0-3.5c0-0.6,0.5-1.2,1.2-1.2l0,0c0.6,0,1.2,0.5,1.2,1.2l0,3.5
				C80.9,34.2,80.4,34.7,79.8,34.7z"/>
			<path class="st2" d="M79.8,25c-0.6,0-1.2-0.5-1.2-1.2v-2.5c0-0.6,0.5-1.2,1.2-1.2c0.6,0,1.2,0.5,1.2,1.2v2.5
				C80.9,24.5,80.4,25,79.8,25z"/>
			<path class="st2" d="M79.8,63.5L79.8,63.5c-0.6,0-1.2-0.5-1.2-1.2l0-19.7c0-0.6,0.5-1.2,1.2-1.2l0,0c0.6,0,1.2,0.5,1.2,1.2
				l0,19.7C80.9,63,80.4,63.5,79.8,63.5z"/>
			<path class="st2" d="M83.5,70.4L83.5,70.4c-0.6,0-1.2-0.5-1.2-1.2l0-17.6c0-0.6,0.5-1.2,1.2-1.2l0,0c0.6,0,1.2,0.5,1.2,1.2
				l0,17.6C84.6,69.9,84.1,70.4,83.5,70.4z"/>
			<path class="st2" d="M83.5,77L83.5,77c-0.6,0-1.2-0.5-1.2-1.2l0-2.3c0-0.6,0.5-1.2,1.2-1.2h0c0.6,0,1.2,0.5,1.2,1.2l0,2.3
				C84.6,76.5,84.1,77,83.5,77z"/>
			<path class="st2" d="M87.2,52.3c-0.6,0-1.2-0.5-1.2-1.2v-2.3c0-0.6,0.5-1.2,1.2-1.2c0.6,0,1.2,0.5,1.2,1.2v2.3
				C88.3,51.8,87.8,52.3,87.2,52.3z"/>
			<path class="st2" d="M87.2,44L87.2,44c-0.6,0-1.2-0.5-1.2-1.2l0-11.5c0-0.6,0.5-1.2,1.2-1.2l0,0c0.6,0,1.2,0.5,1.2,1.2l0,11.5
				C88.3,43.5,87.8,44,87.2,44z"/>
			<path class="st2" d="M83.5,46.6c-0.6,0-1.2-0.5-1.2-1.2v-9.9c0-0.6,0.5-1.2,1.2-1.2c0.6,0,1.2,0.5,1.2,1.2v9.9
				C84.6,46.1,84.1,46.6,83.5,46.6z"/>
			<path class="st2" d="M87.2,74.2c-0.6,0-1.2-0.5-1.2-1.2V56.2c0-0.6,0.5-1.2,1.2-1.2c0.6,0,1.2,0.5,1.2,1.2v16.9
				C88.3,73.7,87.8,74.2,87.2,74.2z"/>
			<path class="st2" d="M76.1,71.1c-0.6,0-1.2-0.5-1.2-1.2v-4.7c0-0.6,0.5-1.2,1.2-1.2c0.6,0,1.2,0.5,1.2,1.2v4.7
				C77.3,70.5,76.7,71.1,76.1,71.1z"/>
			<path class="st2" d="M90.9,60.5L90.9,60.5c-0.6,0-1.2-0.5-1.2-1.2l0-12.1c0-0.6,0.5-1.2,1.2-1.2l0,0c0.6,0,1.2,0.5,1.2,1.2
				l0,12.1C92,60,91.5,60.5,90.9,60.5z"/>
			<path class="st2" d="M90.9,72.8c-0.6,0-1.2-0.5-1.2-1.2v-6.8c0-0.6,0.5-1.2,1.2-1.2c0.6,0,1.2,0.5,1.2,1.2v6.8
				C92,72.3,91.5,72.8,90.9,72.8z"/>
			<path class="st2" d="M94.6,71.1c-0.6,0-1.2-0.5-1.2-1.2V55.3c0-0.6,0.5-1.2,1.2-1.2c0.6,0,1.2,0.5,1.2,1.2V70
				C95.7,70.6,95.2,71.1,94.6,71.1z"/>
			<path class="st2" d="M57.6,32.5c-0.6,0-1.2-0.5-1.2-1.2v-5c0-0.6,0.5-1.2,1.2-1.2c0.6,0,1.2,0.5,1.2,1.2v5
				C58.8,32,58.2,32.5,57.6,32.5z"/>
			<path class="st2" d="M61.3,41.3L61.3,41.3c-0.6,0-1.2-0.5-1.2-1.2l0-17.2c0-0.6,0.5-1.2,1.2-1.2l0,0c0.6,0,1.2,0.5,1.2,1.2
				l0,17.2C62.5,40.8,61.9,41.3,61.3,41.3z"/>
			<path class="st2" d="M65,47.9L65,47.9c-0.6,0-1.2-0.5-1.2-1.2l0-19.2c0-0.6,0.5-1.2,1.2-1.2l0,0c0.6,0,1.2,0.5,1.2,1.2l0,19.2
				C66.2,47.4,65.6,47.9,65,47.9z"/>
			<path class="st2" d="M65,25.1L65,25.1c-0.6,0-1.2-0.5-1.2-1.2l0-9.6c0-0.6,0.5-1.2,1.2-1.2l0,0c0.6,0,1.2,0.5,1.2,1.2l0,9.6
				C66.2,24.5,65.6,25.1,65,25.1z"/>
			<path class="st2" d="M68.7,36.3c-0.6,0-1.2-0.5-1.2-1.2V21.8c0-0.6,0.5-1.2,1.2-1.2c0.6,0,1.2,0.5,1.2,1.2v13.3
				C69.9,35.8,69.3,36.3,68.7,36.3z"/>
			<path class="st2" d="M68.7,19.2c-0.6,0-1.2-0.5-1.2-1.2v-7.4c0-0.6,0.5-1.2,1.2-1.2c0.6,0,1.2,0.5,1.2,1.2V18
				C69.9,18.7,69.3,19.2,68.7,19.2z"/>
			<path class="st2" d="M68.7,55.3L68.7,55.3c-0.6,0-1.2-0.5-1.2-1.2l0-14.6c0-0.6,0.5-1.2,1.2-1.2l0,0c0.6,0,1.2,0.5,1.2,1.2
				l0,14.6C69.9,54.8,69.3,55.3,68.7,55.3z"/>
			<path class="st2" d="M72.4,65.5c-0.6,0-1.2-0.5-1.2-1.2V33c0-0.6,0.5-1.2,1.2-1.2c0.6,0,1.2,0.5,1.2,1.2v31.3
				C73.6,65,73,65.5,72.4,65.5z"/>
			<path class="st2" d="M76.1,60.8c-0.6,0-1.2-0.5-1.2-1.2V47.2c0-0.6,0.5-1.2,1.2-1.2c0.6,0,1.2,0.5,1.2,1.2v12.4
				C77.3,60.3,76.7,60.8,76.1,60.8z"/>
			<path class="st2" d="M76.1,44.4c-0.6,0-1.2-0.5-1.2-1.2v-9.8c0-0.6,0.5-1.2,1.2-1.2c0.6,0,1.2,0.5,1.2,1.2v9.8
				C77.3,43.9,76.7,44.4,76.1,44.4z"/>
			<path class="st2" d="M76.1,27.7c-0.6,0-1.2-0.5-1.2-1.2v-5.8c0-0.6,0.5-1.2,1.2-1.2c0.6,0,1.2,0.5,1.2,1.2v5.8
				C77.3,27.1,76.7,27.7,76.1,27.7z"/>
		</g>
		<g class="st1">
			<polygon class="st3" points="338.2,353.1 338.2,364.5 415.5,319.9 415.5,308.5 			"/>
			<g>
				<g>
					<defs>
						<polygon id="SVGID_48_" points="411.5,352.2 378.7,299.9 349.4,354.2 						"/>
					</defs>
					<use xlink:href="#SVGID_48_"  style="overflow:visible;fill:#ED8D93;"/>
					<clipPath id="SVGID_2_">
						<use xlink:href="#SVGID_48_"  style="overflow:visible;"/>
					</clipPath>
					<g class="st6">
						<path class="st7" d="M379.3,312.5c0.4,0,0.7-0.4,0.7-0.8l0.1-6.9c0-0.4-0.3-0.8-0.8-0.8c-0.4,0-0.8,0.3-0.8,0.8l-0.1,6.9
							C378.5,312.1,378.8,312.5,379.3,312.5C379.3,312.5,379.3,312.5,379.3,312.5z"/>
						<path class="st7" d="M372.8,311.3c0.2,0,0.4-0.1,0.5-0.3c0.3-0.3,0.3-0.8,0-1.1l-5-4.7c-0.3-0.3-0.8-0.3-1.1,0
							c-0.3,0.3-0.3,0.8,0,1.1l5,4.7C372.4,311.2,372.6,311.3,372.8,311.3z"/>
						<path class="st7" d="M394,327.9c0.2,0,0.3-0.1,0.5-0.2l5.1-4.6c0.3-0.3,0.4-0.8,0.1-1.1c-0.3-0.3-0.8-0.4-1.1-0.1l-5.1,4.6
							c-0.3,0.3-0.4,0.8-0.1,1.1C393.5,327.8,393.8,327.9,394,327.9z"/>
						<path class="st7" d="M368,335.3c0.2,0,0.4-0.1,0.6-0.3l4.2-5.4c0.3-0.3,0.2-0.9-0.1-1.1c-0.3-0.3-0.9-0.2-1.1,0.1l-4.2,5.4
							c-0.3,0.3-0.2,0.9,0.1,1.1C367.7,335.2,367.8,335.3,368,335.3z"/>
						<path class="st7" d="M353.3,339.8c0.2,0,0.4-0.1,0.5-0.2l4.8-5c0.3-0.3,0.3-0.8,0-1.1c-0.3-0.3-0.8-0.3-1.1,0l-4.8,5
							c-0.3,0.3-0.3,0.8,0,1.1C352.9,339.8,353.1,339.9,353.3,339.8z"/>
						<path class="st7" d="M375.6,307.6c0.4,0,0.7-0.3,0.7-0.7l1.1-6.8c0.1-0.4-0.2-0.9-0.7-0.9c-0.4-0.1-0.9,0.2-0.9,0.7l-1.1,6.8
							c-0.1,0.4,0.2,0.9,0.7,0.9C375.4,307.6,375.5,307.6,375.6,307.6z"/>
						<path class="st7" d="M346.5,354.8c0.2,0,0.4-0.1,0.6-0.3l4.5-5.2c0.3-0.3,0.3-0.8-0.1-1.1c-0.3-0.3-0.8-0.2-1.1,0.1l-4.5,5.2
							c-0.3,0.3-0.2,0.8,0.1,1.1C346.1,354.8,346.3,354.8,346.5,354.8z"/>
						<path class="st7" d="M368.1,355c0.4,0,0.7-0.3,0.7-0.7c0-0.4-0.3-0.8-0.7-0.9l-6.8-0.7c-0.4,0-0.8,0.3-0.9,0.7
							c0,0.4,0.3,0.8,0.7,0.9l6.8,0.7C368,355,368.1,355,368.1,355z"/>
						<path class="st7" d="M370.5,342.2C370.5,342.2,370.5,342.2,370.5,342.2l6.9-1.1c0.4-0.1,0.7-0.5,0.7-0.9
							c-0.1-0.4-0.5-0.7-0.9-0.7l-6.8,1.1c-0.4,0.1-0.7,0.5-0.7,0.9C369.7,341.9,370,342.2,370.5,342.2z"/>
						<path class="st7" d="M379.5,353.4C379.6,353.4,379.6,353.4,379.5,353.4c0.5-0.1,0.8-0.5,0.7-1l-1.3-6.8
							c-0.1-0.4-0.5-0.7-0.9-0.6c-0.4,0.1-0.7,0.5-0.6,0.9l1.3,6.8C378.8,353.1,379.1,353.4,379.5,353.4z"/>
						<path class="st7" d="M388.8,352c0,0,0.1,0,0.1,0c0.4-0.1,0.7-0.5,0.6-1l-1.6-6.7c-0.1-0.4-0.5-0.7-1-0.6
							c-0.4,0.1-0.7,0.5-0.6,1l1.6,6.7C388.1,351.8,388.4,352.1,388.8,352z"/>
						<path class="st7" d="M389.3,338.6c0.4,0,0.7-0.3,0.7-0.7c0.1-0.4-0.2-0.9-0.6-0.9l-6.8-1.2c-0.4-0.1-0.9,0.2-0.9,0.6
							c-0.1,0.4,0.2,0.9,0.6,0.9l6.8,1.2C389.1,338.6,389.2,338.6,389.3,338.6z"/>
						<path class="st7" d="M400.6,352.1c0.3,0,0.6-0.3,0.7-0.6l1.8-6.6c0.1-0.4-0.1-0.9-0.6-1c-0.4-0.1-0.9,0.1-1,0.6l-1.8,6.6
							c-0.1,0.4,0.1,0.9,0.6,1C400.4,352.1,400.5,352.1,400.6,352.1z"/>
						<path class="st7" d="M396,342.3c0.2,0,0.5-0.1,0.6-0.4l3.8-5.7c0.2-0.4,0.1-0.9-0.2-1.1c-0.4-0.2-0.9-0.1-1.1,0.2l-3.8,5.7
							c-0.2,0.4-0.1,0.9,0.2,1.1C395.7,342.2,395.9,342.3,396,342.3z"/>
						<path class="st7" d="M375.1,338c0.3,0,0.5-0.2,0.6-0.4l3.3-6c0.2-0.4,0.1-0.9-0.3-1.1c-0.4-0.2-0.9-0.1-1.1,0.3l-3.3,6
							c-0.2,0.4-0.1,0.9,0.3,1.1C374.8,337.9,375,338,375.1,338z"/>
						<path class="st7" d="M351.4,360.6c0.4,0,0.7-0.4,0.7-0.8l0.1-6.9c0-0.4-0.3-0.8-0.8-0.8c-0.4,0-0.8,0.3-0.8,0.8l-0.1,6.9
							C350.5,360.2,350.9,360.6,351.4,360.6C351.4,360.6,351.4,360.6,351.4,360.6z"/>
						<path class="st7" d="M395.8,356.6c0.2,0,0.4-0.1,0.5-0.2c0.3-0.3,0.3-0.8,0-1.1l-4.9-4.8c-0.3-0.3-0.8-0.3-1.1,0
							c-0.3,0.3-0.3,0.8,0,1.1l4.9,4.8C395.4,356.5,395.6,356.6,395.8,356.6z"/>
						<path class="st7" d="M381,356.1c0.4,0,0.7-0.4,0.7-0.8c0-0.4-0.3-0.8-0.8-0.8l-6.9-0.1c-0.4,0-0.8,0.3-0.8,0.8
							c0,0.4,0.3,0.8,0.8,0.8L381,356.1C380.9,356.1,380.9,356.1,381,356.1z"/>
						<g>
							<path class="st7" d="M389,324.8c0.3,0,0.5-0.2,0.6-0.4l2.4-4.4c0.2-0.4,0.1-0.9-0.3-1.1c-0.4-0.2-0.9-0.1-1.1,0.3l-2.4,4.4
								c-0.2,0.4-0.1,0.9,0.3,1.1C388.7,324.8,388.8,324.8,389,324.8z"/>
						</g>
						<g>
							<path class="st7" d="M371.9,326.7c0.1,0,0.3-0.1,0.4-0.1c0.4-0.2,0.5-0.7,0.2-1.1l-2.8-4.1c-0.2-0.4-0.7-0.5-1.1-0.2
								c-0.4,0.2-0.5,0.7-0.2,1.1l2.8,4.1C371.3,326.6,371.6,326.7,371.9,326.7z"/>
						</g>
						<g>
							<path class="st7" d="M377.2,326.7c0.2,0,0.4-0.1,0.5-0.3l3.3-3.7c0.3-0.3,0.3-0.8-0.1-1.1c-0.3-0.3-0.8-0.3-1.1,0.1l-3.3,3.7
								c-0.3,0.3-0.3,0.8,0.1,1.1C376.8,326.6,377,326.7,377.2,326.7z"/>
						</g>
						<g>
							<path class="st7" d="M392.6,317c0.2,0,0.3-0.1,0.4-0.2c0.3-0.3,0.4-0.8,0.1-1.1l-3.1-3.9c-0.3-0.3-0.8-0.4-1.1-0.1
								c-0.3,0.3-0.4,0.8-0.1,1.1l3.1,3.9C392.1,316.9,392.4,317,392.6,317z"/>
						</g>
						<g>
							<path class="st7" d="M359,351.1C359,351.1,359,351.1,359,351.1l5-0.4c0.4,0,0.8-0.4,0.7-0.9c0-0.4-0.4-0.8-0.9-0.7
								c0,0,0,0,0,0l-5,0.4c-0.4,0-0.8,0.4-0.7,0.9C358.1,350.8,358.5,351.1,359,351.1z"/>
						</g>
						<g>
							<path class="st7" d="M386.8,318.7c0.4,0,0.8-0.4,0.7-0.8c0-0.4-0.4-0.8-0.8-0.8l-5,0.3c-0.4,0-0.8,0.4-0.8,0.8
								c0,0.4,0.4,0.8,0.8,0.8L386.8,318.7C386.7,318.7,386.7,318.7,386.8,318.7z"/>
						</g>
						<g>
							<path class="st7" d="M364.2,346.9c0.1,0,0.3-0.1,0.4-0.1c0.4-0.2,0.5-0.7,0.2-1.1l-2.8-4.1c-0.2-0.4-0.7-0.5-1.1-0.2
								c-0.4,0.2-0.5,0.7-0.2,1.1l2.8,4.1C363.6,346.8,363.9,346.9,364.2,346.9z"/>
						</g>
						<g>
							<path class="st7" d="M385.2,331.6c0.3,0,0.6-0.2,0.7-0.5l1.8-4.6c0.2-0.4,0-0.9-0.5-1c-0.4-0.2-0.9,0-1,0.5l-1.8,4.6
								c-0.2,0.4,0,0.9,0.5,1C384.9,331.6,385.1,331.6,385.2,331.6z"/>
						</g>
						<g>
							<path class="st7" d="M372,352.3c0,0,0.1,0,0.1,0c0.4-0.1,0.7-0.5,0.6-1l-1.2-4.8c-0.1-0.4-0.5-0.7-1-0.6
								c-0.4,0.1-0.7,0.5-0.6,1l1.2,4.8C371.2,352.1,371.6,352.3,372,352.3z"/>
						</g>
						<g>
							<path class="st7" d="M354.9,348.7c0.1,0,0.1,0,0.2,0c0.4-0.1,0.7-0.6,0.5-1l-1-3.2c-0.1-0.4-0.6-0.7-1-0.5
								c-0.4,0.1-0.7,0.6-0.5,1l1,3.2C354.2,348.5,354.6,348.8,354.9,348.7z"/>
						</g>
						<g>
							<path class="st7" d="M383.1,311C383.1,311,383.1,311,383.1,311l3.3-0.3c0.4,0,0.8-0.4,0.7-0.9c0-0.4-0.4-0.8-0.9-0.7
								c0,0,0,0,0,0l-3.3,0.3c-0.4,0-0.8,0.4-0.7,0.9C382.3,310.7,382.7,311.1,383.1,311z"/>
						</g>
						<g>
							<path class="st7" d="M364.7,330.9c0.2,0,0.3-0.1,0.5-0.2c0.3-0.3,0.4-0.8,0.1-1.1l-2.3-2.5c-0.3-0.3-0.8-0.4-1.1-0.1
								c-0.3,0.3-0.4,0.8-0.1,1.1l2.3,2.5C364.3,330.9,364.5,330.9,364.7,330.9z"/>
						</g>
						<g>
							<path class="st7" d="M374.1,319.9c0.3,0,0.6-0.3,0.7-0.6l0.9-3.2c0.1-0.4-0.1-0.9-0.6-1c-0.4-0.1-0.9,0.1-1,0.6l-0.9,3.2
								c-0.1,0.4,0.1,0.9,0.6,1C373.9,319.9,374,319.9,374.1,319.9z"/>
						</g>
						<g>
							<path class="st7" d="M382.4,345.2c0.3,0,0.6-0.3,0.7-0.6l0.9-3.2c0.1-0.4-0.1-0.9-0.6-1c-0.4-0.1-0.9,0.1-1,0.6l-0.9,3.2
								c-0.1,0.4,0.1,0.9,0.6,1C382.2,345.2,382.3,345.2,382.4,345.2z"/>
						</g>
						<g>
							<path class="st7" d="M390.1,345.1c0.3,0,0.6-0.2,0.7-0.6l1-3.2c0.1-0.4-0.1-0.9-0.5-1c-0.4-0.1-0.9,0.1-1,0.5l-1,3.2
								c-0.1,0.4,0.1,0.9,0.5,1C389.9,345.1,390,345.2,390.1,345.1z"/>
						</g>
						<g>
							<path class="st7" d="M393.7,334.8c0.2,0,0.4-0.1,0.6-0.3c0.3-0.4,0.2-0.9-0.2-1.1l-2.7-2c-0.4-0.3-0.9-0.2-1.1,0.2
								c-0.3,0.4-0.2,0.9,0.2,1.1l2.7,2C393.4,334.8,393.6,334.9,393.7,334.8z"/>
						</g>
						<g>
							<path class="st7" d="M396,349.2c0.2,0,0.4-0.1,0.6-0.3c0.3-0.4,0.2-0.9-0.2-1.1l-2.7-2c-0.4-0.3-0.9-0.2-1.1,0.2
								c-0.3,0.4-0.2,0.9,0.2,1.1l2.7,2C395.7,349.2,395.9,349.2,396,349.2z"/>
						</g>
						<g>
							<path class="st7" d="M372.8,358.9c0.2,0,0.4-0.1,0.5-0.3c0.3-0.3,0.3-0.8,0-1.1l-2.5-2.3c-0.3-0.3-0.8-0.3-1.1,0
								c-0.3,0.3-0.3,0.8,0,1.1l2.5,2.3C372.3,358.8,372.6,358.9,372.8,358.9z"/>
						</g>
						<g>
							<path class="st7" d="M400.1,357.8c0.4,0,0.7-0.3,0.7-0.7l0.2-3.3c0-0.4-0.3-0.8-0.7-0.9c-0.4,0-0.8,0.3-0.9,0.7l-0.2,3.3
								c0,0.4,0.3,0.8,0.7,0.9C400,357.8,400.1,357.8,400.1,357.8z"/>
						</g>
						<g>
							<path class="st7" d="M356.2,358.5c0.4,0,0.7-0.3,0.7-0.7l0.5-3.3c0.1-0.4-0.2-0.9-0.7-0.9c-0.4-0.1-0.9,0.2-0.9,0.7l-0.5,3.3
								c-0.1,0.4,0.2,0.9,0.7,0.9C356.1,358.5,356.1,358.5,356.2,358.5z"/>
						</g>
						<g>
							<path class="st7" d="M364.5,338.5c0.2,0,0.4-0.1,0.6-0.3c0.3-0.4,0.2-0.9-0.2-1.1l-2.7-2c-0.4-0.3-0.9-0.2-1.1,0.2
								c-0.3,0.4-0.2,0.9,0.2,1.1l2.7,2C364.1,338.5,364.3,338.5,364.5,338.5z"/>
						</g>
					</g>
				</g>
			</g>
			<polygon class="st3" points="338.2,353.1 338.2,364.5 371.5,345.3 371.5,333.9 			"/>
		</g>
		<g class="st1">
			<polygon class="st3" points="-61.8,353.1 -61.8,364.5 15.5,319.9 15.5,308.5 			"/>
			<g>
				<g>
					<defs>
						<polygon id="SVGID_47_" points="11.5,352.2 -21.3,299.9 -50.6,354.2 						"/>
					</defs>
					<use xlink:href="#SVGID_47_"  style="overflow:visible;fill:#ED8D93;"/>
					<clipPath id="SVGID_3_">
						<use xlink:href="#SVGID_47_"  style="overflow:visible;"/>
					</clipPath>
					<g class="st8">
						<path class="st7" d="M0.6,352.1c0.3,0,0.6-0.3,0.7-0.6l1.8-6.6c0.1-0.4-0.1-0.9-0.6-1c-0.4-0.1-0.9,0.1-1,0.6l-1.8,6.6
							c-0.1,0.4,0.1,0.9,0.6,1C0.4,352.1,0.5,352.1,0.6,352.1z"/>
						<path class="st7" d="M-4,342.3c0.2,0,0.5-0.1,0.6-0.4l3.8-5.7c0.2-0.4,0.1-0.9-0.2-1.1c-0.4-0.2-0.9-0.1-1.1,0.2l-3.8,5.7
							c-0.2,0.4-0.1,0.9,0.2,1.1C-4.3,342.2-4.1,342.3-4,342.3z"/>
						<path class="st7" d="M5.5,358.3c0.4,0,0.7-0.3,0.7-0.7l0.8-6.8c0-0.4-0.3-0.8-0.7-0.9c-0.4,0-0.8,0.3-0.9,0.7l-0.8,6.8
							c-0.1,0.4,0.3,0.8,0.7,0.9C5.4,358.3,5.4,358.3,5.5,358.3z"/>
						<g>
							<path class="st7" d="M1.1,330.3C1.1,330.3,1.1,330.3,1.1,330.3l5-0.8c0.4-0.1,0.7-0.5,0.7-0.9c-0.1-0.4-0.5-0.7-0.9-0.7
								l-4.9,0.8c-0.4,0.1-0.7,0.5-0.7,0.9C0.3,330.1,0.7,330.4,1.1,330.3z"/>
						</g>
						<g>
							<path class="st7" d="M5,344.7c0.1,0,0.1,0,0.2,0c0.4-0.1,0.7-0.6,0.5-1l-1-3.2c-0.1-0.4-0.6-0.7-1-0.5
								c-0.4,0.1-0.7,0.6-0.5,1l1,3.2C4.2,344.5,4.6,344.7,5,344.7z"/>
						</g>
						<g>
							<path class="st7" d="M9.5,341.4c0.2,0,0.5-0.1,0.6-0.3c0.3-0.4,0.2-0.9-0.2-1.1l-2.7-1.9c-0.4-0.3-0.9-0.2-1.1,0.2
								c-0.3,0.4-0.2,0.9,0.2,1.1l2.7,1.9C9.2,341.4,9.4,341.5,9.5,341.4z"/>
						</g>
						<g>
							<path class="st7" d="M7.1,349c0.3,0,0.5-0.2,0.6-0.4c0.2-0.4,0.1-0.9-0.3-1.1l-2.9-1.7c-0.4-0.2-0.9-0.1-1.1,0.3
								c-0.2,0.4-0.1,0.9,0.3,1.1l2.9,1.7C6.8,349,6.9,349,7.1,349z"/>
						</g>
						<g>
							<path class="st7" d="M0.1,357.8c0.4,0,0.7-0.3,0.7-0.7l0.2-3.3c0-0.4-0.3-0.8-0.7-0.9c-0.4,0-0.8,0.3-0.9,0.7l-0.2,3.3
								c0,0.4,0.3,0.8,0.7,0.9C0,357.8,0.1,357.8,0.1,357.8z"/>
						</g>
					</g>
				</g>
			</g>
		</g>
		<g class="st1">
			<polygon class="st9" points="150,21 150,32.4 227.3,-12.2 227.3,-23.6 			"/>
			<g>
				<g>
					<defs>
						<polygon id="SVGID_46_" points="218.2,25.4 198,-32.9 157.2,13.4 						"/>
					</defs>
					<use xlink:href="#SVGID_46_"  style="overflow:visible;fill:#ED8D93;"/>
					<clipPath id="SVGID_4_">
						<use xlink:href="#SVGID_46_"  style="overflow:visible;"/>
					</clipPath>
					<g class="st10">
						<path class="st7" d="M164.3,0.3c0.2,0,0.4,0,0.6-0.1l5.7-3.8c0.4-0.2,0.5-0.7,0.2-1.1c-0.2-0.4-0.7-0.5-1.1-0.2L164-1.2
							c-0.4,0.2-0.5,0.7-0.2,1.1C163.9,0.2,164.1,0.3,164.3,0.3z"/>
						<path class="st7" d="M154.3,13.4c0.2,0,0.4,0,0.6-0.1l5.5-4.1c0.4-0.3,0.4-0.8,0.2-1.1c-0.3-0.4-0.8-0.4-1.1-0.2l-5.5,4.1
							c-0.4,0.3-0.4,0.8-0.2,1.1C153.9,13.2,154.1,13.3,154.3,13.4z"/>
						<path class="st7" d="M175.4,18.4c0.4,0.1,0.8-0.2,0.9-0.5c0.1-0.4-0.1-0.9-0.5-1l-6.5-2.2c-0.4-0.1-0.9,0.1-1,0.5
							c-0.1,0.4,0.1,0.9,0.5,1l6.5,2.2C175.3,18.3,175.3,18.4,175.4,18.4z"/>
						<path class="st7" d="M180.5,6.4C180.5,6.4,180.5,6.4,180.5,6.4l6.9,0.5c0.4,0,0.8-0.3,0.9-0.7c0-0.4-0.3-0.8-0.7-0.9l-6.9-0.5
							c-0.4,0-0.8,0.3-0.9,0.7C179.8,6,180.1,6.4,180.5,6.4z"/>
						<path class="st7" d="M186.8,19.4C186.9,19.4,186.9,19.4,186.8,19.4c0.5,0,0.9-0.3,0.9-0.8l0.2-6.9c0-0.4-0.3-0.8-0.8-0.8
							c-0.4,0-0.8,0.3-0.8,0.8l-0.2,6.9C186.1,19,186.4,19.3,186.8,19.4z"/>
						<path class="st7" d="M196.2,20.1c0,0,0.1,0,0.1,0c0.4,0,0.8-0.4,0.8-0.8l-0.1-6.9c0-0.4-0.4-0.8-0.8-0.8
							c-0.4,0-0.8,0.4-0.8,0.8l0.1,6.9C195.5,19.7,195.8,20.1,196.2,20.1z"/>
						<path class="st7" d="M199.6,7.1c0.4,0.1,0.7-0.1,0.9-0.5c0.2-0.4,0-0.9-0.4-1.1l-6.3-2.7c-0.4-0.2-0.9,0-1.1,0.4
							c-0.2,0.4,0,0.9,0.4,1.1l6.3,2.7C199.5,7.1,199.6,7.1,199.6,7.1z"/>
						<path class="st7" d="M207.6,22.9c0.3,0.1,0.7-0.1,0.8-0.4l3.2-6.1c0.2-0.4,0.1-0.9-0.3-1.1c-0.4-0.2-0.9-0.1-1.1,0.3l-3.2,6.1
							c-0.2,0.4-0.1,0.9,0.3,1.1C207.5,22.8,207.5,22.8,207.6,22.9z"/>
						<path class="st7" d="M205.4,12.2c0.2,0,0.5,0,0.7-0.2l5-4.7c0.3-0.3,0.3-0.8,0-1.1c-0.3-0.3-0.8-0.3-1.1,0l-5,4.7
							c-0.3,0.3-0.3,0.8,0,1.1C205.1,12.1,205.2,12.2,205.4,12.2z"/>
						<path class="st7" d="M186,3.4c0.3,0,0.5,0,0.7-0.3l4.6-5.1c0.3-0.3,0.3-0.8-0.1-1.1c-0.3-0.3-0.8-0.3-1.1,0.1L185.5,2
							c-0.3,0.3-0.3,0.8,0.1,1.1C185.7,3.3,185.9,3.3,186,3.4z"/>
						<path class="st7" d="M157.8,20.1c0.4,0.1,0.8-0.2,0.9-0.6l1.7-6.7c0.1-0.4-0.2-0.9-0.6-1c-0.4-0.1-0.9,0.2-1,0.6l-1.7,6.7
							C157,19.6,157.3,20,157.8,20.1C157.8,20.1,157.8,20.1,157.8,20.1z"/>
						<path class="st7" d="M202,26.2c0.2,0,0.4,0,0.6-0.1c0.4-0.2,0.5-0.7,0.2-1.1l-3.7-5.8c-0.2-0.4-0.7-0.5-1.1-0.2
							c-0.4,0.2-0.5,0.7-0.2,1.1l3.7,5.8C201.6,26,201.8,26.1,202,26.2z"/>
						<path class="st7" d="M187.6,22.4c0.4,0.1,0.8-0.2,0.9-0.6c0.1-0.4-0.2-0.9-0.6-1l-6.7-1.7c-0.4-0.1-0.9,0.2-1,0.6
							c-0.1,0.4,0.2,0.9,0.6,1L187.6,22.4C187.6,22.3,187.6,22.4,187.6,22.4z"/>
						<path class="st7" d="M211,30c0.4,0.1,0.8-0.2,0.9-0.5l2.3-6.5c0.1-0.4-0.1-0.9-0.5-1c-0.4-0.1-0.9,0.1-1,0.5l-2.3,6.5
							c-0.1,0.4,0.1,0.9,0.5,1C210.9,30,211,30,211,30z"/>
						<g>
							<path class="st7" d="M167.3,12.5C167.3,12.5,167.3,12.5,167.3,12.5l4.9,0.7c0.4,0.1,0.8-0.2,0.9-0.7c0.1-0.4-0.2-0.8-0.7-0.9
								c0,0,0,0,0,0l-4.9-0.7c-0.4-0.1-0.8,0.2-0.9,0.7C166.6,12,166.9,12.4,167.3,12.5z"/>
						</g>
						<g>
							<path class="st7" d="M173.3,9.6c0.1,0,0.3,0,0.4,0c0.4-0.2,0.6-0.6,0.5-1l-1.8-4.6c-0.2-0.4-0.6-0.6-1-0.5
								c-0.4,0.2-0.6,0.6-0.5,1l1.8,4.6C172.8,9.4,173,9.6,173.3,9.6z"/>
						</g>
						<g>
							<path class="st7" d="M179.7,16.6c0,0,0.1,0,0.1,0c0.4,0,0.8-0.4,0.8-0.8l-0.1-5c0-0.4-0.4-0.8-0.8-0.8
								c-0.4,0-0.8,0.4-0.8,0.8l0.1,5C179.1,16.2,179.3,16.6,179.7,16.6z"/>
						</g>
						<g>
							<path class="st7" d="M213,1.8C213,1.8,213,1.8,213,1.8l5,0.4c0.4,0,0.8-0.3,0.9-0.7c0-0.4-0.3-0.8-0.7-0.9l-5-0.4
								c-0.4,0-0.8,0.3-0.9,0.7C212.3,1.3,212.6,1.7,213,1.8z"/>
						</g>
						<g>
							<path class="st7" d="M213.6,16.6c0.1,0,0.1,0,0.2,0c0.4,0,0.8-0.4,0.7-0.9l-0.2-3.3c0-0.4-0.4-0.8-0.9-0.7
								c-0.4,0-0.8,0.4-0.7,0.9l0.2,3.3C212.9,16.3,213.2,16.6,213.6,16.6z"/>
						</g>
						<g>
							<path class="st7" d="M163.9,9.3c0.1,0,0.1,0,0.2,0c0.4,0,0.8-0.4,0.7-0.9l-0.2-3.3c0-0.4-0.4-0.8-0.9-0.7
								c-0.4,0-0.8,0.4-0.7,0.9l0.2,3.3C163.3,9,163.5,9.3,163.9,9.3z"/>
						</g>
						<g>
							<path class="st7" d="M218.8,14.5c0.2,0,0.5,0,0.7-0.2c0.3-0.3,0.4-0.8,0.1-1.1l-2.3-2.5c-0.3-0.3-0.8-0.4-1.1-0.1
								c-0.3,0.3-0.4,0.8-0.1,1.1l2.3,2.5C218.4,14.4,218.6,14.4,218.8,14.5z"/>
						</g>
						<g>
							<path class="st7" d="M191.4,12c0.3,0.1,0.7-0.1,0.8-0.4l1.6-2.9c0.2-0.4,0.1-0.9-0.3-1.1c-0.4-0.2-0.9-0.1-1.1,0.3l-1.6,2.9
								c-0.2,0.4-0.1,0.9,0.3,1.1C191.3,12,191.4,12,191.4,12z"/>
						</g>
						<g>
							<path class="st7" d="M214.7,21.3c0.3,0,0.5,0,0.7-0.2c0.3-0.3,0.3-0.8,0-1.1l-2.4-2.3c-0.3-0.3-0.8-0.3-1.1,0
								c-0.3,0.3-0.3,0.8,0,1.1l2.4,2.3C214.4,21.2,214.5,21.3,214.7,21.3z"/>
						</g>
						<g>
							<path class="st7" d="M199,13.7c0.3,0,0.6-0.1,0.8-0.4l1.7-2.9c0.2-0.4,0.1-0.9-0.3-1.1c-0.4-0.2-0.9-0.1-1.1,0.3l-1.7,2.9
								c-0.2,0.4-0.1,0.9,0.3,1.1C198.8,13.7,198.9,13.7,199,13.7z"/>
						</g>
						<g>
							<path class="st7" d="M204.8,4.5c0.2,0,0.5,0,0.6-0.2c0.3-0.3,0.4-0.8,0.1-1.1l-2.2-2.5c-0.3-0.3-0.8-0.4-1.1-0.1
								c-0.3,0.3-0.4,0.8-0.1,1.1l2.2,2.5C204.5,4.4,204.7,4.5,204.8,4.5z"/>
						</g>
						<g>
							<path class="st7" d="M203.9,19c0.2,0,0.5,0,0.6-0.2c0.3-0.3,0.4-0.8,0.1-1.1l-2.2-2.5c-0.3-0.3-0.8-0.4-1.1-0.1
								c-0.3,0.3-0.4,0.8-0.1,1.1l2.2,2.5C203.5,18.9,203.7,19,203.9,19z"/>
						</g>
						<g>
							<path class="st7" d="M179,23.2c0.2,0,0.4,0,0.6-0.1c0.4-0.3,0.5-0.8,0.2-1.1l-1.9-2.8c-0.3-0.4-0.8-0.5-1.1-0.2
								c-0.4,0.3-0.5,0.8-0.2,1.1l1.9,2.8C178.6,23.1,178.8,23.2,179,23.2z"/>
						</g>
						<g>
							<path class="st7" d="M205.9,28.3c0.4,0.1,0.8-0.2,0.9-0.6l1-3.2c0.1-0.4-0.1-0.9-0.5-1c-0.4-0.1-0.9,0.1-1,0.5l-1,3.2
								c-0.1,0.4,0.1,0.9,0.5,1C205.8,28.2,205.9,28.3,205.9,28.3z"/>
						</g>
						<g>
							<path class="st7" d="M163,19.1c0.4,0.1,0.7-0.1,0.9-0.5l1.3-3.1c0.2-0.4,0-0.9-0.4-1c-0.4-0.2-0.9,0-1,0.4l-1.3,3.1
								c-0.2,0.4,0,0.9,0.4,1C162.8,19.1,162.9,19.1,163,19.1z"/>
						</g>
						<g>
							<path class="st7" d="M175.5,1.5c0.2,0,0.5,0,0.6-0.2c0.3-0.3,0.4-0.8,0.1-1.1l-2.1-2.6c-0.3-0.3-0.8-0.4-1.1-0.1
								c-0.3,0.3-0.4,0.8-0.1,1.1l2.1,2.6C175.1,1.4,175.3,1.5,175.5,1.5z"/>
						</g>
					</g>
				</g>
			</g>
			<polygon class="st9" points="150,21 150,32.4 183.4,13.2 183.4,1.8 			"/>
		</g>
		<g class="st1">
			<g>
				<path class="st2" d="M162,203.7L162,203.7c-0.6,0-1.2-0.5-1.2-1.2l0-6.6c0-0.6,0.5-1.2,1.2-1.2l0,0c0.6,0,1.2,0.5,1.2,1.2l0,6.6
					C163.1,203.2,162.6,203.7,162,203.7z"/>
				<path class="st2" d="M162,170.6L162,170.6c-0.6,0-1.2-0.5-1.2-1.2l0-2.7c0-0.6,0.5-1.2,1.2-1.2l0,0c0.6,0,1.2,0.5,1.2,1.2l0,2.7
					C163.1,170.1,162.6,170.6,162,170.6z"/>
				<path class="st2" d="M162,163c-0.6,0-1.2-0.5-1.2-1.2v-1.9c0-0.6,0.5-1.2,1.2-1.2s1.2,0.5,1.2,1.2v1.9
					C163.1,162.5,162.6,163,162,163z"/>
				<path class="st2" d="M162,193.1L162,193.1c-0.6,0-1.2-0.5-1.2-1.2l0-15.3c0-0.6,0.5-1.2,1.2-1.2l0,0c0.6,0,1.2,0.5,1.2,1.2
					l0,15.3C163.1,192.6,162.6,193.1,162,193.1z"/>
				<path class="st2" d="M165.7,198.4L165.7,198.4c-0.6,0-1.2-0.5-1.2-1.2l0-13.7c0-0.6,0.5-1.2,1.2-1.2l0,0c0.6,0,1.2,0.5,1.2,1.2
					l0,13.7C166.8,197.9,166.3,198.4,165.7,198.4z"/>
				<path class="st2" d="M165.7,203.6L165.7,203.6c-0.6,0-1.2-0.5-1.2-1.2l0-1.8c0-0.6,0.5-1.2,1.2-1.2h0c0.6,0,1.2,0.5,1.2,1.2
					l0,1.8C166.8,203.1,166.3,203.6,165.7,203.6z"/>
				<path class="st2" d="M169.4,184.4c-0.6,0-1.2-0.5-1.2-1.2v-1.8c0-0.6,0.5-1.2,1.2-1.2s1.2,0.5,1.2,1.2v1.8
					C170.5,183.8,170,184.4,169.4,184.4z"/>
				<path class="st2" d="M169.4,177.8L169.4,177.8c-0.6,0-1.2-0.5-1.2-1.2l0-9c0-0.6,0.5-1.2,1.2-1.2l0,0c0.6,0,1.2,0.5,1.2,1.2l0,9
					C170.5,177.3,170,177.8,169.4,177.8z"/>
				<path class="st2" d="M165.7,179.9c-0.6,0-1.2-0.5-1.2-1.2V171c0-0.6,0.5-1.2,1.2-1.2c0.6,0,1.2,0.5,1.2,1.2v7.7
					C166.8,179.4,166.3,179.9,165.7,179.9z"/>
				<path class="st2" d="M169.4,201.4c-0.6,0-1.2-0.5-1.2-1.2v-13.1c0-0.6,0.5-1.2,1.2-1.2s1.2,0.5,1.2,1.2v13.1
					C170.5,200.9,170,201.4,169.4,201.4z"/>
				<path class="st2" d="M158.3,198.9c-0.6,0-1.2-0.5-1.2-1.2v-3.6c0-0.6,0.5-1.2,1.2-1.2c0.6,0,1.2,0.5,1.2,1.2v3.6
					C159.5,198.4,158.9,198.9,158.3,198.9z"/>
				<path class="st2" d="M173.1,190.7L173.1,190.7c-0.6,0-1.2-0.5-1.2-1.2l0-9.5c0-0.6,0.5-1.2,1.2-1.2l0,0c0.6,0,1.2,0.5,1.2,1.2
					l0,9.5C174.2,190.2,173.7,190.7,173.1,190.7z"/>
				<path class="st2" d="M173.1,200.3c-0.6,0-1.2-0.5-1.2-1.2v-5.3c0-0.6,0.5-1.2,1.2-1.2c0.6,0,1.2,0.5,1.2,1.2v5.3
					C174.2,199.8,173.7,200.3,173.1,200.3z"/>
				<path class="st2" d="M176.8,199c-0.6,0-1.2-0.5-1.2-1.2v-11.4c0-0.6,0.5-1.2,1.2-1.2c0.6,0,1.2,0.5,1.2,1.2v11.4
					C177.9,198.5,177.4,199,176.8,199z"/>
				<path class="st2" d="M139.8,168.9c-0.6,0-1.2-0.5-1.2-1.2v-3.9c0-0.6,0.5-1.2,1.2-1.2c0.6,0,1.2,0.5,1.2,1.2v3.9
					C141,168.4,140.4,168.9,139.8,168.9z"/>
				<path class="st2" d="M143.5,175.8L143.5,175.8c-0.6,0-1.2-0.5-1.2-1.2l0-13.4c0-0.6,0.5-1.2,1.2-1.2l0,0c0.6,0,1.2,0.5,1.2,1.2
					l0,13.4C144.7,175.2,144.1,175.8,143.5,175.8z"/>
				<path class="st2" d="M147.2,180.9L147.2,180.9c-0.6,0-1.2-0.5-1.2-1.2l0-15c0-0.6,0.5-1.2,1.2-1.2l0,0c0.6,0,1.2,0.5,1.2,1.2
					l0,15C148.4,180.4,147.8,180.9,147.2,180.9z"/>
				<path class="st2" d="M147.2,163.1L147.2,163.1c-0.6,0-1.2-0.5-1.2-1.2l0-7.5c0-0.6,0.5-1.2,1.2-1.2l0,0c0.6,0,1.2,0.5,1.2,1.2
					l0,7.5C148.4,162.5,147.8,163.1,147.2,163.1z"/>
				<path class="st2" d="M150.9,171.9c-0.6,0-1.2-0.5-1.2-1.2v-10.4c0-0.6,0.5-1.2,1.2-1.2c0.6,0,1.2,0.5,1.2,1.2v10.4
					C152.1,171.3,151.5,171.9,150.9,171.9z"/>
				<path class="st2" d="M150.9,158.5c-0.6,0-1.2-0.5-1.2-1.2v-5.8c0-0.6,0.5-1.2,1.2-1.2c0.6,0,1.2,0.5,1.2,1.2v5.8
					C152.1,158,151.5,158.5,150.9,158.5z"/>
				<path class="st2" d="M150.9,186.7L150.9,186.7c-0.6,0-1.2-0.5-1.2-1.2l0-11.4c0-0.6,0.5-1.2,1.2-1.2l0,0c0.6,0,1.2,0.5,1.2,1.2
					l0,11.4C152.1,186.2,151.5,186.7,150.9,186.7z"/>
				<path class="st2" d="M154.6,194.6c-0.6,0-1.2-0.5-1.2-1.2V169c0-0.6,0.5-1.2,1.2-1.2s1.2,0.5,1.2,1.2v24.4
					C155.8,194.1,155.2,194.6,154.6,194.6z"/>
				<path class="st2" d="M158.3,190.9c-0.6,0-1.2-0.5-1.2-1.2v-9.7c0-0.6,0.5-1.2,1.2-1.2c0.6,0,1.2,0.5,1.2,1.2v9.7
					C159.5,190.4,158.9,190.9,158.3,190.9z"/>
				<path class="st2" d="M158.3,178.1c-0.6,0-1.2-0.5-1.2-1.2v-7.6c0-0.6,0.5-1.2,1.2-1.2c0.6,0,1.2,0.5,1.2,1.2v7.6
					C159.5,177.6,158.9,178.1,158.3,178.1z"/>
				<path class="st2" d="M158.3,165.1c-0.6,0-1.2-0.5-1.2-1.2v-4.6c0-0.6,0.5-1.2,1.2-1.2c0.6,0,1.2,0.5,1.2,1.2v4.6
					C159.5,164.6,158.9,165.1,158.3,165.1z"/>
			</g>
			<path class="st5" d="M160.5,177.4c0,8.2-6,14.9-13.8,16.1v-32.2C154.5,162.5,160.5,169.3,160.5,177.4z"/>
		</g>
		<polygon class="st11" points="247.3,25.7 247.3,12.4 268.9,12.4 		"/>
		<polygon class="st11" points="232.9,238 232.9,224.6 254.5,224.6 		"/>
		<polygon class="st12" points="29.5,46.6 16.1,46.6 16.1,25 		"/>
		<g class="st1">
			<path class="st13" d="M112.6,34.8c-0.3,0-0.6-0.1-0.8-0.3c-0.5-0.5-0.5-1.2,0-1.6l5.2-5.3l-5.1-5.1c-0.5-0.5-0.5-1.2,0-1.6
				c0.5-0.5,1.2-0.5,1.6,0l5.9,5.9c0.2,0.2,0.3,0.5,0.3,0.8c0,0.3-0.1,0.6-0.3,0.8l-6.1,6.1C113.2,34.7,112.9,34.8,112.6,34.8z"/>
			<path class="st13" d="M112.6,22.8c-0.3,0-0.6-0.1-0.8-0.3c-0.5-0.5-0.5-1.2,0-1.7l5.2-5.2l-5.1-5.1c-0.5-0.5-0.5-1.2,0-1.6
				c0.5-0.5,1.2-0.5,1.6,0l5.9,5.9c0.2,0.2,0.3,0.5,0.3,0.8c0,0.3-0.1,0.6-0.3,0.8l-6.1,6.1C113.2,22.7,112.9,22.8,112.6,22.8z"/>
			<path class="st13" d="M112.6,10.8c-0.3,0-0.6-0.1-0.8-0.3c-0.5-0.5-0.5-1.2,0-1.6l5.2-5.3L112-1.6c-0.5-0.5-0.5-1.2,0-1.6
				c0.5-0.5,1.2-0.5,1.6,0l5.9,5.9c0.2,0.2,0.3,0.5,0.3,0.8s-0.1,0.6-0.3,0.8l-6.1,6.1C113.2,10.7,112.9,10.8,112.6,10.8z"/>
		</g>
		<g class="st1">
			<path class="st2" d="M329.1,397.5L329.1,397.5c-0.6,0-1.2-0.5-1.2-1.2l0-2.7c0-0.6,0.5-1.2,1.2-1.2l0,0c0.6,0,1.2,0.5,1.2,1.2
				l0,2.7C330.3,397,329.7,397.5,329.1,397.5z"/>
			<path class="st2" d="M329.1,389.9c-0.6,0-1.2-0.5-1.2-1.2v-1.9c0-0.6,0.5-1.2,1.2-1.2s1.2,0.5,1.2,1.2v1.9
				C330.3,389.4,329.7,389.9,329.1,389.9z"/>
			<path class="st2" d="M336.5,404.8L336.5,404.8c-0.6,0-1.2-0.5-1.2-1.2l0-9c0-0.6,0.5-1.2,1.2-1.2l0,0c0.6,0,1.2,0.5,1.2,1.2l0,9
				C337.7,404.2,337.1,404.8,336.5,404.8z"/>
			<path class="st2" d="M332.8,406.8c-0.6,0-1.2-0.5-1.2-1.2v-7.7c0-0.6,0.5-1.2,1.2-1.2s1.2,0.5,1.2,1.2v7.7
				C334,406.3,333.4,406.8,332.8,406.8z"/>
			<path class="st2" d="M306.9,395.8c-0.6,0-1.2-0.5-1.2-1.2v-3.9c0-0.6,0.5-1.2,1.2-1.2c0.6,0,1.2,0.5,1.2,1.2v3.9
				C308.1,395.3,307.6,395.8,306.9,395.8z"/>
			<path class="st2" d="M310.6,402.7c-0.6,0-1.2-0.5-1.2-1.2v-13.4c0-0.6,0.5-1.2,1.2-1.2c0.6,0,1.2,0.5,1.2,1.2v13.4
				C311.8,402.2,311.3,402.7,310.6,402.7z"/>
			<path class="st2" d="M314.3,407.8L314.3,407.8c-0.6,0-1.2-0.5-1.2-1.2l0-15c0-0.6,0.5-1.2,1.2-1.2l0,0c0.6,0,1.2,0.5,1.2,1.2
				l0,15C315.5,407.3,315,407.8,314.3,407.8z"/>
			<path class="st2" d="M314.3,390L314.3,390c-0.6,0-1.2-0.5-1.2-1.2l0-7.5c0-0.6,0.5-1.2,1.2-1.2l0,0c0.6,0,1.2,0.5,1.2,1.2l0,7.5
				C315.5,389.5,315,390,314.3,390z"/>
			<path class="st2" d="M318,398.8c-0.6,0-1.2-0.5-1.2-1.2v-10.4c0-0.6,0.5-1.2,1.2-1.2s1.2,0.5,1.2,1.2v10.4
				C319.2,398.3,318.7,398.8,318,398.8z"/>
			<path class="st2" d="M318,385.4c-0.6,0-1.2-0.5-1.2-1.2v-5.8c0-0.6,0.5-1.2,1.2-1.2s1.2,0.5,1.2,1.2v5.8
				C319.2,384.9,318.7,385.4,318,385.4z"/>
			<path class="st2" d="M318,413.6L318,413.6c-0.6,0-1.2-0.5-1.2-1.2l0-11.4c0-0.6,0.5-1.2,1.2-1.2l0,0c0.6,0,1.2,0.5,1.2,1.2
				l0,11.4C319.2,413.1,318.7,413.6,318,413.6z"/>
			<path class="st2" d="M321.7,421.6c-0.6,0-1.2-0.5-1.2-1.2V396c0-0.6,0.5-1.2,1.2-1.2s1.2,0.5,1.2,1.2v24.4
				C322.9,421,322.4,421.6,321.7,421.6z"/>
			<path class="st2" d="M325.4,405.1c-0.6,0-1.2-0.5-1.2-1.2v-7.6c0-0.6,0.5-1.2,1.2-1.2s1.2,0.5,1.2,1.2v7.6
				C326.6,404.5,326,405.1,325.4,405.1z"/>
			<path class="st2" d="M325.4,392c-0.6,0-1.2-0.5-1.2-1.2v-4.6c0-0.6,0.5-1.2,1.2-1.2s1.2,0.5,1.2,1.2v4.6
				C326.6,391.5,326,392,325.4,392z"/>
		</g>
		<g class="st1">
			<polygon class="st9" points="150,421 150,432.4 227.3,387.8 227.3,376.4 			"/>
			<g>
				<g>
					<defs>
						<polygon id="SVGID_45_" points="218.2,425.4 198,367.1 157.2,413.4 						"/>
					</defs>
					<use xlink:href="#SVGID_45_"  style="overflow:visible;fill:#ED8D93;"/>
					<clipPath id="SVGID_5_">
						<use xlink:href="#SVGID_45_"  style="overflow:visible;"/>
					</clipPath>
					<g class="st14">
						<path class="st7" d="M195.8,379.4c0.4,0.1,0.8-0.2,0.9-0.6l1.6-6.7c0.1-0.4-0.2-0.9-0.6-1c-0.4-0.1-0.9,0.2-1,0.6l-1.6,6.7
							C195,378.9,195.3,379.3,195.8,379.4C195.8,379.4,195.8,379.4,195.8,379.4z"/>
						<path class="st7" d="M189.7,376.8c0.2,0,0.4,0,0.6-0.1c0.4-0.2,0.5-0.7,0.2-1.1l-3.8-5.7c-0.2-0.4-0.7-0.5-1.1-0.2
							c-0.4,0.2-0.5,0.7-0.2,1.1l3.8,5.7C189.3,376.7,189.5,376.8,189.7,376.8z"/>
						<path class="st7" d="M206.7,397.8c0.2,0,0.4,0,0.5-0.1l6-3.3c0.4-0.2,0.5-0.7,0.3-1.1c-0.2-0.4-0.7-0.5-1.1-0.3l-6,3.3
							c-0.4,0.2-0.5,0.7-0.3,1.1C206.2,397.6,206.4,397.7,206.7,397.8z"/>
						<path class="st7" d="M179.7,399.1c0.2,0,0.4,0,0.6-0.2l5.4-4.3c0.3-0.3,0.4-0.8,0.1-1.1c-0.3-0.3-0.8-0.4-1.1-0.1l-5.3,4.3
							c-0.3,0.3-0.4,0.8-0.1,1.1C179.3,399,179.5,399.1,179.7,399.1z"/>
						<path class="st7" d="M164.3,400.3c0.2,0,0.4,0,0.6-0.1l5.7-3.8c0.4-0.2,0.5-0.7,0.2-1.1c-0.2-0.4-0.7-0.5-1.1-0.2l-5.7,3.8
							c-0.4,0.2-0.5,0.7-0.2,1.1C163.9,400.2,164.1,400.3,164.3,400.3z"/>
						<path class="st7" d="M193.2,373.8c0.4,0.1,0.7-0.1,0.9-0.5l2.6-6.4c0.2-0.4,0-0.9-0.4-1c-0.4-0.2-0.9,0-1,0.4l-2.6,6.4
							c-0.2,0.4,0,0.9,0.4,1C193.1,373.8,193.2,373.8,193.2,373.8z"/>
						<path class="st7" d="M186,403.4c0.3,0,0.5,0,0.7-0.3l4.6-5.1c0.3-0.3,0.3-0.8-0.1-1.1c-0.3-0.3-0.8-0.3-1.1,0.1l-4.6,5.1
							c-0.3,0.3-0.3,0.8,0.1,1.1C185.7,403.3,185.9,403.3,186,403.4z"/>
						<g>
							<path class="st7" d="M202.5,393.7c0.3,0,0.5,0,0.7-0.3l3.3-3.7c0.3-0.3,0.3-0.8-0.1-1.1c-0.3-0.3-0.8-0.3-1.1,0.1l-3.3,3.7
								c-0.3,0.3-0.3,0.8,0.1,1.1C202.2,393.6,202.3,393.6,202.5,393.7z"/>
						</g>
						<g>
							<path class="st7" d="M185.4,391.6c0.1,0,0.3,0,0.4,0c0.4-0.2,0.6-0.6,0.5-1l-1.8-4.7c-0.2-0.4-0.6-0.6-1-0.5
								c-0.4,0.2-0.6,0.6-0.5,1l1.8,4.7C184.9,391.4,185.1,391.6,185.4,391.6z"/>
						</g>
						<g>
							<path class="st7" d="M190.6,392.8c0.2,0,0.4,0,0.6-0.1l4.1-2.9c0.4-0.3,0.4-0.8,0.2-1.1c-0.3-0.4-0.8-0.4-1.1-0.2l-4.1,2.9
								c-0.4,0.3-0.4,0.8-0.2,1.1C190.2,392.7,190.4,392.8,190.6,392.8z"/>
						</g>
						<g>
							<path class="st7" d="M207.8,386.9c0.2,0,0.3,0,0.5-0.1c0.4-0.2,0.6-0.7,0.4-1.1l-2.2-4.5c-0.2-0.4-0.7-0.6-1.1-0.4
								c-0.4,0.2-0.6,0.7-0.4,1.1l2.2,4.5C207.3,386.7,207.5,386.8,207.8,386.9z"/>
						</g>
						<g>
							<path class="st7" d="M201.6,387.2c0.4,0.1,0.8-0.2,0.9-0.7c0.1-0.4-0.2-0.9-0.7-0.9l-4.9-0.9c-0.4-0.1-0.9,0.2-0.9,0.7
								c-0.1,0.4,0.2,0.9,0.7,0.9L201.6,387.2C201.6,387.2,201.6,387.2,201.6,387.2z"/>
						</g>
						<g>
							<path class="st7" d="M197.2,399.4c0.3,0,0.6-0.1,0.8-0.3l2.8-4.1c0.3-0.4,0.2-0.9-0.2-1.1c-0.4-0.3-0.9-0.2-1.1,0.2l-2.8,4.1
								c-0.3,0.4-0.2,0.9,0.2,1.1C197,399.4,197.1,399.4,197.2,399.4z"/>
						</g>
						<g>
							<path class="st7" d="M199.8,378.9C199.8,378.9,199.8,378.9,199.8,378.9l3.3,0.5c0.4,0.1,0.8-0.2,0.9-0.7
								c0.1-0.4-0.2-0.8-0.7-0.9c0,0,0,0,0,0l-3.3-0.5c-0.4-0.1-0.8,0.2-0.9,0.7C199.1,378.4,199.4,378.8,199.8,378.9z"/>
						</g>
						<g>
							<path class="st7" d="M177.4,394.2c0.2,0,0.4,0,0.5-0.1c0.4-0.2,0.5-0.7,0.3-1.1l-1.6-2.9c-0.2-0.4-0.7-0.5-1.1-0.3
								c-0.4,0.2-0.5,0.7-0.3,1.1l1.6,2.9C177,394,177.2,394.1,177.4,394.2z"/>
						</g>
						<g>
							<path class="st7" d="M189,385.5c0.3,0.1,0.7-0.1,0.8-0.4l1.6-2.9c0.2-0.4,0.1-0.9-0.3-1.1c-0.4-0.2-0.9-0.1-1.1,0.3l-1.6,2.9
								c-0.2,0.4-0.1,0.9,0.3,1.1C188.8,385.5,188.9,385.5,189,385.5z"/>
						</g>
						<g>
							<path class="st7" d="M175.5,401.5c0.2,0,0.5,0,0.6-0.2c0.3-0.3,0.4-0.8,0.1-1.1l-2.1-2.6c-0.3-0.3-0.8-0.4-1.1-0.1
								c-0.3,0.3-0.4,0.8-0.1,1.1l2.1,2.6C175.1,401.4,175.3,401.5,175.5,401.5z"/>
						</g>
					</g>
				</g>
			</g>
		</g>
		<g class="st1">
			<path class="st13" d="M112.6,410.8c-0.3,0-0.6-0.1-0.8-0.3c-0.5-0.5-0.5-1.2,0-1.6l5.2-5.3l-5.1-5.1c-0.5-0.5-0.5-1.2,0-1.6
				c0.5-0.5,1.2-0.5,1.6,0l5.9,5.9c0.2,0.2,0.3,0.5,0.3,0.8s-0.1,0.6-0.3,0.8l-6.1,6.1C113.2,410.7,112.9,410.8,112.6,410.8z"/>
			<path class="st13" d="M112.6,398.8c-0.3,0-0.6-0.1-0.8-0.3c-0.5-0.5-0.5-1.2,0-1.6l5.3-5.3l-5.1-5.1c-0.5-0.5-0.5-1.2,0-1.6
				c0.5-0.5,1.2-0.5,1.6,0l5.9,5.9c0.5,0.5,0.5,1.2,0,1.6l-6.1,6.1C113.2,398.7,112.9,398.8,112.6,398.8z"/>
		</g>
		<path class="st15" d="M72.6,42.9c3.4,1.9,3.4,5.1,0,7c-3.4,1.9-8.8,1.9-12.2,0c-3.4-1.9-3.4-5.1,0-7C63.8,41,69.2,41,72.6,42.9z"
			/>
		<path class="st12" d="M358.8,241.9c3.4,1.9,3.4,5.1,0,7c-3.4,1.9-8.8,1.9-12.2,0c-3.4-1.9-3.4-5.1,0-7
			C350,239.9,355.5,239.9,358.8,241.9z"/>
		<g class="st1">
			<path class="st2" d="M236.5,147.6c3.4,1.9,3.4,5.1,0,7c-3.4,1.9-8.8,1.9-12.2,0c-3.4-1.9-3.4-5.1,0-7
				C227.7,145.7,233.1,145.7,236.5,147.6z"/>
			<g>
				<path class="st16" d="M248.4,149.6c-0.3,0-0.6-0.1-0.8-0.3l-5.3-5.2l-5.1,5.1c-0.5,0.5-1.2,0.5-1.6,0c-0.5-0.5-0.5-1.2,0-1.7
					l5.9-5.9c0.5-0.5,1.2-0.5,1.6,0l6.1,6.1c0.5,0.5,0.5,1.2,0,1.6C249,149.5,248.7,149.6,248.4,149.6z"/>
				<path class="st16" d="M236.4,149.6c-0.3,0-0.6-0.1-0.8-0.3l-5.2-5.2l-5.1,5.1c-0.5,0.5-1.2,0.5-1.6,0c-0.5-0.5-0.5-1.2,0-1.7
					l5.9-5.9c0.5-0.5,1.2-0.5,1.6,0l6.1,6.1c0.5,0.5,0.5,1.2,0,1.6C237,149.5,236.7,149.6,236.4,149.6z"/>
				<path class="st16" d="M224.4,149.6c-0.3,0-0.6-0.1-0.8-0.3l-5.3-5.3l-5.1,5.1c-0.5,0.5-1.2,0.5-1.6,0c-0.5-0.5-0.5-1.2,0-1.7
					l5.9-5.9c0.5-0.5,1.2-0.5,1.6,0l6.1,6.1c0.5,0.5,0.5,1.2,0,1.7C225,149.5,224.7,149.6,224.4,149.6z"/>
			</g>
			<path class="st2" d="M236.5,133.6c3.4,1.9,3.4,5.1,0,7c-3.4,1.9-8.8,1.9-12.2,0c-3.4-1.9-3.4-5.1,0-7
				C227.7,131.6,233.1,131.6,236.5,133.6z"/>
		</g>
		<g class="st1">
			<g>
				<polygon class="st4" points="127.8,115.3 127.8,111.7 171.6,86.4 171.6,90 				"/>
				<g>
					<path class="st5" d="M143.2,106.6c3.4,3.4,9,3.4,12.5,0c3.4-3.4,3.4-9,0-12.5c-3.4-3.4-9-3.4-12.5,0
						C139.8,97.5,139.8,103.1,143.2,106.6z"/>
					<polygon class="st5" points="132.4,87.5 136.3,83.5 127.8,79.1 					"/>
					<polygon class="st5" points="134.8,91.8 140.7,85.8 137.9,84.4 133.2,89 					"/>
					<polygon class="st5" points="137.1,96.2 145.2,88.1 142.3,86.6 135.6,93.4 					"/>
					<polygon class="st5" points="141.7,104.5 153.7,92.5 146.7,88.9 138,97.7 141.6,104.4 					"/>
				</g>
				<polygon class="st4" points="127.8,111.7 127.8,115.3 146.8,104.3 146.8,100.8 				"/>
			</g>
			<polygon class="st4" points="184.6,65.8 184.6,69.3 166.6,79.7 166.6,76.2 			"/>
		</g>
		<g class="st1">
			<polygon class="st3" points="267.7,94.9 267.7,101.9 315.3,74.4 315.3,67.4 			"/>
			<g>
				<polygon class="st9" points="246.8,76.2 296.1,39.2 304.1,100.3 				"/>
				<g>
					<defs>
						<polygon id="SVGID_44_" points="255.5,69 287.1,45.6 291.9,84.6 						"/>
					</defs>
					<clipPath id="SVGID_6_">
						<use xlink:href="#SVGID_44_"  style="overflow:visible;"/>
					</clipPath>
					<g class="st17">
						<path class="st7" d="M283.8,52.9c-0.2-0.1-0.4-0.4-0.3-0.6l1.5-4.1c0.1-0.3,0.4-0.4,0.7-0.3c0.3,0.1,0.4,0.4,0.3,0.7l-1.5,4.1
							C284.4,52.9,284.1,53,283.8,52.9C283.8,52.9,283.8,52.9,283.8,52.9z"/>
						<path class="st7" d="M287.9,53.7c-0.1-0.1-0.2-0.1-0.3-0.3c-0.1-0.3,0-0.6,0.3-0.7l4.1-1.6c0.3-0.1,0.6,0,0.7,0.3
							c0.1,0.3,0,0.6-0.3,0.7l-4.1,1.6C288.2,53.8,288.1,53.8,287.9,53.7z"/>
						<path class="st7" d="M271.5,58.7c-0.1,0-0.2-0.1-0.2-0.2l-2-3.9c-0.1-0.3,0-0.6,0.2-0.7c0.3-0.1,0.6,0,0.7,0.2l2,3.9
							c0.1,0.3,0,0.6-0.2,0.7C271.8,58.7,271.7,58.7,271.5,58.7z"/>
						<path class="st7" d="M285.2,69.1c-0.1-0.1-0.2-0.2-0.3-0.3l-1.3-4.2c-0.1-0.3,0.1-0.6,0.3-0.6c0.3-0.1,0.6,0.1,0.6,0.3
							l1.3,4.2c0.1,0.3-0.1,0.6-0.3,0.6C285.5,69.1,285.3,69.1,285.2,69.1z"/>
						<path class="st7" d="M292.9,75.2c-0.1-0.1-0.2-0.1-0.3-0.3l-1.7-4c-0.1-0.3,0-0.6,0.3-0.7c0.3-0.1,0.6,0,0.7,0.3l1.7,4
							c0.1,0.3,0,0.6-0.3,0.7C293.2,75.3,293,75.2,292.9,75.2z"/>
						<path class="st7" d="M287.2,50.9c-0.2-0.1-0.3-0.3-0.3-0.6l0.9-4.3c0.1-0.3,0.3-0.5,0.6-0.4c0.3,0.1,0.5,0.3,0.4,0.6l-0.9,4.3
							c-0.1,0.3-0.3,0.5-0.6,0.4C287.2,50.9,287.2,50.9,287.2,50.9z"/>
						<path class="st7" d="M293.5,85.7c-0.1-0.1-0.2-0.2-0.3-0.3l-1.4-4.1c-0.1-0.3,0-0.6,0.3-0.7c0.3-0.1,0.6,0,0.7,0.3l1.4,4.1
							c0.1,0.3,0,0.6-0.3,0.7C293.7,85.7,293.6,85.7,293.5,85.7z"/>
						<path class="st7" d="M280.6,80.7c-0.2-0.1-0.3-0.4-0.3-0.6c0.1-0.3,0.4-0.4,0.6-0.4l4.2,1.2c0.3,0.1,0.4,0.4,0.4,0.6
							c-0.1,0.3-0.4,0.4-0.6,0.4L280.6,80.7C280.6,80.8,280.6,80.7,280.6,80.7z"/>
						<path class="st7" d="M282.2,72.6C282.2,72.6,282.1,72.6,282.2,72.6l-3.8-2.2c-0.2-0.1-0.3-0.5-0.2-0.7
							c0.1-0.2,0.5-0.3,0.7-0.2l3.8,2.2c0.2,0.1,0.3,0.5,0.2,0.7C282.7,72.6,282.4,72.7,282.2,72.6z"/>
						<path class="st7" d="M274.2,77.1C274.2,77.1,274.2,77.1,274.2,77.1c-0.3-0.2-0.4-0.5-0.2-0.7l2.3-3.7c0.2-0.2,0.5-0.3,0.7-0.2
							c0.2,0.2,0.3,0.5,0.2,0.7l-2.3,3.7C274.7,77.2,274.4,77.3,274.2,77.1z"/>
						<path class="st7" d="M269,74.2C269,74.2,269,74.2,269,74.2c-0.3-0.2-0.4-0.5-0.2-0.8l2.5-3.6c0.2-0.2,0.5-0.3,0.7-0.1
							c0.2,0.2,0.3,0.5,0.1,0.7l-2.5,3.6C269.5,74.2,269.2,74.3,269,74.2z"/>
						<path class="st7" d="M271.8,66.1c-0.2-0.1-0.3-0.3-0.3-0.6c0.1-0.3,0.3-0.5,0.6-0.4l4.3,0.8c0.3,0.1,0.5,0.3,0.4,0.6
							c-0.1,0.3-0.3,0.5-0.6,0.4l-4.3-0.8C271.9,66.2,271.9,66.1,271.8,66.1z"/>
						<path class="st7" d="M262,71.5c-0.2-0.1-0.3-0.3-0.3-0.5l0.5-4.4c0-0.3,0.3-0.5,0.6-0.5c0.3,0,0.5,0.3,0.5,0.6l-0.5,4.4
							c0,0.3-0.3,0.5-0.6,0.5C262.1,71.6,262,71.5,262,71.5z"/>
						<path class="st7" d="M267,66.7c-0.1-0.1-0.2-0.2-0.3-0.4l-0.9-4.3c-0.1-0.3,0.1-0.5,0.4-0.6c0.3-0.1,0.5,0.1,0.6,0.4l0.9,4.3
							c0.1,0.3-0.1,0.5-0.4,0.6C267.2,66.8,267.1,66.8,267,66.7z"/>
						<path class="st7" d="M280.4,69c-0.2-0.1-0.3-0.2-0.3-0.4l-0.6-4.3c0-0.3,0.2-0.5,0.4-0.6c0.3,0,0.5,0.2,0.6,0.4l0.6,4.3
							c0,0.3-0.2,0.5-0.4,0.6C280.6,69.1,280.5,69,280.4,69z"/>
						<path class="st7" d="M289.2,88c-0.2-0.1-0.4-0.4-0.3-0.6l1.5-4.1c0.1-0.3,0.4-0.4,0.7-0.3c0.3,0.1,0.4,0.4,0.3,0.7l-1.5,4.1
							C289.8,87.9,289.5,88.1,289.2,88C289.2,88,289.2,88,289.2,88z"/>
						<path class="st7" d="M263.8,75.3c-0.1-0.1-0.2-0.1-0.3-0.3c-0.1-0.3,0-0.6,0.3-0.7l4-1.7c0.3-0.1,0.6,0,0.7,0.3
							c0.1,0.3,0,0.6-0.3,0.7l-4,1.7C264,75.3,263.9,75.3,263.8,75.3z"/>
						<path class="st7" d="M272.7,78.4c-0.2-0.1-0.4-0.4-0.3-0.6c0.1-0.3,0.4-0.4,0.7-0.3l4.1,1.5c0.3,0.1,0.4,0.4,0.3,0.7
							c-0.1,0.3-0.4,0.4-0.7,0.3L272.7,78.4C272.7,78.4,272.7,78.4,272.7,78.4z"/>
						<path class="st7" d="M257.6,74c-0.2-0.1-0.3-0.4-0.3-0.6l1.1-4.2c0.1-0.3,0.4-0.4,0.6-0.4c0.3,0.1,0.4,0.4,0.4,0.6l-1.1,4.2
							C258.3,74,258,74.2,257.6,74C257.7,74.1,257.7,74.1,257.6,74z"/>
						<g>
							<path class="st7" d="M275.2,58c-0.2-0.1-0.3-0.2-0.3-0.4l-0.4-3.1c0-0.3,0.2-0.5,0.4-0.6c0.3,0,0.5,0.2,0.6,0.4l0.4,3.1
								c0,0.3-0.2,0.5-0.4,0.6C275.4,58.1,275.3,58,275.2,58z"/>
						</g>
						<g>
							<path class="st7" d="M284.9,63.1c-0.1,0-0.1-0.1-0.2-0.2c-0.2-0.2-0.1-0.6,0.1-0.7l2.6-1.8c0.2-0.2,0.6-0.1,0.7,0.1
								c0.2,0.2,0.1,0.6-0.1,0.7l-2.6,1.8C285.3,63.1,285.1,63.2,284.9,63.1z"/>
						</g>
						<g>
							<path class="st7" d="M281.8,61.8c-0.1-0.1-0.2-0.2-0.3-0.3l-1.1-3c-0.1-0.3,0-0.6,0.3-0.7c0.3-0.1,0.6,0,0.7,0.3l1.1,3
								c0.1,0.3,0,0.6-0.3,0.7C282,61.9,281.9,61.9,281.8,61.8z"/>
						</g>
						<g>
							<path class="st7" d="M274.8,52.5c-0.1,0-0.2-0.1-0.2-0.2c-0.1-0.2-0.1-0.6,0.2-0.7l2.8-1.6c0.2-0.1,0.6-0.1,0.7,0.2
								c0.1,0.2,0.1,0.6-0.2,0.7l-2.8,1.6C275.2,52.6,275,52.6,274.8,52.5z"/>
						</g>
						<g>
							<path class="st7" d="M286.9,80.5C286.9,80.5,286.9,80.5,286.9,80.5l-2.9-1.4c-0.3-0.1-0.4-0.4-0.2-0.7
								c0.1-0.3,0.4-0.4,0.7-0.2c0,0,0,0,0,0l2.8,1.4c0.3,0.1,0.4,0.4,0.2,0.7C287.5,80.6,287.2,80.7,286.9,80.5z"/>
						</g>
						<g>
							<path class="st7" d="M277.9,54.9c-0.3-0.1-0.4-0.4-0.2-0.7c0.1-0.3,0.4-0.4,0.7-0.3l2.9,1.3c0.3,0.1,0.4,0.4,0.3,0.7
								c-0.1,0.3-0.4,0.4-0.7,0.3L277.9,54.9C277.9,54.9,277.9,54.9,277.9,54.9z"/>
						</g>
						<g>
							<path class="st7" d="M284.8,76.9c-0.1,0-0.1-0.1-0.2-0.2c-0.2-0.2-0.1-0.6,0.1-0.7l2.6-1.8c0.2-0.2,0.6-0.1,0.7,0.1
								c0.2,0.2,0.1,0.6-0.1,0.7l-2.6,1.8C285.2,76.9,285,76.9,284.8,76.9z"/>
						</g>
						<g>
							<path class="st7" d="M275.9,62.9c-0.2-0.1-0.3-0.3-0.3-0.5l0-3.2c0-0.3,0.2-0.5,0.5-0.5c0.3,0,0.5,0.2,0.5,0.5l0,3.2
								c0,0.3-0.2,0.5-0.5,0.5C276,63,276,63,275.9,62.9z"/>
						</g>
						<g>
							<path class="st7" d="M278.9,78.2C278.9,78.2,278.9,78.2,278.9,78.2c-0.3-0.2-0.4-0.5-0.2-0.8l1.8-2.6
								c0.2-0.2,0.5-0.3,0.7-0.1c0.2,0.2,0.3,0.5,0.1,0.7l-1.8,2.6C279.4,78.3,279.1,78.3,278.9,78.2z"/>
						</g>
						<g>
							<path class="st7" d="M266.7,58.5C266.7,58.5,266.7,58.5,266.7,58.5l-2.8-1.6c-0.2-0.1-0.3-0.5-0.2-0.7
								c0.1-0.2,0.5-0.3,0.7-0.2l2.7,1.6c0.2,0.1,0.3,0.5,0.2,0.7C267.3,58.5,267,58.6,266.7,58.5z"/>
						</g>
						<g>
							<path class="st7" d="M261.1,66.1C261.1,66.1,261,66.1,261.1,66.1c-0.3-0.2-0.4-0.6-0.2-0.8l1.3-1.7c0.2-0.2,0.5-0.3,0.7-0.1
								c0.2,0.2,0.3,0.5,0.1,0.7l-1.3,1.7C261.6,66.2,261.3,66.2,261.1,66.1z"/>
						</g>
						<g>
							<path class="st7" d="M289.9,80.1C289.8,80.1,289.8,80,289.9,80.1c-0.3-0.2-0.4-0.6-0.2-0.8l1.3-1.7c0.2-0.2,0.5-0.3,0.7-0.1
								c0.2,0.2,0.3,0.5,0.1,0.7l-1.3,1.7C290.3,80.1,290.1,80.2,289.9,80.1z"/>
						</g>
						<g>
							<path class="st7" d="M259.2,63.1c-0.1-0.1-0.2-0.2-0.3-0.3c-0.1-0.3,0.1-0.6,0.4-0.6l2.1-0.5c0.3-0.1,0.6,0.1,0.6,0.4
								c0.1,0.3-0.1,0.6-0.4,0.6l-2.1,0.5C259.4,63.2,259.3,63.2,259.2,63.1z"/>
						</g>
						<g>
							<path class="st7" d="M281.9,51.2C281.9,51.2,281.9,51.2,281.9,51.2l-1.9-0.9c-0.3-0.1-0.4-0.4-0.2-0.7
								c0.1-0.3,0.4-0.4,0.7-0.2c0,0,0,0,0,0l1.9,0.9c0.3,0.1,0.4,0.4,0.2,0.7C282.4,51.2,282.1,51.3,281.9,51.2z"/>
						</g>
						<g>
							<path class="st7" d="M288.2,67.3c-0.1,0-0.2-0.1-0.2-0.2c-0.1-0.3,0-0.6,0.2-0.7l1.9-0.9c0.3-0.1,0.6,0,0.7,0.2
								c0.1,0.3,0,0.6-0.2,0.7l-1.9,0.9C288.5,67.3,288.3,67.3,288.2,67.3z"/>
						</g>
						<g>
							<path class="st7" d="M285.2,58.6c-0.2-0.1-0.3-0.3-0.3-0.5l0.2-2.1c0-0.3,0.3-0.5,0.6-0.5c0.3,0,0.5,0.3,0.5,0.6l-0.2,2.1
								c0,0.3-0.3,0.5-0.6,0.5C285.3,58.6,285.2,58.6,285.2,58.6z"/>
						</g>
						<g>
							<path class="st7" d="M274.4,71.6c-0.2-0.1-0.3-0.3-0.3-0.5l0.2-2.1c0-0.3,0.3-0.5,0.6-0.5c0.3,0,0.5,0.3,0.5,0.6l-0.2,2.1
								c0,0.3-0.3,0.5-0.6,0.5C274.5,71.7,274.5,71.7,274.4,71.6z"/>
						</g>
						<g>
							<path class="st7" d="M258.9,68.2c-0.1-0.1-0.3-0.2-0.3-0.4c0-0.3,0.1-0.5,0.4-0.6l2.1-0.3c0.3,0,0.5,0.1,0.6,0.4
								c0,0.3-0.1,0.5-0.4,0.6l-2.1,0.3C259,68.2,258.9,68.2,258.9,68.2z"/>
						</g>
						<g>
							<path class="st7" d="M269.8,69.8c-0.2-0.1-0.3-0.3-0.3-0.5l0.1-2.1c0-0.3,0.3-0.5,0.5-0.5c0.3,0,0.5,0.3,0.5,0.5l-0.1,2.1
								c0,0.3-0.3,0.5-0.5,0.5C269.9,69.8,269.9,69.8,269.8,69.8z"/>
						</g>
						<g>
							<path class="st7" d="M270.1,62.8c-0.1-0.1-0.2-0.2-0.3-0.3c-0.1-0.3,0.1-0.6,0.4-0.6l2.1-0.6c0.3-0.1,0.6,0.1,0.6,0.4
								c0.1,0.3-0.1,0.6-0.4,0.6l-2.1,0.6C270.3,62.9,270.2,62.9,270.1,62.8z"/>
						</g>
						<g>
							<path class="st7" d="M265.4,70.8c-0.1-0.1-0.2-0.2-0.3-0.3c-0.1-0.3,0.1-0.6,0.4-0.6l2.1-0.6c0.3-0.1,0.6,0.1,0.6,0.4
								c0.1,0.3-0.1,0.6-0.4,0.6l-2.1,0.6C265.6,70.9,265.5,70.9,265.4,70.8z"/>
						</g>
						<g>
							<path class="st7" d="M276.9,82c-0.1-0.1-0.2-0.2-0.3-0.3c-0.1-0.3,0-0.6,0.3-0.7l2-0.8c0.3-0.1,0.6,0,0.7,0.3
								c0.1,0.3,0,0.6-0.3,0.7l-2,0.8C277.2,82,277.1,82,276.9,82z"/>
						</g>
						<g>
							<path class="st7" d="M261,75c-0.2-0.1-0.3-0.4-0.3-0.6l0.6-2c0.1-0.3,0.4-0.4,0.6-0.3c0.3,0.1,0.4,0.4,0.3,0.6l-0.6,2
								C261.6,74.9,261.3,75.1,261,75C261,75,261,75,261,75z"/>
						</g>
						<g>
							<path class="st7" d="M286.9,85.6c-0.2-0.1-0.3-0.3-0.3-0.6l0.4-2.1c0.1-0.3,0.3-0.5,0.6-0.4c0.3,0.1,0.5,0.3,0.4,0.6
								l-0.4,2.1c-0.1,0.3-0.3,0.5-0.6,0.4C286.9,85.6,286.9,85.6,286.9,85.6z"/>
						</g>
						<g>
							<path class="st7" d="M286.6,71.8c-0.1-0.1-0.2-0.2-0.3-0.3c-0.1-0.3,0.1-0.6,0.4-0.6l2-0.6c0.3-0.1,0.6,0.1,0.6,0.4
								c0.1,0.3-0.1,0.6-0.4,0.6l-2,0.6C286.8,71.9,286.7,71.9,286.6,71.8z"/>
						</g>
					</g>
				</g>
			</g>
		</g>
		<g class="st1">
			<polygon class="st3" points="46.8,343.7 48.2,336.9 89.8,372.8 88.5,379.6 			"/>
			<g>
				<polygon class="st9" points="35.6,344.8 47.6,405.3 94.4,365.1 				"/>
				<g>
					<defs>
						<polygon id="SVGID_43_" points="37.3,355.9 45.1,394.5 74.8,368.7 						"/>
					</defs>
					<clipPath id="SVGID_7_">
						<use xlink:href="#SVGID_43_"  style="overflow:visible;"/>
					</clipPath>
					<g class="st18">
						<path class="st7" d="M47.6,386.9c-0.3-0.1-0.5,0.1-0.6,0.3l-1.6,4.1c-0.1,0.3,0,0.6,0.3,0.7c0.3,0.1,0.6,0,0.7-0.3l1.6-4.1
							C48,387.3,47.9,387,47.6,386.9C47.6,386.9,47.6,386.9,47.6,386.9z"/>
						<path class="st7" d="M51.2,389c-0.1,0-0.3,0-0.4,0c-0.3,0.1-0.4,0.4-0.2,0.7l1.9,3.9c0.1,0.3,0.4,0.4,0.7,0.2
							c0.3-0.1,0.4-0.4,0.2-0.7l-1.9-3.9C51.5,389.2,51.3,389.1,51.2,389z"/>
						<path class="st7" d="M42.3,374.4c-0.1,0-0.2,0-0.3,0l-4.1,1.6c-0.3,0.1-0.4,0.4-0.3,0.7c0.1,0.3,0.4,0.4,0.7,0.3l4.1-1.6
							c0.3-0.1,0.4-0.4,0.3-0.7C42.6,374.5,42.4,374.4,42.3,374.4z"/>
						<path class="st7" d="M59.4,375.8c-0.1,0-0.3,0-0.4,0.1l-3.7,2.3c-0.2,0.1-0.3,0.5-0.2,0.7c0.1,0.2,0.5,0.3,0.7,0.2l3.7-2.3
							c0.2-0.1,0.3-0.5,0.2-0.7C59.7,375.9,59.6,375.8,59.4,375.8z"/>
						<path class="st7" d="M69.2,376.4c-0.1,0-0.2,0-0.4,0l-4,1.9c-0.3,0.1-0.4,0.4-0.2,0.7c0.1,0.3,0.4,0.4,0.7,0.2l4-1.9
							c0.3-0.1,0.4-0.4,0.2-0.7C69.5,376.5,69.4,376.4,69.2,376.4z"/>
						<path class="st7" d="M48.7,390.6c-0.2-0.1-0.5,0-0.6,0.2l-2.2,3.8c-0.1,0.2-0.1,0.6,0.2,0.7c0.2,0.1,0.6,0.1,0.7-0.2l2.2-3.8
							c0.1-0.2,0.1-0.6-0.2-0.7C48.8,390.6,48.8,390.6,48.7,390.6z"/>
						<path class="st7" d="M76.7,369c-0.1,0-0.3,0-0.4,0l-3.8,2.1c-0.2,0.1-0.3,0.4-0.2,0.7c0.1,0.2,0.4,0.3,0.7,0.2l3.8-2.1
							c0.2-0.1,0.3-0.4,0.2-0.7C76.9,369.1,76.8,369,76.7,369z"/>
						<path class="st7" d="M63.8,364c-0.2-0.1-0.5,0-0.6,0.3c-0.1,0.3,0,0.6,0.2,0.7l3.9,2c0.3,0.1,0.6,0,0.7-0.2
							c0.1-0.3,0-0.6-0.2-0.7L63.8,364C63.9,364,63.8,364,63.8,364z"/>
						<path class="st7" d="M59.6,371.1C59.5,371.1,59.5,371.1,59.6,371.1l-4.3-0.9c-0.3-0.1-0.5,0.1-0.6,0.4
							c-0.1,0.3,0.1,0.5,0.4,0.6l4.3,0.9c0.3,0.1,0.5-0.1,0.6-0.4C60,371.5,59.8,371.2,59.6,371.1z"/>
						<path class="st7" d="M56.7,362.4C56.6,362.4,56.6,362.4,56.7,362.4c-0.3-0.1-0.6,0.1-0.7,0.4l-0.7,4.3c0,0.3,0.1,0.5,0.4,0.6
							c0.3,0,0.5-0.1,0.6-0.4L57,363C57.1,362.7,56.9,362.5,56.7,362.4z"/>
						<path class="st7" d="M50.8,361.1C50.8,361.1,50.8,361.1,50.8,361.1c-0.4-0.1-0.6,0.1-0.7,0.4l-0.5,4.3c0,0.3,0.2,0.5,0.4,0.6
							c0.3,0,0.5-0.2,0.6-0.4l0.5-4.3C51.2,361.4,51.1,361.2,50.8,361.1z"/>
						<path class="st7" d="M47.5,369c-0.2-0.1-0.5,0-0.6,0.2c-0.1,0.2-0.1,0.6,0.2,0.7l3.8,2.3c0.2,0.1,0.6,0.1,0.7-0.2
							c0.1-0.2,0.1-0.6-0.2-0.7l-3.8-2.3C47.6,369.1,47.6,369.1,47.5,369z"/>
						<path class="st7" d="M43.8,358.4c-0.2-0.1-0.4,0-0.6,0.2l-2.6,3.5c-0.2,0.2-0.1,0.5,0.1,0.7c0.2,0.2,0.5,0.1,0.7-0.1l2.6-3.5
							c0.2-0.2,0.1-0.5-0.1-0.7C43.9,358.5,43.9,358.5,43.8,358.4z"/>
						<path class="st7" d="M44.3,365.3c-0.1,0-0.3,0-0.4,0.1l-3.6,2.6c-0.2,0.2-0.3,0.5-0.1,0.7c0.2,0.2,0.5,0.3,0.7,0.1l3.6-2.6
							c0.2-0.2,0.3-0.5,0.1-0.7C44.5,365.4,44.4,365.4,44.3,365.3z"/>
						<path class="st7" d="M55.8,372.6c-0.2,0-0.3,0-0.5,0.1l-3.3,2.8c-0.2,0.2-0.2,0.5-0.1,0.7c0.2,0.2,0.5,0.2,0.7,0.1l3.3-2.8
							c0.2-0.2,0.2-0.5,0.1-0.7C56,372.7,55.9,372.6,55.8,372.6z"/>
						<path class="st7" d="M75.1,364.4c-0.3-0.1-0.5,0.1-0.6,0.3l-1.6,4.1c-0.1,0.3,0,0.6,0.3,0.7c0.3,0.1,0.6,0,0.7-0.3l1.6-4.1
							C75.5,364.8,75.4,364.5,75.1,364.4C75.1,364.4,75.1,364.4,75.1,364.4z"/>
						<path class="st7" d="M47.7,356.8c-0.1,0-0.2,0-0.4,0c-0.3,0.1-0.4,0.4-0.2,0.7l1.9,4c0.1,0.3,0.4,0.4,0.7,0.2
							c0.3-0.1,0.4-0.4,0.2-0.7l-1.9-4C47.9,357,47.8,356.9,47.7,356.8z"/>
						<path class="st7" d="M56.4,360.5c-0.3-0.1-0.5,0.1-0.6,0.3c-0.1,0.3,0,0.6,0.3,0.7l4.1,1.6c0.3,0.1,0.6,0,0.7-0.3
							c0.1-0.3,0-0.6-0.3-0.7L56.4,360.5C56.4,360.5,56.4,360.5,56.4,360.5z"/>
						<path class="st7" d="M42.3,353.6c-0.2-0.1-0.5,0-0.6,0.3l-2,3.9c-0.1,0.3,0,0.6,0.2,0.7c0.3,0.1,0.6,0,0.7-0.2l2-3.9
							C42.7,354.1,42.6,353.8,42.3,353.6C42.3,353.7,42.3,353.7,42.3,353.6z"/>
						<g>
							<path class="st7" d="M44.6,377.3c-0.2,0-0.3,0-0.5,0.1l-2.4,2.1c-0.2,0.2-0.2,0.5-0.1,0.7c0.2,0.2,0.5,0.2,0.7,0.1l2.4-2.1
								c0.2-0.2,0.2-0.5,0.1-0.7C44.8,377.4,44.7,377.3,44.6,377.3z"/>
						</g>
						<g>
							<path class="st7" d="M55.2,380c-0.1,0-0.2,0-0.3,0c-0.3,0.1-0.4,0.3-0.4,0.6l0.7,3.1c0.1,0.3,0.3,0.4,0.6,0.4
								c0.3-0.1,0.4-0.3,0.4-0.6l-0.7-3.1C55.5,380.2,55.4,380.1,55.2,380z"/>
						</g>
						<g>
							<path class="st7" d="M52,378.8c-0.1,0-0.3,0-0.4,0l-2.8,1.5c-0.3,0.1-0.3,0.4-0.2,0.7c0.1,0.3,0.4,0.3,0.7,0.2l2.8-1.5
								c0.3-0.1,0.3-0.4,0.2-0.7C52.3,379,52.2,378.9,52,378.8z"/>
						</g>
						<g>
							<path class="st7" d="M40.7,381.1c-0.1,0-0.2,0-0.3,0c-0.3,0.1-0.4,0.4-0.3,0.6l1,3c0.1,0.3,0.4,0.4,0.6,0.3
								c0.3-0.1,0.4-0.4,0.3-0.6l-1-3C41,381.3,40.8,381.2,40.7,381.1z"/>
						</g>
						<g>
							<path class="st7" d="M68.4,368.4C68.4,368.4,68.4,368.4,68.4,368.4l-3.1-0.9c-0.3-0.1-0.6,0.1-0.6,0.4
								c-0.1,0.3,0.1,0.5,0.3,0.6c0,0,0,0,0,0l3.1,0.9c0.3,0.1,0.6-0.1,0.6-0.4C68.8,368.8,68.7,368.5,68.4,368.4z"/>
						</g>
						<g>
							<path class="st7" d="M44.6,381.5c-0.3-0.1-0.5,0.1-0.6,0.3c-0.1,0.3,0.1,0.6,0.3,0.6l3,1c0.3,0.1,0.6-0.1,0.6-0.3
								c0.1-0.3-0.1-0.6-0.3-0.6L44.6,381.5C44.6,381.5,44.6,381.5,44.6,381.5z"/>
						</g>
						<g>
							<path class="st7" d="M64.4,369.7c-0.1,0-0.2,0-0.3,0c-0.3,0.1-0.4,0.3-0.4,0.6l0.7,3.1c0.1,0.3,0.3,0.4,0.6,0.4
								c0.3-0.1,0.4-0.3,0.4-0.6l-0.7-3.1C64.7,369.9,64.5,369.8,64.4,369.7z"/>
						</g>
						<g>
							<path class="st7" d="M48.4,374.1c-0.2-0.1-0.4,0-0.5,0.1l-2.1,2.3c-0.2,0.2-0.2,0.5,0,0.7c0.2,0.2,0.5,0.2,0.7,0l2.1-2.3
								c0.2-0.2,0.2-0.5,0-0.7C48.5,374.2,48.5,374.1,48.4,374.1z"/>
						</g>
						<g>
							<path class="st7" d="M60.9,364.8C60.9,364.8,60.8,364.7,60.9,364.8c-0.4-0.1-0.6,0.1-0.7,0.4l-0.4,3.1c0,0.3,0.2,0.5,0.4,0.6
								c0.3,0,0.5-0.2,0.6-0.4l0.4-3.1C61.3,365.1,61.1,364.8,60.9,364.8z"/>
						</g>
						<g>
							<path class="st7" d="M38.6,371.3C38.6,371.3,38.6,371.3,38.6,371.3l-3.1-0.7c-0.3-0.1-0.5,0.1-0.6,0.4
								c-0.1,0.3,0.1,0.5,0.4,0.6l3.1,0.7c0.3,0.1,0.5-0.1,0.6-0.4C39,371.6,38.9,371.4,38.6,371.3z"/>
						</g>
						<g>
							<path class="st7" d="M39.5,361.9c0,0-0.1,0-0.1,0c-0.3,0-0.5,0.2-0.5,0.5l-0.1,2.1c0,0.3,0.2,0.5,0.5,0.5
								c0.3,0,0.5-0.2,0.5-0.5l0.1-2.1C39.9,362.2,39.8,361.9,39.5,361.9z"/>
						</g>
						<g>
							<path class="st7" d="M70.3,370.7c0,0-0.1,0-0.1,0c-0.3,0-0.5,0.2-0.5,0.5l-0.1,2.1c0,0.3,0.2,0.5,0.5,0.5
								c0.3,0,0.5-0.2,0.5-0.5l0.1-2.1C70.7,371,70.5,370.8,70.3,370.7z"/>
						</g>
						<g>
							<path class="st7" d="M36.1,362.8c-0.1,0-0.3,0-0.4,0.1c-0.2,0.2-0.3,0.5-0.1,0.7l1.2,1.7c0.2,0.2,0.5,0.3,0.7,0.1
								c0.2-0.2,0.3-0.5,0.1-0.7l-1.2-1.7C36.3,362.9,36.2,362.8,36.1,362.8z"/>
						</g>
						<g>
							<path class="st7" d="M45,386.9C45,386.9,45,386.9,45,386.9l-2-0.6c-0.3-0.1-0.6,0.1-0.6,0.3c-0.1,0.3,0.1,0.6,0.3,0.6
								c0,0,0,0,0,0l2,0.6c0.3,0.1,0.6-0.1,0.6-0.3C45.4,387.2,45.3,386.9,45,386.9z"/>
						</g>
						<g>
							<path class="st7" d="M60.4,379.1c-0.1,0-0.2,0-0.3,0c-0.3,0.1-0.4,0.4-0.3,0.7l0.8,2c0.1,0.3,0.4,0.4,0.7,0.3
								c0.3-0.1,0.4-0.4,0.3-0.7l-0.8-2C60.7,379.3,60.6,379.2,60.4,379.1z"/>
						</g>
						<g>
							<path class="st7" d="M52.4,383.6c-0.2-0.1-0.4,0-0.6,0.2l-1.2,1.7c-0.2,0.2-0.1,0.5,0.1,0.7c0.2,0.2,0.5,0.1,0.7-0.1l1.2-1.7
								c0.2-0.2,0.1-0.5-0.1-0.7C52.5,383.6,52.5,383.6,52.4,383.6z"/>
						</g>
						<g>
							<path class="st7" d="M53.1,366.7c-0.2-0.1-0.4,0-0.6,0.2l-1.2,1.7c-0.2,0.2-0.1,0.5,0.1,0.7c0.2,0.2,0.5,0.1,0.7-0.1l1.2-1.7
								c0.2-0.2,0.1-0.5-0.1-0.7C53.2,366.7,53.2,366.7,53.1,366.7z"/>
						</g>
						<g>
							<path class="st7" d="M39.2,358.8c-0.2,0-0.3,0-0.5,0.1c-0.2,0.2-0.3,0.5-0.1,0.7l1.3,1.7c0.2,0.2,0.5,0.3,0.7,0.1
								c0.2-0.2,0.3-0.5,0.1-0.7l-1.3-1.7C39.4,358.9,39.3,358.9,39.2,358.8z"/>
						</g>
						<g>
							<path class="st7" d="M48.5,364.9c-0.2-0.1-0.4,0-0.5,0.2l-1.3,1.7c-0.2,0.2-0.1,0.5,0.1,0.7c0.2,0.2,0.5,0.1,0.7-0.1l1.3-1.7
								c0.2-0.2,0.1-0.5-0.1-0.7C48.6,365,48.5,365,48.5,364.9z"/>
						</g>
						<g>
							<path class="st7" d="M44,370.3c-0.1,0-0.3,0-0.4,0.1c-0.2,0.2-0.3,0.5-0.2,0.7l1.1,1.8c0.2,0.2,0.5,0.3,0.7,0.2
								c0.2-0.2,0.3-0.5,0.2-0.7l-1.1-1.8C44.2,370.4,44.1,370.3,44,370.3z"/>
						</g>
						<g>
							<path class="st7" d="M45.9,361.2c-0.1,0-0.3,0-0.4,0.1c-0.2,0.2-0.3,0.5-0.2,0.7l1.1,1.8c0.2,0.2,0.5,0.3,0.7,0.2
								c0.2-0.2,0.3-0.5,0.2-0.7l-1.1-1.8C46.1,361.3,46,361.2,45.9,361.2z"/>
						</g>
						<g>
							<path class="st7" d="M61.9,360.7c-0.1,0-0.3,0-0.4,0c-0.3,0.1-0.4,0.4-0.2,0.7l1,1.9c0.1,0.3,0.4,0.4,0.7,0.2
								c0.3-0.1,0.4-0.4,0.2-0.7l-1-1.9C62.2,360.8,62.1,360.7,61.9,360.7z"/>
						</g>
						<g>
							<path class="st7" d="M45.4,355.2c-0.2-0.1-0.5,0-0.6,0.3l-0.9,1.9c-0.1,0.3,0,0.6,0.3,0.7c0.3,0.1,0.6,0,0.7-0.3l0.9-1.9
								C45.8,355.6,45.7,355.3,45.4,355.2C45.4,355.2,45.4,355.2,45.4,355.2z"/>
						</g>
						<g>
							<path class="st7" d="M71.7,364.6c-0.2-0.1-0.5,0-0.6,0.2l-1.1,1.8c-0.1,0.2-0.1,0.6,0.2,0.7c0.2,0.1,0.6,0.1,0.7-0.2l1.1-1.8
								c0.1-0.2,0.1-0.6-0.2-0.7C71.8,364.7,71.7,364.6,71.7,364.6z"/>
						</g>
						<g>
							<path class="st7" d="M62.3,374.7c-0.1,0-0.3,0-0.4,0.1c-0.2,0.1-0.3,0.5-0.2,0.7l1.1,1.8c0.1,0.2,0.5,0.3,0.7,0.2
								c0.2-0.1,0.3-0.5,0.2-0.7l-1.1-1.8C62.5,374.8,62.4,374.7,62.3,374.7z"/>
						</g>
					</g>
				</g>
			</g>
		</g>
		<g class="st1">
			<g>
				<polygon class="st9" points="35.6,-55.2 47.6,5.3 94.4,-34.9 				"/>
			</g>
		</g>
		<g class="st1">
			<path class="st2" d="M8.5,266.9c3.4,1.9,3.4,5.1,0,7c-3.4,1.9-8.8,1.9-12.2,0c-3.4-1.9-3.4-5.1,0-7C-0.3,265,5.1,265,8.5,266.9z"
				/>
			<polygon class="st4" points="0.8,271.6 3.9,269.8 3.9,208.1 0.8,209.9 			"/>
			<path class="st2" d="M8.5,252.8c3.4,1.9,3.4,5.1,0,7c-3.4,1.9-8.8,1.9-12.2,0c-3.4-1.9-3.4-5.1,0-7
				C-0.3,250.9,5.1,250.9,8.5,252.8z"/>
			<polygon class="st4" points="3.9,208.1 3.9,255.4 0.8,257.2 0.8,209.9 			"/>
		</g>
		<g class="st1">
			<path class="st2" d="M373,132.4c3.4,1.9,3.4,5.1,0,7c-3.4,1.9-8.8,1.9-12.2,0c-3.4-1.9-3.4-5.1,0-7
				C364.2,130.5,369.6,130.5,373,132.4z"/>
			<polygon class="st3" points="365.3,137.1 368.4,135.3 368.4,73.6 365.3,75.4 			"/>
			<path class="st2" d="M373,118.3c3.4,1.9,3.4,5.1,0,7c-3.4,1.9-8.8,1.9-12.2,0c-3.4-1.9-3.4-5.1,0-7
				C364.2,116.4,369.6,116.4,373,118.3z"/>
			<polygon class="st3" points="368.4,73.6 368.4,120.9 365.3,122.7 365.3,75.4 			"/>
		</g>
		<g class="st1">
			<path class="st21" d="M69.9,292.5c-0.3,0-0.6-0.1-0.8-0.3l-5.2-5.2l-5.1,5.1c-0.5,0.5-1.2,0.5-1.6,0c-0.5-0.5-0.5-1.2,0-1.6
				l5.9-5.9c0.5-0.5,1.2-0.5,1.6,0l6.1,6.1c0.5,0.5,0.5,1.2,0,1.6C70.5,292.4,70.2,292.5,69.9,292.5z"/>
			<path class="st21" d="M57.9,292.5c-0.3,0-0.6-0.1-0.8-0.3l-5.3-5.3l-5.1,5.1c-0.5,0.5-1.2,0.5-1.7,0c-0.5-0.5-0.5-1.2,0-1.7
				l5.9-5.9c0.5-0.5,1.2-0.5,1.7,0l6.1,6.1c0.5,0.5,0.5,1.2,0,1.7C58.5,292.4,58.2,292.5,57.9,292.5z"/>
		</g>
		<g class="st1">
			<path class="st21" d="M8.4,74.7c-0.3,0-0.6-0.1-0.8-0.3l-5.3-5.2l-5.1,5.1c-0.5,0.5-1.2,0.5-1.7,0c-0.5-0.5-0.5-1.2,0-1.7
				l5.9-5.9c0.5-0.5,1.2-0.5,1.6,0l6.1,6.1c0.5,0.5,0.5,1.2,0,1.6C9,74.6,8.7,74.7,8.4,74.7z"/>
		</g>
		<g class="st1">
			<polygon class="st3" points="413.2,166 393.9,124.4 466.1,135.5 			"/>
		</g>
		<g class="st1">
			<path class="st2" d="M408.5,266.9c3.4,1.9,3.4,5.1,0,7c-3.4,1.9-8.8,1.9-12.2,0c-3.4-1.9-3.4-5.1,0-7
				C399.7,265,405.1,265,408.5,266.9z"/>
			<path class="st2" d="M408.5,252.8c3.4,1.9,3.4,5.1,0,7c-3.4,1.9-8.8,1.9-12.2,0c-3.4-1.9-3.4-5.1,0-7
				C399.7,250.9,405.1,250.9,408.5,252.8z"/>
		</g>
		<g class="st1">
			<path class="st21" d="M408.4,74.7c-0.3,0-0.6-0.1-0.8-0.3l-5.3-5.2l-5.1,5.1c-0.5,0.5-1.2,0.5-1.6,0c-0.5-0.5-0.5-1.2,0-1.6
				l5.9-5.9c0.5-0.5,1.2-0.5,1.6,0l6.1,6.1c0.5,0.5,0.5,1.2,0,1.6C409,74.6,408.7,74.7,408.4,74.7z"/>
			<path class="st21" d="M396.4,74.7c-0.3,0-0.6-0.1-0.8-0.3l-5.3-5.3l-5.1,5.1c-0.5,0.5-1.2,0.5-1.6,0c-0.5-0.5-0.5-1.2,0-1.6
				l5.9-5.9c0.5-0.5,1.2-0.5,1.6,0l6.1,6.1c0.5,0.5,0.5,1.2,0,1.7C397,74.6,396.7,74.7,396.4,74.7z"/>
		</g>
		<g class="st1">
			<g>
				<polygon class="st3" points="150.8,252.5 150.8,263.9 73.5,219.2 73.5,207.8 				"/>
				<g>
					<g>
						<defs>
							<polygon id="SVGID_41_" points="73.5,244.6 118.1,202 133.2,261.8 							"/>
						</defs>
						<use xlink:href="#SVGID_41_"  style="overflow:visible;fill:#ED8D93;"/>
						<clipPath id="SVGID_8_">
							<use xlink:href="#SVGID_41_"  style="overflow:visible;"/>
						</clipPath>
						<g class="st19">
							<path class="st7" d="M114.4,213.9c-0.4-0.1-0.6-0.5-0.5-0.9l1.6-6.7c0.1-0.4,0.5-0.7,1-0.6c0.4,0.1,0.7,0.5,0.6,1l-1.6,6.7
								C115.3,213.8,114.9,214.1,114.4,213.9C114.4,214,114.4,214,114.4,213.9z"/>
							<path class="st7" d="M121,214.4c-0.2-0.1-0.3-0.2-0.5-0.4c-0.2-0.4-0.1-0.9,0.3-1.1l6-3.3c0.4-0.2,0.9-0.1,1.1,0.3
								c0.2,0.4,0.1,0.9-0.3,1.1l-6,3.3C121.4,214.5,121.2,214.5,121,214.4z"/>
							<path class="st7" d="M96.4,225.3c-0.2-0.1-0.3-0.2-0.4-0.3l-3.8-5.7c-0.2-0.4-0.2-0.9,0.2-1.1c0.4-0.2,0.9-0.2,1.1,0.2
								l3.8,5.7c0.2,0.4,0.2,0.9-0.2,1.1C96.9,225.3,96.6,225.4,96.4,225.3z"/>
							<path class="st7" d="M119.7,238.8c-0.2-0.1-0.4-0.2-0.5-0.4l-2.8-6.3c-0.2-0.4,0-0.9,0.4-1.1c0.4-0.2,0.9,0,1.1,0.4l2.8,6.3
								c0.2,0.4,0,0.9-0.4,1.1C120.1,238.9,119.9,238.9,119.7,238.8z"/>
							<path class="st7" d="M132.9,246.9c-0.2-0.1-0.3-0.2-0.4-0.4l-3.4-6c-0.2-0.4-0.1-0.9,0.3-1.1c0.4-0.2,0.9-0.1,1.1,0.3l3.4,6
								c0.2,0.4,0.1,0.9-0.3,1.1C133.3,246.9,133.1,246.9,132.9,246.9z"/>
							<path class="st7" d="M119.2,210.2c-0.3-0.1-0.6-0.5-0.5-0.8l0.6-6.8c0-0.4,0.4-0.8,0.9-0.7c0.4,0,0.8,0.4,0.7,0.9l-0.6,6.8
								c0,0.4-0.4,0.8-0.9,0.7C119.4,210.2,119.3,210.2,119.2,210.2z"/>
							<path class="st7" d="M135.8,263.1c-0.2-0.1-0.4-0.2-0.5-0.4l-3.1-6.2c-0.2-0.4,0-0.9,0.4-1.1c0.4-0.2,0.9,0,1.1,0.4l3.1,6.2
								c0.2,0.4,0,0.9-0.4,1.1C136.2,263.1,136,263.1,135.8,263.1z"/>
							<path class="st7" d="M114.8,257.9c-0.4-0.1-0.6-0.5-0.5-0.9c0.1-0.4,0.5-0.7,0.9-0.7l6.8,1c0.4,0.1,0.7,0.5,0.7,0.9
								c-0.1,0.4-0.5,0.7-0.9,0.7l-6.8-1C114.9,257.9,114.9,257.9,114.8,257.9z"/>
							<path class="st7" d="M115.7,244.9C115.7,244.9,115.7,244.9,115.7,244.9l-6.4-2.7c-0.4-0.2-0.6-0.6-0.4-1.1
								c0.2-0.4,0.6-0.6,1.1-0.4l6.3,2.7c0.4,0.2,0.6,0.6,0.4,1.1C116.5,244.9,116.1,245.1,115.7,244.9z"/>
							<path class="st7" d="M104.2,253.6C104.1,253.6,104.1,253.5,104.2,253.6c-0.5-0.2-0.7-0.7-0.5-1.1l2.9-6.2
								c0.2-0.4,0.7-0.6,1.1-0.4c0.4,0.2,0.6,0.7,0.4,1.1l-2.9,6.2C105,253.5,104.5,253.7,104.2,253.6z"/>
							<path class="st7" d="M95.5,250c0,0-0.1,0-0.1-0.1c-0.4-0.2-0.5-0.7-0.3-1.1l3.2-6.1c0.2-0.4,0.7-0.5,1.1-0.3
								c0.4,0.2,0.5,0.7,0.3,1.1l-3.2,6.1C96.3,249.9,95.9,250.1,95.5,250z"/>
							<path class="st7" d="M98.3,236.9c-0.3-0.1-0.6-0.4-0.5-0.8c0-0.4,0.4-0.8,0.9-0.7l6.9,0.5c0.4,0,0.8,0.4,0.7,0.9
								c0,0.4-0.4,0.8-0.9,0.7l-6.9-0.5C98.5,236.9,98.4,236.9,98.3,236.9z"/>
							<path class="st7" d="M84.1,247.2c-0.3-0.1-0.5-0.4-0.6-0.7l-0.1-6.9c0-0.4,0.3-0.8,0.8-0.8c0.4,0,0.8,0.3,0.8,0.8l0.1,6.9
								c0,0.4-0.3,0.8-0.8,0.8C84.2,247.2,84.1,247.2,84.1,247.2z"/>
							<path class="st7" d="M90.9,238.8c-0.2-0.1-0.4-0.3-0.5-0.5l-2.3-6.5c-0.1-0.4,0.1-0.9,0.5-1c0.4-0.1,0.9,0.1,1,0.5l2.3,6.5
								c0.1,0.4-0.1,0.9-0.5,1C91.2,238.8,91.1,238.8,90.9,238.8z"/>
							<path class="st7" d="M112.2,239.7c-0.2-0.1-0.5-0.3-0.5-0.6l-1.8-6.6c-0.1-0.4,0.1-0.9,0.6-1c0.4-0.1,0.9,0.1,1,0.6l1.8,6.6
								c0.1,0.4-0.1,0.9-0.6,1C112.5,239.7,112.3,239.7,112.2,239.7z"/>
							<path class="st7" d="M129.7,267.5c-0.4-0.1-0.6-0.5-0.5-0.9l1.6-6.7c0.1-0.4,0.5-0.7,1-0.6c0.4,0.1,0.7,0.5,0.6,1l-1.6,6.7
								C130.6,267.3,130.2,267.6,129.7,267.5C129.7,267.5,129.7,267.5,129.7,267.5z"/>
							<path class="st7" d="M87.6,252.7c-0.2-0.1-0.3-0.2-0.4-0.4c-0.2-0.4-0.1-0.9,0.3-1.1l5.9-3.5c0.4-0.2,0.9-0.1,1.1,0.3
								c0.2,0.4,0.1,0.9-0.3,1.1l-5.9,3.5C88,252.7,87.8,252.8,87.6,252.7z"/>
							<path class="st7" d="M102.1,255.9c-0.4-0.1-0.6-0.5-0.5-0.9c0.1-0.4,0.5-0.7,1-0.6l6.7,1.6c0.4,0.1,0.7,0.5,0.6,1
								c-0.1,0.4-0.5,0.7-1,0.6L102.1,255.9C102.1,255.9,102.1,255.9,102.1,255.9z"/>
							<path class="st7" d="M77.8,252c-0.4-0.1-0.6-0.5-0.5-0.9l0.9-6.8c0.1-0.4,0.5-0.7,0.9-0.7c0.4,0.1,0.7,0.5,0.7,0.9l-0.9,6.8
								c-0.1,0.4-0.5,0.7-0.9,0.7C77.9,252,77.8,252,77.8,252z"/>
							<g>
								<path class="st7" d="M102,223.6c-0.3-0.1-0.5-0.3-0.5-0.6l-1.3-4.8c-0.1-0.4,0.1-0.9,0.6-1c0.4-0.1,0.9,0.1,1,0.6l1.3,4.8
									c0.1,0.4-0.1,0.9-0.6,1C102.3,223.6,102.1,223.6,102,223.6z"/>
							</g>
							<g>
								<path class="st7" d="M118.1,229.6c-0.1,0-0.2-0.1-0.3-0.2c-0.3-0.3-0.3-0.8,0.1-1.1l3.7-3.3c0.3-0.3,0.8-0.3,1.1,0.1
									c0.3,0.3,0.3,0.8-0.1,1.1l-3.7,3.3C118.7,229.6,118.4,229.7,118.1,229.6z"/>
							</g>
							<g>
								<path class="st7" d="M112.9,228.3c-0.2-0.1-0.4-0.2-0.5-0.4l-2.3-4.4c-0.2-0.4-0.1-0.9,0.3-1.1c0.4-0.2,0.9-0.1,1.1,0.3
									l2.3,4.4c0.2,0.4,0.1,0.9-0.3,1.1C113.4,228.3,113.1,228.3,112.9,228.3z"/>
							</g>
							<g>
								<path class="st7" d="M100.4,215.1c-0.2,0-0.3-0.1-0.4-0.3c-0.3-0.4-0.2-0.9,0.2-1.1l4-3c0.4-0.3,0.9-0.2,1.1,0.2
									c0.3,0.4,0.2,0.9-0.2,1.1l-4,3C100.9,215.2,100.6,215.2,100.4,215.1z"/>
							</g>
							<g>
								<path class="st7" d="M124.7,256.4C124.7,256.4,124.7,256.4,124.7,256.4l-4.7-1.6c-0.4-0.1-0.6-0.6-0.5-1
									c0.1-0.4,0.6-0.6,1-0.5c0,0,0,0,0,0l4.7,1.6c0.4,0.1,0.6,0.6,0.5,1C125.5,256.3,125.1,256.5,124.7,256.4z"/>
							</g>
							<g>
								<path class="st7" d="M105.7,218.2c-0.4-0.1-0.6-0.6-0.5-1c0.1-0.4,0.6-0.7,1-0.5l4.8,1.5c0.4,0.1,0.7,0.6,0.5,1
									c-0.1,0.4-0.6,0.7-1,0.5L105.7,218.2C105.7,218.2,105.7,218.2,105.7,218.2z"/>
							</g>
							<g>
								<path class="st7" d="M120.6,251.1c-0.1,0-0.2-0.1-0.3-0.2c-0.3-0.3-0.3-0.8,0.1-1.1l3.7-3.3c0.3-0.3,0.8-0.3,1.1,0.1
									c0.3,0.3,0.3,0.8-0.1,1.1l-3.7,3.3C121.2,251.1,120.9,251.1,120.6,251.1z"/>
							</g>
							<g>
								<path class="st7" d="M104,231.1c-0.3-0.1-0.5-0.3-0.5-0.7l-0.6-4.9c-0.1-0.4,0.3-0.8,0.7-0.9c0.4-0.1,0.8,0.3,0.9,0.7
									l0.6,4.9c0.1,0.4-0.3,0.8-0.7,0.9C104.3,231.1,104.1,231.1,104,231.1z"/>
							</g>
							<g>
								<path class="st7" d="M111.7,254.4c0,0-0.1,0-0.1-0.1c-0.4-0.2-0.5-0.7-0.3-1.1l2.3-4.4c0.2-0.4,0.7-0.5,1.1-0.3
									c0.4,0.2,0.5,0.7,0.3,1.1l-2.3,4.4C112.5,254.3,112.1,254.5,111.7,254.4z"/>
							</g>
							<g>
								<path class="st7" d="M88.9,226C88.9,225.9,88.9,225.9,88.9,226l-4.6-2c-0.4-0.2-0.6-0.6-0.4-1.1c0.2-0.4,0.6-0.6,1.1-0.4
									l4.6,1.9c0.4,0.2,0.6,0.6,0.4,1.1C89.7,225.9,89.3,226.1,88.9,226z"/>
							</g>
							<g>
								<path class="st7" d="M81.6,238.9c-0.1,0-0.1,0-0.2-0.1c-0.4-0.2-0.5-0.7-0.3-1.1l1.7-2.9c0.2-0.4,0.7-0.5,1.1-0.3
									c0.4,0.2,0.5,0.7,0.3,1.1l-1.7,2.9C82.4,238.9,82,239,81.6,238.9z"/>
							</g>
							<g>
								<path class="st7" d="M129.1,255.1c-0.1,0-0.1,0-0.2-0.1c-0.4-0.2-0.5-0.7-0.3-1.1l1.7-2.9c0.2-0.4,0.7-0.5,1.1-0.3
									c0.4,0.2,0.5,0.7,0.3,1.1l-1.7,2.9C129.9,255.1,129.5,255.2,129.1,255.1z"/>
							</g>
							<g>
								<path class="st7" d="M78,234.6c-0.2-0.1-0.4-0.2-0.5-0.5c-0.2-0.4,0.1-0.9,0.5-1l3.1-1.2c0.4-0.2,0.9,0.1,1,0.5
									c0.2,0.4-0.1,0.9-0.5,1l-3.1,1.2C78.3,234.7,78.2,234.7,78,234.6z"/>
							</g>
							<g>
								<path class="st7" d="M111.1,211.6C111.1,211.6,111.1,211.6,111.1,211.6l-3.2-1.1c-0.4-0.1-0.6-0.6-0.5-1
									c0.1-0.4,0.6-0.6,1-0.5c0,0,0,0,0,0l3.2,1.1c0.4,0.1,0.6,0.6,0.5,1C111.9,211.5,111.5,211.8,111.1,211.6z"/>
							</g>
							<g>
								<path class="st7" d="M124,235.4c-0.2-0.1-0.3-0.2-0.4-0.3c-0.2-0.4-0.1-0.9,0.2-1.1l2.8-1.8c0.4-0.2,0.9-0.1,1.1,0.2
									c0.2,0.4,0.1,0.9-0.2,1.1l-2.8,1.8C124.5,235.5,124.2,235.5,124,235.4z"/>
							</g>
							<g>
								<path class="st7" d="M117.7,222.5c-0.3-0.1-0.5-0.4-0.6-0.7l-0.1-3.3c0-0.4,0.3-0.8,0.8-0.8c0.4,0,0.8,0.3,0.8,0.8l0.1,3.3
									c0,0.4-0.3,0.8-0.8,0.8C117.8,222.5,117.8,222.5,117.7,222.5z"/>
							</g>
							<g>
								<path class="st7" d="M103.4,244.9c-0.3-0.1-0.5-0.4-0.6-0.7l-0.1-3.3c0-0.4,0.3-0.8,0.8-0.8c0.4,0,0.8,0.3,0.8,0.8l0.1,3.3
									c0,0.4-0.3,0.8-0.8,0.8C103.6,245,103.5,245,103.4,244.9z"/>
							</g>
							<g>
								<path class="st7" d="M78.5,242.6c-0.2-0.1-0.4-0.3-0.5-0.5c-0.1-0.4,0.1-0.9,0.5-1l3.2-0.9c0.4-0.1,0.9,0.1,1,0.5
									c0.1,0.4-0.1,0.9-0.5,1l-3.2,0.9C78.8,242.6,78.7,242.6,78.5,242.6z"/>
							</g>
							<g>
								<path class="st7" d="M95.9,243c-0.3-0.1-0.5-0.4-0.6-0.7l-0.2-3.3c0-0.4,0.3-0.8,0.7-0.9c0.4,0,0.8,0.3,0.9,0.7l0.2,3.3
									c0,0.4-0.3,0.8-0.7,0.9C96.1,243,96,243,95.9,243z"/>
							</g>
							<g>
								<path class="st7" d="M94.9,232.1c-0.2-0.1-0.4-0.2-0.5-0.5c-0.2-0.4,0-0.9,0.4-1.1l3.1-1.3c0.4-0.2,0.9,0,1.1,0.4
									c0.2,0.4,0,0.9-0.4,1.1l-3.1,1.3C95.3,232.2,95.1,232.2,94.9,232.1z"/>
							</g>
							<g>
								<path class="st7" d="M89.2,245.5c-0.2-0.1-0.4-0.2-0.5-0.5c-0.2-0.4,0-0.9,0.4-1.1l3.1-1.3c0.4-0.2,0.9,0,1.1,0.4
									c0.2,0.4,0,0.9-0.4,1.1l-3.1,1.3C89.6,245.5,89.4,245.5,89.2,245.5z"/>
							</g>
							<g>
								<path class="st7" d="M109.4,260.6c-0.2-0.1-0.4-0.2-0.5-0.4c-0.2-0.4-0.1-0.9,0.3-1.1l2.9-1.6c0.4-0.2,0.9-0.1,1.1,0.3
									c0.2,0.4,0.1,0.9-0.3,1.1l-2.9,1.6C109.8,260.6,109.6,260.6,109.4,260.6z"/>
							</g>
							<g>
								<path class="st7" d="M83.1,252.8c-0.4-0.1-0.6-0.5-0.5-0.9l0.6-3.3c0.1-0.4,0.5-0.7,0.9-0.7c0.4,0.1,0.7,0.5,0.7,0.9
									l-0.6,3.3c-0.1,0.4-0.5,0.7-0.9,0.7C83.2,252.8,83.2,252.8,83.1,252.8z"/>
							</g>
							<g>
								<path class="st7" d="M125.5,264.2c-0.3-0.1-0.6-0.5-0.5-0.8l0.3-3.3c0-0.4,0.4-0.8,0.9-0.7c0.4,0,0.8,0.4,0.7,0.9l-0.3,3.3
									c0,0.4-0.4,0.8-0.9,0.7C125.7,264.3,125.6,264.2,125.5,264.2z"/>
							</g>
							<g>
								<path class="st7" d="M122.4,242.9c-0.2-0.1-0.4-0.2-0.5-0.4c-0.2-0.4,0-0.9,0.4-1.1l3.1-1.3c0.4-0.2,0.9,0,1.1,0.4
									c0.2,0.4,0,0.9-0.4,1.1l-3.1,1.3C122.8,242.9,122.6,242.9,122.4,242.9z"/>
							</g>
						</g>
					</g>
				</g>
				<polygon class="st3" points="150.8,252.5 150.8,263.9 117.4,244.6 117.4,233.2 				"/>
			</g>
			<polygon class="st3" points="163.1,248.1 163.1,251.7 181.1,262.1 181.1,258.5 			"/>
		</g>
		<g class="st1">
			<path class="st5" d="M294,309.6c-0.1,0.6-0.3,1.2-0.6,1.8c-0.3,0.7-0.7,1.4-1.3,2.1c-0.3,0.4-0.7,0.9-1.1,1.3
				c-0.5,0.5-1.1,1.1-1.8,1.6c-0.4,0.3-0.9,0.6-1.4,1c-0.2,0.1-0.4,0.2-0.6,0.3c-0.5,0.3-1.1,0.6-1.6,0.8c-0.5,0.3-1.1,0.5-1.7,0.7
				c-0.8,0.3-1.6,0.6-2.5,0.9c-0.6,0.2-1.2,0.4-1.9,0.5c-0.9,0.2-1.9,0.4-2.8,0.6c-0.7,0.1-1.4,0.2-2.1,0.3
				c-1.1,0.1-2.1,0.2-3.2,0.2c-0.8,0-1.6,0-2.4,0c-5.5-0.2-10.9-1.5-15.1-3.9c-9.2-5.3-9.2-13.9,0-19.2c9.2-5.3,24.1-5.3,33.2,0
				C292.5,301.5,294.8,305.6,294,309.6z"/>
			<polygon class="st4" points="294.2,269.4 294.2,308.1 255.6,308.1 			"/>
			<path class="st7" d="M289.3,316.4c-0.4,0.3-0.9,0.6-1.4,1l-9.2-9.2h2.4L289.3,316.4z"/>
			<path class="st7" d="M292.2,313.5c-0.3,0.4-0.7,0.9-1.1,1.3l-6.7-6.7h2.4L292.2,313.5z"/>
			<path class="st7" d="M294,309.6c-0.1,0.6-0.3,1.2-0.6,1.8l-3.3-3.3h2.4L294,309.6z"/>
			<path class="st7" d="M285.7,318.5c-0.5,0.3-1.1,0.5-1.7,0.7l-11.1-11.1h2.4L285.7,318.5z"/>
			<path class="st7" d="M281.5,320.1c-0.6,0.2-1.2,0.4-1.9,0.5l-12.5-12.5h2.4L281.5,320.1z"/>
			<path class="st7" d="M276.8,321.2c-0.7,0.1-1.4,0.2-2.1,0.3l-13.3-13.3h2.4L276.8,321.2z"/>
			<path class="st7" d="M271.5,321.6c-0.8,0-1.6,0-2.4,0l-13.5-13.5h2.4L271.5,321.6z"/>
			<polygon class="st3" points="294.2,269.4 294.2,308.1 255.6,308.1 			"/>
		</g>
		<g class="st1">
			<polygon class="st2" points="187.9,306.4 187.9,314 149.3,336.3 149.3,328.7 			"/>
			<polygon class="st4" points="168,333.2 154.6,333.2 154.6,311.6 			"/>
			<polygon class="st2" points="157.5,323.9 157.5,331.6 149.3,336.3 149.3,328.7 			"/>
		</g>
	</g>
</g>
</svg>
