<?xml version="1.0" encoding="utf-8"?>
<!-- Generator: Adobe Illustrator 22.1.0, SVG Export Plug-In . SVG Version: 6.00 Build 0)  -->
<svg version="1.1" id="Layer_1" xmlns="http://www.w3.org/2000/svg" xmlns:xlink="http://www.w3.org/1999/xlink" x="0px" y="0px"
	 viewBox="0 0 400 400" style="enable-background:new 0 0 400 400;" xml:space="preserve">
<style type="text/css">
	.st0{clip-path:url(#SVGID_2_);}
	.st1{fill:#65C6BF;}
	.st2{fill:#FFFFFF;}
	.st3{clip-path:url(#SVGID_3_);}
	.st4{fill:#6CB5E2;}
	.st5{clip-path:url(#SVGID_4_);}
	.st6{fill:#FDE491;}
	.st7{clip-path:url(#SVGID_5_);}
	.st8{fill:#78C5B4;}
	.st9{clip-path:url(#SVGID_6_);}
	.st10{fill:#1B291D;}
	.st11{fill:#EEB0BE;}
	.st12{clip-path:url(#SVGID_7_);}
	.st13{fill:none;stroke:#F6F6F6;stroke-width:1.3333;stroke-linecap:round;stroke-linejoin:round;stroke-miterlimit:10;}
	.st14{clip-path:url(#SVGID_8_);}
	.st15{clip-path:url(#SVGID_9_);}
	.st16{clip-path:url(#SVGID_10_);}
	.st17{clip-path:url(#SVGID_11_);}
	.st18{clip-path:url(#SVGID_12_);}
	.st19{clip-path:url(#SVGID_13_);}
	.st20{clip-path:url(#SVGID_14_);}
	.st21{clip-path:url(#SVGID_15_);}
</style>
<g>
	<g>
		<defs>
			<rect id="SVGID_1_" width="400" height="400"/>
		</defs>
		<use xlink:href="#SVGID_1_"  style="overflow:visible;fill:#303289;"/>
		<clipPath id="SVGID_2_">
			<use xlink:href="#SVGID_1_"  style="overflow:visible;"/>
		</clipPath>
		<g class="st0">
			<polygon class="st1" points="317.4,2.1 295.9,-10.3 237.9,23.3 259.4,35.7 			"/>
			<polygon class="st2" points="237.9,48.1 259.4,60.4 259.4,35.7 237.9,23.3 			"/>
			<g>
				<defs>
					<polygon id="SVGID_98_" points="317.4,2.1 259.4,35.7 259.4,60.4 317.4,26.9 					"/>
				</defs>
				<clipPath id="SVGID_3_">
					<use xlink:href="#SVGID_98_"  style="overflow:visible;"/>
				</clipPath>
				<g class="st3">
					<rect x="259.4" y="-3" class="st4" width="2" height="67.4"/>
					<rect x="265" y="-3" class="st4" width="2" height="67.4"/>
					<rect x="270.6" y="-3" class="st4" width="2" height="67.4"/>
					<rect x="276.2" y="-3" class="st4" width="2" height="67.4"/>
					<rect x="281.8" y="-3" class="st4" width="2" height="67.4"/>
					<rect x="287.4" y="-3" class="st4" width="2" height="67.4"/>
					<rect x="293" y="-3" class="st4" width="2" height="67.4"/>
					<rect x="298.6" y="-3" class="st4" width="2" height="67.4"/>
					<rect x="304.2" y="-3" class="st4" width="2" height="67.4"/>
					<rect x="309.8" y="-3" class="st4" width="2" height="67.4"/>
					<rect x="315.4" y="-3" class="st4" width="2" height="67.4"/>
					<rect x="320.9" y="-3" class="st4" width="2" height="67.4"/>
					<rect x="326.5" y="-3" class="st4" width="2" height="67.4"/>
					<rect x="332.1" y="-3" class="st4" width="2" height="67.4"/>
				</g>
			</g>
		</g>
		<g class="st0">
			<polygon class="st1" points="179.5,110.6 158,98.2 100.1,131.7 121.5,144.1 			"/>
			<polygon class="st2" points="100.1,156.5 121.5,168.9 121.5,144.1 100.1,131.7 			"/>
			<g>
				<defs>
					<polygon id="SVGID_96_" points="179.5,110.6 121.5,144.1 121.5,168.9 179.5,135.3 					"/>
				</defs>
				<clipPath id="SVGID_4_">
					<use xlink:href="#SVGID_96_"  style="overflow:visible;"/>
				</clipPath>
				<g class="st5">
					<rect x="121.5" y="105.4" class="st4" width="2" height="67.4"/>
					<rect x="127.1" y="105.4" class="st4" width="2" height="67.4"/>
					<rect x="132.7" y="105.4" class="st4" width="2" height="67.4"/>
					<rect x="138.3" y="105.4" class="st4" width="2" height="67.4"/>
					<rect x="143.9" y="105.4" class="st4" width="2" height="67.4"/>
					<rect x="149.5" y="105.4" class="st4" width="2" height="67.4"/>
					<rect x="155.1" y="105.4" class="st4" width="2" height="67.4"/>
					<rect x="160.7" y="105.4" class="st4" width="2" height="67.4"/>
					<rect x="166.3" y="105.4" class="st4" width="2" height="67.4"/>
					<rect x="171.9" y="105.4" class="st4" width="2" height="67.4"/>
					<rect x="177.5" y="105.4" class="st4" width="2" height="67.4"/>
					<rect x="183.1" y="105.4" class="st4" width="2" height="67.4"/>
					<rect x="188.7" y="105.4" class="st4" width="2" height="67.4"/>
					<rect x="194.2" y="105.4" class="st4" width="2" height="67.4"/>
				</g>
			</g>
		</g>
		<g class="st0">
			<polygon class="st2" points="156.9,150.1 107.3,178.7 57.7,150.1 107.3,121.5 			"/>
			<polygon class="st6" points="156.9,207.4 107.3,236 107.3,178.8 156.9,150.1 			"/>
			<g>
				<defs>
					<polygon id="SVGID_94_" points="57.7,207.4 107.3,236 107.3,178.8 57.7,150.1 					"/>
				</defs>
				<clipPath id="SVGID_5_">
					<use xlink:href="#SVGID_94_"  style="overflow:visible;"/>
				</clipPath>
				<g class="st7">
					<rect x="44.9" y="234.1" class="st8" width="62.4" height="1.9"/>
					<rect x="44.9" y="228.6" class="st8" width="62.4" height="1.9"/>
					<rect x="44.9" y="223.1" class="st8" width="62.4" height="1.9"/>
					<rect x="44.9" y="217.5" class="st8" width="62.4" height="1.9"/>
					<rect x="44.9" y="212" class="st8" width="62.4" height="1.9"/>
					<rect x="44.9" y="206.5" class="st8" width="62.4" height="1.9"/>
					<rect x="44.9" y="201" class="st8" width="62.4" height="1.9"/>
					<rect x="44.9" y="195.5" class="st8" width="62.4" height="1.9"/>
					<rect x="44.9" y="189.9" class="st8" width="62.4" height="1.9"/>
					<rect x="44.9" y="184.4" class="st8" width="62.4" height="1.9"/>
					<rect x="44.9" y="178.9" class="st8" width="62.4" height="1.9"/>
					<rect x="44.9" y="173.4" class="st8" width="62.4" height="1.9"/>
					<rect x="44.9" y="167.8" class="st8" width="62.4" height="1.9"/>
					<rect x="44.9" y="162.3" class="st8" width="62.4" height="1.9"/>
					<rect x="44.9" y="156.8" class="st8" width="62.4" height="1.9"/>
					<rect x="44.9" y="151.3" class="st8" width="62.4" height="1.9"/>
					<rect x="44.9" y="145.8" class="st8" width="62.4" height="1.9"/>
					<rect x="44.9" y="140.2" class="st8" width="62.4" height="1.9"/>
					<rect x="44.9" y="134.7" class="st8" width="62.4" height="1.9"/>
				</g>
			</g>
		</g>
		<g class="st0">
			<polygon class="st6" points="222.7,-1.5 173.1,27.1 173.1,-30.2 222.7,-58.8 			"/>
			<g>
				<defs>
					<polygon id="SVGID_92_" points="123.5,-1.5 173.1,27.1 173.1,-30.2 123.5,-58.8 					"/>
				</defs>
				<clipPath id="SVGID_6_">
					<use xlink:href="#SVGID_92_"  style="overflow:visible;"/>
				</clipPath>
				<g class="st9">
					<rect x="110.7" y="25.2" class="st8" width="62.4" height="1.9"/>
					<rect x="110.7" y="19.7" class="st8" width="62.4" height="1.9"/>
					<rect x="110.7" y="14.2" class="st8" width="62.4" height="1.9"/>
					<rect x="110.7" y="8.6" class="st8" width="62.4" height="1.9"/>
					<rect x="110.7" y="3.1" class="st8" width="62.4" height="1.9"/>
				</g>
			</g>
		</g>
		<g class="st0">
			<g>
				<polygon class="st2" points="336.6,140.8 306,158.5 275.4,140.8 306,123.1 				"/>
				<polygon class="st10" points="336.6,176.2 306,193.9 306,158.5 336.6,140.8 				"/>
			</g>
			<polygon class="st4" points="275.4,176.2 306,193.9 306,158.5 275.4,140.8 			"/>
		</g>
		<g class="st0">
			<g>
				<polygon class="st2" points="30.6,64.4 0,82 -30.6,64.4 0,46.7 				"/>
				<polygon class="st10" points="30.6,99.7 0,117.4 0,82.1 30.6,64.4 				"/>
			</g>
		</g>
		<g class="st0">
			<g>
				<polygon class="st2" points="65.4,246.2 24.3,269.9 -16.8,246.2 24.3,222.4 				"/>
				<polygon class="st10" points="65.4,293.6 24.3,317.3 24.3,269.9 65.4,246.2 				"/>
			</g>
			<polygon class="st4" points="-16.8,293.6 24.3,317.3 24.3,269.9 -16.8,246.2 			"/>
		</g>
		<g class="st0">
			<g>
				<polygon class="st2" points="430.6,64.4 400,82 369.4,64.4 400,46.7 				"/>
			</g>
			<polygon class="st4" points="369.4,99.7 400,117.4 400,82.1 369.4,64.4 			"/>
		</g>
		<g class="st0">
			<g>
				<polygon class="st2" points="465.4,246.2 424.3,269.9 383.2,246.2 424.3,222.4 				"/>
			</g>
			<polygon class="st4" points="383.2,293.6 424.3,317.3 424.3,269.9 383.2,246.2 			"/>
		</g>
		<g class="st0">
			<polygon class="st2" points="284.3,95.9 252.5,114.3 220.6,95.9 252.5,77.5 			"/>
			<polygon class="st11" points="252.5,114.3 252.5,140.4 252.5,140.4 252.5,161 252.5,161 252.5,187.1 252.5,187.1 252.5,223.9 
				284.3,205.5 284.3,179.4 284.3,168.7 284.3,158.8 284.3,142.6 284.3,132.7 284.3,122.1 284.3,95.9 			"/>
			<g>
				<defs>
					<polygon id="SVGID_90_" points="220.6,95.9 220.6,132.7 220.6,132.7 220.6,158.8 220.6,158.8 220.6,179.4 220.6,179.4 
						220.6,205.5 252.5,223.9 252.5,197.7 252.5,187.1 252.5,177.2 252.5,161 252.5,151.1 252.5,140.4 252.5,114.3 					"/>
				</defs>
				<use xlink:href="#SVGID_90_"  style="overflow:visible;fill:#F66D7B;"/>
				<clipPath id="SVGID_7_">
					<use xlink:href="#SVGID_90_"  style="overflow:visible;"/>
				</clipPath>
				<g class="st12">
					<g>
						<path class="st13" d="M207.1,191.9l1.8-2.4L207.1,191.9z"/>
						<path class="st13" d="M246.2,226.7l1.8-2.4L246.2,226.7z"/>
						<path class="st13" d="M233.9,217.2l1.9-2.2L233.9,217.2z"/>
						<path class="st13" d="M222.8,166.5l1.9-2.2L222.8,166.5z"/>
						<path class="st13" d="M245.9,113.1l-1.5-4.5L245.9,113.1z"/>
						<path class="st13" d="M259.2,153.1l-3.4-2.5L259.2,153.1z"/>
						<path class="st13" d="M260.3,167.6l-3.4-2.5L260.3,167.6z"/>
						<path class="st13" d="M243.6,160.4l-3.2-3.5L243.6,160.4z"/>
						<path class="st13" d="M231.5,130.4l-3.1-0.1L231.5,130.4z"/>
						<path class="st13" d="M241.1,130.1l-3.4-1.4L241.1,130.1z"/>
						<path class="st13" d="M230.1,168.3l-3.4-2.4L230.1,168.3z"/>
						<path class="st13" d="M213.1,166.7l-3.4-2.6L213.1,166.7z"/>
						<path class="st13" d="M209.6,105.3l-2.1-4.4L209.6,105.3z"/>
						<path class="st13" d="M206.5,123.3l0.3-3.8L206.5,123.3z"/>
						<path class="st13" d="M227.8,123l0.3-3.8L227.8,123z"/>
						<path class="st13" d="M214,133.4l0.3-3.8L214,133.4z"/>
						<path class="st13" d="M217.2,133.8l1.9-2.2L217.2,133.8z"/>
						<path class="st13" d="M217.9,204.2l3.3,3.2L217.9,204.2z"/>
						<path class="st13" d="M211.4,161.2l3.3,3.2L211.4,161.2z"/>
						<path class="st13" d="M232.7,173.5l3.3,3.2L232.7,173.5z"/>
						<path class="st13" d="M219.1,111.9l3.3,3L219.1,111.9z"/>
						<path class="st13" d="M222.1,124.2l3.3,3L222.1,124.2z"/>
						<path class="st13" d="M231.2,119.2l1.5,4.5L231.2,119.2z"/>
						<path class="st13" d="M239.3,143.1l1.5,4.5L239.3,143.1z"/>
						<path class="st13" d="M251,146.5l-0.3,3.8L251,146.5z"/>
						<path class="st13" d="M245.8,163.8l-0.3,3.8L245.8,163.8z"/>
						<path class="st13" d="M212.8,114.5l-1.4,2.8L212.8,114.5z"/>
						<path class="st13" d="M225.9,118.3l-0.9,3.4L225.9,118.3z"/>
						<path class="st13" d="M236.2,140l-0.9,3.4L236.2,140z"/>
						<path class="st13" d="M234.5,154.7l3.4,1.3L234.5,154.7z"/>
						<path class="st13" d="M211.1,135.7l3.4,1.3L211.1,135.7z"/>
						<path class="st13" d="M241.3,191.3l2.3,4.3L241.3,191.3z"/>
						<path class="st13" d="M247.3,176.3l2.3,4.3L247.3,176.3z"/>
						<path class="st13" d="M251.2,214l-1,3.2L251.2,214z"/>
						<path class="st13" d="M240.4,212.4l-2.1,1.9L240.4,212.4z"/>
						<path class="st13" d="M208.9,199.4l-3.4-1L208.9,199.4z"/>
						<path class="st13" d="M204.1,86.1l-0.9,3.4L204.1,86.1z"/>
						<path class="st13" d="M235.8,196.1l2.1,4.4L235.8,196.1z"/>
						<path class="st13" d="M240.1,177.5l3.4,2.5L240.1,177.5z"/>
						<path class="st13" d="M240.9,209.7l3.2,0.3L240.9,209.7z"/>
						<path class="st13" d="M235.1,191.5l3.2,0.3L235.1,191.5z"/>
						<path class="st13" d="M227.4,174l3.2,0.3L227.4,174z"/>
						<path class="st13" d="M218.4,174.2l3.2,0.3L218.4,174.2z"/>
						<path class="st13" d="M215.7,147.9l1.6-2.6L215.7,147.9z"/>
						<path class="st13" d="M247.5,188.2l-0.8-4.4L247.5,188.2z"/>
						<path class="st13" d="M243.8,219.5l-0.8-4.4L243.8,219.5z"/>
						<path class="st13" d="M217.3,171l-0.8-4.4L217.3,171z"/>
						<path class="st13" d="M254.5,127.4l2.5-1.4L254.5,127.4z"/>
						<path class="st13" d="M255,158.6l2.5-1.4L255,158.6z"/>
						<path class="st13" d="M205.3,126.2l3.4,1.6L205.3,126.2z"/>
						<path class="st13" d="M221.6,131.4l3.2,3.3L221.6,131.4z"/>
						<path class="st13" d="M232.4,147.6l2.4,4.3L232.4,147.6z"/>
						<path class="st13" d="M244,157.5l3.3,3.2L244,157.5z"/>
						<path class="st13" d="M250.4,154.2l3.3,0.7L250.4,154.2z"/>
						<path class="st13" d="M251.9,161.4l2.7-1L251.9,161.4z"/>
						<path class="st13" d="M252.9,145.7l3.3,0.8L252.9,145.7z"/>
						<path class="st13" d="M250.8,173l2.5-1.4L250.8,173z"/>
						<path class="st13" d="M223.3,113.1l3.2,0.2L223.3,113.1z"/>
						<path class="st13" d="M223.1,104.6l3.4,1.3L223.1,104.6z"/>
						<path class="st13" d="M214.5,150l3.4,1.3L214.5,150z"/>
						<path class="st13" d="M209.5,124.5l-0.6-4.3L209.5,124.5z"/>
						<path class="st13" d="M207.2,106.7l-2.3-4.3L207.2,106.7z"/>
						<path class="st13" d="M258.6,134.9l-2.3-4.3L258.6,134.9z"/>
						<path class="st13" d="M246.4,180l-2.3-4.3L246.4,180z"/>
						<path class="st13" d="M214.2,156l-2.3-4.3L214.2,156z"/>
						<path class="st13" d="M211.9,179.4l-2.3-4.3L211.9,179.4z"/>
						<path class="st13" d="M205.8,158.5l-3.5-2L205.8,158.5z"/>
						<path class="st13" d="M216.5,190.3l-3.5-2L216.5,190.3z"/>
						<path class="st13" d="M237.1,210.9l-3.5-2L237.1,210.9z"/>
						<path class="st13" d="M213.4,195.6l-1.7-4.5L213.4,195.6z"/>
						<path class="st13" d="M225,199l-1.8-4.5L225,199z"/>
						<path class="st13" d="M218.7,162.2l-4.4-1.9L218.7,162.2z"/>
						<path class="st13" d="M240.3,205.2l-4.1-0.5L240.3,205.2z"/>
						<path class="st13" d="M236.3,221.4l-4.4-1.9L236.3,221.4z"/>
						<path class="st13" d="M222.5,141.9l-4-4.4L222.5,141.9z"/>
						<path class="st13" d="M242.2,184l-4.4-2.8L242.2,184z"/>
						<path class="st13" d="M242,196.9l-4.4-1.5L242,196.9z"/>
						<path class="st13" d="M212.5,183.6l-4-4.6L212.5,183.6z"/>
						<path class="st13" d="M229.1,212.2l-4-4.6L229.1,212.2z"/>
						<path class="st13" d="M235.3,157.8l-1.9,2.2L235.3,157.8z"/>
						<path class="st13" d="M238.7,146.8l-1.9,2.2L238.7,146.8z"/>
						<path class="st13" d="M223.8,108.1l-1.9,2.2L223.8,108.1z"/>
						<path class="st13" d="M215.1,115.5l2.3-1.7L215.1,115.5z"/>
						<path class="st13" d="M205.8,130.1l2.9,3.9L205.8,130.1z"/>
						<path class="st13" d="M206.4,204.9l2.3,4.3L206.4,204.9z"/>
						<path class="st13" d="M220.9,203.5l2.3,4.3L220.9,203.5z"/>
						<path class="st13" d="M244.9,198.4l0.7,4.3L244.9,198.4z"/>
						<path class="st13" d="M237.6,173l0.7,4.3L237.6,173z"/>
						<path class="st13" d="M220.2,210.4l0.7,4.3L220.2,210.4z"/>
						<path class="st13" d="M209.1,145.7l-1.4,2.8L209.1,145.7z"/>
						<path class="st13" d="M255.4,224.7l-1.4,2.8L255.4,224.7z"/>
						<path class="st13" d="M202.6,160.3l3.4,2.7L202.6,160.3z"/>
						<path class="st13" d="M246.3,135.9l3.4,2.7L246.3,135.9z"/>
						<path class="st13" d="M248.5,231.9l3.4,2.7L248.5,231.9z"/>
						<path class="st13" d="M205.5,201.5l3.4,2.7L205.5,201.5z"/>
						<path class="st13" d="M210.5,187.3l-2.1-4.4L210.5,187.3z"/>
						<path class="st13" d="M216.3,176.4l-2.7,0.9L216.3,176.4z"/>
						<path class="st13" d="M214.1,211.6l-3.4-1.1L214.1,211.6z"/>
						<path class="st13" d="M224.3,180.9l-2.5,1.4L224.3,180.9z"/>
						<path class="st13" d="M228.7,201.2l-2.5,1.4L228.7,201.2z"/>
						<path class="st13" d="M209.7,193.8l2,4.4L209.7,193.8z"/>
						<path class="st13" d="M241.1,187.8l3.5,2.2L241.1,187.8z"/>
						<path class="st13" d="M240.9,225.6l3.5,2.2L240.9,225.6z"/>
						<path class="st13" d="M241.8,151.2l-0.9,3.3L241.8,151.2z"/>
						<path class="st13" d="M245.4,131l-0.9,3.3L245.4,131z"/>
						<path class="st13" d="M234.8,126.8l-0.9,3.3L234.8,126.8z"/>
						<path class="st13" d="M212.3,146.2l-1.2,3.1L212.3,146.2z"/>
						<path class="st13" d="M209.9,113l-2.9-3.9L209.9,113z"/>
						<path class="st13" d="M231.4,117l0.9-3.3L231.4,117z"/>
						<path class="st13" d="M240.4,121.9l0.9-3.3L240.4,121.9z"/>
						<path class="st13" d="M237.9,136.3l-0.7-4.3L237.9,136.3z"/>
						<path class="st13" d="M221.5,147.1l-2-4.4L221.5,147.1z"/>
						<path class="st13" d="M205.3,155l-2-4.4L205.3,155z"/>
						<path class="st13" d="M255,136.8l2.5,4.2L255,136.8z"/>
						<path class="st13" d="M259.1,170l-1.6,2.6L259.1,170z"/>
						<path class="st13" d="M258,203.1l0.8,4.4L258,203.1z"/>
						<path class="st13" d="M257.7,223.2l-0.4,3.7L257.7,223.2z"/>
						<path class="st13" d="M250.6,220.1l0.3,4.2L250.6,220.1z"/>
						<path class="st13" d="M204.1,173.3l0.3,4.2L204.1,173.3z"/>
						<path class="st13" d="M205.8,183l0.4,4.2L205.8,183z"/>
						<path class="st13" d="M216.8,209l0.4,4.2L216.8,209z"/>
						<path class="st13" d="M211.7,99.3l3.2,0.3L211.7,99.3z"/>
						<path class="st13" d="M226.6,132.7l3.1,3.7L226.6,132.7z"/>
						<path class="st13" d="M245.9,154.9l3.1,3.7L245.9,154.9z"/>
						<path class="st13" d="M250.2,188.2l2.7-0.9L250.2,188.2z"/>
						<path class="st13" d="M252,211.4l2.3,4.3L252,211.4z"/>
						<path class="st13" d="M230.9,199.4l3.5,2L230.9,199.4z"/>
						<path class="st13" d="M217.4,165.3l3.5,2L217.4,165.3z"/>
						<path class="st13" d="M217.6,101.6l3.1,0L217.6,101.6z"/>
						<path class="st13" d="M239.4,125.3l3.1,0L239.4,125.3z"/>
						<path class="st13" d="M224.6,173.5l2.9,3.9L224.6,173.5z"/>
						<path class="st13" d="M217.9,184.7l0.9,4.4L217.9,184.7z"/>
						<path class="st13" d="M207.7,113.8l-2-1.9L207.7,113.8z"/>
						<path class="st13" d="M225.4,145.1l-0.7-2.7L225.4,145.1z"/>
						<path class="st13" d="M242.8,146.2l-0.7-2.7L242.8,146.2z"/>
						<path class="st13" d="M249.6,128.5l0.7-1.9L249.6,128.5z"/>
						<path class="st13" d="M253.7,122.7l0.7-1.9L253.7,122.7z"/>
						<path class="st13" d="M212.4,107.3l1.2-1.2L212.4,107.3z"/>
						<path class="st13" d="M229.9,154.1l1.8-0.2L229.9,154.1z"/>
						<path class="st13" d="M232.8,169.9l1.8-0.2L232.8,169.9z"/>
						<path class="st13" d="M225.4,185.4l2,0.5L225.4,185.4z"/>
						<path class="st13" d="M222.3,160.8l2,0.5L222.3,160.8z"/>
						<path class="st13" d="M224.4,151.3l1.9,2.1L224.4,151.3z"/>
						<path class="st13" d="M232.4,143.9l1.9,2.1L232.4,143.9z"/>
						<path class="st13" d="M248.5,165.5l1.8-0.3L248.5,165.5z"/>
						<path class="st13" d="M249.8,183l2.1,1.3L249.8,183z"/>
						<path class="st13" d="M250.2,190.9l2,0.6L250.2,190.9z"/>
						<path class="st13" d="M258.3,193.9l1-1.6L258.3,193.9z"/>
						<path class="st13" d="M248.5,204.1l1.9,2L248.5,204.1z"/>
						<path class="st13" d="M219.1,195.4l1.7-0.5L219.1,195.4z"/>
						<path class="st13" d="M212.5,168.9l2,1.8L212.5,168.9z"/>
						<path class="st13" d="M206.5,151.9l2.1,0.7L206.5,151.9z"/>
						<path class="st13" d="M228.2,149.2l1.5-0.8L228.2,149.2z"/>
						<path class="st13" d="M231.6,134.2l2.1,0.7L231.6,134.2z"/>
						<path class="st13" d="M252.3,176.6l1.8,2.2L252.3,176.6z"/>
						<path class="st13" d="M229.9,190.4l2.1,0.8L229.9,190.4z"/>
						<path class="st13" d="M207.9,141.7l1.3-1.2L207.9,141.7z"/>
						<path class="st13" d="M203,121.6l1.3-1.2L203,121.6z"/>
						<path class="st13" d="M212.6,95.9l-0.1-2.5L212.6,95.9z"/>
						<path class="st13" d="M233.3,111.9l0.6-2L233.3,111.9z"/>
						<path class="st13" d="M248.2,118.1l0-2.5L248.2,118.1z"/>
						<path class="st13" d="M254.6,184.3l-1.9-2.1L254.6,184.3z"/>
						<path class="st13" d="M255.3,207.2l-1.7,0.4L255.3,207.2z"/>
						<path class="st13" d="M224.2,170l-1.7,0.4L224.2,170z"/>
						<path class="st13" d="M206.7,135.8l-2.1-1.7L206.7,135.8z"/>
						<path class="st13" d="M231.9,126.5l-2.1-1.7L231.9,126.5z"/>
						<path class="st13" d="M204.5,148.6l0.7-1.9L204.5,148.6z"/>
						<path class="st13" d="M255.4,211.5l1.8-0.3L255.4,211.5z"/>
						<path class="st13" d="M256.5,215.5l1.5,2.6L256.5,215.5z"/>
						<path class="st13" d="M255.9,183.3l2,0.6L255.9,183.3z"/>
						<path class="st13" d="M254.9,141.2l1.5,2.6L254.9,141.2z"/>
						<path class="st13" d="M251.7,116.7l-0.4-2.6L251.7,116.7z"/>
						<path class="st13" d="M226.8,101.9l1.1-1.4L226.8,101.9z"/>
						<path class="st13" d="M234.1,106.2l-0.8-2.7L234.1,106.2z"/>
						<path class="st13" d="M215.9,94.6l0.7-1.9L215.9,94.6z"/>
						<path class="st13" d="M230.9,180.7l1.4-1.1L230.9,180.7z"/>
						<path class="st13" d="M256.6,118.3l1.7-0.4L256.6,118.3z"/>
						<path class="st13" d="M220.6,190.9l1.1-1.4L220.6,190.9z"/>
						<path class="st13" d="M255.6,203.8l-2.1-1.4L255.6,203.8z"/>
						<path class="st13" d="M223.8,136.9l-2.1-1.2L223.8,136.9z"/>
						<path class="st13" d="M232.4,163.8l-0.4-2.6L232.4,163.8z"/>
						<path class="st13" d="M238.2,161.3l0.9-1.6L238.2,161.3z"/>
						<path class="st13" d="M240.6,135.4l0.3-2.3L240.6,135.4z"/>
						<path class="st13" d="M247.1,129.4l-1.4-2.6L247.1,129.4z"/>
						<path class="st13" d="M255.9,235.1L254,233L255.9,235.1z"/>
						<path class="st13" d="M227.1,197.4l-1.2-2.7L227.1,197.4z"/>
						<path class="st13" d="M221.8,186l-2.1-1.6L221.8,186z"/>
						<path class="st13" d="M203.9,186l-0.5-2.6L203.9,186z"/>
						<path class="st13" d="M233.6,225.9l-1.7-2.4L233.6,225.9z"/>
						<path class="st13" d="M202.6,205.5l2.1,1.5L202.6,205.5z"/>
						<path class="st13" d="M231.9,213.1l-0.5-2.6L231.9,213.1z"/>
						<path class="st13" d="M208.6,92.8l-0.2,2.3L208.6,92.8z"/>
						<path class="st13" d="M208.1,88.6l-1.9,0L208.1,88.6z"/>
						<path class="st13" d="M212.4,102.8l-1.9-0.1L212.4,102.8z"/>
						<path class="st13" d="M231.5,107.8l-1.2,1.3L231.5,107.8z"/>
						<path class="st13" d="M247.8,194.2l0.4,2.6L247.8,194.2z"/>
						<path class="st13" d="M236.2,116.5l2.1,1.2L236.2,116.5z"/>
						<path class="st13" d="M253,218.5l2.1,1.2L253,218.5z"/>
						<path class="st13" d="M235.2,224.4l1.7-0.5L235.2,224.4z"/>
						<path class="st13" d="M216.5,200.5l0.7-1.9L216.5,200.5z"/>
						<path class="st13" d="M207.5,174.4l-0.6-2.7L207.5,174.4z"/>
						<path class="st13" d="M226.5,149.7l-2.1-0.7L226.5,149.7z"/>
						<path class="st13" d="M229,117.1l-2.1-0.7L229,117.1z"/>
						<path class="st13" d="M243.4,163.9l-2.1-0.7L243.4,163.9z"/>
						<path class="st13" d="M208.4,117.1l-2.1-0.7L208.4,117.1z"/>
						<path class="st13" d="M248.4,145.8l-2.1-0.7L248.4,145.8z"/>
						<path class="st13" d="M251,202.4l-2.1-0.7L251,202.4z"/>
						<path class="st13" d="M223.1,201.5l-2.1-0.7L223.1,201.5z"/>
						<path class="st13" d="M237.3,123.2l-1.1-2.7L237.3,123.2z"/>
						<path class="st13" d="M250,175.4l-1.1-2.7L250,175.4z"/>
						<path class="st13" d="M236.7,183.8l-1.1-2.7L236.7,183.8z"/>
						<path class="st13" d="M229.5,204.9l-1.9,2L229.5,204.9z"/>
						<path class="st13" d="M226.9,111.2l3.3,1.9L226.9,111.2z"/>
						<path class="st13" d="M242.4,171.1l3.3,1.9L242.4,171.1z"/>
						<path class="st13" d="M249.9,228.1l3.3,1.9L249.9,228.1z"/>
						<path class="st13" d="M216.2,157.1l3.3,1.9L216.2,157.1z"/>
						<path class="st13" d="M216.2,119.1l3.3,1.9L216.2,119.1z"/>
						<path class="st13" d="M237,170.5l3.3,1.9L237,170.5z"/>
						<path class="st13" d="M240,218.3l0.7,4.1L240,218.3z"/>
						<path class="st13" d="M254.1,131.1l-2.5,1L254.1,131.1z"/>
						<path class="st13" d="M245.3,116.5l-2.5,1L245.3,116.5z"/>
						<path class="st13" d="M242.1,111.8l-0.2-3.9L242.1,111.8z"/>
						<path class="st13" d="M213.6,202.4l0.4,4L213.6,202.4z"/>
						<path class="st13" d="M255.3,165.6l0.4,4L255.3,165.6z"/>
						<path class="st13" d="M211.4,157l-3.8,3.6L211.4,157z"/>
						<path class="st13" d="M220.5,178.1l-3.6,3.9L220.5,178.1z"/>
						<path class="st13" d="M220,94l3.1,8.1L220,94z"/>
						<path class="st13" d="M239,107.3l-1.4,6.2L239,107.3z"/>
						<path class="st13" d="M245.9,236.2l-1.5-4.5L245.9,236.2z"/>
						<path class="st13" d="M204.1,209.1l-0.9,3.4L204.1,209.1z"/>
						<path class="st13" d="M251.7,239.8l-0.4-2.6L251.7,239.8z"/>
						<path class="st13" d="M226.8,225l1.1-1.4L226.8,225z"/>
						<path class="st13" d="M234.1,229.3l-0.8-2.7L234.1,229.3z"/>
						<path class="st13" d="M215.9,217.7l0.7-1.9L215.9,217.7z"/>
						<path class="st13" d="M256.6,241.4l1.7-0.4L256.6,241.4z"/>
						<path class="st13" d="M208.1,211.7l-1.9,0L208.1,211.7z"/>
						<path class="st13" d="M242.1,234.9l-0.2-3.9L242.1,234.9z"/>
						<path class="st13" d="M220,217.1l3.1,8.1L220,217.1z"/>
						<path class="st13" d="M239,230.4l-1.4,6.2L239,230.4z"/>
						<path class="st13" d="M224.8,129.6l-6-1.3L224.8,129.6z"/>
						<path class="st13" d="M240.7,167.3l-6-1.3L240.7,167.3z"/>
						<path class="st13" d="M211.7,126.4l0.4,7.5L211.7,126.4z"/>
						<path class="st13" d="M255.5,201.6l-4.7-7.5L255.5,201.6z"/>
						<path class="st13" d="M249.9,156.9l-4.7-7.5L249.9,156.9z"/>
						<path class="st13" d="M216.5,130l-4.7-7.5L216.5,130z"/>
						<path class="st13" d="M224.4,123.8l-4.7-7.5L224.4,123.8z"/>
						<path class="st13" d="M211.9,173.9l-4.7-7.5L211.9,173.9z"/>
						<path class="st13" d="M227.8,144.1l0.1-7.2L227.8,144.1z"/>
						<path class="st13" d="M251.4,142.9l0.3-7.1L251.4,142.9z"/>
						<path class="st13" d="M256.3,196.7l0.3-7.1L256.3,196.7z"/>
						<path class="st13" d="M239.8,189.4l-6.2-2.2L239.8,189.4z"/>
						<path class="st13" d="M243.9,141l-6.2-2.2L243.9,141z"/>
						<path class="st13" d="M227.1,160.1l-5-7.2L227.1,160.1z"/>
						<path class="st13" d="M248.9,143.5l-5-7.2L248.9,143.5z"/>
						<path class="st13" d="M246.6,207.3l-5-7.2L246.6,207.3z"/>
						<path class="st13" d="M232.2,195.7l-6.2-4.5L232.2,195.7z"/>
						<path class="st13" d="M257.8,180.2l-2.3-8.1L257.8,180.2z"/>
						<path class="st13" d="M247.8,221.3l-2.3-8.1L247.8,221.3z"/>
						<path class="st13" d="M229.8,221.2l-2.3-8.1L229.8,221.2z"/>
						<path class="st13" d="M257.9,237.8l3-0.3L257.9,237.8z"/>
						<path class="st13" d="M260,188.6l2.5,4.2L260,188.6z"/>
						<path class="st13" d="M259.6,144l2.5,4.2L259.6,144z"/>
						<path class="st13" d="M261.3,164.3l-3.4-2.9L261.3,164.3z"/>
						<path class="st13" d="M262.1,224.2l-3.4-2.9L262.1,224.2z"/>
						<path class="st13" d="M261.6,138.5l-2.5,1.4L261.6,138.5z"/>
						<path class="st13" d="M258.4,150.2l2.1,0.9L258.4,150.2z"/>
						<path class="st13" d="M262.2,132.1l-1.9-2.2L262.2,132.1z"/>
						<path class="st13" d="M259.8,215.3l1.2-1.3L259.8,215.3z"/>
						<path class="st13" d="M259.4,180.7l2,0.2L259.4,180.7z"/>
						<path class="st13" d="M264.7,205.6l-5.3-7L264.7,205.6z"/>
						<path class="st13" d="M265.6,173.6l-5.3-7L265.6,173.6z"/>
						<path class="st13" d="M259.1,232.6l2.6-5.1L259.1,232.6z"/>
						<path class="st13" d="M258.7,126.8l2.6-5.1L258.7,126.8z"/>
						<path class="st13" d="M217.4,140.8l-5.8-0.4L217.4,140.8z"/>
						<path class="st13" d="M233.3,184.7l-6.1-2L233.3,184.7z"/>
						<path class="st13" d="M221,157l-6.2-4.5L221,157z"/>
						<path class="st13" d="M220,125.1l-6.2-4.5L220,125.1z"/>
						<path class="st13" d="M229.1,156.6l0,7.2L229.1,156.6z"/>
						<path class="st13" d="M216.9,103.8l0,7.2L216.9,103.8z"/>
						<path class="st13" d="M224.6,211.3l0,7.2L224.6,211.3z"/>
						<path class="st13" d="M250.9,120.9l-4,3.3L250.9,120.9z"/>
					</g>
				</g>
			</g>
		</g>
		<g class="st0">
			<polygon class="st11" points="311.5,-23.5 311.5,-4.1 311.5,-4.1 311.5,11.1 311.5,11.1 311.5,30.4 311.5,30.4 311.5,57.6 
				335.1,44 335.1,24.7 335.1,16.8 335.1,9.5 335.1,-2.5 335.1,-9.9 335.1,-17.7 335.1,-37.1 			"/>
			<g>
				<defs>
					<polygon id="SVGID_88_" points="288,-37.1 288,-9.9 288,-9.9 288,9.5 288,9.5 288,24.7 288,24.7 288,44 311.5,57.6 311.5,38.3 
						311.5,30.4 311.5,23.1 311.5,11.1 311.5,3.7 311.5,-4.1 311.5,-23.5 					"/>
				</defs>
				<use xlink:href="#SVGID_88_"  style="overflow:visible;fill:#F66D7B;"/>
				<clipPath id="SVGID_8_">
					<use xlink:href="#SVGID_88_"  style="overflow:visible;"/>
				</clipPath>
				<g class="st14">
					<g>
						<path class="st13" d="M278,34l1.3-1.8L278,34z"/>
						<path class="st13" d="M306.9,59.7l1.3-1.8L306.9,59.7z"/>
						<path class="st13" d="M297.8,52.7l1.4-1.6L297.8,52.7z"/>
						<path class="st13" d="M289.6,15.2l1.4-1.6L289.6,15.2z"/>
						<path class="st13" d="M316.5,5.2l-2.5-1.9L316.5,5.2z"/>
						<path class="st13" d="M317.4,16l-2.5-1.9L317.4,16z"/>
						<path class="st13" d="M305,10.7l-2.3-2.6L305,10.7z"/>
						<path class="st13" d="M295,16.5l-2.6-1.8L295,16.5z"/>
						<path class="st13" d="M282.4,15.3l-2.5-1.9L282.4,15.3z"/>
						<path class="st13" d="M285.9,43.1l2.4,2.4L285.9,43.1z"/>
						<path class="st13" d="M281.1,11.2l2.4,2.4L281.1,11.2z"/>
						<path class="st13" d="M296.9,20.3l2.4,2.4L296.9,20.3z"/>
						<path class="st13" d="M301.8-2.2l1.1,3.3L301.8-2.2z"/>
						<path class="st13" d="M310.5,0.3l-0.2,2.8L310.5,0.3z"/>
						<path class="st13" d="M306.6,13.1l-0.2,2.8L306.6,13.1z"/>
						<path class="st13" d="M298.2,6.4l2.5,0.9L298.2,6.4z"/>
						<path class="st13" d="M303.3,33.5l1.7,3.2L303.3,33.5z"/>
						<path class="st13" d="M307.7,22.4l1.7,3.2L307.7,22.4z"/>
						<path class="st13" d="M310.6,50.3l-0.8,2.4L310.6,50.3z"/>
						<path class="st13" d="M302.6,49.1l-1.6,1.4L302.6,49.1z"/>
						<path class="st13" d="M279.3,39.5l-2.5-0.7L279.3,39.5z"/>
						<path class="st13" d="M299.2,37.1l1.6,3.2L299.2,37.1z"/>
						<path class="st13" d="M302.4,23.3l2.5,1.8L302.4,23.3z"/>
						<path class="st13" d="M302.9,47.1l2.4,0.2L302.9,47.1z"/>
						<path class="st13" d="M298.7,33.6l2.4,0.2L298.7,33.6z"/>
						<path class="st13" d="M293,20.7l2.4,0.2L293,20.7z"/>
						<path class="st13" d="M286.3,20.9l2.4,0.2L286.3,20.9z"/>
						<path class="st13" d="M284.3,1.4l1.2-2L284.3,1.4z"/>
						<path class="st13" d="M307.8,31.2l-0.6-3.2L307.8,31.2z"/>
						<path class="st13" d="M305.1,54.4l-0.6-3.2L305.1,54.4z"/>
						<path class="st13" d="M285.5,18.5l-0.6-3.2L285.5,18.5z"/>
						<path class="st13" d="M313.4,9.3l1.8-1L313.4,9.3z"/>
						<path class="st13" d="M296.7,1.1l1.8,3.1L296.7,1.1z"/>
						<path class="st13" d="M305.3,8.5l2.4,2.4L305.3,8.5z"/>
						<path class="st13" d="M310,6l2.5,0.5L310,6z"/>
						<path class="st13" d="M311.1,11.4l2-0.7L311.1,11.4z"/>
						<path class="st13" d="M311.8-0.2l2.5,0.6L311.8-0.2z"/>
						<path class="st13" d="M310.3,20l1.8-1L310.3,20z"/>
						<path class="st13" d="M283.4,3l2.5,0.9L283.4,3z"/>
						<path class="st13" d="M307,25.2l-1.7-3.2L307,25.2z"/>
						<path class="st13" d="M283.2,7.4l-1.7-3.2L283.2,7.4z"/>
						<path class="st13" d="M281.5,24.7l-1.7-3.2L281.5,24.7z"/>
						<path class="st13" d="M277,9.2l-2.6-1.5L277,9.2z"/>
						<path class="st13" d="M284.9,32.8l-2.6-1.5L284.9,32.8z"/>
						<path class="st13" d="M300.1,48l-2.6-1.5L300.1,48z"/>
						<path class="st13" d="M282.6,36.7l-1.3-3.3L282.6,36.7z"/>
						<path class="st13" d="M291.2,39.2l-1.3-3.3L291.2,39.2z"/>
						<path class="st13" d="M286.5,12l-3.3-1.4L286.5,12z"/>
						<path class="st13" d="M302.5,43.8l-3.1-0.4L302.5,43.8z"/>
						<path class="st13" d="M299.6,55.8l-3.3-1.4L299.6,55.8z"/>
						<path class="st13" d="M303.9,28.1l-3.3-2.1L303.9,28.1z"/>
						<path class="st13" d="M303.8,37.7l-3.2-1.1L303.8,37.7z"/>
						<path class="st13" d="M281.9,27.8l-2.9-3.4L281.9,27.8z"/>
						<path class="st13" d="M294.2,48.9l-2.9-3.4L294.2,48.9z"/>
						<path class="st13" d="M298.8,8.7l-1.4,1.6L298.8,8.7z"/>
						<path class="st13" d="M301.3,0.6l-1.4,1.6L301.3,0.6z"/>
						<path class="st13" d="M277.4,43.6l1.7,3.2L277.4,43.6z"/>
						<path class="st13" d="M288.2,42.5l1.7,3.2L288.2,42.5z"/>
						<path class="st13" d="M306,38.8l0.5,3.2L306,38.8z"/>
						<path class="st13" d="M300.5,20l0.5,3.2L300.5,20z"/>
						<path class="st13" d="M287.6,47.6l0.5,3.2L287.6,47.6z"/>
						<path class="st13" d="M279.4-0.3l-1.1,2.1L279.4-0.3z"/>
						<path class="st13" d="M313.7,58.2l-1.1,2.1L313.7,58.2z"/>
						<path class="st13" d="M274.6,10.5l2.5,2L274.6,10.5z"/>
						<path class="st13" d="M308.6,63.6l2.5,2L308.6,63.6z"/>
						<path class="st13" d="M276.8,41.1l2.5,2L276.8,41.1z"/>
						<path class="st13" d="M280.5,30.5l-1.5-3.3L280.5,30.5z"/>
						<path class="st13" d="M284.7,22.5l-2,0.7L284.7,22.5z"/>
						<path class="st13" d="M283.1,48.5l-2.5-0.8L283.1,48.5z"/>
						<path class="st13" d="M290.7,25.8l-1.8,1L290.7,25.8z"/>
						<path class="st13" d="M293.9,40.9l-1.8,1L293.9,40.9z"/>
						<path class="st13" d="M279.9,35.3l1.4,3.3L279.9,35.3z"/>
						<path class="st13" d="M303.1,30.9l2.6,1.6L303.1,30.9z"/>
						<path class="st13" d="M302.9,58.9l2.6,1.6L302.9,58.9z"/>
						<path class="st13" d="M303.6,3.8L303,6.3L303.6,3.8z"/>
						<path class="st13" d="M281.8,0.1l-0.9,2.3L281.8,0.1z"/>
						<path class="st13" d="M288.6,0.8l-1.5-3.3L288.6,0.8z"/>
						<path class="st13" d="M276.6,6.6l-1.5-3.3L276.6,6.6z"/>
						<path class="st13" d="M316.5,17.8l-1.2,1.9L316.5,17.8z"/>
						<path class="st13" d="M315.6,42.2l0.6,3.2L315.6,42.2z"/>
						<path class="st13" d="M315.4,57.1l-0.3,2.8L315.4,57.1z"/>
						<path class="st13" d="M310.1,54.8l0.2,3.1L310.1,54.8z"/>
						<path class="st13" d="M275.8,20.2l0.2,3.1L275.8,20.2z"/>
						<path class="st13" d="M277,27.4l0.3,3.1L277,27.4z"/>
						<path class="st13" d="M285.1,46.6l0.3,3.1L285.1,46.6z"/>
						<path class="st13" d="M306.6,6.5l2.3,2.7L306.6,6.5z"/>
						<path class="st13" d="M309.8,31.2l2-0.6L309.8,31.2z"/>
						<path class="st13" d="M311.2,48.4l1.7,3.2L311.2,48.4z"/>
						<path class="st13" d="M295.6,39.5l2.6,1.5L295.6,39.5z"/>
						<path class="st13" d="M285.6,14.3l2.6,1.5L285.6,14.3z"/>
						<path class="st13" d="M290.9,20.4l2.1,2.9L290.9,20.4z"/>
						<path class="st13" d="M285.9,28.7l0.6,3.2L285.9,28.7z"/>
						<path class="st13" d="M304.3,0.1l-0.5-2L304.3,0.1z"/>
						<path class="st13" d="M294.9,6l1.3-0.2L294.9,6z"/>
						<path class="st13" d="M296.9,17.6l1.3-0.2L296.9,17.6z"/>
						<path class="st13" d="M291.5,29.2l1.5,0.4L291.5,29.2z"/>
						<path class="st13" d="M289.2,10.9l1.5,0.4L289.2,10.9z"/>
						<path class="st13" d="M290.7,3.9l1.4,1.5L290.7,3.9z"/>
						<path class="st13" d="M296.7-1.6l1.4,1.5L296.7-1.6z"/>
						<path class="st13" d="M308.6,14.4l1.3-0.2L308.6,14.4z"/>
						<path class="st13" d="M309.6,27.4l1.6,1L309.6,27.4z"/>
						<path class="st13" d="M309.9,33.2l1.5,0.5L309.9,33.2z"/>
						<path class="st13" d="M315.8,35.5l0.7-1.2L315.8,35.5z"/>
						<path class="st13" d="M308.6,43l1.4,1.5L308.6,43z"/>
						<path class="st13" d="M286.9,36.5l1.2-0.4L286.9,36.5z"/>
						<path class="st13" d="M282,16.9l1.5,1.3L282,16.9z"/>
						<path class="st13" d="M277.5,4.3l1.5,0.5L277.5,4.3z"/>
						<path class="st13" d="M293.6,2.4l1.1-0.6L293.6,2.4z"/>
						<path class="st13" d="M311.4,22.7l1.4,1.7L311.4,22.7z"/>
						<path class="st13" d="M294.8,32.8l1.5,0.6L294.8,32.8z"/>
						<path class="st13" d="M313.1,28.3l-1.4-1.6L313.1,28.3z"/>
						<path class="st13" d="M313.6,45.3l-1.3,0.3L313.6,45.3z"/>
						<path class="st13" d="M290.6,17.8l-1.3,0.3L290.6,17.8z"/>
						<path class="st13" d="M276,1.9l0.5-1.4L276,1.9z"/>
						<path class="st13" d="M313.7,48.4l1.3-0.2L313.7,48.4z"/>
						<path class="st13" d="M314.5,51.4l1.1,1.9L314.5,51.4z"/>
						<path class="st13" d="M314,27.6l1.5,0.5L314,27.6z"/>
						<path class="st13" d="M295.6,25.6l1-0.8L295.6,25.6z"/>
						<path class="st13" d="M287.9,33.2l0.8-1.1L287.9,33.2z"/>
						<path class="st13" d="M313.8,42.8l-1.6-1L313.8,42.8z"/>
						<path class="st13" d="M296.7,13.2l-0.3-1.9L296.7,13.2z"/>
						<path class="st13" d="M301,11.3l0.7-1.2L301,11.3z"/>
						<path class="st13" d="M314.1,65.9l-1.4-1.5L314.1,65.9z"/>
						<path class="st13" d="M292.8,38l-0.9-2L292.8,38z"/>
						<path class="st13" d="M288.8,29.6l-1.5-1.2L288.8,29.6z"/>
						<path class="st13" d="M275.6,29.6l-0.4-2L275.6,29.6z"/>
						<path class="st13" d="M297.5,59.1l-1.3-1.8L297.5,59.1z"/>
						<path class="st13" d="M274.6,44l1.5,1.1L274.6,44z"/>
						<path class="st13" d="M296.3,49.6l-0.4-2L296.3,49.6z"/>
						<path class="st13" d="M308.1,35.6l0.3,1.9L308.1,35.6z"/>
						<path class="st13" d="M311.9,53.7l1.6,0.9L311.9,53.7z"/>
						<path class="st13" d="M298.8,58l1.2-0.4L298.8,58z"/>
						<path class="st13" d="M284.9,40.3l0.5-1.4L284.9,40.3z"/>
						<path class="st13" d="M278.2,21l-0.4-2L278.2,21z"/>
						<path class="st13" d="M292.3,2.7l-1.5-0.5L292.3,2.7z"/>
						<path class="st13" d="M304.8,13.2l-1.5-0.5L304.8,13.2z"/>
						<path class="st13" d="M308.5-0.2L307-0.7L308.5-0.2z"/>
						<path class="st13" d="M310.5,41.7l-1.5-0.5L310.5,41.7z"/>
						<path class="st13" d="M289.8,41.1l-1.5-0.5L289.8,41.1z"/>
						<path class="st13" d="M309.7,21.8l-0.8-2L309.7,21.8z"/>
						<path class="st13" d="M299.9,28l-0.8-2L299.9,28z"/>
						<path class="st13" d="M294.5,43.6l-1.4,1.5L294.5,43.6z"/>
						<path class="st13" d="M304.1,18.5l2.4,1.4L304.1,18.5z"/>
						<path class="st13" d="M309.6,60.7l2.4,1.4L309.6,60.7z"/>
						<path class="st13" d="M284.7,8.2l2.4,1.4L284.7,8.2z"/>
						<path class="st13" d="M300.1,18.1l2.4,1.4L300.1,18.1z"/>
						<path class="st13" d="M302.3,53.5l0.5,3L302.3,53.5z"/>
						<path class="st13" d="M282.7,41.7l0.3,3L282.7,41.7z"/>
						<path class="st13" d="M313.7,14.5l0.3,3L313.7,14.5z"/>
						<path class="st13" d="M281.1,8.1l-2.8,2.6L281.1,8.1z"/>
						<path class="st13" d="M287.9,23.8l-2.6,2.9L287.9,23.8z"/>
						<path class="st13" d="M306.7,66.8l-1.1-3.3L306.7,66.8z"/>
						<path class="st13" d="M275.7,46.7l-0.6,2.5L275.7,46.7z"/>
						<path class="st13" d="M311,69.4l-0.3-1.9L311,69.4z"/>
						<path class="st13" d="M292.5,58.4l0.9-1L292.5,58.4z"/>
						<path class="st13" d="M297.9,61.6l-0.6-2L297.9,61.6z"/>
						<path class="st13" d="M284.5,53l0.5-1.4L284.5,53z"/>
						<path class="st13" d="M314.6,70.6l1.3-0.3L314.6,70.6z"/>
						<path class="st13" d="M278.7,48.6l-1.4,0L278.7,48.6z"/>
						<path class="st13" d="M303.9,65.8l-0.1-2.9L303.9,65.8z"/>
						<path class="st13" d="M287.5,52.6l2.3,6L287.5,52.6z"/>
						<path class="st13" d="M301.5,62.4l-1.1,4.6L301.5,62.4z"/>
						<path class="st13" d="M302.8,15.8l-4.4-1L302.8,15.8z"/>
						<path class="st13" d="M313.8,41.1l-3.5-5.6L313.8,41.1z"/>
						<path class="st13" d="M309.6,8l-3.5-5.6L309.6,8z"/>
						<path class="st13" d="M281.5,20.7l-3.5-5.6L281.5,20.7z"/>
						<path class="st13" d="M314.4,37.5l0.2-5.2L314.4,37.5z"/>
						<path class="st13" d="M302.2,32.1l-4.6-1.6L302.2,32.1z"/>
						<path class="st13" d="M292.8,10.4L289,5.1L292.8,10.4z"/>
						<path class="st13" d="M307.2,45.4l-3.7-5.3L307.2,45.4z"/>
						<path class="st13" d="M296.5,36.7l-4.6-3.3L296.5,36.7z"/>
						<path class="st13" d="M315.5,25.3l-1.7-6L315.5,25.3z"/>
						<path class="st13" d="M308.1,55.7l-1.7-6L308.1,55.7z"/>
						<path class="st13" d="M294.7,55.7l-1.7-6L294.7,55.7z"/>
						<path class="st13" d="M315.5,67.9l2.2-0.2L315.5,67.9z"/>
						<path class="st13" d="M317.1,31.5l1.9,3.1L317.1,31.5z"/>
						<path class="st13" d="M316.8-1.5l1.9,3.1L316.8-1.5z"/>
						<path class="st13" d="M318.1,13.5l-2.5-2.2L318.1,13.5z"/>
						<path class="st13" d="M318.6,57.8l-2.5-2.2L318.6,57.8z"/>
						<path class="st13" d="M315.9,3.1l1.5,0.7L315.9,3.1z"/>
						<path class="st13" d="M316.9,51.3l0.9-0.9L316.9,51.3z"/>
						<path class="st13" d="M316.7,25.7l1.4,0.2L316.7,25.7z"/>
						<path class="st13" d="M320.6,44.1l-3.9-5.2L320.6,44.1z"/>
						<path class="st13" d="M321.3,20.4l-3.9-5.2L321.3,20.4z"/>
						<path class="st13" d="M316.4,64.1l1.9-3.8L316.4,64.1z"/>
						<path class="st13" d="M297.3,28.7l-4.5-1.5L297.3,28.7z"/>
						<path class="st13" d="M288.2,8.1l-4.6-3.3L288.2,8.1z"/>
						<path class="st13" d="M294.3,7.8l0,5.3L294.3,7.8z"/>
						<path class="st13" d="M290.9,48.3l0,5.3L290.9,48.3z"/>
					</g>
				</g>
			</g>
		</g>
		<g class="st0">
			<polygon class="st11" points="56.1,-50.7 56.1,-24.5 56.1,-24.5 56.1,-4 56.1,-4 56.1,22.1 56.1,22.1 56.1,58.9 88,40.5 88,14.4 
				88,3.7 88,-6.2 88,-22.4 88,-32.3 88,-42.9 88,-69.1 			"/>
			<g>
				<defs>
					<polygon id="SVGID_86_" points="24.3,-69.1 24.3,-32.3 24.3,-32.3 24.3,-6.2 24.3,-6.2 24.3,14.4 24.3,14.4 24.3,40.5 
						56.1,58.9 56.1,32.7 56.1,22.1 56.1,12.2 56.1,-4 56.1,-13.9 56.1,-24.5 56.1,-50.7 					"/>
				</defs>
				<use xlink:href="#SVGID_86_"  style="overflow:visible;fill:#F66D7B;"/>
				<clipPath id="SVGID_9_">
					<use xlink:href="#SVGID_86_"  style="overflow:visible;"/>
				</clipPath>
				<g class="st15">
					<g>
						<path class="st13" d="M10.8,26.9l1.8-2.4L10.8,26.9z"/>
						<path class="st13" d="M49.8,61.7l1.8-2.4L49.8,61.7z"/>
						<path class="st13" d="M37.5,52.2l1.9-2.2L37.5,52.2z"/>
						<path class="st13" d="M26.5,1.5l1.9-2.2L26.5,1.5z"/>
						<path class="st13" d="M64,2.6l-3.4-2.5L64,2.6z"/>
						<path class="st13" d="M33.8,3.3l-3.4-2.4L33.8,3.3z"/>
						<path class="st13" d="M16.8,1.7l-3.4-2.6L16.8,1.7z"/>
						<path class="st13" d="M21.5,39.2l3.3,3.2L21.5,39.2z"/>
						<path class="st13" d="M15.1-3.8l3.3,3.2L15.1-3.8z"/>
						<path class="st13" d="M36.4,8.5l3.3,3.2L36.4,8.5z"/>
						<path class="st13" d="M49.5-1.2l-0.3,3.8L49.5-1.2z"/>
						<path class="st13" d="M45,26.3l2.3,4.3L45,26.3z"/>
						<path class="st13" d="M50.9,11.3l2.3,4.3L50.9,11.3z"/>
						<path class="st13" d="M54.9,49l-1,3.2L54.9,49z"/>
						<path class="st13" d="M44.1,47.4l-2.1,1.9L44.1,47.4z"/>
						<path class="st13" d="M12.6,34.4l-3.4-1L12.6,34.4z"/>
						<path class="st13" d="M39.5,31.2l2.1,4.4L39.5,31.2z"/>
						<path class="st13" d="M43.8,12.5l3.4,2.5L43.8,12.5z"/>
						<path class="st13" d="M44.5,44.7l3.2,0.3L44.5,44.7z"/>
						<path class="st13" d="M38.8,26.5l3.2,0.3L38.8,26.5z"/>
						<path class="st13" d="M31.1,9.1l3.2,0.3L31.1,9.1z"/>
						<path class="st13" d="M22,9.2l3.2,0.3L22,9.2z"/>
						<path class="st13" d="M51.1,23.2l-0.8-4.4L51.1,23.2z"/>
						<path class="st13" d="M47.5,54.5l-0.8-4.4L47.5,54.5z"/>
						<path class="st13" d="M20.9,6l-0.8-4.4L20.9,6z"/>
						<path class="st13" d="M54.5,8l2.5-1.4L54.5,8z"/>
						<path class="st13" d="M50,15l-2.3-4.3L50,15z"/>
						<path class="st13" d="M15.6,14.4L13.2,10L15.6,14.4z"/>
						<path class="st13" d="M20.2,25.3l-3.5-2L20.2,25.3z"/>
						<path class="st13" d="M40.7,45.9l-3.5-2L40.7,45.9z"/>
						<path class="st13" d="M17.1,30.6l-1.7-4.5L17.1,30.6z"/>
						<path class="st13" d="M28.7,34L27,29.5L28.7,34z"/>
						<path class="st13" d="M44,40.2l-4.1-0.5L44,40.2z"/>
						<path class="st13" d="M40,56.4l-4.4-1.9L40,56.4z"/>
						<path class="st13" d="M45.9,19l-4.4-2.8L45.9,19z"/>
						<path class="st13" d="M45.7,31.9l-4.4-1.5L45.7,31.9z"/>
						<path class="st13" d="M16.1,18.6l-4-4.6L16.1,18.6z"/>
						<path class="st13" d="M32.8,47.2l-4-4.6L32.8,47.2z"/>
						<path class="st13" d="M10.1,39.9l2.3,4.3L10.1,39.9z"/>
						<path class="st13" d="M24.6,38.5l2.3,4.3L24.6,38.5z"/>
						<path class="st13" d="M48.6,33.4l0.7,4.3L48.6,33.4z"/>
						<path class="st13" d="M41.3,8l0.7,4.3L41.3,8z"/>
						<path class="st13" d="M23.9,45.4l0.7,4.3L23.9,45.4z"/>
						<path class="st13" d="M59,59.7l-1.4,2.8L59,59.7z"/>
						<path class="st13" d="M52.2,66.9l3.4,2.7L52.2,66.9z"/>
						<path class="st13" d="M9.2,36.5l3.4,2.7L9.2,36.5z"/>
						<path class="st13" d="M14.2,22.3l-2.1-4.4L14.2,22.3z"/>
						<path class="st13" d="M19.9,11.4l-2.7,0.9L19.9,11.4z"/>
						<path class="st13" d="M17.8,46.6l-3.4-1.1L17.8,46.6z"/>
						<path class="st13" d="M28,15.9l-2.5,1.4L28,15.9z"/>
						<path class="st13" d="M32.3,36.2l-2.5,1.4L32.3,36.2z"/>
						<path class="st13" d="M13.4,28.8l2,4.4L13.4,28.8z"/>
						<path class="st13" d="M44.7,22.8l3.5,2.2L44.7,22.8z"/>
						<path class="st13" d="M44.5,60.6l3.5,2.2L44.5,60.6z"/>
						<path class="st13" d="M62.8,5l-1.6,2.6L62.8,5z"/>
						<path class="st13" d="M61.6,38.1l0.8,4.4L61.6,38.1z"/>
						<path class="st13" d="M61.4,58.2L60.9,62L61.4,58.2z"/>
						<path class="st13" d="M54.2,55.1l0.3,4.2L54.2,55.1z"/>
						<path class="st13" d="M7.8,8.3l0.3,4.2L7.8,8.3z"/>
						<path class="st13" d="M9.5,18l0.4,4.2L9.5,18z"/>
						<path class="st13" d="M20.5,44l0.4,4.2L20.5,44z"/>
						<path class="st13" d="M53.9,23.2l2.7-0.9L53.9,23.2z"/>
						<path class="st13" d="M55.7,46.4l2.3,4.3L55.7,46.4z"/>
						<path class="st13" d="M34.6,34.4l3.5,2L34.6,34.4z"/>
						<path class="st13" d="M21.1,0.3l3.5,2L21.1,0.3z"/>
						<path class="st13" d="M28.3,8.6l2.9,3.9L28.3,8.6z"/>
						<path class="st13" d="M21.5,19.8l0.9,4.4L21.5,19.8z"/>
						<path class="st13" d="M36.4,4.9l1.8-0.2L36.4,4.9z"/>
						<path class="st13" d="M29.1,20.4l2,0.5L29.1,20.4z"/>
						<path class="st13" d="M52.2,0.5L54,0.2L52.2,0.5z"/>
						<path class="st13" d="M53.5,18.1l2.1,1.3L53.5,18.1z"/>
						<path class="st13" d="M53.9,25.9l2,0.6L53.9,25.9z"/>
						<path class="st13" d="M61.9,28.9l1-1.6L61.9,28.9z"/>
						<path class="st13" d="M52.1,39.1l1.9,2L52.1,39.1z"/>
						<path class="st13" d="M22.8,30.4l1.7-0.5L22.8,30.4z"/>
						<path class="st13" d="M16.2,3.9l2,1.8L16.2,3.9z"/>
						<path class="st13" d="M56,11.6l1.8,2.2L56,11.6z"/>
						<path class="st13" d="M33.5,25.4l2.1,0.8L33.5,25.4z"/>
						<path class="st13" d="M58.3,19.3l-1.9-2.1L58.3,19.3z"/>
						<path class="st13" d="M58.9,42.2l-1.7,0.4L58.9,42.2z"/>
						<path class="st13" d="M27.8,5l-1.7,0.4L27.8,5z"/>
						<path class="st13" d="M59.1,46.5l1.8-0.3L59.1,46.5z"/>
						<path class="st13" d="M60.2,50.5l1.5,2.6L60.2,50.5z"/>
						<path class="st13" d="M59.5,18.3l2,0.6L59.5,18.3z"/>
						<path class="st13" d="M34.6,15.7l1.4-1.1L34.6,15.7z"/>
						<path class="st13" d="M24.3,25.9l1.1-1.4L24.3,25.9z"/>
						<path class="st13" d="M59.3,38.8l-2.1-1.4L59.3,38.8z"/>
						<path class="st13" d="M59.6,70.1L57.7,68L59.6,70.1z"/>
						<path class="st13" d="M30.8,32.4l-1.2-2.7L30.8,32.4z"/>
						<path class="st13" d="M25.5,21l-2.1-1.6L25.5,21z"/>
						<path class="st13" d="M7.5,21l-0.5-2.6L7.5,21z"/>
						<path class="st13" d="M37.2,60.9l-1.7-2.4L37.2,60.9z"/>
						<path class="st13" d="M6.3,40.5L8.3,42L6.3,40.5z"/>
						<path class="st13" d="M35.5,48.1L35,45.4L35.5,48.1z"/>
						<path class="st13" d="M51.5,29.2l0.4,2.6L51.5,29.2z"/>
						<path class="st13" d="M56.7,53.5l2.1,1.2L56.7,53.5z"/>
						<path class="st13" d="M38.9,59.4l1.7-0.5L38.9,59.4z"/>
						<path class="st13" d="M20.2,35.5l0.7-1.9L20.2,35.5z"/>
						<path class="st13" d="M11.2,9.4l-0.6-2.7L11.2,9.4z"/>
						<path class="st13" d="M54.7,37.4l-2.1-0.7L54.7,37.4z"/>
						<path class="st13" d="M26.8,36.5l-2.1-0.7L26.8,36.5z"/>
						<path class="st13" d="M53.7,10.4l-1.1-2.7L53.7,10.4z"/>
						<path class="st13" d="M40.4,18.8l-1.1-2.7L40.4,18.8z"/>
						<path class="st13" d="M33.2,40l-1.9,2L33.2,40z"/>
						<path class="st13" d="M46.1,6.1l3.3,1.9L46.1,6.1z"/>
						<path class="st13" d="M53.5,63.1l3.3,1.9L53.5,63.1z"/>
						<path class="st13" d="M40.7,5.5L44,7.3L40.7,5.5z"/>
						<path class="st13" d="M43.7,53.3l0.7,4.1L43.7,53.3z"/>
						<path class="st13" d="M17.2,37.4l0.4,4L17.2,37.4z"/>
						<path class="st13" d="M59,0.6l0.4,4L59,0.6z"/>
						<path class="st13" d="M24.2,13.2L20.6,17L24.2,13.2z"/>
						<path class="st13" d="M49.6,71.2l-1.5-4.5L49.6,71.2z"/>
						<path class="st13" d="M7.7,44.1l-0.9,3.4L7.7,44.1z"/>
						<path class="st13" d="M55.4,74.8l-0.4-2.6L55.4,74.8z"/>
						<path class="st13" d="M30.5,60l1.1-1.4L30.5,60z"/>
						<path class="st13" d="M37.7,64.3l-0.8-2.7L37.7,64.3z"/>
						<path class="st13" d="M19.6,52.7l0.7-1.9L19.6,52.7z"/>
						<path class="st13" d="M60.3,76.4L62,76L60.3,76.4z"/>
						<path class="st13" d="M11.8,46.7l-1.9,0L11.8,46.7z"/>
						<path class="st13" d="M45.8,69.9L45.6,66L45.8,69.9z"/>
						<path class="st13" d="M23.6,52.1l3.1,8.1L23.6,52.1z"/>
						<path class="st13" d="M42.6,65.4l-1.4,6.2L42.6,65.4z"/>
						<path class="st13" d="M44.4,2.3l-6-1.3L44.4,2.3z"/>
						<path class="st13" d="M59.2,36.6L54.5,29L59.2,36.6z"/>
						<path class="st13" d="M15.6,9l-4.7-7.5L15.6,9z"/>
						<path class="st13" d="M60,31.7l0.3-7.1L60,31.7z"/>
						<path class="st13" d="M43.5,24.4l-6.2-2.2L43.5,24.4z"/>
						<path class="st13" d="M50.2,42.4l-5-7.2L50.2,42.4z"/>
						<path class="st13" d="M35.9,30.7l-6.2-4.5L35.9,30.7z"/>
						<path class="st13" d="M61.4,15.2l-2.3-8.1L61.4,15.2z"/>
						<path class="st13" d="M51.5,56.3l-2.3-8.1L51.5,56.3z"/>
						<path class="st13" d="M33.4,56.2l-2.3-8.1L33.4,56.2z"/>
						<path class="st13" d="M61.6,72.8l3-0.3L61.6,72.8z"/>
						<path class="st13" d="M63.7,23.6l2.5,4.2L63.7,23.6z"/>
						<path class="st13" d="M65.7,59.2l-3.4-2.9L65.7,59.2z"/>
						<path class="st13" d="M63.4,50.3l1.2-1.3L63.4,50.3z"/>
						<path class="st13" d="M63.1,15.7l2,0.2L63.1,15.7z"/>
						<path class="st13" d="M68.3,40.6l-5.3-7L68.3,40.6z"/>
						<path class="st13" d="M69.3,8.6l-5.3-7L69.3,8.6z"/>
						<path class="st13" d="M62.8,67.6l2.6-5.1L62.8,67.6z"/>
						<path class="st13" d="M37,19.7l-6.1-2L37,19.7z"/>
						<path class="st13" d="M28.3,46.3l0,7.2L28.3,46.3z"/>
					</g>
				</g>
			</g>
		</g>
		<g class="st0">
			<polygon class="st1" points="317.4,402.1 295.9,389.7 237.9,423.3 259.4,435.7 			"/>
			<g>
				<defs>
					<polygon id="SVGID_84_" points="317.4,402.1 259.4,435.7 259.4,460.4 317.4,426.9 					"/>
				</defs>
				<clipPath id="SVGID_10_">
					<use xlink:href="#SVGID_84_"  style="overflow:visible;"/>
				</clipPath>
				<g class="st16">
					<rect x="259.4" y="397" class="st4" width="2" height="67.4"/>
					<rect x="265" y="397" class="st4" width="2" height="67.4"/>
					<rect x="270.6" y="397" class="st4" width="2" height="67.4"/>
					<rect x="276.2" y="397" class="st4" width="2" height="67.4"/>
					<rect x="281.8" y="397" class="st4" width="2" height="67.4"/>
					<rect x="287.4" y="397" class="st4" width="2" height="67.4"/>
					<rect x="293" y="397" class="st4" width="2" height="67.4"/>
					<rect x="298.6" y="397" class="st4" width="2" height="67.4"/>
					<rect x="304.2" y="397" class="st4" width="2" height="67.4"/>
					<rect x="309.8" y="397" class="st4" width="2" height="67.4"/>
					<rect x="315.4" y="397" class="st4" width="2" height="67.4"/>
					<rect x="320.9" y="397" class="st4" width="2" height="67.4"/>
					<rect x="326.5" y="397" class="st4" width="2" height="67.4"/>
					<rect x="332.1" y="397" class="st4" width="2" height="67.4"/>
				</g>
			</g>
		</g>
		<g class="st0">
			<polygon class="st2" points="222.7,341.2 173.1,369.8 123.5,341.2 173.1,312.6 			"/>
			<polygon class="st6" points="222.7,398.5 173.1,427.1 173.1,369.8 222.7,341.2 			"/>
			<g>
				<defs>
					<polygon id="SVGID_82_" points="123.5,398.5 173.1,427.1 173.1,369.8 123.5,341.2 					"/>
				</defs>
				<clipPath id="SVGID_11_">
					<use xlink:href="#SVGID_82_"  style="overflow:visible;"/>
				</clipPath>
				<g class="st17">
					<rect x="110.7" y="397.6" class="st8" width="62.4" height="1.9"/>
					<rect x="110.7" y="392.1" class="st8" width="62.4" height="1.9"/>
					<rect x="110.7" y="386.5" class="st8" width="62.4" height="1.9"/>
					<rect x="110.7" y="381" class="st8" width="62.4" height="1.9"/>
					<rect x="110.7" y="375.5" class="st8" width="62.4" height="1.9"/>
					<rect x="110.7" y="370" class="st8" width="62.4" height="1.9"/>
					<rect x="110.7" y="364.5" class="st8" width="62.4" height="1.9"/>
					<rect x="110.7" y="358.9" class="st8" width="62.4" height="1.9"/>
					<rect x="110.7" y="353.4" class="st8" width="62.4" height="1.9"/>
					<rect x="110.7" y="347.9" class="st8" width="62.4" height="1.9"/>
					<rect x="110.7" y="342.4" class="st8" width="62.4" height="1.9"/>
					<rect x="110.7" y="336.9" class="st8" width="62.4" height="1.9"/>
					<rect x="110.7" y="331.3" class="st8" width="62.4" height="1.9"/>
					<rect x="110.7" y="325.8" class="st8" width="62.4" height="1.9"/>
				</g>
			</g>
		</g>
		<g class="st0">
			<polygon class="st2" points="335.1,362.9 311.5,376.5 288,362.9 311.5,349.3 			"/>
			<polygon class="st11" points="311.5,376.5 311.5,395.9 311.5,395.9 311.5,411.1 311.5,411.1 311.5,430.4 311.5,430.4 
				311.5,457.6 335.1,444 335.1,424.7 335.1,416.8 335.1,409.5 335.1,397.5 335.1,390.1 335.1,382.3 335.1,362.9 			"/>
			<g>
				<defs>
					<polygon id="SVGID_80_" points="288,362.9 288,390.1 288,390.1 288,409.5 288,409.5 288,424.7 288,424.7 288,444 311.5,457.6 
						311.5,438.3 311.5,430.4 311.5,423.1 311.5,411.1 311.5,403.7 311.5,395.9 311.5,376.5 					"/>
				</defs>
				<use xlink:href="#SVGID_80_"  style="overflow:visible;fill:#F66D7B;"/>
				<clipPath id="SVGID_12_">
					<use xlink:href="#SVGID_80_"  style="overflow:visible;"/>
				</clipPath>
				<g class="st18">
					<g>
						<path class="st13" d="M306.7,375.7l-1.1-3.3L306.7,375.7z"/>
						<path class="st13" d="M296,388.4l-2.3-0.1L296,388.4z"/>
						<path class="st13" d="M303.1,388.2l-2.5-1.1L303.1,388.2z"/>
						<path class="st13" d="M279.8,369.9l-1.5-3.3L279.8,369.9z"/>
						<path class="st13" d="M277.5,383.2l0.2-2.8L277.5,383.2z"/>
						<path class="st13" d="M293.3,383l0.2-2.8L293.3,383z"/>
						<path class="st13" d="M283.1,390.6l0.2-2.8L283.1,390.6z"/>
						<path class="st13" d="M285.4,390.9l1.4-1.6L285.4,390.9z"/>
						<path class="st13" d="M286.8,374.7l2.5,2.2L286.8,374.7z"/>
						<path class="st13" d="M289,383.9l2.5,2.2L289,383.9z"/>
						<path class="st13" d="M295.8,380.1l1.1,3.3L295.8,380.1z"/>
						<path class="st13" d="M301.8,397.8l1.1,3.3L301.8,397.8z"/>
						<path class="st13" d="M310.5,400.3l-0.2,2.8L310.5,400.3z"/>
						<path class="st13" d="M282.2,376.7l-1.1,2.1L282.2,376.7z"/>
						<path class="st13" d="M291.9,379.5l-0.7,2.5L291.9,379.5z"/>
						<path class="st13" d="M299.5,395.5l-0.7,2.5L299.5,395.5z"/>
						<path class="st13" d="M280.9,392.4l2.5,0.9L280.9,392.4z"/>
						<path class="st13" d="M275.7,355.6l-0.6,2.5L275.7,355.6z"/>
						<path class="st13" d="M284.3,401.4l1.2-2L284.3,401.4z"/>
						<path class="st13" d="M313,386.2l1.8-1L313,386.2z"/>
						<path class="st13" d="M276.6,385.3l2.6,1.2L276.6,385.3z"/>
						<path class="st13" d="M288.7,389.2l2.4,2.4L288.7,389.2z"/>
						<path class="st13" d="M311.8,399.8l2.5,0.6L311.8,399.8z"/>
						<path class="st13" d="M289.9,375.6l2.3,0.1L289.9,375.6z"/>
						<path class="st13" d="M289.8,369.3l2.5,1L289.8,369.3z"/>
						<path class="st13" d="M279.7,384l-0.4-3.2L279.7,384z"/>
						<path class="st13" d="M278,370.9l-1.7-3.2L278,370.9z"/>
						<path class="st13" d="M316.1,391.8l-1.7-3.2L316.1,391.8z"/>
						<path class="st13" d="M289.4,396.9l-3-3.3L289.4,396.9z"/>
						<path class="st13" d="M301.3,400.6l-1.4,1.6L301.3,400.6z"/>
						<path class="st13" d="M290.3,371.9l-1.4,1.6L290.3,371.9z"/>
						<path class="st13" d="M283.9,377.4l1.7-1.2L283.9,377.4z"/>
						<path class="st13" d="M277,388.2l2.1,2.9L277,388.2z"/>
						<path class="st13" d="M279.4,399.7l-1.1,2.1L279.4,399.7z"/>
						<path class="st13" d="M306.9,392.5l2.5,2L306.9,392.5z"/>
						<path class="st13" d="M306.3,388.9l-0.7,2.5L306.3,388.9z"/>
						<path class="st13" d="M298.5,385.8l-0.7,2.5L298.5,385.8z"/>
						<path class="st13" d="M281.8,400.1l-0.9,2.3L281.8,400.1z"/>
						<path class="st13" d="M280,375.5l-2.1-2.9L280,375.5z"/>
						<path class="st13" d="M296,378.5l0.7-2.4L296,378.5z"/>
						<path class="st13" d="M302.6,382.2l0.7-2.4L302.6,382.2z"/>
						<path class="st13" d="M300.8,392.8l-0.5-3.2L300.8,392.8z"/>
						<path class="st13" d="M288.6,400.8l-1.5-3.3L288.6,400.8z"/>
						<path class="st13" d="M313.4,393.1l1.9,3.1L313.4,393.1z"/>
						<path class="st13" d="M281.4,365.4l2.4,0.2L281.4,365.4z"/>
						<path class="st13" d="M292.4,390.2l2.3,2.7L292.4,390.2z"/>
						<path class="st13" d="M285.7,367.1l2.3,0L285.7,367.1z"/>
						<path class="st13" d="M301.8,384.6l2.3,0L301.8,384.6z"/>
						<path class="st13" d="M278.4,376.1l-1.5-1.4L278.4,376.1z"/>
						<path class="st13" d="M291.5,399.3l-0.5-2L291.5,399.3z"/>
						<path class="st13" d="M304.3,400.1l-0.5-2L304.3,400.1z"/>
						<path class="st13" d="M309.4,387l0.5-1.4L309.4,387z"/>
						<path class="st13" d="M312.4,382.7l0.5-1.4L312.4,382.7z"/>
						<path class="st13" d="M281.9,371.3l0.9-0.9L281.9,371.3z"/>
						<path class="st13" d="M296.7,398.4l1.4,1.5L296.7,398.4z"/>
						<path class="st13" d="M296.1,391.2l1.5,0.5L296.1,391.2z"/>
						<path class="st13" d="M278.5,396.8l0.9-0.9L278.5,396.8z"/>
						<path class="st13" d="M274.9,382l0.9-0.9L274.9,382z"/>
						<path class="st13" d="M282,362.9l0-1.8L282,362.9z"/>
						<path class="st13" d="M297.4,374.7l0.5-1.4L297.4,374.7z"/>
						<path class="st13" d="M308.4,379.3l0-1.8L308.4,379.3z"/>
						<path class="st13" d="M277.6,392.4l-1.5-1.2L277.6,392.4z"/>
						<path class="st13" d="M296.3,385.6l-1.5-1.2L296.3,385.6z"/>
						<path class="st13" d="M276,401.9l0.5-1.4L276,401.9z"/>
						<path class="st13" d="M313.3,396.5l1.1,1.9L313.3,396.5z"/>
						<path class="st13" d="M311,378.3l-0.3-1.9L311,378.3z"/>
						<path class="st13" d="M292.5,367.3l0.9-1L292.5,367.3z"/>
						<path class="st13" d="M297.9,370.5l-0.6-2L297.9,370.5z"/>
						<path class="st13" d="M284.5,361.9l0.5-1.4L284.5,361.9z"/>
						<path class="st13" d="M314.6,379.5l1.3-0.3L314.6,379.5z"/>
						<path class="st13" d="M290.3,393.2l-1.6-0.9L290.3,393.2z"/>
						<path class="st13" d="M302.7,392.1l0.2-1.7L302.7,392.1z"/>
						<path class="st13" d="M307.5,387.7l-1-1.9L307.5,387.7z"/>
						<path class="st13" d="M279,360.6l-0.2,1.7L279,360.6z"/>
						<path class="st13" d="M278.7,357.5l-1.4,0L278.7,357.5z"/>
						<path class="st13" d="M281.9,368l-1.4-0.1L281.9,368z"/>
						<path class="st13" d="M296,371.7l-0.9,1L296,371.7z"/>
						<path class="st13" d="M299.5,378.2l1.6,0.9L299.5,378.2z"/>
						<path class="st13" d="M294.2,378.6l-1.5-0.5L294.2,378.6z"/>
						<path class="st13" d="M278.9,378.6l-1.5-0.5L278.9,378.6z"/>
						<path class="st13" d="M308.5,399.8l-1.5-0.5L308.5,399.8z"/>
						<path class="st13" d="M300.3,383.1l-0.8-2L300.3,383.1z"/>
						<path class="st13" d="M292.6,374.2l2.4,1.4L292.6,374.2z"/>
						<path class="st13" d="M284.7,380.1l2.4,1.4L284.7,380.1z"/>
						<path class="st13" d="M312.7,388.9l-1.8,0.8L312.7,388.9z"/>
						<path class="st13" d="M306.2,378.1l-1.8,0.8L306.2,378.1z"/>
						<path class="st13" d="M303.9,374.7l-0.1-2.9L303.9,374.7z"/>
						<path class="st13" d="M287.5,361.5l2.3,6L287.5,361.5z"/>
						<path class="st13" d="M301.5,371.3l-1.1,4.6L301.5,371.3z"/>
						<path class="st13" d="M291.1,387.8l-4.4-1L291.1,387.8z"/>
						<path class="st13" d="M281.3,385.5l0.3,5.5L281.3,385.5z"/>
						<path class="st13" d="M284.9,388.2l-3.5-5.6L284.9,388.2z"/>
						<path class="st13" d="M290.8,383.6l-3.5-5.6L290.8,383.6z"/>
						<path class="st13" d="M293.3,398.6l0.1-5.3L293.3,398.6z"/>
						<path class="st13" d="M310.7,397.7l0.2-5.2L310.7,397.7z"/>
						<path class="st13" d="M305.2,396.3l-4.6-1.6L305.2,396.3z"/>
						<path class="st13" d="M308.9,398.1l-3.7-5.3L308.9,398.1z"/>
						<path class="st13" d="M316.8,398.5l1.9,3.1L316.8,398.5z"/>
						<path class="st13" d="M318.3,394.4l-1.8,1L318.3,394.4z"/>
						<path class="st13" d="M318.7,389.7l-1.4-1.6L318.7,389.7z"/>
						<path class="st13" d="M316.2,385.8l1.9-3.8L316.2,385.8z"/>
						<path class="st13" d="M285.6,396.2l-4.3-0.3L285.6,396.2z"/>
						<path class="st13" d="M287.5,384.5l-4.6-3.3L287.5,384.5z"/>
						<path class="st13" d="M285.2,368.7l0,5.3L285.2,368.7z"/>
						<path class="st13" d="M310.3,381.4l-2.9,2.5L310.3,381.4z"/>
					</g>
				</g>
			</g>
		</g>
		<g class="st0">
			<polygon class="st2" points="88,330.9 56.1,349.3 24.3,330.9 56.1,312.6 			"/>
			<polygon class="st11" points="56.1,349.3 56.1,375.5 56.1,375.5 56.1,396 56.1,396 56.1,422.1 56.1,422.1 56.1,458.9 88,440.5 
				88,414.4 88,403.7 88,393.8 88,377.6 88,367.7 88,357.1 88,330.9 			"/>
			<g>
				<defs>
					<polygon id="SVGID_78_" points="24.3,330.9 24.3,367.7 24.3,367.7 24.3,393.8 24.3,393.8 24.3,414.4 24.3,414.4 24.3,440.5 
						56.1,458.9 56.1,432.7 56.1,422.1 56.1,412.2 56.1,396 56.1,386.1 56.1,375.5 56.1,349.3 					"/>
				</defs>
				<use xlink:href="#SVGID_78_"  style="overflow:visible;fill:#F66D7B;"/>
				<clipPath id="SVGID_13_">
					<use xlink:href="#SVGID_78_"  style="overflow:visible;"/>
				</clipPath>
				<g class="st19">
					<g>
						<path class="st13" d="M26.5,401.5l1.9-2.2L26.5,401.5z"/>
						<path class="st13" d="M49.6,348.1l-1.5-4.5L49.6,348.1z"/>
						<path class="st13" d="M62.8,388.1l-3.4-2.5L62.8,388.1z"/>
						<path class="st13" d="M64,402.6l-3.4-2.5L64,402.6z"/>
						<path class="st13" d="M47.3,395.4l-3.2-3.5L47.3,395.4z"/>
						<path class="st13" d="M35.2,365.4l-3.1-0.1L35.2,365.4z"/>
						<path class="st13" d="M44.8,365.1l-3.4-1.4L44.8,365.1z"/>
						<path class="st13" d="M16.8,401.7l-3.4-2.6L16.8,401.7z"/>
						<path class="st13" d="M13.3,340.3l-2.1-4.4L13.3,340.3z"/>
						<path class="st13" d="M10.2,358.3l0.3-3.8L10.2,358.3z"/>
						<path class="st13" d="M31.5,358l0.3-3.8L31.5,358z"/>
						<path class="st13" d="M17.7,368.4l0.3-3.8L17.7,368.4z"/>
						<path class="st13" d="M20.9,368.8l1.9-2.2L20.9,368.8z"/>
						<path class="st13" d="M15.1,396.2l3.3,3.2L15.1,396.2z"/>
						<path class="st13" d="M22.8,346.9l3.3,3L22.8,346.9z"/>
						<path class="st13" d="M25.8,359.2l3.3,3L25.8,359.2z"/>
						<path class="st13" d="M34.8,354.2l1.5,4.5L34.8,354.2z"/>
						<path class="st13" d="M43,378.1l1.5,4.5L43,378.1z"/>
						<path class="st13" d="M54.7,381.5l-0.3,3.8L54.7,381.5z"/>
						<path class="st13" d="M49.5,398.8l-0.3,3.8L49.5,398.8z"/>
						<path class="st13" d="M16.5,349.5l-1.4,2.8L16.5,349.5z"/>
						<path class="st13" d="M29.6,353.3l-0.9,3.4L29.6,353.3z"/>
						<path class="st13" d="M39.9,375l-0.9,3.4L39.9,375z"/>
						<path class="st13" d="M38.2,389.7l3.4,1.3L38.2,389.7z"/>
						<path class="st13" d="M14.7,370.7l3.4,1.3L14.7,370.7z"/>
						<path class="st13" d="M7.7,321.1l-0.9,3.4L7.7,321.1z"/>
						<path class="st13" d="M19.4,382.9l1.6-2.6L19.4,382.9z"/>
						<path class="st13" d="M58.2,362.4l2.5-1.4L58.2,362.4z"/>
						<path class="st13" d="M58.6,393.6l2.5-1.4L58.6,393.6z"/>
						<path class="st13" d="M9,361.2l3.4,1.6L9,361.2z"/>
						<path class="st13" d="M25.3,366.4l3.2,3.3L25.3,366.4z"/>
						<path class="st13" d="M36.1,382.6l2.4,4.3L36.1,382.6z"/>
						<path class="st13" d="M47.7,392.5l3.3,3.2L47.7,392.5z"/>
						<path class="st13" d="M54,389.2l3.3,0.7L54,389.2z"/>
						<path class="st13" d="M55.5,396.5l2.7-1L55.5,396.5z"/>
						<path class="st13" d="M56.6,380.7l3.3,0.8L56.6,380.7z"/>
						<path class="st13" d="M27,348.1l3.2,0.2L27,348.1z"/>
						<path class="st13" d="M26.8,339.6l3.4,1.3L26.8,339.6z"/>
						<path class="st13" d="M18.2,385l3.4,1.3L18.2,385z"/>
						<path class="st13" d="M13.1,359.5l-0.6-4.3L13.1,359.5z"/>
						<path class="st13" d="M10.9,341.7l-2.3-4.3L10.9,341.7z"/>
						<path class="st13" d="M62.3,369.9l-2.3-4.3L62.3,369.9z"/>
						<path class="st13" d="M17.9,391l-2.3-4.3L17.9,391z"/>
						<path class="st13" d="M9.4,393.5l-3.5-2L9.4,393.5z"/>
						<path class="st13" d="M22.4,397.2l-4.4-1.9L22.4,397.2z"/>
						<path class="st13" d="M26.2,376.9l-4-4.4L26.2,376.9z"/>
						<path class="st13" d="M39,392.8L37,395L39,392.8z"/>
						<path class="st13" d="M42.4,381.8l-1.9,2.2L42.4,381.8z"/>
						<path class="st13" d="M27.4,343.1l-1.9,2.2L27.4,343.1z"/>
						<path class="st13" d="M18.8,350.5l2.3-1.7L18.8,350.5z"/>
						<path class="st13" d="M9.4,365.1l2.9,3.9L9.4,365.1z"/>
						<path class="st13" d="M12.7,380.7l-1.4,2.8L12.7,380.7z"/>
						<path class="st13" d="M6.2,395.3l3.4,2.7L6.2,395.3z"/>
						<path class="st13" d="M49.9,370.9l3.4,2.7L49.9,370.9z"/>
						<path class="st13" d="M45.5,386.2l-0.9,3.3L45.5,386.2z"/>
						<path class="st13" d="M49.1,366.1l-0.9,3.3L49.1,366.1z"/>
						<path class="st13" d="M38.5,361.8l-0.9,3.3L38.5,361.8z"/>
						<path class="st13" d="M15.9,381.2l-1.2,3.1L15.9,381.2z"/>
						<path class="st13" d="M13.6,348l-2.9-3.9L13.6,348z"/>
						<path class="st13" d="M35.1,352l0.9-3.3L35.1,352z"/>
						<path class="st13" d="M44.1,356.9l0.9-3.3L44.1,356.9z"/>
						<path class="st13" d="M41.6,371.3l-0.7-4.3L41.6,371.3z"/>
						<path class="st13" d="M25.2,382.1l-2-4.4L25.2,382.1z"/>
						<path class="st13" d="M8.9,390l-2-4.4L8.9,390z"/>
						<path class="st13" d="M58.6,371.8l2.5,4.2L58.6,371.8z"/>
						<path class="st13" d="M15.4,334.3l3.2,0.3L15.4,334.3z"/>
						<path class="st13" d="M30.3,367.7l3.1,3.7L30.3,367.7z"/>
						<path class="st13" d="M49.5,389.9l3.1,3.7L49.5,389.9z"/>
						<path class="st13" d="M21.1,400.3l3.5,2L21.1,400.3z"/>
						<path class="st13" d="M21.3,336.7l3.1,0L21.3,336.7z"/>
						<path class="st13" d="M43,360.3l3.1,0L43,360.3z"/>
						<path class="st13" d="M11.4,348.8l-2-1.9L11.4,348.8z"/>
						<path class="st13" d="M29,380.1l-0.7-2.7L29,380.1z"/>
						<path class="st13" d="M46.4,381.2l-0.7-2.7L46.4,381.2z"/>
						<path class="st13" d="M53.3,363.5l0.7-1.9L53.3,363.5z"/>
						<path class="st13" d="M57.4,357.7l0.7-1.9L57.4,357.7z"/>
						<path class="st13" d="M16.1,342.3l1.2-1.2L16.1,342.3z"/>
						<path class="st13" d="M33.6,389.1l1.8-0.2L33.6,389.1z"/>
						<path class="st13" d="M26,395.8l2,0.5L26,395.8z"/>
						<path class="st13" d="M28.1,386.3l1.9,2.1L28.1,386.3z"/>
						<path class="st13" d="M36.1,378.9L38,381L36.1,378.9z"/>
						<path class="st13" d="M52.2,400.5l1.8-0.3L52.2,400.5z"/>
						<path class="st13" d="M10.1,386.9l2.1,0.7L10.1,386.9z"/>
						<path class="st13" d="M31.9,384.3l1.5-0.8L31.9,384.3z"/>
						<path class="st13" d="M35.3,369.2l2.1,0.7L35.3,369.2z"/>
						<path class="st13" d="M11.6,376.7l1.3-1.2L11.6,376.7z"/>
						<path class="st13" d="M6.7,356.7l1.3-1.2L6.7,356.7z"/>
						<path class="st13" d="M16.2,330.9l-0.1-2.5L16.2,330.9z"/>
						<path class="st13" d="M37,346.9l0.6-2L37,346.9z"/>
						<path class="st13" d="M51.9,353.1l0-2.5L51.9,353.1z"/>
						<path class="st13" d="M10.4,370.8l-2.1-1.7L10.4,370.8z"/>
						<path class="st13" d="M35.5,361.5l-2.1-1.7L35.5,361.5z"/>
						<path class="st13" d="M8.2,383.6l0.7-1.9L8.2,383.6z"/>
						<path class="st13" d="M58.5,376.3l1.5,2.6L58.5,376.3z"/>
						<path class="st13" d="M55.4,351.7l-0.4-2.6L55.4,351.7z"/>
						<path class="st13" d="M30.5,336.9l1.1-1.4L30.5,336.9z"/>
						<path class="st13" d="M37.7,341.2l-0.8-2.7L37.7,341.2z"/>
						<path class="st13" d="M19.6,329.6l0.7-1.9L19.6,329.6z"/>
						<path class="st13" d="M60.3,353.3l1.7-0.4L60.3,353.3z"/>
						<path class="st13" d="M27.5,371.9l-2.1-1.2L27.5,371.9z"/>
						<path class="st13" d="M36.1,398.8l-0.4-2.6L36.1,398.8z"/>
						<path class="st13" d="M41.9,396.3l0.9-1.6L41.9,396.3z"/>
						<path class="st13" d="M44.3,370.4l0.3-2.3L44.3,370.4z"/>
						<path class="st13" d="M50.7,364.4l-1.4-2.6L50.7,364.4z"/>
						<path class="st13" d="M12.3,327.8l-0.2,2.3L12.3,327.8z"/>
						<path class="st13" d="M11.8,323.6l-1.9,0L11.8,323.6z"/>
						<path class="st13" d="M16.1,337.8l-1.9-0.1L16.1,337.8z"/>
						<path class="st13" d="M35.2,342.8l-1.2,1.3L35.2,342.8z"/>
						<path class="st13" d="M39.9,351.5l2.1,1.2L39.9,351.5z"/>
						<path class="st13" d="M30.1,384.7l-2.1-0.7L30.1,384.7z"/>
						<path class="st13" d="M32.7,352.1l-2.1-0.7L32.7,352.1z"/>
						<path class="st13" d="M47.1,398.9l-2.1-0.7L47.1,398.9z"/>
						<path class="st13" d="M12.1,352.1l-2.1-0.7L12.1,352.1z"/>
						<path class="st13" d="M52.1,380.8l-2.1-0.7L52.1,380.8z"/>
						<path class="st13" d="M41,358.2l-1.1-2.7L41,358.2z"/>
						<path class="st13" d="M30.6,346.2l3.3,1.9L30.6,346.2z"/>
						<path class="st13" d="M19.9,392.1l3.3,1.9L19.9,392.1z"/>
						<path class="st13" d="M19.9,354.1l3.3,1.9L19.9,354.1z"/>
						<path class="st13" d="M57.7,366.1l-2.5,1L57.7,366.1z"/>
						<path class="st13" d="M49,351.5l-2.5,1L49,351.5z"/>
						<path class="st13" d="M45.8,346.9l-0.2-3.9L45.8,346.9z"/>
						<path class="st13" d="M59,400.6l0.4,4L59,400.6z"/>
						<path class="st13" d="M15,392l-3.8,3.6L15,392z"/>
						<path class="st13" d="M23.6,329l3.1,8.1L23.6,329z"/>
						<path class="st13" d="M42.6,342.3l-1.4,6.2L42.6,342.3z"/>
						<path class="st13" d="M28.5,364.6l-6-1.3L28.5,364.6z"/>
						<path class="st13" d="M15.3,361.4l0.4,7.5L15.3,361.4z"/>
						<path class="st13" d="M53.5,391.9l-4.7-7.5L53.5,391.9z"/>
						<path class="st13" d="M20.2,365.1l-4.7-7.5L20.2,365.1z"/>
						<path class="st13" d="M28.1,358.8l-4.7-7.5L28.1,358.8z"/>
						<path class="st13" d="M31.4,379.2l0.1-7.2L31.4,379.2z"/>
						<path class="st13" d="M55.1,377.9l0.3-7.1L55.1,377.9z"/>
						<path class="st13" d="M47.5,376l-6.2-2.2L47.5,376z"/>
						<path class="st13" d="M30.8,395.1l-5-7.2L30.8,395.1z"/>
						<path class="st13" d="M52.5,378.5l-5-7.2L52.5,378.5z"/>
						<path class="st13" d="M63.3,379l2.5,4.2L63.3,379z"/>
						<path class="st13" d="M65,399.3l-3.4-2.9L65,399.3z"/>
						<path class="st13" d="M65.3,373.5l-2.5,1.4L65.3,373.5z"/>
						<path class="st13" d="M62,385.2l2.1,0.9L62,385.2z"/>
						<path class="st13" d="M65.9,367.1l-1.9-2.2L65.9,367.1z"/>
						<path class="st13" d="M62.4,361.8l2.6-5.1L62.4,361.8z"/>
						<path class="st13" d="M21.1,375.8l-5.8-0.4L21.1,375.8z"/>
						<path class="st13" d="M24.6,392l-6.2-4.5L24.6,392z"/>
						<path class="st13" d="M23.6,360.1l-6.2-4.5L23.6,360.1z"/>
						<path class="st13" d="M32.8,391.6l0,7.2L32.8,391.6z"/>
						<path class="st13" d="M20.5,338.8l0,7.2L20.5,338.8z"/>
						<path class="st13" d="M54.5,355.9l-4,3.3L54.5,355.9z"/>
					</g>
				</g>
			</g>
		</g>
		<g class="st0">
			<polygon class="st1" points="222.7,251.7 201.2,239.3 143.3,272.8 164.7,285.2 			"/>
			<polygon class="st2" points="143.3,297.6 164.7,310 164.7,285.2 143.3,272.8 			"/>
			<g>
				<defs>
					<polygon id="SVGID_76_" points="222.7,251.7 164.7,285.2 164.7,310 222.7,276.4 					"/>
				</defs>
				<clipPath id="SVGID_14_">
					<use xlink:href="#SVGID_76_"  style="overflow:visible;"/>
				</clipPath>
				<g class="st20">
					<rect x="164.7" y="246.5" class="st4" width="2" height="67.4"/>
					<rect x="170.3" y="246.5" class="st4" width="2" height="67.4"/>
					<rect x="175.9" y="246.5" class="st4" width="2" height="67.4"/>
					<rect x="181.5" y="246.5" class="st4" width="2" height="67.4"/>
					<rect x="187.1" y="246.5" class="st4" width="2" height="67.4"/>
					<rect x="192.7" y="246.5" class="st4" width="2" height="67.4"/>
					<rect x="198.3" y="246.5" class="st4" width="2" height="67.4"/>
					<rect x="203.9" y="246.5" class="st4" width="2" height="67.4"/>
					<rect x="209.5" y="246.5" class="st4" width="2" height="67.4"/>
					<rect x="215.1" y="246.5" class="st4" width="2" height="67.4"/>
					<rect x="220.7" y="246.5" class="st4" width="2" height="67.4"/>
					<rect x="226.3" y="246.5" class="st4" width="2" height="67.4"/>
					<rect x="231.9" y="246.5" class="st4" width="2" height="67.4"/>
					<rect x="237.5" y="246.5" class="st4" width="2" height="67.4"/>
				</g>
			</g>
		</g>
		<g class="st0">
			<polygon class="st2" points="350.2,245.7 308.3,269.9 266.4,245.7 308.3,221.5 			"/>
			<polygon class="st6" points="350.2,294.1 308.3,318.3 308.3,269.9 350.2,245.7 			"/>
			<g>
				<defs>
					<polygon id="SVGID_74_" points="266.4,294.1 308.3,318.3 308.3,269.9 266.4,245.7 					"/>
				</defs>
				<clipPath id="SVGID_15_">
					<use xlink:href="#SVGID_74_"  style="overflow:visible;"/>
				</clipPath>
				<g class="st21">
					<rect x="255.6" y="316.6" class="st8" width="52.7" height="1.6"/>
					<rect x="255.6" y="312" class="st8" width="52.7" height="1.6"/>
					<rect x="255.6" y="307.3" class="st8" width="52.7" height="1.6"/>
					<rect x="255.6" y="302.7" class="st8" width="52.7" height="1.6"/>
					<rect x="255.6" y="298" class="st8" width="52.7" height="1.6"/>
					<rect x="255.6" y="293.3" class="st8" width="52.7" height="1.6"/>
					<rect x="255.6" y="288.7" class="st8" width="52.7" height="1.6"/>
					<rect x="255.6" y="284" class="st8" width="52.7" height="1.6"/>
					<rect x="255.6" y="279.3" class="st8" width="52.7" height="1.6"/>
					<rect x="255.6" y="274.7" class="st8" width="52.7" height="1.6"/>
					<rect x="255.6" y="270" class="st8" width="52.7" height="1.6"/>
					<rect x="255.6" y="265.3" class="st8" width="52.7" height="1.6"/>
					<rect x="255.6" y="260.7" class="st8" width="52.7" height="1.6"/>
					<rect x="255.6" y="256" class="st8" width="52.7" height="1.6"/>
					<rect x="255.6" y="251.3" class="st8" width="52.7" height="1.6"/>
					<rect x="255.6" y="246.7" class="st8" width="52.7" height="1.6"/>
					<rect x="255.6" y="242" class="st8" width="52.7" height="1.6"/>
					<rect x="255.6" y="237.4" class="st8" width="52.7" height="1.6"/>
					<rect x="255.6" y="232.7" class="st8" width="52.7" height="1.6"/>
				</g>
			</g>
		</g>
	</g>
</g>
</svg>
