<svg xmlns="http://www.w3.org/2000/svg" xmlns:xlink="http://www.w3.org/1999/xlink" id="Layer_1" version="1" viewBox="0 0 400 400">
  <style>
    .st0{clip-path:url(#SVGID_1_)}.st1{fill:#e6bd2f}.st3{clip-path:url(#SVGID_2_)}.st4{fill:#fff}.st5{fill:#2d3233}.st6{fill:#ffbbb8}.st7{fill:#bb852f}.st8{fill:#fcc73d}.st9{clip-path:url(#SVGID_3_)}.st15{clip-path:url(#SVGID_8_)}.st16{clip-path:url(#SVGID_9_)}
  </style>
  <defs>
    <path id="SVGID_73_" d="M0 0h400v400H0z"/>
  </defs>
  <use fill="#fff" overflow="visible" xlink:href="#SVGID_73_"/>
  <clipPath id="SVGID_1_">
    <use overflow="visible" xlink:href="#SVGID_73_"/>
  </clipPath>
  <g class="st0">
    <path d="M17 392h-3v-2h3v2zM17 374h-3v-2h3v2zM17 355h-3v-1h3v1zM17 337h-3v-1h3v1zM17 319h-3v-2h3v2zM17 301h-3v-2h3v2zM17 283h-3v-2h3v2zM17 264h-3v-1h3v1zM17 246h-3v-1h3v1zM17 228h-3v-2h3v2zM17 210h-3v-2h3v2zM17 192h-3v-2h3v2zM17 174h-3v-2h3v2zM17 155h-3v-1h3v1zM17 137h-3v-2 1h3v1zM17 119h-3v-2h3v2zM17 101h-3v-2h3v2zM17 83h-3v-2h3v2zM17 64h-3v-1h3v1zM17 46h-3v-1h3v1zM17 28h-3v-1h3v1zM17 10h-3V8h3v2z" class="st1"/>
  </g>
  <g class="st0">
    <path d="M48 392h-3v-2h3v2zM48 374h-3v-2h3v2zM48 355h-3v-1h3v1zM48 337h-3v-1h3v1zM48 319h-3v-2h3v2zM48 301h-3v-2h3v2zM48 283h-3v-2h3v2zM48 264h-3v-1h3v1zM48 246h-3v-1h3v1zM48 228h-3v-2h3v2zM48 210h-3v-2h3v2zM48 192h-3v-2h3v2zM48 174h-3v-2h3v2zM48 155h-3v-1h3v1zM48 137h-3v-2 1h3v1zM48 119h-3v-2h3v2zM48 101h-3v-2h3v2zM48 83h-3v-2h3v2zM48 64h-3v-1h3v1zM48 46h-3v-1h3v1zM48 28h-3v-1h3v1zM48 10h-3V8h3v2z" class="st1"/>
  </g>
  <g class="st0">
    <path d="M78 392h-2v-2h2v2zM78 374h-2v-2h2v2zM78 355h-2v-1h2v1zM78 337h-2v-1h2v1zM78 319h-2v-2h2v2zM78 301h-2v-2h2v2zM78 283h-2v-2h2v2zM78 264h-2v-1h2v1zM78 246h-2v-1h2v1zM78 228h-2v-2h2v2zM78 210h-2v-2h2v2zM78 192h-2v-2h2v2zM78 174h-2v-2h2v2zM78 155h-2v-1h2v1zM78 137h-2v-2 1h2v1zM78 119h-2v-2h2v2zM78 101h-2v-2h2v2zM78 83h-2v-2h2v2zM78 64h-2v-1h2v1zM78 46h-2v-1h2v1zM78 28h-2v-1h2v1zM78 10h-2V8h2v2z" class="st1"/>
  </g>
  <g class="st0">
    <path d="M109 392h-3v-2h3v2zM109 374h-3v-2h3v2zM109 355h-3v-1h3v1zM109 337h-3v-1h3v1zM109 319h-3v-2h3v2zM109 301h-3v-2h3v2zM109 283h-3v-2h3v2zM109 264h-3v-1h3v1zM109 246h-3v-1h3v1zM109 228h-3v-2h3v2zM109 210h-3v-2h3v2zM109 192h-3v-2h3v2zM109 174h-3v-2h3v2zM109 155h-3v-1h3v1zM109 137h-3v-2 1h3v1zM109 119h-3v-2h3v2zM109 101h-3v-2h3v2zM109 83h-3v-2h3v2zM109 64h-3v-1h3v1zM109 46h-3v-1h3v1zM109 28h-3v-1h3v1zM109 10h-3V8h3v2z" class="st1"/>
  </g>
  <g class="st0">
    <path d="M140 392h-3v-2h3v2zM140 374h-3v-2h3v2zM140 355h-3v-1h3v1zM140 337h-3v-1h3v1zM140 319h-3v-2h3v2zM140 301h-3v-2h3v2zM140 283h-3v-2h3v2zM140 264h-3v-1h3v1zM140 246h-3v-1h3v1zM140 228h-3v-2h3v2zM140 210h-3v-2h3v2zM140 192h-3v-2h3v2zM140 174h-3v-2h3v2zM140 155h-3v-1h3v1zM140 137h-3v-2 1h3v1zM140 119h-3v-2h3v2zM140 101h-3v-2h3v2zM140 83h-3v-2h3v2zM140 64h-3v-1h3v1zM140 46h-3v-1h3v1zM140 28h-3v-1h3v1zM140 10h-3V8h3v2z" class="st1"/>
  </g>
  <g class="st0">
    <path d="M171 392h-3v-2h3v2zM171 374h-3v-2h3v2zM171 355h-3v-1h3v1zM171 337h-3v-1h3v1zM171 319h-3v-2h3v2zM171 301h-3v-2h3v2zM171 283h-3v-2h3v2zM171 264h-3v-1h3v1zM171 246h-3v-1h3v1zM171 228h-3v-2h3v2zM171 210h-3v-2h3v2zM171 192h-3v-2h3v2zM171 174h-3v-2h3v2zM171 155h-3v-1h3v1zM171 137h-3v-2 1h3v1zM171 119h-3v-2h3v2zM171 101h-3v-2h3v2zM171 83h-3v-2h3v2zM171 64h-3v-1h3v1zM171 46h-3v-1h3v1zM171 28h-3v-1h3v1zM171 10h-3V8h3v2z" class="st1"/>
  </g>
  <g class="st0">
    <path d="M201 392h-2v-2h2v2zM201 374h-2v-2h2v2zM201 355h-2v-1h2v1zM201 337h-2v-1h2v1zM201 319h-2v-2h2v2zM201 301h-2v-2h2v2zM201 283h-2v-2h2v2zM201 264h-2v-1h2v1zM201 246h-2v-1h2v1zM201 228h-2v-2h2v2zM201 210h-2v-2h2v2zM201 192h-2v-2h2v2zM201 174h-2v-2h2v2zM201 155h-2v-1h2v1zM201 137h-2v-2 1h2v1zM201 119h-2v-2h2v2zM201 101h-2v-2h2v2zM201 83h-2v-2h2v2zM201 64h-2v-1h2v1zM201 46h-2v-1h2v1zM201 28h-2v-1h2v1zM201 10h-2V8h2v2z" class="st1"/>
  </g>
  <g class="st0">
    <path d="M232 392h-3v-2h3v2zM232 374h-3v-2h3v2zM232 355h-3v-1h3v1zM232 337h-3v-1h3v1zM232 319h-3v-2h3v2zM232 301h-3v-2h3v2zM232 283h-3v-2h3v2zM232 264h-3v-1h3v1zM232 246h-3v-1h3v1zM232 228h-3v-2h3v2zM232 210h-3v-2h3v2zM232 192h-3v-2h3v2zM232 174h-3v-2h3v2zM232 155h-3v-1h3v1zM232 137h-3v-2 1h3v1zM232 119h-3v-2h3v2zM232 101h-3v-2h3v2zM232 83h-3v-2h3v2zM232 64h-3v-1h3v1zM232 46h-3v-1h3v1zM232 28h-3v-1h3v1zM232 10h-3V8h3v2z" class="st1"/>
  </g>
  <g class="st0">
    <path d="M263 392h-3v-2h3v2zM263 374h-3v-2h3v2zM263 355h-3v-1h3v1zM263 337h-3v-1h3v1zM263 319h-3v-2h3v2zM263 301h-3v-2h3v2zM263 283h-3v-2h3v2zM263 264h-3v-1h3v1zM263 246h-3v-1h3v1zM263 228h-3v-2h3v2zM263 210h-3v-2h3v2zM263 192h-3v-2h3v2zM263 174h-3v-2h3v2zM263 155h-3v-1h3v1zM263 137h-3v-2 1h3v1zM263 119h-3v-2h3v2zM263 101h-3v-2h3v2zM263 83h-3v-2h3v2zM263 64h-3v-1h3v1zM263 46h-3v-1h3v1zM263 28h-3v-1h3v1zM263 10h-3V8h3v2z" class="st1"/>
  </g>
  <g class="st0">
    <path d="M294 392h-3v-2h3v2zM294 374h-3v-2h3v2zM294 355h-3v-1h3v1zM294 337h-3v-1h3v1zM294 319h-3v-2h3v2zM294 301h-3v-2h3v2zM294 283h-3v-2h3v2zM294 264h-3v-1h3v1zM294 246h-3v-1h3v1zM294 228h-3v-2h3v2zM294 210h-3v-2h3v2zM294 192h-3v-2h3v2zM294 174h-3v-2h3v2zM294 155h-3v-1h3v1zM294 137h-3v-2 1h3v1zM294 119h-3v-2h3v2zM294 101h-3v-2h3v2zM294 83h-3v-2h3v2zM294 64h-3v-1h3v1zM294 46h-3v-1h3v1zM294 28h-3v-1h3v1zM294 10h-3V8h3v2z" class="st1"/>
  </g>
  <g class="st0">
    <path d="M324 392h-2v-2h2v2zM324 374h-2v-2h2v2zM324 355h-2v-1h2v1zM324 337h-2v-1h2v1zM324 319h-2v-2h2v2zM324 301h-2v-2h2v2zM324 283h-2v-2h2v2zM324 264h-2v-1h2v1zM324 246h-2v-1h2v1zM324 228h-2v-2h2v2zM324 210h-2v-2h2v2zM324 192h-2v-2h2v2zM324 174h-2v-2h2v2zM324 155h-2v-1h2v1zM324 137h-2v-2 1h2v1zM324 119h-2v-2h2v2zM324 101h-2v-2h2v2zM324 83h-2v-2h2v2zM324 64h-2v-1h2v1zM324 46h-2v-1h2v1zM324 28h-2v-1h2v1zM324 10h-2V8h2v2z" class="st1"/>
  </g>
  <g class="st0">
    <path d="M355 392h-3 1v-2h2v2zM355 374h-3 1v-2h2v2zM355 355h-3 1v-1h2v1zM355 337h-3 1v-1h2v1zM355 319h-3 1v-2h2v2zM355 301h-3 1v-2h2v2zM355 283h-3 1v-2h2v2zM355 264h-3 1v-1h2v1zM355 246h-3 1v-1h2v1zM355 228h-3 1v-2h2v2zM355 210h-3 1v-2h2v2zM355 192h-3 1v-2h2v2zM355 174h-3 1v-2h2v2zM355 155h-3 1v-1h2v1zM355 137h-3 1v-2 1h2v1zM355 119h-3 1v-2h2v2zM355 101h-3 1v-2h2v2zM355 83h-3 1v-2h2v2zM355 64h-3 1v-1h2v1zM355 46h-3 1v-1h2v1zM355 28h-3 1v-1h2v1zM355 10h-3 1V8h2v2z" class="st1"/>
  </g>
  <g class="st0">
    <path d="M386 392h-3v-2h3v2zM386 374h-3v-2h3v2zM386 355h-3v-1h3v1zM386 337h-3v-1h3v1zM386 319h-3v-2h3v2zM386 301h-3v-2h3v2zM386 283h-3v-2h3v2zM386 264h-3v-1h3v1zM386 246h-3v-1h3v1zM386 228h-3v-2h3v2zM386 210h-3v-2h3v2zM386 192h-3v-2h3v2zM386 174h-3v-2h3v2zM386 155h-3v-1h3v1zM386 137h-3v-2 1h3v1zM386 119h-3v-2h3v2zM386 101h-3v-2h3v2zM386 83h-3v-2h3v2zM386 64h-3v-1h3v1zM386 46h-3v-1h3v1zM386 28h-3v-1h3v1zM386 10h-3V8h3v2z" class="st1"/>
  </g>
  <g class="st0">
    <path d="M1 401h-2v-2h2v2zM1 383h-2v-2h2v2zM1 364h-2v-1h2v1zM1 346h-2v-1h2v1zM1 328h-2v-2h2v2zM1 310h-2v-2h2v2zM1 292h-2v-2h2v2zM1 274h-2v-2h2v2zM1 255h-2v-1h2v1zM1 237h-2v-2 1h2v1zM1 219h-2v-2h2v2zM1 201h-2v-2h2v2zM1 183h-2v-2h2v2zM1 164h-2v-1h2v1zM1 146h-2v-1h2v1zM1 128h-2v-2h2v2zM1 110h-2v-2h2v2zM1 92h-2v-2h2v2zM1 74h-2v-2h2v2zM1 55h-2v-1h2v1zM1 37h-2v-1h2v1zM1 19h-2v-2h2v2zM1 1h-2v-2h2v2z" class="st1"/>
  </g>
  <g class="st0">
    <path d="M32 401h-3v-2h3v2zM32 383h-3v-2h3v2zM32 364h-3v-1h3v1zM32 346h-3v-1h3v1zM32 328h-3v-2h3v2zM32 310h-3v-2h3v2zM32 292h-3v-2h3v2zM32 274h-3v-2h3v2zM32 255h-3v-1h3v1zM32 237h-3v-2 1h3v1zM32 219h-3v-2h3v2zM32 201h-3v-2h3v2zM32 183h-3v-2h3v2zM32 164h-3v-1h3v1zM32 146h-3v-1h3v1zM32 128h-3v-2h3v2zM32 110h-3v-2h3v2zM32 92h-3v-2h3v2zM32 74h-3v-2h3v2zM32 55h-3v-1h3v1zM32 37h-3v-1h3v1zM32 19h-3v-2h3v2zM32 1h-3v-2h3v2z" class="st1"/>
  </g>
  <g class="st0">
    <path d="M63 401h-3v-2h3v2zM63 383h-3v-2h3v2zM63 364h-3v-1h3v1zM63 346h-3v-1h3v1zM63 328h-3v-2h3v2zM63 310h-3v-2h3v2zM63 292h-3v-2h3v2zM63 274h-3v-2h3v2zM63 255h-3v-1h3v1zM63 237h-3v-2 1h3v1zM63 219h-3v-2h3v2zM63 201h-3v-2h3v2zM63 183h-3v-2h3v2zM63 164h-3v-1h3v1zM63 146h-3v-1h3v1zM63 128h-3v-2h3v2zM63 110h-3v-2h3v2zM63 92h-3v-2h3v2zM63 74h-3v-2h3v2zM63 55h-3v-1h3v1zM63 37h-3v-1h3v1zM63 19h-3v-2h3v2zM63 1h-3v-2h3v2z" class="st1"/>
  </g>
  <g class="st0">
    <path d="M94 401h-3v-2h3v2zM94 383h-3v-2h3v2zM94 364h-3v-1h3v1zM94 346h-3v-1h3v1zM94 328h-3v-2h3v2zM94 310h-3v-2h3v2zM94 292h-3v-2h3v2zM94 274h-3v-2h3v2zM94 255h-3v-1h3v1zM94 237h-3v-2 1h3v1zM94 219h-3v-2h3v2zM94 201h-3v-2h3v2zM94 183h-3v-2h3v2zM94 164h-3v-1h3v1zM94 146h-3v-1h3v1zM94 128h-3v-2h3v2zM94 110h-3v-2h3v2zM94 92h-3v-2h3v2zM94 74h-3v-2h3v2zM94 55h-3v-1h3v1zM94 37h-3v-1h3v1zM94 19h-3v-2h3v2zM94 1h-3v-2h3v2z" class="st1"/>
  </g>
  <g class="st0">
    <path d="M124 401h-2v-2h2v2zM124 383h-2v-2h2v2zM124 364h-2v-1h2v1zM124 346h-2v-1h2v1zM124 328h-2v-2h2v2zM124 310h-2v-2h2v2zM124 292h-2v-2h2v2zM124 274h-2v-2h2v2zM124 255h-2v-1h2v1zM124 237h-2v-2 1h2v1zM124 219h-2v-2h2v2zM124 201h-2v-2h2v2zM124 183h-2v-2h2v2zM124 164h-2v-1h2v1zM124 146h-2v-1h2v1zM124 128h-2v-2h2v2zM124 110h-2v-2h2v2zM124 92h-2v-2h2v2zM124 74h-2v-2h2v2zM124 55h-2v-1h2v1zM124 37h-2v-1h2v1zM124 19h-2v-2h2v2zM124 1h-2v-2h2v2z" class="st1"/>
  </g>
  <g class="st0">
    <path d="M155 401h-3 1v-2h2v2zM155 383h-3 1v-2h2v2zM155 364h-3 1v-1h2v1zM155 346h-3 1v-1h2v1zM155 328h-3 1v-2h2v2zM155 310h-3 1v-2h2v2zM155 292h-3 1v-2h2v2zM155 274h-3 1v-2h2v2zM155 255h-3 1v-1h2v1zM155 237h-3 1v-2 1h2v1zM155 219h-3 1v-2h2v2zM155 201h-3 1v-2h2v2zM155 183h-3 1v-2h2v2zM155 164h-3 1v-1h2v1zM155 146h-3 1v-1h2v1zM155 128h-3 1v-2h2v2zM155 110h-3 1v-2h2v2zM155 92h-3 1v-2h2v2zM155 74h-3 1v-2h2v2zM155 55h-3 1v-1h2v1zM155 37h-3 1v-1h2v1zM155 19h-3 1v-2h2v2zM155 1h-3 1v-2h2v2z" class="st1"/>
  </g>
  <g class="st0">
    <path d="M186 401h-3v-2h3v2zM186 383h-3v-2h3v2zM186 364h-3v-1h3v1zM186 346h-3v-1h3v1zM186 328h-3v-2h3v2zM186 310h-3v-2h3v2zM186 292h-3v-2h3v2zM186 274h-3v-2h3v2zM186 255h-3v-1h3v1zM186 237h-3v-2 1h3v1zM186 219h-3v-2h3v2zM186 201h-3v-2h3v2zM186 183h-3v-2h3v2zM186 164h-3v-1h3v1zM186 146h-3v-1h3v1zM186 128h-3v-2h3v2zM186 110h-3v-2h3v2zM186 92h-3v-2h3v2zM186 74h-3v-2h3v2zM186 55h-3v-1h3v1zM186 37h-3v-1h3v1zM186 19h-3v-2h3v2zM186 1h-3v-2h3v2z" class="st1"/>
  </g>
  <g class="st0">
    <path d="M217 401h-3v-2h3v2zM217 383h-3v-2h3v2zM217 364h-3v-1h3v1zM217 346h-3v-1h3v1zM217 328h-3v-2h3v2zM217 310h-3v-2h3v2zM217 292h-3v-2h3v2zM217 274h-3v-2h3v2zM217 255h-3v-1h3v1zM217 237h-3v-2 1h3v1zM217 219h-3v-2h3v2zM217 201h-3v-2h3v2zM217 183h-3v-2h3v2zM217 164h-3v-1h3v1zM217 146h-3v-1h3v1zM217 128h-3v-2h3v2zM217 110h-3v-2h3v2zM217 92h-3v-2h3v2zM217 74h-3v-2h3v2zM217 55h-3v-1h3v1zM217 37h-3v-1h3v1zM217 19h-3v-2h3v2zM217 1h-3v-2h3v2z" class="st1"/>
  </g>
  <g class="st0">
    <path d="M248 401h-3v-2h3v2zM248 383h-3v-2h3v2zM248 364h-3v-1h3v1zM248 346h-3v-1h3v1zM248 328h-3v-2h3v2zM248 310h-3v-2h3v2zM248 292h-3v-2h3v2zM248 274h-3v-2h3v2zM248 255h-3v-1h3v1zM248 237h-3v-2 1h3v1zM248 219h-3v-2h3v2zM248 201h-3v-2h3v2zM248 183h-3v-2h3v2zM248 164h-3v-1h3v1zM248 146h-3v-1h3v1zM248 128h-3v-2h3v2zM248 110h-3v-2h3v2zM248 92h-3v-2h3v2zM248 74h-3v-2h3v2zM248 55h-3v-1h3v1zM248 37h-3v-1h3v1zM248 19h-3v-2h3v2zM248 1h-3v-2h3v2z" class="st1"/>
  </g>
  <g class="st0">
    <path d="M278 401h-2v-2h2v2zM278 383h-2v-2h2v2zM278 364h-2v-1h2v1zM278 346h-2v-1h2v1zM278 328h-2v-2h2v2zM278 310h-2v-2h2v2zM278 292h-2v-2h2v2zM278 274h-2v-2h2v2zM278 255h-2v-1h2v1zM278 237h-2v-2 1h2v1zM278 219h-2v-2h2v2zM278 201h-2v-2h2v2zM278 183h-2v-2h2v2zM278 164h-2v-1h2v1zM278 146h-2v-1h2v1zM278 128h-2v-2h2v2zM278 110h-2v-2h2v2zM278 92h-2v-2h2v2zM278 74h-2v-2h2v2zM278 55h-2v-1h2v1zM278 37h-2v-1h2v1zM278 19h-2v-2h2v2zM278 1h-2v-2h2v2z" class="st1"/>
  </g>
  <g class="st0">
    <path d="M309 401h-3v-2h3v2zM309 383h-3v-2h3v2zM309 364h-3v-1h3v1zM309 346h-3v-1h3v1zM309 328h-3v-2h3v2zM309 310h-3v-2h3v2zM309 292h-3v-2h3v2zM309 274h-3v-2h3v2zM309 255h-3v-1h3v1zM309 237h-3v-2 1h3v1zM309 219h-3v-2h3v2zM309 201h-3v-2h3v2zM309 183h-3v-2h3v2zM309 164h-3v-1h3v1zM309 146h-3v-1h3v1zM309 128h-3v-2h3v2zM309 110h-3v-2h3v2zM309 92h-3v-2h3v2zM309 74h-3v-2h3v2zM309 55h-3v-1h3v1zM309 37h-3v-1h3v1zM309 19h-3v-2h3v2zM309 1h-3v-2h3v2z" class="st1"/>
  </g>
  <g class="st0">
    <path d="M340 401h-3v-2h3v2zM340 383h-3v-2h3v2zM340 364h-3v-1h3v1zM340 346h-3v-1h3v1zM340 328h-3v-2h3v2zM340 310h-3v-2h3v2zM340 292h-3v-2h3v2zM340 274h-3v-2h3v2zM340 255h-3v-1h3v1zM340 237h-3v-2 1h3v1zM340 219h-3v-2h3v2zM340 201h-3v-2h3v2zM340 183h-3v-2h3v2zM340 164h-3v-1h3v1zM340 146h-3v-1h3v1zM340 128h-3v-2h3v2zM340 110h-3v-2h3v2zM340 92h-3v-2h3v2zM340 74h-3v-2h3v2zM340 55h-3v-1h3v1zM340 37h-3v-1h3v1zM340 19h-3v-2h3v2zM340 1h-3v-2h3v2z" class="st1"/>
  </g>
  <g class="st0">
    <path d="M371 401h-3v-2h3v2zM371 383h-3v-2h3v2zM371 364h-3v-1h3v1zM371 346h-3v-1h3v1zM371 328h-3v-2h3v2zM371 310h-3v-2h3v2zM371 292h-3v-2h3v2zM371 274h-3v-2h3v2zM371 255h-3v-1h3v1zM371 237h-3v-2 1h3v1zM371 219h-3v-2h3v2zM371 201h-3v-2h3v2zM371 183h-3v-2h3v2zM371 164h-3v-1h3v1zM371 146h-3v-1h3v1zM371 128h-3v-2h3v2zM371 110h-3v-2h3v2zM371 92h-3v-2h3v2zM371 74h-3v-2h3v2zM371 55h-3v-1h3v1zM371 37h-3v-1h3v1zM371 19h-3v-2h3v2zM371 1h-3v-2h3v2z" class="st1"/>
  </g>
  <g class="st0">
    <path d="M401 401h-2v-2h2v2zM401 383h-2v-2h2v2zM401 364h-2v-1h2v1zM401 346h-2v-1h2v1zM401 328h-2v-2h2v2zM401 310h-2v-2h2v2zM401 292h-2v-2h2v2zM401 274h-2v-2h2v2zM401 255h-2v-1h2v1zM401 237h-2v-2 1h2v1zM401 219h-2v-2h2v2zM401 201h-2v-2h2v2zM401 183h-2v-2h2v2zM401 164h-2v-1h2v1zM401 146h-2v-1h2v1zM401 128h-2v-2h2v2zM401 110h-2v-2h2v2zM401 92h-2v-2h2v2zM401 74h-2v-2h2v2zM401 55h-2v-1h2v1zM401 37h-2v-1h2v1zM401 19h-2v-2h2v2zM401 1h-2v-2h2v2z" class="st1"/>
  </g>
  <path fill="none" d="M0 0h400v400H0z"/>
  <g>
    <defs>
      <path id="SVGID_75_" d="M0 0h400v400H0z"/>
    </defs>
    <clipPath id="SVGID_2_">
      <use overflow="visible" xlink:href="#SVGID_75_"/>
    </clipPath>
    <g class="st3">
      <path d="M77 82v10l-32 19-33-19 65-10z" class="st4"/>
      <path d="M45 112l-1-1-32-18v-1l33 18 31-18V82l1-1v12l-32 18v1z" class="st5"/>
      <path d="M45 63L12 82l20 11 12 7h1l13-7 19-11z" class="st4"/>
      <path d="M45 101h-1l-1-1-31-18v-1l32-19h1l32 19 1 1h-1l-32 19zm-1-2l1 1 31-18-31-18-32 18 31 17z" class="st5"/>
      <g>
        <path d="M54 87c-5 3-14 3-19 0-2-2-4-4-3-6 0-2 1-3 3-5l9-2h3l5 2h2c5 3 5 8 0 11z" class="st4"/>
        <path d="M45 90l-10-2c-3-2-4-4-4-7 0-2 2-4 4-5 2-2 5-2 9-3v1h3l5 1 2 1c3 1 4 3 4 5 0 3-1 5-4 6l-9 3zm-9-4c5 3 13 3 17 0h1l3-4c0-2-1-4-3-5l-2-1-5-1h-3l-8 2-4 4c0 2 1 4 4 5z" class="st5"/>
      </g>
      <g>
        <path d="M12 82v10l33 19v-11z" class="st4"/>
        <path d="M45 112l-1-1-32-18-1-1V82l1-1 33 19v12zM13 92l31 18v-9L13 83v9z" class="st5"/>
      </g>
      <g>
        <path d="M35 87c5-3 14-3 19 0H35z" class="st4"/>
        <path d="M35 88v-1-1c5-3 14-3 19 0v1h-1c-5-2-13-2-17 0l-1 1z" class="st5"/>
      </g>
    </g>
    <g class="st3">
      <path d="M347 286l-14 21-11-7v-29c7-4 14-4 18-1l5 4 1 2 1 10z" class="st4"/>
      <path d="M333 307l-11-6v-30c7-4 14-5 19-2a14 14 0 0 1 5 7l2 10-14 21h-1zm-10-7l10 6 14-20a23 23 0 0 0-3-11l-4-5c-5-3-11-2-17 2v28zm24-14z" class="st5"/>
      <path d="M351 279l-5-3-13 2-11-7c7-4 14-4 18-1l11 6v3z" class="st4"/>
      <path d="M351 279h-1l-4-2-13 1-11-6v-1c7-4 14-5 19-2l10 6v4zm-5-3l4 2v-1-1l-10-6c-5-2-10-2-17 1l10 6 13-1z" class="st5"/>
      <g>
        <path d="M358 292l-25 15v-29c14-8 25-2 25 14z" class="st6"/>
        <path d="M333 307v-29-1c7-4 13-4 18-1 5 2 8 8 8 16l-1 1-25 14zm1-29v28l24-14c-1-7-3-13-7-15-5-3-11-2-17 1zm24 14z" class="st5"/>
      </g>
    </g>
    <g class="st3">
      <path d="M256 122l-72-42-1-1 5-3 73 42v1l-4 3h-1zm-71-43l71 42 3-2-71-41-3 1z" class="st5"/>
      <path d="M256 126l5-2v-5l-5 2z" class="st7"/>
      <path d="M256 127v-6l4-3h1v6l-4 2-1 1zm1-5v3l3-2v-3l-3 2z" class="st5"/>
      <g>
        <path d="M184 84l72 42v-5l-72-42z" class="st1"/>
        <path d="M256 127v-1l-72-41-1-1v-5h1l73 42v6h-1zm-72-43l72 41v-3l-72-42v4z" class="st5"/>
      </g>
    </g>
    <g class="st3">
      <path d="M130 17L120 0l-10 6-10-18-10 6-10-17-7 4 12-6L95-9l9-5 10 17 10-6 10 17 10-5 11 20-4 2-12-20z" class="st8"/>
      <path d="M130 25L120 8l-10 6-10-17-10 5-10-17-8 5-3-6 11-7L90-6l10-5 10 17 10-6 10 17 9-6 12 20-4 2-8-14z" class="st4"/>
      <path d="M147 34l-8-14-9 5h-1L119 9l-9 5h-1l-9-16-10 5-10-17-8 4c0 1 0 1 0 0l-4-6v-1l12-6h1l9 16 10-5 10 17 9-6 1 1 10 16 9-5h1l11 20v1l-3 2h-1zm-8-15h1l8 14 2-2-11-19-9 5h-1L119 1l-9 5h-1l-9-17-10 6v-1L80-22l-11 6 3 5 8-4h1l9 16 10-5 10 17 9-5h1l10 16 9-5z" class="st5"/>
      <g>
        <path d="M151 32v-1l4-2-11-19-10 5-10-17-10 6-10-17-10 5-9-17-12 7v-1l12-7L95-9l10-6 9 17 10-5 10 17 10-6 12 21z" class="st5"/>
      </g>
    </g>
    <g class="st3">
      <path d="M316 189l-10-17-10 5-10-17-10 6-10-17-7 4 12-6 10 16 10-5 9 17 10-6 10 17 10-5 12 20-5 2-11-20z" class="st8"/>
      <path d="M316 197l-10-17-10 6-10-17-10 5-10-17-8 5-3-6 11-7 10 17 10-5 10 16 10-5 10 17 10-6 11 20-3 2-8-14z" class="st4"/>
      <path d="M334 206h-1l-8-14-9 5h-1l-9-16-10 5h-1l-9-17-9 5h-1l-10-16-7 4h-1l-4-6v-1l12-6h1l9 16 10-5h1l9 17 9-6 1 1 10 16 9-5h1l12 20-1 1-3 2zm-8-15l8 13 2-1-11-19-9 5h-1l-9-16-10 5h-1l-9-17-9 5h-1l-10-16-10 6 2 5 8-5 1 1 9 16 10-5h1l9 16 9-5h1l10 17 9-5h1z" class="st5"/>
      <g>
        <path d="M337 204v-1l4-3-11-19-10 6-10-17-10 6-10-17-9 5-10-17-11 7-1-1 12-7 10 17 10-6 10 17 10-5 9 16 10-5 12 21z" class="st5"/>
      </g>
    </g>
    <g class="st3">
      <path d="M140 66l-15 20-10-6V51c7-4 13-4 18-1l4 4 1 2 2 10z" class="st4"/>
      <path d="M126 87h-1l-11-6V51c7-4 14-5 19-2a14 14 0 0 1 6 7l1 10-14 21zm-11-7l10 6 14-21a23 23 0 0 0-3-11l-4-4c-4-3-10-2-17 1v29zm25-14z" class="st5"/>
      <path d="M143 58l-5-2-12 1-11-6c7-4 13-4 18-1l10 5v3z" class="st4"/>
      <path d="M143 59l-5-2-12 1h-1l-11-6v-1c7-4 14-5 19-2l10 6v2l1 1-1 1zm-5-3l4 1v-1l-10-6c-4-3-10-2-16 1l10 6 12-1z" class="st5"/>
      <g>
        <path d="M151 72l-25 14V58c13-8 25-2 25 14z" class="st6"/>
        <path d="M126 87h-1V58v-1c7-4 14-5 19-2 4 3 7 9 7 17l-25 15zm0-29v27l24-13c0-8-3-13-7-16-5-2-10-2-17 2zm25 14z" class="st5"/>
      </g>
    </g>
    <g class="st3">
      <path d="M153 315v14l13-7zM132 342v16l15 9 50-29v-16z" class="st4"/>
      <defs>
        <path id="SVGID_77_" d="M132 342v16l15 9 50-29v-16l-16 9-34 20z"/>
      </defs>
      <clipPath id="SVGID_3_">
        <use overflow="visible" xlink:href="#SVGID_77_"/>
      </clipPath>
      <g class="st9">
        <path d="M194 294h3v78h-3z" class="st6"/>
      </g>
      <g class="st9">
        <path d="M187 294h3v78h-3z" class="st6"/>
      </g>
      <g class="st9">
        <path d="M180 294h3v78h-3z" class="st6"/>
      </g>
      <g class="st9">
        <path d="M174 294h3v78h-3z" class="st6"/>
      </g>
      <g class="st9">
        <path d="M167 294h3v78h-3z" class="st6"/>
      </g>
      <g class="st9">
        <path d="M160 334h3v38h-3z" class="st6"/>
      </g>
      <g class="st9">
        <path d="M154 334h3v38h-3z" class="st6"/>
      </g>
      <g class="st9">
        <path d="M147 295h3v78h-3z" class="st6"/>
      </g>
      <g class="st9">
        <path d="M141 295h3v78h-3z" class="st6"/>
      </g>
      <g class="st9">
        <path d="M134 295h3v78h-3z" class="st6"/>
      </g>
      <g class="st9">
        <path d="M127 295h3v78h-3z" class="st6"/>
      </g>
      <g class="st9">
        <path d="M121 295h3v78h-3z" class="st6"/>
      </g>
      <g class="st9">
        <path d="M114 295h3v78h-3z" class="st6"/>
      </g>
      <g class="st9">
        <path d="M108 296h3v78h-3z" class="st6"/>
      </g>
      <g>
        <path d="M166 322l-13-7 15-9 13 7 16 9-50 29-15-9z" class="st4"/>
        <path d="M147 351l-16-9v-1l33-19-12-7v-1l16-9 29 17v1l-50 28zm-14-9l14 8 48-28-27-16-14 9 12 7v1l-33 19z" class="st5"/>
      </g>
      <g>
        <path d="M147 367l-16-9v-16h1v16l15 8 49-28v-16h1v17l-50 28z" class="st5"/>
      </g>
      <g>
        <path d="M152 315h1v15h-1z" class="st5"/>
      </g>
      <g>
        <path d="M147 367l-16-9v-16h1v16l15 8z" class="st5"/>
      </g>
    </g>
    <g class="st3">
      <path d="M253 261l73 42 4-3-72-42z" class="st4"/>
      <path d="M326 303l-73-42v-1l4-2h1l72 42h1l-1 1-4 2zm-71-42l71 41 3-2-71-41-3 2z" class="st5"/>
      <path d="M326 308l4-3v-5l-4 3z" class="st7"/>
      <path d="M326 308h-1v-5l1-1 4-2h1v5l-1 1-4 2zm1-5v4l3-2v-4l-3 2z" class="st5"/>
      <g>
        <path d="M253 266l73 42v-5l-73-42z" class="st1"/>
        <path d="M326 308l-73-42v-5-1h1l72 42v6zm-72-43l71 42v-4l-71-41v3z" class="st5"/>
      </g>
    </g>
    <g class="st3">
      <path d="M49 249l72 41 5-2-73-42z" class="st4"/>
      <path d="M121 291l-72-42h-1l1-1 4-2c0-1 0-1 0 0l73 41v2l-4 2h-1zm-71-42l71 41 3-2-71-41-3 2z" class="st5"/>
      <path d="M121 295l5-2v-5l-5 2z" class="st7"/>
      <path d="M121 296v-6l4-3h1v6l-4 3h-1zm1-5v3l3-2v-3l-3 2z" class="st5"/>
      <g>
        <path d="M49 253l72 42v-5l-72-41z" class="st1"/>
        <path d="M121 296l-72-42-1-1v-5h1l73 42v6h-1zm-72-43l72 41v-3l-72-42v4z" class="st5"/>
      </g>
    </g>
    <g class="st3">
      <path d="M46 283c14 8 14 21 0 29s-36 8-50 0-14-21 0-29 36-8 50 0z" class="st4"/>
      <path d="M-15 288h71v10h-71z" class="st7"/>
      <defs>
        <path id="SVGID_79_" d="M57 298v-10h-5l-6-5c-14-8-36-8-50 0l-6 5h-5v9c0 6 3 11 10 15 14 8 37 8 51 0 7-4 11-9 11-14z"/>
      </defs>
      <clipPath id="SVGID_4_">
        <use overflow="visible" xlink:href="#SVGID_79_"/>
      </clipPath>
      <g clip-path="url(#SVGID_4_)">
        <path d="M-11 321h-4v-39h4v39zm7-39h-3v39h3v-39zm8 0H0v39h4v-39zm8 0H8v39h4v-39zm7 1h-4v39h4v-39zm8 0h-4v39h3v-39zm7 0h-4v39h4v-39zm8 1h-4v39h4v-39zm7 0h-4v39h4v-39zm8 0h-4v39h4v-39z" class="st1"/>
      </g>
      <g>
        <ellipse cx="21" cy="288" class="st4" rx="36" ry="21"/>
        <path d="M21 309c-9 0-19-2-26-6s-10-9-10-15 3-11 10-15c14-8 37-8 52 0 6 4 10 9 10 15s-4 11-10 15c-8 4-17 6-26 6zm0-41c-9 0-18 2-25 6s-10 9-10 14 3 10 10 14c14 8 36 8 50 0 6-4 10-9 10-14s-4-10-10-14c-7-4-16-6-25-6z" class="st5"/>
      </g>
      <g>
        <path d="M21 319c-9 0-19-2-26-6s-11-10-10-15v-11h1v11c0 5 3 10 10 14s16 6 25 6 18-2 25-6 10-9 10-15c0 1 0 0 0 0v-10h1v11c0 5-3 11-10 15-8 4-17 6-26 6z" class="st5"/>
      </g>
    </g>
    <g class="st3">
      <path d="M310 194c14 8 14 21 0 29s-37 8-51 0-14-22 0-30c14-7 37-7 51 1z" class="st4"/>
      <path d="M249 198h71v10h-71z" class="st7"/>
      <defs>
        <path id="SVGID_81_" d="M320 208v-10h-4l-6-5c-14-7-37-7-51 1l-6 4h-4v10c-1 5 3 10 10 15 14 8 36 8 50 0 8-4 11-10 11-15z"/>
      </defs>
      <clipPath id="SVGID_5_">
        <use overflow="visible" xlink:href="#SVGID_81_"/>
      </clipPath>
      <g clip-path="url(#SVGID_5_)">
        <path d="M252 231h-3v-39h3v39zm8-39h-4v39h4v-39zm8 0h-4v39h3v-39zm7 1h-4v39h4v-39zm8 0h-4v39h3v-39zm7 0h-4v39h4v-39zm8 0h-4v39h3v-39zm7 1h-4v39h4v-39zm8 0h-4v39h4v-39zm7 0h-4v39h4v-39z" class="st1"/>
      </g>
      <g>
        <ellipse cx="284" cy="198" class="st4" rx="36" ry="21"/>
        <path d="M284 219c-9 0-18-2-25-6s-11-9-11-15 4-11 11-15c14-8 37-8 51 0 7 4 11 9 11 15s-4 11-11 15-16 6-26 6zm0-41c-9 0-18 2-25 6-6 4-10 9-10 14s4 10 11 14c13 8 36 8 49 0 7-4 11-9 11-14s-4-10-11-14-16-6-25-6z" class="st5"/>
      </g>
      <g>
        <path d="M284 229c-9 0-18-2-25-6s-11-9-11-15v-10h1v10c0 5 4 10 11 14 13 8 36 8 49 0 7-4 11-9 11-14v-10h1v10c0 6-4 11-11 15s-16 6-26 6z" class="st5"/>
      </g>
    </g>
    <g class="st3">
      <path d="M261-22c14 8 14 21 0 29s-37 8-51 0-14-21 0-29 37-8 51 0z" class="st4"/>
      <defs>
        <path id="SVGID_83_" d="M271-7v-10h-4l-6-5c-14-8-37-8-51 0l-6 5h-4v9c-1 6 3 11 10 15 14 8 37 8 51 0 7-4 10-9 10-14z"/>
      </defs>
      <clipPath id="SVGID_6_">
        <use overflow="visible" xlink:href="#SVGID_83_"/>
      </clipPath>
      <g clip-path="url(#SVGID_6_)">
        <path d="M204 16h-4v-39h3v39zm7-39h-4v39h4v-39zm8 0h-4v39h4v-39zm7 0h-4v39h4v-39zm8 1h-4v39h4v-39zm7 0h-4v39h4v-39zm8 0h-4v39h4v-39zm7 1h-4v39h4v-39zm8 0h-4v39h4v-39zm7 0h-4v39h4v-39z" class="st1"/>
      </g>
      <g>
        <ellipse cx="236" cy="-17" class="st4" rx="36" ry="21"/>
        <path d="M236 4c-10 0-19-2-26-6s-11-9-11-15 4-11 11-15c14-8 37-8 51 0 7 4 11 9 11 15s-4 11-11 15-16 6-25 6zm0-41c-9 0-19 2-25 6-7 4-11 9-11 14s4 10 11 14c13 8 36 8 49 0 7-4 11-9 11-14s-4-10-11-14h1c-7-4-16-6-25-6z" class="st5"/>
      </g>
      <g>
        <path d="M236 14c-10 0-19-2-26-6S199-2 199-7v-11h2v11c-1 5 3 10 10 14 13 8 36 8 50 0 6-4 10-9 10-14v-11h1v11c0 5-4 11-11 15s-16 6-25 6z" class="st5"/>
      </g>
    </g>
    <g class="st3">
      <defs>
        <path id="SVGID_85_" d="M235 334l21 12v-24l-21-13z"/>
      </defs>
      <use fill="#e6bd2f" overflow="visible" xlink:href="#SVGID_85_"/>
      <clipPath id="SVGID_7_">
        <use overflow="visible" xlink:href="#SVGID_85_"/>
      </clipPath>
      <g clip-path="url(#SVGID_7_)">
        <path d="M210 322h52v2h-52z" class="st4" transform="rotate(90 236 323)"/>
        <path d="M213 322h52v2h-52z" class="st4" transform="rotate(90 239 323)"/>
        <path d="M217 322h52v2h-52z" class="st4" transform="rotate(90 243 323)"/>
        <path d="M220 322h52v2h-52z" class="st4" transform="rotate(90 246 323)"/>
        <path d="M223 322h52v2h-52z" class="st4" transform="rotate(90 249 323)"/>
        <path d="M226 322h52v2h-52z" class="st4" transform="rotate(90 252 323)"/>
        <path d="M230 322h52v2h-52z" class="st4" transform="rotate(90 256 323)"/>
        <path d="M233 322h52v2h-52z" class="st4" transform="rotate(90 259 323)"/>
        <path d="M236 322h52v2h-52z" class="st4" transform="rotate(90 262 323)"/>
        <path d="M239 322h52v2h-52z" class="st4" transform="rotate(90 265 323)"/>
        <path d="M243 322h52v2h-52z" class="st4" transform="rotate(90 269 323)"/>
        <path d="M246 322h52v2h-52z" class="st4" transform="rotate(90 272 323)"/>
        <path d="M249 322h52v2h-52z" class="st4" transform="rotate(90 275 323)"/>
      </g>
      <g>
        <path d="M235 309l21 13 21-13-21-12z" class="st4"/>
        <path d="M256 322l-21-12v-1l21-12h1l21 12v1l-21 12h-1zm-19-13l19 12 20-12-20-11-19 11z" class="st5"/>
      </g>
      <g>
        <path d="M277 334l-21 12v-24l21-13z" class="st6"/>
        <path d="M256 346v-25l21-12h1v25l-21 12h-1zm1-24v23l20-12v-23l-20 12z" class="st5"/>
      </g>
      <g>
        <path d="M256 346l-21-12v-25h1l21 12v25h-1zm-20-13l20 12v-23l-20-12v23z" class="st5"/>
      </g>
    </g>
    <g class="st3">
      <path d="M107 163v14l-13-7zM128 189v16l-15 9-50-28v-16z" class="st4"/>
      <defs>
        <path id="SVGID_87_" d="M128 189v16l-15 9-50-28v-16l16 9 34 19z"/>
      </defs>
      <clipPath id="SVGID_8_">
        <use overflow="visible" xlink:href="#SVGID_87_"/>
      </clipPath>
      <g class="st15">
        <path d="M63 141h3v78h-3z" class="st6"/>
      </g>
      <g class="st15">
        <path d="M70 141h3v78h-3z" class="st6"/>
      </g>
      <g class="st15">
        <path d="M77 141h3v78h-3z" class="st6"/>
      </g>
      <g class="st15">
        <path d="M83 142h3v78h-3z" class="st6"/>
      </g>
      <g class="st15">
        <path d="M90 142h3v78h-3z" class="st6"/>
      </g>
      <g class="st15">
        <path d="M96 182h3v38h-3z" class="st6"/>
      </g>
      <g class="st15">
        <path d="M103 182h3v38h-3z" class="st6"/>
      </g>
      <g class="st15">
        <path d="M110 142h3v78h-3z" class="st6"/>
      </g>
      <g class="st15">
        <path d="M116 142h3v78h-3z" class="st6"/>
      </g>
      <g class="st15">
        <path d="M123 142h3v78h-3z" class="st6"/>
      </g>
      <g class="st15">
        <path d="M130 143h3v78h-3z" class="st6"/>
      </g>
      <g class="st15">
        <path d="M136 143h3v78h-3z" class="st6"/>
      </g>
      <g class="st15">
        <path d="M143 143h3v78h-3z" class="st6"/>
      </g>
      <g class="st15">
        <path d="M149 143h3v78h-3z" class="st6"/>
      </g>
      <g>
        <path d="M94 170l13-8-15-9-13 8-16 9 50 28 15-9z" class="st4"/>
        <path d="M113 199h-1l-49-29v-1l28-16h1l15 9h1l-1 1-12 7 33 19h1l-1 1-15 9zm-48-29l48 27 14-8-33-19h-1l1-1 12-7-14-8-27 16z" class="st5"/>
      </g>
      <g>
        <path d="M113 215h-1l-49-29v-16h1v15l49 28 14-8v-16h2v16l-1 1-15 9z" class="st5"/>
      </g>
      <g>
        <path d="M107 162h1v15h-1z" class="st5"/>
      </g>
      <g>
        <path d="M113 215l-1-1 16-9v-16h1v17z" class="st5"/>
      </g>
    </g>
    <g class="st3">
      <path d="M270 32v15l13-8zM249 59v16l16 9 49-28V39z" class="st4"/>
      <defs>
        <path id="SVGID_89_" d="M249 59v16l16 9 49-28V39l-15 9-34 20z"/>
      </defs>
      <clipPath id="SVGID_9_">
        <use overflow="visible" xlink:href="#SVGID_89_"/>
      </clipPath>
      <g class="st16">
        <path d="M311 11h3v78h-3z" class="st6"/>
      </g>
      <g class="st16">
        <path d="M305 11h3v78h-3z" class="st6"/>
      </g>
      <g class="st16">
        <path d="M298 11h3v78h-3z" class="st6"/>
      </g>
      <g class="st16">
        <path d="M291 11h3v78h-3z" class="st6"/>
      </g>
      <g class="st16">
        <path d="M285 11h3v78h-3z" class="st6"/>
      </g>
      <g class="st16">
        <path d="M278 51h3v38h-3z" class="st6"/>
      </g>
      <g class="st16">
        <path d="M271 51h3v38h-3z" class="st6"/>
      </g>
      <g class="st16">
        <path d="M265 12h3v78h-3z" class="st6"/>
      </g>
      <g class="st16">
        <path d="M258 12h3v78h-3z" class="st6"/>
      </g>
      <g class="st16">
        <path d="M252 12h3v78h-3z" class="st6"/>
      </g>
      <g class="st16">
        <path d="M245 12h3v78h-3z" class="st6"/>
      </g>
      <g class="st16">
        <path d="M238 12h3v78h-3z" class="st6"/>
      </g>
      <g class="st16">
        <path d="M232 13h3v78h-3z" class="st6"/>
      </g>
      <g class="st16">
        <path d="M225 13h3v78h-3z" class="st6"/>
      </g>
      <g>
        <path d="M283 39l-13-7 16-9 13 8 15 8-49 29-16-9z" class="st4"/>
        <path d="M265 69v-1l-16-8v-1l33-20-12-6v-1l16-9 28 16 1 1h-1l-49 29c0-1 0 0 0 0zm-14-10l14 8 48-28-27-15-14 8 12 7v1l-33 19z" class="st5"/>
      </g>
      <g>
        <path d="M265 85v-1l-16-8V59h1v16l15 8 48-28V39h2v16l-1 1-49 28v1z" class="st5"/>
      </g>
      <g>
        <path d="M270 32h1v15h-1z" class="st5"/>
      </g>
      <g>
        <path d="M265 84l-16-9V59h1v16l15 8z" class="st5"/>
      </g>
    </g>
    <g class="st3">
      <path d="M446 283c14 8 14 21 0 29s-36 8-50 0-14-21 0-29 36-8 50 0z" class="st4"/>
      <path d="M385 288h71v10h-71z" class="st7"/>
      <defs>
        <path id="SVGID_91_" d="M457 298v-10h-5l-6-5c-14-8-36-8-50 0l-6 5h-5v9c0 6 3 11 10 15 14 8 37 8 51 0 7-4 11-9 11-14z"/>
      </defs>
      <clipPath id="SVGID_10_">
        <use overflow="visible" xlink:href="#SVGID_91_"/>
      </clipPath>
      <g clip-path="url(#SVGID_10_)">
        <path d="M389 321h-4v-39h4v39zm7-39h-3v39h3v-39zm8 0h-4v39h4v-39zm8 0h-4v39h3v-39zm7 1h-4v39h4v-39zm8 0h-4v39h3v-39zm7 0h-4v39h4v-39zm8 1h-4v39h4v-39zm7 0h-4v39h4v-39zm8 0h-4v39h4v-39z" class="st1"/>
      </g>
      <g>
        <ellipse cx="421" cy="288" class="st4" rx="36" ry="21"/>
        <path d="M421 309c-9 0-19-2-26-6s-10-9-10-15 3-11 10-15c14-8 37-8 51 0h1c6 4 10 9 10 15s-4 11-11 15-16 6-25 6zm0-41c-9 0-18 2-25 6s-10 9-10 14 3 10 10 14c14 8 36 8 50 0 6-4 10-9 10-14s-4-10-10-14c-7-4-16-6-25-6z" class="st5"/>
      </g>
      <g>
        <path d="M421 319c-9 0-19-2-26-6s-11-10-10-15v-11h1v11c0 5 3 10 10 14s16 6 25 6 18-2 25-6 10-9 10-15c0 1 0 0 0 0v-10h1v11c0 5-3 11-10 15-8 4-17 6-26 6z" class="st5"/>
      </g>
    </g>
    <g class="st3">
      <path d="M173 248v10l-33 19-32-19 65-10z" class="st4"/>
      <path d="M140 278l-33-19v-1h1l32 18 32-18v-10-1l1 1v11l-33 19z" class="st5"/>
      <path d="M140 229l-32 19 19 11 12 7h2l12-7 20-11z" class="st4"/>
      <path d="M140 267l-1-1-32-18v-1l33-19 33 19v1l-33 19zm0-2v1l31-18-31-18-31 18 31 17z" class="st5"/>
      <g>
        <path d="M149 253c-5 3-13 3-18 0-3-2-4-4-4-6s2-3 4-5l8-2h4l5 2h1c5 3 5 8 0 11z" class="st4"/>
        <path d="M140 256l-9-2c-3-2-5-4-5-7 1-2 2-4 5-5l8-2h4l5 1 1 1c3 1 5 3 5 6 0 2-2 4-5 5v1l-9 2zm-9-3c5 2 13 2 18 0 2-2 3-3 3-5s-1-4-3-5l-2-1-5-1h-3l-8 2-3 4 3 6z" class="st5"/>
      </g>
      <g>
        <path d="M108 248v10l32 19v-11z" class="st4"/>
        <path d="M140 278l-33-19v-11-1h1l32 19h1v11l-1 1zm-32-20l31 18v-9l-31-18v9z" class="st5"/>
      </g>
      <g>
        <path d="M131 253c5-3 13-3 18 0h-18z" class="st4"/>
        <path d="M131 254l-1-1h1c5-3 13-3 19 0l-1 1c-5-3-13-3-18 0z" class="st5"/>
      </g>
    </g>
    <g class="st3">
      <path d="M176 254l10-17 10 6 10-18 10 6 9-17 8 4-12-6-10 17-10-6-10 17-9-6-10 17-10-5-12 20 5 2 11-20z" class="st8"/>
      <path d="M176 262l10-17 10 6 10-17 10 5 9-17 9 5 3-6-12-7-9 17-10-5-10 17-10-6-10 17-10-6-11 20 3 2 8-14z" class="st4"/>
      <path d="M158 271l-3-2-1-1 12-20h1l9 5 10-16v-1l10 6 9-17h1l9 5 10-16h1l11 6h1v1l-4 6h-1l-7-4-10 16h-1l-9-5-10 17-10-5-9 16h-1l-9-5-8 13-1 1zm-2-3l2 2 8-14h1l9 5 10-16c0-1 0-1 0 0l10 5 9-17h1l9 5 10-16h1l7 4 3-5-10-6-10 16-1 1-9-6-10 17-10-5-9 16h-1l-9-5-11 19z" class="st5"/>
      <g>
        <path d="M155 269l-5-3 12-21 10 6 9-17 10 5 10-17 10 6 10-17 12 7-1 1-11-7-10 17-9-5-10 17-10-6-10 17-10-5-11 18 4 3z" class="st5"/>
      </g>
    </g>
    <g class="st3">
      <defs>
        <path id="SVGID_93_" d="M12 75l21 12V63L12 51z"/>
      </defs>
      <use fill="#e6bd2f" overflow="visible" xlink:href="#SVGID_93_"/>
      <clipPath id="SVGID_11_">
        <use overflow="visible" xlink:href="#SVGID_93_"/>
      </clipPath>
      <g clip-path="url(#SVGID_11_)">
        <path d="M-13 63h52v2h-52z" class="st4" transform="rotate(90 13 64)"/>
        <path d="M-10 63h52v2h-52z" class="st4" transform="rotate(90 16 64)"/>
        <path d="M-7 63h52v2H-7z" class="st4" transform="rotate(90 19 64)"/>
        <path d="M-4 63h52v2H-4z" class="st4" transform="rotate(90 22 64)"/>
        <path d="M0 63h52v2H0z" class="st4" transform="rotate(90 26 64)"/>
        <path d="M3 63h52v2H3z" class="st4" transform="rotate(90 29 64)"/>
        <path d="M6 63h52v2H6z" class="st4" transform="rotate(90 32 64)"/>
        <path d="M9 63h52v2H9z" class="st4" transform="rotate(90 36 64)"/>
        <path d="M13 63h52v2H13z" class="st4" transform="rotate(90 39 64)"/>
        <path d="M16 63h52v2H16z" class="st4" transform="rotate(90 42 64)"/>
        <path d="M19 63h52v2H19z" class="st4" transform="rotate(90 45 64)"/>
        <path d="M23 63h52v2H23z" class="st4" transform="rotate(90 49 64)"/>
        <path d="M26 63h52v2H26z" class="st4" transform="rotate(90 52 64)"/>
      </g>
      <g>
        <path d="M12 51l21 12 21-12-21-12z" class="st4"/>
        <path d="M33 63L12 51h-1l1-1 21-12 21 12 1 1h-1L33 63zM13 51l20 11 20-11-20-12-20 12z" class="st5"/>
      </g>
      <g>
        <path d="M54 75L33 87V63l21-12z" class="st6"/>
        <path d="M33 88l-1-1V63l1-1 21-12 1 1v24h-1L33 87v1zm1-25v23l19-11V52L34 63z" class="st5"/>
      </g>
      <g>
        <path d="M33 88L12 76l-1-1V51l1-1 21 12 1 1v24l-1 1zM13 75l19 11V63L13 52v23z" class="st5"/>
      </g>
    </g>
    <g class="st3">
      <path d="M130 417l-10-17-10 6-10-18-10 6-10-17-7 4 12-6 10 17 9-6 10 17 10-6 10 17 10-5 11 20-4 2-12-20z" class="st8"/>
      <path d="M130 425l-10-17-10 6-10-17-10 5-10-17-8 5-3-6 11-7 10 17 10-5 10 17 10-6 10 17 9-6 12 20-4 2-8-14z" class="st4"/>
      <path d="M147 434l-8-14-9 5h-1l-10-16-9 5h-1l-9-17-10 6v-1l-10-16-8 4c0 1 0 1 0 0l-4-6v-1l12-6h1l9 16 10-5 10 17 9-5h1l10 16 9-5h1l11 20v1l-3 2h-1zm-8-15h1l8 14 2-2-11-19-9 5h-1l-10-16-9 5h-1l-9-17-10 6v-1l-10-16-11 6 3 5 8-4h1l9 16 10-5 10 17 9-5h1l10 16 9-5z" class="st5"/>
      <g>
        <path d="M151 432v-1l4-2-11-19-10 5-10-17-10 6-10-17-10 5-9-16-12 6v-1l12-7 10 17 10-6 9 17 10-5 10 17 10-6 12 21z" class="st5"/>
      </g>
    </g>
    <g class="st3">
      <path d="M261 378c14 8 14 21 0 29s-37 8-51 0-14-21 0-29 37-8 51 0z" class="st4"/>
      <path d="M200 383h71v10h-71z" class="st7"/>
      <defs>
        <path id="SVGID_95_" d="M271 393v-10h-4l-6-5c-14-8-37-8-51 0l-6 5h-4v9c-1 6 3 11 10 15 14 8 37 8 51 0 7-4 10-9 10-14z"/>
      </defs>
      <clipPath id="SVGID_12_">
        <use overflow="visible" xlink:href="#SVGID_95_"/>
      </clipPath>
      <g clip-path="url(#SVGID_12_)">
        <path d="M204 416h-4v-39h3v39zm7-39h-4v39h4v-39zm8 0h-4v39h4v-39zm7 0h-4v39h4v-39zm8 1h-4v39h4v-39zm7 0h-4v39h4v-39zm8 0h-4v39h4v-39zm7 1h-4v39h4v-39zm8 0h-4v39h4v-39zm7 0h-4v39h4v-39z" class="st1"/>
      </g>
      <g>
        <ellipse cx="236" cy="383" class="st4" rx="36" ry="21"/>
        <path d="M236 404c-10 0-19-2-26-6s-11-9-11-15 4-11 11-15c14-8 37-8 51 0 7 4 11 9 11 15s-4 11-11 15-16 6-25 6zm0-41c-9 0-19 2-25 6-7 4-11 9-11 14s4 10 11 14c13 8 36 8 49 0 7-4 11-9 11-14s-4-10-11-14c-6-4-15-6-24-6z" class="st5"/>
      </g>
      <g>
        <path d="M236 414c-10 0-19-2-26-6s-11-10-11-15v-11h2v11c-1 5 3 10 10 14s16 6 25 6 18-2 24-6c7-4 11-9 11-15 0 1 0 0 0 0v-10h1v11c0 5-4 11-11 15s-16 6-25 6z" class="st5"/>
      </g>
    </g>
    <g class="st3">
      <path d="M336 98l14 21 11-6V84c-7-4-14-5-18-2l-5 5-1 2-1 9z" class="st4"/>
      <path d="M350 120l-1-1-14-21 2-10 1-2 4-4c6-3 12-3 19 1v30l-11 7zm-14-22l14 20 10-6V84c-6-4-12-4-17-1l-4 4-1 2-2 9z" class="st5"/>
      <path d="M332 91l5-2 13 1 11-6c-7-4-14-5-18-2l-10 6-1 3z" class="st4"/>
      <path d="M332 91v-3-1l10-6c5-3 12-2 19 2v1l-11 6-12-1-5 2h-1zm1-3v2l4-2 13 2 10-6c-7-4-13-4-17-1l-10 5z" class="st5"/>
      <g>
        <path d="M325 105l25 14V90c-14-8-25-1-25 15z" class="st6"/>
        <path d="M350 120v-1l-25-14-1-1c0-7 3-13 8-16s11-2 18 2v30zm-25-16l24 14V90c-6-3-12-4-17-1-4 2-7 8-7 15z" class="st5"/>
      </g>
    </g>
    <g class="st3">
      <path d="M382 5v11l-32 19-32-19 64-11z" class="st4"/>
      <path d="M350 35l-33-18v-1h1l32 18 32-18V5h1v12l-33 18z" class="st5"/>
      <path d="M350-13L318 5l19 12 12 7h2l12-7 19-12z" class="st4"/>
      <path d="M350 25l-1-1-32-18V5l33-19 33 19v1l-33 19zm-1-2h1l31-18-31-18-31 18 30 18z" class="st5"/>
      <g>
        <path d="M359 11c-5 3-13 3-18 0-3-2-4-4-4-6s1-3 4-5l8-2h3l5 1 2 1c5 3 5 8 0 11z" class="st4"/>
        <path d="M350 14c-4 0-7-1-10-3h1-1c-3-1-4-4-4-6s2-4 4-5l9-3h3l6 2 1 1c3 1 4 3 4 5 0 3-1 5-4 6-2 2-6 3-9 3zm-9-4c5 3 13 3 18 0l3-4c0-2-1-4-3-5l-2-1-5-1h-3l-8 2-3 4c-1 2 1 4 3 5z" class="st5"/>
      </g>
      <g>
        <path d="M318 5v11l32 19V24z" class="st4"/>
        <path d="M350 35l-33-18V5h1l32 19v11c1 0 0 0 0 0zm-32-19l31 18V24L318 6v10z" class="st5"/>
      </g>
      <g>
        <path d="M341 11c5-3 13-3 18 0h-18z" class="st4"/>
        <path d="M341 11h-1v-1c6-3 14-3 19 0l1 1h-1c-5-2-13-2-18 0z" class="st5"/>
      </g>
    </g>
    <g class="st3">
      <path d="M350 387l-32 18 19 12 12 7h2l12-7 19-12z" class="st4"/>
      <path d="M350 425l-1-1-32-18v-1l33-19 33 19v1l-33 19zm-1-2h1l31-18-31-18-31 18 30 18z" class="st5"/>
      <g>
        <path d="M359 411c-5 3-13 3-18 0-3-2-4-4-4-6s1-3 4-5l8-2h3l5 1 2 1c5 3 5 8 0 11z" class="st4"/>
        <path d="M350 414c-4 0-7-1-10-3h1-1c-3-1-4-4-4-6s2-4 4-5l9-3 3 1 6 1 1 1c3 1 4 3 4 5 0 3-1 5-4 6-2 2-6 3-9 3zm-9-4c5 3 13 3 18 0l3-4c0-2-1-4-3-5l-2-1-5-1h-3c-3 0-6 0-8 2-2 1-3 2-3 4-1 2 1 4 3 5z" class="st5"/>
      </g>
    </g>
    <g class="st3">
      <path d="M44 210c0-25-17-56-39-68-11-7-21-7-28-3l-17 11 44 22 23 47 17-9z" class="st4"/>
      <path d="M27 220v-1L3 172l-44-22v-1l17-10c8-5 18-4 29 2 22 13 40 43 40 68v1h-1l-16 10h-1zm-66-70l43 21 24 47 16-9c-1-24-18-54-39-67-11-6-21-7-28-2l-16 10zm84 60z" class="st8"/>
      <g>
        <defs>
          <path id="SVGID_97_" d="M-51 174l20 12c0-13 9-17 19-11s19 20 19 32l20 12c0-25-17-55-39-68-22-12-39-2-39 23z"/>
        </defs>
        <use fill="#e6bd2f" overflow="visible" xlink:href="#SVGID_97_"/>
        <clipPath id="SVGID_13_">
          <use overflow="visible" xlink:href="#SVGID_97_"/>
        </clipPath>
        <g clip-path="url(#SVGID_13_)">
          <path d="M-8 146v-1l-3-6v-1l1 1 3 6v1h-1zm2-11v-7l-1-1v7l1 1zm-34-21l4-2-1-1-1-1-3 3v1h1zm26 25v-1l-4-7h-1v1l5 6v1zm-16 30v-7l-1-1v7l1 1zm-14-12l-1-7-1-1-1 1 2 6 1 1zm19 13l4-2v-1h-1l-4 2v1h1s0 1 0 0zm-15 8v-2l-5-6v1l4 6 1 1zm20 16v-1l-3-6-1-1v1l3 7h1zm12 10v-1l-4-6-1-1v1l4 6v1h1zm18-42l1-5-1-2-1 1v5 1h1zm18 21v-1l-4-7h-1v1l4 6 1 1zm-14-12l-1-1-5-6v1l5 6h1zm-15-21v-1l-1-7h-2l2 7v1h1zm-20-18v-1l-4-6-1-1v1l4 7h1zm0 12v-1l-4-6h-1v1l4 6h1zm-13-14l2-5v-1h-1l-2 4v2h1zm2 16v-1l-3-7-1-1v1l3 7 1 1zm-6-12l-1-1-5-5v1l5 5h1zm-2-11l-1-1-5-3h-1l1 1 5 4 1-1zm-5-4l-1-1-4-5h-1v1l5 5h1zm-4 16v-1l-3-7-1-1v1l3 7v1h1zm0 15v-1l-1-6v-1h-1l1 7h1v1zm22 16v-1l-1-6-1-1 1 7v1h1zm8-5v-2l-5-5h-1v1l5 5v1h1zm11-25v-1l-5-5h-1v1l5 5h1zm-2 19v-1l-5-6h-1v1l5 6h1zm27 36l2-4v-1h-1l-3 3 1 1v1h1zm7-22v-1l-3-7-1-1v2l3 6 1 1zm-9 31l-3-7-1-1v1l3 7h1s0 1 0 0zm11 19v-6l-1-1v1l-1 6 1 1 1-1zm-7 11l2-5v-1h-1l-2 5 1 1zm-21-10v-1l-4-6-1-1v1l4 7h1zm-17-8l5 2h1l-1-1-5-2h-1l1 1zm-2-13l-1-1-5-3h-1l1 1 5 4 1-1zm-7 7l1-6v-1l-1 1-1 5 1 1c0 1 0 0 0 0zm-7-5l1-5v-1h-1l-1 6 1 1v-1zm-1-12l5 2v-1l-1-1-5-1 1 1zm-8 8l-2-7v-1l-1 1 2 6 1 1zm3-7v-1l-3-7h-1v1l3 6 1 1zm32-26l1-5-1-1c0-1 0-1 0 0l-1 5v1h1zm23 21l-1-1-4-5-1-1v1l5 6h1zm8 0v-1l-5-5h-1l1 1 4 5v1l1-1zM3 173l3-4v-1H5l-3 3v1l1 1zm19-17v-6l-1-1-1 6 1 1h1zm-9 1l4-1v-1l-5 1v1h1zm11-5v-1l-3-7v-1l-1 1 3 7 1 1zm-24 7l-1-1-4-6h-1v1l5 6h1zm-8 9l5 3v-1-1l-6-2c0-1 0 0 0 0l1 1zm-21-49l5 3 1-1-1-1-5-2h-1l1 1zm18 62l5 2 1-1-1-1-5-2-1 1 1 1c0-1 0 0 0 0zm12 6l3-3v-1H3l-3 3v1h1zm3 6l3-3v-1l-1-1-3 3v2h1zm1 18v-1l-2-6v-1H2l2 7 1 1zm-24-28l5-1v-1h-5l-1 1h1v1zm-1-7l1-5v-1h-1l-1 5 1 2v-1zm23-9l1-5v-2l-1 1-1 5v1h1zm-28 27v-1l-3-7h-1l3 7v1h1zm36 24v-1l-3-7-1-1v1l3 7 1 1zm10-15v-1l-3-7h-1l3 7v1h1zm-58-79l-3-7-1-1v1l3 7h1zm23 65l2-5-1-1-2 5v1h1c0 1 0 1 0 0zm4 5h5v-1l-1-1h-5v1h1v1zm14 4l3-4-1-1-3 4v1h1zm17 14l1-5v-2l-1 1-1 5v1h1zm0-14l3-4v-1h-1l-3 3v2h1zm-6 21l1-6-1-1-2 5 1 2h1zm1 10v-1l-2-6-1-1 2 7v1h1zm-10-4l5 1v-1-1H6l-1 1h1zm18 11l1-6v-1h-1l-1 6 1 1zm-13-88l-1-7-1-1v1l1 6 1 1zm-7-7l1-1-3-7-1-1v1l2 7 1 1zm-22 14l1-4-1-2v1l-1 3 1 2zm0 14v-1l-2-5-1-1v1l2 5 1 1zm-19 8l1-1-2-5-1-1-1 1 2 5 1 1zm49-21v-1l-2-5-1-1v1l2 5 1 1zm-35 29l2-3v-1h-1l-2 3v1h1zm-25-16l1-2v-2h-1l-2 3 1 1h1zm22-21l4 2v-1-1l-4-1v1zm-18-7v-1l-2-5h-1l2 5v1h1zm4 16h3l1-1-1-1h-4v1h1v1zm32 22l1-1-2-5-1-1v1l2 5v1zm17 11l2-4-1-1-2 3 1 1v1zm4-13v-1l-2-5h-1v1l2 4 1 1zm5-6l1-4-1-1h-1l-1 3 1 2h1zm-5 37v-1l-3-5H9v1l3 4v1h1zm5 7l3 1h1l-1-1-4-1v1h1zm-20-1l1-4v-1h-1l-1 3v2h1zm-25-31v-1l-3-5h-1v1l3 4v1h1zm-13-15l2-2v-1l-1-1-2 3v1h1zm3-18l1-1-1-5v-1l-1 1 1 5v1c0-1 0-1 0 0zm27 19v-2l-4-2h-1l1 2 4 2zm13 31l-1-1-3-3-1 1 1 1 3 2h1zm-15 12l-1-1-3-3-1 1 1 1 3 2h1zm-24-40l4 2h1l-1-2-4-2v2zm26-22v-1l-1-5-1-1v1l1 5 1 1zm35 13v-1l-2-4v-1h-1l2 5v1h1zm-49-29v-1l-4-3h-1l1 1 4 3v0zm28 17l2-2v-1l-1-1-2 3v1h1zm-3 29l-1-1-3-3-1 1 1 1 3 2h1zm13 3l1-4-1-1c0-1 0-1 0 0l-1 3v2h1zm-16 4l1-1-1-4v-1h-1v5l1 1zm2 5l-1-1-3-2h-1v1l4 3 1-1zm-4 12v-5l-1-1c0-1 0 0 0 0v5l1 1zm-12 2l2-3v-1h-1l-2 3v1h1zm-17-22l-2-5-1-1v1l2 5h1zm11 24l1-4-1-1-1 4 1 1zm-24-45v-1l-3-4h-1v1l4 4zm30-3l3-2v-1h-1l-3 1v1l1 1zm2 15l1-1-1-5-1-1v5l1 1v1zm18 44l3-1v-1l-1-1-3 1v1l1 1zm16 4l3-1v-1l-1-1-3 1v1l1 1zm-49-82v-1l-1-5-1-1v1l1 5 1 1zm-16 36l-1-1-4-3v2l4 2h1zm9-57l1-4-1-1h-1v6l1-1zm18 21l1-1v-1h-1l-1 1v1h1zm16 23v-1l-2-2-1-1v2l3 2zm6-6l1-3-1-1H3v4h1zm0-13h3v-1l-1-1H4l-1 1h1v1zm-51 44v-3-1h-1l-1 3 1 1h1zm38 22l1-2-1-2-1 1v3h1zm9-71v-1l-2-2-1-1v1l2 3h1c0 1 0 0 0 0zm16 11l1-1-1-3-1-1v4l1 1zm-38-26l2-1v-1l-1-1-2 1v2h1zm-7 0v-1l-1-3v-1h-1l1 3v1l1 1zm-17 0v-1l-3-2-1 1 1 1 2 1h1zm2-11l1-1-1-3v-1h-1l1 4v1zm6 19h3c0 1 0 0 0 0v-1l-3-1v2zm10 21v-1l-2-3h-1v1l2 3h1zm-15-6l2-1v-1h-3v1l1 1zm-3-3v-1l-1-3h-1v1l1 3h1zm-5 39l2-1-1-1-2 1v1h1zm11-45v-2l-2-2-1-1v1l2 3 1 1zm7 27v-1l-3-2v2l3 1zm15 25l2-1v-1h-1l-2 1v1h1c0 1 0 1 0 0zm-8-13l1-1-1-3-1-1v1l1 3v1zm42 30l1-1-1-3-1-1v4l1 1zm-47-10l1-1-1-3-1-1v1l1 3v1zm-18-6h2v-1l-1-1h-2v2h1zm13 3v-1l-1-3-1-1v1l1 3v1h1zm-4-11l2-1v-1h-3v1l1 1zm-1 12h2v-1l-1-1-1 1v1zm60-20h2v-1l-1-1-2 1v1h1zm-70-50l1-6v-1l-1 1-1 5v1h1zm3-14h1l-1-7-1-1s-1 0 0 0l1 7v1zm-1 44v-1l-3-4h-1v1l4 4c0 1 0 1 0 0zm81 7v-1l-5-5h-1v1l5 5v1l1-1zm-4 16v-1l-3-6-1-1v1l3 7h1zm-2 50l2-1v-1l-1-1-2 1v2h1zm0-59l1-5v-1h-1l-1 5 1 2v-1zm3 31l-1-1-3-4h-1v1l4 4h1zm-17-58l1-2v-1h-1l-1 2v1h1c0 1 0 0 0 0zm-7 36v-1l-3-3H1l1 1 2 3h1zm-7-26h2v-1l-1-1h-2v2h1zm-21 1h3l-1-1h-3l1 1zm39 79h2l1-1-1-1h-3v1h1v1zm-49-77h2v-1l-1-1h-2v2h1zm58 34v-1l-3-1h-1l1 1 3 2v-1zm1 15l-1-2-2-1h-1l1 1 2 2h1zm-10-42v-1l-3-2-1 1 1 1 3 2v-1zm-31-34l-1-1-3-2v2l3 1h1zm38 54l1-2v-1h-1l-1 2v1h1zm-33-52l1-1-1-3-1-1v4l1 1zm4 93v-7l-1-1v7l1 1zm-34-21l4-2-1-1-1-1-3 3v1h1zm64 38v-1l-3-7v-1l-1 1 3 7 1 1zm-53-33l5 3h1l-1-1-5-3h-1l1 1zm40 29c0 1 0 0 0 0l-1-7-1-1v1l1 6 1 1zm-7-7l1-1-3-7H1l2 7 1 1zm-26-16l2-1v-1l-1-1-2 2v1h1zm-22-11l1-1-1-3v-1l-1 1 1 3v1zm-4-2h1l-1-7-1-1v1l1 6v1zm60 31l1-1v-2h-1l-1 2v1l1 1v-1zm-22-12l1-1-1-3-1-1v4l1 1zm-7-21l2-1v-1l-1-1-2 1v1h1v1zm-11-54l-1-1-2-2-1 1 1 1 2 1h1zm-1-12v-1l-3-2v2l3 1zm21 55v-1l-1-3-1-1v1l1 4h1zm-36-71v-1l-2-3h-1v1l2 3h1zm46 93v-1l-3-2v1l3 2zm-1 10h2v-1l-1-1H1v2h1z" class="st4"/>
        </g>
      </g>
      <g>
        <path d="M27 220L7 208l-1-1c0-11-8-26-18-32-5-3-10-3-13-1s-5 6-5 12h-1l-20-12h-1c0-12 4-22 12-26 8-5 18-4 28 3a88 88 0 0 1 40 69h-1zM8 207l19 11c-1-25-18-54-39-66-10-6-20-7-27-3s-11 13-11 24l19 11c0-5 2-9 5-11 4-2 9-2 14 1 11 6 20 21 20 33z" class="st8"/>
      </g>
    </g>
    <g class="st3">
      <path d="M107 22c0-25-18-55-40-68-11-6-21-7-28-2L22-38l44 22 24 48 17-10z" class="st4"/>
      <path d="M90 33l-1-1-23-47-44-22v-1l17-10c7-5 18-4 29 2 21 12 39 43 39 68v1L90 33zM23-38l44 22 23 47 16-9c0-25-18-55-39-67-10-6-20-7-28-2l-16 9zm84 60z" class="st8"/>
      <g>
        <defs>
          <path id="SVGID_99_" d="M11-13L32-2c0-12 8-16 19-10C61-6 69 8 69 20l21 12c0-25-18-55-39-68-22-12-40-2-40 23z"/>
        </defs>
        <use fill="#e6bd2f" overflow="visible" xlink:href="#SVGID_99_"/>
        <clipPath id="SVGID_14_">
          <use overflow="visible" xlink:href="#SVGID_99_"/>
        </clipPath>
        <g clip-path="url(#SVGID_14_)">
          <path d="M55-41l-1-1-3-6v-1h1l3 7v1zm1-12h1l-1-6v-1h-1l1 6v1zM23-73l3-3v-1h-1l-3 2v2h1zm26 25v-1l-4-7h-1v1l4 6v1h1zM32-18l1-1-1-6v-1h-1v7l1 1zM18-30l1-1-2-6-1-1v1l1 6 1 1zm20 13l3-2v-1l-1-1-3 3v1h1zm-16 7v-1l-4-6h-1v1l4 6h1zM43 7V6l-4-7h-1v1l4 6v1h1zm11 10v-1l-4-7h-1v1l4 6 1 1zm18-42l1-6v-1l-1 1-1 5 1 1zM91-4v-2l-4-6h-1v1l4 6 1 1zM76-16v-2l-5-5h-1v1l5 5 1 1zM61-37l1-1-2-7-1-1v1l1 7 1 1zM42-55v-1l-4-6-1-1v1l4 7h1zm-1 12v-1l-4-6-1-1v1l4 7h1zM28-57l2-5v-1h-1l-2 4v1l1 1zm3 15v-1l-4-6-1-1v1l4 7h1zm-7-11v-1l-5-5h-1v1l5 5h1zm-2-11l-1-1-5-3h-1l1 1 5 4 1-1zm-5-4v-2l-5-5h-1l1 2 5 5zm-4 15v-1l-3-6-1-1v1l3 7h1c0 1 0 1 0 0zm0 15h1l-1-7-1-1v1l1 6v1zm22 17l1-1-2-6v-1h-1l1 7 1 1zm8-6v-1l-5-5h-1l1 1 5 5c0 1 0 1 0 0zm12-24l-1-1-5-5h-1l1 1 5 5h1zm-3 19v-1l-5-6h-1l1 1 4 5 1 1zM79 4l3-4v-1h-1l-3 3v1l1 1zm8-22v-1l-4-7-1-1v1l4 7 1 1zm-9 31v-1l-4-6V5l-1 1 4 7h1zm10 19v-6-1h-1v6l1 1v0zm-6 11l2-5-1-1h-1l-1 5v1h1zM60 33v-1l-3-6-1-1v1l3 7h1zm-17-8l5 2 1-1-1-1-5-1c0-1-1 0 0 0v1zm-2-13v-1l-6-4v2l6 3c0 1 0 0 0 0zm-6 7l1-6-1-1h-1v7h1zm-7-5l1-5-1-1h-1v7l1-1zM26 2l5 1h1l-1-1-5-1h-1l1 1zm-8 8l1-1-2-6-1-1 1 7 1 1zm4-7V2l-4-7s0-1 0 0h-1l4 7v1h1zm31-26l1-5v-1h-1l-1 5 1 1zM76-2v-1l-4-6h-1v1l4 6h1zm9 0l-1-1-4-5-1-1v1l5 6h1zM66-14l3-4-1-1-3 3v1l1 1zm18-17l1-6-1-1h-1v7h1zm-8 1l4-1v-1l-1-1-4 2v1h1zm11-5v-1l-3-7-1-1v1l3 7 1 1zm-25 7v-1l-4-6-1-1v1l4 7h1zm-8 9l5 2h1l-1-1-5-3-1 1 1 1zM33-68l6 3v-1-1l-6-2c0-1 0 0 0 0v1zM51-7l6 2c0 1 0 0 0 0v-1l-6-2v1zm13 7l3-3v-1l-1-1-3 3v2h1zm2 6l3-3V2l-1-1-3 3v1l1 1zm1 18l1-1-2-7-1-1v1l2 7v1zM44-5h4l1-1h-6v1h1zm-1-6l1-5-1-1c0-1 0-1 0 0l-1 5v1h1zm23-9l1-6-1-1h-1l-1 6 1 1h1zM37 7V6l-2-7-1-1-1 1 3 7 1 1zm37 23v-1l-3-6-1-1v1l3 7h1zm9-14v-1l-3-7-1-1v1l3 7 1 1zM25-63v-1l-2-6-1-1-1 1 3 7h1zM49 2l1-5v-1h-1l-1 5v1h1zm3 4l5 1 1-1-1-1h-5s-1 0 0 0v1zm15 5l2-4V6h-1l-2 4v1h1zm17 14l1-6-1-1h-1l-1 6 1 1h1zm-1-15l3-3V6h-1l-3 3v1h1c0 1 0 1 0 0zm-6 21l1-5v-1h-1l-1 5 1 1v0zm1 11l1-1-2-7-1-1v1l1 7 1 1zm-9-4l4 1 1-1-1-1h-5v1h1zm18 11l1-6-1-1h-1v6 1h1zM73-39h1l-1-7-1-1s-1 0 0 0l1 7v1zm-6-7v-1l-2-7-1-1v1l2 7 1 1zM45-33v-4-1h-1v4 1h1zm0 15v-1l-2-5-1-1v1l2 5v1h1zm-19 8v-1l-2-5-1-1v1l2 5h1v1zm48-22v-1l-2-5h-1v1l2 5h1zM39-2l2-3v-1h-1l-2 2v1l1 1zM14-18l2-3v-1h-1l-2 3v1h1zm23-21l3 1h1l-1-1-3-1h-1l1 1zm-19-7l1-1-2-5-1-1-1 1 2 5 1 1zm4 15h4l-1-1h-3v1zM55-9l-1-5-1-1v1l1 5h1zM72 2l1-3v-1h-1l-1 3v1h1zm4-12v-1l-3-5-1-1v1l3 5v1h1zm4-7l1-3v-1h-1l-1 3v1h1zm-5 38v-2l-3-4h-1v1l3 4 1 1zm5 7l4 1v-1l-1-1h-4l1 1zm-20-1l2-4-1-1-2 3v2h1zM35-4v-1l-3-5-1-1 1 1 2 5 1 1zM23-19l2-3v-1h-1l-2 2v2h1zm3-19v-5l-1-1v5l1 1zm27 19l-1-1-4-2v1l4 3 1-1zm12 32v-2l-4-2h-1l1 2 4 2zM51 25l-1-2-4-2v1l4 3h1zM27-15l4 2v-1-1l-4-2-1 1 1 1zm25-22l1-1-2-5-1-1v1l2 5v1zm35 13v-1l-1-5-1-1v1l1 5 1 1zM39-53l-1-1-3-3h-1v1l4 3h1zm28 17l2-3v-1h-1l-2 2v2h1zM64-7l-1-1-4-3h-1l1 2 4 2h1zm13 2v-3-2l-1 1-1 3 1 1v1l1-1zM61 0v-5l-1-1h-1l1 5 1 1c-1 0 0 0 0 0zm1 5V4l-4-2h-1l1 1 4 3V5zm-4 11h1v-5l-1-1-1 1v4l1 1zm-12 3l2-3v-1h-1l-2 3v1h1zM29-3v-1l-1-5h-1l1 5 1 1zm12 24v-4-1h-1v4 1h1zM17-24v-1l-4-4h-1l1 1 3 4h1zm30-4l2-1v-1-1l-3 2v1h1zm2 15l-1-5v-1l-1 1 1 4 1 1zm18 45l3-1v-1l-1-1-3 1v2h1zm16 4l3-1v-1l-1-1-3 1v1l1 1zM34-46v-1l-2-5-1-1v1l2 5v1h1zM17-10v-1l-4-3h-1l1 1 3 3h1zm10-57v-4l-1-1-1 4 1 1h1zm17 21l2-1v-1l-1-1-2 2v1h1zm17 23l-1-1-2-3h-1l1 1 2 3h1zm5-6l1-3v-1h-1l-1 3 1 1zm1-14l2 1 1-1-1-1h-3l1 1zM15 1l1-2-1-1h-1v4l1-1zm39 23v-3-1h-1l-1 3 1 1h1zm9-71l-1-1-2-3h-1l1 1 2 3h1zm16 10l-1-4h-1l1 4h1zM40-62l2-1v-1l-1-1-2 1v1l1 1zm-7-1h1l-1-4h-1c0-1 0 0 0 0v3l1 1zm-16 1l-1-1-3-2v1l3 2h1zm2-12v-3l-1-1v3l1 1zm6 19l2 1h1l-1-1-2-1h-1l1 1zm10 22l-1-1-2-3h-1v1l3 2v1h1zm-15-6l2-1v-1h-3v2h1zm-3-3v-1l-2-3-1-1v1l2 3v1h1zM11-3l2-1v-1h-3v1l1 1zm12-46v-1l-2-3h-1v1l2 3h1zm7 28l-1-1-2-2h-1l1 1 2 2h1zM45 4l1-1V2l-1-1-1 2v1h1zM37-9v-1l-1-3v-1h-1l1 4 1 1zm42 30v-1l-1-3v-1l-1 1 1 3 1 1zM32 11v-1l-1-3V6h-1l1 4 1 1zM13 5l2-1 1-1h-3l-1 1 1 1zm13 3V7l-1-3V3l-1 1 1 3 1 1zM23-3l2-1v-1l-1-1-2 1v2h1zM22 9l2-1V7h-1l-2 1v1h1zm59-20l2-1v-1h-1l-2 1v1h1zM12-61l1-6-1-1-1 6v1h1zm3-14v-1l-1-6v-1h-1l1 7 1 1zm-1 44v-1l-4-4H9l1 1 3 4h1zm81 7l-1-1-5-5h-1l1 1 5 5h1zM91-8v-1l-4-7h-1v1l4 6v1h1zm-3 50l2-1v-1l-1-1-2 1v1h1v1zm1-59l1-5v-1h-1l-1 5v1h1zm2 31v-1l-4-4v0l3 4 1 1zM75-44l1-2v-1h-1l-1 2v1h1zM68-8l-1-2-2-2h-1v1l3 2v1h1zm-8-26h2l1-1-1-1h-2l-1 1 1 1zm-20 1h2l1-1h-1l-3-1v1l1 1zm38 78l3 1v-1l-1-1h-2v1zM29-31l2-1 1-1h-3l-1 1 1 1zM88 3l-1-1-2-2-1 1 1 1 2 2 1-1zm1 14l-1-1-3-2v2l3 2 1-1zM79-24l-1-1-2-2-1 1 1 1 2 1h1zM47-58v-1l-3-2h-1l1 1 2 2h1zM85-4l2-2-1-1c0-1 0-1 0 0l-2 1 1 2zM53-56v-4l-1-1h-1l1 4v1h1zm3 93l1-1-1-6v-1h-1l1 7v1zM23 16l3-3v-1h-1l-3 2v2h1zm64 38v-1l-3-7-1-1v1l3 7v1h1zM33 21l6 3v-1-1l-6-2v1zm40 29h1l-1-7-1-1v1l1 6v1zm-6-7v-1l-2-7-1-1v1l2 7 1 1zM40 27l2-1v-1l-1-1-2 1v1l1 1zM19 15c0 1 0 0 0 0v-3l-1-1v3l1 1zm-4-1v-1l-1-6V6h-1l1 7 1 1zm60 31l1-2v-1h-1l-1 2v1h1zM53 33v-4l-1-1-1 1 1 3v1h1zm-7-22h1v-1-1l-2 1v1h1zM35-42l-1-1-3-2v2l3 1h1zm-1-12l-1-1-2-2-1 1 1 1 2 1h1zM55 1V0l-2-3-1-1v1l2 3v1h1zM19-70v-1l-2-3-1-1v1l2 3v1h1zm46 93l-1-2-2-1h-1l1 1 2 2h1zm-2 10h3v-1l-1-1h-2l-1 1 1 1z" class="st4"/>
        </g>
      </g>
      <g>
        <path d="M90 33h-1L70 21v-1c0-12-8-26-19-32-4-3-9-3-12-1-4 2-6 6-6 11v1h-1L11-13c0-13 4-22 12-26 7-5 17-4 28 2a88 88 0 0 1 39 70zM70 20l19 11c0-25-18-54-39-66-10-6-20-7-27-3S12-25 12-14L31-3c0-5 2-9 6-11 4-3 9-2 14 1C61-7 70 8 70 20z" class="st8"/>
      </g>
    </g>
    <g class="st3">
      <path d="M27 389l5 10 16-11 1-6-10-1-2 1-10 7z" class="st4"/>
      <path d="M31 398l-5-9 13-9 10 2h1v1l-1 5v1l-17 10-1-1zm-3-9l4 9 16-10v-5l-9-2-11 8z" class="st8"/>
      <path d="M107 422c0-25-18-55-40-68-11-6-21-7-28-2l-17 11 44 21 24 48 17-10z" class="st4"/>
      <path d="M90 433l-1-1-23-47-44-22v-1l17-11c8-4 18-4 29 3 22 12 39 43 39 68v1l-17 9v1zm-67-71l44 22 23 47 16-9c0-25-18-55-39-67-10-6-20-7-28-3l-16 10zm84 60z" class="st8"/>
      <g>
        <defs>
          <path id="SVGID_101_" d="M11 387l21 11c0-12 8-17 19-11 10 7 19 21 19 33l20 12c0-25-18-56-39-68-22-12-40-2-40 23z"/>
        </defs>
        <use fill="#e6bd2f" overflow="visible" xlink:href="#SVGID_101_"/>
        <clipPath id="SVGID_15_">
          <use overflow="visible" xlink:href="#SVGID_101_"/>
        </clipPath>
        <g clip-path="url(#SVGID_15_)">
          <path d="M55 359l-1-1-3-6v-1h1l3 7v1zm1-12h1l-1-6v-1h-1l1 6v1zm-33-20l3-3v-1h-1l-3 2v2h1zm26 25v-1l-4-7h-1v1l4 6v1h1zm-17 30l1-1-1-6v-1l-1 1 1 6v1zm-14-12l1-1-2-6-1-1v1l1 6 1 1zm20 13l3-2v-1l-1-1-3 3v1h1zm-16 7v-1l-4-6h-1v1l4 6h1zm21 17v-1l-4-7h-1v1l4 6v1h1zm11 10v-1l-4-7h-1v1l4 6 1 1zm18-42l1-6v-1h-1l-1 6 1 1zm19 21v-2l-4-6h-1v1l4 6v1h1zm-15-12v-2l-5-5h-1v1l5 5 1 1zm-15-21l1-1-2-7-1-1v1l1 7 1 1zm-19-18v-1l-4-6-1-1v1l4 7h1zm-1 12v-1l-4-6-1-1v1l4 7h1zm-13-14l2-5v-1h-1l-2 4v1l1 1zm3 15v-1l-4-6-1-1v1l4 7h1zm-7-11v-1l-5-5h-1v1l5 5h1zm-2-11l-1-1-5-3h-1l1 1 5 3v1l1-1zm-5-4v-2l-5-5h-1l1 1 5 6zm-4 15v-1l-3-6-1-1v1l3 7h1c0 1 0 1 0 0zm0 15h1l-1-7-1-1v1l1 6v1zm22 17l1-1-2-6v-1h-1l1 7 1 1zm8-6v-1l-5-5h-1l1 1 5 5c0 1 0 1 0 0zm12-24l-1-1-5-5h-1l1 1 5 5h1zm-3 19v-1l-5-6h-1l1 1 4 5 1 1zm27 36l3-4v-1h-1l-3 3v1l1 1zm8-22v-1l-4-7-1-1v1l4 7 1 1zm-9 31v-1l-4-6v-1l-1 1 4 7h1zm10 19v-6-1h-1v6l1 1v0zm-6 11l2-5-1-1h-1l-1 5v1h1zm-22-10v-1l-3-6-1-1v1l3 7h1zm-17-8l5 2 1-1-1-1-5-2v2zm-2-13v-1l-6-4v2l6 3c0 1 0 0 0 0zm-6 7l1-6-1-1h-1v7h1zm-7-5l1-5-1-1h-1v6h1zm-2-12l5 1h1l-1-1-5-2-1 1 1 1zm-8 8l1-1-2-6-1-1 2 7v1zm4-7v-1l-4-7-1 1 4 6v1h1zm31-26l1-5v-1h-1l-1 5 1 1zm23 21v-1l-4-6h-1v1l4 6h1zm9 0l-1-1-4-6h-1v1l5 6h1zm-19-12l3-4-1-1-3 3v1l1 1zm18-17l1-6-1-1h-1v7h1zm-8 1l4-1v-1l-1-1-4 2v1h1zm11-5v-1l-3-7-1-1v1l3 7v1h1zm-25 7v-1l-4-6-1-1v1l4 7h1zm-8 9l5 2h1l-1-1-5-3-1 1 1 1zm-21-49l6 3v-1-1l-6-2c0-1 0 0 0 0v1zm18 61l6 3v-1l-1-1-5-2v1zm13 7l3-3v-1l-1-1-3 3v2h1zm2 6l3-3v-2h-1l-3 3v1l1 1zm1 18l1-1-2-7-1-1v1l2 7v1zm-23-29h4l1-1-1-1-5 1v1h1zm-1-6l1-5-1-1c0-1 0-1 0 0l-1 5v1h1zm23-9l1-6-1-1h-1l-1 6 1 1h1zm-29 27v-1l-2-7-1-1-1 1 3 7 1 1zm37 23v-1l-3-6-1-1v1l3 7h1zm9-14v-1l-3-7-1-1v1l3 7 1 1zm-58-79v-1l-2-6-1-1-1 1 3 6 1 1zm24 65l1-5v-1h-1l-1 5v1h1zm3 4l5 1 1-1-1-1h-5v1zm15 5l2-4v-1h-1l-2 4v1h1zm17 14l1-6-1-1h-1l-1 6 1 1h1zm-1-15l3-3v-1h-1l-3 3v1h1c0 1 0 1 0 0zm-6 21l1-5v-1h-1l-1 5 1 1v0zm1 11l1-1-2-7-1-1v1l1 7 1 1zm-9-4l4 1 1-1-1-1h-5v1h1zm18 11l1-6-1-1h-1v6 1h1zm-14-88h1l-1-7-1-1s-1 0 0 0l1 7v1zm-6-7v-1l-2-7-1-1v1l2 7 1 1zm-22 13v-4-1h-1v4 2l1-1zm0 15v-1l-2-5-1-1v1l2 5v1h1zm-19 8v-1l-2-5-1-1v1l2 5h1v1zm48-22v-1l-2-4-1-1v1l2 5h1zm-35 30l2-3v-1l-1-1-2 3v1l1 1zm-25-16l2-3v-1h-1l-2 3v1h1zm23-21l3 1h1l-1-1-3-2-1 1 1 1zm-19-7l1-1-2-5-1-1-1 1 2 5 1 1zm4 15h4l-1-1h-3s-1 0 0 0v1zm33 22l-1-5-1-1v1l1 5h1zm17 11l1-3v-1h-1l-1 3v1h1zm4-12v-1l-3-5-1-1v1l3 5v1h1zm4-7l1-3v-1h-1l-1 3v1h1zm-5 38v-1l-3-5h-1v1l3 4 1 1zm5 7l4 1v-1l-1-1h-4l1 1zm-20-1l2-4-1-1-2 3v1l1 1zm-25-31v-1l-3-5-1-1 1 1 2 5 1 1zm-12-15l2-3v-1h-1l-2 2v2h1zm3-19v-5l-1-1v5l1 1zm27 19l-1-1-4-2v1l4 3 1-1zm12 32v-2l-4-2h-1l1 1 4 3zm-14 12l-1-2-4-2v1l4 3h1zm-24-40l4 2v-1-1l-4-2-1 1 1 1zm25-22l1-1-2-5-1-1v1l2 5v1zm35 13v-1l-1-5h-1l1 5 1 1zm-48-29l-1-1-3-3h-1v1l4 3h1zm28 17l2-2v-2h-1l-2 2v2h1zm-3 29l-1-1-4-3h-1l1 1 4 3h1zm13 2v-3-2h-1l-1 4 1 1v1l1-1zm-16 5v-5l-1-1h-1l1 5 1 1c-1 0 0 0 0 0zm1 5v-1l-4-2h-1l1 1 4 3v-1zm-4 11h1v-4l-1-2-1 1v4l1 1zm-12 3l2-3v-1h-1l-2 3v1h1zm-17-22v-1l-1-5h-1l1 5 1 1zm12 24v-4-1h-1v4 1h1zm-24-45v-1l-4-4h-1l1 1 3 4h1zm30-4l2-1v-1-1l-3 2v1h1zm2 15l-1-5v-1h-1l1 5 1 1zm18 45l3-1v-1l-1-1-3 1v2h1zm16 4l3-1v-1l-1-1-3 1v1l1 1zm-49-82v-1l-2-5-1-1v1l2 5v1h1zm-17 36v-1l-4-3h-1l1 1 3 3h1zm10-57v-4l-1-1c0-1 0 0 0 0l-1 4 1 1h1zm17 21l2-1v-1l-1-1-2 2v1h1zm17 23l-1-1-2-3h-1l1 1 2 3h1zm5-6l1-3v-1h-1l-1 3 1 1zm1-14l2 1 1-1-1-1h-3v1h1zm-52 44l1-2-1-1h-1v4l1-1zm39 23v-3-1h-1l-1 3 1 1h1zm9-71l-1-1-2-3h-1l1 1 2 3h1zm16 10l-1-4h-1c0-1 0 0 0 0l1 3v1h1zm-39-25l2-1v-1l-1-1-2 1v1l1 1zm-7-1h1l-1-4h-1c0-1 0 0 0 0v3l1 1zm-16 1l-1-1-3-2v1l3 2h1zm2-12v-3l-1-1v3l1 1zm6 19l2 1h1l-1-1-2-1h-1l1 1zm10 22l-1-1-2-3-1-1v2l3 2v1h1zm-15-6l2-1v-1h-3v2h1zm-3-3v-1l-2-3-1-1v1l2 4h1zm-6 39l2-1v-1h-3v1l1 1zm12-46v-1l-2-3h-1v1l2 3h1zm7 28l-1-1-2-2h-1l1 1 2 2h1zm15 25l1-1v-1l-1-1-1 2v1h1zm-8-13v-1l-1-3v-1l-1 1 1 3 1 1zm42 30v-1l-1-3v-1l-1 1 1 3 1 1zm-47-10v-1l-1-3v-1l-1 1 1 3 1 1zm-19-6l2-1 1-1h-3l-1 1 1 1zm13 3v-1l-1-3v-1l-1 1 1 3 1 1zm-3-11l2-1v-1l-1-1-2 1v2h1zm-1 12l2-1v-1h-3v2h1zm59-20l2-1v-1h-1l-2 1v1h1zm-69-50l1-6-1-1-1 6v1h1zm3-14v-1l-1-6v-1h-1l1 7 1 1zm-1 44v-1l-4-4H9l1 1 3 4h1zm81 7l-1-1-5-5h-1l1 1 5 5h1zm-4 16v-1l-4-7h-1v1l4 6v1h1zm-3 50l2-1v-1l-1-1-2 1v1h1v1zm1-59l1-5v-1h-1l-1 5v1h1zm2 31v-1l-4-4v0l3 4 1 1zm-16-58l1-2v-1h-1l-1 2v1h1zm-7 36l-1-2-2-2h-1v1l3 3h1zm-8-26h2l1-1-1-1h-2l-1 1h1v1zm-20 1h2l1-1h-1l-3-1v1l1 1zm38 78l3 1v-1l-1-1h-2v1zm-49-76l2-1 1-1h-3l-1 1 1 1zm59 34l-1-1-2-2-1 1 1 1 2 2 1-1zm1 14l-1-1-3-2v2l3 2 1-1zm-10-41l-1-1-2-2h-1l1 2 2 1h1zm-32-34v-1l-3-2h-1l1 1 2 2h1zm38 54l2-2-1-1c0-1 0-1 0 0l-2 2 1 1zm-32-52v-4l-1-1h-1l1 4v1h1zm3 93l1-1-1-6v-1h-1l1 7v1zm-33-21l3-3v-1h-1l-3 3v1h1zm64 38v-1l-3-7-1-1v1l3 7v1h1zm-54-33l6 3v-1-1l-6-2v1zm40 29h1l-1-7-1-1v1l1 6v1zm-6-7v-1l-2-7-1-1v1l2 7 1 1zm-27-16l2-1v-1l-1-1-2 1v1l1 1zm-21-12v-3l-1-1v3l1 1zm-4-1v-1l-1-6v-1h-1l1 7 1 1zm60 31l1-2v-1h-1l-1 2v1h1zm-22-12v-4l-1-1h-1l1 4v1h1zm-7-22h1v-1-1l-2 1v1h1zm-11-53l-1-1-3-2v2l3 1h1zm-1-12l-1-1-2-2h-1l1 2 2 1h1zm21 55v-1l-2-3-1-1v1l2 3v1h1zm-36-71v-1l-2-3-1-1v1l2 4h1zm46 93l-1-1-2-2h-1l1 1 2 2h1zm-2 10h3v-1l-1-1h-2l-1 1 1 1z" class="st4"/>
        </g>
      </g>
      <g>
        <path d="M90 433h-1l-20-12v-1c0-12-8-26-19-32-4-3-9-3-12-1-4 2-6 6-6 11v1h-1l-20-12c0-13 4-22 12-26 7-5 17-4 28 2a87 87 0 0 1 39 70zm-20-13l19 11c0-25-18-54-39-67-10-5-20-6-27-2s-11 13-11 24l19 11c0-5 2-9 6-12 4-2 9-1 14 2 10 6 19 21 19 33z" class="st8"/>
      </g>
    </g>
    <g class="st3">
      <path d="M225 126l-5 9-16-10-1-6 10-1 2 1 10 7z" class="st4"/>
      <path d="M220 136l-16-11h-1v-6l10-2 13 8v1l-5 9-1 1zm-7-18l-9 2v5l16 10 5-9-12-8z" class="st8"/>
      <path d="M145 159c0-25 18-55 40-68 11-6 21-7 28-2l17 10-44 22-24 48-17-10z" class="st4"/>
      <path d="M162 169l-17-9v-1c0-25 18-56 39-68 11-7 22-8 29-3l17 11h1l-1 1-44 22-23 47h-1zm51-80c-8-4-18-3-28 3a86 86 0 0 0-39 67l16 9 23-47 44-22-16-10zm-68 70z" class="st8"/>
      <g>
        <defs>
          <path id="SVGID_103_" d="M201 101a87 87 0 0 0-39 68l20-12c1-12 9-27 19-33 11-6 19-1 19 11l21-11c0-25-18-36-40-23z"/>
        </defs>
        <use fill="#e6bd2f" overflow="visible" xlink:href="#SVGID_103_"/>
        <clipPath id="SVGID_16_">
          <use overflow="visible" xlink:href="#SVGID_103_"/>
        </clipPath>
        <g clip-path="url(#SVGID_16_)">
          <path d="M197 96v-1l3-7h1l-3 7-1 1zm-1-12v-1l1-6h-1l-1 1v6h1zm34-20v-1l1-1-4-2h-1v1l4 3zm-26 24l4-6v-1h-1l-4 6v1h1zm16 31v-1l1-7h-1v1l-1 6 1 1zm14-12l1-1 1-7-1 1-2 6 1 1zm-19 13v-1l-3-3-1 1v1l3 2h1zm15 7h1l4-6v-1h-1l-4 6v1zm-20 17v-1l4-6v-1h-1l-3 7v1zm-12 10l1-1 4-6v-1h-1l-4 7v1zm-18-42h1v-1l-1-6h-1v1l1 6zm-18 20l4-6 1-1h-1l-5 6v1h1zm15-12l5-5v-1h-1l-5 5v1h1zm14-21h1l1-7v-1l-1 1-2 7 1 1v-1zm20-17v-1l4-6v-1h-1l-4 7 1 1zm0 12h1l4-7v-1l-1 1-4 6v1zm13-15h1v-1l-2-4h-1v1l2 4c0 1 0 1 0 0zm-2 16l4-7v-1l-1 1-4 6v1h1zm7-11l5-5v-1h-1l-5 5v1h1zm2-11l5-3 1-1h-1l-5 3-1 1h1zm4-4v-1l5-5 1-1h-1l-5 5v2zm4 15h1l3-7v-1l-1 1-3 6v1zm0 15v-1l1-6v-1l-1 1-1 7h1zm-22 17l1-1 1-7-1-1v2l-2 6 1 1zm-8-6l5-5 1-1h-1l-5 5v1zm-11-24l5-5 1-1h-1l-5 4-1 2h1zm2 19l1-1 4-5 1-1h-1l-5 5v2zm-26 35v-1l-3-3h-1v1l3 3h1zm-8-22h1l3-7v-1l-1 1-3 6v1zm9 32v-1l4-6-1-1-4 7 1 1zm-11 19l1-1v-6h-1v7s0 1 0 0zm7 11v-1l-1-5h-1l-1 1 2 5h1zm21-10l1-1 3-6v-1l-4 7v1zm17-8l1-1-1-1-5 2-1 1 1 1 5-2zm2-13l6-3v-2l-6 4v1zm7 7v-7h-1v7h1zm7-5l1-1-1-5-1-1-1 2 1 5h1zm1-12l1-1-1-1-5 2-1 1h1l5-1zm8 8l1-1 1-7h-1l-2 7 1 1zm-3-7v-1l4-7-1-1v1l-4 7 1 1zm-32-26l1-1-1-5-1-1v2l1 5zm-23 21h1l4-6v-1l-5 6v1zm-8 0l5-6v-1h-1l-4 6-1 1h1zm19-13v-1l-3-3c0-1 0 0 0 0l-1 1 3 3h1zm-18-16v-7h-1l-1 1 1 6h1zm8 1v-1l-4-2-1 1v1l4 1h1zm-11-6l3-7v-1l-1 1-3 6 1 1zm25 8v-1l4-6v-1l-1 1-4 6v1h1zm7 9l1-1-1-1-5 3-1 1h1l5-2zm21-49v-1s0-1 0 0l-6 2v1s0 1 0 0l6-2zm-18 61v-1s0-1 0 0l-5 2-1 1 6-2zm-12 7v-1l1-1-4-3-1 1v1l4 3zm-3 6l1-1v-1l-3-3h-1v2l3 3zm-1 18l1-1 1-7v-1l-1 1-2 7 1 1zm24-29v-1l-5-1-1 1 1 1h5zm1-6v-1l-1-5c0-1 0-1 0 0l-1 1 1 5h1zm-23-9l1-1-1-6h-1v1l1 5v1zm28 27l1-1 3-7-1-1v1l-3 7v1zm-36 23l3-7v-1l-1 1-3 6 1 1zm-10-14l1-1 3-7v-1l-1 1-3 7v1zm58-79l1-1 3-6-1-1-3 7v1zm-23 65v-1l-1-5h-1v1l1 5h1zm-4 4l1-1h-6l-1 1 1 1 5-1zm-14 5v-1l1-1-3-4-1 1v1l3 4zm-17 14l1-1-2-6-1 1 1 6h1zm0-15h1v-1l-3-3h-1v1l3 3zm6 21h1v-1l-1-5h-1v1l1 5s0 1 0 0zm-1 11l1-1 2-7-1-1-1 1-2 7 1 1zm10-4v-1-1l-5 1-1 1h6zm-18 11l1-2-1-5h-1v6l1 1zm13-88l1-1 1-7h-1l-1 1-1 7h1zm7-7v-1l2-7v-1l-1 1-2 7v1h1zm22 13l1-1-1-4h-1v5h1zm0 15v-1l2-5v-1l-1 1-2 5v1h1zm19 7l2-5v-1l-1 1-2 4v1h1zm-49-21l1-1 2-4v-1h-1l-2 5v1zm35 30l1-1v-1l-2-3h-1v2l2 2v1zm26-16v-1l-2-3h-1v1l2 3h1zm-23-21v-1-1l-4 2-1 1h1l3-1h1zm18-7l1-1 2-5-1-1v1l-2 5v1zm-4 15l1-1h-5v1h4zm-33 22l1-1 1-5c1 0 0 0 0 0l-1 1-1 4v1zm-16 11v-1l-1-3h-1v1l1 3h1zm-4-12v-1l3-5v-1l-1 1-3 5v1h1zm-4-7v-1l-1-3h-1v1l1 3h1zm4 38v-1l4-4v-1h-1l-3 4-1 2h1zm-5 7l1-1-1-1-3 1-1 1v1l4-1zm20-2h1v-1l-1-3h-1l-1 1 2 3c0 1 0 1 0 0zm25-31h1l3-5v-1l-1 1-3 4v1c0 1 0 1 0 0zm13-14v-1-1l-2-2h-1v1l2 3h1zm-4-19l1-1v-5l-1 1v5zm-26 20l4-3v-1l-4 2-1 1 1 1zm-13 31l4-2 1-2h-1l-4 2v2zm15 12l4-3 1-1h-1l-4 2-1 1 1 1zm23-40l1-2h-1l-4 2v2l4-2zm-25-22l1-1 1-5v-1l-1 1-2 5 1 1zm-35 13l1-1 1-5v-1l-1 1-1 5v1zm49-29l4-3v-1h-1l-3 3-1 1h1zm-28 17v-1-1l-2-2h-1v1l2 3h1zm3 29l4-3 1-1h-1l-4 2-1 2h1zm-13 2l1-1-1-4h-1v5h1zm16 5v-1l1-5-1-1-1 1v5l1 1zm-2 5l4-2 1-1h-1l-4 2v1s0 1 0 0zm4 11l1-1v-4l-1-1v1l-1 5h1zm12 3h1v-2l-2-2h-1v1l2 3zm17-22l1-1 1-5c1 0 0 0 0 0h-1l-1 5v1zm-11 24l1-1-1-4h-1v5h1zm24-45v-1l3-3 1-2-1 1-3 4-1 1h1zm-30-4v-1l-3-2v1 1l2 1h1zm-2 15v-1l1-5-1 1-1 5h1zm-18 45v-1-1l-3-1-1 1v1l4 1zm-16 3v-1l-3-1-1 1v1h4zm49-81v-1l2-5v-1l-1 1-2 5v1h1zm17 36l3-3 1-1h-1l-3 2-1 2h1zm-10-57l1-1-1-4h-1v5h1zm-18 21h1v-2l-2-1-1 1v1l2 1zm-16 23l2-3 1-1h-1l-2 3-1 1h1zm-6-6l1-1-1-3h-1v1l1 3zm0-14v-1h-3v1 1l2-1h1zm52 44v-3h-1v3h1zm-39 23l1-1-1-3h-1v1l1 3zm-9-71l3-3v-1h-1l-2 3-1 1h1zm-16 10v-1l1-3-1-1v1l-1 4h1zm38-25l1-1v-1l-2-1-1 1v1l2 1zm7-1l1-1v-3-1l-1 1v4c-1 0 0 0 0 0zm17 1l3-2v-1l-3 2-1 1h1zm-3-12l1-1v-3s0-1 0 0l-1 1v3zm-6 19l1-1h-1l-2 1-1 1h1l2-1zm-9 22v-1l3-3v-1l-1 1-2 2v2zm15-6v-1-1l-2-1-1 1v1l2 1h1zm3-3v-1l2-3v-1l-1 1-2 3v1h1zm5 39l1-1v-1h-3v1l2 1zm-11-46l2-3v-1l-3 3v1h1zm-7 28l2-2 1-1h-1l-2 1-1 2h1zm-15 25v-1l-2-2v1l-1 1 2 1h1zm7-13l1-1 1-4h-1v1l-1 3v1zm-41 30v-1l1-4-1 1-1 3v1h1zm46-11h1l1-4h-1l-1 4v0zm19-5l1-1-1-1h-2-1l1 1 2 1zm-13 3l1-1 1-4-1 1-1 3v1zm4-11v-1-1l-2-1-1 1v1l2 1h1zm1 12v-1-1h-2-1v1l2 1h1zm-60-20h1v-1l-2-1h-1v1l2 1zm70-50l1-1-2-6-1 1 1 6h1zm-4-14l1-1 1-7h-1v1l-1 6v1zm2 44l3-4 1-1h-1l-4 4v1h1zm-81 7l5-5 1-1h-1l-5 5-1 1h1zm4 16v-1l4-6-1-1-4 7 1 1zm2 49h1v-1l-2-1-1 1v1h2zm0-58v-1l-1-5h-1v1l1 5h1zm-2 31v-1l3-4 1-1-1 1-4 4v1h1zm16-58l1-1-2-2c0-1 0 0 0 0l-1 1 1 2h1zm7 36v-1l3-2v-1h-1l-2 2-1 1 1 1zm7-27l1-1h-3l-1 1 1 1 2-1zm21 2v-1-1l-3 1h-1l1 1h3zm-39 78l1-1h-3l-1 1v1l3-1zm49-77h1l-1-1h-2-1l1 1 2 1v-1zm-58 35l2-1 1-1-1-1-2 2-1 1h1zm-1 14l3-1v-1-1l-3 2-1 1h1zm10-41l2-1 1-2h-1l-2 2-1 1h1zm32-34l2-2 1-1h-1l-3 2v1h1zm-39 54l1-1-1-2h-1v1l1 2zm33-53l1-4h-1l-1 1v4l1-1zm-4 93v-1l1-6h-1l-1 1v6h1zm34-20v-1l1-1-4-2h-1v1l4 3zm-64 37l3-7v-1l-1 1-3 6 1 1c0 1 0 1 0 0zm53-32v-1s0-1 0 0l-6 2v1s0 1 0 0l6-2zm-40 29l1-1 1-7h-1l-1 1-1 7h1zm7-7v-1l2-7v-1l-1 1-2 7v1h1zm26-16l1-1v-1l-2-1-1 1v1l2 1zm21-12l1-1v-3l-1 1v3zm4-1l1-1 1-7h-1v1l-1 6v1zm-59 31l1-1-2-2c0-1 0 0 0 0l-1 1 1 2h1zm22-12v-1l1-4h-1l-1 1v4h1zm7-22h1l-1-1-1-1h-1v1l2 1zm11-53l3-2v-1l-3 1v2zm1-12l2-2 1-1h-1l-2 1-1 2h1zm-21 55v-1l2-3v-1h-1l-2 4v1h1zm36-71v-1l2-3v-1l-1 1-1 3v1zm-46 93l2-2 1-1-1-1-2 2-1 2h1zm1 10l1-1-1-1h-2l-1 1 1 1 2-1v1z" class="st4"/>
        </g>
      </g>
      <g>
        <path d="M162 170v-1c0-25 17-56 39-69 11-6 21-7 28-2 8 4 12 13 12 26l-20 12h-1v-1c0-5-2-9-6-11-3-2-7-2-12 1-10 6-19 20-19 32v1l-20 11-1 1zm57-74c-5 0-11 2-17 6a87 87 0 0 0-39 66l19-11c0-12 9-27 19-33 5-3 10-4 14-1 4 2 6 6 6 11l19-11c0-11-4-20-11-24-3-2-6-3-10-3zm-18 5z" class="st8"/>
      </g>
    </g>
    <g class="st3">
      <defs>
        <path id="SVGID_105_" d="M189 153l21 12v-24l-21-12z"/>
      </defs>
      <use fill="#e6bd2f" overflow="visible" xlink:href="#SVGID_105_"/>
      <clipPath id="SVGID_17_">
        <use overflow="visible" xlink:href="#SVGID_105_"/>
      </clipPath>
      <g clip-path="url(#SVGID_17_)">
        <path d="M163 142h52v2h-52z" class="st4" transform="rotate(90 189 142)"/>
        <path d="M166 142h52v2h-52z" class="st4" transform="rotate(90 193 142)"/>
        <path d="M170 142h52v2h-52z" class="st4" transform="rotate(90 196 142)"/>
        <path d="M173 142h52v2h-52z" class="st4" transform="rotate(90 199 142)"/>
        <path d="M176 142h52v2h-52z" class="st4" transform="rotate(90 202 142)"/>
        <path d="M180 142h52v2h-52z" class="st4" transform="rotate(90 206 142)"/>
        <path d="M183 142h52v2h-52z" class="st4" transform="rotate(90 209 142)"/>
        <path d="M186 142h52v2h-52z" class="st4" transform="rotate(90 212 142)"/>
        <path d="M189 142h52v2h-52z" class="st4" transform="rotate(90 215 142)"/>
        <path d="M193 142h52v2h-52z" class="st4" transform="rotate(90 219 142)"/>
        <path d="M196 142h52v2h-52z" class="st4" transform="rotate(90 222 142)"/>
        <path d="M199 142h52v2h-52z" class="st4" transform="rotate(90 225 142)"/>
        <path d="M202 142h52v2h-52z" class="st4" transform="rotate(90 228 142)"/>
      </g>
      <g>
        <path d="M189 129l21 12 21-12-21-12z" class="st4"/>
        <path d="M210 142h-1l-21-13 21-13h1l21 13v1l-21 12zm-20-13l19 11 20-11-19-11-20 11z" class="st5"/>
      </g>
      <g>
        <path d="M231 153l-21 12v-24l21-12z" class="st6"/>
        <path d="M210 166h-1v-25l21-12h1v25l-21 12zm0-25v23l20-11v-23l-20 11z" class="st5"/>
      </g>
      <g>
        <path d="M210 166h-1l-21-12v-25h1l21 12v25zm-21-13l20 11v-23l-20-11v23z" class="st5"/>
      </g>
    </g>
    <g class="st3">
      <path d="M364 176l6 10 16-11v-6l-9-1-2 1-11 7z" class="st4"/>
      <path d="M369 186l-1-1-4-9c-1 0-1 0 0 0l12-9h1l9 2h1v1l-1 5v1l-16 10h-1zm-4-10l4 9 16-10 1-5-9-2-12 8z" class="st8"/>
      <path d="M444 210c0-25-17-56-39-68-11-7-21-7-28-3l-17 11 44 22 23 47 17-9z" class="st4"/>
      <path d="M427 220v-1l-24-47-44-22v-1l17-10c8-5 18-4 29 2 22 13 40 43 40 68v1h-1l-16 10h-1zm-66-70l43 21 24 47 15-9c0-24-17-54-38-67-11-6-21-7-28-2l-16 10zm84 60z" class="st8"/>
      <g>
        <defs>
          <path id="SVGID_107_" d="M349 174l20 12c0-13 9-17 19-11s19 20 19 32l20 12c0-25-17-55-39-68-22-12-39-2-39 23z"/>
        </defs>
        <use fill="#e6bd2f" overflow="visible" xlink:href="#SVGID_107_"/>
        <clipPath id="SVGID_33_">
          <use overflow="visible" xlink:href="#SVGID_107_"/>
        </clipPath>
        <g clip-path="url(#SVGID_33_)">
          <path d="M392 146v-1l-3-6v-1l1 1 3 6v1h-1zm2-11v-7l-1-1v7l1 1zm-34-21l4-2-1-1-1-1-3 3v1h1zm26 25v-1l-4-7h-1v1l5 6v1zm-16 30v-7l-1-1v7l1 1zm-14-12l-1-7-1-1-1 1 2 6v1h1zm19 13l4-2v-1h-1l-4 2v1h1s0 1 0 0zm-15 8v-2l-5-6v1l4 6 1 1zm20 16v-1l-3-6-1-1v1l3 7h1zm12 10v-1l-4-6-1-1v1l4 6v1h1zm18-42l1-5-1-2-1 1-1 5 1 1h1zm18 21v-1l-4-7h-1v1l4 6 1 1zm-14-12l-1-1-5-6v1l5 6h1zm-15-21v-1l-1-7h-2l2 7v1h1zm-20-18v-1l-4-6-1-1v1l4 7h1zm0 12v-1l-4-6h-1v1l4 6h1zm-13-14l2-5v-1h-1l-2 4v2h1zm2 16v-1l-3-7-1-1v1l3 7 1 1zm-6-12l-1-1-5-5v1l5 5h1zm-2-11l-1-1-5-3h-1l1 1 5 4 1-1zm-5-4l-1-1-4-5h-1v1l5 5h1zm-4 16v-1l-3-7-1-1v1l3 7v1h1zm0 15v-1l-1-6v-1h-1l1 7h1v1zm22 16v-1l-1-6-1-1 1 7v1h1zm8-5v-2l-5-5h-1v1l5 5v1h1zm11-25v-1l-5-5h-1v1l5 5h1zm-2 19v-1l-5-6h-1v1l5 6h1zm27 36l2-4v-1h-1l-3 3 1 1v1h1zm7-22v-1l-3-7-1-1v2l3 6 1 1zm-9 31l-3-7-1-1v1l3 7h1s0 1 0 0zm11 19v-6l-1-1v1l-1 6 1 1 1-1zm-7 11l2-5v-1h-1l-2 5 1 1zm-21-10v-1l-4-6-1-1v1l4 7h1zm-17-8l5 2h1l-1-1-5-2h-1l1 1zm-2-13l-1-1-5-3h-1l1 1 5 4 1-1zm-7 7l1-6v-1l-1 1-1 5 1 1c0 1 0 0 0 0zm-7-5l1-5v-1h-1l-1 6 1 1v-1zm-1-12l5 2v-1l-1-1-5-1v1h1zm-8 8l-2-7v-1l-1 1 2 6 1 1zm3-7v-1l-3-7h-1v1l3 6 1 1zm32-26l1-5-1-1c0-1 0-1 0 0l-1 5v1h1zm23 21l-1-1-4-5-1-1v1l5 6h1zm8 0v-1l-5-5h-1v1l5 5v1l1-1zm-19-12l3-4v-1h-1l-3 3v1l1 1zm19-17v-6l-1-1-1 6 1 1h1zm-9 1l4-1 1-1h-1l-5 1v1h1zm11-5v-1l-3-7v-1l-1 1 3 7 1 1zm-24 7l-1-1-4-6h-1v1l5 6h1zm-8 9l5 3v-1-1l-6-2c0-1 0 0 0 0l1 1zm-21-49l5 3 1-1-1-1-5-2h-1l1 1zm18 62l5 2 1-1-1-1-5-2-1 1 1 1c0-1 0 0 0 0zm12 6l3-3v-1h-1l-3 3v1h1zm3 6l3-3v-1l-1-1-3 3v2h1zm1 18v-1l-2-6v-1h-1l2 7 1 1zm-24-28l5-1v-1h-5l-1 1h1v1zm-1-7l1-5v-1h-1l-1 5 1 2v-1zm23-9l1-5v-2l-1 1-1 5v1h1zm-28 27v-1l-3-7h-1l3 7v1h1zm36 24v-1l-3-7-1-1v1l3 7 1 1zm10-15v-1l-3-7h-1l3 7v1h1zm-58-79l-3-7-1-1v1l3 7h1zm23 65l2-5-1-1-2 5v1h1c0 1 0 1 0 0zm4 5h5v-1l-1-1h-5v1h1v1zm14 4l3-4-1-1-3 4v1h1zm17 14l1-5v-2l-1 1-1 5v1h1zm0-14l3-4v-1h-1l-3 3v2h1zm-6 21l1-6-1-1-1 5v2h1zm1 10v-1l-2-6-1-1 2 7v1h1zm-10-4l5 1v-1-1h-5l-1 1h1zm18 11l1-6v-1h-1l-1 6 1 1zm-13-88l-1-7-1-1v1l1 6 1 1zm-7-7l1-1-3-7v-1l-1 1 2 7 1 1zm-22 14l1-4-1-2v1l-1 3 1 2zm0 14v-1l-2-5-1-1v1l2 5 1 1zm-19 8l1-1-3-5v-1l-1 1 2 5 1 1zm49-21v-1l-2-5-1-1v1l2 5 1 1zm-35 29l2-3-1-1s0-1 0 0l-2 3v1h1zm-25-16l1-2v-2h-1l-2 3 1 1h1zm22-21l4 2v-1-1l-4-1v1zm-18-7v-1l-2-5h-1l2 5v1h1zm4 16h3l1-1-1-1h-4v1h1v1zm32 22l1-1-2-5v-1l-1 1 2 5v1zm17 11l2-4-1-1-2 3 1 1v1zm4-13v-1l-2-5h-1v1l2 4 1 1zm5-6l1-4-1-1h-1l-1 3 1 2h1zm-5 37v-1l-4-5v1l3 4v1h1zm5 7l3 1h1l-1-1-4-1v1h1zm-20-1l1-4v-1h-1l-1 3v2h1zm-25-31v-1l-3-5h-1v1l3 4v1h1zm-13-15l3-2-1-1-1-1-2 3v1h1zm3-18l1-1-1-5v-1l-1 1 1 5v1c0-1 0-1 0 0zm27 19v-2l-4-2h-1l1 2 4 2zm13 31l-1-1-4-3v2l4 2h1zm-15 12v-1l-4-3-1 1 1 1 3 2h1zm-24-40l4 2h1l-1-2-4-2v2zm26-22v-1l-1-5-1-1v1l1 5 1 1zm35 13v-1l-2-4v-1h-1l2 5v1h1zm-49-29v-1l-4-3h-1l1 1 4 3v0zm28 17l2-2v-1l-1-1-2 3v1h1zm-3 29l-1-1-3-3-1 1v1l4 2h1zm13 3l1-4-1-1c0-1 0-1 0 0l-1 3v2h1zm-16 4l1-1-1-4v-1h-1v5l1 1zm2 5l-1-1-4-2v1l4 3 1-1zm-4 12v-5l-1-1c0-1 0 0 0 0v5l1 1zm-12 2l2-3-1-1-2 3v1h1zm-17-22l-2-5-1-1v1l2 5h1zm11 24l1-4-1-1-1 4 1 1zm-24-45v-1l-3-4h-1v1l4 4zm30-3l3-2v-1h-1l-3 1v1l1 1zm2 15l1-1-1-5-1-1v1l1 4v2zm18 44l3-1v-1l-1-1-3 1v1l1 1zm16 4l3-1v-1l-1-1-3 1v1l1 1zm-49-82v-1l-1-5-1-1v1l1 5 1 1zm-16 36l-1-1-4-3v2l4 2h1zm9-57l1-4-1-1h-1v6h1v-1zm18 21l1-1v-1h-1l-1 1v1h1zm16 23v-1l-2-2-1-1v2l3 2zm6-6v-3-1h-1v4h1zm0-13h3v-1l-1-1h-2l-1 1h1v1zm-51 44v-3-1h-1l-1 3 1 1h1zm38 22l1-2-1-2-1 1v3h1zm9-71v-1l-2-2-1-1v1l2 3h1c0 1 0 0 0 0zm16 11l1-1-1-3-1-1v4l1 1zm-38-26l2-1v-1l-1-1-2 1v2h1zm-7 0v-1l-1-3v-1h-1l1 3v1l1 1zm-17 0v-1l-3-2-1 1 1 1 2 1h1zm2-11l1-1-1-3v-1h-1l1 4v1zm6 19h3c0 1 0 0 0 0v-1l-3-1v2zm10 21v-1l-2-3h-1v1l2 3h1zm-15-6l2-1v-1h-3v1l1 1zm-3-3v-1l-1-3h-1v1l1 3h1zm-5 39l2-1-1-1-2 1v1h1zm11-45v-2l-2-2-1-1v1l2 3 1 1zm7 27v-1l-3-2v2l3 1zm15 25l2-1v-1h-1l-2 1v1h1c0 1 0 1 0 0zm-8-13l1-1-1-3-1-1v1l1 3v1zm42 30l1-1-1-3-1-1v4l1 1zm-47-10l1-1-1-3-1-1v1l1 3v1zm-18-6h2v-1l-1-1h-2v2h1zm13 3v-1l-1-3-1-1v1l1 3v1h1zm-4-11l2-1v-1h-2l-1 1 1 1zm-1 12h2v-1l-1-1-1 1v1zm60-20h2v-1l-1-1-2 1v1h1zm-70-50l1-6v-1l-1 1-1 5 1 1zm3-14h1l-1-7-1-1 1 7v1zm-1 44v-1l-3-4h-1v1l4 4c0 1 0 1 0 0zm81 7v-1l-5-5h-1v1l5 5v1l1-1zm-4 16v-1l-3-6-1-1v1l3 7h1zm-2 50l2-1v-1l-1-1-2 1v2h1zm0-59l1-5v-1h-1l-1 5 1 2v-1zm3 31l-1-1-3-4h-1v1l4 4h1zm-17-58l1-2v-1h-1l-1 2v1h1c0 1 0 0 0 0zm-7 36v-1l-3-3v1l2 3h1zm-7-26h2v-1l-1-1h-2v2h1zm-21 1h3l-1-1h-3l1 1zm39 79h2l1-1-1-1h-3v1h1v1zm-49-77h2v-1l-1-1h-2v2h1zm58 34v-1l-3-1h-1l1 1 3 2v-1zm1 15l-1-2-2-1h-1l1 1 2 2h1zm-10-42v-1l-3-2-1 1 1 1 3 2v-1zm-31-34l-1-1-3-2v2l3 1h1zm38 54l1-2v-1h-1l-1 2v1h1zm-33-52l1-1-1-3-1-1v4l1 1zm4 93v-7l-1-1v7l1 1zm-34-21l4-2-1-1-1-1-3 3v1h1zm64 38v-1l-3-7v-1l-1 1 3 7 1 1zm-53-33l5 3h1l-1-1-5-3h-1l1 1zm40 29c0 1 0 0 0 0l-1-7-1-1v1l1 6 1 1zm-7-7l1-1-3-7h-1l2 7 1 1zm-26-16l2-1v-1l-1-1-2 2v1h1zm-22-11l1-1-1-3v-1l-1 1 1 3v1zm-4-2h1l-1-7-1-1v1l1 6v1zm60 31l1-1v-2h-1l-1 2v1l1 1v-1zm-22-12l1-1-1-3-1-1v4l1 1zm-7-21l2-1v-1l-1-1-2 1v1h1v1zm-11-54l-1-1-2-2-1 1 1 1 2 1h1zm-1-12v-1l-3-2v2l3 1zm21 55v-1l-1-3-1-1v1l1 4h1zm-36-71v-1l-2-3h-1v1l2 3h1zm46 93v-1l-3-2v1l3 2zm-1 10h2v-1-1h-3v2h1z" class="st4"/>
        </g>
      </g>
      <g>
        <path d="M427 220l-20-12-1-1c0-11-8-26-18-32-5-3-10-3-13-1s-5 6-5 12h-1l-20-12h-1c0-12 4-22 12-26 8-5 18-4 28 3a87 87 0 0 1 40 69h-1zm-19-13l19 11c-1-25-18-54-39-66-10-6-20-7-27-3s-11 13-11 24l19 11c0-5 2-9 5-11 4-2 9-2 14 1 11 6 20 21 20 33z" class="st8"/>
      </g>
    </g>
  </g>
</svg>
