<?xml version="1.0" encoding="utf-8"?>
<!-- Generator: Adobe Illustrator 22.1.0, SVG Export Plug-In . SVG Version: 6.00 Build 0)  -->
<svg version="1.1" id="Layer_1" xmlns="http://www.w3.org/2000/svg" xmlns:xlink="http://www.w3.org/1999/xlink" x="0px" y="0px"
	 viewBox="0 0 400 400" style="enable-background:new 0 0 400 400;" xml:space="preserve">
<style type="text/css">
	.st0{clip-path:url(#SVGID_1_);}
	.st1{opacity:0.3;fill:#D0C0D0;}
	.st2{fill:#F9F938;}
	.st3{fill:#EF5E80;}
	.st4{fill:#20CCC0;}
	.st5{fill:#5B3FC4;}
</style>
<g>
	<g>
		<defs>
			<rect id="SVGID_9_" width="400" height="400"/>
		</defs>
		<use xlink:href="#SVGID_9_"  style="overflow:visible;fill:#FFFFFF;"/>
		<clipPath id="SVGID_1_">
			<use xlink:href="#SVGID_9_"  style="overflow:visible;"/>
		</clipPath>
		<g class="st0">
			<g>
				<g>
					<path class="st1" d="M2,0c0,1.1-0.9,2-2,2c-1.1,0-2-0.9-2-2c0-1.1,0.9-2,2-2C1.1-2,2-1.1,2,0z"/>
					<path class="st1" d="M27,0c0,1.1-0.9,2-2,2c-1.1,0-2-0.9-2-2c0-1.1,0.9-2,2-2C26.1-2,27-1.1,27,0z"/>
					<path class="st1" d="M52,0c0,1.1-0.9,2-2,2c-1.1,0-2-0.9-2-2c0-1.1,0.9-2,2-2C51.1-2,52-1.1,52,0z"/>
					<path class="st1" d="M77,0c0,1.1-0.9,2-2,2c-1.1,0-2-0.9-2-2c0-1.1,0.9-2,2-2C76.1-2,77-1.1,77,0z"/>
					<path class="st1" d="M102,0c0,1.1-0.9,2-2,2c-1.1,0-2-0.9-2-2c0-1.1,0.9-2,2-2C101.1-2,102-1.1,102,0z"/>
					<path class="st1" d="M127,0c0,1.1-0.9,2-2,2c-1.1,0-2-0.9-2-2c0-1.1,0.9-2,2-2C126.1-2,127-1.1,127,0z"/>
					<path class="st1" d="M152,0c0,1.1-0.9,2-2,2c-1.1,0-2-0.9-2-2c0-1.1,0.9-2,2-2C151.1-2,152-1.1,152,0z"/>
					<path class="st1" d="M177,0c0,1.1-0.9,2-2,2c-1.1,0-2-0.9-2-2c0-1.1,0.9-2,2-2C176.1-2,177-1.1,177,0z"/>
					<path class="st1" d="M202,0c0,1.1-0.9,2-2,2c-1.1,0-2-0.9-2-2c0-1.1,0.9-2,2-2C201.1-2,202-1.1,202,0z"/>
				</g>
				<g>
					<path class="st1" d="M0,27c-1.1,0-2-0.9-2-2c0-1.1,0.9-2,2-2c1.1,0,2,0.9,2,2C2,26.1,1.1,27,0,27z"/>
					<path class="st1" d="M0,52c-1.1,0-2-0.9-2-2c0-1.1,0.9-2,2-2c1.1,0,2,0.9,2,2C2,51.1,1.1,52,0,52z"/>
					<path class="st1" d="M0,77c-1.1,0-2-0.9-2-2c0-1.1,0.9-2,2-2c1.1,0,2,0.9,2,2C2,76.1,1.1,77,0,77z"/>
					<path class="st1" d="M0,102c-1.1,0-2-0.9-2-2c0-1.1,0.9-2,2-2c1.1,0,2,0.9,2,2C2,101.1,1.1,102,0,102z"/>
					<path class="st1" d="M0,127c-1.1,0-2-0.9-2-2c0-1.1,0.9-2,2-2c1.1,0,2,0.9,2,2C2,126.1,1.1,127,0,127z"/>
					<path class="st1" d="M0,152c-1.1,0-2-0.9-2-2c0-1.1,0.9-2,2-2c1.1,0,2,0.9,2,2C2,151.1,1.1,152,0,152z"/>
					<path class="st1" d="M0,177c-1.1,0-2-0.9-2-2c0-1.1,0.9-2,2-2c1.1,0,2,0.9,2,2C2,176.1,1.1,177,0,177z"/>
					<path class="st1" d="M0,202c-1.1,0-2-0.9-2-2c0-1.1,0.9-2,2-2c1.1,0,2,0.9,2,2C2,201.1,1.1,202,0,202z"/>
				</g>
				<g>
					<path class="st1" d="M25,27c-1.1,0-2-0.9-2-2c0-1.1,0.9-2,2-2c1.1,0,2,0.9,2,2C27,26.1,26.1,27,25,27z"/>
					<path class="st1" d="M25,52c-1.1,0-2-0.9-2-2c0-1.1,0.9-2,2-2c1.1,0,2,0.9,2,2C27,51.1,26.1,52,25,52z"/>
					<path class="st1" d="M25,77c-1.1,0-2-0.9-2-2c0-1.1,0.9-2,2-2c1.1,0,2,0.9,2,2C27,76.1,26.1,77,25,77z"/>
					<path class="st1" d="M25,102c-1.1,0-2-0.9-2-2c0-1.1,0.9-2,2-2c1.1,0,2,0.9,2,2C27,101.1,26.1,102,25,102z"/>
					<path class="st1" d="M25,127c-1.1,0-2-0.9-2-2c0-1.1,0.9-2,2-2c1.1,0,2,0.9,2,2C27,126.1,26.1,127,25,127z"/>
					<path class="st1" d="M25,152c-1.1,0-2-0.9-2-2c0-1.1,0.9-2,2-2c1.1,0,2,0.9,2,2C27,151.1,26.1,152,25,152z"/>
					<path class="st1" d="M25,177c-1.1,0-2-0.9-2-2c0-1.1,0.9-2,2-2c1.1,0,2,0.9,2,2C27,176.1,26.1,177,25,177z"/>
					<path class="st1" d="M25,202c-1.1,0-2-0.9-2-2c0-1.1,0.9-2,2-2c1.1,0,2,0.9,2,2C27,201.1,26.1,202,25,202z"/>
				</g>
				<g>
					<path class="st1" d="M50,27c-1.1,0-2-0.9-2-2c0-1.1,0.9-2,2-2c1.1,0,2,0.9,2,2C52,26.1,51.1,27,50,27z"/>
					<path class="st1" d="M50,52c-1.1,0-2-0.9-2-2c0-1.1,0.9-2,2-2c1.1,0,2,0.9,2,2C52,51.1,51.1,52,50,52z"/>
					<path class="st1" d="M50,77c-1.1,0-2-0.9-2-2c0-1.1,0.9-2,2-2c1.1,0,2,0.9,2,2C52,76.1,51.1,77,50,77z"/>
					<path class="st1" d="M50,102c-1.1,0-2-0.9-2-2c0-1.1,0.9-2,2-2c1.1,0,2,0.9,2,2C52,101.1,51.1,102,50,102z"/>
					<path class="st1" d="M50,127c-1.1,0-2-0.9-2-2c0-1.1,0.9-2,2-2c1.1,0,2,0.9,2,2C52,126.1,51.1,127,50,127z"/>
					<path class="st1" d="M50,152c-1.1,0-2-0.9-2-2c0-1.1,0.9-2,2-2c1.1,0,2,0.9,2,2C52,151.1,51.1,152,50,152z"/>
					<path class="st1" d="M50,177c-1.1,0-2-0.9-2-2c0-1.1,0.9-2,2-2c1.1,0,2,0.9,2,2C52,176.1,51.1,177,50,177z"/>
					<path class="st1" d="M50,202c-1.1,0-2-0.9-2-2c0-1.1,0.9-2,2-2c1.1,0,2,0.9,2,2C52,201.1,51.1,202,50,202z"/>
				</g>
				<g>
					<path class="st1" d="M75,27c-1.1,0-2-0.9-2-2c0-1.1,0.9-2,2-2c1.1,0,2,0.9,2,2C77,26.1,76.1,27,75,27z"/>
					<path class="st1" d="M75,52c-1.1,0-2-0.9-2-2c0-1.1,0.9-2,2-2c1.1,0,2,0.9,2,2C77,51.1,76.1,52,75,52z"/>
					<path class="st1" d="M75,77c-1.1,0-2-0.9-2-2c0-1.1,0.9-2,2-2c1.1,0,2,0.9,2,2C77,76.1,76.1,77,75,77z"/>
					<path class="st1" d="M75,102c-1.1,0-2-0.9-2-2c0-1.1,0.9-2,2-2c1.1,0,2,0.9,2,2C77,101.1,76.1,102,75,102z"/>
					<path class="st1" d="M75,127c-1.1,0-2-0.9-2-2c0-1.1,0.9-2,2-2c1.1,0,2,0.9,2,2C77,126.1,76.1,127,75,127z"/>
					<path class="st1" d="M75,152c-1.1,0-2-0.9-2-2c0-1.1,0.9-2,2-2c1.1,0,2,0.9,2,2C77,151.1,76.1,152,75,152z"/>
					<path class="st1" d="M75,177c-1.1,0-2-0.9-2-2c0-1.1,0.9-2,2-2c1.1,0,2,0.9,2,2C77,176.1,76.1,177,75,177z"/>
					<path class="st1" d="M75,202c-1.1,0-2-0.9-2-2c0-1.1,0.9-2,2-2c1.1,0,2,0.9,2,2C77,201.1,76.1,202,75,202z"/>
				</g>
				<g>
					<path class="st1" d="M100,27c-1.1,0-2-0.9-2-2c0-1.1,0.9-2,2-2c1.1,0,2,0.9,2,2C102,26.1,101.1,27,100,27z"/>
					<path class="st1" d="M100,52c-1.1,0-2-0.9-2-2c0-1.1,0.9-2,2-2c1.1,0,2,0.9,2,2C102,51.1,101.1,52,100,52z"/>
					<path class="st1" d="M100,77c-1.1,0-2-0.9-2-2c0-1.1,0.9-2,2-2c1.1,0,2,0.9,2,2C102,76.1,101.1,77,100,77z"/>
					<path class="st1" d="M100,102c-1.1,0-2-0.9-2-2c0-1.1,0.9-2,2-2c1.1,0,2,0.9,2,2C102,101.1,101.1,102,100,102z"/>
					<path class="st1" d="M100,127c-1.1,0-2-0.9-2-2c0-1.1,0.9-2,2-2c1.1,0,2,0.9,2,2C102,126.1,101.1,127,100,127z"/>
					<path class="st1" d="M100,152c-1.1,0-2-0.9-2-2c0-1.1,0.9-2,2-2c1.1,0,2,0.9,2,2C102,151.1,101.1,152,100,152z"/>
					<path class="st1" d="M100,177c-1.1,0-2-0.9-2-2c0-1.1,0.9-2,2-2c1.1,0,2,0.9,2,2C102,176.1,101.1,177,100,177z"/>
					<path class="st1" d="M100,202c-1.1,0-2-0.9-2-2c0-1.1,0.9-2,2-2c1.1,0,2,0.9,2,2C102,201.1,101.1,202,100,202z"/>
				</g>
				<g>
					<path class="st1" d="M125,27c-1.1,0-2-0.9-2-2c0-1.1,0.9-2,2-2c1.1,0,2,0.9,2,2C127,26.1,126.1,27,125,27z"/>
					<path class="st1" d="M125,52c-1.1,0-2-0.9-2-2c0-1.1,0.9-2,2-2c1.1,0,2,0.9,2,2C127,51.1,126.1,52,125,52z"/>
					<path class="st1" d="M125,77c-1.1,0-2-0.9-2-2c0-1.1,0.9-2,2-2c1.1,0,2,0.9,2,2C127,76.1,126.1,77,125,77z"/>
					<path class="st1" d="M125,102c-1.1,0-2-0.9-2-2c0-1.1,0.9-2,2-2c1.1,0,2,0.9,2,2C127,101.1,126.1,102,125,102z"/>
					<path class="st1" d="M125,127c-1.1,0-2-0.9-2-2c0-1.1,0.9-2,2-2c1.1,0,2,0.9,2,2C127,126.1,126.1,127,125,127z"/>
					<path class="st1" d="M125,152c-1.1,0-2-0.9-2-2c0-1.1,0.9-2,2-2c1.1,0,2,0.9,2,2C127,151.1,126.1,152,125,152z"/>
					<path class="st1" d="M125,177c-1.1,0-2-0.9-2-2c0-1.1,0.9-2,2-2c1.1,0,2,0.9,2,2C127,176.1,126.1,177,125,177z"/>
					<path class="st1" d="M125,202c-1.1,0-2-0.9-2-2c0-1.1,0.9-2,2-2c1.1,0,2,0.9,2,2C127,201.1,126.1,202,125,202z"/>
				</g>
				<g>
					<path class="st1" d="M150,27c-1.1,0-2-0.9-2-2c0-1.1,0.9-2,2-2c1.1,0,2,0.9,2,2C152,26.1,151.1,27,150,27z"/>
					<path class="st1" d="M150,52c-1.1,0-2-0.9-2-2c0-1.1,0.9-2,2-2c1.1,0,2,0.9,2,2C152,51.1,151.1,52,150,52z"/>
					<path class="st1" d="M150,77c-1.1,0-2-0.9-2-2c0-1.1,0.9-2,2-2c1.1,0,2,0.9,2,2C152,76.1,151.1,77,150,77z"/>
					<path class="st1" d="M150,102c-1.1,0-2-0.9-2-2c0-1.1,0.9-2,2-2c1.1,0,2,0.9,2,2C152,101.1,151.1,102,150,102z"/>
					<path class="st1" d="M150,127c-1.1,0-2-0.9-2-2c0-1.1,0.9-2,2-2c1.1,0,2,0.9,2,2C152,126.1,151.1,127,150,127z"/>
					<path class="st1" d="M150,152c-1.1,0-2-0.9-2-2c0-1.1,0.9-2,2-2c1.1,0,2,0.9,2,2C152,151.1,151.1,152,150,152z"/>
					<path class="st1" d="M150,177c-1.1,0-2-0.9-2-2c0-1.1,0.9-2,2-2c1.1,0,2,0.9,2,2C152,176.1,151.1,177,150,177z"/>
					<path class="st1" d="M150,202c-1.1,0-2-0.9-2-2c0-1.1,0.9-2,2-2c1.1,0,2,0.9,2,2C152,201.1,151.1,202,150,202z"/>
				</g>
				<g>
					<path class="st1" d="M175,27c-1.1,0-2-0.9-2-2c0-1.1,0.9-2,2-2c1.1,0,2,0.9,2,2C177,26.1,176.1,27,175,27z"/>
					<path class="st1" d="M175,52c-1.1,0-2-0.9-2-2c0-1.1,0.9-2,2-2c1.1,0,2,0.9,2,2C177,51.1,176.1,52,175,52z"/>
					<path class="st1" d="M175,77c-1.1,0-2-0.9-2-2c0-1.1,0.9-2,2-2c1.1,0,2,0.9,2,2C177,76.1,176.1,77,175,77z"/>
					<path class="st1" d="M175,102c-1.1,0-2-0.9-2-2c0-1.1,0.9-2,2-2c1.1,0,2,0.9,2,2C177,101.1,176.1,102,175,102z"/>
					<path class="st1" d="M175,127c-1.1,0-2-0.9-2-2c0-1.1,0.9-2,2-2c1.1,0,2,0.9,2,2C177,126.1,176.1,127,175,127z"/>
					<path class="st1" d="M175,152c-1.1,0-2-0.9-2-2c0-1.1,0.9-2,2-2c1.1,0,2,0.9,2,2C177,151.1,176.1,152,175,152z"/>
					<path class="st1" d="M175,177c-1.1,0-2-0.9-2-2c0-1.1,0.9-2,2-2c1.1,0,2,0.9,2,2C177,176.1,176.1,177,175,177z"/>
					<path class="st1" d="M175,202c-1.1,0-2-0.9-2-2c0-1.1,0.9-2,2-2c1.1,0,2,0.9,2,2C177,201.1,176.1,202,175,202z"/>
				</g>
				<g>
					<path class="st1" d="M200,27c-1.1,0-2-0.9-2-2c0-1.1,0.9-2,2-2c1.1,0,2,0.9,2,2C202,26.1,201.1,27,200,27z"/>
					<path class="st1" d="M200,52c-1.1,0-2-0.9-2-2c0-1.1,0.9-2,2-2c1.1,0,2,0.9,2,2C202,51.1,201.1,52,200,52z"/>
					<path class="st1" d="M200,77c-1.1,0-2-0.9-2-2c0-1.1,0.9-2,2-2c1.1,0,2,0.9,2,2C202,76.1,201.1,77,200,77z"/>
					<path class="st1" d="M200,102c-1.1,0-2-0.9-2-2c0-1.1,0.9-2,2-2c1.1,0,2,0.9,2,2C202,101.1,201.1,102,200,102z"/>
					<path class="st1" d="M200,127c-1.1,0-2-0.9-2-2c0-1.1,0.9-2,2-2c1.1,0,2,0.9,2,2C202,126.1,201.1,127,200,127z"/>
					<path class="st1" d="M200,152c-1.1,0-2-0.9-2-2c0-1.1,0.9-2,2-2c1.1,0,2,0.9,2,2C202,151.1,201.1,152,200,152z"/>
					<path class="st1" d="M200,177c-1.1,0-2-0.9-2-2c0-1.1,0.9-2,2-2c1.1,0,2,0.9,2,2C202,176.1,201.1,177,200,177z"/>
					<path class="st1" d="M200,202c-1.1,0-2-0.9-2-2c0-1.1,0.9-2,2-2c1.1,0,2,0.9,2,2C202,201.1,201.1,202,200,202z"/>
				</g>
			</g>
			<g>
				<g>
					<path class="st1" d="M227,0c0,1.1-0.9,2-2,2c-1.1,0-2-0.9-2-2c0-1.1,0.9-2,2-2C226.1-2,227-1.1,227,0z"/>
					<path class="st1" d="M252,0c0,1.1-0.9,2-2,2c-1.1,0-2-0.9-2-2c0-1.1,0.9-2,2-2C251.1-2,252-1.1,252,0z"/>
					<path class="st1" d="M277,0c0,1.1-0.9,2-2,2c-1.1,0-2-0.9-2-2c0-1.1,0.9-2,2-2C276.1-2,277-1.1,277,0z"/>
					<path class="st1" d="M302,0c0,1.1-0.9,2-2,2c-1.1,0-2-0.9-2-2c0-1.1,0.9-2,2-2C301.1-2,302-1.1,302,0z"/>
					<path class="st1" d="M327,0c0,1.1-0.9,2-2,2c-1.1,0-2-0.9-2-2c0-1.1,0.9-2,2-2C326.1-2,327-1.1,327,0z"/>
					<path class="st1" d="M352,0c0,1.1-0.9,2-2,2c-1.1,0-2-0.9-2-2c0-1.1,0.9-2,2-2C351.1-2,352-1.1,352,0z"/>
					<path class="st1" d="M377,0c0,1.1-0.9,2-2,2c-1.1,0-2-0.9-2-2c0-1.1,0.9-2,2-2C376.1-2,377-1.1,377,0z"/>
					<path class="st1" d="M402,0c0,1.1-0.9,2-2,2c-1.1,0-2-0.9-2-2c0-1.1,0.9-2,2-2C401.1-2,402-1.1,402,0z"/>
				</g>
				<g>
					<path class="st1" d="M225,27c-1.1,0-2-0.9-2-2c0-1.1,0.9-2,2-2c1.1,0,2,0.9,2,2C227,26.1,226.1,27,225,27z"/>
					<path class="st1" d="M225,52c-1.1,0-2-0.9-2-2c0-1.1,0.9-2,2-2c1.1,0,2,0.9,2,2C227,51.1,226.1,52,225,52z"/>
					<path class="st1" d="M225,77c-1.1,0-2-0.9-2-2c0-1.1,0.9-2,2-2c1.1,0,2,0.9,2,2C227,76.1,226.1,77,225,77z"/>
					<path class="st1" d="M225,102c-1.1,0-2-0.9-2-2c0-1.1,0.9-2,2-2c1.1,0,2,0.9,2,2C227,101.1,226.1,102,225,102z"/>
					<path class="st1" d="M225,127c-1.1,0-2-0.9-2-2c0-1.1,0.9-2,2-2c1.1,0,2,0.9,2,2C227,126.1,226.1,127,225,127z"/>
					<path class="st1" d="M225,152c-1.1,0-2-0.9-2-2c0-1.1,0.9-2,2-2c1.1,0,2,0.9,2,2C227,151.1,226.1,152,225,152z"/>
					<path class="st1" d="M225,177c-1.1,0-2-0.9-2-2c0-1.1,0.9-2,2-2c1.1,0,2,0.9,2,2C227,176.1,226.1,177,225,177z"/>
					<path class="st1" d="M225,202c-1.1,0-2-0.9-2-2c0-1.1,0.9-2,2-2c1.1,0,2,0.9,2,2C227,201.1,226.1,202,225,202z"/>
				</g>
				<g>
					<path class="st1" d="M250,27c-1.1,0-2-0.9-2-2c0-1.1,0.9-2,2-2c1.1,0,2,0.9,2,2C252,26.1,251.1,27,250,27z"/>
					<path class="st1" d="M250,52c-1.1,0-2-0.9-2-2c0-1.1,0.9-2,2-2c1.1,0,2,0.9,2,2C252,51.1,251.1,52,250,52z"/>
					<path class="st1" d="M250,77c-1.1,0-2-0.9-2-2c0-1.1,0.9-2,2-2c1.1,0,2,0.9,2,2C252,76.1,251.1,77,250,77z"/>
					<path class="st1" d="M250,102c-1.1,0-2-0.9-2-2c0-1.1,0.9-2,2-2c1.1,0,2,0.9,2,2C252,101.1,251.1,102,250,102z"/>
					<path class="st1" d="M250,127c-1.1,0-2-0.9-2-2c0-1.1,0.9-2,2-2c1.1,0,2,0.9,2,2C252,126.1,251.1,127,250,127z"/>
					<path class="st1" d="M250,152c-1.1,0-2-0.9-2-2c0-1.1,0.9-2,2-2c1.1,0,2,0.9,2,2C252,151.1,251.1,152,250,152z"/>
					<path class="st1" d="M250,177c-1.1,0-2-0.9-2-2c0-1.1,0.9-2,2-2c1.1,0,2,0.9,2,2C252,176.1,251.1,177,250,177z"/>
					<path class="st1" d="M250,202c-1.1,0-2-0.9-2-2c0-1.1,0.9-2,2-2c1.1,0,2,0.9,2,2C252,201.1,251.1,202,250,202z"/>
				</g>
				<g>
					<path class="st1" d="M275,27c-1.1,0-2-0.9-2-2c0-1.1,0.9-2,2-2c1.1,0,2,0.9,2,2C277,26.1,276.1,27,275,27z"/>
					<path class="st1" d="M275,52c-1.1,0-2-0.9-2-2c0-1.1,0.9-2,2-2c1.1,0,2,0.9,2,2C277,51.1,276.1,52,275,52z"/>
					<path class="st1" d="M275,77c-1.1,0-2-0.9-2-2c0-1.1,0.9-2,2-2c1.1,0,2,0.9,2,2C277,76.1,276.1,77,275,77z"/>
					<path class="st1" d="M275,102c-1.1,0-2-0.9-2-2c0-1.1,0.9-2,2-2c1.1,0,2,0.9,2,2C277,101.1,276.1,102,275,102z"/>
					<path class="st1" d="M275,127c-1.1,0-2-0.9-2-2c0-1.1,0.9-2,2-2c1.1,0,2,0.9,2,2C277,126.1,276.1,127,275,127z"/>
					<path class="st1" d="M275,152c-1.1,0-2-0.9-2-2c0-1.1,0.9-2,2-2c1.1,0,2,0.9,2,2C277,151.1,276.1,152,275,152z"/>
					<path class="st1" d="M275,177c-1.1,0-2-0.9-2-2c0-1.1,0.9-2,2-2c1.1,0,2,0.9,2,2C277,176.1,276.1,177,275,177z"/>
					<path class="st1" d="M275,202c-1.1,0-2-0.9-2-2c0-1.1,0.9-2,2-2c1.1,0,2,0.9,2,2C277,201.1,276.1,202,275,202z"/>
				</g>
				<g>
					<path class="st1" d="M300,27c-1.1,0-2-0.9-2-2c0-1.1,0.9-2,2-2c1.1,0,2,0.9,2,2C302,26.1,301.1,27,300,27z"/>
					<path class="st1" d="M300,52c-1.1,0-2-0.9-2-2c0-1.1,0.9-2,2-2c1.1,0,2,0.9,2,2C302,51.1,301.1,52,300,52z"/>
					<path class="st1" d="M300,77c-1.1,0-2-0.9-2-2c0-1.1,0.9-2,2-2c1.1,0,2,0.9,2,2C302,76.1,301.1,77,300,77z"/>
					<path class="st1" d="M300,102c-1.1,0-2-0.9-2-2c0-1.1,0.9-2,2-2c1.1,0,2,0.9,2,2C302,101.1,301.1,102,300,102z"/>
					<path class="st1" d="M300,127c-1.1,0-2-0.9-2-2c0-1.1,0.9-2,2-2c1.1,0,2,0.9,2,2C302,126.1,301.1,127,300,127z"/>
					<path class="st1" d="M300,152c-1.1,0-2-0.9-2-2c0-1.1,0.9-2,2-2c1.1,0,2,0.9,2,2C302,151.1,301.1,152,300,152z"/>
					<path class="st1" d="M300,177c-1.1,0-2-0.9-2-2c0-1.1,0.9-2,2-2c1.1,0,2,0.9,2,2C302,176.1,301.1,177,300,177z"/>
					<path class="st1" d="M300,202c-1.1,0-2-0.9-2-2c0-1.1,0.9-2,2-2c1.1,0,2,0.9,2,2C302,201.1,301.1,202,300,202z"/>
				</g>
				<g>
					<path class="st1" d="M325,27c-1.1,0-2-0.9-2-2c0-1.1,0.9-2,2-2c1.1,0,2,0.9,2,2C327,26.1,326.1,27,325,27z"/>
					<path class="st1" d="M325,52c-1.1,0-2-0.9-2-2c0-1.1,0.9-2,2-2c1.1,0,2,0.9,2,2C327,51.1,326.1,52,325,52z"/>
					<path class="st1" d="M325,77c-1.1,0-2-0.9-2-2c0-1.1,0.9-2,2-2c1.1,0,2,0.9,2,2C327,76.1,326.1,77,325,77z"/>
					<path class="st1" d="M325,102c-1.1,0-2-0.9-2-2c0-1.1,0.9-2,2-2c1.1,0,2,0.9,2,2C327,101.1,326.1,102,325,102z"/>
					<path class="st1" d="M325,127c-1.1,0-2-0.9-2-2c0-1.1,0.9-2,2-2c1.1,0,2,0.9,2,2C327,126.1,326.1,127,325,127z"/>
					<path class="st1" d="M325,152c-1.1,0-2-0.9-2-2c0-1.1,0.9-2,2-2c1.1,0,2,0.9,2,2C327,151.1,326.1,152,325,152z"/>
					<path class="st1" d="M325,177c-1.1,0-2-0.9-2-2c0-1.1,0.9-2,2-2c1.1,0,2,0.9,2,2C327,176.1,326.1,177,325,177z"/>
					<path class="st1" d="M325,202c-1.1,0-2-0.9-2-2c0-1.1,0.9-2,2-2c1.1,0,2,0.9,2,2C327,201.1,326.1,202,325,202z"/>
				</g>
				<g>
					<path class="st1" d="M350,27c-1.1,0-2-0.9-2-2c0-1.1,0.9-2,2-2c1.1,0,2,0.9,2,2C352,26.1,351.1,27,350,27z"/>
					<path class="st1" d="M350,52c-1.1,0-2-0.9-2-2c0-1.1,0.9-2,2-2c1.1,0,2,0.9,2,2C352,51.1,351.1,52,350,52z"/>
					<path class="st1" d="M350,77c-1.1,0-2-0.9-2-2c0-1.1,0.9-2,2-2c1.1,0,2,0.9,2,2C352,76.1,351.1,77,350,77z"/>
					<path class="st1" d="M350,102c-1.1,0-2-0.9-2-2c0-1.1,0.9-2,2-2c1.1,0,2,0.9,2,2C352,101.1,351.1,102,350,102z"/>
					<path class="st1" d="M350,127c-1.1,0-2-0.9-2-2c0-1.1,0.9-2,2-2c1.1,0,2,0.9,2,2C352,126.1,351.1,127,350,127z"/>
					<path class="st1" d="M350,152c-1.1,0-2-0.9-2-2c0-1.1,0.9-2,2-2c1.1,0,2,0.9,2,2C352,151.1,351.1,152,350,152z"/>
					<path class="st1" d="M350,177c-1.1,0-2-0.9-2-2c0-1.1,0.9-2,2-2c1.1,0,2,0.9,2,2C352,176.1,351.1,177,350,177z"/>
					<path class="st1" d="M350,202c-1.1,0-2-0.9-2-2c0-1.1,0.9-2,2-2c1.1,0,2,0.9,2,2C352,201.1,351.1,202,350,202z"/>
				</g>
				<g>
					<path class="st1" d="M375,27c-1.1,0-2-0.9-2-2c0-1.1,0.9-2,2-2c1.1,0,2,0.9,2,2C377,26.1,376.1,27,375,27z"/>
					<path class="st1" d="M375,52c-1.1,0-2-0.9-2-2c0-1.1,0.9-2,2-2c1.1,0,2,0.9,2,2C377,51.1,376.1,52,375,52z"/>
					<path class="st1" d="M375,77c-1.1,0-2-0.9-2-2c0-1.1,0.9-2,2-2c1.1,0,2,0.9,2,2C377,76.1,376.1,77,375,77z"/>
					<path class="st1" d="M375,102c-1.1,0-2-0.9-2-2c0-1.1,0.9-2,2-2c1.1,0,2,0.9,2,2C377,101.1,376.1,102,375,102z"/>
					<path class="st1" d="M375,127c-1.1,0-2-0.9-2-2c0-1.1,0.9-2,2-2c1.1,0,2,0.9,2,2C377,126.1,376.1,127,375,127z"/>
					<path class="st1" d="M375,152c-1.1,0-2-0.9-2-2c0-1.1,0.9-2,2-2c1.1,0,2,0.9,2,2C377,151.1,376.1,152,375,152z"/>
					<path class="st1" d="M375,177c-1.1,0-2-0.9-2-2c0-1.1,0.9-2,2-2c1.1,0,2,0.9,2,2C377,176.1,376.1,177,375,177z"/>
					<path class="st1" d="M375,202c-1.1,0-2-0.9-2-2c0-1.1,0.9-2,2-2c1.1,0,2,0.9,2,2C377,201.1,376.1,202,375,202z"/>
				</g>
				<g>
					<path class="st1" d="M400,27c-1.1,0-2-0.9-2-2c0-1.1,0.9-2,2-2c1.1,0,2,0.9,2,2C402,26.1,401.1,27,400,27z"/>
					<path class="st1" d="M400,52c-1.1,0-2-0.9-2-2c0-1.1,0.9-2,2-2c1.1,0,2,0.9,2,2C402,51.1,401.1,52,400,52z"/>
					<path class="st1" d="M400,77c-1.1,0-2-0.9-2-2c0-1.1,0.9-2,2-2c1.1,0,2,0.9,2,2C402,76.1,401.1,77,400,77z"/>
					<path class="st1" d="M400,102c-1.1,0-2-0.9-2-2c0-1.1,0.9-2,2-2c1.1,0,2,0.9,2,2C402,101.1,401.1,102,400,102z"/>
					<path class="st1" d="M400,127c-1.1,0-2-0.9-2-2c0-1.1,0.9-2,2-2c1.1,0,2,0.9,2,2C402,126.1,401.1,127,400,127z"/>
					<path class="st1" d="M400,152c-1.1,0-2-0.9-2-2c0-1.1,0.9-2,2-2c1.1,0,2,0.9,2,2C402,151.1,401.1,152,400,152z"/>
					<path class="st1" d="M400,177c-1.1,0-2-0.9-2-2c0-1.1,0.9-2,2-2c1.1,0,2,0.9,2,2C402,176.1,401.1,177,400,177z"/>
					<path class="st1" d="M400,202c-1.1,0-2-0.9-2-2c0-1.1,0.9-2,2-2c1.1,0,2,0.9,2,2C402,201.1,401.1,202,400,202z"/>
				</g>
			</g>
			<g>
				<g>
					<path class="st1" d="M0,227c-1.1,0-2-0.9-2-2c0-1.1,0.9-2,2-2c1.1,0,2,0.9,2,2C2,226.1,1.1,227,0,227z"/>
					<path class="st1" d="M0,252c-1.1,0-2-0.9-2-2c0-1.1,0.9-2,2-2c1.1,0,2,0.9,2,2C2,251.1,1.1,252,0,252z"/>
					<path class="st1" d="M0,277c-1.1,0-2-0.9-2-2c0-1.1,0.9-2,2-2c1.1,0,2,0.9,2,2C2,276.1,1.1,277,0,277z"/>
					<path class="st1" d="M0,302c-1.1,0-2-0.9-2-2c0-1.1,0.9-2,2-2c1.1,0,2,0.9,2,2C2,301.1,1.1,302,0,302z"/>
					<path class="st1" d="M0,327c-1.1,0-2-0.9-2-2c0-1.1,0.9-2,2-2c1.1,0,2,0.9,2,2C2,326.1,1.1,327,0,327z"/>
					<path class="st1" d="M0,352c-1.1,0-2-0.9-2-2c0-1.1,0.9-2,2-2c1.1,0,2,0.9,2,2C2,351.1,1.1,352,0,352z"/>
					<path class="st1" d="M0,377c-1.1,0-2-0.9-2-2c0-1.1,0.9-2,2-2c1.1,0,2,0.9,2,2C2,376.1,1.1,377,0,377z"/>
					<path class="st1" d="M0,402c-1.1,0-2-0.9-2-2c0-1.1,0.9-2,2-2c1.1,0,2,0.9,2,2C2,401.1,1.1,402,0,402z"/>
				</g>
				<g>
					<path class="st1" d="M25,227c-1.1,0-2-0.9-2-2c0-1.1,0.9-2,2-2c1.1,0,2,0.9,2,2C27,226.1,26.1,227,25,227z"/>
					<path class="st1" d="M25,252c-1.1,0-2-0.9-2-2c0-1.1,0.9-2,2-2c1.1,0,2,0.9,2,2C27,251.1,26.1,252,25,252z"/>
					<path class="st1" d="M25,277c-1.1,0-2-0.9-2-2c0-1.1,0.9-2,2-2c1.1,0,2,0.9,2,2C27,276.1,26.1,277,25,277z"/>
					<path class="st1" d="M25,302c-1.1,0-2-0.9-2-2c0-1.1,0.9-2,2-2c1.1,0,2,0.9,2,2C27,301.1,26.1,302,25,302z"/>
					<path class="st1" d="M25,327c-1.1,0-2-0.9-2-2c0-1.1,0.9-2,2-2c1.1,0,2,0.9,2,2C27,326.1,26.1,327,25,327z"/>
					<path class="st1" d="M25,352c-1.1,0-2-0.9-2-2c0-1.1,0.9-2,2-2c1.1,0,2,0.9,2,2C27,351.1,26.1,352,25,352z"/>
					<path class="st1" d="M25,377c-1.1,0-2-0.9-2-2c0-1.1,0.9-2,2-2c1.1,0,2,0.9,2,2C27,376.1,26.1,377,25,377z"/>
					<path class="st1" d="M25,402c-1.1,0-2-0.9-2-2c0-1.1,0.9-2,2-2c1.1,0,2,0.9,2,2C27,401.1,26.1,402,25,402z"/>
				</g>
				<g>
					<path class="st1" d="M50,227c-1.1,0-2-0.9-2-2c0-1.1,0.9-2,2-2c1.1,0,2,0.9,2,2C52,226.1,51.1,227,50,227z"/>
					<path class="st1" d="M50,252c-1.1,0-2-0.9-2-2c0-1.1,0.9-2,2-2c1.1,0,2,0.9,2,2C52,251.1,51.1,252,50,252z"/>
					<path class="st1" d="M50,277c-1.1,0-2-0.9-2-2c0-1.1,0.9-2,2-2c1.1,0,2,0.9,2,2C52,276.1,51.1,277,50,277z"/>
					<path class="st1" d="M50,302c-1.1,0-2-0.9-2-2c0-1.1,0.9-2,2-2c1.1,0,2,0.9,2,2C52,301.1,51.1,302,50,302z"/>
					<path class="st1" d="M50,327c-1.1,0-2-0.9-2-2c0-1.1,0.9-2,2-2c1.1,0,2,0.9,2,2C52,326.1,51.1,327,50,327z"/>
					<path class="st1" d="M50,352c-1.1,0-2-0.9-2-2c0-1.1,0.9-2,2-2c1.1,0,2,0.9,2,2C52,351.1,51.1,352,50,352z"/>
					<path class="st1" d="M50,377c-1.1,0-2-0.9-2-2c0-1.1,0.9-2,2-2c1.1,0,2,0.9,2,2C52,376.1,51.1,377,50,377z"/>
					<path class="st1" d="M50,402c-1.1,0-2-0.9-2-2c0-1.1,0.9-2,2-2c1.1,0,2,0.9,2,2C52,401.1,51.1,402,50,402z"/>
				</g>
				<g>
					<path class="st1" d="M75,227c-1.1,0-2-0.9-2-2c0-1.1,0.9-2,2-2c1.1,0,2,0.9,2,2C77,226.1,76.1,227,75,227z"/>
					<path class="st1" d="M75,252c-1.1,0-2-0.9-2-2c0-1.1,0.9-2,2-2c1.1,0,2,0.9,2,2C77,251.1,76.1,252,75,252z"/>
					<path class="st1" d="M75,277c-1.1,0-2-0.9-2-2c0-1.1,0.9-2,2-2c1.1,0,2,0.9,2,2C77,276.1,76.1,277,75,277z"/>
					<path class="st1" d="M75,302c-1.1,0-2-0.9-2-2c0-1.1,0.9-2,2-2c1.1,0,2,0.9,2,2C77,301.1,76.1,302,75,302z"/>
					<path class="st1" d="M75,327c-1.1,0-2-0.9-2-2c0-1.1,0.9-2,2-2c1.1,0,2,0.9,2,2C77,326.1,76.1,327,75,327z"/>
					<path class="st1" d="M75,352c-1.1,0-2-0.9-2-2c0-1.1,0.9-2,2-2c1.1,0,2,0.9,2,2C77,351.1,76.1,352,75,352z"/>
					<path class="st1" d="M75,377c-1.1,0-2-0.9-2-2c0-1.1,0.9-2,2-2c1.1,0,2,0.9,2,2C77,376.1,76.1,377,75,377z"/>
					<path class="st1" d="M75,402c-1.1,0-2-0.9-2-2c0-1.1,0.9-2,2-2c1.1,0,2,0.9,2,2C77,401.1,76.1,402,75,402z"/>
				</g>
				<g>
					<path class="st1" d="M100,227c-1.1,0-2-0.9-2-2c0-1.1,0.9-2,2-2c1.1,0,2,0.9,2,2C102,226.1,101.1,227,100,227z"/>
					<path class="st1" d="M100,252c-1.1,0-2-0.9-2-2c0-1.1,0.9-2,2-2c1.1,0,2,0.9,2,2C102,251.1,101.1,252,100,252z"/>
					<path class="st1" d="M100,277c-1.1,0-2-0.9-2-2c0-1.1,0.9-2,2-2c1.1,0,2,0.9,2,2C102,276.1,101.1,277,100,277z"/>
					<path class="st1" d="M100,302c-1.1,0-2-0.9-2-2c0-1.1,0.9-2,2-2c1.1,0,2,0.9,2,2C102,301.1,101.1,302,100,302z"/>
					<path class="st1" d="M100,327c-1.1,0-2-0.9-2-2c0-1.1,0.9-2,2-2c1.1,0,2,0.9,2,2C102,326.1,101.1,327,100,327z"/>
					<path class="st1" d="M100,352c-1.1,0-2-0.9-2-2c0-1.1,0.9-2,2-2c1.1,0,2,0.9,2,2C102,351.1,101.1,352,100,352z"/>
					<path class="st1" d="M100,377c-1.1,0-2-0.9-2-2c0-1.1,0.9-2,2-2c1.1,0,2,0.9,2,2C102,376.1,101.1,377,100,377z"/>
					<path class="st1" d="M100,402c-1.1,0-2-0.9-2-2c0-1.1,0.9-2,2-2c1.1,0,2,0.9,2,2C102,401.1,101.1,402,100,402z"/>
				</g>
				<g>
					<path class="st1" d="M125,227c-1.1,0-2-0.9-2-2c0-1.1,0.9-2,2-2c1.1,0,2,0.9,2,2C127,226.1,126.1,227,125,227z"/>
					<path class="st1" d="M125,252c-1.1,0-2-0.9-2-2c0-1.1,0.9-2,2-2c1.1,0,2,0.9,2,2C127,251.1,126.1,252,125,252z"/>
					<path class="st1" d="M125,277c-1.1,0-2-0.9-2-2c0-1.1,0.9-2,2-2c1.1,0,2,0.9,2,2C127,276.1,126.1,277,125,277z"/>
					<path class="st1" d="M125,302c-1.1,0-2-0.9-2-2c0-1.1,0.9-2,2-2c1.1,0,2,0.9,2,2C127,301.1,126.1,302,125,302z"/>
					<path class="st1" d="M125,327c-1.1,0-2-0.9-2-2c0-1.1,0.9-2,2-2c1.1,0,2,0.9,2,2C127,326.1,126.1,327,125,327z"/>
					<path class="st1" d="M125,352c-1.1,0-2-0.9-2-2c0-1.1,0.9-2,2-2c1.1,0,2,0.9,2,2C127,351.1,126.1,352,125,352z"/>
					<path class="st1" d="M125,377c-1.1,0-2-0.9-2-2c0-1.1,0.9-2,2-2c1.1,0,2,0.9,2,2C127,376.1,126.1,377,125,377z"/>
					<path class="st1" d="M125,402c-1.1,0-2-0.9-2-2c0-1.1,0.9-2,2-2c1.1,0,2,0.9,2,2C127,401.1,126.1,402,125,402z"/>
				</g>
				<g>
					<path class="st1" d="M150,227c-1.1,0-2-0.9-2-2c0-1.1,0.9-2,2-2c1.1,0,2,0.9,2,2C152,226.1,151.1,227,150,227z"/>
					<path class="st1" d="M150,252c-1.1,0-2-0.9-2-2c0-1.1,0.9-2,2-2c1.1,0,2,0.9,2,2C152,251.1,151.1,252,150,252z"/>
					<path class="st1" d="M150,277c-1.1,0-2-0.9-2-2c0-1.1,0.9-2,2-2c1.1,0,2,0.9,2,2C152,276.1,151.1,277,150,277z"/>
					<path class="st1" d="M150,302c-1.1,0-2-0.9-2-2c0-1.1,0.9-2,2-2c1.1,0,2,0.9,2,2C152,301.1,151.1,302,150,302z"/>
					<path class="st1" d="M150,327c-1.1,0-2-0.9-2-2c0-1.1,0.9-2,2-2c1.1,0,2,0.9,2,2C152,326.1,151.1,327,150,327z"/>
					<path class="st1" d="M150,352c-1.1,0-2-0.9-2-2c0-1.1,0.9-2,2-2c1.1,0,2,0.9,2,2C152,351.1,151.1,352,150,352z"/>
					<path class="st1" d="M150,377c-1.1,0-2-0.9-2-2c0-1.1,0.9-2,2-2c1.1,0,2,0.9,2,2C152,376.1,151.1,377,150,377z"/>
					<path class="st1" d="M150,402c-1.1,0-2-0.9-2-2c0-1.1,0.9-2,2-2c1.1,0,2,0.9,2,2C152,401.1,151.1,402,150,402z"/>
				</g>
				<g>
					<path class="st1" d="M175,227c-1.1,0-2-0.9-2-2c0-1.1,0.9-2,2-2c1.1,0,2,0.9,2,2C177,226.1,176.1,227,175,227z"/>
					<path class="st1" d="M175,252c-1.1,0-2-0.9-2-2c0-1.1,0.9-2,2-2c1.1,0,2,0.9,2,2C177,251.1,176.1,252,175,252z"/>
					<path class="st1" d="M175,277c-1.1,0-2-0.9-2-2c0-1.1,0.9-2,2-2c1.1,0,2,0.9,2,2C177,276.1,176.1,277,175,277z"/>
					<path class="st1" d="M175,302c-1.1,0-2-0.9-2-2c0-1.1,0.9-2,2-2c1.1,0,2,0.9,2,2C177,301.1,176.1,302,175,302z"/>
					<path class="st1" d="M175,327c-1.1,0-2-0.9-2-2c0-1.1,0.9-2,2-2c1.1,0,2,0.9,2,2C177,326.1,176.1,327,175,327z"/>
					<path class="st1" d="M175,352c-1.1,0-2-0.9-2-2c0-1.1,0.9-2,2-2c1.1,0,2,0.9,2,2C177,351.1,176.1,352,175,352z"/>
					<path class="st1" d="M175,377c-1.1,0-2-0.9-2-2c0-1.1,0.9-2,2-2c1.1,0,2,0.9,2,2C177,376.1,176.1,377,175,377z"/>
					<path class="st1" d="M175,402c-1.1,0-2-0.9-2-2c0-1.1,0.9-2,2-2c1.1,0,2,0.9,2,2C177,401.1,176.1,402,175,402z"/>
				</g>
				<g>
					<path class="st1" d="M200,227c-1.1,0-2-0.9-2-2c0-1.1,0.9-2,2-2c1.1,0,2,0.9,2,2C202,226.1,201.1,227,200,227z"/>
					<path class="st1" d="M200,252c-1.1,0-2-0.9-2-2c0-1.1,0.9-2,2-2c1.1,0,2,0.9,2,2C202,251.1,201.1,252,200,252z"/>
					<path class="st1" d="M200,277c-1.1,0-2-0.9-2-2c0-1.1,0.9-2,2-2c1.1,0,2,0.9,2,2C202,276.1,201.1,277,200,277z"/>
					<path class="st1" d="M200,302c-1.1,0-2-0.9-2-2c0-1.1,0.9-2,2-2c1.1,0,2,0.9,2,2C202,301.1,201.1,302,200,302z"/>
					<path class="st1" d="M200,327c-1.1,0-2-0.9-2-2c0-1.1,0.9-2,2-2c1.1,0,2,0.9,2,2C202,326.1,201.1,327,200,327z"/>
					<path class="st1" d="M200,352c-1.1,0-2-0.9-2-2c0-1.1,0.9-2,2-2c1.1,0,2,0.9,2,2C202,351.1,201.1,352,200,352z"/>
					<path class="st1" d="M200,377c-1.1,0-2-0.9-2-2c0-1.1,0.9-2,2-2c1.1,0,2,0.9,2,2C202,376.1,201.1,377,200,377z"/>
					<path class="st1" d="M200,402c-1.1,0-2-0.9-2-2c0-1.1,0.9-2,2-2c1.1,0,2,0.9,2,2C202,401.1,201.1,402,200,402z"/>
				</g>
			</g>
			<g>
				<g>
					<path class="st1" d="M225,227c-1.1,0-2-0.9-2-2c0-1.1,0.9-2,2-2c1.1,0,2,0.9,2,2C227,226.1,226.1,227,225,227z"/>
					<path class="st1" d="M225,252c-1.1,0-2-0.9-2-2c0-1.1,0.9-2,2-2c1.1,0,2,0.9,2,2C227,251.1,226.1,252,225,252z"/>
					<path class="st1" d="M225,277c-1.1,0-2-0.9-2-2c0-1.1,0.9-2,2-2c1.1,0,2,0.9,2,2C227,276.1,226.1,277,225,277z"/>
					<path class="st1" d="M225,302c-1.1,0-2-0.9-2-2c0-1.1,0.9-2,2-2c1.1,0,2,0.9,2,2C227,301.1,226.1,302,225,302z"/>
					<path class="st1" d="M225,327c-1.1,0-2-0.9-2-2c0-1.1,0.9-2,2-2c1.1,0,2,0.9,2,2C227,326.1,226.1,327,225,327z"/>
					<path class="st1" d="M225,352c-1.1,0-2-0.9-2-2c0-1.1,0.9-2,2-2c1.1,0,2,0.9,2,2C227,351.1,226.1,352,225,352z"/>
					<path class="st1" d="M225,377c-1.1,0-2-0.9-2-2c0-1.1,0.9-2,2-2c1.1,0,2,0.9,2,2C227,376.1,226.1,377,225,377z"/>
					<path class="st1" d="M225,402c-1.1,0-2-0.9-2-2c0-1.1,0.9-2,2-2c1.1,0,2,0.9,2,2C227,401.1,226.1,402,225,402z"/>
				</g>
				<g>
					<path class="st1" d="M250,227c-1.1,0-2-0.9-2-2c0-1.1,0.9-2,2-2c1.1,0,2,0.9,2,2C252,226.1,251.1,227,250,227z"/>
					<path class="st1" d="M250,252c-1.1,0-2-0.9-2-2c0-1.1,0.9-2,2-2c1.1,0,2,0.9,2,2C252,251.1,251.1,252,250,252z"/>
					<path class="st1" d="M250,277c-1.1,0-2-0.9-2-2c0-1.1,0.9-2,2-2c1.1,0,2,0.9,2,2C252,276.1,251.1,277,250,277z"/>
					<path class="st1" d="M250,302c-1.1,0-2-0.9-2-2c0-1.1,0.9-2,2-2c1.1,0,2,0.9,2,2C252,301.1,251.1,302,250,302z"/>
					<path class="st1" d="M250,327c-1.1,0-2-0.9-2-2c0-1.1,0.9-2,2-2c1.1,0,2,0.9,2,2C252,326.1,251.1,327,250,327z"/>
					<path class="st1" d="M250,352c-1.1,0-2-0.9-2-2c0-1.1,0.9-2,2-2c1.1,0,2,0.9,2,2C252,351.1,251.1,352,250,352z"/>
					<path class="st1" d="M250,377c-1.1,0-2-0.9-2-2c0-1.1,0.9-2,2-2c1.1,0,2,0.9,2,2C252,376.1,251.1,377,250,377z"/>
					<path class="st1" d="M250,402c-1.1,0-2-0.9-2-2c0-1.1,0.9-2,2-2c1.1,0,2,0.9,2,2C252,401.1,251.1,402,250,402z"/>
				</g>
				<g>
					<path class="st1" d="M275,227c-1.1,0-2-0.9-2-2c0-1.1,0.9-2,2-2c1.1,0,2,0.9,2,2C277,226.1,276.1,227,275,227z"/>
					<path class="st1" d="M275,252c-1.1,0-2-0.9-2-2c0-1.1,0.9-2,2-2c1.1,0,2,0.9,2,2C277,251.1,276.1,252,275,252z"/>
					<path class="st1" d="M275,277c-1.1,0-2-0.9-2-2c0-1.1,0.9-2,2-2c1.1,0,2,0.9,2,2C277,276.1,276.1,277,275,277z"/>
					<path class="st1" d="M275,302c-1.1,0-2-0.9-2-2c0-1.1,0.9-2,2-2c1.1,0,2,0.9,2,2C277,301.1,276.1,302,275,302z"/>
					<path class="st1" d="M275,327c-1.1,0-2-0.9-2-2c0-1.1,0.9-2,2-2c1.1,0,2,0.9,2,2C277,326.1,276.1,327,275,327z"/>
					<path class="st1" d="M275,352c-1.1,0-2-0.9-2-2c0-1.1,0.9-2,2-2c1.1,0,2,0.9,2,2C277,351.1,276.1,352,275,352z"/>
					<path class="st1" d="M275,377c-1.1,0-2-0.9-2-2c0-1.1,0.9-2,2-2c1.1,0,2,0.9,2,2C277,376.1,276.1,377,275,377z"/>
					<path class="st1" d="M275,402c-1.1,0-2-0.9-2-2c0-1.1,0.9-2,2-2c1.1,0,2,0.9,2,2C277,401.1,276.1,402,275,402z"/>
				</g>
				<g>
					<path class="st1" d="M300,227c-1.1,0-2-0.9-2-2c0-1.1,0.9-2,2-2c1.1,0,2,0.9,2,2C302,226.1,301.1,227,300,227z"/>
					<path class="st1" d="M300,252c-1.1,0-2-0.9-2-2c0-1.1,0.9-2,2-2c1.1,0,2,0.9,2,2C302,251.1,301.1,252,300,252z"/>
					<path class="st1" d="M300,277c-1.1,0-2-0.9-2-2c0-1.1,0.9-2,2-2c1.1,0,2,0.9,2,2C302,276.1,301.1,277,300,277z"/>
					<path class="st1" d="M300,302c-1.1,0-2-0.9-2-2c0-1.1,0.9-2,2-2c1.1,0,2,0.9,2,2C302,301.1,301.1,302,300,302z"/>
					<path class="st1" d="M300,327c-1.1,0-2-0.9-2-2c0-1.1,0.9-2,2-2c1.1,0,2,0.9,2,2C302,326.1,301.1,327,300,327z"/>
					<path class="st1" d="M300,352c-1.1,0-2-0.9-2-2c0-1.1,0.9-2,2-2c1.1,0,2,0.9,2,2C302,351.1,301.1,352,300,352z"/>
					<path class="st1" d="M300,377c-1.1,0-2-0.9-2-2c0-1.1,0.9-2,2-2c1.1,0,2,0.9,2,2C302,376.1,301.1,377,300,377z"/>
					<path class="st1" d="M300,402c-1.1,0-2-0.9-2-2c0-1.1,0.9-2,2-2c1.1,0,2,0.9,2,2C302,401.1,301.1,402,300,402z"/>
				</g>
				<g>
					<path class="st1" d="M325,227c-1.1,0-2-0.9-2-2c0-1.1,0.9-2,2-2c1.1,0,2,0.9,2,2C327,226.1,326.1,227,325,227z"/>
					<path class="st1" d="M325,252c-1.1,0-2-0.9-2-2c0-1.1,0.9-2,2-2c1.1,0,2,0.9,2,2C327,251.1,326.1,252,325,252z"/>
					<path class="st1" d="M325,277c-1.1,0-2-0.9-2-2c0-1.1,0.9-2,2-2c1.1,0,2,0.9,2,2C327,276.1,326.1,277,325,277z"/>
					<path class="st1" d="M325,302c-1.1,0-2-0.9-2-2c0-1.1,0.9-2,2-2c1.1,0,2,0.9,2,2C327,301.1,326.1,302,325,302z"/>
					<path class="st1" d="M325,327c-1.1,0-2-0.9-2-2c0-1.1,0.9-2,2-2c1.1,0,2,0.9,2,2C327,326.1,326.1,327,325,327z"/>
					<path class="st1" d="M325,352c-1.1,0-2-0.9-2-2c0-1.1,0.9-2,2-2c1.1,0,2,0.9,2,2C327,351.1,326.1,352,325,352z"/>
					<path class="st1" d="M325,377c-1.1,0-2-0.9-2-2c0-1.1,0.9-2,2-2c1.1,0,2,0.9,2,2C327,376.1,326.1,377,325,377z"/>
					<path class="st1" d="M325,402c-1.1,0-2-0.9-2-2c0-1.1,0.9-2,2-2c1.1,0,2,0.9,2,2C327,401.1,326.1,402,325,402z"/>
				</g>
				<g>
					<path class="st1" d="M350,227c-1.1,0-2-0.9-2-2c0-1.1,0.9-2,2-2c1.1,0,2,0.9,2,2C352,226.1,351.1,227,350,227z"/>
					<path class="st1" d="M350,252c-1.1,0-2-0.9-2-2c0-1.1,0.9-2,2-2c1.1,0,2,0.9,2,2C352,251.1,351.1,252,350,252z"/>
					<path class="st1" d="M350,277c-1.1,0-2-0.9-2-2c0-1.1,0.9-2,2-2c1.1,0,2,0.9,2,2C352,276.1,351.1,277,350,277z"/>
					<path class="st1" d="M350,302c-1.1,0-2-0.9-2-2c0-1.1,0.9-2,2-2c1.1,0,2,0.9,2,2C352,301.1,351.1,302,350,302z"/>
					<path class="st1" d="M350,327c-1.1,0-2-0.9-2-2c0-1.1,0.9-2,2-2c1.1,0,2,0.9,2,2C352,326.1,351.1,327,350,327z"/>
					<path class="st1" d="M350,352c-1.1,0-2-0.9-2-2c0-1.1,0.9-2,2-2c1.1,0,2,0.9,2,2C352,351.1,351.1,352,350,352z"/>
					<path class="st1" d="M350,377c-1.1,0-2-0.9-2-2c0-1.1,0.9-2,2-2c1.1,0,2,0.9,2,2C352,376.1,351.1,377,350,377z"/>
					<path class="st1" d="M350,402c-1.1,0-2-0.9-2-2c0-1.1,0.9-2,2-2c1.1,0,2,0.9,2,2C352,401.1,351.1,402,350,402z"/>
				</g>
				<g>
					<path class="st1" d="M375,227c-1.1,0-2-0.9-2-2c0-1.1,0.9-2,2-2c1.1,0,2,0.9,2,2C377,226.1,376.1,227,375,227z"/>
					<path class="st1" d="M375,252c-1.1,0-2-0.9-2-2c0-1.1,0.9-2,2-2c1.1,0,2,0.9,2,2C377,251.1,376.1,252,375,252z"/>
					<path class="st1" d="M375,277c-1.1,0-2-0.9-2-2c0-1.1,0.9-2,2-2c1.1,0,2,0.9,2,2C377,276.1,376.1,277,375,277z"/>
					<path class="st1" d="M375,302c-1.1,0-2-0.9-2-2c0-1.1,0.9-2,2-2c1.1,0,2,0.9,2,2C377,301.1,376.1,302,375,302z"/>
					<path class="st1" d="M375,327c-1.1,0-2-0.9-2-2c0-1.1,0.9-2,2-2c1.1,0,2,0.9,2,2C377,326.1,376.1,327,375,327z"/>
					<path class="st1" d="M375,352c-1.1,0-2-0.9-2-2c0-1.1,0.9-2,2-2c1.1,0,2,0.9,2,2C377,351.1,376.1,352,375,352z"/>
					<path class="st1" d="M375,377c-1.1,0-2-0.9-2-2c0-1.1,0.9-2,2-2c1.1,0,2,0.9,2,2C377,376.1,376.1,377,375,377z"/>
					<path class="st1" d="M375,402c-1.1,0-2-0.9-2-2c0-1.1,0.9-2,2-2c1.1,0,2,0.9,2,2C377,401.1,376.1,402,375,402z"/>
				</g>
				<g>
					<path class="st1" d="M400,227c-1.1,0-2-0.9-2-2c0-1.1,0.9-2,2-2c1.1,0,2,0.9,2,2C402,226.1,401.1,227,400,227z"/>
					<path class="st1" d="M400,252c-1.1,0-2-0.9-2-2c0-1.1,0.9-2,2-2c1.1,0,2,0.9,2,2C402,251.1,401.1,252,400,252z"/>
					<path class="st1" d="M400,277c-1.1,0-2-0.9-2-2c0-1.1,0.9-2,2-2c1.1,0,2,0.9,2,2C402,276.1,401.1,277,400,277z"/>
					<path class="st1" d="M400,302c-1.1,0-2-0.9-2-2c0-1.1,0.9-2,2-2c1.1,0,2,0.9,2,2C402,301.1,401.1,302,400,302z"/>
					<path class="st1" d="M400,327c-1.1,0-2-0.9-2-2c0-1.1,0.9-2,2-2c1.1,0,2,0.9,2,2C402,326.1,401.1,327,400,327z"/>
					<path class="st1" d="M400,352c-1.1,0-2-0.9-2-2c0-1.1,0.9-2,2-2c1.1,0,2,0.9,2,2C402,351.1,401.1,352,400,352z"/>
					<path class="st1" d="M400,377c-1.1,0-2-0.9-2-2c0-1.1,0.9-2,2-2c1.1,0,2,0.9,2,2C402,376.1,401.1,377,400,377z"/>
					<path class="st1" d="M400,402c-1.1,0-2-0.9-2-2c0-1.1,0.9-2,2-2c1.1,0,2,0.9,2,2C402,401.1,401.1,402,400,402z"/>
				</g>
			</g>
			<g>
				<polygon points="-7.4,167.1 -0.1,118 23.6,161.8 				"/>
				<polygon class="st2" points="-8.9,163.7 -1.5,114.6 22.2,158.4 				"/>
			</g>
			<g>
				<polygon points="61.1,91.3 103.4,78.9 97.9,123.5 				"/>
				<polygon class="st2" points="60.5,88 104.1,75.7 98.6,120.3 				"/>
			</g>
			<g>
				<polygon points="59,-13 99.3,-6 67.7,25.9 				"/>
				<polygon class="st2" points="57.9,-17.1 98.2,-10.1 66.6,21.9 				"/>
			</g>
			<g>
				<polygon points="104.2,164.9 120,141 142.4,151.4 				"/>
				<polygon class="st2" points="103.9,161.9 119.6,138.1 142.1,148.5 				"/>
			</g>
			<g>
				<g>
					<polygon points="27.2,121.4 24.1,111.6 14.6,115.6 12,102.5 15.4,101.9 17.2,110.7 26.3,106.8 29.3,116.3 37.2,111.9 38.9,115 
											"/>
				</g>
				<g>
					<polygon class="st3" points="27.3,119.2 24.2,109.3 14.7,113.3 12,100.3 15.5,99.6 17.3,108.4 26.4,104.6 29.4,114 37.2,109.6 
						38.9,112.7 					"/>
				</g>
			</g>
			<g>
				<g>
					<polygon points="139.8,14.1 141.1,3.9 130.8,3.6 133.8,-9.4 137.2,-8.6 135.2,0.2 145,0.5 143.8,10.3 152.8,9.6 153.1,13.1 
											"/>
				</g>
				<g>
					<polygon class="st3" points="140.8,10.7 142.1,0.5 131.8,0.2 134.8,-12.8 138.2,-12 136.2,-3.2 146.1,-2.9 144.8,6.9 
						153.8,6.2 154.1,9.7 					"/>
				</g>
			</g>
			<g>
				<g>
					<polygon points="26.1,-1.9 35.8,1.7 38.5,-8.2 50.4,-2.3 48.8,0.9 40.7,-3.2 38.1,6.4 28.9,2.9 27.5,11.8 24,11.3 					"/>
				</g>
				<g>
					<polygon class="st3" points="25.7,-5 35.4,-1.4 38.1,-11.3 50,-5.4 48.4,-2.2 40.4,-6.3 37.8,3.3 28.5,-0.2 27.1,8.7 23.6,8.2 
											"/>
				</g>
			</g>
			<g>
				<polygon points="59,187 99.3,194 67.7,225.9 				"/>
				<polygon class="st2" points="57.9,182.9 98.2,189.9 66.6,221.9 				"/>
			</g>
			<g>
				<g>
					<polygon points="139.8,214.1 141.1,203.9 130.8,203.6 133.8,190.6 137.2,191.4 135.2,200.2 145,200.5 143.8,210.3 152.8,209.6 
						153.1,213.1 					"/>
				</g>
				<g>
					<polygon class="st3" points="140.8,210.7 142.1,200.5 131.8,200.2 134.8,187.2 138.2,188 136.2,196.8 146.1,197.1 144.8,206.9 
						153.8,206.2 154.1,209.7 					"/>
				</g>
			</g>
			<g>
				<g>
					<polygon points="26.1,198.1 35.8,201.7 38.5,191.8 50.4,197.7 48.8,200.9 40.7,196.8 38.1,206.4 28.9,202.9 27.5,211.8 
						24,211.3 					"/>
				</g>
				<g>
					<polygon class="st3" points="25.7,195 35.4,198.6 38.1,188.7 50,194.6 48.4,197.8 40.4,193.7 37.8,203.3 28.5,199.8 
						27.1,208.7 23.6,208.2 					"/>
				</g>
			</g>
			<g>
				<g>
					<polygon points="164.8,70.5 154.8,68.1 153.4,78.4 140.8,74 142,70.7 150.5,73.6 151.8,63.9 161.4,66.1 161.7,57.1 165.2,57.2 
											"/>
				</g>
				<g>
					<polygon class="st3" points="162.9,68.1 152.8,65.8 151.5,76 138.9,71.7 140.1,68.4 148.6,71.3 149.9,61.5 159.5,63.7 
						159.7,54.7 163.3,54.8 					"/>
				</g>
			</g>
			<g>
				<polygon points="180,181 175.3,187 155.1,169.5 158,165.7 				"/>
				<polygon class="st4" points="178.7,176.8 174.1,182.8 153.7,165.6 156.6,161.8 				"/>
			</g>
			<g>
				<polygon points="41,36 48,32.9 57.4,57.9 53.1,59.8 				"/>
				<polygon class="st4" points="41.7,33.3 48.6,30.1 58.4,55 54.1,57 				"/>
			</g>
			<g>
				<polygon points="157.6,30.6 161,36.7 138.7,47.4 136.6,43.5 				"/>
				<polygon class="st4" points="157.3,28.4 160.7,34.6 138.4,45.2 136.3,41.3 				"/>
			</g>
			<g>
				<polygon points="179.5,127.9 158.6,117.2 162.3,94 185.5,90.3 196.1,111.3 				"/>
				<polygon class="st4" points="178.1,124 157.2,113.4 160.9,90.1 184.1,86.5 194.7,107.4 				"/>
			</g>
			<g>
				<polygon points="-3.8,37.9 -11.7,25.9 -2.7,14.6 10.8,19.6 10.2,34.1 				"/>
				<polygon class="st4" points="-4.8,35.4 -12.8,23.4 -3.8,12.1 9.7,17.2 9.1,31.6 				"/>
			</g>
			<g>
				<polygon points="192.6,167.1 199.9,118 223.6,161.8 				"/>
				<polygon class="st2" points="191.1,163.7 198.5,114.6 222.2,158.4 				"/>
			</g>
			<g>
				<polygon points="196.2,37.9 188.3,25.9 197.3,14.6 210.8,19.6 210.2,34.1 				"/>
				<polygon class="st4" points="195.2,35.4 187.2,23.4 196.2,12.1 209.7,17.2 209.1,31.6 				"/>
			</g>
			<g>
				<polygon points="44.7,163 48.6,146.9 65.1,145.7 71.3,161 58.7,171.7 				"/>
				<polygon class="st4" points="44.7,159.1 48.6,143 65.1,141.8 71.3,157.1 58.7,167.8 				"/>
			</g>
			<g>
				<path d="M43.6,79.5c-2.8,6-9.9,8.7-15.9,5.9c-6-2.8-8.7-9.9-5.9-15.9L43.6,79.5z"/>
				<path class="st5" d="M43.3,76.5c-2.8,6-9.9,8.7-15.9,5.9c-6-2.8-8.7-9.9-5.9-15.9L43.3,76.5z"/>
			</g>
			<g>
				<path d="M100.6,180.9c-1.6,4.9-6.9,7.6-11.9,6c-4.9-1.6-7.6-6.9-6-11.9L100.6,180.9z"/>
				<path class="st5" d="M100.1,178.6c-1.6,4.9-6.9,7.6-11.9,6c-4.9-1.6-7.6-6.9-6-11.9L100.1,178.6z"/>
			</g>
			<g>
				<path d="M110.6,23.5c1.9,4.8-0.6,10.3-5.4,12.1c-4.8,1.9-10.3-0.6-12.1-5.4L110.6,23.5z"/>
				<path class="st5" d="M108.7,22c1.9,4.8-0.6,10.3-5.4,12.1C98.5,36,93,33.5,91.2,28.7L108.7,22z"/>
			</g>
			<g>
				<polygon points="261.1,91.3 303.4,78.9 297.9,123.5 				"/>
				<polygon class="st2" points="260.5,88 304.1,75.7 298.6,120.3 				"/>
			</g>
			<g>
				<polygon points="259,-13 299.3,-6 267.7,25.9 				"/>
				<polygon class="st2" points="257.9,-17.1 298.2,-10.1 266.6,21.9 				"/>
			</g>
			<g>
				<polygon points="304.2,164.9 320,141 342.4,151.4 				"/>
				<polygon class="st2" points="303.9,161.9 319.6,138.1 342.1,148.5 				"/>
			</g>
			<g>
				<g>
					<polygon points="227.2,121.4 224.1,111.6 214.6,115.6 212,102.5 215.4,101.9 217.2,110.7 226.3,106.8 229.3,116.3 237.2,111.9 
						238.9,115 					"/>
				</g>
				<g>
					<polygon class="st3" points="227.3,119.2 224.2,109.3 214.7,113.3 212,100.3 215.5,99.6 217.3,108.4 226.4,104.6 229.4,114 
						237.2,109.6 238.9,112.7 					"/>
				</g>
			</g>
			<g>
				<g>
					<polygon points="339.8,14.1 341.1,3.9 330.8,3.6 333.8,-9.4 337.2,-8.6 335.2,0.2 345,0.5 343.8,10.3 352.8,9.6 353.1,13.1 
											"/>
				</g>
				<g>
					<polygon class="st3" points="340.8,10.7 342.1,0.5 331.8,0.2 334.8,-12.8 338.2,-12 336.2,-3.2 346.1,-2.9 344.8,6.9 
						353.8,6.2 354.1,9.7 					"/>
				</g>
			</g>
			<g>
				<g>
					<polygon points="226.1,-1.9 235.8,1.7 238.5,-8.2 250.4,-2.3 248.8,0.9 240.7,-3.2 238.2,6.4 228.9,2.9 227.5,11.8 224,11.3 
											"/>
				</g>
				<g>
					<polygon class="st3" points="225.7,-5 235.4,-1.4 238.1,-11.3 250,-5.4 248.4,-2.2 240.4,-6.3 237.8,3.3 228.5,-0.2 227.1,8.7 
						223.6,8.2 					"/>
				</g>
			</g>
			<g>
				<polygon points="259,187 299.3,194 267.7,225.9 				"/>
				<polygon class="st2" points="257.9,182.9 298.2,189.9 266.6,221.9 				"/>
			</g>
			<g>
				<g>
					<polygon points="339.8,214.1 341.1,203.9 330.8,203.6 333.8,190.6 337.2,191.4 335.2,200.2 345,200.5 343.8,210.3 352.8,209.6 
						353.1,213.1 					"/>
				</g>
				<g>
					<polygon class="st3" points="340.8,210.7 342.1,200.5 331.8,200.2 334.8,187.2 338.2,188 336.2,196.8 346.1,197.1 344.8,206.9 
						353.8,206.2 354.1,209.7 					"/>
				</g>
			</g>
			<g>
				<g>
					<polygon points="226.1,198.1 235.8,201.7 238.5,191.8 250.4,197.7 248.8,200.9 240.7,196.8 238.2,206.4 228.9,202.9 
						227.5,211.8 224,211.3 					"/>
				</g>
				<g>
					<polygon class="st3" points="225.7,195 235.4,198.6 238.1,188.7 250,194.6 248.4,197.8 240.4,193.7 237.8,203.3 228.5,199.8 
						227.1,208.7 223.6,208.2 					"/>
				</g>
			</g>
			<g>
				<g>
					<polygon points="364.8,70.5 354.8,68.1 353.4,78.4 340.8,74 342,70.7 350.5,73.6 351.8,63.9 361.4,66.1 361.7,57.1 365.2,57.2 
											"/>
				</g>
				<g>
					<polygon class="st3" points="362.9,68.1 352.8,65.8 351.5,76 338.9,71.7 340.1,68.4 348.6,71.3 349.9,61.5 359.5,63.7 
						359.7,54.7 363.3,54.8 					"/>
				</g>
			</g>
			<g>
				<polygon points="380,181 375.3,187 355.1,169.5 358,165.7 				"/>
				<polygon class="st4" points="378.7,176.8 374.1,182.8 353.7,165.6 356.6,161.8 				"/>
			</g>
			<g>
				<polygon points="241,36 248,32.9 257.4,57.9 253.1,59.8 				"/>
				<polygon class="st4" points="241.7,33.3 248.6,30.1 258.4,55 254.1,57 				"/>
			</g>
			<g>
				<polygon points="357.6,30.6 361,36.7 338.7,47.4 336.6,43.5 				"/>
				<polygon class="st4" points="357.3,28.4 360.7,34.6 338.4,45.2 336.3,41.3 				"/>
			</g>
			<g>
				<polygon points="379.5,127.9 358.6,117.2 362.3,94 385.5,90.3 396.1,111.3 				"/>
				<polygon class="st4" points="378.1,124 357.2,113.4 360.9,90.1 384.1,86.5 394.7,107.4 				"/>
			</g>
			<g>
				<polygon points="392.6,167.1 399.9,118 423.6,161.8 				"/>
				<polygon class="st2" points="391.1,163.7 398.5,114.6 422.2,158.4 				"/>
			</g>
			<g>
				<polygon points="396.2,37.9 388.3,25.9 397.3,14.6 410.8,19.6 410.2,34.1 				"/>
				<polygon class="st4" points="395.2,35.4 387.2,23.4 396.2,12.1 409.7,17.2 409.1,31.6 				"/>
			</g>
			<g>
				<polygon points="244.7,163 248.6,146.9 265.1,145.7 271.3,161 258.7,171.7 				"/>
				<polygon class="st4" points="244.7,159.1 248.6,143 265.1,141.8 271.3,157.1 258.7,167.8 				"/>
			</g>
			<g>
				<path d="M243.6,79.5c-2.8,6-9.9,8.7-15.9,5.9c-6-2.8-8.7-9.9-5.9-15.9L243.6,79.5z"/>
				<path class="st5" d="M243.3,76.5c-2.8,6-9.9,8.7-15.9,5.9c-6-2.8-8.7-9.9-5.9-15.9L243.3,76.5z"/>
			</g>
			<g>
				<path d="M300.6,180.9c-1.6,4.9-6.9,7.6-11.9,6c-4.9-1.6-7.6-6.9-6-11.9L300.6,180.9z"/>
				<path class="st5" d="M300.1,178.6c-1.6,4.9-6.9,7.6-11.9,6c-4.9-1.6-7.6-6.9-6-11.9L300.1,178.6z"/>
			</g>
			<g>
				<path d="M310.6,23.5c1.9,4.8-0.6,10.3-5.4,12.1c-4.8,1.9-10.3-0.6-12.1-5.4L310.6,23.5z"/>
				<path class="st5" d="M308.7,22c1.9,4.8-0.6,10.3-5.4,12.1c-4.8,1.9-10.3-0.6-12.1-5.4L308.7,22z"/>
			</g>
			<g>
				<polygon points="-7.4,367.1 -0.1,318 23.6,361.8 				"/>
				<polygon class="st2" points="-8.9,363.7 -1.5,314.6 22.2,358.4 				"/>
			</g>
			<g>
				<polygon points="61.1,291.3 103.4,278.9 97.9,323.5 				"/>
				<polygon class="st2" points="60.5,288 104.1,275.7 98.6,320.3 				"/>
			</g>
			<g>
				<polygon points="104.2,364.9 120,341 142.4,351.4 				"/>
				<polygon class="st2" points="103.9,361.9 119.6,338.1 142.1,348.5 				"/>
			</g>
			<g>
				<g>
					<polygon points="27.2,321.4 24.1,311.6 14.6,315.6 12,302.5 15.4,301.9 17.2,310.7 26.3,306.8 29.3,316.3 37.2,311.9 38.9,315 
											"/>
				</g>
				<g>
					<polygon class="st3" points="27.3,319.2 24.2,309.3 14.7,313.3 12,300.3 15.5,299.6 17.3,308.4 26.4,304.6 29.4,314 
						37.2,309.6 38.9,312.7 					"/>
				</g>
			</g>
			<g>
				<polygon points="59,387 99.3,394 67.7,425.9 				"/>
				<polygon class="st2" points="57.9,382.9 98.2,389.9 66.6,421.9 				"/>
			</g>
			<g>
				<g>
					<polygon points="139.8,414.1 141.1,403.9 130.8,403.6 133.8,390.6 137.2,391.4 135.2,400.2 145,400.5 143.8,410.3 152.8,409.6 
						153.1,413.1 					"/>
				</g>
				<g>
					<polygon class="st3" points="140.8,410.7 142.1,400.5 131.8,400.2 134.8,387.2 138.2,388 136.2,396.8 146.1,397.1 144.8,406.9 
						153.8,406.2 154.1,409.7 					"/>
				</g>
			</g>
			<g>
				<g>
					<polygon points="26.1,398.1 35.8,401.7 38.5,391.8 50.4,397.7 48.8,400.9 40.7,396.8 38.1,406.4 28.9,402.9 27.5,411.8 
						24,411.3 					"/>
				</g>
				<g>
					<polygon class="st3" points="25.7,395 35.4,398.6 38.1,388.7 50,394.6 48.4,397.8 40.4,393.7 37.8,403.3 28.5,399.8 
						27.1,408.7 23.6,408.2 					"/>
				</g>
			</g>
			<g>
				<g>
					<polygon points="164.8,270.5 154.8,268.1 153.4,278.4 140.8,274 142,270.7 150.5,273.6 151.8,263.9 161.4,266.1 161.7,257.1 
						165.2,257.2 					"/>
				</g>
				<g>
					<polygon class="st3" points="162.9,268.1 152.8,265.8 151.5,276 138.9,271.7 140.1,268.4 148.6,271.3 149.9,261.5 159.5,263.7 
						159.7,254.7 163.3,254.8 					"/>
				</g>
			</g>
			<g>
				<polygon points="180,381 175.3,387 155.1,369.5 158,365.7 				"/>
				<polygon class="st4" points="178.7,376.8 174.1,382.8 153.7,365.6 156.6,361.8 				"/>
			</g>
			<g>
				<polygon points="41,236 48,232.9 57.4,257.9 53.1,259.8 				"/>
				<polygon class="st4" points="41.7,233.3 48.6,230.1 58.4,255 54.1,257 				"/>
			</g>
			<g>
				<polygon points="157.6,230.6 161,236.7 138.7,247.4 136.6,243.5 				"/>
				<polygon class="st4" points="157.3,228.4 160.7,234.6 138.4,245.2 136.3,241.3 				"/>
			</g>
			<g>
				<polygon points="179.5,327.9 158.6,317.2 162.3,294 185.5,290.3 196.1,311.3 				"/>
				<polygon class="st4" points="178.1,324 157.2,313.4 160.9,290.1 184.1,286.5 194.7,307.4 				"/>
			</g>
			<g>
				<polygon points="-3.8,237.9 -11.7,225.9 -2.7,214.6 10.8,219.6 10.2,234.1 				"/>
				<polygon class="st4" points="-4.8,235.4 -12.8,223.4 -3.8,212.1 9.7,217.2 9.1,231.6 				"/>
			</g>
			<g>
				<polygon points="192.6,367.1 199.9,318 223.6,361.8 				"/>
				<polygon class="st2" points="191.1,363.7 198.5,314.6 222.2,358.4 				"/>
			</g>
			<g>
				<polygon points="196.2,237.9 188.3,225.9 197.3,214.6 210.8,219.6 210.2,234.1 				"/>
				<polygon class="st4" points="195.2,235.4 187.2,223.4 196.2,212.1 209.7,217.2 209.1,231.6 				"/>
			</g>
			<g>
				<polygon points="44.7,363 48.6,346.9 65.1,345.7 71.3,361 58.7,371.7 				"/>
				<polygon class="st4" points="44.7,359.1 48.6,343 65.1,341.8 71.3,357.1 58.7,367.8 				"/>
			</g>
			<g>
				<path d="M43.6,279.5c-2.8,6-9.9,8.7-15.9,5.9c-6-2.8-8.7-9.9-5.9-15.9L43.6,279.5z"/>
				<path class="st5" d="M43.3,276.5c-2.8,6-9.9,8.7-15.9,5.9c-6-2.8-8.7-9.9-5.9-15.9L43.3,276.5z"/>
			</g>
			<g>
				<path d="M100.6,380.9c-1.6,4.9-6.9,7.6-11.9,6c-4.9-1.6-7.6-6.9-6-11.9L100.6,380.9z"/>
				<path class="st5" d="M100.1,378.6c-1.6,4.9-6.9,7.6-11.9,6c-4.9-1.6-7.6-6.9-6-11.9L100.1,378.6z"/>
			</g>
			<g>
				<path d="M110.6,223.5c1.9,4.8-0.6,10.3-5.4,12.1c-4.8,1.9-10.3-0.6-12.1-5.4L110.6,223.5z"/>
				<path class="st5" d="M108.7,222c1.9,4.8-0.6,10.3-5.4,12.1c-4.8,1.9-10.3-0.6-12.1-5.4L108.7,222z"/>
			</g>
			<g>
				<polygon points="261.1,291.3 303.4,278.9 297.9,323.5 				"/>
				<polygon class="st2" points="260.5,288 304.1,275.7 298.6,320.3 				"/>
			</g>
			<g>
				<polygon points="304.2,364.9 320,341 342.4,351.4 				"/>
				<polygon class="st2" points="303.9,361.9 319.6,338.1 342.1,348.5 				"/>
			</g>
			<g>
				<g>
					<polygon points="227.2,321.4 224.1,311.6 214.6,315.6 212,302.5 215.4,301.9 217.2,310.7 226.3,306.8 229.3,316.3 237.2,311.9 
						238.9,315 					"/>
				</g>
				<g>
					<polygon class="st3" points="227.3,319.2 224.2,309.3 214.7,313.3 212,300.3 215.5,299.6 217.3,308.4 226.4,304.6 229.4,314 
						237.2,309.6 238.9,312.7 					"/>
				</g>
			</g>
			<g>
				<polygon points="259,387 299.3,394 267.7,425.9 				"/>
				<polygon class="st2" points="257.9,382.9 298.2,389.9 266.6,421.9 				"/>
			</g>
			<g>
				<g>
					<polygon points="339.8,414.1 341.1,403.9 330.8,403.6 333.8,390.6 337.2,391.4 335.2,400.2 345,400.5 343.8,410.3 352.8,409.6 
						353.1,413.1 					"/>
				</g>
				<g>
					<polygon class="st3" points="340.8,410.7 342.1,400.5 331.8,400.2 334.8,387.2 338.2,388 336.2,396.8 346.1,397.1 344.8,406.9 
						353.8,406.2 354.1,409.7 					"/>
				</g>
			</g>
			<g>
				<g>
					<polygon points="226.1,398.1 235.8,401.7 238.5,391.8 250.4,397.7 248.8,400.9 240.7,396.8 238.1,406.4 228.9,402.9 
						227.5,411.8 224,411.3 					"/>
				</g>
				<g>
					<polygon class="st3" points="225.7,395 235.4,398.6 238.1,388.7 250,394.6 248.4,397.8 240.4,393.7 237.8,403.3 228.5,399.8 
						227.1,408.7 223.6,408.2 					"/>
				</g>
			</g>
			<g>
				<g>
					<polygon points="364.8,270.5 354.8,268.1 353.4,278.4 340.8,274 342,270.7 350.5,273.6 351.8,263.9 361.4,266.1 361.7,257.1 
						365.2,257.2 					"/>
				</g>
				<g>
					<polygon class="st3" points="362.9,268.1 352.8,265.8 351.5,276 338.9,271.7 340.1,268.4 348.6,271.3 349.9,261.5 359.5,263.7 
						359.7,254.7 363.3,254.8 					"/>
				</g>
			</g>
			<g>
				<polygon points="380,381 375.3,387 355.1,369.5 358,365.7 				"/>
				<polygon class="st4" points="378.7,376.8 374.1,382.8 353.7,365.6 356.6,361.8 				"/>
			</g>
			<g>
				<polygon points="241,236 248,232.9 257.4,257.9 253.1,259.8 				"/>
				<polygon class="st4" points="241.7,233.3 248.6,230.1 258.4,255 254.1,257 				"/>
			</g>
			<g>
				<polygon points="357.6,230.6 361,236.7 338.7,247.4 336.6,243.5 				"/>
				<polygon class="st4" points="357.3,228.4 360.7,234.6 338.4,245.2 336.3,241.3 				"/>
			</g>
			<g>
				<polygon points="379.5,327.9 358.6,317.2 362.3,294 385.5,290.3 396.1,311.3 				"/>
				<polygon class="st4" points="378.1,324 357.2,313.4 360.9,290.1 384.1,286.5 394.7,307.4 				"/>
			</g>
			<g>
				<polygon points="392.6,367.1 399.9,318 423.6,361.8 				"/>
				<polygon class="st2" points="391.1,363.7 398.5,314.6 422.2,358.4 				"/>
			</g>
			<g>
				<polygon points="396.2,237.9 388.3,225.9 397.3,214.6 410.8,219.6 410.2,234.1 				"/>
				<polygon class="st4" points="395.2,235.4 387.2,223.4 396.2,212.1 409.7,217.2 409.1,231.6 				"/>
			</g>
			<g>
				<polygon points="244.7,363 248.6,346.9 265.1,345.7 271.3,361 258.7,371.7 				"/>
				<polygon class="st4" points="244.7,359.1 248.6,343 265.1,341.8 271.3,357.1 258.7,367.8 				"/>
			</g>
			<g>
				<path d="M243.6,279.5c-2.8,6-9.9,8.7-15.9,5.9c-6-2.8-8.7-9.9-5.9-15.9L243.6,279.5z"/>
				<path class="st5" d="M243.3,276.5c-2.8,6-9.9,8.7-15.9,5.9c-6-2.8-8.7-9.9-5.9-15.9L243.3,276.5z"/>
			</g>
			<g>
				<path d="M300.6,380.9c-1.6,4.9-6.9,7.6-11.9,6c-4.9-1.6-7.6-6.9-6-11.9L300.6,380.9z"/>
				<path class="st5" d="M300.1,378.6c-1.6,4.9-6.9,7.6-11.9,6c-4.9-1.6-7.6-6.9-6-11.9L300.1,378.6z"/>
			</g>
			<g>
				<path d="M310.6,223.5c1.9,4.8-0.6,10.3-5.4,12.1c-4.8,1.9-10.3-0.6-12.1-5.4L310.6,223.5z"/>
				<path class="st5" d="M308.7,222c1.9,4.8-0.6,10.3-5.4,12.1c-4.8,1.9-10.3-0.6-12.1-5.4L308.7,222z"/>
			</g>
		</g>
	</g>
</g>
</svg>
