<?xml version="1.0" encoding="utf-8"?>
<!-- Generator: Adobe Illustrator 22.1.0, SVG Export Plug-In . SVG Version: 6.00 Build 0)  -->
<svg version="1.1" id="Layer_1" xmlns="http://www.w3.org/2000/svg" xmlns:xlink="http://www.w3.org/1999/xlink" x="0px" y="0px"
	 viewBox="0 0 400 400" style="enable-background:new 0 0 400 400;" xml:space="preserve">
<style type="text/css">
	.st0{clip-path:url(#SVGID_1_);}
	.st1{fill:#272D28;}
	.st2{fill:#FFFFFF;}
	.st3{fill:none;}
	.st4{clip-path:url(#SVGID_2_);}
	.st5{fill:#55B6B4;}
	.st6{clip-path:url(#SVGID_3_);}
	.st7{fill:#78C5B4;}
	.st8{clip-path:url(#SVGID_4_);}
	.st9{clip-path:url(#SVGID_5_);}
	.st10{fill:#F66D7B;}
	.st11{fill:#F7F72B;}
	.st12{fill:#65C6BF;}
	.st13{clip-path:url(#SVGID_6_);fill:#B5B5B5;}
	.st14{clip-path:url(#SVGID_6_);fill:#B6B6B6;}
	.st15{clip-path:url(#SVGID_6_);fill:#B7B7B7;}
	.st16{clip-path:url(#SVGID_6_);fill:#B8B8B8;}
	.st17{clip-path:url(#SVGID_6_);fill:#B9B9B9;}
	.st18{clip-path:url(#SVGID_6_);fill:#BABABA;}
	.st19{clip-path:url(#SVGID_6_);fill:#BBBBBB;}
	.st20{clip-path:url(#SVGID_6_);fill:#BCBCBC;}
	.st21{clip-path:url(#SVGID_6_);fill:#BDBDBD;}
	.st22{clip-path:url(#SVGID_6_);fill:#BEBEBE;}
	.st23{clip-path:url(#SVGID_6_);fill:#BFBFBF;}
	.st24{clip-path:url(#SVGID_6_);fill:#C1C1C1;}
	.st25{clip-path:url(#SVGID_6_);fill:#C2C2C2;}
	.st26{clip-path:url(#SVGID_6_);fill:#C3C3C3;}
	.st27{clip-path:url(#SVGID_6_);fill:#C4C4C4;}
	.st28{clip-path:url(#SVGID_6_);fill:#C5C5C5;}
	.st29{clip-path:url(#SVGID_6_);fill:#C6C6C6;}
	.st30{clip-path:url(#SVGID_6_);fill:#C7C7C7;}
	.st31{clip-path:url(#SVGID_6_);fill:#C8C8C8;}
	.st32{clip-path:url(#SVGID_6_);fill:#C9C9C9;}
	.st33{clip-path:url(#SVGID_6_);fill:#CACACA;}
	.st34{clip-path:url(#SVGID_6_);fill:#CBCBCB;}
	.st35{clip-path:url(#SVGID_6_);fill:#CCCCCC;}
	.st36{clip-path:url(#SVGID_7_);fill:#B5B5B5;}
	.st37{clip-path:url(#SVGID_7_);fill:#B6B6B6;}
	.st38{clip-path:url(#SVGID_7_);fill:#B7B7B7;}
	.st39{clip-path:url(#SVGID_7_);fill:#B8B8B8;}
	.st40{clip-path:url(#SVGID_7_);fill:#B9B9B9;}
	.st41{clip-path:url(#SVGID_7_);fill:#BABABA;}
	.st42{clip-path:url(#SVGID_7_);fill:#BBBBBB;}
	.st43{clip-path:url(#SVGID_7_);fill:#BCBCBC;}
	.st44{clip-path:url(#SVGID_7_);fill:#BDBDBD;}
	.st45{clip-path:url(#SVGID_7_);fill:#BEBEBE;}
	.st46{clip-path:url(#SVGID_7_);fill:#BFBFBF;}
	.st47{clip-path:url(#SVGID_7_);fill:#C1C1C1;}
	.st48{clip-path:url(#SVGID_7_);fill:#C2C2C2;}
	.st49{clip-path:url(#SVGID_7_);fill:#C3C3C3;}
	.st50{clip-path:url(#SVGID_7_);fill:#C4C4C4;}
	.st51{clip-path:url(#SVGID_7_);fill:#C5C5C5;}
	.st52{clip-path:url(#SVGID_7_);fill:#C6C6C6;}
	.st53{clip-path:url(#SVGID_7_);fill:#C7C7C7;}
	.st54{clip-path:url(#SVGID_7_);fill:#C8C8C8;}
	.st55{clip-path:url(#SVGID_7_);fill:#C9C9C9;}
	.st56{clip-path:url(#SVGID_7_);fill:#CACACA;}
	.st57{clip-path:url(#SVGID_7_);fill:#CBCBCB;}
	.st58{clip-path:url(#SVGID_7_);fill:#CCCCCC;}
	.st59{clip-path:url(#SVGID_8_);fill:#B5B5B5;}
	.st60{clip-path:url(#SVGID_8_);fill:#B6B6B6;}
	.st61{clip-path:url(#SVGID_8_);fill:#B7B7B7;}
	.st62{clip-path:url(#SVGID_8_);fill:#B8B8B8;}
	.st63{clip-path:url(#SVGID_8_);fill:#B9B9B9;}
	.st64{clip-path:url(#SVGID_8_);fill:#BABABA;}
	.st65{clip-path:url(#SVGID_8_);fill:#BBBBBB;}
	.st66{clip-path:url(#SVGID_8_);fill:#BCBCBC;}
	.st67{clip-path:url(#SVGID_8_);fill:#BDBDBD;}
	.st68{clip-path:url(#SVGID_8_);fill:#BEBEBE;}
	.st69{clip-path:url(#SVGID_8_);fill:#BFBFBF;}
	.st70{clip-path:url(#SVGID_8_);fill:#C1C1C1;}
	.st71{clip-path:url(#SVGID_8_);fill:#C2C2C2;}
	.st72{clip-path:url(#SVGID_8_);fill:#C3C3C3;}
	.st73{clip-path:url(#SVGID_8_);fill:#C4C4C4;}
	.st74{clip-path:url(#SVGID_8_);fill:#C5C5C5;}
	.st75{clip-path:url(#SVGID_8_);fill:#C6C6C6;}
	.st76{clip-path:url(#SVGID_8_);fill:#C7C7C7;}
	.st77{clip-path:url(#SVGID_8_);fill:#C8C8C8;}
	.st78{clip-path:url(#SVGID_8_);fill:#C9C9C9;}
	.st79{clip-path:url(#SVGID_8_);fill:#CACACA;}
	.st80{clip-path:url(#SVGID_8_);fill:#CBCBCB;}
	.st81{clip-path:url(#SVGID_8_);fill:#CCCCCC;}
	.st82{fill:#FFFC88;}
	.st83{fill:#CCCCCC;}
	.st84{fill:#6CB5E2;}
	.st85{fill:#3E43A3;}
	.st86{clip-path:url(#SVGID_9_);}
	.st87{clip-path:url(#SVGID_10_);}
	.st88{clip-path:url(#SVGID_11_);}
	.st89{clip-path:url(#SVGID_12_);fill:#B5B5B5;}
	.st90{clip-path:url(#SVGID_12_);fill:#B6B6B6;}
	.st91{clip-path:url(#SVGID_12_);fill:#B7B7B7;}
	.st92{clip-path:url(#SVGID_12_);fill:#B8B8B8;}
	.st93{clip-path:url(#SVGID_12_);fill:#B9B9B9;}
	.st94{clip-path:url(#SVGID_12_);fill:#BABABA;}
	.st95{clip-path:url(#SVGID_12_);fill:#BBBBBB;}
	.st96{clip-path:url(#SVGID_12_);fill:#BCBCBC;}
	.st97{clip-path:url(#SVGID_12_);fill:#BDBDBD;}
	.st98{clip-path:url(#SVGID_12_);fill:#BEBEBE;}
	.st99{clip-path:url(#SVGID_12_);fill:#BFBFBF;}
	.st100{clip-path:url(#SVGID_12_);fill:#C1C1C1;}
	.st101{clip-path:url(#SVGID_12_);fill:#C2C2C2;}
	.st102{clip-path:url(#SVGID_12_);fill:#C3C3C3;}
	.st103{clip-path:url(#SVGID_12_);fill:#C4C4C4;}
	.st104{clip-path:url(#SVGID_12_);fill:#C5C5C5;}
	.st105{clip-path:url(#SVGID_12_);fill:#C6C6C6;}
	.st106{clip-path:url(#SVGID_12_);fill:#C7C7C7;}
	.st107{clip-path:url(#SVGID_12_);fill:#C8C8C8;}
	.st108{clip-path:url(#SVGID_12_);fill:#C9C9C9;}
	.st109{clip-path:url(#SVGID_12_);fill:#CACACA;}
	.st110{clip-path:url(#SVGID_12_);fill:#CBCBCB;}
	.st111{clip-path:url(#SVGID_12_);fill:#CCCCCC;}
	.st112{clip-path:url(#SVGID_13_);}
	.st113{clip-path:url(#SVGID_14_);}
</style>
<g>
	<g>
		<defs>
			<rect id="SVGID_71_" width="400" height="400"/>
		</defs>
		<clipPath id="SVGID_1_">
			<use xlink:href="#SVGID_71_"  style="overflow:visible;"/>
		</clipPath>
		<g class="st0">
			<rect class="st1" width="400" height="400"/>
		</g>
		<g class="st0">
			<g>
				<g>
					<path class="st2" d="M1.3,182.5c-0.7,0.4-1.8,0.4-2.5,0c-0.7-0.4-0.7-1,0-1.4c0.7-0.4,1.8-0.4,2.5,0
						C1.9,181.4,1.9,182.1,1.3,182.5z"/>
				</g>
			</g>
			<g>
				<g>
					<path class="st2" d="M1.3,162.7c-0.7,0.4-1.8,0.4-2.5,0c-0.7-0.4-0.7-1,0-1.4c0.7-0.4,1.8-0.4,2.5,0
						C1.9,161.7,1.9,162.3,1.3,162.7z"/>
				</g>
				<g>
					<path class="st2" d="M18.4,172.6c-0.7,0.4-1.8,0.4-2.5,0c-0.7-0.4-0.7-1,0-1.4c0.7-0.4,1.8-0.4,2.5,0
						C19.1,171.5,19.1,172.2,18.4,172.6z"/>
				</g>
			</g>
			<g>
				<g>
					<path class="st2" d="M1.3,142.9c-0.7,0.4-1.8,0.4-2.5,0c-0.7-0.4-0.7-1,0-1.4c0.7-0.4,1.8-0.4,2.5,0
						C1.9,141.9,1.9,142.5,1.3,142.9z"/>
				</g>
				<g>
					<path class="st2" d="M18.4,152.8c-0.7,0.4-1.8,0.4-2.5,0c-0.7-0.4-0.7-1,0-1.4c0.7-0.4,1.8-0.4,2.5,0
						C19.1,151.8,19.1,152.4,18.4,152.8z"/>
				</g>
				<g>
					<path class="st2" d="M35.5,162.7c-0.7,0.4-1.8,0.4-2.5,0c-0.7-0.4-0.7-1,0-1.4c0.7-0.4,1.8-0.4,2.5,0
						C36.2,161.7,36.2,162.3,35.5,162.7z"/>
				</g>
			</g>
			<g>
				<g>
					<path class="st2" d="M1.3,123.2c-0.7,0.4-1.8,0.4-2.5,0c-0.7-0.4-0.7-1,0-1.4c0.7-0.4,1.8-0.4,2.5,0
						C1.9,122.1,1.9,122.8,1.3,123.2z"/>
				</g>
				<g>
					<path class="st2" d="M18.4,133c-0.7,0.4-1.8,0.4-2.5,0c-0.7-0.4-0.7-1,0-1.4c0.7-0.4,1.8-0.4,2.5,0
						C19.1,132,19.1,132.6,18.4,133z"/>
				</g>
				<g>
					<path class="st2" d="M35.5,142.9c-0.7,0.4-1.8,0.4-2.5,0c-0.7-0.4-0.7-1,0-1.4c0.7-0.4,1.8-0.4,2.5,0
						C36.2,141.9,36.2,142.5,35.5,142.9z"/>
				</g>
				<g>
					<path class="st2" d="M52.6,152.8c-0.7,0.4-1.8,0.4-2.5,0c-0.7-0.4-0.7-1,0-1.4c0.7-0.4,1.8-0.4,2.5,0
						C53.3,151.8,53.3,152.4,52.6,152.8z"/>
				</g>
			</g>
			<g>
				<g>
					<path class="st2" d="M1.3,103.4c-0.7,0.4-1.8,0.4-2.5,0c-0.7-0.4-0.7-1,0-1.4c0.7-0.4,1.8-0.4,2.5,0
						C1.9,102.3,1.9,103,1.3,103.4z"/>
				</g>
				<g>
					<path class="st2" d="M18.4,113.3c-0.7,0.4-1.8,0.4-2.5,0c-0.7-0.4-0.7-1,0-1.4c0.7-0.4,1.8-0.4,2.5,0
						C19.1,112.2,19.1,112.9,18.4,113.3z"/>
				</g>
				<g>
					<path class="st2" d="M35.5,123.2c-0.7,0.4-1.8,0.4-2.5,0c-0.7-0.4-0.7-1,0-1.4c0.7-0.4,1.8-0.4,2.5,0
						C36.2,122.1,36.2,122.8,35.5,123.2z"/>
				</g>
				<g>
					<path class="st2" d="M52.6,133c-0.7,0.4-1.8,0.4-2.5,0c-0.7-0.4-0.7-1,0-1.4c0.7-0.4,1.8-0.4,2.5,0
						C53.3,132,53.3,132.6,52.6,133z"/>
				</g>
				<g>
					<path class="st2" d="M69.8,142.9c-0.7,0.4-1.8,0.4-2.5,0c-0.7-0.4-0.7-1,0-1.4c0.7-0.4,1.8-0.4,2.5,0
						C70.4,141.9,70.4,142.5,69.8,142.9z"/>
				</g>
			</g>
		</g>
		<g class="st0">
			<g>
				<g>
					<path class="st2" d="M332.7,142.9c-0.7,0.4-1.8,0.4-2.5,0c-0.7-0.4-0.7-1,0-1.4c0.7-0.4,1.8-0.4,2.5,0
						C333.4,141.9,333.4,142.5,332.7,142.9z"/>
				</g>
				<g>
					<path class="st2" d="M349.9,152.8c-0.7,0.4-1.8,0.4-2.5,0c-0.7-0.4-0.7-1,0-1.4c0.7-0.4,1.8-0.4,2.5,0
						C350.6,151.8,350.6,152.4,349.9,152.8z"/>
				</g>
				<g>
					<path class="st2" d="M367,162.7c-0.7,0.4-1.8,0.4-2.5,0c-0.7-0.4-0.7-1,0-1.4c0.7-0.4,1.8-0.4,2.5,0
						C367.7,161.7,367.7,162.3,367,162.7z"/>
				</g>
				<g>
					<path class="st2" d="M384.1,172.6c-0.7,0.4-1.8,0.4-2.5,0c-0.7-0.4-0.7-1,0-1.4c0.7-0.4,1.8-0.4,2.5,0
						C384.8,171.5,384.8,172.2,384.1,172.6z"/>
				</g>
				<g>
					<path class="st2" d="M401.3,182.5c-0.7,0.4-1.8,0.4-2.5,0c-0.7-0.4-0.7-1,0-1.4c0.7-0.4,1.8-0.4,2.5,0
						C401.9,181.4,401.9,182.1,401.3,182.5z"/>
				</g>
			</g>
			<g>
				<g>
					<path class="st2" d="M349.9,133c-0.7,0.4-1.8,0.4-2.5,0c-0.7-0.4-0.7-1,0-1.4c0.7-0.4,1.8-0.4,2.5,0
						C350.6,132,350.6,132.6,349.9,133z"/>
				</g>
				<g>
					<path class="st2" d="M367,142.9c-0.7,0.4-1.8,0.4-2.5,0c-0.7-0.4-0.7-1,0-1.4c0.7-0.4,1.8-0.4,2.5,0
						C367.7,141.9,367.7,142.5,367,142.9z"/>
				</g>
				<g>
					<path class="st2" d="M384.1,152.8c-0.7,0.4-1.8,0.4-2.5,0c-0.7-0.4-0.7-1,0-1.4c0.7-0.4,1.8-0.4,2.5,0
						C384.8,151.8,384.8,152.4,384.1,152.8z"/>
				</g>
				<g>
					<path class="st2" d="M401.3,162.7c-0.7,0.4-1.8,0.4-2.5,0c-0.7-0.4-0.7-1,0-1.4c0.7-0.4,1.8-0.4,2.5,0
						C401.9,161.7,401.9,162.3,401.3,162.7z"/>
				</g>
			</g>
			<g>
				<g>
					<path class="st2" d="M367,123.2c-0.7,0.4-1.8,0.4-2.5,0c-0.7-0.4-0.7-1,0-1.4s1.8-0.4,2.5,0C367.7,122.1,367.7,122.8,367,123.2
						z"/>
				</g>
				<g>
					<path class="st2" d="M384.1,133c-0.7,0.4-1.8,0.4-2.5,0c-0.7-0.4-0.7-1,0-1.4c0.7-0.4,1.8-0.4,2.5,0
						C384.8,132,384.8,132.6,384.1,133z"/>
				</g>
				<g>
					<path class="st2" d="M401.3,142.9c-0.7,0.4-1.8,0.4-2.5,0c-0.7-0.4-0.7-1,0-1.4c0.7-0.4,1.8-0.4,2.5,0
						C401.9,141.9,401.9,142.5,401.3,142.9z"/>
				</g>
			</g>
			<g>
				<g>
					<path class="st2" d="M384.1,113.3c-0.7,0.4-1.8,0.4-2.5,0c-0.7-0.4-0.7-1,0-1.4c0.7-0.4,1.8-0.4,2.5,0
						C384.8,112.2,384.8,112.9,384.1,113.3z"/>
				</g>
				<g>
					<path class="st2" d="M401.3,123.2c-0.7,0.4-1.8,0.4-2.5,0c-0.7-0.4-0.7-1,0-1.4c0.7-0.4,1.8-0.4,2.5,0
						C401.9,122.1,401.9,122.8,401.3,123.2z"/>
				</g>
			</g>
			<g>
				<g>
					<path class="st2" d="M401.3,103.4c-0.7,0.4-1.8,0.4-2.5,0c-0.7-0.4-0.7-1,0-1.4c0.7-0.4,1.8-0.4,2.5,0
						C401.9,102.3,401.9,103,401.3,103.4z"/>
				</g>
			</g>
		</g>
		<g class="st0">
			<rect class="st3" width="400" height="400"/>
		</g>
		<g class="st0">
			<g>
				<g>
					<path class="st2" d="M30.2,383.2c0.7,0.4,0.7,1,0,1.4c-0.7,0.4-1.7,0.4-2.4,0c-0.7-0.4-0.7-1,0-1.4
						C28.5,382.8,29.5,382.8,30.2,383.2z"/>
				</g>
				<g>
					<path class="st2" d="M46.5,373.8c0.7,0.4,0.7,1,0,1.4c-0.7,0.4-1.7,0.4-2.4,0c-0.7-0.4-0.7-1,0-1.4
						C44.8,373.4,45.9,373.4,46.5,373.8z"/>
				</g>
				<g>
					<path class="st2" d="M62.8,364.4c0.7,0.4,0.7,1,0,1.4c-0.7,0.4-1.7,0.4-2.4,0c-0.7-0.4-0.7-1,0-1.4
						C61.1,364,62.2,364,62.8,364.4z"/>
				</g>
				<g>
					<path class="st2" d="M79.2,354.9c0.7,0.4,0.7,1,0,1.4c-0.7,0.4-1.7,0.4-2.4,0c-0.7-0.4-0.7-1,0-1.4
						C77.4,354.6,78.5,354.6,79.2,354.9z"/>
				</g>
				<g>
					<path class="st2" d="M95.5,345.5c0.7,0.4,0.7,1,0,1.4c-0.7,0.4-1.7,0.4-2.4,0c-0.7-0.4-0.7-1,0-1.4
						C93.8,345.1,94.8,345.1,95.5,345.5z"/>
				</g>
				<g>
					<path class="st2" d="M111.8,336.1c0.7,0.4,0.7,1,0,1.4c-0.7,0.4-1.7,0.4-2.4,0c-0.7-0.4-0.7-1,0-1.4
						C110.1,335.7,111.2,335.7,111.8,336.1z"/>
				</g>
				<g>
					<path class="st2" d="M128.1,326.7c0.7,0.4,0.7,1,0,1.4c-0.7,0.4-1.7,0.4-2.4,0c-0.7-0.4-0.7-1,0-1.4
						C126.4,326.3,127.5,326.3,128.1,326.7z"/>
				</g>
				<g>
					<path class="st2" d="M144.5,317.3c0.7,0.4,0.7,1,0,1.4c-0.7,0.4-1.7,0.4-2.4,0c-0.7-0.4-0.7-1,0-1.4
						C142.7,316.9,143.8,316.9,144.5,317.3z"/>
				</g>
				<g>
					<path class="st2" d="M160.8,307.8c0.7,0.4,0.7,1,0,1.4c-0.7,0.4-1.7,0.4-2.4,0c-0.7-0.4-0.7-1,0-1.4
						C159,307.5,160.1,307.5,160.8,307.8z"/>
				</g>
			</g>
			<g>
				<g>
					<path class="st2" d="M30.2,384.6c-0.7,0.4-1.7,0.4-2.4,0c-0.7-0.4-0.7-1,0-1.4c0.7-0.4,1.7-0.4,2.4,0
						C30.9,383.6,30.9,384.2,30.2,384.6z"/>
				</g>
				<g>
					<path class="st2" d="M46.5,394c-0.7,0.4-1.7,0.4-2.4,0c-0.7-0.4-0.7-1,0-1.4c0.7-0.4,1.7-0.4,2.4,0
						C47.2,393,47.2,393.6,46.5,394z"/>
				</g>
			</g>
			<g>
				<g>
					<path class="st2" d="M46.5,375.2c-0.7,0.4-1.7,0.4-2.4,0c-0.7-0.4-0.7-1,0-1.4c0.7-0.4,1.7-0.4,2.4,0
						C47.2,374.2,47.2,374.8,46.5,375.2z"/>
				</g>
				<g>
					<path class="st2" d="M62.8,384.6c-0.7,0.4-1.7,0.4-2.4,0c-0.7-0.4-0.7-1,0-1.4c0.7-0.4,1.7-0.4,2.4,0
						C63.5,383.6,63.5,384.2,62.8,384.6z"/>
				</g>
				<g>
					<path class="st2" d="M79.2,394c-0.7,0.4-1.7,0.4-2.4,0c-0.7-0.4-0.7-1,0-1.4c0.7-0.4,1.7-0.4,2.4,0
						C79.8,393,79.8,393.6,79.2,394z"/>
				</g>
			</g>
			<g>
				<g>
					<path class="st2" d="M62.8,365.7c-0.7,0.4-1.7,0.4-2.4,0c-0.7-0.4-0.7-1,0-1.4c0.7-0.4,1.7-0.4,2.4,0
						C63.5,364.8,63.5,365.4,62.8,365.7z"/>
				</g>
				<g>
					<path class="st2" d="M79.2,375.2c-0.7,0.4-1.7,0.4-2.4,0c-0.7-0.4-0.7-1,0-1.4c0.7-0.4,1.7-0.4,2.4,0
						C79.8,374.2,79.8,374.8,79.2,375.2z"/>
				</g>
				<g>
					<path class="st2" d="M95.5,384.6c-0.7,0.4-1.7,0.4-2.4,0c-0.7-0.4-0.7-1,0-1.4c0.7-0.4,1.7-0.4,2.4,0
						C96.1,383.6,96.1,384.2,95.5,384.6z"/>
				</g>
				<g>
					<path class="st2" d="M111.8,394c-0.7,0.4-1.7,0.4-2.4,0c-0.7-0.4-0.7-1,0-1.4c0.7-0.4,1.7-0.4,2.4,0
						C112.5,393,112.5,393.6,111.8,394z"/>
				</g>
			</g>
			<g>
				<g>
					<path class="st2" d="M79.2,356.3c-0.7,0.4-1.7,0.4-2.4,0c-0.7-0.4-0.7-1,0-1.4c0.7-0.4,1.7-0.4,2.4,0
						C79.8,355.3,79.8,355.9,79.2,356.3z"/>
				</g>
				<g>
					<path class="st2" d="M95.5,365.7c-0.7,0.4-1.7,0.4-2.4,0c-0.7-0.4-0.7-1,0-1.4c0.7-0.4,1.7-0.4,2.4,0
						C96.1,364.8,96.1,365.4,95.5,365.7z"/>
				</g>
				<g>
					<path class="st2" d="M111.8,375.2c-0.7,0.4-1.7,0.4-2.4,0c-0.7-0.4-0.7-1,0-1.4c0.7-0.4,1.7-0.4,2.4,0
						C112.5,374.2,112.5,374.8,111.8,375.2z"/>
				</g>
				<g>
					<path class="st2" d="M128.1,384.6c-0.7,0.4-1.7,0.4-2.4,0c-0.7-0.4-0.7-1,0-1.4c0.7-0.4,1.7-0.4,2.4,0
						C128.8,383.6,128.8,384.2,128.1,384.6z"/>
				</g>
				<g>
					<path class="st2" d="M144.5,394c-0.7,0.4-1.7,0.4-2.4,0c-0.7-0.4-0.7-1,0-1.4c0.7-0.4,1.7-0.4,2.4,0
						C145.1,393,145.1,393.6,144.5,394z"/>
				</g>
			</g>
			<g>
				<g>
					<path class="st2" d="M95.5,346.9c-0.7,0.4-1.7,0.4-2.4,0c-0.7-0.4-0.7-1,0-1.4c0.7-0.4,1.7-0.4,2.4,0
						C96.1,345.9,96.1,346.5,95.5,346.9z"/>
				</g>
				<g>
					<path class="st2" d="M111.8,356.3c-0.7,0.4-1.7,0.4-2.4,0c-0.7-0.4-0.7-1,0-1.4c0.7-0.4,1.7-0.4,2.4,0
						C112.5,355.3,112.5,355.9,111.8,356.3z"/>
				</g>
				<g>
					<path class="st2" d="M128.1,365.7c-0.7,0.4-1.7,0.4-2.4,0c-0.7-0.4-0.7-1,0-1.4c0.7-0.4,1.7-0.4,2.4,0
						C128.8,364.8,128.8,365.4,128.1,365.7z"/>
				</g>
				<g>
					<path class="st2" d="M144.5,375.2c-0.7,0.4-1.7,0.4-2.4,0c-0.7-0.4-0.7-1,0-1.4c0.7-0.4,1.7-0.4,2.4,0
						C145.1,374.2,145.1,374.8,144.5,375.2z"/>
				</g>
				<g>
					<path class="st2" d="M160.8,384.6c-0.7,0.4-1.7,0.4-2.4,0c-0.7-0.4-0.7-1,0-1.4c0.7-0.4,1.7-0.4,2.4,0
						C161.4,383.6,161.4,384.2,160.8,384.6z"/>
				</g>
				<g>
					<path class="st2" d="M177.1,394c-0.7,0.4-1.7,0.4-2.4,0c-0.7-0.4-0.7-1,0-1.4c0.7-0.4,1.7-0.4,2.4,0
						C177.8,393,177.8,393.6,177.1,394z"/>
				</g>
			</g>
			<g>
				<g>
					<path class="st2" d="M111.8,337.5c-0.7,0.4-1.7,0.4-2.4,0c-0.7-0.4-0.7-1,0-1.4c0.7-0.4,1.7-0.4,2.4,0
						C112.5,336.5,112.5,337.1,111.8,337.5z"/>
				</g>
				<g>
					<path class="st2" d="M128.1,346.9c-0.7,0.4-1.7,0.4-2.4,0c-0.7-0.4-0.7-1,0-1.4c0.7-0.4,1.7-0.4,2.4,0
						C128.8,345.9,128.8,346.5,128.1,346.9z"/>
				</g>
				<g>
					<path class="st2" d="M144.5,356.3c-0.7,0.4-1.7,0.4-2.4,0c-0.7-0.4-0.7-1,0-1.4c0.7-0.4,1.7-0.4,2.4,0
						C145.1,355.3,145.1,355.9,144.5,356.3z"/>
				</g>
				<g>
					<path class="st2" d="M160.8,365.7c-0.7,0.4-1.7,0.4-2.4,0c-0.7-0.4-0.7-1,0-1.4c0.7-0.4,1.7-0.4,2.4,0
						C161.4,364.8,161.4,365.4,160.8,365.7z"/>
				</g>
				<g>
					<path class="st2" d="M177.1,375.2c-0.7,0.4-1.7,0.4-2.4,0c-0.7-0.4-0.7-1,0-1.4c0.7-0.4,1.7-0.4,2.4,0
						C177.8,374.2,177.8,374.8,177.1,375.2z"/>
				</g>
				<g>
					<path class="st2" d="M193.4,384.6c-0.7,0.4-1.7,0.4-2.4,0c-0.7-0.4-0.7-1,0-1.4c0.7-0.4,1.7-0.4,2.4,0
						C194.1,383.6,194.1,384.2,193.4,384.6z"/>
				</g>
				<g>
					<path class="st2" d="M209.7,394c-0.7,0.4-1.7,0.4-2.4,0c-0.7-0.4-0.7-1,0-1.4c0.7-0.4,1.7-0.4,2.4,0
						C210.4,393,210.4,393.6,209.7,394z"/>
				</g>
			</g>
			<g>
				<g>
					<path class="st2" d="M128.1,328.1c-0.7,0.4-1.7,0.4-2.4,0c-0.7-0.4-0.7-1,0-1.4c0.7-0.4,1.7-0.4,2.4,0
						C128.8,327.1,128.8,327.7,128.1,328.1z"/>
				</g>
				<g>
					<path class="st2" d="M144.5,337.5c-0.7,0.4-1.7,0.4-2.4,0c-0.7-0.4-0.7-1,0-1.4c0.7-0.4,1.7-0.4,2.4,0
						C145.1,336.5,145.1,337.1,144.5,337.5z"/>
				</g>
				<g>
					<path class="st2" d="M160.8,346.9c-0.7,0.4-1.7,0.4-2.4,0c-0.7-0.4-0.7-1,0-1.4c0.7-0.4,1.7-0.4,2.4,0
						C161.4,345.9,161.4,346.5,160.8,346.9z"/>
				</g>
				<g>
					<path class="st2" d="M177.1,356.3c-0.7,0.4-1.7,0.4-2.4,0c-0.7-0.4-0.7-1,0-1.4c0.7-0.4,1.7-0.4,2.4,0
						C177.8,355.3,177.8,355.9,177.1,356.3z"/>
				</g>
				<g>
					<path class="st2" d="M193.4,365.7c-0.7,0.4-1.7,0.4-2.4,0c-0.7-0.4-0.7-1,0-1.4c0.7-0.4,1.7-0.4,2.4,0
						C194.1,364.8,194.1,365.4,193.4,365.7z"/>
				</g>
				<g>
					<path class="st2" d="M209.7,375.2c-0.7,0.4-1.7,0.4-2.4,0c-0.7-0.4-0.7-1,0-1.4c0.7-0.4,1.7-0.4,2.4,0
						C210.4,374.2,210.4,374.8,209.7,375.2z"/>
				</g>
				<g>
					<path class="st2" d="M226.1,384.6c-0.7,0.4-1.7,0.4-2.4,0c-0.7-0.4-0.7-1,0-1.4c0.7-0.4,1.7-0.4,2.4,0
						C226.7,383.6,226.7,384.2,226.1,384.6z"/>
				</g>
				<g>
					<path class="st2" d="M242.4,394c-0.7,0.4-1.7,0.4-2.4,0c-0.7-0.4-0.7-1,0-1.4c0.7-0.4,1.7-0.4,2.4,0
						C243,393,243,393.6,242.4,394z"/>
				</g>
			</g>
			<g>
				<g>
					<path class="st2" d="M144.5,318.6c-0.7,0.4-1.7,0.4-2.4,0c-0.7-0.4-0.7-1,0-1.4c0.7-0.4,1.7-0.4,2.4,0
						C145.1,317.6,145.1,318.3,144.5,318.6z"/>
				</g>
				<g>
					<path class="st2" d="M160.8,328.1c-0.7,0.4-1.7,0.4-2.4,0c-0.7-0.4-0.7-1,0-1.4c0.7-0.4,1.7-0.4,2.4,0
						C161.4,327.1,161.4,327.7,160.8,328.1z"/>
				</g>
				<g>
					<path class="st2" d="M177.1,337.5c-0.7,0.4-1.7,0.4-2.4,0c-0.7-0.4-0.7-1,0-1.4c0.7-0.4,1.7-0.4,2.4,0
						C177.8,336.5,177.8,337.1,177.1,337.5z"/>
				</g>
				<g>
					<path class="st2" d="M193.4,346.9c-0.7,0.4-1.7,0.4-2.4,0c-0.7-0.4-0.7-1,0-1.4c0.7-0.4,1.7-0.4,2.4,0
						C194.1,345.9,194.1,346.5,193.4,346.9z"/>
				</g>
				<g>
					<path class="st2" d="M209.7,356.3c-0.7,0.4-1.7,0.4-2.4,0c-0.7-0.4-0.7-1,0-1.4c0.7-0.4,1.7-0.4,2.4,0
						C210.4,355.3,210.4,355.9,209.7,356.3z"/>
				</g>
				<g>
					<path class="st2" d="M226.1,365.7c-0.7,0.4-1.7,0.4-2.4,0c-0.7-0.4-0.7-1,0-1.4c0.7-0.4,1.7-0.4,2.4,0
						C226.7,364.8,226.7,365.4,226.1,365.7z"/>
				</g>
				<g>
					<path class="st2" d="M242.4,375.2c-0.7,0.4-1.7,0.4-2.4,0c-0.7-0.4-0.7-1,0-1.4c0.7-0.4,1.7-0.4,2.4,0
						C243,374.2,243,374.8,242.4,375.2z"/>
				</g>
				<g>
					<path class="st2" d="M258.7,384.6c-0.7,0.4-1.7,0.4-2.4,0c-0.7-0.4-0.7-1,0-1.4c0.7-0.4,1.7-0.4,2.4,0
						C259.4,383.6,259.4,384.2,258.7,384.6z"/>
				</g>
				<g>
					<path class="st2" d="M275,394c-0.7,0.4-1.7,0.4-2.4,0c-0.7-0.4-0.7-1,0-1.4c0.7-0.4,1.7-0.4,2.4,0
						C275.7,393,275.7,393.6,275,394z"/>
				</g>
			</g>
			<g>
				<g>
					<path class="st2" d="M160.8,309.2c-0.7,0.4-1.7,0.4-2.4,0c-0.7-0.4-0.7-1,0-1.4c0.7-0.4,1.7-0.4,2.4,0
						C161.4,308.2,161.4,308.8,160.8,309.2z"/>
				</g>
				<g>
					<path class="st2" d="M177.1,318.6c-0.7,0.4-1.7,0.4-2.4,0c-0.7-0.4-0.7-1,0-1.4c0.7-0.4,1.7-0.4,2.4,0
						C177.8,317.6,177.8,318.3,177.1,318.6z"/>
				</g>
				<g>
					<path class="st2" d="M193.4,328.1c-0.7,0.4-1.7,0.4-2.4,0c-0.7-0.4-0.7-1,0-1.4c0.7-0.4,1.7-0.4,2.4,0
						C194.1,327.1,194.1,327.7,193.4,328.1z"/>
				</g>
				<g>
					<path class="st2" d="M209.7,337.5c-0.7,0.4-1.7,0.4-2.4,0c-0.7-0.4-0.7-1,0-1.4c0.7-0.4,1.7-0.4,2.4,0
						C210.4,336.5,210.4,337.1,209.7,337.5z"/>
				</g>
				<g>
					<path class="st2" d="M226.1,346.9c-0.7,0.4-1.7,0.4-2.4,0c-0.7-0.4-0.7-1,0-1.4c0.7-0.4,1.7-0.4,2.4,0
						C226.7,345.9,226.7,346.5,226.1,346.9z"/>
				</g>
				<g>
					<path class="st2" d="M242.4,356.3c-0.7,0.4-1.7,0.4-2.4,0c-0.7-0.4-0.7-1,0-1.4c0.7-0.4,1.7-0.4,2.4,0
						C243,355.3,243,355.9,242.4,356.3z"/>
				</g>
				<g>
					<path class="st2" d="M258.7,365.7c-0.7,0.4-1.7,0.4-2.4,0c-0.7-0.4-0.7-1,0-1.4c0.7-0.4,1.7-0.4,2.4,0
						C259.4,364.8,259.4,365.4,258.7,365.7z"/>
				</g>
				<g>
					<path class="st2" d="M275,375.2c-0.7,0.4-1.7,0.4-2.4,0c-0.7-0.4-0.7-1,0-1.4c0.7-0.4,1.7-0.4,2.4,0
						C275.7,374.2,275.7,374.8,275,375.2z"/>
				</g>
				<g>
					<path class="st2" d="M291.3,384.6c-0.7,0.4-1.7,0.4-2.4,0c-0.7-0.4-0.7-1,0-1.4c0.7-0.4,1.7-0.4,2.4,0
						C292,383.6,292,384.2,291.3,384.6z"/>
				</g>
				<g>
					<path class="st2" d="M307.7,394c-0.7,0.4-1.7,0.4-2.4,0c-0.7-0.4-0.7-1,0-1.4c0.7-0.4,1.7-0.4,2.4,0
						C308.3,393,308.3,393.6,307.7,394z"/>
				</g>
			</g>
		</g>
		<g class="st0">
			<g>
				<g>
					<path class="st2" d="M62.8,3.4c-0.7,0.4-1.7,0.4-2.4,0c-0.7-0.4-0.7-1,0-1.4c0.7-0.4,1.7-0.4,2.4,0C63.5,2.4,63.5,3.1,62.8,3.4
						z"/>
				</g>
				<g>
					<path class="st2" d="M79.2,12.9c-0.7,0.4-1.7,0.4-2.4,0c-0.7-0.4-0.7-1,0-1.4c0.7-0.4,1.7-0.4,2.4,0
						C79.8,11.9,79.8,12.5,79.2,12.9z"/>
				</g>
				<g>
					<path class="st2" d="M95.5,22.3c-0.7,0.4-1.7,0.4-2.4,0c-0.7-0.4-0.7-1,0-1.4c0.7-0.4,1.7-0.4,2.4,0
						C96.1,21.3,96.1,21.9,95.5,22.3z"/>
				</g>
				<g>
					<path class="st2" d="M111.8,31.7c-0.7,0.4-1.7,0.4-2.4,0c-0.7-0.4-0.7-1,0-1.4c0.7-0.4,1.7-0.4,2.4,0
						C112.5,30.7,112.5,31.3,111.8,31.7z"/>
				</g>
				<g>
					<path class="st2" d="M128.1,41.1c-0.7,0.4-1.7,0.4-2.4,0c-0.7-0.4-0.7-1,0-1.4c0.7-0.4,1.7-0.4,2.4,0
						C128.8,40.1,128.8,40.8,128.1,41.1z"/>
				</g>
				<g>
					<path class="st2" d="M144.5,50.6c-0.7,0.4-1.7,0.4-2.4,0c-0.7-0.4-0.7-1,0-1.4c0.7-0.4,1.7-0.4,2.4,0
						C145.1,49.6,145.1,50.2,144.5,50.6z"/>
				</g>
				<g>
					<path class="st2" d="M160.8,60c-0.7,0.4-1.7,0.4-2.4,0c-0.7-0.4-0.7-1,0-1.4c0.7-0.4,1.7-0.4,2.4,0
						C161.4,59,161.4,59.6,160.8,60z"/>
				</g>
				<g>
					<path class="st2" d="M177.1,69.4c-0.7,0.4-1.7,0.4-2.4,0c-0.7-0.4-0.7-1,0-1.4c0.7-0.4,1.7-0.4,2.4,0
						C177.8,68.4,177.8,69,177.1,69.4z"/>
				</g>
				<g>
					<path class="st2" d="M193.4,78.8c-0.7,0.4-1.7,0.4-2.4,0c-0.7-0.4-0.7-1,0-1.4c0.7-0.4,1.7-0.4,2.4,0
						C194.1,77.8,194.1,78.4,193.4,78.8z"/>
				</g>
				<g>
					<path class="st2" d="M209.7,88.2c-0.7,0.4-1.7,0.4-2.4,0c-0.7-0.4-0.7-1,0-1.4c0.7-0.4,1.7-0.4,2.4,0
						C210.4,87.3,210.4,87.9,209.7,88.2z"/>
				</g>
				<g>
					<path class="st2" d="M226.1,97.7c-0.7,0.4-1.7,0.4-2.4,0c-0.7-0.4-0.7-1,0-1.4c0.7-0.4,1.7-0.4,2.4,0
						C226.7,96.7,226.7,97.3,226.1,97.7z"/>
				</g>
			</g>
			<g>
				<g>
					<path class="st2" d="M95.5,3.4c-0.7,0.4-1.7,0.4-2.4,0c-0.7-0.4-0.7-1,0-1.4c0.7-0.4,1.7-0.4,2.4,0C96.1,2.4,96.1,3.1,95.5,3.4
						z"/>
				</g>
				<g>
					<path class="st2" d="M111.8,12.9c-0.7,0.4-1.7,0.4-2.4,0c-0.7-0.4-0.7-1,0-1.4c0.7-0.4,1.7-0.4,2.4,0
						C112.5,11.9,112.5,12.5,111.8,12.9z"/>
				</g>
				<g>
					<path class="st2" d="M128.1,22.3c-0.7,0.4-1.7,0.4-2.4,0c-0.7-0.4-0.7-1,0-1.4c0.7-0.4,1.7-0.4,2.4,0
						C128.8,21.3,128.8,21.9,128.1,22.3z"/>
				</g>
				<g>
					<path class="st2" d="M144.5,31.7c-0.7,0.4-1.7,0.4-2.4,0c-0.7-0.4-0.7-1,0-1.4c0.7-0.4,1.7-0.4,2.4,0
						C145.1,30.7,145.1,31.3,144.5,31.7z"/>
				</g>
				<g>
					<path class="st2" d="M160.8,41.1c-0.7,0.4-1.7,0.4-2.4,0c-0.7-0.4-0.7-1,0-1.4c0.7-0.4,1.7-0.4,2.4,0
						C161.4,40.1,161.4,40.8,160.8,41.1z"/>
				</g>
				<g>
					<path class="st2" d="M177.1,50.6c-0.7,0.4-1.7,0.4-2.4,0c-0.7-0.4-0.7-1,0-1.4c0.7-0.4,1.7-0.4,2.4,0
						C177.8,49.6,177.8,50.2,177.1,50.6z"/>
				</g>
				<g>
					<path class="st2" d="M193.4,60c-0.7,0.4-1.7,0.4-2.4,0c-0.7-0.4-0.7-1,0-1.4c0.7-0.4,1.7-0.4,2.4,0
						C194.1,59,194.1,59.6,193.4,60z"/>
				</g>
				<g>
					<path class="st2" d="M209.7,69.4c-0.7,0.4-1.7,0.4-2.4,0c-0.7-0.4-0.7-1,0-1.4c0.7-0.4,1.7-0.4,2.4,0
						C210.4,68.4,210.4,69,209.7,69.4z"/>
				</g>
				<g>
					<path class="st2" d="M226.1,78.8c-0.7,0.4-1.7,0.4-2.4,0c-0.7-0.4-0.7-1,0-1.4c0.7-0.4,1.7-0.4,2.4,0
						C226.7,77.8,226.7,78.4,226.1,78.8z"/>
				</g>
				<g>
					<path class="st2" d="M242.4,88.2c-0.7,0.4-1.7,0.4-2.4,0c-0.7-0.4-0.7-1,0-1.4c0.7-0.4,1.7-0.4,2.4,0
						C243,87.3,243,87.9,242.4,88.2z"/>
				</g>
			</g>
			<g>
				<g>
					<path class="st2" d="M128.1,3.4c-0.7,0.4-1.7,0.4-2.4,0c-0.7-0.4-0.7-1,0-1.4c0.7-0.4,1.7-0.4,2.4,0
						C128.8,2.4,128.8,3.1,128.1,3.4z"/>
				</g>
				<g>
					<path class="st2" d="M144.5,12.9c-0.7,0.4-1.7,0.4-2.4,0c-0.7-0.4-0.7-1,0-1.4c0.7-0.4,1.7-0.4,2.4,0
						C145.1,11.9,145.1,12.5,144.5,12.9z"/>
				</g>
				<g>
					<path class="st2" d="M160.8,22.3c-0.7,0.4-1.7,0.4-2.4,0c-0.7-0.4-0.7-1,0-1.4c0.7-0.4,1.7-0.4,2.4,0
						C161.4,21.3,161.4,21.9,160.8,22.3z"/>
				</g>
				<g>
					<path class="st2" d="M177.1,31.7c-0.7,0.4-1.7,0.4-2.4,0c-0.7-0.4-0.7-1,0-1.4c0.7-0.4,1.7-0.4,2.4,0
						C177.8,30.7,177.8,31.3,177.1,31.7z"/>
				</g>
				<g>
					<path class="st2" d="M193.4,41.1c-0.7,0.4-1.7,0.4-2.4,0c-0.7-0.4-0.7-1,0-1.4c0.7-0.4,1.7-0.4,2.4,0
						C194.1,40.1,194.1,40.8,193.4,41.1z"/>
				</g>
				<g>
					<path class="st2" d="M209.7,50.6c-0.7,0.4-1.7,0.4-2.4,0c-0.7-0.4-0.7-1,0-1.4c0.7-0.4,1.7-0.4,2.4,0
						C210.4,49.6,210.4,50.2,209.7,50.6z"/>
				</g>
				<g>
					<path class="st2" d="M226.1,60c-0.7,0.4-1.7,0.4-2.4,0c-0.7-0.4-0.7-1,0-1.4c0.7-0.4,1.7-0.4,2.4,0
						C226.7,59,226.7,59.6,226.1,60z"/>
				</g>
				<g>
					<path class="st2" d="M242.4,69.4c-0.7,0.4-1.7,0.4-2.4,0c-0.7-0.4-0.7-1,0-1.4c0.7-0.4,1.7-0.4,2.4,0
						C243,68.4,243,69,242.4,69.4z"/>
				</g>
				<g>
					<path class="st2" d="M258.7,78.8c-0.7,0.4-1.7,0.4-2.4,0c-0.7-0.4-0.7-1,0-1.4c0.7-0.4,1.7-0.4,2.4,0
						C259.4,77.8,259.4,78.4,258.7,78.8z"/>
				</g>
			</g>
			<g>
				<g>
					<path class="st2" d="M160.8,3.4c-0.7,0.4-1.7,0.4-2.4,0c-0.7-0.4-0.7-1,0-1.4c0.7-0.4,1.7-0.4,2.4,0
						C161.4,2.4,161.4,3.1,160.8,3.4z"/>
				</g>
				<g>
					<path class="st2" d="M177.1,12.9c-0.7,0.4-1.7,0.4-2.4,0c-0.7-0.4-0.7-1,0-1.4c0.7-0.4,1.7-0.4,2.4,0
						C177.8,11.9,177.8,12.5,177.1,12.9z"/>
				</g>
				<g>
					<path class="st2" d="M193.4,22.3c-0.7,0.4-1.7,0.4-2.4,0c-0.7-0.4-0.7-1,0-1.4c0.7-0.4,1.7-0.4,2.4,0
						C194.1,21.3,194.1,21.9,193.4,22.3z"/>
				</g>
				<g>
					<path class="st2" d="M209.7,31.7c-0.7,0.4-1.7,0.4-2.4,0c-0.7-0.4-0.7-1,0-1.4c0.7-0.4,1.7-0.4,2.4,0
						C210.4,30.7,210.4,31.3,209.7,31.7z"/>
				</g>
				<g>
					<path class="st2" d="M226.1,41.1c-0.7,0.4-1.7,0.4-2.4,0c-0.7-0.4-0.7-1,0-1.4c0.7-0.4,1.7-0.4,2.4,0
						C226.7,40.1,226.7,40.8,226.1,41.1z"/>
				</g>
				<g>
					<path class="st2" d="M242.4,50.6c-0.7,0.4-1.7,0.4-2.4,0c-0.7-0.4-0.7-1,0-1.4c0.7-0.4,1.7-0.4,2.4,0
						C243,49.6,243,50.2,242.4,50.6z"/>
				</g>
				<g>
					<path class="st2" d="M258.7,60c-0.7,0.4-1.7,0.4-2.4,0c-0.7-0.4-0.7-1,0-1.4c0.7-0.4,1.7-0.4,2.4,0
						C259.4,59,259.4,59.6,258.7,60z"/>
				</g>
				<g>
					<path class="st2" d="M275,69.4c-0.7,0.4-1.7,0.4-2.4,0c-0.7-0.4-0.7-1,0-1.4c0.7-0.4,1.7-0.4,2.4,0
						C275.7,68.4,275.7,69,275,69.4z"/>
				</g>
			</g>
			<g>
				<g>
					<path class="st2" d="M193.4,3.4c-0.7,0.4-1.7,0.4-2.4,0c-0.7-0.4-0.7-1,0-1.4c0.7-0.4,1.7-0.4,2.4,0
						C194.1,2.4,194.1,3.1,193.4,3.4z"/>
				</g>
				<g>
					<path class="st2" d="M209.7,12.9c-0.7,0.4-1.7,0.4-2.4,0c-0.7-0.4-0.7-1,0-1.4c0.7-0.4,1.7-0.4,2.4,0
						C210.4,11.9,210.4,12.5,209.7,12.9z"/>
				</g>
				<g>
					<path class="st2" d="M226.1,22.3c-0.7,0.4-1.7,0.4-2.4,0c-0.7-0.4-0.7-1,0-1.4c0.7-0.4,1.7-0.4,2.4,0
						C226.7,21.3,226.7,21.9,226.1,22.3z"/>
				</g>
				<g>
					<path class="st2" d="M242.4,31.7c-0.7,0.4-1.7,0.4-2.4,0c-0.7-0.4-0.7-1,0-1.4c0.7-0.4,1.7-0.4,2.4,0
						C243,30.7,243,31.3,242.4,31.7z"/>
				</g>
				<g>
					<path class="st2" d="M258.7,41.1c-0.7,0.4-1.7,0.4-2.4,0c-0.7-0.4-0.7-1,0-1.4c0.7-0.4,1.7-0.4,2.4,0
						C259.4,40.1,259.4,40.8,258.7,41.1z"/>
				</g>
				<g>
					<path class="st2" d="M275,50.6c-0.7,0.4-1.7,0.4-2.4,0c-0.7-0.4-0.7-1,0-1.4c0.7-0.4,1.7-0.4,2.4,0
						C275.7,49.6,275.7,50.2,275,50.6z"/>
				</g>
				<g>
					<path class="st2" d="M291.3,60c-0.7,0.4-1.7,0.4-2.4,0c-0.7-0.4-0.7-1,0-1.4c0.7-0.4,1.7-0.4,2.4,0C292,59,292,59.6,291.3,60z"
						/>
				</g>
			</g>
			<g>
				<g>
					<path class="st2" d="M226.1,3.4c-0.7,0.4-1.7,0.4-2.4,0c-0.7-0.4-0.7-1,0-1.4c0.7-0.4,1.7-0.4,2.4,0
						C226.7,2.4,226.7,3.1,226.1,3.4z"/>
				</g>
				<g>
					<path class="st2" d="M242.4,12.9c-0.7,0.4-1.7,0.4-2.4,0c-0.7-0.4-0.7-1,0-1.4c0.7-0.4,1.7-0.4,2.4,0
						C243,11.9,243,12.5,242.4,12.9z"/>
				</g>
				<g>
					<path class="st2" d="M258.7,22.3c-0.7,0.4-1.7,0.4-2.4,0c-0.7-0.4-0.7-1,0-1.4c0.7-0.4,1.7-0.4,2.4,0
						C259.4,21.3,259.4,21.9,258.7,22.3z"/>
				</g>
				<g>
					<path class="st2" d="M275,31.7c-0.7,0.4-1.7,0.4-2.4,0c-0.7-0.4-0.7-1,0-1.4c0.7-0.4,1.7-0.4,2.4,0
						C275.7,30.7,275.7,31.3,275,31.7z"/>
				</g>
				<g>
					<path class="st2" d="M291.3,41.1c-0.7,0.4-1.7,0.4-2.4,0c-0.7-0.4-0.7-1,0-1.4c0.7-0.4,1.7-0.4,2.4,0
						C292,40.1,292,40.8,291.3,41.1z"/>
				</g>
				<g>
					<path class="st2" d="M307.7,50.6c-0.7,0.4-1.7,0.4-2.4,0c-0.7-0.4-0.7-1,0-1.4c0.7-0.4,1.7-0.4,2.4,0
						C308.3,49.6,308.3,50.2,307.7,50.6z"/>
				</g>
			</g>
			<g>
				<g>
					<path class="st2" d="M258.7,3.4c-0.7,0.4-1.7,0.4-2.4,0c-0.7-0.4-0.7-1,0-1.4c0.7-0.4,1.7-0.4,2.4,0
						C259.4,2.4,259.4,3.1,258.7,3.4z"/>
				</g>
				<g>
					<path class="st2" d="M275,12.9c-0.7,0.4-1.7,0.4-2.4,0c-0.7-0.4-0.7-1,0-1.4c0.7-0.4,1.7-0.4,2.4,0
						C275.7,11.9,275.7,12.5,275,12.9z"/>
				</g>
				<g>
					<path class="st2" d="M291.3,22.3c-0.7,0.4-1.7,0.4-2.4,0c-0.7-0.4-0.7-1,0-1.4c0.7-0.4,1.7-0.4,2.4,0
						C292,21.3,292,21.9,291.3,22.3z"/>
				</g>
				<g>
					<path class="st2" d="M307.7,31.7c-0.7,0.4-1.7,0.4-2.4,0c-0.7-0.4-0.7-1,0-1.4c0.7-0.4,1.7-0.4,2.4,0
						C308.3,30.7,308.3,31.3,307.7,31.7z"/>
				</g>
				<g>
					<path class="st2" d="M324,41.1c-0.7,0.4-1.7,0.4-2.4,0c-0.7-0.4-0.7-1,0-1.4c0.7-0.4,1.7-0.4,2.4,0
						C324.6,40.1,324.6,40.8,324,41.1z"/>
				</g>
			</g>
			<g>
				<g>
					<path class="st2" d="M291.3,3.4c-0.7,0.4-1.7,0.4-2.4,0c-0.7-0.4-0.7-1,0-1.4c0.7-0.4,1.7-0.4,2.4,0C292,2.4,292,3.1,291.3,3.4
						z"/>
				</g>
				<g>
					<path class="st2" d="M307.7,12.9c-0.7,0.4-1.7,0.4-2.4,0c-0.7-0.4-0.7-1,0-1.4c0.7-0.4,1.7-0.4,2.4,0
						C308.3,11.9,308.3,12.5,307.7,12.9z"/>
				</g>
				<g>
					<path class="st2" d="M324,22.3c-0.7,0.4-1.7,0.4-2.4,0c-0.7-0.4-0.7-1,0-1.4c0.7-0.4,1.7-0.4,2.4,0
						C324.6,21.3,324.6,21.9,324,22.3z"/>
				</g>
				<g>
					<path class="st2" d="M340.3,31.7c-0.7,0.4-1.7,0.4-2.4,0c-0.7-0.4-0.7-1,0-1.4c0.7-0.4,1.7-0.4,2.4,0
						C341,30.7,341,31.3,340.3,31.7z"/>
				</g>
			</g>
			<g>
				<g>
					<path class="st2" d="M324,3.4c-0.7,0.4-1.7,0.4-2.4,0c-0.7-0.4-0.7-1,0-1.4c0.7-0.4,1.7-0.4,2.4,0C324.6,2.4,324.6,3.1,324,3.4
						z"/>
				</g>
				<g>
					<path class="st2" d="M340.3,12.9c-0.7,0.4-1.7,0.4-2.4,0c-0.7-0.4-0.7-1,0-1.4c0.7-0.4,1.7-0.4,2.4,0
						C341,11.9,341,12.5,340.3,12.9z"/>
				</g>
				<g>
					<path class="st2" d="M356.6,22.3c-0.7,0.4-1.7,0.4-2.4,0c-0.7-0.4-0.7-1,0-1.4c0.7-0.4,1.7-0.4,2.4,0
						C357.3,21.3,357.3,21.9,356.6,22.3z"/>
				</g>
			</g>
		</g>
		<g class="st0">
			<g>
				<g>
					<path class="st2" d="M98.9,199.3c0.7,0.4,0.7,1,0,1.4c-0.7,0.4-1.7,0.4-2.4,0c-0.7-0.4-0.7-1,0-1.4
						C97.1,198.9,98.2,198.9,98.9,199.3z"/>
				</g>
				<g>
					<path class="st2" d="M115.2,189.9c0.7,0.4,0.7,1,0,1.4c-0.7,0.4-1.7,0.4-2.4,0c-0.7-0.4-0.7-1,0-1.4
						C113.5,189.5,114.5,189.5,115.2,189.9z"/>
				</g>
				<g>
					<path class="st2" d="M131.5,180.5c0.7,0.4,0.7,1,0,1.4c-0.7,0.4-1.7,0.4-2.4,0c-0.7-0.4-0.7-1,0-1.4
						C129.8,180.1,130.8,180.1,131.5,180.5z"/>
				</g>
			</g>
			<g>
				<g>
					<path class="st2" d="M98.9,200.7c-0.7,0.4-1.7,0.4-2.4,0c-0.7-0.4-0.7-1,0-1.4c0.7-0.4,1.7-0.4,2.4,0
						C99.5,199.7,99.5,200.3,98.9,200.7z"/>
				</g>
				<g>
					<path class="st2" d="M115.2,210.1c-0.7,0.4-1.7,0.4-2.4,0c-0.7-0.4-0.7-1,0-1.4c0.7-0.4,1.7-0.4,2.4,0
						C115.8,209.1,115.8,209.7,115.2,210.1z"/>
				</g>
				<g>
					<path class="st2" d="M131.5,219.5c-0.7,0.4-1.7,0.4-2.4,0c-0.7-0.4-0.7-1,0-1.4c0.7-0.4,1.7-0.4,2.4,0
						C132.2,218.5,132.2,219.2,131.5,219.5z"/>
				</g>
			</g>
			<g>
				<g>
					<path class="st2" d="M115.2,191.3c-0.7,0.4-1.7,0.4-2.4,0c-0.7-0.4-0.7-1,0-1.4c0.7-0.4,1.7-0.4,2.4,0
						C115.8,190.3,115.8,190.9,115.2,191.3z"/>
				</g>
				<g>
					<path class="st2" d="M131.5,200.7c-0.7,0.4-1.7,0.4-2.4,0c-0.7-0.4-0.7-1,0-1.4c0.7-0.4,1.7-0.4,2.4,0
						C132.2,199.7,132.2,200.3,131.5,200.7z"/>
				</g>
				<g>
					<path class="st2" d="M147.8,210.1c-0.7,0.4-1.7,0.4-2.4,0c-0.7-0.4-0.7-1,0-1.4c0.7-0.4,1.7-0.4,2.4,0
						C148.5,209.1,148.5,209.7,147.8,210.1z"/>
				</g>
			</g>
			<g>
				<g>
					<path class="st2" d="M131.5,181.8c-0.7,0.4-1.7,0.4-2.4,0c-0.7-0.4-0.7-1,0-1.4c0.7-0.4,1.7-0.4,2.4,0
						C132.2,180.8,132.2,181.5,131.5,181.8z"/>
				</g>
				<g>
					<path class="st2" d="M147.8,191.3c-0.7,0.4-1.7,0.4-2.4,0c-0.7-0.4-0.7-1,0-1.4c0.7-0.4,1.7-0.4,2.4,0
						C148.5,190.3,148.5,190.9,147.8,191.3z"/>
				</g>
				<g>
					<path class="st2" d="M164.1,200.7c-0.7,0.4-1.7,0.4-2.4,0c-0.7-0.4-0.7-1,0-1.4c0.7-0.4,1.7-0.4,2.4,0
						C164.8,199.7,164.8,200.3,164.1,200.7z"/>
				</g>
			</g>
		</g>
		<g class="st0">
			<g>
				<g>
					<path class="st2" d="M325.7,335.1c0.7,0.4,0.7,1,0,1.4c-0.7,0.4-1.7,0.4-2.4,0c-0.7-0.4-0.7-1,0-1.4
						C323.9,334.8,325,334.8,325.7,335.1z"/>
				</g>
				<g>
					<path class="st2" d="M342,325.7c0.7,0.4,0.7,1,0,1.4c-0.7,0.4-1.7,0.4-2.4,0c-0.7-0.4-0.7-1,0-1.4
						C340.3,325.3,341.3,325.3,342,325.7z"/>
				</g>
				<g>
					<path class="st2" d="M358.3,316.3c0.7,0.4,0.7,1,0,1.4c-0.7,0.4-1.7,0.4-2.4,0c-0.7-0.4-0.7-1,0-1.4
						C356.6,315.9,357.7,315.9,358.3,316.3z"/>
				</g>
			</g>
			<g>
				<g>
					<path class="st2" d="M325.7,336.5c-0.7,0.4-1.7,0.4-2.4,0c-0.7-0.4-0.7-1,0-1.4c0.7-0.4,1.7-0.4,2.4,0
						C326.3,335.5,326.3,336.1,325.7,336.5z"/>
				</g>
				<g>
					<path class="st2" d="M342,345.9c-0.7,0.4-1.7,0.4-2.4,0c-0.7-0.4-0.7-1,0-1.4c0.7-0.4,1.7-0.4,2.4,0
						C342.6,344.9,342.6,345.5,342,345.9z"/>
				</g>
				<g>
					<path class="st2" d="M358.3,355.4c-0.7,0.4-1.7,0.4-2.4,0c-0.7-0.4-0.7-1,0-1.4c0.7-0.4,1.7-0.4,2.4,0
						C359,354.4,359,355,358.3,355.4z"/>
				</g>
			</g>
			<g>
				<g>
					<path class="st2" d="M342,327.1c-0.7,0.4-1.7,0.4-2.4,0c-0.7-0.4-0.7-1,0-1.4c0.7-0.4,1.7-0.4,2.4,0
						C342.6,326.1,342.6,326.7,342,327.1z"/>
				</g>
				<g>
					<path class="st2" d="M358.3,336.5c-0.7,0.4-1.7,0.4-2.4,0c-0.7-0.4-0.7-1,0-1.4c0.7-0.4,1.7-0.4,2.4,0
						C359,335.5,359,336.1,358.3,336.5z"/>
				</g>
				<g>
					<path class="st2" d="M374.6,345.9c-0.7,0.4-1.7,0.4-2.4,0c-0.7-0.4-0.7-1,0-1.4c0.7-0.4,1.7-0.4,2.4,0
						C375.3,344.9,375.3,345.5,374.6,345.9z"/>
				</g>
			</g>
			<g>
				<g>
					<path class="st2" d="M358.3,317.7c-0.7,0.4-1.7,0.4-2.4,0c-0.7-0.4-0.7-1,0-1.4c0.7-0.4,1.7-0.4,2.4,0
						C359,316.7,359,317.3,358.3,317.7z"/>
				</g>
				<g>
					<path class="st2" d="M374.6,327.1c-0.7,0.4-1.7,0.4-2.4,0c-0.7-0.4-0.7-1,0-1.4c0.7-0.4,1.7-0.4,2.4,0
						C375.3,326.1,375.3,326.7,374.6,327.1z"/>
				</g>
				<g>
					<path class="st2" d="M391,336.5c-0.7,0.4-1.7,0.4-2.4,0c-0.7-0.4-0.7-1,0-1.4c0.7-0.4,1.7-0.4,2.4,0
						C391.6,335.5,391.6,336.1,391,336.5z"/>
				</g>
			</g>
		</g>
	</g>
	<g>
		<defs>
			<rect id="SVGID_54_" width="400" height="400"/>
		</defs>
		<clipPath id="SVGID_2_">
			<use xlink:href="#SVGID_54_"  style="overflow:visible;"/>
		</clipPath>
		<g class="st4">
			<g>
				<g>
					
						<ellipse transform="matrix(7.200954e-03 -1 1 7.200954e-03 316.9679 469.75)" class="st5" cx="395.1" cy="75.2" rx="25.3" ry="43.9"/>
				</g>
				<g>
					<rect x="351.2" y="63" class="st5" width="87.7" height="11.8"/>
				</g>
			</g>
			<g>
				<defs>
					<path id="SVGID_70_" d="M438.9,63h-5.7c-1.9-1.9-4.2-3.7-7-5.4c-17.1-10-44.8-10.2-62-0.4c-3.1,1.8-5.7,3.7-7.6,5.8h-5.3v11.8
						c-0.1,6.5,4.1,13.1,12.7,18.2c17.1,10,44.8,10.2,62,0.4c8.9-5.1,13.3-11.9,13-18.6h0V63z"/>
				</defs>
				<clipPath id="SVGID_3_">
					<use xlink:href="#SVGID_70_"  style="overflow:visible;"/>
				</clipPath>
				<g class="st6">
					<g>
						<rect x="351.2" y="59.9" class="st2" width="2.1" height="51.5"/>
					</g>
					<g>
						<rect x="355.5" y="59.9" class="st2" width="2.1" height="51.5"/>
					</g>
					<g>
						<rect x="359.7" y="59.9" class="st2" width="2.1" height="51.5"/>
					</g>
					<g>
						<rect x="364" y="59.9" class="st2" width="2.1" height="51.5"/>
					</g>
					<g>
						<rect x="368.3" y="59.9" class="st2" width="2.1" height="51.5"/>
					</g>
					<g>
						<rect x="372.6" y="59.9" class="st2" width="2.1" height="51.5"/>
					</g>
					<g>
						<rect x="376.9" y="59.9" class="st2" width="2.1" height="51.5"/>
					</g>
					<g>
						<rect x="381.2" y="59.9" class="st2" width="2.1" height="51.5"/>
					</g>
					<g>
						<rect x="385.4" y="59.9" class="st2" width="2.1" height="51.5"/>
					</g>
					<g>
						<rect x="389.7" y="59.9" class="st2" width="2.1" height="51.5"/>
					</g>
					<g>
						<rect x="394" y="59.9" class="st2" width="2.1" height="51.5"/>
					</g>
					<g>
						<rect x="398.3" y="59.9" class="st2" width="2.1" height="51.5"/>
					</g>
				</g>
			</g>
			<g>
				<ellipse class="st7" cx="395.1" cy="63" rx="43.9" ry="25.3"/>
			</g>
		</g>
		<g class="st4">
			<g>
				<g>
					
						<ellipse transform="matrix(7.200954e-03 -1 1 7.200954e-03 -80.1517 69.7604)" class="st5" cx="-4.9" cy="75.2" rx="25.3" ry="43.9"/>
				</g>
				<g>
					<rect x="-48.8" y="63" class="st5" width="87.7" height="11.8"/>
				</g>
			</g>
			<g>
				<defs>
					<path id="SVGID_68_" d="M38.9,63h-5.7c-1.9-1.9-4.2-3.7-7-5.4c-17.1-10-44.8-10.2-62-0.4c-3.1,1.8-5.7,3.7-7.6,5.8h-5.3v11.8
						c-0.1,6.5,4.1,13.1,12.7,18.2c17.1,10,44.8,10.2,62,0.4c8.9-5.1,13.3-11.9,13-18.6h0V63z"/>
				</defs>
				<clipPath id="SVGID_4_">
					<use xlink:href="#SVGID_68_"  style="overflow:visible;"/>
				</clipPath>
				<g class="st8">
					<g>
						<rect x="-1.7" y="59.9" class="st2" width="2.1" height="51.5"/>
					</g>
					<g>
						<rect x="2.6" y="59.9" class="st2" width="2.1" height="51.5"/>
					</g>
					<g>
						<rect x="6.9" y="59.9" class="st2" width="2.1" height="51.5"/>
					</g>
					<g>
						<rect x="11.1" y="59.9" class="st2" width="2.1" height="51.5"/>
					</g>
					<g>
						<rect x="15.4" y="59.9" class="st2" width="2.1" height="51.5"/>
					</g>
					<g>
						<rect x="19.7" y="59.9" class="st2" width="2.1" height="51.5"/>
					</g>
					<g>
						<rect x="24" y="59.9" class="st2" width="2.1" height="51.5"/>
					</g>
					<g>
						<rect x="28.3" y="59.9" class="st2" width="2.1" height="51.5"/>
					</g>
					<g>
						<rect x="32.5" y="59.9" class="st2" width="2.1" height="51.5"/>
					</g>
					<g>
						<rect x="36.8" y="59.9" class="st2" width="2.1" height="51.5"/>
					</g>
				</g>
			</g>
			<g>
				<ellipse class="st7" cx="-4.9" cy="63" rx="43.9" ry="25.3"/>
			</g>
		</g>
		<g class="st4">
			<g>
				<g>
					
						<ellipse transform="matrix(7.203076e-03 -1 1 7.203076e-03 -167.9877 345.0052)" class="st5" cx="89.8" cy="257.1" rx="17.6" ry="30.4"/>
				</g>
				<g>
					<rect x="59.4" y="248.6" class="st5" width="60.8" height="8.2"/>
				</g>
			</g>
			<g>
				<defs>
					<path id="SVGID_66_" d="M120.2,248.6h-3.9c-1.3-1.3-2.9-2.6-4.9-3.7c-11.8-6.9-31.1-7.1-43-0.3c-2.2,1.2-3.9,2.6-5.3,4h-3.7
						v8.2c-0.1,4.5,2.8,9.1,8.8,12.6c11.8,6.9,31.1,7.1,43,0.3c6.2-3.5,9.2-8.2,9-12.9h0V248.6z"/>
				</defs>
				<clipPath id="SVGID_5_">
					<use xlink:href="#SVGID_66_"  style="overflow:visible;"/>
				</clipPath>
				<g class="st9">
					<g>
						<rect x="59.4" y="246.4" class="st2" width="1.5" height="35.7"/>
					</g>
					<g>
						<rect x="62.3" y="246.4" class="st2" width="1.5" height="35.7"/>
					</g>
					<g>
						<rect x="65.3" y="246.4" class="st2" width="1.5" height="35.7"/>
					</g>
					<g>
						<rect x="68.3" y="246.4" class="st2" width="1.5" height="35.7"/>
					</g>
					<g>
						<rect x="71.2" y="246.4" class="st2" width="1.5" height="35.7"/>
					</g>
					<g>
						<rect x="74.2" y="246.4" class="st2" width="1.5" height="35.7"/>
					</g>
					<g>
						<rect x="77.2" y="246.4" class="st2" width="1.5" height="35.7"/>
					</g>
					<g>
						<rect x="80.1" y="246.4" class="st2" width="1.5" height="35.7"/>
					</g>
					<g>
						<rect x="83.1" y="246.4" class="st2" width="1.5" height="35.7"/>
					</g>
					<g>
						<rect x="86.1" y="246.4" class="st2" width="1.5" height="35.7"/>
					</g>
					<g>
						<rect x="89" y="246.4" class="st2" width="1.5" height="35.7"/>
					</g>
					<g>
						<rect x="92" y="246.4" class="st2" width="1.5" height="35.7"/>
					</g>
					<g>
						<rect x="95" y="246.4" class="st2" width="1.5" height="35.7"/>
					</g>
					<g>
						<rect x="97.9" y="246.4" class="st2" width="1.5" height="35.7"/>
					</g>
					<g>
						<rect x="100.9" y="246.4" class="st2" width="1.5" height="35.7"/>
					</g>
					<g>
						<rect x="103.9" y="246.4" class="st2" width="1.5" height="35.7"/>
					</g>
					<g>
						<rect x="106.8" y="246.4" class="st2" width="1.5" height="35.7"/>
					</g>
					<g>
						<rect x="109.8" y="246.4" class="st2" width="1.5" height="35.7"/>
					</g>
					<g>
						<rect x="112.8" y="246.4" class="st2" width="1.5" height="35.7"/>
					</g>
					<g>
						<rect x="115.7" y="246.4" class="st2" width="1.5" height="35.7"/>
					</g>
					<g>
						<rect x="118.7" y="246.4" class="st2" width="1.5" height="35.7"/>
					</g>
				</g>
			</g>
			<g>
				<ellipse class="st7" cx="89.8" cy="248.6" rx="30.4" ry="17.6"/>
			</g>
		</g>
		<g class="st4">
			<g>
				<path class="st10" d="M91.7,154.7c6.2,3.6,6.2,9.4,0,13c-6.2,3.6-16.3,3.6-22.5,0c-6.2-3.6-6.2-9.4,0-13
					C75.4,151.2,85.5,151.2,91.7,154.7z"/>
			</g>
			<g>
				<rect x="64.6" y="105.9" class="st10" width="31.8" height="55.7"/>
			</g>
			<g>
				<path class="st2" d="M91.7,99.9c6.2,3.6,6.2,9.4,0,13c-6.2,3.6-16.3,3.6-22.5,0c-6.2-3.6-6.2-9.4,0-13
					C75.4,96.4,85.5,96.4,91.7,99.9z"/>
			</g>
		</g>
		<g class="st4">
			<g>
				<path class="st10" d="M258.2,295.4c6.2,3.6,6.2,9.4,0,13c-6.2,3.6-16.3,3.6-22.5,0c-6.2-3.6-6.2-9.4,0-13
					C241.9,291.8,252,291.8,258.2,295.4z"/>
			</g>
			<g>
				<rect x="231.1" y="246.6" class="st10" width="31.8" height="55.7"/>
			</g>
			<g>
				<path class="st2" d="M258.2,240.6c6.2,3.6,6.2,9.4,0,13c-6.2,3.6-16.3,3.6-22.5,0c-6.2-3.6-6.2-9.4,0-13
					C241.9,237,252,237,258.2,240.6z"/>
			</g>
		</g>
		<g class="st4">
			<g>
				<ellipse class="st5" cx="232.6" cy="0.7" rx="29.9" ry="17.3"/>
			</g>
			<g>
				<rect x="202.7" y="-7.7" class="st5" width="59.9" height="8.1"/>
			</g>
			<g>
				<ellipse class="st7" cx="232.6" cy="-7.7" rx="29.9" ry="17.3"/>
			</g>
		</g>
		<g class="st4">
			<g>
				<polygon class="st11" points="143.7,55.2 122.2,67.6 95,58.3 				"/>
			</g>
			<g>
				<polygon class="st2" points="95,58.3 95,68.4 122.2,77.7 122.2,67.6 				"/>
			</g>
			<g>
				<polygon class="st7" points="122.2,67.6 122.2,77.7 143.7,65.3 143.7,55.2 				"/>
			</g>
		</g>
		<g class="st4">
			<g>
				<polygon class="st11" points="348.3,174.2 326.7,186.6 299.6,177.3 				"/>
			</g>
			<g>
				<polygon class="st2" points="299.6,177.3 299.6,187.4 326.7,196.7 326.7,186.6 				"/>
			</g>
			<g>
				<polygon class="st12" points="326.7,186.6 326.7,196.7 348.3,184.2 348.3,174.2 				"/>
			</g>
		</g>
		<g class="st4">
			<g>
				<polygon class="st11" points="24.4,326.5 2.8,338.9 -24.3,329.6 				"/>
			</g>
			<g>
				<polygon class="st2" points="-24.3,329.6 -24.3,339.7 2.8,349 2.8,338.9 				"/>
			</g>
			<g>
				<polygon class="st7" points="2.8,338.9 2.8,349 24.4,336.5 24.4,326.5 				"/>
			</g>
		</g>
		<g class="st4">
			<g>
				<polygon class="st2" points="240.2,68.6 228.1,61.6 228.6,58.6 232.7,57.4 240.2,57.4 244.2,60.8 				"/>
			</g>
			<g>
				<polygon class="st2" points="232,35.8 246.1,44 233.2,48.8 222,41.3 				"/>
			</g>
			<g>
				<g>
					<path class="st2" d="M187.7,81.7l13.6-7.8c0-7.7,5.4-17.1,12.1-20.9c6.7-3.9,12.1-0.7,12.1,7l13.6-7.8
						c0-16.4-11.5-23-25.7-14.8C199.2,45.4,187.7,65.3,187.7,81.7z"/>
				</g>
			</g>
			<g>
				<polygon class="st2" points="187.7,81.7 202.5,90.3 214.8,81.7 210.5,72.1 224.6,54.6 220.9,47.2 217.1,47.2 205.5,53 
					200.7,63.2 197.8,68 192.1,78.1 				"/>
			</g>
			<g>
				<g>
					<path class="st10" d="M202.5,90.3l13.6-7.8c0-7.7,5.4-17.1,12.1-20.9c6.7-3.9,12.1-0.7,12.1,7l13.6-7.8
						c0-16.4-11.5-23-25.7-14.8C214,54.1,202.5,74,202.5,90.3z"/>
				</g>
			</g>
		</g>
		<g class="st4">
			<g>
				<polygon class="st2" points="34.5,278.5 22.4,271.6 22.9,268.6 27,267.4 34.5,267.4 38.5,270.8 				"/>
			</g>
			<g>
				<polygon class="st2" points="26.3,245.8 40.4,254 27.5,258.7 16.3,251.2 				"/>
			</g>
			<g>
				<g>
					<path class="st2" d="M-18,291.7l13.6-7.8c0-7.7,5.4-17.1,12.1-20.9c6.7-3.9,12.1-0.7,12.1,7l13.6-7.8c0-16.4-11.5-23-25.7-14.8
						C-6.5,255.4-18,275.3-18,291.7z"/>
				</g>
			</g>
			<g>
				<polygon class="st2" points="-18,291.6 -3.2,300.3 9.1,291.6 4.8,282.1 18.9,264.6 15.2,257.1 11.4,257.1 -0.2,263 -5,273.2 
					-7.9,278 -13.6,288.1 				"/>
			</g>
			<g>
				<g>
					<path class="st10" d="M-3.2,300.3l13.6-7.8c0-7.7,5.4-17.1,12.1-20.9c6.7-3.9,12.1-0.7,12.1,7l13.6-7.8
						c0-16.4-11.5-23-25.7-14.8C8.3,264.1-3.2,284-3.2,300.3z"/>
				</g>
			</g>
		</g>
		<g class="st4">
			<g>
				<g>
					<polygon class="st12" points="265.1,164.2 243.7,151.9 185.7,185.4 207.2,197.8 					"/>
				</g>
				<g>
					<polygon class="st2" points="185.7,210.2 207.2,222.6 207.2,197.8 185.7,185.4 					"/>
				</g>
				<g>
					<polygon class="st10" points="265.1,164.2 207.2,197.8 207.2,222.6 265.1,189 					"/>
				</g>
			</g>
			<g>
				<g>
					<defs>
						<path id="SVGID_64_" d="M203.7,208.9c0,4.6-3.3,6.5-7.3,4.2c-4-2.3-7.3-8-7.3-12.6c0-4.6,3.3-6.5,7.3-4.2
							C200.5,198.6,203.7,204.3,203.7,208.9z"/>
					</defs>
					<clipPath id="SVGID_6_">
						<use xlink:href="#SVGID_64_"  style="overflow:visible;"/>
					</clipPath>
					<polygon class="st13" points="199.7,215.4 203.7,211.4 203.7,215.4 					"/>
					<polygon class="st13" points="198.3,215.4 203.7,210 203.7,211.4 199.7,215.4 					"/>
					<polygon class="st14" points="196.9,215.4 203.7,208.6 203.7,210 198.3,215.4 					"/>
					<polygon class="st15" points="195.5,215.4 203.7,207.3 203.7,208.6 196.9,215.4 					"/>
					<polygon class="st16" points="195.2,215.4 194.7,214.9 203.7,205.9 203.7,207.3 195.5,215.4 					"/>
					<polygon class="st17" points="194.7,214.9 194,214.2 203.7,204.5 203.7,205.9 					"/>
					<polygon class="st18" points="194,214.2 193.3,213.6 203.7,203.1 203.7,204.5 					"/>
					<polygon class="st19" points="193.3,213.6 192.6,212.9 203.7,201.8 203.7,203.1 					"/>
					<polygon class="st20" points="192.6,212.9 191.9,212.2 203.7,200.4 203.7,201.8 					"/>
					<polygon class="st21" points="191.9,212.2 191.2,211.5 203.2,199.5 203.7,200 203.7,200.4 					"/>
					
						<rect x="188.4" y="204.7" transform="matrix(0.7071 -0.7071 0.7071 0.7071 -87.4034 199.3062)" class="st22" width="17" height="1"/>
					
						<rect x="187.7" y="204" transform="matrix(0.7071 -0.7071 0.7071 0.7071 -87.1188 198.6193)" class="st23" width="17" height="1"/>
					
						<rect x="187" y="203.3" transform="matrix(0.7071 -0.7071 0.7071 0.7071 -86.8343 197.9324)" class="st24" width="17" height="1"/>
					<polygon class="st25" points="189.2,209.4 189.1,209.4 189.1,208.1 200.5,196.8 201.2,197.4 					"/>
					<polygon class="st26" points="189.1,206.7 199.8,196.1 200.5,196.8 189.1,208.1 					"/>
					<polygon class="st27" points="189.1,205.3 199.1,195.4 199.8,196.1 189.1,206.7 					"/>
					<polygon class="st28" points="189.1,204 198.4,194.7 199.1,195.4 189.1,205.3 					"/>
					<polygon class="st29" points="189.1,202.6 197.7,194 198.4,194.7 189.1,204 					"/>
					<polygon class="st30" points="189.1,201.2 196.4,194 197.7,194 197.7,194 189.1,202.6 					"/>
					<polygon class="st31" points="189.1,199.8 195,194 196.4,194 189.1,201.2 					"/>
					<polygon class="st32" points="189.1,198.5 193.6,194 195,194 189.1,199.8 					"/>
					<polygon class="st33" points="189.1,197.1 192.3,194 193.6,194 189.1,198.5 					"/>
					<polygon class="st34" points="189.1,195.7 190.9,194 192.3,194 189.1,197.1 					"/>
					<polygon class="st35" points="189.1,194.3 189.5,194 190.9,194 189.1,195.7 					"/>
					<polygon class="st35" points="189.5,194 189.1,194.3 189.1,194 					"/>
				</g>
			</g>
		</g>
		<g class="st4">
			<g>
				<g>
					<polygon class="st12" points="117.8,320.3 100.2,310.1 52.4,337.7 70.1,347.9 					"/>
				</g>
				<g>
					<polygon class="st2" points="52.4,358.1 70.1,368.3 70.1,347.9 52.4,337.7 					"/>
				</g>
				<g>
					<polygon class="st10" points="117.8,320.3 70.1,347.9 70.1,368.3 117.8,340.7 					"/>
				</g>
			</g>
			<g>
				<g>
					<defs>
						<path id="SVGID_63_" d="M67.2,357.1c0,3.8-2.7,5.4-6,3.5c-3.3-1.9-6-6.6-6-10.4c0-3.8,2.7-5.4,6-3.5
							C64.6,348.6,67.2,353.3,67.2,357.1z"/>
					</defs>
					<clipPath id="SVGID_7_">
						<use xlink:href="#SVGID_63_"  style="overflow:visible;"/>
					</clipPath>
					<polygon class="st36" points="63.9,362.5 67.2,359.1 67.2,362.5 					"/>
					<polygon class="st36" points="62.8,362.5 67.2,358 67.2,359.1 63.9,362.5 					"/>
					<polygon class="st37" points="61.6,362.5 67.2,356.9 67.2,358 62.8,362.5 					"/>
					<polygon class="st38" points="60.5,362.5 67.2,355.7 67.2,356.9 61.6,362.5 					"/>
					<polygon class="st39" points="59.9,362.5 59.6,362.2 67.2,354.6 67.2,355.7 60.5,362.5 					"/>
					<polygon class="st40" points="59.6,362.2 59,361.7 67.2,353.5 67.2,354.6 					"/>
					<polygon class="st41" points="59,361.7 58.5,361.1 67.2,352.3 67.2,353.5 					"/>
					<polygon class="st42" points="58.5,361.1 57.9,360.5 67.2,351.2 67.2,352.3 					"/>
					<polygon class="st43" points="57.9,360.5 57.4,360 67.2,350.1 67.2,351.2 					"/>
					<polygon class="st44" points="57.4,360 56.8,359.4 67,349.2 67.2,349.4 67.2,350.1 					"/>
					
						<rect x="54.4" y="353.6" transform="matrix(0.7071 -0.7071 0.7071 0.7071 -232.2812 147.2534)" class="st45" width="14.4" height="0.8"/>
					
						<rect x="53.8" y="353" transform="matrix(0.7071 -0.7071 0.7071 0.7071 -232.0468 146.6876)" class="st46" width="14.4" height="0.8"/>
					<polygon class="st47" points="55.7,358.3 55.2,357.9 55.2,357.6 65.3,347.5 65.9,348.1 					"/>
					<polygon class="st48" points="55.2,356.4 64.7,346.9 65.3,347.5 55.2,357.6 					"/>
					<polygon class="st49" points="55.2,355.3 64.2,346.4 64.7,346.9 55.2,356.4 					"/>
					<polygon class="st50" points="55.2,354.2 63.6,345.8 64.2,346.4 55.2,355.3 					"/>
					<polygon class="st51" points="55.2,353 63,345.2 63.6,345.8 55.2,354.2 					"/>
					<polygon class="st52" points="55.2,351.9 62.3,344.8 62.6,344.8 63,345.2 55.2,353 					"/>
					<polygon class="st53" points="55.2,350.8 61.2,344.8 62.3,344.8 55.2,351.9 					"/>
					<polygon class="st54" points="55.2,349.6 60.1,344.8 61.2,344.8 55.2,350.8 					"/>
					<polygon class="st55" points="55.2,348.5 58.9,344.8 60.1,344.8 55.2,349.6 					"/>
					<polygon class="st56" points="55.2,347.4 57.8,344.8 58.9,344.8 55.2,348.5 					"/>
					<polygon class="st57" points="55.2,346.2 56.7,344.8 57.8,344.8 55.2,347.4 					"/>
					<polygon class="st58" points="55.2,345.1 55.5,344.8 56.7,344.8 55.2,346.2 					"/>
					<polygon class="st58" points="55.5,344.8 55.2,345.1 55.2,344.8 					"/>
				</g>
			</g>
		</g>
		<g class="st4">
			<g>
				<g>
					<polygon class="st12" points="303.1,-21.2 320.7,-31.4 368.5,-3.8 350.8,6.4 					"/>
				</g>
				<g>
					<polygon class="st2" points="368.5,16.7 350.8,26.9 350.8,6.5 368.5,-3.7 					"/>
				</g>
				<g>
					<polygon class="st10" points="303.1,-21.2 350.8,6.5 350.8,26.9 303.1,-0.8 					"/>
				</g>
			</g>
			<g>
				<g>
					<defs>
						<path id="SVGID_61_" d="M353.7,15.6c0,3.8,2.7,5.4,6,3.5c3.3-1.9,6-6.6,6-10.4c0-3.8-2.7-5.4-6-3.5
							C356.3,7.1,353.7,11.8,353.7,15.6z"/>
					</defs>
					<clipPath id="SVGID_8_">
						<use xlink:href="#SVGID_61_"  style="overflow:visible;"/>
					</clipPath>
					<polygon class="st59" points="353.7,17.6 357,21 353.7,21 					"/>
					<polygon class="st59" points="353.7,16.5 358.1,21 357,21 353.7,17.6 					"/>
					<polygon class="st60" points="353.7,15.4 359.3,21 358.1,21 353.7,16.5 					"/>
					<polygon class="st61" points="353.7,14.2 360.4,21 359.3,21 353.7,15.4 					"/>
					<polygon class="st62" points="353.7,13.1 361.3,20.7 361,21 360.4,21 353.7,14.2 					"/>
					<polygon class="st63" points="353.7,12 361.8,20.2 361.3,20.7 353.7,13.1 					"/>
					<polygon class="st64" points="353.7,10.9 362.4,19.6 361.8,20.2 353.7,12 					"/>
					<polygon class="st65" points="353.7,9.7 363,19 362.4,19.6 353.7,10.9 					"/>
					<polygon class="st66" points="353.7,8.6 363.5,18.5 363,19 353.7,9.7 					"/>
					<polygon class="st67" points="353.7,7.9 353.9,7.7 364.1,17.9 363.5,18.5 353.7,8.6 					"/>
					
						<rect x="358.9" y="5.3" transform="matrix(0.7071 -0.7071 0.7071 0.7071 96.3765 257.7158)" class="st68" width="0.8" height="14.4"/>
					
						<rect x="359.4" y="4.7" transform="matrix(0.707 -0.7072 0.7072 0.707 96.9641 257.9734)" class="st69" width="0.8" height="14.4"/>
					<polygon class="st70" points="355,6.6 355.6,6 365.7,16.1 365.7,16.4 365.2,16.8 					"/>
					<polygon class="st71" points="355.6,6 356.2,5.4 365.7,14.9 365.7,16.1 					"/>
					<polygon class="st72" points="356.2,5.4 356.7,4.9 365.7,13.8 365.7,14.9 					"/>
					<polygon class="st73" points="356.7,4.9 357.3,4.3 365.7,12.7 365.7,13.8 					"/>
					<polygon class="st74" points="357.3,4.3 357.8,3.7 365.7,11.5 365.7,12.7 					"/>
					<polygon class="st75" points="357.8,3.7 358.3,3.3 358.6,3.3 365.7,10.4 365.7,11.5 					"/>
					<polygon class="st76" points="359.7,3.3 365.7,9.3 365.7,10.4 358.6,3.3 					"/>
					<polygon class="st77" points="360.8,3.3 365.7,8.1 365.7,9.3 359.7,3.3 					"/>
					<polygon class="st78" points="361.9,3.3 365.7,7 365.7,8.1 360.8,3.3 					"/>
					<polygon class="st79" points="363.1,3.3 365.7,5.9 365.7,7 361.9,3.3 					"/>
					<polygon class="st80" points="364.2,3.3 365.7,4.7 365.7,5.9 363.1,3.3 					"/>
					<polygon class="st81" points="365.3,3.3 365.7,3.6 365.7,4.7 364.2,3.3 					"/>
					<polygon class="st81" points="365.7,3.6 365.3,3.3 365.7,3.3 					"/>
				</g>
			</g>
		</g>
		<g class="st4">
			<g>
				<path class="st2" d="M184.6,252.8l-11,16.1l-8.5-4.9v-22.5c5.5-3.2,10.4-3.4,14-1.2l0.1,0c1.3,0.8,2.4,2,3.3,3.5
					c0.3,0.5,0.6,1,0.8,1.6C184.1,247.5,184.6,249.9,184.6,252.8z"/>
			</g>
			<g>
				<path class="st82" d="M187.2,245l-3.9,0.4l-9.7,1l-8.5-4.9c5.5-3.2,10.4-3.4,14-1.2L187.2,245C187.2,245,187.2,245,187.2,245z"
					/>
			</g>
			<g>
				<path class="st12" d="M193.1,257.7l-19.5,11.2l0-22.5C184.4,240.3,193.1,245.3,193.1,257.7z"/>
			</g>
		</g>
		<g class="st4">
			<g>
				<polygon class="st83" points="71.3,246.7 67.5,244.5 67.5,240.1 71.3,242.3 				"/>
			</g>
			<g>
				<polygon class="st84" points="136,209.3 71.3,246.7 71.3,242.3 136,204.9 				"/>
			</g>
			<g>
				<polygon class="st2" points="136,204.9 71.3,242.3 67.5,240.1 132.2,202.7 				"/>
			</g>
		</g>
		<g class="st4">
			<g>
				<polygon class="st83" points="337.1,261.9 340.9,259.7 340.9,255.3 337.1,257.5 				"/>
			</g>
			<g>
				<polygon class="st84" points="272.4,224.5 337.1,261.9 337.1,257.5 272.4,220.1 				"/>
			</g>
			<g>
				<polygon class="st2" points="272.4,220.1 337.1,257.5 340.9,255.3 276.2,217.9 				"/>
			</g>
		</g>
		<g class="st4">
			<g>
				<polygon class="st83" points="70.8,15.2 74.6,13 74.6,8.6 70.8,10.8 				"/>
			</g>
			<g>
				<polygon class="st84" points="6.1,-22.2 70.8,15.2 70.8,10.8 6.1,-26.6 				"/>
			</g>
			<g>
				<polygon class="st2" points="6.1,-26.6 70.8,10.8 74.6,8.6 9.9,-28.8 				"/>
			</g>
		</g>
		<g class="st4">
			<g>
				<polygon class="st1" points="159.2,343.7 184.6,358.4 184.6,329 159.2,314.4 				"/>
			</g>
			<g>
				<g>
					<polygon class="st2" points="159.2,314.4 184.6,329 210,314.4 184.6,299.7 					"/>
				</g>
				<g>
					<polygon class="st85" points="210,343.7 184.6,358.4 184.6,329 210,314.4 					"/>
				</g>
				<g>
					<defs>
						<polygon id="SVGID_59_" points="159.2,343.7 184.6,358.4 184.6,329 159.2,314.4 						"/>
					</defs>
					<clipPath id="SVGID_9_">
						<use xlink:href="#SVGID_59_"  style="overflow:visible;"/>
					</clipPath>
					<g class="st86">
						<g>
							
								<rect x="128.5" y="329.8" transform="matrix(-1.836970e-16 1 -1 -1.836970e-16 490.7288 170.5986)" class="st83" width="63.2" height="1.8"/>
						</g>
						<g>
							
								<rect x="132.4" y="329.8" transform="matrix(-1.836970e-16 1 -1 -1.836970e-16 494.6746 166.6528)" class="st83" width="63.2" height="1.8"/>
						</g>
						<g>
							
								<rect x="136.4" y="329.8" transform="matrix(-1.836970e-16 1 -1 -1.836970e-16 498.6205 162.7068)" class="st83" width="63.2" height="1.8"/>
						</g>
						<g>
							
								<rect x="140.3" y="329.8" transform="matrix(-1.836970e-16 1 -1 -1.836970e-16 502.5663 158.761)" class="st83" width="63.2" height="1.8"/>
						</g>
						<g>
							
								<rect x="144.3" y="329.8" transform="matrix(-1.836970e-16 1 -1 -1.836970e-16 506.5121 154.8152)" class="st83" width="63.2" height="1.8"/>
						</g>
						<g>
							
								<rect x="148.2" y="329.8" transform="matrix(-1.836970e-16 1 -1 -1.836970e-16 510.4579 150.8694)" class="st83" width="63.2" height="1.8"/>
						</g>
						<g>
							
								<rect x="152.2" y="329.8" transform="matrix(-1.836970e-16 1 -1 -1.836970e-16 514.4037 146.9236)" class="st83" width="63.2" height="1.8"/>
						</g>
						<g>
							
								<rect x="156.1" y="329.8" transform="matrix(-1.836970e-16 1 -1 -1.836970e-16 518.3496 142.9777)" class="st83" width="63.2" height="1.8"/>
						</g>
						<g>
							
								<rect x="160" y="329.8" transform="matrix(-1.836970e-16 1 -1 -1.836970e-16 522.2955 139.0318)" class="st83" width="63.2" height="1.8"/>
						</g>
						<g>
							
								<rect x="164" y="329.8" transform="matrix(-1.836970e-16 1 -1 -1.836970e-16 526.2413 135.086)" class="st83" width="63.2" height="1.8"/>
						</g>
						<g>
							
								<rect x="167.9" y="329.8" transform="matrix(-1.836970e-16 1 -1 -1.836970e-16 530.1871 131.1402)" class="st83" width="63.2" height="1.8"/>
						</g>
						<g>
							
								<rect x="171.9" y="329.8" transform="matrix(-1.836970e-16 1 -1 -1.836970e-16 534.1329 127.1944)" class="st83" width="63.2" height="1.8"/>
						</g>
						<g>
							
								<rect x="175.8" y="329.8" transform="matrix(-1.836970e-16 1 -1 -1.836970e-16 538.0787 123.2486)" class="st83" width="63.2" height="1.8"/>
						</g>
					</g>
				</g>
			</g>
		</g>
		<g class="st4">
			<g>
				<g>
					<polygon class="st2" points="-25.4,185.3 0,200 25.4,185.3 0,170.6 					"/>
				</g>
				<g>
					<polygon class="st85" points="25.4,214.7 0,229.4 0,200 25.4,185.3 					"/>
				</g>
				<g>
					<defs>
						<polygon id="SVGID_57_" points="-25.4,214.7 0,229.4 0,200 -25.4,185.3 						"/>
					</defs>
					<clipPath id="SVGID_10_">
						<use xlink:href="#SVGID_57_"  style="overflow:visible;"/>
					</clipPath>
					<g class="st87">
						<g>
							
								<rect x="-32.5" y="200.7" transform="matrix(-1.836970e-16 1 -1 -1.836970e-16 200.7564 202.4915)" class="st83" width="63.2" height="1.8"/>
						</g>
						<g>
							
								<rect x="-28.5" y="200.7" transform="matrix(-1.836970e-16 1 -1 -1.836970e-16 204.7023 198.5457)" class="st83" width="63.2" height="1.8"/>
						</g>
						<g>
							
								<rect x="-24.6" y="200.7" transform="matrix(-1.836970e-16 1 -1 -1.836970e-16 208.6481 194.5999)" class="st83" width="63.2" height="1.8"/>
						</g>
						<g>
							
								<rect x="-20.6" y="200.7" transform="matrix(-1.836970e-16 1 -1 -1.836970e-16 212.5939 190.6539)" class="st83" width="63.2" height="1.8"/>
						</g>
						<g>
							
								<rect x="-16.7" y="200.7" transform="matrix(-1.836970e-16 1 -1 -1.836970e-16 216.5397 186.7081)" class="st83" width="63.2" height="1.8"/>
						</g>
						<g>
							
								<rect x="-12.7" y="200.7" transform="matrix(-1.836970e-16 1 -1 -1.836970e-16 220.4856 182.7623)" class="st83" width="63.2" height="1.8"/>
						</g>
						<g>
							
								<rect x="-8.8" y="200.7" transform="matrix(-1.836970e-16 1 -1 -1.836970e-16 224.4315 178.8165)" class="st83" width="63.2" height="1.8"/>
						</g>
					</g>
				</g>
			</g>
		</g>
		<g class="st4">
			<g>
				<g>
					<polygon class="st83" points="242.6,164 257.5,146.7 262.8,152.3 278.6,134.4 283,140.7 297.8,122.3 301.4,128 305,121.7 
						293.1,115 283,132.3 272.9,126.7 262.8,144 252.7,138.3 242.6,155.7 232.6,150 220.7,170.4 225.2,173 236.3,158.4 					"/>
				</g>
			</g>
			<g>
				<g>
					<polygon class="st2" points="247.2,166.6 257.3,149.3 267.4,154.9 277.5,137.6 287.6,143.3 297.7,126 306,130.6 309.6,124.3 
						297.7,117.7 287.6,135 277.5,129.3 267.4,146.6 257.3,141 247.2,158.3 237.1,152.6 225.2,173 228.8,175.2 237.1,160.9 					"/>
				</g>
			</g>
		</g>
		<g class="st4">
			<g>
				<g>
					<polygon class="st83" points="123.7,10.1 138.6,-7.2 143.9,-1.5 159.7,-19.5 164.1,-13.2 178.8,-31.5 182.5,-25.9 186.1,-32.2 
						174.2,-38.8 164.1,-21.5 154,-27.2 143.9,-9.9 133.8,-15.5 123.7,1.8 113.6,-3.9 101.7,16.5 106.3,19.2 117.4,4.6 					"/>
				</g>
			</g>
			<g>
				<g>
					<polygon class="st2" points="128.3,12.7 138.4,-4.6 148.5,1.1 158.6,-16.2 168.7,-10.6 178.8,-27.9 187,-23.2 190.6,-29.5 
						178.8,-36.2 168.7,-18.9 158.6,-24.5 148.5,-7.2 138.4,-12.9 128.3,4.4 118.2,-1.2 106.3,19.2 109.9,21.3 118.2,7.1 					"/>
				</g>
			</g>
		</g>
		<g class="st4">
			<g>
				<g>
					<polygon class="st83" points="31.5,102.6 16.6,85.3 11.3,91 -4.5,73 -8.9,79.3 -23.7,61 -27.3,66.7 -30.9,60.4 -19,53.7 
						-8.9,71 1.2,65.3 11.3,82.7 21.4,77 31.5,94.3 41.6,88.7 53.5,109.1 48.9,111.7 37.8,97.1 					"/>
				</g>
			</g>
			<g>
				<g>
					<polygon class="st2" points="26.9,105.3 16.8,87.9 6.7,93.6 -3.4,76.3 -13.5,81.9 -23.6,64.6 -31.9,69.3 -35.5,63 -23.6,56.3 
						-13.5,73.6 -3.4,68 6.7,85.3 16.8,79.6 26.9,96.9 37,91.3 48.9,111.7 45.3,113.8 37,99.6 					"/>
				</g>
			</g>
		</g>
		<g class="st4">
			<g>
				<polygon class="st11" points="424.4,326.5 402.8,338.9 375.7,329.6 				"/>
			</g>
			<g>
				<polygon class="st2" points="375.7,329.6 375.7,339.7 402.8,349 402.8,338.9 				"/>
			</g>
		</g>
		<g class="st4">
			<g>
				<g>
					<path class="st2" d="M382,291.7l13.6-7.8c0-7.7,5.4-17.1,12.1-20.9c6.7-3.9,12.1-0.7,12.1,7l13.6-7.8c0-16.4-11.5-23-25.7-14.8
						C393.5,255.4,382,275.3,382,291.7z"/>
				</g>
			</g>
			<g>
				<polygon class="st2" points="382,291.6 396.8,300.3 409.1,291.6 404.8,282.1 418.9,264.6 415.2,257.1 411.4,257.1 399.8,263 
					395,273.2 392.1,278 386.4,288.1 				"/>
			</g>
			<g>
				<g>
					<path class="st10" d="M396.8,300.3l13.6-7.8c0-7.7,5.4-17.1,12.1-20.9c6.7-3.9,12.1-0.7,12.1,7l13.6-7.8
						c0-16.4-11.5-23-25.7-14.8C408.3,264.1,396.8,284,396.8,300.3z"/>
				</g>
			</g>
		</g>
		<g class="st4">
			<g>
				<polygon class="st1" points="374.6,214.7 400,229.4 400,200 374.6,185.3 				"/>
			</g>
			<g>
				<g>
					<polygon class="st2" points="374.6,185.3 400,200 425.4,185.3 400,170.6 					"/>
				</g>
				<g>
					<polygon class="st85" points="425.4,214.7 400,229.4 400,200 425.4,185.3 					"/>
				</g>
				<g>
					<defs>
						<polygon id="SVGID_58_" points="374.6,214.7 400,229.4 400,200 374.6,185.3 						"/>
					</defs>
					<clipPath id="SVGID_11_">
						<use xlink:href="#SVGID_58_"  style="overflow:visible;"/>
					</clipPath>
					<g class="st88">
						<g>
							
								<rect x="343.9" y="200.7" transform="matrix(-1.836970e-16 1 -1 -1.836970e-16 577.0814 -173.8335)" class="st83" width="63.2" height="1.8"/>
						</g>
						<g>
							
								<rect x="347.8" y="200.7" transform="matrix(-1.836970e-16 1 -1 -1.836970e-16 581.0272 -177.7793)" class="st83" width="63.2" height="1.8"/>
						</g>
						<g>
							
								<rect x="351.8" y="200.7" transform="matrix(-1.836970e-16 1 -1 -1.836970e-16 584.973 -181.7251)" class="st83" width="63.2" height="1.8"/>
						</g>
						<g>
							
								<rect x="355.7" y="200.7" transform="matrix(-1.836970e-16 1 -1 -1.836970e-16 588.9189 -185.671)" class="st83" width="63.2" height="1.8"/>
						</g>
						<g>
							
								<rect x="359.7" y="200.7" transform="matrix(-1.836970e-16 1 -1 -1.836970e-16 592.8647 -189.6169)" class="st83" width="63.2" height="1.8"/>
						</g>
						<g>
							
								<rect x="363.6" y="200.7" transform="matrix(-1.836970e-16 1 -1 -1.836970e-16 596.8105 -193.5627)" class="st83" width="63.2" height="1.8"/>
						</g>
						<g>
							
								<rect x="367.5" y="200.7" transform="matrix(-1.836970e-16 1 -1 -1.836970e-16 600.7565 -197.5085)" class="st83" width="63.2" height="1.8"/>
						</g>
					</g>
				</g>
			</g>
		</g>
		<g class="st4">
			<g>
				<g>
					<polygon class="st83" points="431.5,102.6 416.6,85.3 411.3,91 395.5,73 391.1,79.3 376.3,61 372.7,66.7 369.1,60.4 381,53.7 
						391.1,71 401.2,65.3 411.3,82.7 421.4,77 431.5,94.3 441.6,88.7 453.5,109.1 448.9,111.7 437.8,97.1 					"/>
				</g>
			</g>
			<g>
				<g>
					<polygon class="st2" points="426.9,105.3 416.8,87.9 406.7,93.6 396.6,76.3 386.5,81.9 376.4,64.6 368.1,69.3 364.5,63 
						376.4,56.3 386.5,73.6 396.6,68 406.7,85.3 416.8,79.6 426.9,96.9 437,91.3 448.9,111.7 445.3,113.8 437,99.6 					"/>
				</g>
			</g>
		</g>
		<g class="st4">
			<g>
				<path class="st10" d="M305.8,229.8c3.6,2.1,3.6,5.4,0,7.5c-3.6,2.1-9.4,2.1-13,0c-3.6-2.1-3.6-5.4,0-7.5
					S302.2,227.8,305.8,229.8z"/>
			</g>
			<g>
				<rect x="290.1" y="215" class="st10" width="18.4" height="18.5"/>
			</g>
			<g>
				<path class="st2" d="M305.8,211.3c3.6,2.1,3.6,5.4,0,7.5c-3.6,2.1-9.4,2.1-13,0c-3.6-2.1-3.6-5.4,0-7.5
					C296.4,209.2,302.2,209.2,305.8,211.3z"/>
			</g>
		</g>
		<g class="st4">
			<g>
				<polygon class="st2" points="342.2,130.3 352.6,124.3 352.2,121.7 348.7,120.6 342.2,120.6 338.7,123.6 				"/>
			</g>
			<g>
				<polygon class="st2" points="349.3,101.9 337.1,109 348.3,113.2 358,106.7 				"/>
			</g>
			<g>
				<g>
					<path class="st2" d="M365.5,103.2c-12.3-7.1-22.2-1.3-22.2,12.8l11.8,6.8c0-6.7,4.7-9.4,10.5-6c5.8,3.3,10.5,11.5,10.5,18.1
						l11.8,6.8C387.7,127.5,377.7,110.3,365.5,103.2z"/>
				</g>
			</g>
			<g>
				<polygon class="st2" points="387.7,141.7 374.9,149.2 364.2,141.7 368,133.4 355.7,118.2 358.9,111.8 362.2,111.8 372.3,116.9 
					376.4,125.7 378.9,129.9 383.8,138.6 				"/>
			</g>
			<g>
				<g>
					<path class="st10" d="M352.6,110.7c-12.3-7.1-22.2-1.3-22.2,12.8l11.8,6.8c0-6.7,4.7-9.4,10.5-6c5.8,3.3,10.5,11.5,10.5,18.1
						l11.8,6.8C374.9,135,364.9,117.8,352.6,110.7z"/>
				</g>
			</g>
		</g>
		<g class="st4">
			<g>
				<path class="st2" d="M295.1,331l8.4,12.4l6.5-3.8v-17.2c-4.2-2.4-8-2.6-10.7-1l0,0c-1,0.6-1.9,1.5-2.5,2.6
					c-0.2,0.4-0.4,0.8-0.6,1.2C295.5,326.9,295.1,328.8,295.1,331z"/>
			</g>
			<g>
				<path class="st82" d="M293.1,325l3,0.3l7.4,0.8l6.5-3.8c-4.2-2.4-8-2.6-10.7-1L293.1,325C293.1,325,293.1,325,293.1,325z"/>
			</g>
			<g>
				<path class="st12" d="M288.6,334.7l14.9,8.6l0-17.2C295.3,321.4,288.6,325.2,288.6,334.7z"/>
			</g>
		</g>
		<g class="st4">
			<g>
				<ellipse class="st5" cx="232.6" cy="400.7" rx="29.9" ry="17.3"/>
			</g>
			<g>
				<rect x="202.7" y="392.3" class="st5" width="59.9" height="8.1"/>
			</g>
			<g>
				<ellipse class="st7" cx="232.6" cy="392.3" rx="29.9" ry="17.3"/>
			</g>
		</g>
		<g class="st4">
			<g>
				<g>
					<polygon class="st12" points="303.1,378.8 320.7,368.6 368.5,396.2 350.8,406.4 					"/>
				</g>
				<g>
					<polygon class="st2" points="368.5,416.7 350.8,426.9 350.8,406.5 368.5,396.3 					"/>
				</g>
				<g>
					<polygon class="st10" points="303.1,378.8 350.8,406.5 350.8,426.9 303.1,399.2 					"/>
				</g>
			</g>
		</g>
		<g class="st4">
			<g>
				<polygon class="st84" points="6.1,377.8 70.8,415.2 70.8,410.8 6.1,373.4 				"/>
			</g>
			<g>
				<polygon class="st2" points="6.1,373.4 70.8,410.8 74.6,408.6 9.9,371.2 				"/>
			</g>
		</g>
		<g class="st4">
			<g>
				<g>
					<polygon class="st83" points="123.7,410.1 138.6,392.8 143.9,398.5 159.7,380.5 164.1,386.8 178.8,368.5 182.5,374.1 
						186.1,367.8 174.2,361.2 164.1,378.5 154,372.8 143.9,390.1 133.8,384.5 123.7,401.8 113.6,396.1 101.7,416.5 106.3,419.2 
						117.4,404.6 					"/>
				</g>
			</g>
			<g>
				<g>
					<polygon class="st2" points="128.3,412.7 138.4,395.4 148.5,401.1 158.6,383.8 168.7,389.4 178.8,372.1 187,376.8 190.6,370.5 
						178.8,363.8 168.7,381.1 158.6,375.5 148.5,392.8 138.4,387.1 128.3,404.4 118.2,398.8 106.3,419.2 109.9,421.3 118.2,407.1 
											"/>
				</g>
			</g>
		</g>
		<g class="st4">
			<g>
				<path class="st10" d="M218.4,388.6c3.6,2.1,3.6,5.4,0,7.5c-3.6,2.1-9.4,2.1-13,0c-3.6-2.1-3.6-5.4,0-7.5
					C209,386.5,214.8,386.5,218.4,388.6z"/>
			</g>
			<g>
				<rect x="202.7" y="373.8" class="st10" width="18.4" height="18.5"/>
			</g>
			<g>
				<path class="st2" d="M218.4,370c3.6,2.1,3.6,5.4,0,7.5c-3.6,2.1-9.4,2.1-13,0c-3.6-2.1-3.6-5.4,0-7.5
					C209,368,214.8,368,218.4,370z"/>
			</g>
		</g>
		<g class="st4">
			<g>
				<g>
					
						<ellipse transform="matrix(7.202758e-03 -1 1 7.202758e-03 31.2241 310.3292)" class="st5" cx="171.9" cy="139.4" rx="24" ry="41.6"/>
				</g>
				<g>
					<rect x="130.3" y="127.8" class="st5" width="83.3" height="11.2"/>
				</g>
			</g>
			<g>
				<defs>
					<path id="SVGID_62_" d="M213.5,127.8h-5.4c-1.8-1.8-4-3.6-6.7-5.1c-16.2-9.5-42.6-9.7-58.9-0.4c-3,1.7-5.4,3.5-7.3,5.5h-5.1
						V139c-0.1,6.2,3.9,12.5,12.1,17.3c16.2,9.5,42.6,9.7,58.9,0.4c8.5-4.8,12.6-11.2,12.3-17.6h0V127.8z"/>
				</defs>
				<clipPath id="SVGID_12_">
					<use xlink:href="#SVGID_62_"  style="overflow:visible;"/>
				</clipPath>
				<g style="clip-path:url(#SVGID_12_);">
					<g>
						<rect x="130.3" y="124.8" class="st2" width="2" height="48.9"/>
					</g>
					<g>
						<rect x="134.3" y="124.8" class="st2" width="2" height="48.9"/>
					</g>
					<g>
						<rect x="138.4" y="124.8" class="st2" width="2" height="48.9"/>
					</g>
					<g>
						<rect x="142.5" y="124.8" class="st2" width="2" height="48.9"/>
					</g>
					<g>
						<rect x="146.5" y="124.8" class="st2" width="2" height="48.9"/>
					</g>
					<g>
						<rect x="150.6" y="124.8" class="st2" width="2" height="48.9"/>
					</g>
					<g>
						<rect x="154.6" y="124.8" class="st2" width="2" height="48.9"/>
					</g>
					<g>
						<rect x="158.7" y="124.8" class="st2" width="2" height="48.9"/>
					</g>
					<g>
						<rect x="162.8" y="124.8" class="st2" width="2" height="48.9"/>
					</g>
					<g>
						<rect x="166.8" y="124.8" class="st2" width="2" height="48.9"/>
					</g>
					<g>
						<rect x="170.9" y="124.8" class="st2" width="2" height="48.9"/>
					</g>
					<g>
						<rect x="175" y="124.8" class="st2" width="2" height="48.9"/>
					</g>
					<g>
						<rect x="179" y="124.8" class="st2" width="2" height="48.9"/>
					</g>
					<g>
						<rect x="183.1" y="124.8" class="st2" width="2" height="48.9"/>
					</g>
					<g>
						<rect x="187.2" y="124.8" class="st2" width="2" height="48.9"/>
					</g>
					<g>
						<rect x="191.2" y="124.8" class="st2" width="2" height="48.9"/>
					</g>
					<g>
						<rect x="195.3" y="124.8" class="st2" width="2" height="48.9"/>
					</g>
					<g>
						<rect x="199.4" y="124.8" class="st2" width="2" height="48.9"/>
					</g>
					<g>
						<rect x="203.4" y="124.8" class="st2" width="2" height="48.9"/>
					</g>
					<g>
						<rect x="207.5" y="124.8" class="st2" width="2" height="48.9"/>
					</g>
					<g>
						<rect x="211.5" y="124.8" class="st2" width="2" height="48.9"/>
					</g>
				</g>
			</g>
			<g>
				<ellipse class="st7" cx="171.9" cy="127.8" rx="41.6" ry="24"/>
			</g>
		</g>
		<g class="st4">
			<g>
				<polygon class="st1" points="271.8,69.7 297.3,84.4 297.3,55 271.8,40.4 				"/>
			</g>
			<g>
				<g>
					<polygon class="st2" points="271.8,40.4 297.3,55 322.7,40.4 297.3,25.7 					"/>
				</g>
				<g>
					<polygon class="st85" points="322.7,69.7 297.3,84.4 297.3,55 322.7,40.4 					"/>
				</g>
				<g>
					<defs>
						<polygon id="SVGID_55_" points="271.8,69.7 297.3,84.4 297.3,55 271.8,40.4 						"/>
					</defs>
					<clipPath id="SVGID_13_">
						<use xlink:href="#SVGID_55_"  style="overflow:visible;"/>
					</clipPath>
					<g class="st112">
						<g>
							
								<rect x="241.1" y="55.8" transform="matrix(-1.836970e-16 1 -1 -1.836970e-16 329.3954 -216.0682)" class="st83" width="63.2" height="1.8"/>
						</g>
						<g>
							
								<rect x="245.1" y="55.8" transform="matrix(-1.836970e-16 1 -1 -1.836970e-16 333.3412 -220.014)" class="st83" width="63.2" height="1.8"/>
						</g>
						<g>
							
								<rect x="249" y="55.8" transform="matrix(-1.836970e-16 1 -1 -1.836970e-16 337.287 -223.9598)" class="st83" width="63.2" height="1.8"/>
						</g>
						<g>
							
								<rect x="253" y="55.8" transform="matrix(-1.836970e-16 1 -1 -1.836970e-16 341.2329 -227.9057)" class="st83" width="63.2" height="1.8"/>
						</g>
						<g>
							
								<rect x="256.9" y="55.8" transform="matrix(-1.836970e-16 1 -1 -1.836970e-16 345.1787 -231.8515)" class="st83" width="63.2" height="1.8"/>
						</g>
						<g>
							
								<rect x="260.9" y="55.8" transform="matrix(-1.836970e-16 1 -1 -1.836970e-16 349.1246 -235.7973)" class="st83" width="63.2" height="1.8"/>
						</g>
						<g>
							
								<rect x="264.8" y="55.8" transform="matrix(-1.836970e-16 1 -1 -1.836970e-16 353.0704 -239.7432)" class="st83" width="63.2" height="1.8"/>
						</g>
						<g>
							
								<rect x="268.8" y="55.8" transform="matrix(-1.836970e-16 1 -1 -1.836970e-16 357.0162 -243.689)" class="st83" width="63.2" height="1.8"/>
						</g>
						<g>
							
								<rect x="272.7" y="55.8" transform="matrix(-1.836970e-16 1 -1 -1.836970e-16 360.9621 -247.6348)" class="st83" width="63.2" height="1.8"/>
						</g>
						<g>
							
								<rect x="276.7" y="55.8" transform="matrix(-1.836970e-16 1 -1 -1.836970e-16 364.9079 -251.5807)" class="st83" width="63.2" height="1.8"/>
						</g>
						<g>
							
								<rect x="280.6" y="55.8" transform="matrix(-1.836970e-16 1 -1 -1.836970e-16 368.8537 -255.5265)" class="st83" width="63.2" height="1.8"/>
						</g>
						<g>
							
								<rect x="284.5" y="55.8" transform="matrix(-1.836970e-16 1 -1 -1.836970e-16 372.7997 -259.4724)" class="st83" width="63.2" height="1.8"/>
						</g>
						<g>
							
								<rect x="288.5" y="55.8" transform="matrix(-1.836970e-16 1 -1 -1.836970e-16 376.7455 -263.4182)" class="st83" width="63.2" height="1.8"/>
						</g>
					</g>
				</g>
			</g>
		</g>
		<g class="st4">
			<g>
				<path class="st2" d="M324.9,68.2l-8.4,12.4l-6.5-3.8V59.6c4.2-2.4,8-2.6,10.7-1l0,0c1,0.6,1.9,1.5,2.5,2.6
					c0.2,0.4,0.4,0.8,0.6,1.2C324.5,64.1,324.9,66,324.9,68.2z"/>
			</g>
			<g>
				<path class="st82" d="M326.8,62.3l-3,0.3l-7.4,0.8l-6.5-3.8c4.2-2.4,8-2.6,10.7-1L326.8,62.3C326.8,62.3,326.8,62.3,326.8,62.3z
					"/>
			</g>
			<g>
				<path class="st12" d="M331.4,72l-14.9,8.6l0-17.2C324.7,58.6,331.4,62.5,331.4,72z"/>
			</g>
		</g>
	</g>
</g>
</svg>
