<?xml version="1.0" encoding="utf-8"?>
<!-- Generator: Adobe Illustrator 23.0.3, SVG Export Plug-In . SVG Version: 6.00 Build 0)  -->
<svg version="1.1" id="Layer_1" xmlns="http://www.w3.org/2000/svg" xmlns:xlink="http://www.w3.org/1999/xlink" x="0px" y="0px"
	 viewBox="0 0 177.8 191.8" style="enable-background:new 0 0 177.8 191.8;" xml:space="preserve">
<style type="text/css">
	.st0{fill:#FFFFFF;}
	.st1{fill:#0A90CB;}
</style>
<g id="Layer_6">
</g>
<g>
	<path class="st0" d="M152.6,109c-16.1,47.9-55.9,77.7-88.9,66.6S16.9,116.8,32.9,68.9C49,21,88.8-8.8,121.8,2.3
		C154.9,13.4,168.7,61.2,152.6,109z"/>
	<path class="st1" d="M149.3,107.3C134.2,152.1,97,180.1,66,169.7c-30.9-10.4-43.8-55.2-28.8-100C52.3,24.8,89.6-3.1,120.5,7.2
		C151.5,17.6,164.3,62.4,149.3,107.3z"/>
	<path class="st0" d="M171.8,94.5l-48-11.5c-2-0.5-5.2,0.3-7,1.2L127,46.4c0.9-3.5,0.1-7.8-1.8-10.8s-7.5-10.7-9.7-13.6
		s-3.9-3.6-6.5-3.7l-36.7-2.1c-4.9-0.3-10,3.6-11.3,8.8L50.8,65.6L19.2,58c-3.8-1-7.7,1.4-8.7,5.5L0.3,104.1c-1,4,1,8.1,4.6,9.8
		l142.5,76.6c4.8,2.5,9.2,1.5,10.7-4.5l19.3-77.5C178.9,102.5,176.6,95.8,171.8,94.5z"/>
	<g>
		<path d="M94.8,133.7c-1,4-4.4,6.1-7.6,4.7l-32-13.9c-3.2-1.4-5.1-5.4-4.2-8.9l8.9-35.2c0.9-3.5,4.3-5.6,7.6-4.7l33.3,8.8
			c3.3,0.9,5.2,4.9,4.2,8.9L94.8,133.7z"/>
		<g>
			<path d="M154.7,159.1c-1.2,4.6-5,7.1-8.7,5.6l-35.6-16.1c-3.6-1.5-5.7-6-4.7-10.2l10.6-42.1c1-4.1,4.9-6.6,8.7-5.7l37.5,9.9
				c3.8,1,5.9,5.5,4.7,10.1L154.7,159.1z"/>
			<path d="M42.2,111.8c-0.9,3.4-3.6,5.2-6.1,4l-25-11.5c-2.5-1.2-3.9-4.5-3.2-7.4l7.5-29.6c0.7-2.9,3.4-4.7,6.1-4l26.1,7
				c2.6,0.7,4,4,3.2,7.4L42.2,111.8z"/>
			<path d="M99.5,68.9c-1,3.8-4.3,6.4-7.4,5.6l-31-7.3c-3.1-0.7-5-4-4.1-7.4l8.5-33.7c0.8-3.3,4.2-5.9,7.4-5.6l32.3,2.3
				c3.2,0.2,5.1,3.5,4.1,7.4L99.5,68.9z"/>
		</g>
	</g>
</g>
</svg>
