<svg xmlns="http://www.w3.org/2000/svg" viewBox="0 0 782.07 202.31">
  <title>Asset 4</title>
  <g id="Layer_2" data-name="Layer 2">
    <g id="Layer_1-2" data-name="Layer 1">
      <path
        d="
          M74.64,120.85c-1.17,2-2.49,4.38-4,7.13s-3,5.6-4.44,8.56-2.88,5.86-4.2,8.71-2.46,5.28-3.41,7.29a17.55,17.55,0,0,0-1.74,4.83c-.11,1,.08,1.59.55,1.75a2.84,2.84,0,0,0,2-.4A16.35,16.35,0,0,0,62.12,157q3.33-2.53,7.68-6.42t8.64-8.08q4.28-4.2,8.08-8.32a77.57,77.57,0,0,0,6.18-7.45c1.06-1.48,2.11-2.27,3.17-2.37a2.72,2.72,0,0,1,2.61,1.26,7.16,7.16,0,0,1,1.11,4,14.13,14.13,0,0,1-1.34,6q-.48.94-2.78,4.35t-5.94,7.85q-3.65,4.44-8.32,9.19a76.76,76.76,0,0,1-9.82,8.47A44.74,44.74,0,0,1,61,171.16a17.34,17.34,0,0,1-10.14.87q-5.07-1.11-6.66-5.23a19.71,19.71,0,0,1-.79-9.82c-2.22,2-4.49,3.91-6.81,5.7a67.85,67.85,0,0,1-7,4.75,42.56,42.56,0,0,1-6.9,3.33A18.69,18.69,0,0,1,16.17,172q-7.61,0-12-5A16.74,16.74,0,0,1,0,155.23a60.76,60.76,0,0,1,3.48-19.64,79.76,79.76,0,0,1,8.56-17.28,84,84,0,0,1,11.8-14.26A98.86,98.86,0,0,1,37,93.28a66.19,66.19,0,0,1,12.6-6.81,25.74,25.74,0,0,1,10.14-2.22q5.23.31,8,2.61a10.26,10.26,0,0,1,3.57,5.63q4.27-9.19,7.53-17.43t5.62-16.48q2.39-8.23,4.12-16.64t3-17.91q.48-3.8,2.62-3.8a7.4,7.4,0,0,1,4.51,1.9,22.21,22.21,0,0,1,4.28,4.6q1.91,2.7,1.9,4.12-.48,18.06-8.24,41A307.76,307.76,0,0,1,74.64,120.85ZM15.85,148c-.32,3.69,0,6.23,1,7.6s2.4,1.82,4.36,1.35a20.67,20.67,0,0,0,7-3.73,78.85,78.85,0,0,0,8.56-7.52q4.52-4.52,9.27-10t9.19-11c.52-1.05,1-2,1.5-2.93s.93-1.77,1.35-2.61c.74-1.38,1.45-2.72,2.14-4s1.35-2.67,2-4a22.31,22.31,0,0,1,.71-3.65,18.44,18.44,0,0,0,.64-3.88,5.31,5.31,0,0,0-.8-3.17c-.58-.9-1.77-1.4-3.56-1.51A19.5,19.5,0,0,0,49.84,101a48.66,48.66,0,0,0-9.51,6.26,65.5,65.5,0,0,0-8.87,9A91.57,91.57,0,0,0,23.93,127,74.72,74.72,0,0,0,18.47,138,37.91,37.91,0,0,0,15.85,148Z
      "/>

      <path
        d="
          M147.21,107.54a9.77,9.77,0,0,1,6-1.35,17.31,17.31,0,0,1,6.42,1.67,10.47,10.47,0,0,1,4.43,3.8,4.47,4.47,0,0,1,.08,4.91c-.53.74-1.61,2.41-3.25,5s-3.3,5.31-5,8.16a83.33,83.33,0,0,0-4.12,7.77c-1.05,2.32-1.16,3.59-.31,3.8a10.14,10.14,0,0,0,6.18-.4,30.65,30.65,0,0,0,7.36-3.64,49.48,49.48,0,0,0,7.29-5.94,53.45,53.45,0,0,0,6.26-7.29,2.68,2.68,0,0,1,2.69-1.35,4.07,4.07,0,0,1,2.7,1.74,8.78,8.78,0,0,1,1.5,3.73,6.91,6.91,0,0,1-.87,4.59,39.31,39.31,0,0,1-6.1,7.61,48.94,48.94,0,0,1-9.74,7.61,43.83,43.83,0,0,1-11.89,4.91,22.92,22.92,0,0,1-12.51-.32,15.23,15.23,0,0,1-4.92-2.69q-3.65,4.11-7.6,7.92a74.93,74.93,0,0,1-8.16,6.81,49.09,49.09,0,0,1-8.64,5,29.27,29.27,0,0,1-8.87,2.46,34,34,0,0,1-6.34.08,18.05,18.05,0,0,1-7.92-2.38,15.74,15.74,0,0,1-6.26-7.13q-2.46-5-1.67-14.5a45.83,45.83,0,0,1,3-11.88,85.41,85.41,0,0,1,6.65-13.55A112.69,112.69,0,0,1,103.32,109a90.76,90.76,0,0,1,12-12.12A65.55,65.55,0,0,1,129,88.13a37.18,37.18,0,0,1,14.57-3.72,35,35,0,0,1,9,.71,19.76,19.76,0,0,1,6.1,2.38A10.7,10.7,0,0,1,162.18,91a9.27,9.27,0,0,1,1.35,4,9.88,9.88,0,0,1-.64,4.28,11.39,11.39,0,0,1-2.06,3.49,5.7,5.7,0,0,1-2.61,1.82,1.78,1.78,0,0,1-2.14-.72,11.43,11.43,0,0,0-6.42-4.51,16.39,16.39,0,0,0-8-.08,46.65,46.65,0,0,0-12.91,5.7,57.74,57.74,0,0,0-10.7,8.8,77.31,77.31,0,0,0-8.4,10.46,93.62,93.62,0,0,0-6.1,10.45,70.55,70.55,0,0,0-3.8,9.12,28.76,28.76,0,0,0-1.5,6.17,10.43,10.43,0,0,0,.47,5,6.92,6.92,0,0,0,2.14,3,8.11,8.11,0,0,0,2.85,1.42,10.7,10.7,0,0,0,2.77.4,14.33,14.33,0,0,0,6.42-2.14,46.73,46.73,0,0,0,7-5.15,85,85,0,0,0,7.29-7.21q3.64-4,7-8.16a32.12,32.12,0,0,1,.48-8.32,37.28,37.28,0,0,1,2.53-8.32,38.52,38.52,0,0,1,4.28-7.37A24.89,24.89,0,0,1,147.21,107.54Z
      "/>

      <path
        d="
          M295.68,96.61q-7.6,13.47-14,27.33l-13.23,28.6a17.55,17.55,0,0,0-1.74,4.83c-.11,1,.08,1.59.56,1.75a2.82,2.82,0,0,0,2-.4,16.35,16.35,0,0,0,2.69-1.74q3.33-2.53,7.68-6.42t8.64-8.08q4.27-4.2,8.08-8.32a77.57,77.57,0,0,0,6.18-7.45c1.06-1.48,2.11-2.27,3.17-2.37a2.71,2.71,0,0,1,2.61,1.26,7.16,7.16,0,0,1,1.11,4,14.13,14.13,0,0,1-1.34,6q-.48.94-2.78,4.35t-5.94,7.85q-3.65,4.44-8.32,9.19a76.76,76.76,0,0,1-9.82,8.47,44.54,44.54,0,0,1-10.38,5.71,17.34,17.34,0,0,1-10.14.87q-6.81-1.58-8.32-7.45t.87-14.26a136.37,136.37,0,0,1,6.5-17q3.65-7.84,7-13.95t5.86-10.14q2.54-4,3.33-5.62c.42-1,.48-1.45.16-1.51a2.33,2.33,0,0,0-1.35.4,21.64,21.64,0,0,0-1.9,1.19,10.08,10.08,0,0,0-1.5,1.19q-3.18,2.22-7.85,6.18t-9.82,9q-5.16,5.07-10.38,10.93t-9.59,11.81a88.37,88.37,0,0,0-7.29,11.64,32.73,32.73,0,0,0-3.56,10.46v-.79a9.49,9.49,0,0,1,.16-1.9,21.54,21.54,0,0,0-.79,6,4.49,4.49,0,0,1-1.51,2.85c-1,1.06-2.77,1.37-5.31.95a5.66,5.66,0,0,1-3.56-1.82,10.26,10.26,0,0,1-2.06-3.57,13.08,13.08,0,0,1-.72-4.36,17.1,17.1,0,0,1,.48-4.19,143.73,143.73,0,0,1,6.42-20.29q3.72-9.18,7.29-16.24T229.6,110a67,67,0,0,0,3.65-6.26c.42-.95.47-1.45.16-1.51a2.33,2.33,0,0,0-1.35.4,18.37,18.37,0,0,0-1.9,1.19,11.77,11.77,0,0,0-1.51,1.18,107.58,107.58,0,0,0-11.09,9q-6.81,6.09-13.71,13.54a189,189,0,0,0-13,15.69,70.3,70.3,0,0,0-9,15.37c-.11.85-.21,1.61-.32,2.3a11.61,11.61,0,0,0-.16,1.82q-.63,6-3.17,8.16t-5.54-.24a12.54,12.54,0,0,1-3.65-5.07q-1.42-3.33-1.26-9.82a41.3,41.3,0,0,1,1.82-9.67,118.51,118.51,0,0,1,4.28-12q2.61-6.33,5.86-13t6.42-12.44q3.17-5.79,5.94-10.46a66.22,66.22,0,0,1,4.67-7,16,16,0,0,1,7.13-5.47,19,19,0,0,1,7.69-1.5,6.8,6.8,0,0,1,5.07,2.06c1.11,1.27.92,2.9-.56,4.91q-4.59,6.34-8.16,11.88t-6.73,10.62q4.75-5.7,10.22-11.17a94.11,94.11,0,0,1,11.25-9.67,50.83,50.83,0,0,1,11.88-6.49,28.3,28.3,0,0,1,12.28-1.82,10.28,10.28,0,0,1,5.39,1.66,5.88,5.88,0,0,1,2.22,3.17,8,8,0,0,1,0,3.88,12.35,12.35,0,0,1-1.43,3.64c-.53.85-1.5,2.65-2.93,5.39l-5.15,10q4.75-5.53,10.06-10.77A86.69,86.69,0,0,1,266,92.17,51.24,51.24,0,0,1,277.53,86a27.13,27.13,0,0,1,11.81-1.74,10.6,10.6,0,0,1,5.55,1.66,5.84,5.84,0,0,1,2.21,3.17,8,8,0,0,1,0,3.88A12.41,12.41,0,0,1,295.68,96.61Z
      "/>

      <path
        d="
          M355.1,64.28a8.86,8.86,0,0,1,6.41,1,12.27,12.27,0,0,1,4,4,9.65,9.65,0,0,1,1.51,4.52c.05,1.42-.35,2.3-1.19,2.61s-2.38,1-4.59,2.06a41,41,0,0,0-6.9,4.28,39.66,39.66,0,0,0-6.73,6.58,19.49,19.49,0,0,0-4.12,8.79,49.31,49.31,0,0,0-.64,9.27q0,6.26.4,13.07t.79,12.92c.27,4.06.4,7.05.4,9q.15,10.31-4,17.11a31.84,31.84,0,0,1-23.06,15.37,24.67,24.67,0,0,1-11.72-.79,22.56,22.56,0,0,1-12.2-9,20.76,20.76,0,0,1-3.81-12.6,40.61,40.61,0,0,1,1.91-9.82,44.08,44.08,0,0,1,4.19-9.27,40.67,40.67,0,0,1,6.11-7.85,30.25,30.25,0,0,1,7.44-5.54,6.52,6.52,0,0,1,5.63-.32,16,16,0,0,1,5.31,3.09,12.73,12.73,0,0,1,3.16,4c.64,1.37.37,2.27-.79,2.69a24.28,24.28,0,0,0-11.25,7.61,28.38,28.38,0,0,0-5.7,10.62,14.36,14.36,0,0,0,.39,9.58q1.83,4.2,7.21,4.52a12.59,12.59,0,0,0,9.67-3.72A19,19,0,0,0,328.48,148a53.2,53.2,0,0,0,.87-12.21q-.24-6.65-1-13.31t-1.35-12.75a60.34,60.34,0,0,1-.32-10.38,32.15,32.15,0,0,1,4.36-14,54.73,54.73,0,0,1,8.32-10.86,46.32,46.32,0,0,1,9-7.21Q352.88,64.6,355.1,64.28Z
      "/>

      <path
        d="
          M479.16,25.78a15.09,15.09,0,0,1,7.21-.87,25.23,25.23,0,0,1,7.13,1.66,9.05,9.05,0,0,1,4.28,3.09c.79,1.21.34,2.3-1.34,3.25q-1.59.95-5.39,5.78t-9.19,12.44q-5.39,7.6-12.05,17.59T456,89.87q-7.12,11.17-14.5,23.06t-14.34,23.45a107.46,107.46,0,0,0,28.36-9.19,158.61,158.61,0,0,0,26-15.77,165.57,165.57,0,0,0,22.18-19.81,163.27,163.27,0,0,0,17-21.23,91.51,91.51,0,0,0,10.3-20q3.33-9.51,2.22-16.32a17.44,17.44,0,0,0-4.52-9.83,21.52,21.52,0,0,0-9-5.38A45,45,0,0,0,507,16.9a136.16,136.16,0,0,0-15.61.64,160.58,160.58,0,0,0-23.92,4.35,216.74,216.74,0,0,0-25.35,8.24,232.3,232.3,0,0,0-24.64,11.41,165.83,165.83,0,0,0-21.71,13.79A104.68,104.68,0,0,0,379.1,70.78a46.59,46.59,0,0,0-9.43,16.32,9.45,9.45,0,0,0-.55,4.2c.16,1.21.32,2.27.47,3.17a12.68,12.68,0,0,1,.24,2q0,.63-1.11.63a27.3,27.3,0,0,1-3.64-.39A15.25,15.25,0,0,1,360,94.86a13.06,13.06,0,0,1-4.36-4,10.7,10.7,0,0,1-1.51-7q1.11-11.4,9.83-22.5a109.2,109.2,0,0,1,22.42-20.92,196.29,196.29,0,0,1,30.9-17.9A263.05,263.05,0,0,1,452.39,8.9a214.32,214.32,0,0,1,35.09-7.68,119.79,119.79,0,0,1,30.9-.4q13.71,1.83,22.42,8.24t9.83,18.3a67.13,67.13,0,0,1-4,28.68A120.25,120.25,0,0,1,531.61,84.8a165.26,165.26,0,0,1-23.37,26.54,190.79,190.79,0,0,1-29,22.11,175,175,0,0,1-31.77,15.6,111.59,111.59,0,0,1-31.85,7q-8.24,14.25-14,25.51a140.85,140.85,0,0,0-7.84,17.27q-1.11,3.33-3.81,3.48a8.73,8.73,0,0,1-5.3-1.5,15.46,15.46,0,0,1-4.44-4.28,5.44,5.44,0,0,1-1-5,110,110,0,0,1,6.26-15.29q4.51-9.43,11-21.31a59.48,59.48,0,0,1-8.64-2.22,44.1,44.1,0,0,1-8-3.65,9.89,9.89,0,0,1-3.25-3.09,26.66,26.66,0,0,1-2.61-4.67,20.28,20.28,0,0,1-1.5-5.15,11.2,11.2,0,0,1,.07-4.44,3.21,3.21,0,0,1,1.91-2.37q1.43-.56,4.27.71a66.93,66.93,0,0,0,13.55,5.07,78.7,78.7,0,0,0,13.87,2.22q7-12.2,14.73-25t15.37-25Q443.83,75.05,451,64.12t12.91-19.25q5.79-8.31,9.83-13.39T479.16,25.78Z
      "/>

      <path
        d="
          M609.57,29A299.66,299.66,0,0,0,586.2,51.29Q575,63.17,565.2,75.37T547.3,99.3q-8.09,11.73-14,22t-9.58,18.39a56.2,56.2,0,0,0-4.44,12.83,35.27,35.27,0,0,0-.63,5.15c0,1,.16,1.58.47,1.74s.8,0,1.43-.55,1.43-1.16,2.38-1.9q3.32-2.53,7.68-6.42t8.64-8.08q4.28-4.2,8.08-8.32a62.88,62.88,0,0,0,6-7.45c1-1.48,2.14-2.27,3.25-2.37a2.8,2.8,0,0,1,2.69,1.26,7.16,7.16,0,0,1,1.11,4,14.31,14.31,0,0,1-1.35,6,47.79,47.79,0,0,1-2.85,4.35q-2.37,3.42-6,7.85T541.91,157a72.88,72.88,0,0,1-9.74,8.47,44.2,44.2,0,0,1-10.46,5.71,17.64,17.64,0,0,1-10.22.87,6.64,6.64,0,0,1-5-3.8,22,22,0,0,1-1.67-7.29A48.2,48.2,0,0,1,507.29,143a129,129,0,0,1,8.79-21,255.11,255.11,0,0,1,13.31-22.58Q537,87.9,545.32,77T562,56.2q8.4-9.83,15.69-17.43t12.84-12.44q5.54-4.83,8.24-5.78a16.93,16.93,0,0,1,7.28-1.35,8.17,8.17,0,0,1,4.84,1.67,4,4,0,0,1,1.42,3.64A7.14,7.14,0,0,1,609.57,29Z
      "/>

      <path
        d="
          M607.82,117.2a18.3,18.3,0,0,1,7-4,15,15,0,0,1,6.1-.55,8,8,0,0,1,3.88,1.43c.84.68,1,1.34.32,2a25.43,25.43,0,0,0-4,5.62q-2.55,4.36-5.31,9.82t-5.55,11.26q-2.78,5.77-4.67,9.74a17.67,17.67,0,0,0-1.75,4.83c-.1,1,.08,1.59.56,1.75a2.82,2.82,0,0,0,2-.4,16.35,16.35,0,0,0,2.69-1.74q3.33-2.53,7.69-6.42t8.63-8.08q4.29-4.2,8.08-8.32a77.57,77.57,0,0,0,6.18-7.45c1.06-1.48,2.12-2.27,3.17-2.37a2.73,2.73,0,0,1,2.62,1.26,7.32,7.32,0,0,1,1.11,4,14.31,14.31,0,0,1-1.35,6q-.48.94-2.77,4.35t-5.94,7.85q-3.66,4.44-8.32,9.19a77.53,77.53,0,0,1-9.83,8.47A44.54,44.54,0,0,1,608,171.16a17.33,17.33,0,0,1-10.14.87q-5.07-1.11-6.65-5.15a21.08,21.08,0,0,1-1.11-9.59,112.41,112.41,0,0,1-13.63,10.62q-7,4.6-13.31,4.6a15.72,15.72,0,0,1-6.81-1.43,16.09,16.09,0,0,1-5.15-3.8,15.07,15.07,0,0,1-3.17-5.55,20.79,20.79,0,0,1-1-6.5,60.76,60.76,0,0,1,3.49-19.64A79.73,79.73,0,0,1,559,118.31a84.1,84.1,0,0,1,11.81-14.26A98.22,98.22,0,0,1,584,93.28a65.83,65.83,0,0,1,12.59-6.81,25.82,25.82,0,0,1,10.15-2.22q7.44.31,11.72,3.72a19.24,19.24,0,0,1,6,7.61,15.22,15.22,0,0,1,1.27,7.84q-.48,3.64-2.38,4.28c-2.11.74-3.7.71-4.75-.08a16.7,16.7,0,0,1-3.09-3.09,31.63,31.63,0,0,0-3.49-3.72q-2-1.83-5.94-2a19.5,19.5,0,0,0-9.27,2.22,48.3,48.3,0,0,0-9.5,6.26,65.55,65.55,0,0,0-8.88,9,90.29,90.29,0,0,0-7.52,10.7A74.81,74.81,0,0,0,565.44,138a37.91,37.91,0,0,0-2.62,10q-.47,5.85,1.11,7.76t4.68,1a22.63,22.63,0,0,0,7.37-4.28,108.74,108.74,0,0,0,9-8.16q4.75-4.76,9.58-10.54t9.27-11.48l.16-.16A34.3,34.3,0,0,1,607.82,117.2Z
      "/>

      <path
        d="
          M697.83,82.66a10.86,10.86,0,0,1,5.94,1.82,11.3,11.3,0,0,1,3.48,4,16,16,0,0,1,1.59,4.43,19.79,19.79,0,0,1,.39,3.25,16.53,16.53,0,0,1-1.26,5.15,44.36,44.36,0,0,1-3.49,7.13,37,37,0,0,1-5.39,7,19,19,0,0,1-7,4.68q-3.79,1.43-5.94.87a4.6,4.6,0,0,1-3-2.06,4.87,4.87,0,0,1-.64-3.17,3.47,3.47,0,0,1,1.35-2.46,28.88,28.88,0,0,0,2.22-2,37.7,37.7,0,0,0,3.25-3.56q1.67-2.06,3.25-4.28a17.3,17.3,0,0,0,2.21-4,2.94,2.94,0,0,0-.07-2.77c-.48-.69-1.56-.88-3.25-.56q-5.07.8-11.41,5.86a91.9,91.9,0,0,0-12.36,12.13,118.21,118.21,0,0,0-10.93,15,70.79,70.79,0,0,0-7.13,14.73c-1.48,4.5-1.75,8.19-.8,11.1s3.59,4.25,7.93,4a31.67,31.67,0,0,0,11.4-3,73,73,0,0,0,11.49-6.66,105.42,105.42,0,0,0,10.7-8.63q5.07-4.68,9.19-8.8t7-7.13a36.54,36.54,0,0,1,4-3.8,3.38,3.38,0,0,1,2.93-.48,3.61,3.61,0,0,1,2.06,1.9,8.87,8.87,0,0,1,.87,3.33,9.37,9.37,0,0,1-.47,3.8,21.43,21.43,0,0,1-2.69,3.89q-2.55,3.24-6.82,7.76T696.32,151a110.81,110.81,0,0,1-12.52,9.74,96.22,96.22,0,0,1-14.1,7.84,45.46,45.46,0,0,1-15,4q-7.14.63-11.73-1.27a17.65,17.65,0,0,1-10.93-12.68,29.65,29.65,0,0,1-.8-7.92,43.49,43.49,0,0,1,3-12.2,93.07,93.07,0,0,1,7.28-14.82,117,117,0,0,1,10.86-15.13A97.78,97.78,0,0,1,666,95.18a66.46,66.46,0,0,1,15.37-9.35A37.63,37.63,0,0,1,697.83,82.66Z
      "/>

      <path
        d="
          M763.9,82.66a11,11,0,0,1,6.65,1.75A10.7,10.7,0,0,1,774,88.52a12.44,12.44,0,0,1,1.19,4.84,11.46,11.46,0,0,1-.4,3.88,59.54,59.54,0,0,1-3.4,8.4,42.8,42.8,0,0,1-7.69,10.93q-2.85,3-6.89,6.81t-8.64,7.53a79,79,0,0,1-9.58,6.66,40.7,40.7,0,0,1-9.59,4.2c-2.54.74-4.54.84-6,.31a5.64,5.64,0,0,1-3.09-2.22,4.26,4.26,0,0,1-.64-2.93,2,2,0,0,1,1.51-1.82,38.83,38.83,0,0,0,11.57-5.62,132.62,132.62,0,0,0,10.77-8.24q4.9-4.2,8.32-7.69c2.27-2.32,3.57-3.7,3.88-4.12a56.22,56.22,0,0,0,3.73-5.15,20.28,20.28,0,0,0,2.29-4.59,3.24,3.24,0,0,0-.15-3c-.53-.69-1.75-.88-3.65-.56a22.54,22.54,0,0,0-8.4,3.65,61.3,61.3,0,0,0-9.27,7.6,113.32,113.32,0,0,0-9.19,10.3,130.48,130.48,0,0,0-8.16,11.49,77.34,77.34,0,0,0-5.94,11.25,33.61,33.61,0,0,0-2.69,9.66,8.89,8.89,0,0,0,1.58,6.66c1.32,1.64,3.62,2.4,6.89,2.3a32.37,32.37,0,0,0,11.49-3,70.42,70.42,0,0,0,11.65-6.74,114.23,114.23,0,0,0,10.93-8.79q5.24-4.75,9.51-8.88t7.21-7.21a24.13,24.13,0,0,1,4-3.72c1-.74,1.93-.87,2.61-.4a4.52,4.52,0,0,1,1.59,2.3,11.56,11.56,0,0,1,.63,3.33,15.62,15.62,0,0,1-.08,2.85c-.1.53-1,1.88-2.61,4s-3.88,4.81-6.74,7.93-6.2,6.41-10.06,9.9a124.81,124.81,0,0,1-12.52,9.9,86.11,86.11,0,0,1-14.18,8,46.23,46.23,0,0,1-15.05,4q-7.12.63-11.73-1.27a17.71,17.71,0,0,1-10.93-12.68,29.63,29.63,0,0,1-.79-7.92,44.32,44.32,0,0,1,2.85-12.2,90.26,90.26,0,0,1,7-14.58,115.87,115.87,0,0,1,10.46-15,89,89,0,0,1,13.31-13.23,66.5,66.5,0,0,1,15.61-9.43A43.53,43.53,0,0,1,763.9,82.66Z
      "/>
    </g>
  </g>
</svg>
