<?xml version="1.0" encoding="utf-8"?>
<!-- Generator: Adobe Illustrator 22.1.0, SVG Export Plug-In . SVG Version: 6.00 Build 0)  -->
<svg version="1.1" id="Layer_1" xmlns="http://www.w3.org/2000/svg" xmlns:xlink="http://www.w3.org/1999/xlink" x="0px" y="0px"
	 viewBox="0 0 400 401" style="enable-background:new 0 0 400 401;" xml:space="preserve">
<style type="text/css">
	.st0{clip-path:url(#SVGID_1_);}
	.st1{fill:#FFFFFF;}
</style>
<g>
	<g>
		<defs>
			<rect id="SVGID_3_" width="400" height="401"/>
		</defs>
		<use xlink:href="#SVGID_3_"  style="overflow:visible;"/>
		<clipPath id="SVGID_1_">
			<use xlink:href="#SVGID_3_"  style="overflow:visible;"/>
		</clipPath>
		<g class="st0">
			<g>
				<path class="st1" d="M129.4,68.2c-2.1,0-3.8-0.7-4.7-2.1c-0.9-1.4-0.9-3.1,0.1-4.8l0.1-0.2c2.1-3.7,3.6-6.4,6-6l0.2,0
					c1.4,0.3,2.4,1.7,4.1,3.9c0.4,0.5,0.7,1,1.1,1.4c0.9,1.2,1.2,2.5,0.7,3.8c-0.7,1.9-2.9,3.2-5.9,3.7l-0.1,0
					C130.3,68.1,129.8,68.2,129.4,68.2z M128,63.9c0.2,0.1,0.8,0.4,2.2,0.2c1.7-0.3,2.5-0.8,2.7-1.1c-0.4-0.5-0.8-1-1.1-1.5
					c-0.4-0.5-0.9-1.3-1.4-1.8c-0.7,0.9-1.6,2.5-2.1,3.5l-0.1,0.2C128,63.6,128,63.8,128,63.9z M133,63.1L133,63.1L133,63.1z"/>
			</g>
			<g>
				<path class="st1" d="M-0.3,176.8c-2.1,0-3.7-0.7-4.7-2c-0.9-1.3-0.9-3-0.1-4.6c2.4-4.4,3.9-6.4,5.8-6.4c0,0,0,0,0,0l0.2,0
					c1.6,0.1,2.7,1.7,4.2,3.7c0.4,0.5,0.8,1.1,1.2,1.6c1,1.2,1.3,2.6,0.8,3.9c-0.7,1.8-2.7,3.2-5.6,3.8l-0.1,0
					C0.8,176.8,0.2,176.8-0.3,176.8z M-1.7,172.5c0.2,0.1,0.9,0.4,2.4,0.2c1.6-0.3,2.4-0.8,2.6-1.1c0,0,0-0.1-0.1-0.1
					c-0.5-0.6-0.9-1.2-1.3-1.8c-0.3-0.5-0.8-1-1.1-1.5c-0.5,0.6-1.2,1.8-2.3,3.8C-1.6,172.3-1.7,172.5-1.7,172.5z"/>
			</g>
			<g>
				<path class="st1" d="M77.6,121.9c-0.6,0-1.2-0.1-1.9-0.2l-0.1,0c-3.1-0.7-5.2-2.2-5.9-4c-0.4-1.2-0.1-2.6,0.8-3.6
					c0.4-0.4,0.7-0.9,1.2-1.5c1.5-2,2.5-3.3,3.8-3.7l0.2,0c2.6-0.6,4.3,2.6,6.3,6.3c1,1.8,0.9,3.6,0,4.9
					C81,121.2,79.5,121.9,77.6,121.9z M76.6,117.8c1.3,0.2,1.9,0,2.1-0.1c0-0.1,0-0.3-0.2-0.7l0,0c-0.4-0.8-1.4-2.7-2.2-3.7
					c-0.4,0.5-0.9,1.2-1.3,1.7c-0.4,0.5-0.8,1.1-1.2,1.6C74.1,116.8,75,117.4,76.6,117.8z M77,112.6"/>
			</g>
			<g>
				<path class="st1" d="M86,192c-1.5,0-2.9-0.4-3.9-1.1c-1.1-0.8-1.6-2.1-1.5-3.4c0.4-3,3.5-6.8,4.1-7.5l0.1-0.1
					c0.8-0.8,1.7-1,2.3-0.9c1.5,0.1,2.5,1.3,3.4,2.7c0.3,0.5,0.7,0.9,1.1,1.4c1,1.1,2.2,2.8,1.8,4.8c-0.3,1.5-1.4,2.6-3.4,3.4l0,0
					C88.7,191.7,87.3,192,86,192z M89.2,189.3L89.2,189.3L89.2,189.3z M84.6,187.7c0.6,0.3,2.2,0.5,3.8-0.3c0.7-0.3,1-0.5,1.1-0.6
					c-0.1-0.2-0.2-0.5-0.9-1.3c-0.5-0.6-0.9-1.1-1.3-1.6c-0.1-0.1-0.2-0.3-0.4-0.5C85.9,185,84.8,186.7,84.6,187.7z"/>
			</g>
			<g>
				<path class="st1" d="M134.9,196c-1.7,0-3.2-0.4-4.2-1.3c-1.1-0.9-1.5-2.2-1.2-3.6c0.6-2.6,3.1-6.1,4.3-7.3l0.1-0.1
					c0.6-0.5,1.4-0.8,2.2-0.7c1.5,0.2,2.4,1.3,3.4,2.7c0.4,0.5,0.7,1,1.2,1.5c0.5,0.6,2.2,2.4,1.7,4.6c-0.4,1.5-1.6,2.7-3.8,3.5
					C137.4,195.8,136.1,196,134.9,196z M133.5,191.7c0.5,0.3,2,0.5,3.6-0.2c0.8-0.3,1.2-0.6,1.3-0.7c0-0.1-0.2-0.5-0.7-1
					c-0.5-0.6-1-1.2-1.4-1.7c-0.1-0.2-0.3-0.4-0.4-0.5C135,188.7,133.9,190.5,133.5,191.7z"/>
			</g>
			<g>
				<path class="st1" d="M8.6,102.1c-1.6,0-3-0.4-3.9-1.2c-3-2.4-0.6-6.1,0.9-8.4c0.2-0.3,0.3-0.5,0.5-0.8l0,0
					c0.8-1.3,1.8-2.7,3.5-2.7c0,0,0.1,0,0.1,0c1.7,0,2.7,1.5,3.4,2.4c0.3,0.5,0.7,0.9,1,1.3c1.3,1.5,3.3,4.1,1.2,6.6
					c-1.3,1.6-3.8,2.4-5.7,2.6C9.3,102.1,8.9,102.1,8.6,102.1z M7.3,97.9c0.2,0.1,0.8,0.3,2,0.2c1.5-0.1,2.6-0.7,3-1.1
					c-0.2-0.4-0.8-1.1-1.2-1.6c-0.4-0.5-0.8-1-1.2-1.5c-0.1-0.1-0.1-0.1-0.1-0.2c-0.1,0.1-0.1,0.2-0.2,0.3c-0.2,0.3-0.3,0.5-0.5,0.8
					C8.4,95.6,7.3,97.2,7.3,97.9z M7.3,98L7.3,98L7.3,98z"/>
			</g>
			<g>
				<path class="st1" d="M128.3,155.7c-0.2,0-0.3,0-0.5-0.1c-7.1-1.7-12.5-4.7-15.3-7c-0.5-0.4-0.7-1-0.7-1.6c0-0.6,0.3-1.2,0.8-1.5
					c8.1-6.3,9.6-7.4,11.4-6.4c0.3,0.2,0.6,0.5,0.8,0.8c2.2,4.1,4,8.5,5.4,13.2c0.2,0.7,0,1.4-0.5,1.9
					C129.3,155.5,128.8,155.7,128.3,155.7z M117.2,147c2,1.3,4.7,2.6,8,3.7c-0.9-2.6-2-5-3.1-7.3C120.9,144.2,119,145.6,117.2,147z"
					/>
			</g>
			<g>
				<path class="st1" d="M170,51.1c-0.8,0-1.6-0.5-1.9-1.3c-0.3-0.8-0.1-1.7,0.6-2.3c6.1-4.9,9.3-10.2,10.2-13.6
					c0.2-0.9,1-1.5,1.9-1.5h0c0.9,0,1.7,0.6,1.9,1.5c1.4,5,4.8,9.2,9.7,12.2c0.7,0.5,1.1,1.4,0.9,2.2c-0.2,0.9-1,1.5-1.8,1.5
					c-4.3,0.2-8.6,0.5-12.6,0.8c-3.1,0.2-6,0.4-8.8,0.6C170.1,51.1,170.1,51.1,170,51.1z M180.9,39.6c-1.3,2.4-3.2,4.8-5.3,7.1
					c1-0.1,2.1-0.1,3.2-0.2c2.4-0.2,4.8-0.3,7.2-0.5C183.8,44.1,182.1,42,180.9,39.6z"/>
			</g>
			<g>
				<path class="st1" d="M135.7,33C135.6,33,135.6,33,135.7,33c-5.4-0.2-10.2-0.6-14.4-1c-1.9-0.2-3.6-0.3-5.2-0.5
					c-0.8-0.1-1.5-0.6-1.8-1.4c-0.2-0.8,0-1.6,0.7-2.2c5.8-4.6,9-9.2,9.7-11.3c0.3-0.8,1-1.3,1.9-1.3c0,0,0,0,0,0
					c0.8,0,1.6,0.6,1.9,1.4c1.7,5,4.5,9.3,8.5,12.8c0.6,0.6,0.8,1.5,0.5,2.2C137.2,32.5,136.5,33,135.7,33z M121.1,27.9
					c0.2,0,0.4,0,0.5,0.1c2.8,0.3,5.8,0.5,9,0.8c-1.7-2.1-3.2-4.3-4.3-6.8C125.1,23.8,123.3,25.8,121.1,27.9z"/>
			</g>
			<g>
				<path class="st1" d="M77.9,74.7c-0.7,0-1.4-0.4-1.8-1.1c-0.4-0.8-0.3-1.7,0.4-2.4c4.7-4.6,8.1-10.1,9.7-15.5
					c0.2-0.9,1-1.4,1.9-1.4c0,0,0,0,0,0c0.9,0,1.7,0.6,1.9,1.5c1.1,4.2,4.6,8.2,9.8,10.8c0.8,0.4,1.2,1.3,1.1,2.1
					c-0.1,0.9-0.8,1.5-1.7,1.6c-3.6,0.5-7.5,1.3-11.6,2.3c-3,0.7-6.1,1.4-9.3,2C78.2,74.7,78.1,74.7,77.9,74.7z M88.3,61.7
					c-1.1,2.4-2.6,5.1-4.8,7.9c1.1-0.2,2.2-0.5,3.3-0.7c2.3-0.5,4.6-1,6.7-1.4C91.3,65.7,89.6,63.8,88.3,61.7z"/>
			</g>
			<g>
				<path class="st1" d="M47.8,152.2c-2.7,0-4.5-1.2-6.1-2.2c-1.7-1.1-2.8-1.9-5.2-1.1c-1.1,0.3-2.2-0.3-2.5-1.3
					c-0.3-1.1,0.3-2.2,1.3-2.5c4.1-1.3,6.6,0.3,8.5,1.6c1.7,1.1,2.9,1.9,5.3,1.4c2.3-0.7,3.2-2.3,4.5-5c1.2-2.5,2.6-5.3,6.1-6.9
					c4-2,6.7,0,8.8,1.5c1.9,1.4,3,2.1,4.8,1.4c2.1-1,2.8-3.4,3.6-6.2c0.9-3.1,1.9-6.6,5.2-8.6c3.9-2.4,7,0.1,9,1.8
					c2.2,1.8,3.1,2.4,4.5,1.7c1.8-1,2.3-3.8,2.7-6.8c0.6-3.4,1.2-7.4,4.4-9.3c3.7-2.3,6.9,0.7,9,2.7c2.2,2.1,3.2,2.8,4.2,2.3
					c1.4-0.7,1.6-3.7,1.7-6.4c0.2-3.5,0.4-7.5,3.6-9c3.5-1.7,6.3,1.6,8.6,4.2c1,1.1,3,3.5,3.7,3.2l0,0c0.4-0.7,0.2-3.5,0.1-4.8
					c-0.3-3.2-0.6-7.2,2.7-7.7l0.3,0c0,0,0,0,0,0c2.4,0,4.3,2.6,7.1,6.8c1.1,1.6,2.7,4,3.4,4.5c1,0.3,1.6,1.3,1.4,2.3
					c-0.2,1.1-1.3,1.8-2.4,1.6c-1.9-0.4-3.4-2.5-5.8-6.1c-0.8-1.2-2-3-3-4.1c0,0.8,0.1,1.8,0.2,2.5c0.3,3.5,0.7,7.9-2.8,9
					c-3.2,1.1-5.8-1.8-8-4.4c-1.1-1.3-3.1-3.6-3.8-3.2c-1,0.5-1.2,3.4-1.3,5.7c-0.2,3.7-0.5,7.9-3.9,9.7c-3.7,1.9-6.6-0.9-8.8-2.9
					c-2.4-2.3-3.3-2.7-4.2-2.2c-1.7,1-2.1,3.7-2.6,6.5c-0.6,3.6-1.2,7.7-4.8,9.7c-3.9,2-6.8-0.4-8.9-2.1c-2.3-1.9-3.1-2.3-4.4-1.5
					l-0.1,0c-1.9,1.1-2.6,3.5-3.4,6.2c-0.9,3.3-2,7-5.8,8.8l-0.1,0c-4,1.7-6.7-0.3-8.7-1.8c-2-1.4-2.9-2-4.7-1.2l-0.1,0
					c-2.2,1-3.1,2.8-4.2,5c-1.4,2.7-2.9,5.8-7.1,7l-0.1,0C49.3,152.1,48.5,152.2,47.8,152.2z M147.2,107.3L147.2,107.3L147.2,107.3z
					 M136.5,100.1L136.5,100.1L136.5,100.1z"/>
			</g>
			<g>
				<path class="st1" d="M-65.6,86.9c-4.8,0-5.4-3.4-5.6-4.9c0-0.1,0-0.2-0.1-0.3c-0.2,0-0.4,0.1-0.7,0.2c-1,0.4-2.2-0.2-2.5-1.2
					c-0.4-1,0.2-2.2,1.2-2.5c1.1-0.4,2.8-0.8,4.2,0c1.4,0.8,1.6,2.3,1.8,3.3c0.2,1.4,0.3,1.6,2.1,1.5c3.1-0.3,5.6-3.2,8.2-6.2
					c2.3-2.6,4.7-5.3,7.7-6.5c1.4-0.6,2.6-0.6,3.7-0.1c1.9,0.8,2.7,2.9,3.4,4.9c1.1,3.1,1.6,3.7,2.9,3.4c2.4-0.5,4.1-4.2,5.7-7.7
					c1.8-3.8,3.6-7.8,7-9.1c4.4-1.8,6.5,3,7.9,6.2c1.6,3.5,2.5,5.1,3.7,4.8c1.9-0.5,3.1-4.7,4-8.1c1.3-4.6,2.4-9,6-10
					c4-1.1,6.3,3.3,8.3,7.2c1.3,2.5,3.1,6,4.5,5.8c1.4-0.2,1.9-4.6,2.2-7.2c0.5-4.4,1-9,4.9-9.1l0.1,0l0.1,0
					c3.1,0.1,5.3,3.6,7.9,7.8c1.5,2.4,4,6.4,5.4,6.6c0.2-1-0.2-3.5-0.4-4.7c-0.4-2.8-0.8-4.9,0.8-6c0.4-0.3,1.4-0.8,2.9,0l0.1,0.1
					l0.1,0.1c1.3,1.1,3.2,3.4,5.4,6c2.6,3.1,6.4,7.9,8.2,8.6c1,0.4,1.5,1.6,1.1,2.6c-0.4,1-1.6,1.5-2.6,1.1c-2.5-1-5.6-4.7-9.7-9.8
					c-0.7-0.9-1.4-1.8-2.1-2.6c0.4,2.9,0.7,5.7-0.8,7.4c-0.7,0.8-1.7,1.2-2.8,1.2c0,0,0,0-0.1,0c-3.6,0-6.2-4.1-8.9-8.5
					c-1.2-1.9-3.3-5.3-4.4-5.8c-0.6,0.8-0.9,3.7-1.1,5.5c-0.5,4.7-1.1,10-5.4,10.7c-4.3,0.8-6.6-3.8-8.7-7.9
					c-0.9-1.8-2.8-5.4-3.7-5.2c-1.4,0.4-2.4,4.3-3.2,7.2c-1.3,4.9-2.7,10-6.9,11c-4.7,1.1-6.8-3.6-8.3-7c-0.6-1.4-1.3-2.9-1.9-3.7
					c-0.5-0.6-0.6-0.5-0.9-0.4c-1.9,0.7-3.4,4-4.8,7.1c-2.1,4.4-4.2,9-8.5,9.9l-0.1,0c-4.9,0.9-6.5-3.4-7.4-6
					c-0.3-0.8-0.9-2.4-1.2-2.6c0,0,0,0,0,0c-0.1,0-0.2,0-0.6,0.2l-0.1,0c-2.1,0.8-4,3-6.1,5.4c-2.9,3.3-6.2,7-10.8,7.5l-0.1,0
					C-65.1,86.8-65.3,86.9-65.6,86.9z"/>
			</g>
			<g>
				<path class="st1" d="M134.4,86.9c-4.8,0-5.4-3.4-5.6-4.9c0-0.1,0-0.2-0.1-0.3c-0.2,0-0.4,0.1-0.7,0.2c-1,0.4-2.2-0.2-2.5-1.2
					c-0.4-1,0.2-2.2,1.2-2.5c1.1-0.4,2.8-0.8,4.2,0c1.4,0.8,1.6,2.3,1.8,3.3c0.2,1.4,0.3,1.6,2.1,1.5c3.1-0.3,5.6-3.2,8.2-6.2
					c2.3-2.6,4.7-5.3,7.7-6.5c1.4-0.6,2.6-0.6,3.7-0.1c1.9,0.8,2.7,2.9,3.4,4.9c1.1,3.1,1.6,3.7,2.9,3.4c2.4-0.5,4.1-4.2,5.7-7.7
					c1.8-3.8,3.6-7.8,7-9.1c4.4-1.8,6.5,3,7.9,6.2c1.6,3.5,2.5,5.1,3.7,4.8c1.9-0.5,3.1-4.7,4-8.1c1.3-4.6,2.4-9,6-10
					c4-1.1,6.3,3.3,8.3,7.2c1.3,2.5,3.1,6,4.5,5.8c1.4-0.2,1.9-4.6,2.2-7.2c0.5-4.4,1-9,4.9-9.1l0.1,0l0.1,0
					c3.1,0.1,5.3,3.6,7.9,7.8c1.5,2.4,4,6.4,5.4,6.6c0.2-1-0.2-3.5-0.4-4.7c-0.4-2.8-0.8-4.9,0.8-6c0.4-0.3,1.4-0.8,2.9,0l0.1,0.1
					l0.1,0.1c1.3,1.1,3.2,3.4,5.3,6c2.6,3.1,6.4,7.9,8.2,8.6c1,0.4,1.5,1.6,1.1,2.6c-0.4,1-1.6,1.5-2.6,1.1c-2.5-1-5.6-4.7-9.7-9.8
					c-0.7-0.9-1.4-1.8-2.1-2.6c0.4,2.9,0.7,5.7-0.8,7.4c-0.7,0.8-1.7,1.2-2.8,1.2c0,0,0,0-0.1,0c-3.6,0-6.2-4.1-8.9-8.5
					c-1.2-1.9-3.3-5.3-4.4-5.8c-0.6,0.8-0.9,3.7-1.1,5.5c-0.5,4.7-1.1,10-5.4,10.7c-4.3,0.8-6.6-3.8-8.7-7.9
					c-0.9-1.8-2.8-5.4-3.7-5.2c-1.4,0.4-2.4,4.3-3.2,7.2c-1.3,4.9-2.7,10-6.9,11c-4.7,1.1-6.8-3.6-8.3-7c-0.6-1.4-1.3-2.9-1.9-3.7
					c-0.5-0.6-0.6-0.5-0.9-0.4c-1.9,0.7-3.4,4-4.8,7.1c-2.1,4.4-4.2,9-8.5,9.9l-0.1,0c-4.9,0.9-6.5-3.4-7.4-6
					c-0.3-0.8-0.9-2.4-1.2-2.6c0,0,0,0,0,0c-0.1,0-0.2,0-0.6,0.2l-0.1,0c-2.1,0.8-4,3-6.1,5.4c-2.9,3.3-6.2,7-10.8,7.5l-0.1,0
					C134.9,86.8,134.7,86.9,134.4,86.9z"/>
			</g>
			<g>
				<path class="st1" d="M25.5,120.2c-0.6,0-1.2-0.3-1.6-0.8c-0.6-0.9-0.4-2.2,0.5-2.8c0.4-0.3,0.6-0.4-0.1-2.5
					c-0.6-1.8-1.5-4.8,1.2-7.1c2.3-2.4,5.3-2.2,7.7-2.1c2.3,0.2,3.7,0.2,4.8-0.9c1-1.3,0.7-2.7,0.1-4.9c-0.7-2.5-1.5-5.5,0.8-8.6
					c2.4-3.6,5.9-3.5,8.4-3.5c2.3,0,3.6,0,4.6-1.3c1.1-1.7,0.8-3.5,0.2-6.3c-0.7-3-1.4-6.3,0.8-9.5c2.7-4.2,6.6-3,9-2.2
					c2.1,0.6,2.5,0.6,2.8,0.2c0.7-0.9,1.9-1,2.8-0.4c0.9,0.7,1,1.9,0.4,2.8c-2.1,2.7-5.1,1.8-7.2,1.2c-2.7-0.8-3.5-0.9-4.5,0.6l0,0
					c-1.2,1.8-0.8,4-0.2,6.4c0.6,3,1.4,6.3-0.8,9.5l0,0.1c-2.3,3-5.4,3-7.8,2.9c-2.5,0-3.9,0-5,1.7l-0.1,0.1
					c-1.1,1.5-0.8,2.9-0.2,5.2c0.6,2.5,1.5,5.5-0.9,8.5l-0.1,0.1c-2.4,2.6-5.5,2.4-8,2.2c-2.2-0.2-3.7-0.2-4.6,0.9l-0.2,0.2
					c-0.6,0.4-0.6,0.8,0,2.8c0.6,1.8,1.5,4.9-1.4,6.9C26.4,120.1,25.9,120.2,25.5,120.2z"/>
			</g>
			<g>
				<path class="st1" d="M105.7,57.3c-0.5,0-1.1-0.2-1.5-0.6c-4.1-4.3-4.6-7.9-5.1-11c-0.4-2.8-0.8-5.2-3.7-8.4l-0.1-0.1
					c-2.5-3.1-4.8-3.6-7.3-4.3c-2.7-0.7-5.8-1.4-8.9-5.3l0,0c-2.8-3.7-2.6-7.1-2.4-9.8c0.1-2.4,0.3-4.3-1.3-6.5l0-0.1
					c-1.1-1.7-2.2-1.7-4.4-1.5c-2,0.1-4.8,0.3-6.7-2.5l0-0.1c-1.6-2.5-0.6-5.5,0.3-8c0.1-0.3,0.3-0.8,0.4-1.2
					c-0.4,0.4-0.8,0.9-1,1.1c-0.9,1-1.7,2-3.1,1.4l-1.3-0.6l0.1-1.5C59.6-2.4,60-3,60.5-3.3c0.1-0.1,0.3-0.3,0.4-0.5
					c2.2-2.5,4-4.3,5.9-4.1c0.8,0.1,1.5,0.6,1.9,1.4C69.9-4.4,69-2,68.2,0.4C67.7,2.1,67,4,67.5,4.8c0.6,0.8,1.3,0.9,3.2,0.8
					c2.2-0.1,5.5-0.3,7.9,3.3c2.4,3.4,2.2,6.4,2.1,9.1c-0.2,2.6-0.3,4.6,1.6,7.1c2.2,2.7,4.2,3.2,6.7,3.8c2.8,0.7,6,1.5,9.4,5.6
					c3.6,4.1,4.2,7.5,4.6,10.5c0.5,2.9,0.8,5.5,4.1,8.9c0.8,0.8,0.7,2.1-0.1,2.8C106.7,57.1,106.2,57.3,105.7,57.3z"/>
			</g>
			<g>
				<path class="st1" d="M107.1,178.9c-0.1,0-0.1,0-0.2,0c-6.8-0.7-11.8-4.3-15.9-7.1c-2-1.4-3.9-2.8-5.7-3.5l-0.2-0.1
					c-0.3-0.1-0.4-0.2-0.5-0.2c-0.3,0.2-0.7,0.9-1.1,1.4c-1.3,1.9-3.4,5.1-8.5,4.1l-0.1,0c-5.3-1.2-5.3-6.9-5.3-10.3
					c0-0.2,0-0.5,0-0.7c-0.5,0.4-1,0.9-1.4,1.3c-4.2,3.9-7.2,6.4-9.6,6.2c-1.1-0.1-1.9-1.1-1.8-2.2c0.1-1.1,1-1.9,2.1-1.8
					c1.2-0.2,4.8-3.6,6.6-5.2c1-0.9,1.9-1.8,2.7-2.4c0.7-0.6,2.3-1.8,3.7-0.9c1.7,1,1.7,3.3,1.7,5.7c0,4,0.3,5.9,2.1,6.4
					c2.3,0.4,3.1-0.5,4.3-2.5c1-1.6,3-4.4,6.7-2.5c2.1,0.9,4.2,2.4,6.4,3.9c3.9,2.7,8.3,5.9,14,6.4c1.1,0.1,1.9,1.1,1.8,2.2
					C109,178.1,108.1,178.9,107.1,178.9z"/>
			</g>
			<g>
				<path class="st1" d="M23.5,18.3c-8.6,0-19.2-6.2-24.3-9.2C-0.9,9-1.1,8.9-1.2,8.8c-0.3,2.7-1,8.3-7.6,8.3c-0.1,0-0.2,0-0.3,0
					c-2,0-3.6-0.7-4.8-2c-1.9-2.1-2.1-5.2-2-7.7c-8.8,6.4-15,9.5-19.1,9.5c0,0,0,0,0,0c-1.1,0-2-0.9-2-2c0-1.1,0.9-2,2-2
					c0,0,0,0,0,0c2,0,7-1.3,18.8-10.3c0.4-0.3,0.6-0.5,0.8-0.6l0.3-0.2l0.4-0.1c0.7-0.2,1.5,0,2,0.5c1.1,0.9,1,2.3,0.9,4.2
					c-0.1,1.9-0.2,4.7,0.9,5.9c0.2,0.2,0.6,0.7,2,0.7c3,0.1,3.4-1.5,3.8-4.9C-5,6.6-4.8,5-3.4,4.3C-2.9,4.1-2,3.8-0.8,4.4
					c0.5,0.3,1.1,0.7,2,1.2C6,8.4,16,14.3,23.5,14.3c0,0,0,0,0,0c1.1,0,2,0.9,2,2C25.5,17.4,24.6,18.3,23.5,18.3
					C23.5,18.3,23.5,18.3,23.5,18.3z"/>
			</g>
			<g>
				<path class="st1" d="M156.4,59c-0.5,0-1.1-0.2-1.5-0.6c-3.7-4-4.3-6.9-4.8-9.7c-0.1-0.4-0.1-0.8-0.2-1.2l0-0.1
					c-0.3-1.9-1.2-5.5-3.2-8.4c-0.3-0.4-0.4-0.6-0.6-0.7c-0.1,0-0.2,0.1-0.3,0.1c-0.2,0.1-0.4,0.2-0.6,0.3c-0.7,0.4-3.4,2.1-5,1.1
					c-0.7-0.4-1.1-1.3-0.9-2.1c0.2-1.1,1.2-1.8,2.3-1.7c0,0,0,0,0,0c0.4-0.1,1-0.4,1.5-0.7l0.2-0.1c0.2-0.1,0.3-0.2,0.5-0.3
					c1.7-1,3.8-1.6,6.1,1.7c2.5,3.4,3.5,7.7,3.9,10c0.1,0.4,0.2,0.8,0.2,1.2c0.5,2.6,0.9,4.6,3.8,7.8c0.8,0.8,0.7,2.1-0.1,2.8
					C157.4,58.8,156.9,59,156.4,59z"/>
			</g>
			<g>
				<path class="st1" d="M124.2,177c-3.2,0-5.1-2.2-6.6-3.9c-1.5-1.7-2.4-2.7-4-2.5c-1.1,0.1-2.1-0.7-2.2-1.8
					c-0.1-1.1,0.7-2.1,1.8-2.2c3.7-0.4,5.7,2,7.4,3.9c1.5,1.7,2.4,2.7,4,2.5c1.6-0.2,2.3-1.3,3.4-3.3c1.2-2.2,2.8-4.9,6.5-5.3
					c1.1-0.1,2.1,0.7,2.2,1.8c0.1,1.1-0.7,2.1-1.8,2.2c-1.6,0.2-2.3,1.3-3.4,3.3c-1.2,2.2-2.8,4.9-6.5,5.3
					C124.7,177,124.4,177,124.2,177z"/>
			</g>
			<g>
				<path class="st1" d="M44.7,185.1c-1,0-2-0.2-3.1-0.5c-4.8-1.8-3.4-6.2-2.7-8.6l0.2-0.5c1-2.6,1.8-5.1,1.9-5.5
					c0.2-1.1,1.3-1.8,2.4-1.6c1.1,0.2,1.8,1.2,1.6,2.3c-0.1,0.8-1.1,3.7-2,6.1l-0.1,0.3c-1,3.1-0.7,3.2,0.2,3.6
					c2.3,0.9,5.1-0.3,7.7-1.7l0.4-0.2c2.6-1.4,4.9-2.5,9.4-1.1c1.1,0.3,1.7,1.4,1.3,2.5c-0.3,1.1-1.4,1.7-2.5,1.3
					c-3-0.9-4.1-0.4-6.4,0.9l-0.4,0.2C51,183.5,48,185.1,44.7,185.1z"/>
			</g>
			<g>
				<path class="st1" d="M164.3,9.4c-2.7,0-5-0.9-6-1.2c-0.3-0.1-0.5-0.2-0.8-0.3c-2.2-0.8-3.3-1.2-6.1,0.2c-1,0.5-2.2,0-2.7-1
					c-0.5-1,0-2.2,1-2.7c4.3-2,6.7-1.2,9.2-0.3c0.2,0.1,0.5,0.2,0.8,0.3l0.1,0c3.3,1.2,5.8,1.3,7.7,0.3c1.3-0.7,1.4-0.9,0.4-3.3
					l-0.1-0.3c-0.6-1.3-1.1-2.6-1.5-3.5c-0.1-0.3-0.3-0.7-0.4-0.9c-0.3-0.6-0.4-1.3-0.1-1.9c0.5-1,1.7-1.4,2.7-1
					c0.7,0.4,0.9,0.8,1.5,2.2c0.4,0.9,0.9,2.1,1.4,3.3l0.1,0.1l0.1,0.4c0.8,2,2.3,5.8-2.3,8.3C167.7,9.1,165.9,9.4,164.3,9.4z
					 M166.8-2.5C166.8-2.5,166.8-2.5,166.8-2.5C166.8-2.5,166.8-2.5,166.8-2.5z M166.8-2.5C166.8-2.5,166.8-2.5,166.8-2.5
					C166.8-2.5,166.8-2.5,166.8-2.5z M166.8-2.5C166.8-2.5,166.8-2.5,166.8-2.5C166.8-2.5,166.8-2.5,166.8-2.5z M166.8-2.5
					C166.8-2.5,166.8-2.5,166.8-2.5C166.8-2.5,166.8-2.5,166.8-2.5z M166.8-2.5C166.8-2.5,166.8-2.5,166.8-2.5
					C166.8-2.5,166.8-2.5,166.8-2.5z M166.8-2.5C166.8-2.5,166.8-2.5,166.8-2.5C166.8-2.5,166.8-2.5,166.8-2.5z M166.8-2.5
					C166.8-2.5,166.8-2.5,166.8-2.5C166.8-2.5,166.8-2.5,166.8-2.5z M166.8-2.5C166.8-2.5,166.8-2.5,166.8-2.5
					C166.8-2.5,166.8-2.5,166.8-2.5z M166.7-2.5C166.7-2.5,166.7-2.5,166.7-2.5C166.7-2.5,166.7-2.5,166.7-2.5z M166.7-2.5
					C166.7-2.5,166.7-2.5,166.7-2.5C166.7-2.5,166.7-2.5,166.7-2.5z M166.7-2.5L166.7-2.5L166.7-2.5z"/>
			</g>
			<g>
				<path class="st1" d="M35.7,18.1c-0.9,0-1.7-0.6-1.9-1.5c-0.4-1.5-1.6-2-3.7-2.9c-2.3-0.9-5.3-2-6.2-5.6c-0.9-3.6,1.1-6,2.7-7.9
					c1.5-1.7,2.3-2.8,1.9-4.3c-0.3-1.1,0.4-2.2,1.4-2.4c1.1-0.3,2.2,0.4,2.4,1.4c0.9,3.6-1.1,6-2.7,7.9c-1.5,1.7-2.3,2.8-1.9,4.3
					c0.4,1.5,1.6,2,3.7,2.9c2.3,0.9,5.3,2,6.2,5.6c0.3,1.1-0.4,2.2-1.4,2.4C36,18.1,35.8,18.1,35.7,18.1z"/>
			</g>
			<g>
				<path class="st1" d="M58.5,111.3c-0.5,0-1-0.2-1.4-0.6c-0.8-0.8-0.8-2.1,0-2.8c1.1-1.1,0.9-2.4,0.6-4.7
					c-0.4-2.5-0.9-5.6,1.7-8.2c2.6-2.6,5.7-2.1,8.2-1.7c2.2,0.4,3.6,0.5,4.7-0.6c0.8-0.8,2-0.8,2.8,0c0.8,0.8,0.8,2.1,0,2.8
					c-2.6,2.6-5.7,2.1-8.2,1.7c-2.2-0.4-3.6-0.5-4.7,0.6c-1.1,1.1-0.9,2.4-0.6,4.7c0.4,2.5,0.9,5.6-1.7,8.2
					C59.5,111.1,59,111.3,58.5,111.3z"/>
			</g>
			<g>
				<path class="st1" d="M166.9,156.1c-0.4,0-0.8-0.1-1.2-0.4c-0.9-0.7-1.1-1.9-0.4-2.8c1.6-2.1,1.1-3.1,0.2-4.9
					c-1-2.1-2.4-5.1,0.8-9.1c2.5-3.6,5.9-4.8,8.9-5.9c2.6-1,4.9-1.8,6.2-4c0.9-1.8,0.4-3-0.5-5c-1-2.1-2.4-5-0.3-8.8
					c1.8-3.8,4.9-4.6,7.2-5.1c2-0.5,2.7-0.7,3.1-1.7c0.4-1.5-0.4-3.1-1.2-5c-1.1-2.4-2.2-5.1-1.3-8.2c0.4-1.5,1.1-2.5,2.1-3
					c1.3-0.6,2.6-0.2,3.5,0.2c0.2-0.2,0.5-0.3,0.8-0.3c1.1-0.2,2.1,0.6,2.3,1.7c0.2,1.5-0.4,2.3-0.9,2.7c-1.2,0.9-2.5,0.2-3.3-0.1
					c-0.2-0.1-0.4-0.2-0.6-0.3c0,0,0,0.1,0,0.1l0,0.2c-0.5,1.6,0.3,3.4,1.1,5.4c1,2.3,2.2,5,1.4,7.8l-0.1,0.2
					c-1.2,3.2-3.9,3.8-6,4.3c-2.3,0.5-3.6,0.9-4.5,3l-0.1,0.1c-1,1.9-0.6,3.1,0.4,5.2c1,2.1,2.3,4.9,0.4,8.6l-0.1,0.1
					c-2.1,3.5-5.4,4.7-8.3,5.7c-2.7,1-5.3,1.9-7,4.5l-0.1,0.1c-1.7,2.1-1.2,3.1-0.3,5c1,2.1,2.4,5-0.7,9
					C168.1,155.8,167.5,156.1,166.9,156.1z M192.5,95.6L192.5,95.6L192.5,95.6z"/>
			</g>
			<g>
				<path class="st1" d="M56.7,46.2c-1,0-1.8-0.7-2-1.7c-0.1-1.1,0.6-2.1,1.7-2.2c4.5-0.6,7.8-1.7,9.8-2.4c2-0.7,3.2-1.1,4.2,0
					c0.6,0.6,0.7,1.5,0.4,2.4c-0.4,1-1.5,1.5-2.5,1.1c-0.2,0.1-0.5,0.2-0.8,0.3c-2.1,0.7-5.7,1.9-10.5,2.5
					C56.8,46.2,56.7,46.2,56.7,46.2z M67,40.7L67,40.7L67,40.7z"/>
			</g>
			<g>
				<path class="st1" d="M53.2,7.7c-0.7,0-1.3-0.3-1.7-0.9c-2-3.1-3.1-7.7-3-12.5c0-1.1,1-2,2-2c1.1,0,2,0.9,2,2.1
					c-0.1,4,0.8,7.9,2.3,10.3c0.6,0.9,0.3,2.2-0.6,2.8C53.9,7.6,53.6,7.7,53.2,7.7z"/>
			</g>
			<g>
				<path class="st1" d="M100.5,93.9c-0.3,0-0.7-0.1-1-0.3c-0.9-0.6-1.3-1.8-0.7-2.7c3-5,4.4-9.5,4.3-11.3c-0.1-1.1,0.8-2.1,1.9-2.1
					c1.1-0.1,2.1,0.8,2.1,1.9c0.2,3-1.6,8.3-4.8,13.6C101.9,93.6,101.2,93.9,100.5,93.9z"/>
			</g>
			<g>
				<path class="st1" d="M181.4,185.2c-0.5,0-1-0.2-1.4-0.6c-3.1-3-4.9-7.8-4.7-12.5c0-1.1,1-2,2.1-1.9c1.1,0,2,1,1.9,2.1
					c-0.1,3.6,1.2,7.3,3.5,9.5c0.8,0.8,0.8,2,0,2.8C182.4,185,181.9,185.2,181.4,185.2z"/>
			</g>
			<g>
				<path class="st1" d="M-5.6,197.4c-0.6,0-1.2-0.3-1.6-0.8c-0.6-0.9-0.4-2.2,0.5-2.8c4.9-3.5,7.3-7,7.6-8.1
					c-0.1-1,0.5-1.9,1.5-2.1c1.1-0.3,2.2,0.4,2.4,1.4c0.8,2.9-4.1,8.4-9.2,12C-4.8,197.3-5.2,197.4-5.6,197.4z M0.9,186.1
					C0.9,186.1,0.9,186.1,0.9,186.1C0.9,186.1,0.9,186.1,0.9,186.1z"/>
			</g>
			<g>
				<path class="st1" d="M10.4,121.9C10.4,121.9,10.3,121.9,10.4,121.9c-3.9-0.1-7.1-0.5-9.2-0.8c-0.7-0.1-1.4-0.2-1.9-0.3
					c-0.2,0.2-0.5,0.4-0.8,0.5c-1.1,0.3-2.2-0.3-2.5-1.3c-0.3-0.8-0.1-1.7,0.4-2.3c1-1.2,2.5-1,5.4-0.6c2.1,0.3,5,0.7,8.7,0.8
					c1.1,0,2,0.9,2,2C12.4,121.1,11.5,121.9,10.4,121.9z M-0.2,118.9C-0.2,118.9-0.2,118.9-0.2,118.9
					C-0.2,118.9-0.2,118.9-0.2,118.9z"/>
			</g>
			<g>
				<path class="st1" d="M81.7,157c-0.6,0-1.2-0.3-1.6-0.7c-0.7-0.9-0.6-2.1,0.3-2.8c2.2-1.8,3.3-3.5,3.5-4.1c0-0.9,0.6-1.8,1.6-2
					c1.1-0.2,2.1,0.5,2.4,1.6c0.5,2.4-3,6-4.9,7.6C82.6,156.9,82.1,157,81.7,157z M84,149.7C84,149.7,84,149.7,84,149.7
					C84,149.7,84,149.7,84,149.7z"/>
			</g>
			<g>
				<path class="st1" d="M149.9,95.1c-0.1,0-0.2,0-0.2,0c-2.3-0.3-4.1-0.8-5.2-1.2c-2.5-1-2.7-1.5-2.9-2.1c-0.2-0.7,0-1.6,0.5-2.1
					c0.6-0.5,1.4-0.7,2.1-0.4c0.2,0.1,0.3,0.2,0.5,0.3c0.4,0.2,2.3,1.2,5.5,1.5c1.1,0.1,1.9,1.1,1.8,2.2
					C151.8,94.3,150.9,95.1,149.9,95.1z"/>
			</g>
			<g>
				<path class="st1" d="M14.9,146C14.9,146,14.9,146,14.9,146c-2.5-0.1-4.5-0.5-5.6-0.7c-0.1,0-0.3-0.1-0.4-0.1c0,0,0,0,0,0
					c-1,0.4-2.2-0.1-2.6-1.2c-0.3-0.8-0.2-1.6,0.3-2.2c0.9-1,2.1-0.8,3.4-0.5c1.1,0.2,2.8,0.5,4.9,0.6c1.1,0,2,1,1.9,2.1
					C16.9,145.2,16,146,14.9,146z M10,142.7L10,142.7C10,142.7,10,142.7,10,142.7z"/>
			</g>
			<g>
				<path class="st1" d="M147.4,185c-1.1,0-2-0.9-2-2c0-1.1,0.9-2,2-2c1.9,0,3.4-0.3,4.6-0.4c1.6-0.2,2.8-0.4,3.7,0.6
					c0.5,0.6,0.7,1.3,0.5,2.1c-0.3,1.1-1.4,1.7-2.5,1.4c-0.2-0.1-0.4-0.1-0.6-0.2c-0.2,0-0.4,0.1-0.6,0.1
					C151.4,184.7,149.6,185,147.4,185C147.4,185,147.4,185,147.4,185z M152.2,182.2C152.2,182.2,152.2,182.2,152.2,182.2
					C152.2,182.2,152.2,182.2,152.2,182.2z"/>
			</g>
			<g>
				<path class="st1" d="M153.6,137.9c-0.3,0-0.6-0.1-0.9-0.2c-3.1-1.6-5.2-4.5-4.9-7.2c0.1-1.1,1.1-1.9,2.2-1.8
					c1.1,0.1,1.9,1.1,1.8,2.2c-0.1,0.6,0.7,2.2,2.7,3.2c1,0.5,1.4,1.7,0.9,2.7C155,137.5,154.3,137.9,153.6,137.9z"/>
			</g>
			<g>
				<path class="st1" d="M199.7,176.8c-2.1,0-3.7-0.7-4.7-2c-0.9-1.3-0.9-3-0.1-4.6c2.4-4.4,3.9-6.4,5.8-6.4c0,0,0,0,0,0l0.2,0
					c1.6,0.1,2.8,1.7,4.2,3.7c0.4,0.5,0.8,1.1,1.2,1.6c1,1.2,1.3,2.6,0.8,3.9c-0.7,1.8-2.7,3.2-5.6,3.8l-0.1,0
					C200.8,176.8,200.2,176.8,199.7,176.8z M198.3,172.5c0.2,0.1,0.9,0.4,2.4,0.2c1.6-0.3,2.4-0.8,2.6-1.1c0,0,0-0.1-0.1-0.1
					c-0.5-0.6-0.9-1.2-1.3-1.8c-0.3-0.5-0.8-1-1.1-1.5c-0.5,0.6-1.2,1.8-2.3,3.8C198.4,172.3,198.3,172.5,198.3,172.5z M200.1,167.6
					L200.1,167.6L200.1,167.6z"/>
			</g>
			<g>
				<path class="st1" d="M223.5,18.3c-8.6,0-19.2-6.2-24.3-9.2c-0.1-0.1-0.3-0.2-0.4-0.2c-0.3,2.7-1.1,8.5-7.9,8.3
					c-2,0-3.6-0.7-4.8-2c-1.9-2.1-2.1-5.2-2-7.7c-8.8,6.4-15,9.5-19.1,9.5c0,0,0,0,0,0c-1.1,0-2-0.9-2-2c0-1.1,0.9-2,2-2
					c0,0,0,0,0,0c2,0,7-1.3,18.8-10.3c0.4-0.3,0.6-0.5,0.8-0.6l0.3-0.2l0.4-0.1c0.7-0.2,1.5,0,2,0.5c1.1,0.9,1,2.3,0.9,4.2
					c-0.1,1.9-0.2,4.7,0.9,5.9c0.2,0.2,0.6,0.7,2,0.7c3,0.1,3.4-1.5,3.8-4.9c0.2-1.6,0.3-3.2,1.7-3.9c0.5-0.2,1.4-0.5,2.6,0.1
					c0.5,0.3,1.1,0.7,2,1.2c4.8,2.8,14.7,8.7,22.3,8.7c0,0,0,0,0,0c1.1,0,2,0.9,2,2C225.5,17.4,224.6,18.3,223.5,18.3
					C223.5,18.3,223.5,18.3,223.5,18.3z"/>
			</g>
			<g>
				<path class="st1" d="M194.4,197.4c-0.6,0-1.2-0.3-1.6-0.8c-0.6-0.9-0.4-2.2,0.5-2.8c4.9-3.5,7.3-7,7.6-8.1
					c-0.1-1,0.5-1.9,1.5-2.1c1.1-0.3,2.2,0.4,2.4,1.4c0.8,2.9-4.1,8.4-9.2,12C195.2,197.3,194.8,197.4,194.4,197.4z M200.9,186.1
					C200.9,186.1,200.9,186.1,200.9,186.1C200.9,186.1,200.9,186.1,200.9,186.1z"/>
			</g>
			<g>
				<path class="st1" d="M210.4,121.9C210.4,121.9,210.3,121.9,210.4,121.9c-3.9-0.1-7.1-0.5-9.2-0.8c-0.7-0.1-1.4-0.2-1.9-0.3
					c-0.2,0.2-0.5,0.4-0.8,0.5c-1.1,0.3-2.2-0.3-2.5-1.3c-0.3-0.8-0.1-1.7,0.4-2.3c1-1.2,2.5-1,5.4-0.6c2.1,0.3,5,0.7,8.7,0.8
					c1.1,0,2,0.9,2,2C212.4,121.1,211.5,121.9,210.4,121.9z M199.8,118.9L199.8,118.9L199.8,118.9z"/>
			</g>
			<g>
				<path class="st1" d="M48.8,37.3c-0.7,0-1.3-0.3-1.7-0.9c-0.6-0.9-0.3-2.2,0.6-2.8c2.3-1.5,3.6-3.1,3.9-3.6
					c0.1-0.8,0.6-1.5,1.4-1.7c1.1-0.3,2.2,0.2,2.5,1.3c1,3.1-5.5,7.4-5.6,7.4C49.6,37.2,49.2,37.3,48.8,37.3z M51.7,30.8
					C51.7,30.8,51.7,30.8,51.7,30.8C51.7,30.8,51.7,30.8,51.7,30.8z"/>
			</g>
			<g>
				<path class="st1" d="M145.5,122.9c-1,0-1.9-0.8-2-1.8c-0.1-1.1,0.7-2.1,1.8-2.2c4.2-0.4,7.4-1.3,9.5-1.9c2.2-0.6,3.5-1,4.5,0.1
					c0.6,0.6,0.7,1.5,0.4,2.3c-0.4,1-1.5,1.6-2.6,1.2c-0.1,0-0.2-0.1-0.2-0.1c-0.3,0.1-0.7,0.2-1.1,0.3c-2.1,0.6-5.6,1.6-10.2,2
					C145.6,122.9,145.5,122.9,145.5,122.9z M155.9,118.1C155.9,118.1,155.9,118.1,155.9,118.1C155.9,118.1,155.9,118.1,155.9,118.1z
					"/>
			</g>
			<g>
				<path class="st1" d="M35.2,167.5c-0.1,0-0.3,0-0.4,0c-6.6-1.3-11.3-4.2-12.3-6.3c-0.5-1-0.2-1.8,0-2.2c0.5-1,1.7-1.4,2.7-0.9
					c0.6,0.3,1,0.9,1.1,1.5c0.8,0.9,4,3,9.3,4c1.1,0.2,1.8,1.3,1.6,2.3C37,166.8,36.1,167.5,35.2,167.5z M26,160.7
					C26,160.7,26,160.7,26,160.7C26,160.7,26,160.7,26,160.7z M26,160.7"/>
			</g>
			<g>
				<path class="st1" d="M122.4,10.7c-0.3,0-0.5-0.1-0.8-0.2c-1-0.4-1.5-1.6-1.1-2.6c2.5-5.9,3.3-10.1,3.2-12
					c-0.1-1.1,0.8-2,1.9-2.1c1.1-0.1,2,0.8,2.1,1.9c0.1,3.1-1.1,8.2-3.5,13.8C123.9,10.2,123.2,10.7,122.4,10.7z"/>
			</g>
			<g>
				<path class="st1" d="M105.7,257.8c-0.5,0-1.1-0.2-1.5-0.6c-4.1-4.3-4.6-7.9-5.1-11c-0.4-2.8-0.8-5.2-3.7-8.4l-0.1-0.1
					c-2.5-3.1-4.8-3.6-7.3-4.3c-2.7-0.7-5.8-1.4-8.9-5.3l0,0c-2.8-3.7-2.6-7.1-2.4-9.8c0.1-2.4,0.3-4.3-1.3-6.5l0-0.1
					c-1.1-1.7-2.2-1.7-4.4-1.5c-2,0.1-4.8,0.3-6.7-2.5l0-0.1c-1.6-2.5-0.6-5.5,0.3-8c0.1-0.3,0.3-0.8,0.4-1.2
					c-0.4,0.4-0.8,0.9-1,1.1c-0.9,1-1.7,2-3.1,1.4l-1.3-0.6l0.1-1.5c0.1-0.6,0.4-1.2,0.9-1.5c0.1-0.1,0.3-0.3,0.4-0.5
					c2.2-2.5,4-4.3,5.9-4.1c0.8,0.1,1.5,0.6,1.9,1.4c1.2,2.1,0.4,4.5-0.4,6.8c-0.6,1.7-1.2,3.6-0.7,4.4c0.6,0.8,1.3,0.9,3.2,0.8
					c2.2-0.1,5.5-0.3,7.9,3.3c2.4,3.4,2.2,6.4,2.1,9.1c-0.2,2.6-0.3,4.6,1.6,7.1c2.2,2.7,4.2,3.2,6.7,3.8c2.8,0.7,6,1.5,9.4,5.6
					c3.6,4.1,4.2,7.5,4.6,10.5c0.5,2.9,0.8,5.5,4.1,8.9c0.8,0.8,0.7,2.1-0.1,2.8C106.7,257.6,106.2,257.8,105.7,257.8z"/>
			</g>
			<g>
				<path class="st1" d="M164.3,209.9c-2.7,0-5-0.9-6-1.2c-0.3-0.1-0.5-0.2-0.8-0.3c-2.2-0.8-3.3-1.2-6.1,0.2c-1,0.5-2.2,0-2.7-1
					c-0.5-1,0-2.2,1-2.7c4.3-2,6.7-1.2,9.2-0.3c0.2,0.1,0.5,0.2,0.8,0.3l0.1,0c3.3,1.2,5.8,1.3,7.7,0.3c1.3-0.7,1.4-0.9,0.4-3.3
					l-0.1-0.3c-0.6-1.3-1.1-2.6-1.5-3.4c-0.1-0.3-0.3-0.7-0.4-0.9c-0.3-0.6-0.4-1.3-0.1-1.9c0.5-1,1.7-1.4,2.7-1
					c0.7,0.4,0.9,0.7,1.5,2.2c0.4,0.9,0.9,2.1,1.4,3.3l0.1,0.1l0.1,0.4c0.8,2,2.3,5.8-2.3,8.3C167.7,209.6,165.9,209.9,164.3,209.9z
					 M166.8,198C166.8,198,166.8,198,166.8,198C166.8,198,166.8,198,166.8,198z M166.8,198C166.8,198,166.8,198,166.8,198
					C166.8,198,166.8,198,166.8,198z M166.8,198C166.8,198,166.8,198,166.8,198C166.8,198,166.8,198,166.8,198z M166.8,198
					C166.8,198,166.8,198,166.8,198C166.8,198,166.8,198,166.8,198z M166.8,198C166.8,198,166.8,198,166.8,198
					C166.8,198,166.8,198,166.8,198z M166.8,198C166.8,198,166.8,198,166.8,198C166.8,198,166.8,198,166.8,198z M166.8,198
					C166.8,198,166.8,198,166.8,198C166.8,198,166.8,198,166.8,198z M166.8,198C166.8,198,166.8,198,166.8,198
					C166.8,198,166.8,198,166.8,198z M166.7,198C166.7,198,166.7,198,166.7,198C166.7,198,166.7,198,166.7,198z M166.7,198
					C166.7,198,166.7,198,166.7,198C166.7,198,166.7,198,166.7,198z M166.7,198L166.7,198L166.7,198z"/>
			</g>
			<g>
				<path class="st1" d="M35.7,218.6c-0.9,0-1.7-0.6-1.9-1.5c-0.4-1.5-1.6-2-3.7-2.9c-2.3-0.9-5.3-2-6.2-5.6c-0.9-3.6,1.1-6,2.7-7.9
					c1.5-1.7,2.3-2.8,1.9-4.3c-0.3-1.1,0.4-2.2,1.4-2.4c1.1-0.3,2.2,0.4,2.4,1.4c0.9,3.6-1.1,6-2.7,7.9c-1.5,1.7-2.3,2.8-1.9,4.3
					c0.4,1.5,1.6,2,3.7,2.9c2.3,0.9,5.3,2,6.2,5.6c0.3,1.1-0.4,2.2-1.4,2.4C36,218.6,35.8,218.6,35.7,218.6z"/>
			</g>
			<g>
				<path class="st1" d="M53.2,208.2c-0.7,0-1.3-0.3-1.7-0.9c-2-3.1-3.1-7.7-3-12.5c0-1.1,0.9-2,2-2c0,0,0,0,0,0c1.1,0,2,0.9,2,2.1
					c-0.1,4,0.8,7.9,2.3,10.3c0.6,0.9,0.3,2.2-0.6,2.8C53.9,208.1,53.6,208.2,53.2,208.2z"/>
			</g>
			<g>
				<path class="st1" d="M122.4,211.2c-0.3,0-0.5-0.1-0.8-0.2c-1-0.4-1.5-1.6-1.1-2.6c2.5-5.9,3.3-10.1,3.2-12
					c-0.1-1.1,0.8-2,1.9-2.1c1.1-0.1,2,0.8,2.1,1.9c0.1,3.1-1.1,8.2-3.5,13.8C123.9,210.7,123.2,211.2,122.4,211.2z"/>
			</g>
			<g>
				<path class="st1" d="M68.2,85.4c-0.8,0-1.5-0.4-1.8-1.1c-0.9-0.6-1.1-1.8-0.5-2.7c1-1.5,2.1-2,3.2-1.7c0.5,0.2,1.7,0.7,1.7,2.8
					c0,1.4-1,2.3-2,2.7C68.6,85.3,68.4,85.4,68.2,85.4z"/>
			</g>
			<g>
				<path class="st1" d="M22,185.6c-0.8,0-1.5-0.4-1.8-1.1c-0.9-0.6-1.1-1.8-0.5-2.7c1-1.5,2.1-2,3.2-1.7c0.5,0.2,1.7,0.7,1.7,2.8
					c0,1.4-1,2.3-2,2.7C22.4,185.5,22.2,185.6,22,185.6z"/>
			</g>
			<g>
				<path class="st1" d="M156.6,168.1c-0.8,0-1.5-0.4-1.8-1.1c-0.9-0.6-1.1-1.8-0.5-2.7c1-1.5,2.1-2,3.2-1.7
					c0.5,0.2,1.7,0.7,1.7,2.8c0,1.4-1,2.3-2,2.7C157,168,156.8,168.1,156.6,168.1z"/>
			</g>
			<g>
				<path class="st1" d="M163.8,98.8c-0.8,0-1.5-0.4-1.8-1.1c-0.9-0.6-1.1-1.8-0.5-2.7c1-1.5,2.1-2,3.2-1.7c0.5,0.2,1.7,0.7,1.7,2.8
					c0,1.4-1,2.3-2,2.7C164.2,98.8,164,98.8,163.8,98.8z"/>
			</g>
			<g>
				<path class="st1" d="M96,15.3c-0.8,0-1.5-0.4-1.8-1.1c-0.9-0.6-1.1-1.8-0.5-2.7c1-1.5,2.1-2,3.2-1.7c0.5,0.2,1.7,0.7,1.7,2.8
					c0,1.4-1,2.3-2,2.7C96.4,15.2,96.2,15.3,96,15.3z"/>
			</g>
			<g>
				<path class="st1" d="M163.2,30.5c-0.8,0-1.5-0.4-1.8-1.1c-0.9-0.6-1.1-1.8-0.5-2.7c1-1.5,2.1-2,3.2-1.7c0.5,0.2,1.7,0.7,1.7,2.8
					c0,1.4-1,2.3-2,2.7C163.6,30.4,163.4,30.5,163.2,30.5z"/>
			</g>
			<g>
				<path class="st1" d="M16.2,38.3c-0.8,0-1.5-0.4-1.8-1.1c-0.9-0.6-1.1-1.8-0.5-2.7c1-1.5,2.1-2,3.2-1.7c0.5,0.2,1.7,0.7,1.7,2.8
					c0,1.4-1,2.3-2,2.7C16.6,38.3,16.4,38.3,16.2,38.3z"/>
			</g>
			<g>
				<path class="st1" d="M51.2,123.5c-0.8,0-1.5-0.4-1.8-1.1c-0.9-0.6-1.1-1.8-0.5-2.7c1-1.5,2.1-2,3.2-1.7c0.5,0.2,1.7,0.7,1.7,2.8
					c0,1.4-1,2.3-2,2.7C51.6,123.5,51.4,123.5,51.2,123.5z"/>
			</g>
			<g>
				<path class="st1" d="M329.4,68.2c-2.1,0-3.8-0.7-4.7-2.1c-0.9-1.4-0.9-3.1,0.1-4.8l0.1-0.2c2.1-3.7,3.6-6.4,6-6l0.2,0
					c1.4,0.3,2.4,1.7,4.1,3.9c0.4,0.5,0.7,1,1.1,1.4c0.9,1.2,1.2,2.5,0.7,3.8c-0.7,1.9-2.9,3.2-5.9,3.7l-0.1,0
					C330.3,68.1,329.8,68.2,329.4,68.2z M328,63.9c0.2,0.1,0.8,0.4,2.2,0.2c1.7-0.3,2.5-0.8,2.7-1.1c-0.4-0.5-0.8-1-1.1-1.5
					c-0.4-0.5-0.9-1.3-1.4-1.8c-0.7,0.9-1.6,2.5-2.1,3.5l-0.1,0.2C328,63.6,328,63.8,328,63.9z M333,63.1L333,63.1L333,63.1z"/>
			</g>
			<g>
				<path class="st1" d="M277.6,121.9c-0.6,0-1.2-0.1-1.9-0.2l-0.1,0c-3.1-0.7-5.2-2.2-5.9-4c-0.4-1.2-0.1-2.6,0.8-3.6
					c0.4-0.4,0.8-1,1.2-1.5c1.5-2,2.5-3.3,3.8-3.7l0.2,0c2.5-0.6,4.3,2.6,6.3,6.3c1,1.8,0.9,3.6,0,4.9
					C281,121.2,279.5,121.9,277.6,121.9z M276.6,117.8c1.3,0.2,1.9,0,2.1-0.1c0-0.1,0-0.3-0.2-0.7l0,0c-0.4-0.8-1.4-2.7-2.2-3.7
					c-0.4,0.5-0.9,1.2-1.3,1.7c-0.4,0.5-0.8,1.1-1.2,1.6C274.1,116.8,275,117.4,276.6,117.8z"/>
			</g>
			<g>
				<path class="st1" d="M286,192c-1.5,0-2.9-0.4-3.9-1.1c-1.1-0.8-1.6-2.1-1.5-3.4c0.4-3,3.5-6.8,4.1-7.5l0.1-0.1
					c0.8-0.8,1.7-1,2.3-0.9c1.5,0.1,2.5,1.3,3.4,2.7c0.3,0.5,0.7,0.9,1.1,1.4c1,1.1,2.2,2.8,1.8,4.8c-0.3,1.5-1.4,2.6-3.4,3.4l0,0
					C288.7,191.7,287.3,192,286,192z M289.2,189.3L289.2,189.3L289.2,189.3z M284.6,187.7c0.6,0.3,2.2,0.5,3.8-0.3
					c0.7-0.3,1-0.5,1.1-0.6c-0.1-0.2-0.2-0.5-0.9-1.3c-0.5-0.6-0.9-1.1-1.3-1.6c-0.1-0.1-0.2-0.3-0.4-0.5
					C285.9,185,284.8,186.7,284.6,187.7z"/>
			</g>
			<g>
				<path class="st1" d="M334.9,196c-1.7,0-3.2-0.4-4.2-1.3c-1.1-0.9-1.5-2.2-1.2-3.6c0.6-2.6,3.1-6.1,4.3-7.3l0.1-0.1
					c0.6-0.5,1.4-0.8,2.2-0.7c1.5,0.2,2.4,1.3,3.4,2.7c0.4,0.5,0.7,1,1.2,1.5c0.5,0.6,2.2,2.4,1.7,4.6c-0.4,1.5-1.6,2.7-3.8,3.5
					C337.4,195.8,336.1,196,334.9,196z M333.5,191.7c0.5,0.3,2,0.5,3.6-0.2c0.8-0.3,1.2-0.6,1.3-0.7c0-0.1-0.2-0.5-0.7-1
					c-0.5-0.6-1-1.2-1.4-1.7c-0.1-0.2-0.3-0.4-0.4-0.5C335,188.7,333.9,190.5,333.5,191.7z"/>
			</g>
			<g>
				<path class="st1" d="M208.6,102.1c-1.6,0-3-0.4-3.9-1.2c-3-2.4-0.6-6.1,0.9-8.4c0.2-0.3,0.3-0.5,0.5-0.8l0,0
					c0.8-1.3,1.8-2.7,3.5-2.7c0,0,0.1,0,0.1,0c1.7,0,2.7,1.5,3.4,2.4c0.3,0.5,0.7,0.9,1,1.3c1.3,1.5,3.3,4.1,1.2,6.6
					c-1.3,1.6-3.8,2.4-5.7,2.6C209.3,102.1,208.9,102.1,208.6,102.1z M207.3,97.9c0.2,0.1,0.8,0.3,2,0.2c1.5-0.1,2.6-0.7,3-1.1
					c-0.2-0.4-0.8-1.1-1.2-1.6c-0.4-0.5-0.8-1-1.2-1.5c-0.1-0.1-0.1-0.1-0.1-0.2c-0.1,0.1-0.1,0.2-0.2,0.3c-0.2,0.3-0.3,0.5-0.5,0.8
					C208.4,95.6,207.3,97.2,207.3,97.9z M207.3,98L207.3,98L207.3,98z"/>
			</g>
			<g>
				<path class="st1" d="M328.3,155.7c-0.2,0-0.3,0-0.5-0.1c-7.1-1.7-12.5-4.7-15.3-7c-0.5-0.4-0.7-1-0.7-1.6c0-0.6,0.3-1.2,0.8-1.5
					c8.1-6.3,9.6-7.4,11.4-6.4c0.3,0.2,0.6,0.5,0.8,0.8c2.2,4.1,4,8.5,5.4,13.2c0.2,0.7,0,1.4-0.5,1.9
					C329.3,155.5,328.8,155.7,328.3,155.7z M317.2,147c2,1.3,4.7,2.6,8,3.7c-0.9-2.6-2-5-3.1-7.3C320.9,144.2,319,145.6,317.2,147z"
					/>
			</g>
			<g>
				<path class="st1" d="M370,51.1c-0.8,0-1.6-0.5-1.9-1.3c-0.3-0.8-0.1-1.7,0.6-2.3c6.1-4.9,9.3-10.2,10.2-13.6
					c0.2-0.9,1-1.5,1.9-1.5h0c0.9,0,1.7,0.6,1.9,1.5c1.4,5,4.8,9.2,9.7,12.2c0.7,0.5,1.1,1.4,0.9,2.2c-0.2,0.9-1,1.5-1.8,1.5
					c-4.3,0.2-8.5,0.5-12.6,0.8c-3.1,0.2-6,0.4-8.8,0.6C370.1,51.1,370.1,51.1,370,51.1z M380.9,39.6c-1.3,2.4-3.2,4.8-5.3,7.1
					c1-0.1,2.1-0.1,3.2-0.2c2.4-0.2,4.8-0.3,7.2-0.5C383.8,44.1,382.1,42,380.9,39.6z"/>
			</g>
			<g>
				<path class="st1" d="M335.7,33C335.6,33,335.6,33,335.7,33c-5.4-0.2-10.2-0.6-14.4-1c-1.9-0.2-3.6-0.3-5.2-0.5
					c-0.8-0.1-1.5-0.6-1.8-1.4c-0.2-0.8,0-1.6,0.7-2.2c5.8-4.6,9-9.2,9.7-11.3c0.3-0.8,1-1.3,1.9-1.3c0,0,0,0,0,0
					c0.8,0,1.6,0.6,1.9,1.4c1.7,5,4.5,9.3,8.5,12.8c0.6,0.6,0.8,1.5,0.5,2.2C337.2,32.5,336.5,33,335.7,33z M321.1,27.9
					c0.2,0,0.4,0,0.5,0.1c2.8,0.3,5.8,0.5,9,0.8c-1.7-2.1-3.2-4.3-4.3-6.8C325.1,23.8,323.3,25.8,321.1,27.9z"/>
			</g>
			<g>
				<path class="st1" d="M277.9,74.7c-0.7,0-1.4-0.4-1.8-1.1c-0.4-0.8-0.3-1.7,0.4-2.4c4.7-4.6,8.1-10.1,9.7-15.5
					c0.3-0.9,1.1-1.5,2-1.4c0.9,0,1.7,0.6,1.9,1.5c1.1,4.2,4.6,8.2,9.8,10.8c0.8,0.4,1.2,1.3,1.1,2.1c-0.1,0.9-0.8,1.5-1.7,1.6
					c-3.6,0.5-7.5,1.3-11.6,2.3c-3,0.7-6.1,1.4-9.3,2C278.2,74.7,278,74.7,277.9,74.7z M288.3,61.7c-1.1,2.4-2.7,5.1-4.8,7.9
					c1.1-0.2,2.2-0.5,3.3-0.7c2.3-0.5,4.6-1,6.7-1.4C291.3,65.7,289.6,63.8,288.3,61.7z"/>
			</g>
			<g>
				<path class="st1" d="M247.8,152.2c-2.7,0-4.5-1.2-6.1-2.2c-1.7-1.1-2.9-1.9-5.2-1.1c-1.1,0.3-2.2-0.3-2.5-1.3
					c-0.3-1.1,0.3-2.2,1.3-2.5c4.1-1.3,6.6,0.3,8.5,1.6c1.7,1.1,2.9,1.9,5.3,1.4c2.3-0.7,3.2-2.3,4.5-5c1.2-2.5,2.6-5.3,6.1-6.9
					c4-2,6.7,0,8.8,1.5c1.9,1.4,3,2.1,4.8,1.4c2.1-1,2.8-3.4,3.6-6.2c0.9-3.1,1.9-6.6,5.2-8.6c3.9-2.4,7,0.1,9,1.8
					c2.2,1.8,3.1,2.4,4.5,1.7c1.8-1,2.3-3.8,2.7-6.8c0.6-3.4,1.2-7.4,4.4-9.3c3.7-2.3,6.9,0.7,9,2.7c2.2,2.1,3.2,2.8,4.2,2.3
					c1.4-0.7,1.6-3.7,1.7-6.4c0.2-3.5,0.4-7.5,3.6-9c3.5-1.7,6.3,1.6,8.6,4.2c1,1.1,3,3.5,3.7,3.2l0,0c0.4-0.7,0.2-3.5,0.1-4.8
					c-0.3-3.2-0.6-7.2,2.7-7.7l0.3,0c0,0,0,0,0,0c2.4,0,4.3,2.6,7.1,6.8c1.1,1.6,2.7,4,3.4,4.5c1,0.3,1.6,1.3,1.4,2.3
					c-0.2,1.1-1.3,1.8-2.4,1.6c-1.9-0.4-3.4-2.5-5.8-6.1c-0.8-1.2-2-3-3-4.1c0,0.8,0.1,1.8,0.2,2.5c0.3,3.5,0.7,7.9-2.8,9
					c-3.2,1.1-5.8-1.8-8-4.4c-1.1-1.3-3.1-3.6-3.8-3.2c-1,0.5-1.2,3.4-1.3,5.7c-0.2,3.7-0.5,7.9-3.9,9.7c-3.7,1.9-6.6-0.9-8.8-2.9
					c-2.4-2.3-3.3-2.7-4.2-2.2c-1.7,1-2.1,3.7-2.6,6.5c-0.6,3.6-1.2,7.7-4.8,9.7c-3.9,2-6.8-0.4-8.9-2.1c-2.3-1.9-3.1-2.3-4.4-1.5
					l-0.1,0c-1.9,1.1-2.6,3.5-3.4,6.2c-0.9,3.3-2,7-5.8,8.8l-0.1,0c-4,1.7-6.7-0.3-8.7-1.8c-2-1.4-2.9-2-4.7-1.2l-0.1,0
					c-2.2,1-3.1,2.8-4.2,5c-1.4,2.7-2.9,5.8-7.1,7l-0.1,0C249.3,152.1,248.5,152.2,247.8,152.2z M347.2,107.3L347.2,107.3
					C347.2,107.3,347.2,107.3,347.2,107.3z"/>
			</g>
			<g>
				<path class="st1" d="M334.4,86.9c-4.8,0-5.4-3.4-5.6-4.9c0-0.1,0-0.2-0.1-0.3c-0.2,0-0.4,0.1-0.7,0.2c-1,0.4-2.2-0.2-2.5-1.2
					c-0.4-1,0.2-2.2,1.2-2.5c1.1-0.4,2.8-0.8,4.2,0c1.4,0.8,1.6,2.3,1.8,3.3c0.2,1.4,0.3,1.6,2.1,1.5c3.1-0.3,5.6-3.2,8.2-6.2
					c2.3-2.6,4.7-5.3,7.7-6.5c1.4-0.6,2.6-0.6,3.7-0.1c1.9,0.8,2.7,2.9,3.4,4.9c1.1,3.1,1.6,3.7,2.9,3.4c2.4-0.5,4.1-4.2,5.7-7.7
					c1.8-3.8,3.6-7.8,7-9.1c4.4-1.8,6.5,3,7.9,6.2c1.6,3.5,2.5,5.1,3.7,4.8c1.9-0.5,3.1-4.7,4-8.1c1.3-4.6,2.4-9,6-10
					c4-1.1,6.3,3.3,8.3,7.2c1.3,2.5,3.1,6,4.5,5.8c1.4-0.2,1.9-4.6,2.2-7.2c0.5-4.4,1-9,4.9-9.1l0.1,0l0.1,0
					c3.1,0.1,5.3,3.6,7.9,7.8c1.5,2.4,4,6.4,5.4,6.6c0.2-1-0.2-3.5-0.4-4.7c-0.4-2.8-0.8-4.9,0.8-6c0.4-0.3,1.4-0.8,2.9,0l0.1,0.1
					l0.1,0.1c1.3,1.1,3.2,3.4,5.3,6c2.6,3.1,6.4,7.9,8.2,8.6c1,0.4,1.5,1.6,1.1,2.6c-0.4,1-1.6,1.5-2.6,1.1c-2.5-1-5.6-4.7-9.7-9.8
					c-0.7-0.9-1.4-1.8-2.1-2.6c0.4,2.9,0.7,5.7-0.8,7.4c-0.7,0.8-1.7,1.2-2.8,1.2c0,0,0,0-0.1,0c-3.6,0-6.2-4.1-8.9-8.5
					c-1.2-1.9-3.3-5.3-4.4-5.8c-0.6,0.8-0.9,3.7-1.1,5.5c-0.5,4.7-1.1,10-5.4,10.7c-4.3,0.8-6.6-3.8-8.7-7.9
					c-0.9-1.8-2.8-5.5-3.7-5.2c-1.4,0.4-2.4,4.3-3.2,7.2c-1.3,4.9-2.7,10-6.9,11c-4.7,1.1-6.8-3.6-8.3-7c-0.6-1.4-1.3-2.9-1.9-3.7
					c-0.5-0.6-0.6-0.5-0.9-0.4c-1.9,0.7-3.4,4-4.8,7.1c-2.1,4.4-4.2,9-8.5,9.9l-0.1,0c-4.9,0.9-6.5-3.4-7.4-6
					c-0.3-0.8-0.9-2.4-1.2-2.6c0,0,0,0,0,0c-0.1,0-0.2,0-0.6,0.2l-0.1,0c-2.1,0.8-4,3-6.1,5.4c-2.9,3.3-6.2,7-10.8,7.5l-0.1,0
					C334.9,86.8,334.7,86.9,334.4,86.9z"/>
			</g>
			<g>
				<path class="st1" d="M225.5,120.2c-0.6,0-1.2-0.3-1.6-0.8c-0.6-0.9-0.4-2.2,0.5-2.8c0.4-0.3,0.6-0.4-0.1-2.5
					c-0.6-1.8-1.5-4.8,1.2-7.1c2.3-2.4,5.3-2.2,7.7-2.1c2.3,0.2,3.7,0.2,4.8-0.9c1-1.3,0.7-2.7,0.1-4.9c-0.7-2.5-1.5-5.5,0.8-8.6
					c2.4-3.6,5.9-3.5,8.4-3.5c2.3,0,3.6,0,4.6-1.3c1.1-1.7,0.8-3.5,0.2-6.3c-0.7-3-1.4-6.3,0.8-9.5c2.7-4.2,6.6-3,9-2.2
					c2.1,0.6,2.5,0.6,2.8,0.2c0.7-0.9,1.9-1,2.8-0.4c0.9,0.7,1,1.9,0.4,2.8c-2.1,2.7-5.1,1.8-7.2,1.2c-2.7-0.8-3.5-0.9-4.5,0.6l0,0
					c-1.2,1.8-0.8,4-0.2,6.4c0.6,3,1.4,6.3-0.8,9.5l0,0.1c-2.3,3-5.4,3-7.8,2.9c-2.5,0-3.9,0-5,1.7l-0.1,0.1
					c-1.1,1.5-0.8,2.9-0.2,5.2c0.6,2.5,1.5,5.5-0.9,8.5l-0.1,0.1c-2.4,2.6-5.5,2.4-8,2.2c-2.2-0.1-3.7-0.2-4.6,0.9l-0.2,0.2
					c-0.6,0.4-0.6,0.8,0,2.8c0.6,1.8,1.5,4.9-1.4,6.9C226.4,120.1,225.9,120.2,225.5,120.2z"/>
			</g>
			<g>
				<path class="st1" d="M305.7,57.3c-0.5,0-1.1-0.2-1.5-0.6c-4.1-4.3-4.6-7.9-5.1-11c-0.4-2.8-0.8-5.2-3.7-8.4l-0.1-0.1
					c-2.5-3.1-4.8-3.6-7.3-4.3c-2.7-0.7-5.8-1.4-8.9-5.3l0,0c-2.8-3.7-2.6-7.1-2.4-9.8c0.1-2.4,0.3-4.3-1.3-6.5l0-0.1
					c-1.1-1.7-2.2-1.7-4.4-1.5c-2,0.1-4.8,0.3-6.7-2.5l0-0.1c-1.6-2.5-0.6-5.5,0.3-8c0.1-0.3,0.3-0.8,0.4-1.2
					c-0.4,0.4-0.8,0.9-1,1.1c-0.9,1-1.7,2-3.1,1.4l-1.3-0.6l0.1-1.5c0.1-0.6,0.4-1.2,0.9-1.5c0.1-0.1,0.3-0.3,0.4-0.5
					c2.2-2.5,4-4.3,5.9-4c0.8,0.1,1.5,0.6,1.9,1.4c1.2,2.1,0.4,4.5-0.4,6.8c-0.6,1.7-1.2,3.6-0.7,4.4c0.6,0.8,1.3,0.9,3.2,0.8
					c2.2-0.1,5.5-0.3,7.9,3.3c2.4,3.4,2.2,6.4,2.1,9.1c-0.2,2.6-0.3,4.6,1.6,7.1c2.2,2.7,4.2,3.2,6.7,3.8c2.8,0.7,6,1.5,9.4,5.6
					c3.6,4.1,4.2,7.5,4.6,10.5c0.5,2.9,0.8,5.5,4.1,8.9c0.8,0.8,0.7,2.1-0.1,2.8C306.7,57.1,306.2,57.3,305.7,57.3z"/>
			</g>
			<g>
				<path class="st1" d="M307.1,178.9c-0.1,0-0.1,0-0.2,0c-6.8-0.7-11.8-4.3-15.9-7.1c-2-1.4-3.9-2.8-5.7-3.5l-0.2-0.1
					c-0.3-0.1-0.4-0.2-0.5-0.2c-0.3,0.2-0.7,0.9-1.1,1.4c-1.3,1.9-3.4,5.1-8.5,4.1l-0.1,0c-5.3-1.2-5.3-6.9-5.3-10.3
					c0-0.2,0-0.5,0-0.7c-0.5,0.4-1,0.9-1.4,1.3c-4.2,3.9-7.2,6.4-9.6,6.2c-1.1-0.1-1.9-1.1-1.8-2.2c0.1-1.1,1-1.9,2.1-1.8
					c1.2-0.2,4.8-3.6,6.6-5.2c1-0.9,1.9-1.8,2.7-2.4c0.7-0.6,2.3-1.8,3.7-0.9c1.7,1,1.7,3.3,1.7,5.7c0,4,0.3,5.9,2.1,6.4
					c2.3,0.4,3.1-0.5,4.3-2.5c1-1.6,3-4.4,6.7-2.5c2.1,0.9,4.2,2.4,6.4,3.9c3.9,2.7,8.3,5.9,14,6.4c1.1,0.1,1.9,1.1,1.8,2.2
					C309,178.1,308.1,178.9,307.1,178.9z"/>
			</g>
			<g>
				<path class="st1" d="M356.4,59c-0.5,0-1.1-0.2-1.5-0.6c-3.7-4-4.3-6.9-4.8-9.7c-0.1-0.4-0.1-0.8-0.2-1.2l0-0.1
					c-0.3-1.9-1.2-5.5-3.2-8.4c-0.3-0.4-0.4-0.6-0.6-0.7c-0.1,0-0.2,0.1-0.3,0.1c-0.2,0.1-0.4,0.2-0.6,0.3c-0.7,0.4-3.4,2.1-5,1.1
					c-0.7-0.4-1.1-1.3-1-2.1c0.2-1.1,1.2-1.8,2.3-1.7c0,0,0,0,0,0c0.4-0.1,1-0.4,1.5-0.7l0.2-0.1c0.2-0.1,0.3-0.2,0.5-0.3
					c1.7-1,3.8-1.6,6.1,1.7c2.5,3.4,3.5,7.7,3.9,10c0.1,0.4,0.2,0.8,0.2,1.2c0.5,2.6,0.9,4.6,3.8,7.8c0.8,0.8,0.7,2.1-0.1,2.8
					C357.4,58.8,356.9,59,356.4,59z M343.3,38.4"/>
			</g>
			<g>
				<path class="st1" d="M324.2,177c-3.2,0-5.1-2.2-6.6-3.9c-1.5-1.7-2.4-2.7-4-2.5c-1.1,0.1-2.1-0.7-2.2-1.8
					c-0.1-1.1,0.7-2.1,1.8-2.2c3.7-0.4,5.7,2,7.4,3.9c1.5,1.7,2.4,2.7,4,2.5c1.6-0.2,2.3-1.3,3.4-3.3c1.2-2.2,2.8-4.9,6.5-5.3
					c1.1-0.1,2.1,0.7,2.2,1.8c0.1,1.1-0.7,2.1-1.8,2.2c-1.6,0.2-2.3,1.3-3.4,3.3c-1.2,2.2-2.8,4.9-6.5,5.3
					C324.7,177,324.4,177,324.2,177z"/>
			</g>
			<g>
				<path class="st1" d="M244.7,185.1c-1,0-2-0.2-3.1-0.5c-4.8-1.8-3.4-6.2-2.7-8.6l0.2-0.5c1-2.6,1.8-5.1,1.9-5.5
					c0.2-1.1,1.3-1.8,2.4-1.6c1.1,0.2,1.8,1.2,1.6,2.3c-0.1,0.8-1.1,3.7-2,6.1l-0.1,0.3c-1,3.1-0.7,3.2,0.2,3.6
					c2.3,0.9,5.1-0.3,7.7-1.7l0.4-0.2c2.6-1.4,4.9-2.5,9.4-1.1c1.1,0.3,1.7,1.4,1.3,2.5c-0.3,1.1-1.4,1.7-2.5,1.3
					c-3-0.9-4.1-0.4-6.4,0.9l-0.4,0.2C251,183.5,248,185.1,244.7,185.1z"/>
			</g>
			<g>
				<path class="st1" d="M364.3,9.4c-2.7,0-5-0.9-6-1.2c-0.3-0.1-0.5-0.2-0.8-0.3c-2.2-0.8-3.3-1.2-6.1,0.2c-1,0.5-2.2,0-2.7-1
					c-0.5-1,0-2.2,1-2.7c4.3-2,6.7-1.2,9.2-0.3c0.2,0.1,0.5,0.2,0.8,0.3l0.1,0c3.3,1.2,5.8,1.3,7.7,0.3c1.3-0.7,1.4-0.9,0.4-3.3
					l-0.1-0.3c-0.6-1.3-1.1-2.6-1.5-3.5c-0.1-0.3-0.3-0.7-0.4-0.9c-0.3-0.6-0.4-1.3-0.1-1.9c0.5-1,1.7-1.4,2.7-1
					c0.7,0.4,0.9,0.8,1.5,2.2c0.4,0.9,0.9,2.1,1.4,3.3l0.1,0.1l0.1,0.4c0.8,2,2.3,5.8-2.3,8.3C367.7,9.1,365.9,9.4,364.3,9.4z
					 M366.8-2.5C366.8-2.5,366.8-2.5,366.8-2.5C366.8-2.5,366.8-2.5,366.8-2.5z M366.8-2.5C366.8-2.5,366.8-2.5,366.8-2.5
					C366.8-2.5,366.8-2.5,366.8-2.5z M366.8-2.5C366.8-2.5,366.8-2.5,366.8-2.5C366.8-2.5,366.8-2.5,366.8-2.5z M366.8-2.5
					C366.8-2.5,366.8-2.5,366.8-2.5C366.8-2.5,366.8-2.5,366.8-2.5z M366.8-2.5C366.8-2.5,366.8-2.5,366.8-2.5
					C366.8-2.5,366.8-2.5,366.8-2.5z M366.8-2.5C366.8-2.5,366.8-2.5,366.8-2.5C366.8-2.5,366.8-2.5,366.8-2.5z M366.8-2.5
					C366.8-2.5,366.8-2.5,366.8-2.5C366.8-2.5,366.8-2.5,366.8-2.5z M366.8-2.5C366.8-2.5,366.8-2.5,366.8-2.5
					C366.8-2.5,366.8-2.5,366.8-2.5z M366.7-2.5C366.7-2.5,366.7-2.5,366.7-2.5C366.7-2.5,366.7-2.5,366.7-2.5z M366.7-2.5
					C366.7-2.5,366.7-2.5,366.7-2.5C366.7-2.5,366.7-2.5,366.7-2.5z M366.7-2.5L366.7-2.5L366.7-2.5z"/>
			</g>
			<g>
				<path class="st1" d="M235.7,18.1c-0.9,0-1.7-0.6-1.9-1.5c-0.4-1.5-1.6-2-3.7-2.9c-2.3-0.9-5.3-2-6.2-5.6c-0.9-3.6,1.1-6,2.7-7.9
					c1.5-1.7,2.3-2.8,1.9-4.3c-0.3-1.1,0.4-2.2,1.4-2.4c1.1-0.3,2.2,0.4,2.4,1.4c0.9,3.6-1.1,6-2.7,7.9c-1.5,1.7-2.3,2.8-1.9,4.3
					c0.4,1.5,1.6,2,3.7,2.9c2.3,0.9,5.3,2,6.2,5.6c0.3,1.1-0.4,2.2-1.4,2.4C236,18.1,235.8,18.1,235.7,18.1z"/>
			</g>
			<g>
				<path class="st1" d="M258.5,111.3c-0.5,0-1-0.2-1.4-0.6c-0.8-0.8-0.8-2.1,0-2.8c1.1-1.1,0.9-2.4,0.6-4.7
					c-0.4-2.5-0.9-5.6,1.7-8.2c2.6-2.6,5.7-2.1,8.2-1.7c2.2,0.4,3.6,0.5,4.7-0.6c0.8-0.8,2-0.8,2.8,0c0.8,0.8,0.8,2.1,0,2.8
					c-2.6,2.6-5.7,2.1-8.2,1.7c-2.2-0.4-3.6-0.5-4.7,0.6c-1.1,1.1-0.9,2.4-0.6,4.7c0.4,2.5,0.9,5.6-1.7,8.2
					C259.5,111.1,259,111.3,258.5,111.3z"/>
			</g>
			<g>
				<path class="st1" d="M366.9,156.1c-0.4,0-0.8-0.1-1.2-0.4c-0.9-0.7-1.1-1.9-0.4-2.8c1.6-2.1,1.1-3.1,0.2-4.9
					c-1-2.1-2.4-5.1,0.8-9.1c2.5-3.6,5.9-4.8,8.9-5.9c2.6-1,4.9-1.8,6.2-4c0.9-1.8,0.4-3-0.5-5c-1-2.1-2.4-5-0.3-8.8
					c1.8-3.8,4.9-4.6,7.2-5.1c2-0.5,2.7-0.7,3.1-1.7c0.4-1.5-0.4-3.1-1.2-5c-1.1-2.4-2.2-5.1-1.3-8.2c0.4-1.5,1.1-2.5,2.1-3
					c1.3-0.6,2.6-0.2,3.5,0.2c0.2-0.2,0.5-0.3,0.8-0.3c1.1-0.2,2.1,0.6,2.3,1.7c0.2,1.5-0.4,2.3-0.9,2.7c-1.2,0.9-2.5,0.2-3.3-0.1
					c-0.2-0.1-0.4-0.2-0.6-0.3c0,0,0,0.1,0,0.1l0,0.2c-0.5,1.6,0.3,3.4,1.1,5.4c1,2.3,2.2,5,1.4,7.8l-0.1,0.2
					c-1.2,3.2-3.9,3.8-6,4.3c-2.3,0.5-3.6,0.9-4.5,3l-0.1,0.1c-1,1.9-0.6,3.1,0.4,5.2c1,2.1,2.3,4.9,0.4,8.6l-0.1,0.1
					c-2.1,3.5-5.4,4.7-8.3,5.7c-2.7,1-5.3,1.9-7,4.5l-0.1,0.1c-1.7,2.1-1.2,3.1-0.3,5c1,2.1,2.4,5-0.7,9
					C368.1,155.8,367.5,156.1,366.9,156.1z"/>
			</g>
			<g>
				<path class="st1" d="M256.7,46.2c-1,0-1.8-0.7-2-1.7c-0.1-1.1,0.6-2.1,1.7-2.2c4.5-0.6,7.8-1.7,9.8-2.4c2-0.7,3.2-1.1,4.2,0
					c0.6,0.6,0.7,1.5,0.4,2.4c-0.4,1-1.5,1.5-2.5,1.1c-0.3,0.1-0.5,0.2-0.8,0.3c-2.1,0.7-5.7,1.9-10.5,2.5
					C256.8,46.2,256.7,46.2,256.7,46.2z M267,40.7C267,40.7,267,40.7,267,40.7C267,40.7,267,40.7,267,40.7z"/>
			</g>
			<g>
				<path class="st1" d="M253.2,7.7c-0.7,0-1.3-0.3-1.7-0.9c-2-3.1-3.1-7.7-3-12.5c0-1.1,0.9-2,2-2c1.1,0,2,0.9,2,2.1
					c-0.1,4,0.8,7.9,2.3,10.3c0.6,0.9,0.3,2.2-0.6,2.8C253.9,7.6,253.6,7.7,253.2,7.7z"/>
			</g>
			<g>
				<path class="st1" d="M300.5,93.9c-0.3,0-0.7-0.1-1-0.3c-0.9-0.6-1.3-1.8-0.7-2.7c3-5,4.4-9.5,4.3-11.3c-0.1-1.1,0.8-2.1,1.9-2.1
					c1.1-0.1,2.1,0.8,2.1,1.9c0.2,3-1.6,8.3-4.8,13.6C301.9,93.6,301.2,93.9,300.5,93.9z"/>
			</g>
			<g>
				<path class="st1" d="M381.4,185.2c-0.5,0-1-0.2-1.4-0.6c-3.1-3-4.9-7.8-4.7-12.5c0-1.1,1-2,2.1-1.9c1.1,0,2,1,1.9,2.1
					c-0.1,3.6,1.2,7.3,3.5,9.5c0.8,0.8,0.8,2,0,2.8C382.4,185,381.9,185.2,381.4,185.2z"/>
			</g>
			<g>
				<path class="st1" d="M281.7,157c-0.6,0-1.2-0.3-1.6-0.7c-0.7-0.9-0.6-2.1,0.3-2.8c2.2-1.8,3.3-3.5,3.5-4.1c0-0.9,0.6-1.8,1.6-2
					c1.1-0.2,2.1,0.5,2.4,1.6c0.5,2.4-3,6-4.9,7.6C282.6,156.9,282.1,157,281.7,157z M284,149.7C284,149.7,284,149.7,284,149.7
					C284,149.7,284,149.7,284,149.7z M283.9,149.3L283.9,149.3L283.9,149.3z"/>
			</g>
			<g>
				<path class="st1" d="M349.9,95.1c-0.1,0-0.2,0-0.2,0c-2.3-0.3-4.1-0.8-5.2-1.2c-2.5-1-2.7-1.5-2.9-2.1c-0.2-0.7,0-1.6,0.5-2.1
					c0.6-0.5,1.4-0.7,2.1-0.4c0.2,0.1,0.3,0.2,0.5,0.3c0.4,0.2,2.3,1.2,5.5,1.5c1.1,0.1,1.9,1.1,1.8,2.2
					C351.8,94.3,350.9,95.1,349.9,95.1z"/>
			</g>
			<g>
				<path class="st1" d="M214.9,146C214.9,146,214.9,146,214.9,146c-2.5-0.1-4.5-0.5-5.6-0.7c-0.1,0-0.3-0.1-0.4-0.1c0,0,0,0,0,0
					c-1,0.4-2.2-0.1-2.6-1.2c-0.3-0.8-0.2-1.6,0.3-2.2c0.9-1,2.1-0.8,3.4-0.5c1.1,0.2,2.8,0.5,4.9,0.6c1.1,0,2,1,1.9,2.1
					C216.9,145.2,216,146,214.9,146z M210,142.7L210,142.7C210,142.7,210,142.7,210,142.7z"/>
			</g>
			<g>
				<path class="st1" d="M347.4,185c-1.1,0-2-0.9-2-2c0-1.1,0.9-2,2-2c1.9,0,3.4-0.3,4.6-0.4c1.6-0.2,2.8-0.4,3.7,0.6
					c0.5,0.6,0.7,1.3,0.5,2.1c-0.3,1.1-1.4,1.7-2.5,1.4c-0.2-0.1-0.4-0.1-0.6-0.2c-0.2,0-0.4,0.1-0.6,0.1
					C351.4,184.7,349.6,185,347.4,185C347.4,185,347.4,185,347.4,185z M352.2,182.2C352.2,182.2,352.2,182.2,352.2,182.2
					C352.2,182.2,352.2,182.2,352.2,182.2z"/>
			</g>
			<g>
				<path class="st1" d="M353.6,137.9c-0.3,0-0.6-0.1-0.9-0.2c-3.1-1.6-5.2-4.5-4.9-7.2c0.1-1.1,1.1-1.9,2.2-1.8
					c1.1,0.1,1.9,1.1,1.8,2.2c-0.1,0.6,0.7,2.2,2.7,3.2c1,0.5,1.4,1.7,0.9,2.7C355,137.5,354.3,137.9,353.6,137.9z"/>
			</g>
			<g>
				<path class="st1" d="M399.7,176.8c-2.1,0-3.7-0.7-4.7-2c-0.9-1.3-0.9-3-0.1-4.6c2.4-4.4,3.9-6.4,5.8-6.4c0,0,0,0,0,0l0.2,0
					c1.6,0.1,2.8,1.7,4.2,3.7c0.4,0.5,0.8,1.1,1.2,1.6c1,1.2,1.3,2.6,0.8,3.9c-0.7,1.8-2.7,3.2-5.6,3.8l-0.1,0
					C400.8,176.8,400.2,176.8,399.7,176.8z M398.3,172.5c0.2,0.1,0.9,0.4,2.4,0.2c1.6-0.3,2.4-0.8,2.6-1.1c0,0,0-0.1-0.1-0.1
					c-0.5-0.6-0.9-1.2-1.3-1.8c-0.3-0.5-0.8-1-1.1-1.5c-0.5,0.6-1.2,1.8-2.3,3.8C398.4,172.3,398.3,172.5,398.3,172.5z M400.1,167.6
					L400.1,167.6L400.1,167.6z"/>
			</g>
			<g>
				<path class="st1" d="M423.5,18.3c-8.6,0-19.2-6.2-24.3-9.2c-0.1-0.1-0.3-0.2-0.4-0.2c-0.3,2.7-1.1,8.5-7.9,8.3
					c-2,0-3.6-0.7-4.8-2c-1.9-2.1-2.1-5.2-2-7.7c-8.8,6.4-15,9.5-19.1,9.5c0,0,0,0,0,0c-1.1,0-2-0.9-2-2c0-1.1,0.9-2,2-2
					c0,0,0,0,0,0c2,0,7-1.3,18.8-10.3c0.4-0.3,0.6-0.5,0.8-0.6l0.3-0.2l0.4-0.1c0.7-0.2,1.5,0,2,0.5c1.1,0.9,1,2.3,0.9,4.2
					c-0.1,1.9-0.2,4.7,0.9,5.9c0.2,0.2,0.6,0.7,2,0.7c2.9,0.1,3.4-1.5,3.8-4.9c0.2-1.6,0.3-3.2,1.7-3.9c0.5-0.2,1.4-0.5,2.6,0.1
					c0.5,0.3,1.1,0.7,2,1.2c4.8,2.8,14.7,8.7,22.3,8.7c0,0,0,0,0,0c1.1,0,2,0.9,2,2C425.5,17.4,424.6,18.3,423.5,18.3
					C423.5,18.3,423.5,18.3,423.5,18.3z"/>
			</g>
			<g>
				<path class="st1" d="M394.4,197.4c-0.6,0-1.2-0.3-1.6-0.8c-0.6-0.9-0.4-2.2,0.5-2.8c4.9-3.5,7.3-7,7.6-8.1
					c-0.1-1,0.5-1.9,1.5-2.1c1.1-0.3,2.2,0.4,2.4,1.4c0.8,2.9-4.1,8.4-9.2,12C395.2,197.3,394.8,197.4,394.4,197.4z M400.9,186.1
					L400.9,186.1C400.9,186.1,400.9,186.1,400.9,186.1z"/>
			</g>
			<g>
				<path class="st1" d="M410.4,121.9C410.4,121.9,410.3,121.9,410.4,121.9c-3.9-0.1-7.1-0.5-9.2-0.8c-0.7-0.1-1.4-0.2-1.9-0.3
					c-0.2,0.2-0.5,0.4-0.8,0.5c-1.1,0.3-2.2-0.3-2.5-1.3c-0.3-0.8-0.1-1.7,0.4-2.3c1-1.2,2.5-1,5.4-0.6c2.1,0.3,5,0.7,8.7,0.8
					c1.1,0,2,0.9,2,2C412.4,121.1,411.5,121.9,410.4,121.9z M399.8,118.9L399.8,118.9L399.8,118.9z"/>
			</g>
			<g>
				<path class="st1" d="M248.8,37.3c-0.7,0-1.3-0.3-1.7-0.9c-0.6-0.9-0.3-2.2,0.6-2.8c2.3-1.5,3.6-3.1,3.9-3.6
					c0.1-0.8,0.6-1.5,1.4-1.7c1-0.3,2.2,0.2,2.5,1.3c1,3.1-5.5,7.4-5.6,7.4C249.6,37.2,249.2,37.3,248.8,37.3z M251.7,30.8
					C251.7,30.8,251.7,30.8,251.7,30.8C251.7,30.8,251.7,30.8,251.7,30.8z"/>
			</g>
			<g>
				<path class="st1" d="M345.5,122.9c-1,0-1.9-0.8-2-1.8c-0.1-1.1,0.7-2.1,1.8-2.2c4.2-0.4,7.4-1.3,9.5-1.9c2.2-0.6,3.5-1,4.5,0.1
					c0.6,0.6,0.7,1.5,0.4,2.3c-0.4,1-1.5,1.6-2.6,1.2c-0.1,0-0.2-0.1-0.2-0.1c-0.3,0.1-0.7,0.2-1.1,0.3c-2.1,0.6-5.6,1.6-10.2,2
					C345.6,122.9,345.5,122.9,345.5,122.9z M355.9,118.1C355.9,118.1,355.9,118.1,355.9,118.1C355.9,118.1,355.9,118.1,355.9,118.1z
					"/>
			</g>
			<g>
				<path class="st1" d="M235.2,167.5c-0.1,0-0.3,0-0.4,0c-6.6-1.3-11.3-4.2-12.3-6.3c-0.5-1-0.2-1.8,0-2.2c0.5-1,1.7-1.4,2.7-0.9
					c0.6,0.3,1,0.9,1.1,1.5c0.8,0.9,4,3,9.3,4c1.1,0.2,1.8,1.3,1.6,2.3C237,166.8,236.1,167.5,235.2,167.5z M226,160.7
					C226,160.7,226,160.7,226,160.7C226,160.7,226,160.7,226,160.7z M226,160.7"/>
			</g>
			<g>
				<path class="st1" d="M322.4,10.7c-0.3,0-0.5-0.1-0.8-0.2c-1-0.4-1.5-1.6-1.1-2.6c2.5-5.9,3.3-10.1,3.2-12
					c-0.1-1.1,0.8-2,1.9-2.1c1.1-0.1,2,0.8,2.1,1.9c0.1,3.1-1.1,8.2-3.5,13.8C323.9,10.2,323.2,10.7,322.4,10.7z"/>
			</g>
			<g>
				<path class="st1" d="M305.7,257.8c-0.5,0-1.1-0.2-1.5-0.6c-4.1-4.3-4.6-7.9-5.1-11c-0.4-2.8-0.8-5.2-3.7-8.4l-0.1-0.1
					c-2.5-3.1-4.8-3.6-7.3-4.3c-2.7-0.7-5.8-1.4-8.9-5.3l0,0c-2.8-3.7-2.6-7.1-2.4-9.8c0.1-2.4,0.3-4.3-1.3-6.5l0-0.1
					c-1.1-1.7-2.2-1.7-4.4-1.5c-2,0.1-4.8,0.3-6.7-2.5l0-0.1c-1.6-2.5-0.6-5.5,0.3-8c0.1-0.3,0.3-0.8,0.4-1.3
					c-0.4,0.4-0.8,0.9-1,1.1c-0.9,1-1.7,2-3.1,1.4l-1.3-0.6l0.1-1.5c0.1-0.6,0.4-1.2,0.9-1.5c0.1-0.1,0.3-0.3,0.4-0.5
					c2.2-2.5,4-4.3,5.9-4c0.8,0.1,1.5,0.6,1.9,1.4c1.2,2.1,0.4,4.5-0.4,6.8c-0.6,1.7-1.2,3.6-0.7,4.4c0.6,0.8,1.3,0.9,3.2,0.8
					c2.2-0.1,5.5-0.3,7.9,3.3c2.4,3.4,2.2,6.4,2.1,9.1c-0.2,2.6-0.3,4.6,1.6,7.1c2.2,2.7,4.2,3.2,6.7,3.8c2.8,0.7,6,1.5,9.4,5.6
					c3.6,4.1,4.2,7.5,4.6,10.5c0.5,2.9,0.8,5.5,4.1,8.9c0.8,0.8,0.7,2.1-0.1,2.8C306.7,257.6,306.2,257.8,305.7,257.8z"/>
			</g>
			<g>
				<path class="st1" d="M364.3,209.9c-2.7,0-5-0.9-6-1.2c-0.3-0.1-0.5-0.2-0.8-0.3c-2.2-0.8-3.3-1.2-6.1,0.2c-1,0.5-2.2,0-2.7-1
					c-0.5-1,0-2.2,1-2.7c4.3-2,6.7-1.2,9.2-0.3c0.2,0.1,0.5,0.2,0.8,0.3l0.1,0c3.3,1.2,5.8,1.3,7.7,0.3c1.3-0.7,1.4-0.9,0.4-3.3
					l-0.1-0.3c-0.6-1.3-1.1-2.6-1.5-3.5c-0.1-0.3-0.3-0.7-0.4-0.9c-0.3-0.6-0.4-1.3-0.1-1.9c0.5-1,1.7-1.4,2.7-1
					c0.7,0.4,0.9,0.8,1.5,2.2c0.4,0.9,0.9,2.1,1.4,3.3l0.1,0.1l0.1,0.4c0.8,2,2.3,5.8-2.3,8.3C367.7,209.6,365.9,209.9,364.3,209.9z
					 M366.8,198C366.8,198,366.8,198,366.8,198C366.8,198,366.8,198,366.8,198z M366.8,198C366.8,198,366.8,198,366.8,198
					C366.8,198,366.8,198,366.8,198z M366.8,198C366.8,198,366.8,198,366.8,198C366.8,198,366.8,198,366.8,198z M366.8,198
					C366.8,198,366.8,198,366.8,198C366.8,198,366.8,198,366.8,198z M366.8,198C366.8,198,366.8,198,366.8,198
					C366.8,198,366.8,198,366.8,198z M366.8,198C366.8,198,366.8,198,366.8,198C366.8,198,366.8,198,366.8,198z M366.8,198
					C366.8,198,366.8,198,366.8,198C366.8,198,366.8,198,366.8,198z M366.8,198C366.8,198,366.8,198,366.8,198
					C366.8,198,366.8,198,366.8,198z M366.7,198C366.7,198,366.7,198,366.7,198C366.7,198,366.7,198,366.7,198z M366.7,198
					C366.7,198,366.7,198,366.7,198C366.7,198,366.7,198,366.7,198z M366.7,198L366.7,198L366.7,198z"/>
			</g>
			<g>
				<path class="st1" d="M235.7,218.6c-0.9,0-1.7-0.6-1.9-1.5c-0.4-1.5-1.6-2-3.7-2.9c-2.3-0.9-5.3-2-6.2-5.6
					c-0.9-3.6,1.1-6,2.7-7.9c1.5-1.7,2.3-2.8,1.9-4.3c-0.3-1.1,0.4-2.2,1.4-2.4c1.1-0.3,2.2,0.4,2.4,1.4c0.9,3.6-1.1,6-2.7,7.9
					c-1.5,1.7-2.3,2.8-1.9,4.3c0.4,1.5,1.6,2,3.7,2.9c2.3,0.9,5.3,2,6.2,5.6c0.3,1.1-0.4,2.2-1.4,2.4
					C236,218.6,235.8,218.6,235.7,218.6z"/>
			</g>
			<g>
				<path class="st1" d="M253.2,208.2c-0.7,0-1.3-0.3-1.7-0.9c-2-3.1-3.1-7.7-3-12.5c0-1.1,0.9-2,2-2c1.1,0,2,0.9,2,2.1
					c-0.1,4,0.8,7.9,2.3,10.3c0.6,0.9,0.3,2.2-0.6,2.8C253.9,208.1,253.6,208.2,253.2,208.2z"/>
			</g>
			<g>
				<path class="st1" d="M322.4,211.2c-0.3,0-0.5-0.1-0.8-0.2c-1-0.4-1.5-1.6-1.1-2.6c2.5-5.9,3.3-10.1,3.2-12
					c-0.1-1.1,0.8-2,1.9-2.1c1.1-0.1,2,0.8,2.1,1.9c0.1,3.1-1.1,8.2-3.5,13.8C323.9,210.7,323.2,211.2,322.4,211.2z"/>
			</g>
			<g>
				<path class="st1" d="M268.2,85.4c-0.8,0-1.5-0.4-1.8-1.1c-0.9-0.6-1.1-1.8-0.5-2.7c1-1.5,2.1-2,3.2-1.7c0.5,0.2,1.7,0.7,1.7,2.8
					c0,1.4-1,2.3-2,2.7C268.6,85.3,268.4,85.4,268.2,85.4z"/>
			</g>
			<g>
				<path class="st1" d="M222,185.6c-0.8,0-1.5-0.4-1.8-1.1c-0.9-0.6-1.1-1.8-0.5-2.7c1-1.5,2.1-2,3.2-1.7c0.5,0.2,1.7,0.7,1.7,2.8
					c0,1.4-1,2.3-2,2.7C222.4,185.5,222.2,185.6,222,185.6z"/>
			</g>
			<g>
				<path class="st1" d="M356.6,168.1c-0.8,0-1.5-0.4-1.8-1.1c-0.9-0.6-1.1-1.8-0.5-2.7c1-1.5,2.1-2,3.2-1.7
					c0.5,0.2,1.7,0.7,1.7,2.8c0,1.4-1,2.3-2,2.7C357,168,356.8,168.1,356.6,168.1z"/>
			</g>
			<g>
				<path class="st1" d="M363.8,98.8c-0.8,0-1.5-0.4-1.8-1.1c-0.9-0.6-1.1-1.8-0.5-2.7c1-1.5,2.1-2,3.2-1.7c0.5,0.2,1.7,0.7,1.7,2.8
					c0,1.4-1,2.3-2,2.7C364.2,98.8,364,98.8,363.8,98.8z"/>
			</g>
			<g>
				<path class="st1" d="M296,15.3c-0.8,0-1.5-0.4-1.8-1.1c-0.9-0.6-1.1-1.8-0.5-2.7c1-1.5,2.1-2,3.2-1.7c0.5,0.2,1.7,0.7,1.7,2.8
					c0,1.4-1,2.3-2,2.7C296.4,15.2,296.2,15.3,296,15.3z"/>
			</g>
			<g>
				<path class="st1" d="M363.2,30.5c-0.8,0-1.5-0.4-1.8-1.1c-0.9-0.6-1.1-1.8-0.5-2.7c1-1.5,2.1-2,3.2-1.7c0.5,0.2,1.7,0.7,1.7,2.8
					c0,1.4-1,2.3-2,2.7C363.6,30.4,363.4,30.5,363.2,30.5z"/>
			</g>
			<g>
				<path class="st1" d="M216.2,38.3c-0.8,0-1.5-0.4-1.8-1.1c-0.9-0.6-1.1-1.8-0.5-2.7c1-1.5,2.1-2,3.2-1.7c0.5,0.2,1.7,0.7,1.7,2.8
					c0,1.4-1,2.3-2,2.7C216.6,38.3,216.4,38.3,216.2,38.3z"/>
			</g>
			<g>
				<path class="st1" d="M251.2,123.5c-0.8,0-1.5-0.4-1.8-1.1c-0.9-0.6-1.1-1.8-0.5-2.7c1-1.5,2.1-2,3.2-1.7
					c0.5,0.2,1.7,0.7,1.7,2.8c0,1.4-1,2.3-2,2.7C251.6,123.5,251.4,123.5,251.2,123.5z"/>
			</g>
			<g>
				<path class="st1" d="M129.4,268.7c-2.1,0-3.8-0.7-4.7-2.1c-0.9-1.4-0.9-3.1,0.1-4.8l0.1-0.2c2.1-3.7,3.6-6.4,6-6l0.2,0
					c1.4,0.3,2.4,1.7,4.1,3.9c0.4,0.5,0.7,1,1.1,1.4c0.9,1.2,1.2,2.5,0.7,3.8c-0.7,1.9-2.9,3.2-5.9,3.7l-0.1,0
					C130.3,268.6,129.8,268.7,129.4,268.7z M128,264.4c0.2,0.1,0.8,0.4,2.2,0.2c1.7-0.3,2.5-0.8,2.7-1.1c-0.4-0.5-0.8-1-1.1-1.5
					c-0.4-0.5-0.9-1.3-1.4-1.8c-0.7,0.9-1.6,2.5-2.1,3.5l-0.1,0.2C128,264.1,128,264.3,128,264.4z M133,263.6L133,263.6L133,263.6z"
					/>
			</g>
			<g>
				<path class="st1" d="M-0.3,377.3c-2.1,0-3.7-0.7-4.7-2c-0.9-1.3-0.9-3-0.1-4.6c2.4-4.4,3.9-6.4,5.8-6.4c0,0,0,0,0,0l0.2,0
					c1.6,0.1,2.7,1.7,4.2,3.7c0.4,0.5,0.8,1.1,1.2,1.6c1,1.2,1.3,2.6,0.8,3.9c-0.7,1.8-2.7,3.2-5.6,3.8l-0.1,0
					C0.8,377.3,0.2,377.3-0.3,377.3z M-1.7,373c0.2,0.1,0.9,0.4,2.4,0.2c1.6-0.3,2.4-0.8,2.6-1.1c0,0,0-0.1-0.1-0.1
					c-0.5-0.6-0.9-1.2-1.3-1.8c-0.3-0.5-0.8-1-1.1-1.5c-0.5,0.6-1.2,1.8-2.3,3.8C-1.6,372.8-1.7,373-1.7,373z"/>
			</g>
			<g>
				<path class="st1" d="M77.6,322.4c-0.6,0-1.2-0.1-1.9-0.2l-0.1,0c-3.1-0.7-5.2-2.2-5.9-4c-0.4-1.2-0.1-2.6,0.8-3.6
					c0.4-0.4,0.8-0.9,1.2-1.5c1.5-2,2.5-3.3,3.8-3.7l0.2,0c2.5-0.6,4.3,2.6,6.3,6.3c1,1.8,0.9,3.6,0,4.9
					C81,321.7,79.5,322.4,77.6,322.4z M76.6,318.3c1.3,0.2,1.9,0,2.1-0.1c0-0.1,0-0.3-0.2-0.7l0,0c-0.4-0.8-1.4-2.7-2.2-3.7
					c-0.4,0.5-0.9,1.2-1.3,1.7c-0.4,0.5-0.8,1.1-1.2,1.6C74.1,317.3,75,317.9,76.6,318.3z"/>
			</g>
			<g>
				<path class="st1" d="M86,392.5c-1.5,0-2.9-0.4-3.9-1.1c-1.1-0.8-1.6-2.1-1.5-3.4c0.4-3,3.5-6.8,4.1-7.5l0.1-0.1
					c0.8-0.8,1.7-1,2.3-0.9c1.5,0.1,2.5,1.3,3.4,2.7c0.3,0.5,0.7,0.9,1.1,1.4c1,1.1,2.2,2.8,1.8,4.8c-0.3,1.5-1.4,2.6-3.4,3.4l0,0
					C88.7,392.2,87.3,392.5,86,392.5z M89.2,389.8L89.2,389.8L89.2,389.8z M84.6,388.2c0.6,0.3,2.2,0.5,3.8-0.3
					c0.7-0.3,1-0.5,1.1-0.6c-0.1-0.2-0.2-0.5-0.9-1.3c-0.5-0.6-0.9-1.1-1.3-1.6c-0.1-0.1-0.2-0.3-0.4-0.5
					C85.9,385.5,84.8,387.2,84.6,388.2z"/>
			</g>
			<g>
				<path class="st1" d="M134.9,396.5c-1.7,0-3.2-0.4-4.2-1.3c-1.1-0.9-1.5-2.2-1.2-3.6c0.6-2.6,3.1-6.1,4.3-7.3l0.1-0.1
					c0.6-0.5,1.4-0.8,2.2-0.7c1.5,0.2,2.4,1.3,3.4,2.7c0.4,0.5,0.7,1,1.2,1.5c0.5,0.6,2.2,2.4,1.7,4.6c-0.4,1.5-1.6,2.7-3.8,3.5
					C137.4,396.3,136.1,396.5,134.9,396.5z M133.5,392.2c0.5,0.3,2,0.5,3.6-0.2c0.8-0.3,1.2-0.6,1.3-0.7c0-0.1-0.2-0.5-0.7-1
					c-0.5-0.6-1-1.2-1.4-1.7c-0.1-0.2-0.3-0.4-0.4-0.5C135,389.2,133.9,391,133.5,392.2z"/>
			</g>
			<g>
				<path class="st1" d="M8.6,302.6c-1.6,0-3-0.4-3.9-1.2c-3-2.4-0.6-6.1,0.9-8.4c0.2-0.3,0.3-0.5,0.5-0.8l0,0
					c0.8-1.3,1.8-2.7,3.5-2.7c0,0,0.1,0,0.1,0c1.7,0,2.7,1.5,3.4,2.4c0.3,0.5,0.7,0.9,1,1.3c1.3,1.5,3.3,4.1,1.2,6.6
					c-1.3,1.6-3.8,2.4-5.7,2.6C9.3,302.6,8.9,302.6,8.6,302.6z M7.3,298.4c0.2,0.1,0.8,0.3,2,0.2c1.5-0.1,2.6-0.7,3-1.1
					c-0.2-0.4-0.8-1.1-1.2-1.6c-0.4-0.5-0.8-1-1.2-1.5c-0.1-0.1-0.1-0.1-0.1-0.2c-0.1,0.1-0.1,0.2-0.2,0.3c-0.2,0.3-0.3,0.5-0.5,0.8
					C8.4,296.1,7.3,297.7,7.3,298.4z M7.3,298.5L7.3,298.5L7.3,298.5z"/>
			</g>
			<g>
				<path class="st1" d="M128.3,356.2c-0.2,0-0.3,0-0.5-0.1c-7.1-1.7-12.5-4.7-15.3-7c-0.5-0.4-0.7-1-0.7-1.6c0-0.6,0.3-1.2,0.8-1.5
					c8.1-6.3,9.6-7.4,11.4-6.4c0.3,0.2,0.6,0.5,0.8,0.8c2.2,4.1,4,8.5,5.4,13.2c0.2,0.7,0,1.4-0.5,1.9
					C129.3,356,128.8,356.2,128.3,356.2z M117.2,347.5c2,1.3,4.7,2.6,8,3.7c-0.9-2.6-2-5-3.1-7.3C120.9,344.7,119,346.1,117.2,347.5
					z"/>
			</g>
			<g>
				<path class="st1" d="M170,251.6c-0.8,0-1.6-0.5-1.9-1.3c-0.3-0.8-0.1-1.7,0.6-2.3c6.1-4.9,9.3-10.2,10.2-13.6
					c0.2-0.9,1-1.5,1.9-1.5h0c0.9,0,1.7,0.6,1.9,1.5c1.4,5,4.8,9.2,9.7,12.2c0.7,0.5,1.1,1.4,0.9,2.2c-0.2,0.9-1,1.5-1.8,1.5
					c-4.3,0.2-8.6,0.5-12.6,0.8c-3.1,0.2-6,0.4-8.8,0.6C170.1,251.6,170.1,251.6,170,251.6z M180.9,240.1c-1.3,2.4-3.2,4.8-5.3,7.1
					c1-0.1,2.1-0.1,3.2-0.2c2.4-0.2,4.8-0.3,7.2-0.5C183.8,244.6,182.1,242.5,180.9,240.1z"/>
			</g>
			<g>
				<path class="st1" d="M135.7,233.5C135.6,233.5,135.6,233.5,135.7,233.5c-5.4-0.2-10.2-0.6-14.4-1c-1.9-0.2-3.6-0.3-5.2-0.5
					c-0.8-0.1-1.5-0.6-1.8-1.4c-0.2-0.8,0-1.6,0.7-2.2c5.8-4.6,9-9.2,9.7-11.3c0.3-0.8,1-1.3,1.9-1.3c0,0,0,0,0,0
					c0.8,0,1.6,0.6,1.9,1.4c1.7,5,4.5,9.3,8.5,12.8c0.6,0.6,0.8,1.5,0.5,2.2C137.2,233,136.5,233.5,135.7,233.5z M121.1,228.4
					c0.2,0,0.4,0,0.5,0.1c2.8,0.3,5.8,0.5,9,0.8c-1.7-2.1-3.2-4.3-4.3-6.8C125.1,224.3,123.3,226.3,121.1,228.4z"/>
			</g>
			<g>
				<path class="st1" d="M77.9,275.2c-0.7,0-1.4-0.4-1.8-1.1c-0.4-0.8-0.3-1.7,0.4-2.4c4.7-4.6,8.1-10.1,9.7-15.5
					c0.2-0.9,1-1.4,1.9-1.4c0,0,0,0,0,0c0.9,0,1.7,0.6,1.9,1.5c1.1,4.2,4.6,8.2,9.8,10.8c0.8,0.4,1.2,1.3,1.1,2.1
					c-0.1,0.9-0.8,1.5-1.7,1.6c-3.6,0.5-7.5,1.3-11.6,2.3c-3,0.7-6.1,1.4-9.3,2C78.2,275.2,78.1,275.2,77.9,275.2z M88.3,262.2
					c-1.1,2.4-2.7,5.1-4.8,7.9c1.1-0.2,2.2-0.5,3.3-0.7c2.3-0.5,4.6-1,6.7-1.4C91.3,266.2,89.6,264.3,88.3,262.2z"/>
			</g>
			<g>
				<path class="st1" d="M47.8,352.7c-2.7,0-4.5-1.2-6.1-2.2c-1.7-1.1-2.9-1.9-5.2-1.1c-1.1,0.3-2.2-0.3-2.5-1.3
					c-0.3-1.1,0.3-2.2,1.3-2.5c4.1-1.3,6.6,0.3,8.5,1.6c1.7,1.1,2.9,1.9,5.3,1.4c2.3-0.7,3.2-2.3,4.5-5c1.2-2.5,2.6-5.3,6.1-6.9
					c4-2,6.7,0,8.8,1.5c1.9,1.4,3,2.1,4.8,1.4c2.1-1,2.8-3.4,3.6-6.2c0.9-3.1,1.9-6.6,5.2-8.6c3.9-2.4,7,0.1,9,1.8
					c2.2,1.8,3.1,2.4,4.5,1.7c1.8-1,2.3-3.8,2.7-6.8c0.6-3.4,1.2-7.4,4.4-9.3c3.7-2.3,6.9,0.7,9,2.7c2.2,2.1,3.2,2.8,4.2,2.3
					c1.4-0.7,1.6-3.7,1.7-6.4c0.2-3.5,0.4-7.5,3.6-9c3.5-1.7,6.3,1.6,8.6,4.2c1,1.1,3,3.5,3.7,3.2l0,0c0.4-0.7,0.2-3.5,0.1-4.8
					c-0.3-3.2-0.6-7.2,2.7-7.7l0.3,0c0,0,0,0,0,0c2.4,0,4.3,2.6,7.1,6.8c1.1,1.6,2.7,4,3.4,4.5c1,0.3,1.6,1.3,1.4,2.3
					c-0.2,1.1-1.3,1.8-2.4,1.6c-1.9-0.4-3.4-2.5-5.8-6.1c-0.8-1.2-2-3-3-4.1c0,0.8,0.1,1.8,0.2,2.5c0.3,3.5,0.7,7.9-2.8,9
					c-3.2,1.1-5.8-1.8-8-4.4c-1.1-1.3-3.1-3.6-3.8-3.2c-1,0.5-1.2,3.4-1.3,5.7c-0.2,3.7-0.5,7.9-3.9,9.7c-3.7,1.9-6.6-0.9-8.8-2.9
					c-2.4-2.3-3.3-2.7-4.2-2.2c-1.7,1-2.1,3.7-2.6,6.5c-0.6,3.6-1.2,7.7-4.8,9.7c-3.9,2-6.8-0.4-8.9-2.1c-2.3-1.9-3.1-2.3-4.4-1.5
					l-0.1,0c-1.9,1.1-2.6,3.5-3.4,6.2c-0.9,3.3-2,7-5.8,8.8l-0.1,0c-4,1.7-6.7-0.3-8.7-1.8c-2-1.4-2.9-2-4.7-1.2l-0.1,0
					c-2.2,1-3.1,2.8-4.2,5c-1.4,2.7-2.9,5.8-7.1,7l-0.1,0C49.3,352.6,48.5,352.7,47.8,352.7z M147.2,307.8L147.2,307.8L147.2,307.8z
					 M136.5,300.6L136.5,300.6L136.5,300.6z"/>
			</g>
			<g>
				<path class="st1" d="M-65.6,287.4c-4.8,0-5.4-3.4-5.6-4.9c0-0.1,0-0.2-0.1-0.3c-0.2,0-0.4,0.1-0.7,0.2c-1,0.4-2.2-0.2-2.5-1.2
					c-0.4-1,0.2-2.2,1.2-2.5c1.1-0.4,2.8-0.8,4.2,0c1.4,0.8,1.6,2.3,1.8,3.3c0.2,1.4,0.3,1.6,2.1,1.5c3.1-0.3,5.6-3.2,8.2-6.2
					c2.3-2.6,4.7-5.3,7.7-6.5c1.4-0.6,2.6-0.6,3.7-0.1c1.9,0.8,2.7,2.9,3.4,4.9c1.1,3.1,1.6,3.7,2.9,3.4c2.4-0.5,4.1-4.2,5.7-7.7
					c1.8-3.8,3.6-7.8,7-9.1c4.4-1.8,6.5,3,7.9,6.2c1.6,3.5,2.5,5.1,3.7,4.8c1.9-0.5,3.1-4.7,4-8.1c1.3-4.6,2.4-9,6-10
					c4-1.1,6.3,3.3,8.3,7.2c1.3,2.5,3.1,6.1,4.5,5.8c1.4-0.2,1.9-4.6,2.2-7.2c0.5-4.4,1-9,4.9-9.1l0.1,0l0.1,0
					c3.1,0.1,5.3,3.6,7.9,7.8c1.5,2.4,4,6.4,5.4,6.6c0.2-1-0.2-3.5-0.4-4.7c-0.4-2.8-0.8-4.9,0.8-6c0.4-0.3,1.4-0.8,2.9,0l0.1,0.1
					l0.1,0.1c1.3,1.1,3.2,3.4,5.4,6c2.6,3.1,6.4,7.9,8.2,8.6c1,0.4,1.5,1.6,1.1,2.6c-0.4,1-1.6,1.5-2.6,1.1c-2.5-1-5.6-4.7-9.7-9.8
					c-0.7-0.9-1.4-1.8-2.1-2.6c0.4,2.9,0.7,5.7-0.8,7.4c-0.7,0.8-1.7,1.2-2.8,1.2c0,0,0,0-0.1,0c-3.6,0-6.2-4.1-8.9-8.5
					c-1.2-1.9-3.3-5.3-4.4-5.8c-0.6,0.8-0.9,3.7-1.1,5.5c-0.5,4.7-1.1,10-5.4,10.7c-4.3,0.8-6.6-3.8-8.7-7.9
					c-0.9-1.8-2.8-5.4-3.7-5.2c-1.4,0.4-2.4,4.3-3.2,7.2c-1.3,4.9-2.7,10-6.9,11c-4.7,1.1-6.8-3.6-8.3-7.1c-0.6-1.4-1.3-2.9-1.9-3.7
					c-0.5-0.6-0.6-0.5-0.9-0.4c-1.9,0.7-3.4,4-4.8,7.1c-2.1,4.4-4.2,9-8.5,9.9l-0.1,0c-4.9,0.9-6.5-3.4-7.4-6
					c-0.3-0.8-0.9-2.4-1.2-2.6c0,0,0,0,0,0c-0.1,0-0.2,0-0.6,0.2l-0.1,0c-2.1,0.8-4,3-6.1,5.4c-2.9,3.3-6.2,7-10.8,7.5l-0.1,0
					C-65.1,287.3-65.3,287.4-65.6,287.4z"/>
			</g>
			<g>
				<path class="st1" d="M134.4,287.4c-4.8,0-5.4-3.4-5.6-4.9c0-0.1,0-0.2-0.1-0.3c-0.2,0-0.4,0.1-0.7,0.2c-1,0.4-2.2-0.2-2.5-1.2
					c-0.4-1,0.2-2.2,1.2-2.5c1.1-0.4,2.8-0.8,4.2,0c1.4,0.8,1.6,2.3,1.8,3.3c0.2,1.4,0.3,1.6,2.1,1.5c3.1-0.3,5.6-3.2,8.2-6.2
					c2.3-2.6,4.7-5.3,7.7-6.5c1.4-0.6,2.6-0.6,3.7-0.1c1.9,0.8,2.7,2.9,3.4,4.9c1.1,3.1,1.6,3.7,2.9,3.4c2.4-0.5,4.1-4.2,5.7-7.7
					c1.8-3.8,3.6-7.8,7-9.1c4.4-1.8,6.5,3,7.9,6.2c1.6,3.5,2.5,5.1,3.7,4.8c1.9-0.5,3.1-4.7,4-8.1c1.3-4.6,2.4-9,6-10
					c4-1.1,6.3,3.3,8.3,7.2c1.3,2.5,3.1,6,4.5,5.8c1.4-0.2,1.9-4.6,2.2-7.2c0.5-4.4,1-9,4.9-9.1l0.1,0l0.1,0
					c3.1,0.1,5.3,3.6,7.9,7.8c1.5,2.4,4,6.4,5.4,6.6c0.2-1-0.2-3.5-0.4-4.7c-0.4-2.8-0.8-4.9,0.8-6c0.4-0.3,1.4-0.8,2.9,0l0.1,0.1
					l0.1,0.1c1.3,1.1,3.2,3.4,5.4,6c2.6,3.1,6.4,7.9,8.2,8.6c1,0.4,1.5,1.6,1.1,2.6c-0.4,1-1.6,1.5-2.6,1.1c-2.5-1-5.6-4.7-9.7-9.8
					c-0.7-0.9-1.4-1.8-2.1-2.6c0.4,2.9,0.7,5.7-0.8,7.4c-0.7,0.8-1.7,1.2-2.8,1.2c0,0,0,0-0.1,0c-3.6,0-6.2-4.1-8.9-8.5
					c-1.2-1.9-3.3-5.3-4.4-5.8c-0.6,0.8-0.9,3.7-1.1,5.5c-0.5,4.7-1.1,10-5.4,10.7c-4.3,0.8-6.6-3.8-8.7-7.9
					c-0.9-1.8-2.8-5.4-3.7-5.2c-1.4,0.4-2.4,4.3-3.2,7.2c-1.3,4.9-2.7,10-6.9,11c-4.7,1.1-6.8-3.6-8.3-7.1c-0.6-1.4-1.3-2.9-1.9-3.7
					c-0.5-0.6-0.6-0.5-0.9-0.4c-1.9,0.7-3.4,4-4.8,7.1c-2.1,4.4-4.2,9-8.5,9.9l-0.1,0c-4.9,0.9-6.5-3.4-7.4-6
					c-0.3-0.8-0.9-2.4-1.2-2.6c0,0,0,0,0,0c-0.1,0-0.2,0-0.6,0.2l-0.1,0c-2.1,0.8-4.1,3-6.1,5.4c-2.9,3.3-6.2,7-10.8,7.5l-0.1,0
					C134.9,287.3,134.7,287.4,134.4,287.4z"/>
			</g>
			<g>
				<path class="st1" d="M25.5,320.7c-0.6,0-1.2-0.3-1.6-0.8c-0.6-0.9-0.4-2.2,0.5-2.8c0.4-0.3,0.6-0.4-0.1-2.5
					c-0.6-1.8-1.5-4.8,1.2-7.1c2.3-2.4,5.3-2.2,7.7-2.1c2.3,0.2,3.7,0.2,4.8-0.9c1-1.3,0.7-2.7,0.1-4.9c-0.7-2.5-1.5-5.5,0.8-8.6
					c2.4-3.6,5.9-3.5,8.4-3.5c2.3,0,3.6,0,4.6-1.3c1.1-1.7,0.8-3.5,0.2-6.3c-0.7-3-1.4-6.3,0.8-9.5c2.7-4.2,6.6-3,9-2.2
					c2.1,0.6,2.5,0.6,2.8,0.2c0.7-0.9,1.9-1,2.8-0.4c0.9,0.7,1,1.9,0.4,2.8c-2.1,2.7-5.1,1.8-7.2,1.2c-2.7-0.8-3.5-0.9-4.5,0.6l0,0
					c-1.2,1.8-0.8,4-0.2,6.4c0.6,3,1.4,6.3-0.8,9.5l0,0.1c-2.3,3-5.4,2.9-7.8,2.9c-2.5,0-3.9,0-5,1.7l-0.1,0.1
					c-1.1,1.5-0.8,2.9-0.2,5.2c0.6,2.5,1.5,5.5-0.9,8.5l-0.1,0.1c-2.4,2.6-5.5,2.4-8,2.2c-2.2-0.1-3.7-0.2-4.6,0.9l-0.2,0.2
					c-0.6,0.4-0.6,0.8,0,2.8c0.6,1.8,1.5,4.9-1.4,6.9C26.4,320.6,25.9,320.7,25.5,320.7z"/>
			</g>
			<g>
				<path class="st1" d="M107.1,379.4c-0.1,0-0.1,0-0.2,0c-6.8-0.7-11.8-4.3-15.9-7.1c-2-1.4-3.9-2.8-5.7-3.5l-0.2-0.1
					c-0.3-0.1-0.4-0.2-0.5-0.2c-0.3,0.2-0.7,0.9-1.1,1.4c-1.3,1.9-3.4,5.1-8.5,4.1l-0.1,0c-5.3-1.2-5.3-6.9-5.3-10.3
					c0-0.2,0-0.5,0-0.7c-0.5,0.4-1,0.9-1.4,1.3c-4.2,3.9-7.2,6.4-9.6,6.2c-1.1-0.1-1.9-1.1-1.8-2.2c0.1-1.1,1-1.9,2.1-1.8
					c1.2-0.2,4.8-3.6,6.6-5.2c1-0.9,1.9-1.8,2.7-2.4c0.7-0.6,2.3-1.8,3.7-0.9c1.7,1,1.7,3.3,1.7,5.7c0,4,0.3,5.9,2.1,6.4
					c2.3,0.4,3.1-0.5,4.3-2.5c1-1.6,3-4.4,6.7-2.5c2.1,0.9,4.2,2.4,6.4,3.9c3.9,2.7,8.3,5.9,14,6.4c1.1,0.1,1.9,1.1,1.8,2.2
					C109,378.6,108.1,379.4,107.1,379.4z"/>
			</g>
			<g>
				<path class="st1" d="M23.5,218.8c-8.6,0-19.2-6.2-24.3-9.2c-0.1-0.1-0.3-0.2-0.4-0.2c-0.3,2.7-1,8.3-7.6,8.3c-0.1,0-0.2,0-0.3,0
					c-2,0-3.6-0.7-4.8-2c-1.9-2.1-2.1-5.2-2-7.7c-8.8,6.4-15,9.5-19.1,9.5c0,0,0,0,0,0c-1.1,0-2-0.9-2-2c0-1.1,0.9-2,2-2
					c0,0,0,0,0,0c2,0,7-1.3,18.8-10.3c0.4-0.3,0.6-0.5,0.8-0.6l0.3-0.2l0.4-0.1c0.7-0.2,1.5,0,2,0.5c1.1,0.9,1,2.3,0.9,4.2
					c-0.1,1.9-0.2,4.7,0.9,5.9c0.2,0.2,0.6,0.7,2,0.7c2.9,0.1,3.4-1.5,3.8-4.9c0.2-1.6,0.3-3.2,1.7-3.9c0.5-0.2,1.4-0.5,2.6,0.1
					c0.5,0.3,1.1,0.7,2,1.2c4.8,2.8,14.7,8.7,22.2,8.7c0,0,0,0,0,0c1.1,0,2,0.9,2,2C25.5,217.9,24.6,218.8,23.5,218.8
					C23.5,218.8,23.5,218.8,23.5,218.8z"/>
			</g>
			<g>
				<path class="st1" d="M156.4,259.5c-0.5,0-1.1-0.2-1.5-0.6c-3.7-4-4.3-6.9-4.8-9.7c-0.1-0.4-0.1-0.8-0.2-1.2l0-0.1
					c-0.3-1.9-1.2-5.5-3.2-8.4c-0.2-0.4-0.4-0.6-0.6-0.7c-0.1,0-0.2,0.1-0.3,0.1c-0.2,0.1-0.4,0.2-0.6,0.3c-0.7,0.4-3.4,2.1-5,1.1
					c-0.7-0.4-1.1-1.3-0.9-2.1c0.2-1.1,1.2-1.8,2.3-1.7c0,0,0,0,0,0c0.4-0.1,1-0.4,1.5-0.7l0.2-0.1c0.2-0.1,0.3-0.2,0.5-0.3
					c1.7-1,3.8-1.6,6.1,1.7c2.5,3.4,3.5,7.7,3.9,10c0.1,0.4,0.2,0.8,0.2,1.2c0.5,2.6,0.9,4.6,3.8,7.8c0.8,0.8,0.7,2.1-0.1,2.8
					C157.4,259.3,156.9,259.5,156.4,259.5z"/>
			</g>
			<g>
				<path class="st1" d="M124.2,377.5c-3.2,0-5.1-2.2-6.6-3.9c-1.5-1.7-2.4-2.7-4-2.5c-1.1,0.1-2.1-0.7-2.2-1.8
					c-0.1-1.1,0.7-2.1,1.8-2.2c3.7-0.4,5.7,2,7.4,3.9c1.5,1.7,2.4,2.7,4,2.5c1.6-0.2,2.3-1.3,3.4-3.3c1.2-2.2,2.8-4.9,6.5-5.3
					c1.1-0.1,2.1,0.7,2.2,1.8c0.1,1.1-0.7,2.1-1.8,2.2c-1.6,0.2-2.3,1.3-3.4,3.3c-1.2,2.2-2.8,4.9-6.5,5.3
					C124.7,377.5,124.4,377.5,124.2,377.5z"/>
			</g>
			<g>
				<path class="st1" d="M44.7,385.6c-1,0-2-0.2-3.1-0.5c-4.8-1.8-3.4-6.2-2.7-8.6l0.2-0.5c1-2.6,1.8-5.1,1.9-5.5
					c0.2-1.1,1.3-1.8,2.4-1.6c1.1,0.2,1.8,1.2,1.6,2.3c-0.1,0.8-1.1,3.7-2,6.1l-0.1,0.3c-1,3.1-0.7,3.2,0.2,3.6
					c2.3,0.9,5.1-0.3,7.7-1.7l0.4-0.2c2.6-1.4,4.9-2.5,9.4-1.1c1.1,0.3,1.7,1.4,1.3,2.5c-0.3,1.1-1.4,1.7-2.5,1.3
					c-3-0.9-4.1-0.4-6.4,0.9l-0.4,0.2C51,384,48,385.6,44.7,385.6z"/>
			</g>
			<g>
				<path class="st1" d="M58.5,311.8c-0.5,0-1-0.2-1.4-0.6c-0.8-0.8-0.8-2.1,0-2.8c1.1-1.1,0.9-2.4,0.6-4.7
					c-0.4-2.5-0.9-5.6,1.7-8.2c2.6-2.6,5.7-2.1,8.2-1.7c2.2,0.4,3.6,0.5,4.7-0.6c0.8-0.8,2-0.8,2.8,0c0.8,0.8,0.8,2.1,0,2.8
					c-2.6,2.6-5.7,2.1-8.2,1.7c-2.2-0.4-3.6-0.5-4.7,0.6c-1.1,1.1-0.9,2.4-0.6,4.7c0.4,2.5,0.9,5.6-1.7,8.2
					C59.5,311.6,59,311.8,58.5,311.8z"/>
			</g>
			<g>
				<path class="st1" d="M166.9,356.6c-0.4,0-0.8-0.1-1.2-0.4c-0.9-0.7-1.1-1.9-0.4-2.8c1.6-2.1,1.1-3.1,0.2-4.9
					c-1-2.1-2.4-5.1,0.8-9.1c2.5-3.6,5.9-4.8,8.9-5.9c2.6-1,4.9-1.8,6.2-4c0.9-1.8,0.4-3-0.5-5c-1-2.1-2.4-5-0.3-8.8
					c1.8-3.8,4.9-4.6,7.2-5.1c2-0.5,2.7-0.7,3.1-1.7c0.4-1.5-0.4-3.1-1.2-5c-1.1-2.4-2.2-5.1-1.3-8.2c0.4-1.5,1.1-2.5,2.1-3
					c1.3-0.6,2.6-0.2,3.5,0.2c0.2-0.2,0.5-0.3,0.8-0.3c1.1-0.2,2.1,0.6,2.3,1.7c0.2,1.5-0.4,2.3-0.9,2.7c-1.2,0.9-2.5,0.2-3.3-0.1
					c-0.2-0.1-0.4-0.2-0.6-0.3c0,0,0,0.1,0,0.1l0,0.2c-0.5,1.6,0.3,3.4,1.1,5.4c1,2.3,2.2,5,1.4,7.8l-0.1,0.2
					c-1.2,3.2-3.9,3.8-6,4.3c-2.3,0.5-3.6,0.9-4.5,3l-0.1,0.1c-1,1.9-0.6,3.1,0.4,5.2c1,2.1,2.3,4.9,0.4,8.6l-0.1,0.1
					c-2.1,3.5-5.4,4.7-8.3,5.7c-2.7,1-5.3,1.9-7,4.5l-0.1,0.1c-1.7,2.1-1.2,3.1-0.3,5c1,2.1,2.4,5-0.7,9
					C168.1,356.3,167.5,356.6,166.9,356.6z M192.5,296.1L192.5,296.1L192.5,296.1z"/>
			</g>
			<g>
				<path class="st1" d="M56.7,246.7c-1,0-1.8-0.7-2-1.7c-0.1-1.1,0.6-2.1,1.7-2.2c4.5-0.6,7.8-1.7,9.8-2.4c2-0.7,3.2-1.1,4.2,0
					c0.6,0.6,0.7,1.5,0.4,2.4c-0.4,1-1.5,1.5-2.5,1.1c-0.3,0.1-0.5,0.2-0.8,0.3c-2.1,0.7-5.7,1.9-10.5,2.5
					C56.8,246.7,56.7,246.7,56.7,246.7z M67,241.2L67,241.2L67,241.2z"/>
			</g>
			<g>
				<path class="st1" d="M100.5,294.4c-0.3,0-0.7-0.1-1-0.3c-0.9-0.6-1.3-1.8-0.7-2.7c3-5,4.4-9.5,4.3-11.3
					c-0.1-1.1,0.8-2.1,1.9-2.1c1.1-0.1,2.1,0.8,2.1,1.9c0.2,3-1.6,8.3-4.8,13.6C101.9,294.1,101.2,294.4,100.5,294.4z"/>
			</g>
			<g>
				<path class="st1" d="M181.4,385.7c-0.5,0-1-0.2-1.4-0.6c-3.1-3-4.9-7.8-4.7-12.5c0-1.1,1-2,2.1-1.9c1.1,0,2,1,1.9,2.1
					c-0.1,3.6,1.2,7.3,3.5,9.5c0.8,0.8,0.8,2,0,2.8C182.4,385.5,181.9,385.7,181.4,385.7z"/>
			</g>
			<g>
				<path class="st1" d="M-5.6,397.9c-0.6,0-1.2-0.3-1.6-0.8c-0.6-0.9-0.4-2.2,0.5-2.8c4.9-3.5,7.3-7,7.6-8.1
					c-0.1-1,0.5-1.9,1.5-2.1c1.1-0.3,2.2,0.4,2.4,1.4c0.8,2.9-4.1,8.4-9.2,12C-4.8,397.8-5.2,397.9-5.6,397.9z M0.9,386.6
					C0.9,386.6,0.9,386.6,0.9,386.6C0.9,386.6,0.9,386.6,0.9,386.6z"/>
			</g>
			<g>
				<path class="st1" d="M10.4,322.4C10.4,322.4,10.3,322.4,10.4,322.4c-3.9-0.1-7.1-0.5-9.2-0.8c-0.7-0.1-1.4-0.2-1.9-0.3
					c-0.2,0.2-0.5,0.4-0.8,0.5c-1.1,0.3-2.2-0.3-2.5-1.3c-0.3-0.8-0.1-1.7,0.4-2.3c1-1.2,2.5-1,5.4-0.6c2.1,0.3,5,0.7,8.7,0.8
					c1.1,0,2,0.9,2,2C12.4,321.6,11.5,322.4,10.4,322.4z M-0.2,319.4L-0.2,319.4L-0.2,319.4z"/>
			</g>
			<g>
				<path class="st1" d="M81.7,357.5c-0.6,0-1.2-0.3-1.6-0.7c-0.7-0.9-0.6-2.1,0.3-2.8c2.2-1.8,3.3-3.5,3.5-4.1c0-0.9,0.6-1.8,1.6-2
					c1.1-0.2,2.1,0.5,2.4,1.6c0.5,2.4-3,6-4.9,7.6C82.6,357.4,82.1,357.5,81.7,357.5z M84,350.2C84,350.2,84,350.2,84,350.2
					C84,350.2,84,350.2,84,350.2z"/>
			</g>
			<g>
				<path class="st1" d="M149.9,295.6c-0.1,0-0.2,0-0.2,0c-2.3-0.3-4.1-0.8-5.2-1.2c-2.5-1-2.7-1.5-2.9-2.1c-0.2-0.7,0-1.6,0.5-2.1
					c0.6-0.5,1.4-0.7,2.1-0.4c0.2,0.1,0.3,0.2,0.5,0.3c0.4,0.2,2.3,1.2,5.5,1.5c1.1,0.1,1.9,1.1,1.8,2.2
					C151.8,294.8,150.9,295.6,149.9,295.6z"/>
			</g>
			<g>
				<path class="st1" d="M14.9,346.5C14.9,346.5,14.9,346.5,14.9,346.5c-2.5-0.1-4.5-0.5-5.6-0.7c-0.1,0-0.3-0.1-0.4-0.1
					c0,0,0,0,0,0c-1,0.4-2.2-0.1-2.6-1.2c-0.3-0.8-0.2-1.6,0.3-2.2c0.9-1,2.1-0.8,3.4-0.5c1.1,0.2,2.8,0.5,4.9,0.6
					c1.1,0,2,1,1.9,2.1C16.9,345.7,16,346.5,14.9,346.5z M10,343.2C10,343.2,10,343.2,10,343.2C10,343.2,10,343.2,10,343.2z"/>
			</g>
			<g>
				<path class="st1" d="M147.4,385.5c-1.1,0-2-0.9-2-2c0-1.1,0.9-2,2-2c1.9,0,3.4-0.3,4.6-0.4c1.6-0.2,2.8-0.4,3.7,0.6
					c0.5,0.6,0.7,1.3,0.5,2.1c-0.3,1.1-1.4,1.7-2.5,1.4c-0.2-0.1-0.4-0.1-0.6-0.2c-0.2,0-0.4,0.1-0.6,0.1
					C151.4,385.2,149.6,385.5,147.4,385.5C147.4,385.5,147.4,385.5,147.4,385.5z M152.2,382.7L152.2,382.7L152.2,382.7z"/>
			</g>
			<g>
				<path class="st1" d="M153.6,338.4c-0.3,0-0.6-0.1-0.9-0.2c-3.1-1.6-5.2-4.5-4.9-7.2c0.1-1.1,1.1-1.9,2.2-1.8
					c1.1,0.1,1.9,1.1,1.8,2.2c-0.1,0.6,0.7,2.2,2.7,3.2c1,0.5,1.4,1.7,0.9,2.7C155,338,154.3,338.4,153.6,338.4z"/>
			</g>
			<g>
				<path class="st1" d="M199.7,377.3c-2.1,0-3.7-0.7-4.7-2c-0.9-1.3-0.9-3-0.1-4.6c2.4-4.4,3.8-6.4,5.8-6.4c0,0,0,0,0,0l0.2,0
					c1.6,0.1,2.8,1.7,4.2,3.7c0.4,0.5,0.8,1.1,1.2,1.6c1,1.2,1.3,2.6,0.8,3.9c-0.7,1.8-2.7,3.2-5.6,3.8l-0.1,0
					C200.8,377.3,200.2,377.3,199.7,377.3z M198.3,373c0.2,0.1,0.9,0.4,2.4,0.2c1.6-0.3,2.4-0.8,2.6-1.1c0,0,0-0.1-0.1-0.1
					c-0.5-0.6-0.9-1.2-1.3-1.8c-0.3-0.5-0.8-1-1.1-1.5c-0.5,0.6-1.2,1.8-2.3,3.8C198.4,372.8,198.3,373,198.3,373z M200.1,368.1
					L200.1,368.1L200.1,368.1z"/>
			</g>
			<g>
				<path class="st1" d="M223.5,218.8c-8.6,0-19.2-6.2-24.3-9.2c-0.1-0.1-0.3-0.2-0.4-0.2c-0.3,2.7-1,8.3-7.6,8.3
					c-0.1,0-0.2,0-0.3,0c-2,0-3.6-0.7-4.8-2c-1.9-2.1-2.1-5.2-2-7.7c-8.8,6.4-15,9.5-19.1,9.5c0,0,0,0,0,0c-1.1,0-2-0.9-2-2
					c0-1.1,0.9-2,2-2c0,0,0,0,0,0c2,0,7-1.3,18.8-10.3c0.4-0.3,0.6-0.5,0.8-0.6l0.3-0.2l0.4-0.1c0.7-0.2,1.5,0,2,0.5
					c1.1,0.9,1,2.3,0.9,4.2c-0.1,1.9-0.2,4.7,0.9,5.9c0.2,0.2,0.6,0.7,2,0.7c2.9,0.1,3.4-1.5,3.8-4.9c0.2-1.6,0.3-3.2,1.7-3.9
					c0.5-0.2,1.4-0.5,2.6,0.1c0.5,0.3,1.2,0.7,2,1.2c4.8,2.8,14.7,8.7,22.2,8.7c0,0,0,0,0,0c1.1,0,2,0.9,2,2
					C225.5,217.9,224.6,218.8,223.5,218.8C223.5,218.8,223.5,218.8,223.5,218.8z"/>
			</g>
			<g>
				<path class="st1" d="M194.4,397.9c-0.6,0-1.2-0.3-1.6-0.8c-0.6-0.9-0.4-2.2,0.5-2.8c4.9-3.5,7.3-7,7.6-8.1
					c-0.1-1,0.5-1.9,1.5-2.1c1.1-0.3,2.2,0.4,2.4,1.4c0.8,2.9-4.1,8.4-9.2,12C195.2,397.8,194.8,397.9,194.4,397.9z M200.9,386.6
					C200.9,386.6,200.9,386.6,200.9,386.6C200.9,386.6,200.9,386.6,200.9,386.6z"/>
			</g>
			<g>
				<path class="st1" d="M210.4,322.4C210.4,322.4,210.3,322.4,210.4,322.4c-3.9-0.1-7.1-0.5-9.2-0.8c-0.7-0.1-1.4-0.2-1.9-0.3
					c-0.2,0.2-0.5,0.4-0.8,0.5c-1.1,0.3-2.2-0.3-2.5-1.3c-0.3-0.8-0.1-1.7,0.4-2.3c1-1.2,2.5-1,5.4-0.6c2.1,0.3,5,0.7,8.7,0.8
					c1.1,0,2,0.9,2,2C212.4,321.6,211.5,322.4,210.4,322.4z M199.8,319.4L199.8,319.4L199.8,319.4z"/>
			</g>
			<g>
				<path class="st1" d="M48.8,237.8c-0.7,0-1.3-0.3-1.7-0.9c-0.6-0.9-0.3-2.2,0.6-2.8c2.3-1.5,3.6-3.1,3.9-3.6
					c0.1-0.8,0.6-1.5,1.4-1.7c1.1-0.3,2.2,0.2,2.5,1.3c1,3.1-5.5,7.4-5.6,7.4C49.6,237.7,49.2,237.8,48.8,237.8z M51.7,231.3
					C51.7,231.3,51.7,231.3,51.7,231.3C51.7,231.3,51.7,231.3,51.7,231.3z"/>
			</g>
			<g>
				<path class="st1" d="M145.5,323.4c-1,0-1.9-0.8-2-1.8c-0.1-1.1,0.7-2.1,1.8-2.2c4.2-0.4,7.4-1.3,9.5-1.9c2.2-0.6,3.5-1,4.5,0.1
					c0.6,0.6,0.7,1.5,0.4,2.3c-0.4,1-1.5,1.6-2.6,1.2c-0.1,0-0.2-0.1-0.2-0.1c-0.3,0.1-0.7,0.2-1.1,0.3c-2.1,0.6-5.6,1.6-10.2,2
					C145.6,323.4,145.5,323.4,145.5,323.4z M155.9,318.6C155.9,318.6,155.9,318.6,155.9,318.6C155.9,318.6,155.9,318.6,155.9,318.6z
					"/>
			</g>
			<g>
				<path class="st1" d="M35.2,368c-0.1,0-0.3,0-0.4,0c-6.6-1.3-11.3-4.2-12.3-6.3c-0.5-1-0.2-1.8,0-2.2c0.5-1,1.7-1.4,2.7-0.9
					c0.6,0.3,1,0.9,1.1,1.5c0.8,0.9,4,3,9.3,4c1.1,0.2,1.8,1.3,1.6,2.3C37,367.3,36.1,368,35.2,368z M26,361.2L26,361.2
					C26,361.2,26,361.2,26,361.2z"/>
			</g>
			<g>
				<path class="st1" d="M105.7,458.3c-0.5,0-1.1-0.2-1.5-0.6c-4.1-4.3-4.6-7.9-5.1-11c-0.4-2.8-0.8-5.2-3.7-8.4l-0.1-0.1
					c-2.5-3.1-4.8-3.6-7.3-4.3c-2.7-0.7-5.8-1.4-8.9-5.3l0,0c-2.8-3.7-2.6-7.1-2.4-9.8c0.1-2.4,0.3-4.3-1.3-6.5l0-0.1
					c-1.1-1.7-2.2-1.7-4.4-1.5c-2,0.1-4.8,0.3-6.7-2.5l0-0.1c-1.6-2.5-0.6-5.5,0.3-8c0.1-0.3,0.3-0.8,0.4-1.2
					c-0.4,0.4-0.8,0.9-1,1.1c-0.9,1-1.7,2-3.1,1.4l-1.3-0.6l0.1-1.5c0.1-0.6,0.4-1.2,0.9-1.5c0.1-0.1,0.3-0.3,0.4-0.5
					c2.2-2.5,4-4.3,5.9-4.1c0.8,0.1,1.5,0.6,1.9,1.4c1.2,2.1,0.4,4.5-0.4,6.8c-0.6,1.7-1.2,3.6-0.7,4.4c0.6,0.8,1.3,0.9,3.2,0.8
					c2.2-0.1,5.5-0.3,7.9,3.3c2.4,3.4,2.2,6.4,2.1,9.1c-0.2,2.6-0.3,4.6,1.6,7.1c2.2,2.7,4.2,3.2,6.7,3.8c2.8,0.7,6,1.5,9.4,5.6
					c3.6,4.1,4.2,7.5,4.6,10.5c0.5,2.9,0.8,5.5,4.1,8.9c0.8,0.8,0.7,2.1-0.1,2.8C106.7,458.1,106.2,458.3,105.7,458.3z"/>
			</g>
			<g>
				<path class="st1" d="M164.3,410.4c-2.7,0-5-0.9-6-1.2c-0.3-0.1-0.5-0.2-0.8-0.3c-2.2-0.8-3.3-1.2-6.1,0.2c-1,0.5-2.2,0-2.7-1
					c-0.5-1,0-2.2,1-2.7c4.3-2,6.7-1.2,9.2-0.3c0.2,0.1,0.5,0.2,0.8,0.3l0.1,0c3.3,1.2,5.8,1.3,7.7,0.3c1.3-0.7,1.4-0.9,0.4-3.3
					l-0.1-0.3c-0.6-1.3-1.1-2.6-1.5-3.5c-0.1-0.3-0.3-0.7-0.4-0.9c-0.3-0.6-0.4-1.3-0.1-1.9c0.5-1,1.7-1.4,2.7-1
					c0.7,0.4,0.9,0.8,1.5,2.2c0.4,0.9,0.9,2.1,1.4,3.3l0.1,0.1l0.1,0.4c0.8,2,2.3,5.8-2.3,8.3C167.7,410.1,165.9,410.4,164.3,410.4z
					 M166.8,398.5C166.8,398.5,166.8,398.5,166.8,398.5C166.8,398.5,166.8,398.5,166.8,398.5z M166.8,398.5
					C166.8,398.5,166.8,398.5,166.8,398.5C166.8,398.5,166.8,398.5,166.8,398.5z M166.8,398.5C166.8,398.5,166.8,398.5,166.8,398.5
					C166.8,398.5,166.8,398.5,166.8,398.5z M166.8,398.5C166.8,398.5,166.8,398.5,166.8,398.5C166.8,398.5,166.8,398.5,166.8,398.5z
					 M166.8,398.5C166.8,398.5,166.8,398.5,166.8,398.5C166.8,398.5,166.8,398.5,166.8,398.5z M166.8,398.5
					C166.8,398.5,166.8,398.5,166.8,398.5C166.8,398.5,166.8,398.5,166.8,398.5z M166.8,398.5C166.8,398.5,166.8,398.5,166.8,398.5
					C166.8,398.5,166.8,398.5,166.8,398.5z M166.8,398.5C166.8,398.5,166.8,398.5,166.8,398.5C166.8,398.5,166.8,398.5,166.8,398.5z
					 M166.7,398.5L166.7,398.5L166.7,398.5z M166.7,398.5L166.7,398.5L166.7,398.5z"/>
			</g>
			<g>
				<path class="st1" d="M35.7,419.1c-0.9,0-1.7-0.6-1.9-1.5c-0.4-1.5-1.6-2-3.7-2.9c-2.3-0.9-5.3-2-6.2-5.6c-0.9-3.6,1.1-6,2.7-7.9
					c1.5-1.7,2.3-2.8,1.9-4.3c-0.3-1.1,0.4-2.2,1.4-2.4c1.1-0.3,2.2,0.4,2.4,1.4c0.9,3.6-1.1,6-2.7,7.9c-1.5,1.7-2.3,2.8-1.9,4.3
					c0.4,1.5,1.6,2,3.7,2.9c2.3,0.9,5.3,2,6.2,5.6c0.3,1.1-0.4,2.2-1.4,2.4C36,419.1,35.8,419.1,35.7,419.1z"/>
			</g>
			<g>
				<path class="st1" d="M53.2,408.7c-0.7,0-1.3-0.3-1.7-0.9c-2-3.1-3.1-7.7-3-12.5c0-1.1,1-2,2-2c1.1,0,2,0.9,2,2.1
					c-0.1,4,0.8,7.9,2.3,10.3c0.6,0.9,0.3,2.2-0.6,2.8C53.9,408.6,53.6,408.7,53.2,408.7z"/>
			</g>
			<g>
				<path class="st1" d="M122.4,411.7c-0.3,0-0.5-0.1-0.8-0.2c-1-0.4-1.5-1.6-1.1-2.6c2.5-5.9,3.3-10.1,3.2-12
					c-0.1-1.1,0.8-2,1.9-2.1c1.1-0.1,2,0.8,2.1,1.9c0.1,3.1-1.1,8.2-3.5,13.8C123.9,411.2,123.2,411.7,122.4,411.7z"/>
			</g>
			<g>
				<path class="st1" d="M68.2,285.9c-0.8,0-1.5-0.4-1.8-1.1c-0.9-0.6-1.1-1.8-0.5-2.7c1-1.5,2.1-2,3.2-1.7c0.5,0.2,1.7,0.7,1.7,2.8
					c0,1.4-1,2.3-2,2.7C68.6,285.8,68.4,285.9,68.2,285.9z"/>
			</g>
			<g>
				<path class="st1" d="M22,386.1c-0.8,0-1.5-0.4-1.8-1.1c-0.9-0.6-1.1-1.8-0.5-2.7c1-1.5,2.1-2,3.2-1.7c0.5,0.2,1.7,0.7,1.7,2.8
					c0,1.4-1,2.3-2,2.7C22.4,386,22.2,386.1,22,386.1z"/>
			</g>
			<g>
				<path class="st1" d="M156.6,368.6c-0.8,0-1.5-0.4-1.8-1.1c-0.9-0.6-1.1-1.8-0.5-2.7c1-1.5,2.1-2,3.2-1.7
					c0.5,0.2,1.7,0.7,1.7,2.8c0,1.4-1,2.3-2,2.7C157,368.5,156.8,368.6,156.6,368.6z"/>
			</g>
			<g>
				<path class="st1" d="M163.8,299.3c-0.8,0-1.5-0.4-1.8-1.1c-0.9-0.6-1.1-1.8-0.5-2.7c1-1.5,2.1-2,3.2-1.7
					c0.5,0.2,1.7,0.7,1.7,2.8c0,1.4-1,2.3-2,2.7C164.2,299.3,164,299.3,163.8,299.3z"/>
			</g>
			<g>
				<path class="st1" d="M96,215.8c-0.8,0-1.5-0.4-1.8-1.1c-0.9-0.6-1.1-1.8-0.5-2.7c1-1.5,2.1-2,3.2-1.7c0.5,0.2,1.7,0.7,1.7,2.8
					c0,1.4-1,2.3-2,2.7C96.4,215.7,96.2,215.8,96,215.8z"/>
			</g>
			<g>
				<path class="st1" d="M163.2,231c-0.8,0-1.5-0.4-1.8-1.1c-0.9-0.6-1.1-1.8-0.5-2.7c1-1.5,2.1-2,3.2-1.7c0.5,0.2,1.7,0.7,1.7,2.8
					c0,1.4-1,2.3-2,2.7C163.6,230.9,163.4,231,163.2,231z"/>
			</g>
			<g>
				<path class="st1" d="M16.2,238.8c-0.8,0-1.5-0.4-1.8-1.1c-0.9-0.6-1.1-1.8-0.5-2.7c1-1.5,2.1-2,3.2-1.7c0.5,0.2,1.7,0.7,1.7,2.8
					c0,1.4-1,2.3-2,2.7C16.6,238.8,16.4,238.8,16.2,238.8z"/>
			</g>
			<g>
				<path class="st1" d="M51.2,324c-0.8,0-1.5-0.4-1.8-1.1c-0.9-0.6-1.1-1.8-0.5-2.7c1-1.5,2.1-2,3.2-1.7c0.5,0.2,1.7,0.7,1.7,2.8
					c0,1.4-1,2.3-2,2.7C51.6,324,51.4,324,51.2,324z"/>
			</g>
			<g>
				<path class="st1" d="M329.4,268.7c-2.1,0-3.8-0.7-4.7-2.1c-0.9-1.4-0.9-3.1,0.1-4.8l0.1-0.2c2.1-3.7,3.6-6.4,6-6l0.2,0
					c1.4,0.3,2.4,1.7,4.1,3.9c0.4,0.5,0.7,1,1.1,1.4c0.9,1.2,1.2,2.5,0.7,3.8c-0.7,1.9-2.9,3.2-5.9,3.7l-0.1,0
					C330.3,268.6,329.8,268.7,329.4,268.7z M328,264.4c0.2,0.1,0.8,0.4,2.2,0.2c1.7-0.3,2.5-0.8,2.7-1.1c-0.4-0.5-0.8-1-1.1-1.5
					c-0.4-0.5-0.9-1.3-1.4-1.8c-0.7,0.9-1.6,2.5-2.1,3.5l-0.1,0.2C328,264.1,328,264.3,328,264.4z M333,263.6L333,263.6L333,263.6z
					 M329.8,259.5L329.8,259.5L329.8,259.5z"/>
			</g>
			<g>
				<path class="st1" d="M277.6,322.4c-0.6,0-1.2-0.1-1.9-0.2l-0.1,0c-3.1-0.7-5.2-2.2-5.9-4c-0.4-1.2-0.1-2.6,0.8-3.6
					c0.4-0.4,0.8-1,1.2-1.5c1.5-2,2.5-3.3,3.8-3.7l0.2,0c2.5-0.6,4.3,2.6,6.2,6.3c1,1.8,0.9,3.6,0,4.9
					C281,321.7,279.5,322.4,277.6,322.4z M276.6,318.3c1.3,0.2,1.9,0,2.1-0.1c0-0.1,0-0.3-0.2-0.7l0,0c-0.4-0.8-1.4-2.7-2.2-3.7
					c-0.4,0.5-0.9,1.2-1.3,1.7c-0.4,0.5-0.8,1.1-1.2,1.6C274.1,317.3,275,317.9,276.6,318.3z"/>
			</g>
			<g>
				<path class="st1" d="M286,392.5c-1.5,0-2.9-0.4-3.9-1.1c-1.1-0.8-1.6-2.1-1.5-3.4c0.4-3,3.5-6.8,4.1-7.5l0.1-0.1
					c0.8-0.8,1.7-1,2.3-0.9c1.5,0.1,2.5,1.3,3.4,2.7c0.3,0.4,0.7,0.9,1.1,1.4c1,1.1,2.2,2.8,1.8,4.8c-0.3,1.5-1.4,2.6-3.4,3.4l0,0
					C288.7,392.2,287.3,392.5,286,392.5z M289.2,389.8L289.2,389.8L289.2,389.8z M284.6,388.2c0.6,0.3,2.2,0.5,3.8-0.3
					c0.7-0.3,1-0.5,1.1-0.6c-0.1-0.2-0.2-0.5-0.9-1.3c-0.5-0.6-0.9-1.1-1.3-1.6c-0.1-0.1-0.2-0.3-0.4-0.5
					C285.9,385.5,284.8,387.2,284.6,388.2z"/>
			</g>
			<g>
				<path class="st1" d="M334.9,396.5c-1.7,0-3.2-0.4-4.2-1.3c-1.1-0.9-1.5-2.2-1.2-3.6c0.6-2.6,3.1-6.1,4.3-7.3l0.1-0.1
					c0.6-0.5,1.4-0.8,2.2-0.7c1.5,0.2,2.4,1.3,3.4,2.7c0.4,0.5,0.7,1,1.2,1.5c0.5,0.6,2.2,2.4,1.7,4.6c-0.4,1.5-1.6,2.7-3.8,3.5
					C337.4,396.3,336.1,396.5,334.9,396.5z M333.5,392.2c0.5,0.3,2,0.5,3.6-0.2c0.8-0.3,1.2-0.6,1.3-0.7c0-0.1-0.2-0.5-0.7-1
					c-0.5-0.6-1-1.2-1.4-1.7c-0.1-0.2-0.3-0.4-0.4-0.5C335,389.2,333.9,391,333.5,392.2z"/>
			</g>
			<g>
				<path class="st1" d="M208.6,302.6c-1.6,0-3-0.4-3.9-1.2c-3-2.4-0.6-6.1,0.9-8.4c0.2-0.3,0.3-0.5,0.5-0.8l0,0
					c0.8-1.3,1.8-2.7,3.5-2.7c0,0,0.1,0,0.1,0c1.7,0,2.7,1.5,3.4,2.4c0.3,0.5,0.7,0.9,1,1.3c1.3,1.5,3.3,4.1,1.2,6.6
					c-1.3,1.6-3.8,2.4-5.7,2.6C209.3,302.6,208.9,302.6,208.6,302.6z M207.3,298.4c0.2,0.1,0.8,0.3,2,0.2c1.5-0.2,2.6-0.7,3-1.1
					c-0.2-0.4-0.8-1.1-1.2-1.6c-0.4-0.5-0.8-1-1.2-1.5c-0.1-0.1-0.1-0.1-0.1-0.2c-0.1,0.1-0.1,0.2-0.2,0.3c-0.2,0.3-0.3,0.5-0.5,0.8
					C208.4,296.1,207.3,297.7,207.3,298.4z M207.3,298.5L207.3,298.5L207.3,298.5z"/>
			</g>
			<g>
				<path class="st1" d="M328.3,356.2c-0.2,0-0.3,0-0.5-0.1c-7.1-1.7-12.5-4.7-15.3-7c-0.5-0.4-0.7-1-0.7-1.6c0-0.6,0.3-1.2,0.8-1.5
					c8.1-6.3,9.6-7.4,11.4-6.4c0.3,0.2,0.6,0.5,0.8,0.8c2.2,4.1,4,8.5,5.4,13.2c0.2,0.7,0,1.4-0.5,1.9
					C329.3,356,328.8,356.2,328.3,356.2z M317.2,347.5c2,1.3,4.7,2.6,8,3.7c-0.9-2.6-2-5-3.1-7.3C320.9,344.7,319,346.1,317.2,347.5
					z"/>
			</g>
			<g>
				<path class="st1" d="M370,251.6c-0.8,0-1.6-0.5-1.9-1.3c-0.3-0.8-0.1-1.7,0.6-2.3c6.1-4.9,9.3-10.2,10.2-13.6
					c0.2-0.9,1-1.5,1.9-1.5h0c0.9,0,1.7,0.6,1.9,1.5c1.4,5,4.8,9.2,9.7,12.2c0.7,0.5,1.1,1.4,0.9,2.2c-0.2,0.9-1,1.5-1.8,1.5
					c-4.3,0.2-8.5,0.5-12.6,0.8c-3.1,0.2-6,0.4-8.8,0.6C370.1,251.6,370.1,251.6,370,251.6z M380.9,240.1c-1.3,2.4-3.2,4.8-5.3,7.1
					c1-0.1,2.1-0.1,3.2-0.2c2.4-0.2,4.8-0.3,7.2-0.5C383.8,244.6,382.1,242.5,380.9,240.1z"/>
			</g>
			<g>
				<path class="st1" d="M335.7,233.5C335.6,233.5,335.6,233.5,335.7,233.5c-5.4-0.2-10.2-0.6-14.4-1c-1.9-0.2-3.6-0.3-5.2-0.5
					c-0.8-0.1-1.5-0.6-1.8-1.4c-0.2-0.8,0-1.6,0.7-2.2c5.8-4.6,9-9.2,9.7-11.3c0.3-0.8,1-1.3,1.9-1.3c0.8,0,1.6,0.6,1.9,1.4
					c1.7,5,4.5,9.3,8.5,12.8c0.6,0.6,0.8,1.5,0.5,2.2C337.2,233,336.5,233.5,335.7,233.5z M321.1,228.4c0.2,0,0.4,0,0.5,0.1
					c2.8,0.3,5.8,0.5,9,0.8c-1.7-2.1-3.2-4.3-4.3-6.8C325.1,224.3,323.3,226.3,321.1,228.4z"/>
			</g>
			<g>
				<path class="st1" d="M277.9,275.2c-0.7,0-1.4-0.4-1.8-1.1c-0.4-0.8-0.3-1.7,0.4-2.4c4.7-4.6,8.1-10.1,9.7-15.5
					c0.2-0.9,1-1.4,1.9-1.4c0,0,0,0,0,0c0.9,0,1.7,0.6,1.9,1.5c1.1,4.2,4.6,8.2,9.8,10.8c0.8,0.4,1.2,1.3,1.1,2.1
					c-0.1,0.9-0.8,1.5-1.7,1.6c-3.6,0.5-7.4,1.3-11.6,2.3c-3,0.7-6.1,1.4-9.3,2C278.2,275.2,278,275.2,277.9,275.2z M288.3,262.2
					c-1.1,2.4-2.7,5.1-4.8,7.9c1.1-0.2,2.2-0.5,3.3-0.7c2.3-0.5,4.5-1,6.7-1.4C291.3,266.2,289.6,264.3,288.3,262.2z"/>
			</g>
			<g>
				<path class="st1" d="M247.8,352.7c-2.7,0-4.5-1.2-6.1-2.2c-1.7-1.1-2.8-1.9-5.2-1.1c-1.1,0.3-2.2-0.3-2.5-1.3
					c-0.3-1.1,0.3-2.2,1.3-2.5c4.1-1.3,6.6,0.3,8.5,1.6c1.7,1.1,2.9,1.9,5.3,1.4c2.3-0.7,3.2-2.3,4.5-5c1.2-2.5,2.6-5.3,6.1-6.9
					c4-2,6.7,0,8.8,1.5c1.9,1.4,3,2.1,4.8,1.4c2.1-1,2.8-3.4,3.6-6.2c0.9-3.1,1.9-6.6,5.2-8.6c3.9-2.4,7,0.1,9,1.8
					c2.2,1.8,3.1,2.4,4.5,1.7c1.8-1,2.3-3.8,2.7-6.8c0.6-3.4,1.2-7.4,4.4-9.3c3.7-2.3,6.9,0.7,9,2.7c2.2,2.1,3.2,2.8,4.2,2.3
					c1.4-0.7,1.6-3.7,1.7-6.4c0.2-3.5,0.4-7.5,3.6-9c3.5-1.7,6.3,1.6,8.6,4.2c1,1.1,3,3.5,3.7,3.2l0,0c0.4-0.7,0.2-3.5,0.1-4.8
					c-0.3-3.2-0.6-7.2,2.7-7.7l0.3,0c0,0,0,0,0,0c2.4,0,4.3,2.6,7.1,6.8c1.1,1.6,2.7,4,3.4,4.5c1,0.3,1.6,1.3,1.4,2.3
					c-0.2,1.1-1.3,1.8-2.4,1.6c-1.9-0.4-3.4-2.5-5.8-6.1c-0.8-1.2-2-3-3-4.1c0,0.8,0.1,1.8,0.2,2.5c0.3,3.5,0.7,7.9-2.8,9
					c-3.2,1.1-5.8-1.8-8-4.4c-1.1-1.3-3.1-3.6-3.8-3.2c-1,0.5-1.2,3.4-1.3,5.7c-0.2,3.7-0.5,7.9-3.9,9.7c-3.7,1.9-6.6-0.9-8.8-2.9
					c-2.4-2.3-3.3-2.7-4.2-2.2c-1.7,1-2.1,3.7-2.6,6.5c-0.6,3.6-1.2,7.7-4.8,9.7c-3.9,2-6.8-0.4-8.9-2.1c-2.3-1.9-3.1-2.3-4.4-1.5
					l-0.1,0c-1.9,1.1-2.6,3.5-3.4,6.2c-0.9,3.3-2,7-5.8,8.8l-0.1,0c-4,1.7-6.7-0.3-8.7-1.8c-2-1.4-2.9-2-4.7-1.2l-0.1,0
					c-2.2,1-3.1,2.8-4.2,5c-1.4,2.7-2.9,5.8-7.1,7l-0.1,0C249.3,352.6,248.5,352.7,247.8,352.7z M336.5,300.6L336.5,300.6
					L336.5,300.6z"/>
			</g>
			<g>
				<path class="st1" d="M334.4,287.4c-4.8,0-5.4-3.4-5.6-4.9c0-0.1,0-0.2-0.1-0.3c-0.2,0-0.4,0.1-0.7,0.2c-1,0.4-2.2-0.2-2.5-1.2
					c-0.4-1,0.2-2.2,1.2-2.5c1.1-0.4,2.8-0.8,4.2,0c1.4,0.8,1.6,2.3,1.8,3.3c0.2,1.4,0.3,1.6,2.1,1.5c3.1-0.3,5.6-3.2,8.2-6.2
					c2.3-2.6,4.7-5.3,7.7-6.5c1.4-0.6,2.6-0.6,3.7-0.1c1.9,0.8,2.7,2.9,3.4,4.9c1.1,3.1,1.6,3.7,2.9,3.4c2.4-0.5,4.1-4.2,5.7-7.7
					c1.8-3.8,3.6-7.8,7-9.1c4.4-1.8,6.5,3,7.9,6.2c1.6,3.5,2.5,5.1,3.7,4.8c1.9-0.5,3.1-4.7,4-8.1c1.3-4.6,2.4-9,6-10
					c4-1.1,6.3,3.3,8.3,7.2c1.3,2.5,3.1,6.1,4.5,5.8c1.4-0.2,1.9-4.6,2.2-7.2c0.5-4.4,1-9,4.9-9.1l0.1,0l0.1,0
					c3.1,0.1,5.3,3.6,7.9,7.8c1.5,2.4,4,6.4,5.4,6.6c0.2-1-0.2-3.5-0.4-4.7c-0.4-2.8-0.8-4.9,0.8-6c0.4-0.3,1.4-0.8,2.9,0l0.1,0.1
					l0.1,0.1c1.3,1.1,3.2,3.4,5.4,6c2.6,3.1,6.4,7.9,8.2,8.6c1,0.4,1.5,1.6,1.1,2.6c-0.4,1-1.6,1.5-2.6,1.1c-2.5-1-5.6-4.7-9.7-9.8
					c-0.7-0.9-1.4-1.8-2.1-2.6c0.4,2.9,0.7,5.7-0.8,7.4c-0.7,0.8-1.7,1.2-2.8,1.2c0,0,0,0-0.1,0c-3.6,0-6.2-4.1-8.9-8.5
					c-1.2-1.9-3.3-5.3-4.4-5.8c-0.6,0.8-0.9,3.7-1.1,5.5c-0.5,4.7-1.1,10-5.4,10.7c-4.3,0.8-6.6-3.8-8.7-7.9
					c-0.9-1.8-2.8-5.4-3.7-5.2c-1.4,0.4-2.4,4.3-3.2,7.2c-1.3,4.9-2.7,10-6.9,11c-4.7,1.1-6.8-3.6-8.3-7.1c-0.6-1.4-1.3-2.9-1.9-3.7
					c-0.5-0.6-0.6-0.5-0.9-0.4c-1.9,0.7-3.4,4-4.8,7.1c-2.1,4.4-4.2,9-8.5,9.9l-0.1,0c-4.9,0.9-6.5-3.4-7.4-6
					c-0.3-0.8-0.9-2.4-1.2-2.6c0,0,0,0,0,0c-0.1,0-0.2,0-0.6,0.2l-0.1,0c-2.1,0.8-4,3-6.1,5.4c-2.9,3.3-6.2,7-10.8,7.5l-0.1,0
					C334.9,287.3,334.7,287.4,334.4,287.4z"/>
			</g>
			<g>
				<path class="st1" d="M225.5,320.7c-0.6,0-1.2-0.3-1.6-0.8c-0.6-0.9-0.4-2.2,0.5-2.8c0.4-0.3,0.6-0.4-0.1-2.5
					c-0.6-1.8-1.5-4.8,1.2-7.1c2.3-2.4,5.3-2.2,7.7-2.1c2.3,0.2,3.7,0.2,4.8-0.9c1-1.3,0.7-2.7,0.1-4.9c-0.7-2.5-1.5-5.5,0.8-8.6
					c2.4-3.6,5.9-3.5,8.4-3.5c2.3,0,3.6,0,4.6-1.3c1.1-1.7,0.8-3.5,0.2-6.3c-0.7-3-1.4-6.3,0.8-9.5c2.7-4.2,6.6-3,9-2.2
					c2.1,0.6,2.5,0.6,2.8,0.2c0.7-0.9,1.9-1,2.8-0.4c0.9,0.7,1,1.9,0.4,2.8c-2.1,2.7-5.1,1.8-7.2,1.2c-2.7-0.8-3.5-0.9-4.5,0.6l0,0
					c-1.2,1.8-0.8,4-0.2,6.4c0.7,3,1.4,6.3-0.8,9.5l0,0.1c-2.3,3-5.4,3-7.8,2.9c-2.5,0-3.9,0-5,1.7l-0.1,0.1
					c-1.1,1.5-0.8,2.9-0.2,5.2c0.6,2.5,1.5,5.5-0.9,8.5l-0.1,0.1c-2.4,2.6-5.5,2.4-8,2.2c-2.2-0.1-3.7-0.2-4.6,0.9l-0.2,0.2
					c-0.6,0.4-0.6,0.8,0,2.8c0.6,1.8,1.5,4.9-1.4,6.9C226.4,320.6,225.9,320.7,225.5,320.7z"/>
			</g>
			<g>
				<path class="st1" d="M307.1,379.4c-0.1,0-0.1,0-0.2,0c-6.8-0.7-11.8-4.3-15.9-7.1c-2-1.4-3.9-2.8-5.7-3.5l-0.2-0.1
					c-0.3-0.1-0.4-0.2-0.5-0.2c-0.3,0.2-0.7,0.9-1.1,1.4c-1.3,1.9-3.4,5.1-8.5,4.1l-0.1,0c-5.3-1.2-5.3-6.9-5.3-10.3
					c0-0.2,0-0.5,0-0.7c-0.5,0.4-1,0.9-1.4,1.3c-4.2,3.9-7.2,6.4-9.6,6.2c-1.1-0.1-1.9-1.1-1.8-2.2c0.1-1.1,1-1.9,2.1-1.8
					c1.2-0.2,4.8-3.6,6.6-5.2c1-0.9,1.9-1.8,2.7-2.4c0.7-0.6,2.3-1.8,3.7-0.9c1.7,1,1.7,3.3,1.7,5.7c0,4,0.3,5.9,2.1,6.4
					c2.3,0.4,3.1-0.5,4.3-2.5c1-1.6,3-4.4,6.7-2.5c2.1,0.9,4.2,2.4,6.4,3.9c3.9,2.7,8.3,5.9,14,6.4c1.1,0.1,1.9,1.1,1.8,2.2
					C309,378.6,308.1,379.4,307.1,379.4z"/>
			</g>
			<g>
				<path class="st1" d="M356.4,259.5c-0.5,0-1.1-0.2-1.5-0.6c-3.7-4-4.3-6.9-4.8-9.7c-0.1-0.4-0.1-0.8-0.2-1.2l0-0.1
					c-0.3-1.9-1.2-5.5-3.2-8.4c-0.2-0.4-0.4-0.6-0.6-0.7c-0.1,0-0.2,0.1-0.3,0.1c-0.2,0.1-0.4,0.2-0.6,0.3c-0.7,0.4-3.4,2.1-5,1.1
					c-0.7-0.4-1.1-1.3-1-2.1c0.2-1.1,1.2-1.8,2.3-1.7c0,0,0,0,0,0c0.4-0.1,1-0.4,1.5-0.7l0.2-0.1c0.2-0.1,0.3-0.2,0.5-0.3
					c1.7-1,3.8-1.6,6.1,1.7c2.5,3.4,3.5,7.7,3.9,10c0.1,0.4,0.2,0.8,0.2,1.2c0.5,2.6,0.9,4.6,3.8,7.8c0.8,0.8,0.7,2.1-0.1,2.8
					C357.4,259.3,356.9,259.5,356.4,259.5z M343.3,238.9"/>
			</g>
			<g>
				<path class="st1" d="M324.2,377.5c-3.2,0-5.1-2.2-6.6-3.9c-1.5-1.7-2.4-2.7-4-2.5c-1.1,0.1-2.1-0.7-2.2-1.8
					c-0.1-1.1,0.7-2.1,1.8-2.2c3.7-0.4,5.7,2,7.4,3.9c1.5,1.7,2.4,2.7,4,2.5c1.6-0.2,2.3-1.3,3.4-3.3c1.2-2.2,2.8-4.9,6.5-5.3
					c1.1-0.1,2.1,0.7,2.2,1.8c0.1,1.1-0.7,2.1-1.8,2.2c-1.6,0.2-2.3,1.3-3.4,3.3c-1.2,2.2-2.8,4.9-6.5,5.3
					C324.7,377.5,324.4,377.5,324.2,377.5z"/>
			</g>
			<g>
				<path class="st1" d="M244.7,385.6c-1,0-2-0.2-3.1-0.5c-4.8-1.8-3.4-6.2-2.7-8.6l0.2-0.5c1-2.6,1.8-5.1,1.9-5.5
					c0.2-1.1,1.3-1.8,2.4-1.6c1.1,0.2,1.8,1.3,1.6,2.3c-0.1,0.8-1.1,3.7-2,6.1l-0.1,0.3c-1,3.1-0.7,3.2,0.2,3.6
					c2.3,0.9,5.1-0.3,7.7-1.7l0.4-0.2c2.6-1.4,4.9-2.5,9.4-1.1c1.1,0.3,1.7,1.4,1.3,2.5c-0.3,1.1-1.4,1.7-2.5,1.3
					c-3-0.9-4.1-0.4-6.4,0.9l-0.4,0.2C251,384,248,385.6,244.7,385.6z"/>
			</g>
			<g>
				<path class="st1" d="M258.5,311.8c-0.5,0-1-0.2-1.4-0.6c-0.8-0.8-0.8-2.1,0-2.8c1.1-1.1,0.9-2.4,0.6-4.7
					c-0.4-2.5-0.9-5.6,1.7-8.2c2.6-2.6,5.7-2.1,8.2-1.7c2.2,0.4,3.6,0.5,4.7-0.6c0.8-0.8,2-0.8,2.8,0c0.8,0.8,0.8,2.1,0,2.8
					c-2.6,2.6-5.7,2.1-8.2,1.7c-2.2-0.4-3.6-0.5-4.7,0.6c-1.1,1.1-0.9,2.4-0.6,4.7c0.4,2.5,0.9,5.6-1.7,8.2
					C259.5,311.6,259,311.8,258.5,311.8z"/>
			</g>
			<g>
				<path class="st1" d="M366.9,356.6c-0.4,0-0.8-0.1-1.2-0.4c-0.9-0.7-1.1-1.9-0.4-2.8c1.6-2.1,1.1-3.1,0.2-4.9
					c-1-2.1-2.4-5.1,0.8-9.1c2.5-3.6,5.9-4.8,8.9-5.9c2.6-1,4.9-1.8,6.2-4c0.9-1.8,0.4-3-0.5-5c-1-2.1-2.4-5-0.3-8.8
					c1.8-3.8,4.9-4.6,7.2-5.1c2-0.5,2.7-0.7,3.1-1.7c0.4-1.5-0.4-3.1-1.2-5c-1.1-2.4-2.2-5.1-1.3-8.2c0.4-1.5,1.1-2.5,2.1-3
					c1.3-0.6,2.6-0.2,3.5,0.2c0.2-0.2,0.5-0.3,0.8-0.3c1.1-0.2,2.1,0.6,2.3,1.7c0.2,1.5-0.4,2.3-0.9,2.7c-1.2,0.9-2.5,0.2-3.3-0.1
					c-0.2-0.1-0.4-0.2-0.6-0.3c0,0,0,0.1,0,0.1l0,0.2c-0.5,1.6,0.3,3.4,1.1,5.4c1,2.3,2.2,5,1.4,7.8l-0.1,0.2
					c-1.2,3.2-3.9,3.8-6,4.3c-2.3,0.5-3.6,0.9-4.5,3l-0.1,0.1c-1,1.9-0.6,3.1,0.4,5.2c1,2.1,2.3,4.9,0.4,8.6l-0.1,0.1
					c-2.1,3.5-5.4,4.7-8.3,5.7c-2.7,1-5.3,1.9-7,4.5l-0.1,0.1c-1.7,2.1-1.2,3.1-0.3,5c1,2.1,2.4,5-0.7,9
					C368.1,356.3,367.5,356.6,366.9,356.6z"/>
			</g>
			<g>
				<path class="st1" d="M256.7,246.7c-1,0-1.8-0.7-2-1.7c-0.1-1.1,0.6-2.1,1.7-2.2c4.5-0.6,7.8-1.7,9.8-2.4c2-0.7,3.2-1.1,4.2,0
					c0.6,0.6,0.7,1.5,0.4,2.4c-0.4,1-1.5,1.5-2.5,1.1c-0.3,0.1-0.5,0.2-0.8,0.3c-2.1,0.7-5.7,1.9-10.5,2.5
					C256.8,246.7,256.7,246.7,256.7,246.7z M267,241.2C267,241.2,267,241.2,267,241.2C267,241.2,267,241.2,267,241.2z"/>
			</g>
			<g>
				<path class="st1" d="M300.5,294.4c-0.3,0-0.7-0.1-1-0.3c-0.9-0.6-1.3-1.8-0.7-2.7c3-5,4.4-9.5,4.3-11.3
					c-0.1-1.1,0.8-2.1,1.9-2.1c1.1-0.1,2.1,0.8,2.1,1.9c0.2,3-1.6,8.3-4.8,13.6C301.9,294.1,301.2,294.4,300.5,294.4z"/>
			</g>
			<g>
				<path class="st1" d="M381.4,385.7c-0.5,0-1-0.2-1.4-0.6c-3.1-3-4.9-7.8-4.7-12.5c0-1.1,1-2,2.1-1.9c1.1,0,2,1,1.9,2.1
					c-0.1,3.6,1.2,7.3,3.5,9.5c0.8,0.8,0.8,2,0,2.8C382.4,385.5,381.9,385.7,381.4,385.7z"/>
			</g>
			<g>
				<path class="st1" d="M281.7,357.5c-0.6,0-1.2-0.3-1.6-0.7c-0.7-0.9-0.6-2.1,0.3-2.8c2.2-1.8,3.3-3.5,3.5-4.1
					c0-0.9,0.6-1.8,1.6-2c1.1-0.2,2.1,0.5,2.4,1.6c0.5,2.4-3,6-4.9,7.6C282.6,357.4,282.1,357.5,281.7,357.5z M284,350.2
					C284,350.2,284,350.2,284,350.2C284,350.2,284,350.2,284,350.2z M283.9,349.8L283.9,349.8L283.9,349.8z"/>
			</g>
			<g>
				<path class="st1" d="M349.9,295.6c-0.1,0-0.2,0-0.2,0c-2.3-0.3-4.1-0.8-5.2-1.2c-2.5-1-2.7-1.5-2.9-2.1c-0.2-0.7,0-1.6,0.5-2.1
					c0.6-0.5,1.4-0.7,2.1-0.4c0.2,0.1,0.3,0.2,0.5,0.3c0.4,0.2,2.3,1.2,5.5,1.5c1.1,0.1,1.9,1.1,1.8,2.2
					C351.8,294.8,350.9,295.6,349.9,295.6z"/>
			</g>
			<g>
				<path class="st1" d="M214.9,346.5C214.9,346.5,214.9,346.5,214.9,346.5c-2.5-0.1-4.5-0.5-5.6-0.7c-0.1,0-0.3-0.1-0.4-0.1
					c0,0,0,0,0,0c-1,0.4-2.2-0.1-2.6-1.2c-0.3-0.8-0.2-1.6,0.3-2.2c0.9-1,2.1-0.8,3.4-0.5c1.1,0.2,2.8,0.5,4.9,0.6
					c1.1,0,2,1,1.9,2.1C216.9,345.7,216,346.5,214.9,346.5z M210,343.2C210,343.2,210,343.2,210,343.2
					C210,343.2,210,343.2,210,343.2z"/>
			</g>
			<g>
				<path class="st1" d="M347.4,385.5c-1.1,0-2-0.9-2-2c0-1.1,0.9-2,2-2c1.9,0,3.4-0.3,4.6-0.4c1.6-0.2,2.8-0.4,3.7,0.6
					c0.5,0.6,0.7,1.3,0.5,2.1c-0.3,1.1-1.4,1.7-2.5,1.4c-0.2-0.1-0.4-0.1-0.6-0.2c-0.2,0-0.4,0.1-0.6,0.1
					C351.4,385.2,349.6,385.5,347.4,385.5C347.4,385.5,347.4,385.5,347.4,385.5z M352.2,382.7C352.2,382.7,352.2,382.7,352.2,382.7
					C352.2,382.7,352.2,382.7,352.2,382.7z"/>
			</g>
			<g>
				<path class="st1" d="M353.6,338.4c-0.3,0-0.6-0.1-0.9-0.2c-3.1-1.6-5.2-4.5-4.9-7.2c0.1-1.1,1.1-1.9,2.2-1.8
					c1.1,0.1,1.9,1.1,1.8,2.2c-0.1,0.6,0.7,2.2,2.7,3.2c1,0.5,1.4,1.7,0.9,2.7C355,338,354.3,338.4,353.6,338.4z"/>
			</g>
			<g>
				<path class="st1" d="M399.7,377.3c-2.1,0-3.7-0.7-4.7-2c-0.9-1.3-0.9-3-0.1-4.6c2.4-4.4,3.8-6.4,5.8-6.4c0,0,0,0,0,0l0.2,0
					c1.6,0.1,2.8,1.7,4.2,3.7c0.4,0.5,0.8,1.1,1.2,1.6c1,1.2,1.3,2.6,0.8,3.9c-0.7,1.8-2.7,3.2-5.6,3.8l-0.1,0
					C400.8,377.3,400.2,377.3,399.7,377.3z M398.3,373c0.2,0.1,0.9,0.4,2.4,0.2c1.6-0.3,2.4-0.8,2.6-1.1c0,0,0-0.1-0.1-0.1
					c-0.5-0.6-0.9-1.2-1.3-1.8c-0.3-0.5-0.8-1-1.1-1.5c-0.5,0.6-1.2,1.8-2.3,3.8C398.4,372.8,398.3,373,398.3,373z M400.1,368.1
					L400.1,368.1L400.1,368.1z"/>
			</g>
			<g>
				<path class="st1" d="M423.5,218.8c-8.6,0-19.2-6.2-24.3-9.2c-0.1-0.1-0.3-0.2-0.4-0.2c-0.3,2.7-1,8.3-7.6,8.3
					c-0.1,0-0.2,0-0.3,0c-2,0-3.6-0.7-4.8-2c-1.9-2.1-2.1-5.2-2-7.7c-8.8,6.4-15,9.5-19.1,9.5c0,0,0,0,0,0c-1.1,0-2-0.9-2-2
					c0-1.1,0.9-2,2-2c0,0,0,0,0,0c2,0,7-1.3,18.8-10.3c0.4-0.3,0.6-0.5,0.8-0.6l0.3-0.2l0.4-0.1c0.7-0.2,1.5,0,2,0.5
					c1.1,0.9,1,2.3,0.9,4.2c-0.1,1.9-0.2,4.7,0.9,5.9c0.2,0.2,0.6,0.7,2,0.7c2.9,0.1,3.4-1.5,3.8-4.9c0.2-1.6,0.3-3.2,1.7-3.9
					c0.5-0.2,1.4-0.5,2.6,0.1c0.5,0.3,1.1,0.7,2,1.2c4.8,2.8,14.7,8.7,22.2,8.7c0,0,0,0,0,0c1.1,0,2,0.9,2,2
					C425.5,217.9,424.6,218.8,423.5,218.8C423.5,218.8,423.5,218.8,423.5,218.8z"/>
			</g>
			<g>
				<path class="st1" d="M394.4,397.9c-0.6,0-1.2-0.3-1.6-0.8c-0.6-0.9-0.4-2.2,0.5-2.8c4.9-3.5,7.3-7,7.6-8.1
					c-0.1-1,0.5-1.9,1.5-2.1c1.1-0.3,2.2,0.4,2.4,1.4c0.8,2.9-4.1,8.4-9.2,12C395.2,397.8,394.8,397.9,394.4,397.9z M400.9,386.6
					L400.9,386.6C400.9,386.6,400.9,386.6,400.9,386.6z"/>
			</g>
			<g>
				<path class="st1" d="M410.4,322.4C410.4,322.4,410.3,322.4,410.4,322.4c-3.9-0.1-7.1-0.5-9.2-0.8c-0.7-0.1-1.4-0.2-1.9-0.3
					c-0.2,0.2-0.5,0.4-0.8,0.5c-1.1,0.3-2.2-0.3-2.5-1.3c-0.3-0.9-0.1-1.7,0.4-2.3c1-1.2,2.5-1,5.4-0.6c2.1,0.3,5,0.7,8.7,0.8
					c1.1,0,2,0.9,2,2C412.4,321.6,411.5,322.4,410.4,322.4z M399.8,319.4L399.8,319.4L399.8,319.4z"/>
			</g>
			<g>
				<path class="st1" d="M248.8,237.8c-0.7,0-1.3-0.3-1.7-0.9c-0.6-0.9-0.3-2.2,0.6-2.8c2.3-1.5,3.6-3.1,3.9-3.6
					c0.1-0.8,0.6-1.5,1.4-1.7c1.1-0.3,2.2,0.2,2.5,1.3c1,3.1-5.5,7.4-5.6,7.4C249.6,237.7,249.2,237.8,248.8,237.8z M251.7,231.3
					C251.7,231.3,251.7,231.3,251.7,231.3C251.7,231.3,251.7,231.3,251.7,231.3z"/>
			</g>
			<g>
				<path class="st1" d="M345.5,323.4c-1,0-1.9-0.8-2-1.8c-0.1-1.1,0.7-2.1,1.8-2.2c4.2-0.4,7.4-1.3,9.5-1.9c2.2-0.6,3.5-1,4.5,0.1
					c0.6,0.6,0.7,1.5,0.4,2.3c-0.4,1-1.5,1.6-2.6,1.2c-0.1,0-0.2-0.1-0.2-0.1c-0.3,0.1-0.7,0.2-1.1,0.3c-2.1,0.6-5.6,1.6-10.2,2
					C345.6,323.4,345.5,323.4,345.5,323.4z M355.9,318.6C355.9,318.6,355.9,318.6,355.9,318.6C355.9,318.6,355.9,318.6,355.9,318.6z
					"/>
			</g>
			<g>
				<path class="st1" d="M235.2,368c-0.1,0-0.3,0-0.4,0c-6.6-1.3-11.3-4.2-12.3-6.3c-0.5-1-0.2-1.8,0-2.2c0.5-1,1.7-1.4,2.7-0.9
					c0.6,0.3,1,0.9,1.1,1.5c0.8,0.9,4,3,9.3,4c1.1,0.2,1.8,1.3,1.6,2.3C237,367.3,236.1,368,235.2,368z M226,361.2L226,361.2
					C226,361.2,226,361.2,226,361.2z"/>
			</g>
			<g>
				<path class="st1" d="M305.7,458.3c-0.5,0-1.1-0.2-1.5-0.6c-4.1-4.3-4.6-7.9-5.1-11c-0.4-2.8-0.8-5.2-3.7-8.4l-0.1-0.1
					c-2.5-3.1-4.8-3.6-7.3-4.3c-2.7-0.7-5.8-1.4-8.9-5.3l0,0c-2.8-3.7-2.6-7.1-2.4-9.8c0.1-2.4,0.3-4.3-1.3-6.5l0-0.1
					c-1.1-1.7-2.2-1.7-4.4-1.5c-2,0.1-4.8,0.3-6.7-2.5l0-0.1c-1.6-2.5-0.6-5.5,0.3-8c0.1-0.3,0.3-0.8,0.4-1.3
					c-0.4,0.4-0.8,0.9-1,1.1c-0.9,1-1.7,2-3.1,1.4l-1.3-0.6l0.1-1.5c0.1-0.6,0.4-1.2,0.9-1.5c0.1-0.1,0.3-0.3,0.4-0.5
					c2.2-2.5,4-4.3,5.9-4c0.8,0.1,1.5,0.6,1.9,1.4c1.2,2.1,0.4,4.5-0.4,6.8c-0.6,1.7-1.2,3.6-0.7,4.4c0.6,0.8,1.3,0.9,3.2,0.8
					c2.2-0.1,5.5-0.3,7.9,3.3c2.4,3.4,2.2,6.4,2.1,9.1c-0.2,2.6-0.3,4.6,1.6,7.1c2.2,2.7,4.2,3.2,6.7,3.8c2.8,0.7,6,1.5,9.4,5.6
					c3.6,4.1,4.2,7.5,4.6,10.5c0.5,2.9,0.8,5.5,4.1,8.9c0.8,0.8,0.7,2.1-0.1,2.8C306.7,458.1,306.2,458.3,305.7,458.3z"/>
			</g>
			<g>
				<path class="st1" d="M364.3,410.4c-2.7,0-5-0.9-6-1.2c-0.3-0.1-0.5-0.2-0.8-0.3c-2.2-0.8-3.3-1.2-6.1,0.2c-1,0.5-2.2,0-2.7-1
					c-0.5-1,0-2.2,1-2.7c4.3-2,6.7-1.2,9.2-0.3c0.2,0.1,0.5,0.2,0.8,0.3l0.1,0c3.3,1.2,5.8,1.3,7.7,0.3c1.3-0.7,1.4-0.9,0.4-3.3
					l-0.1-0.3c-0.6-1.3-1.1-2.6-1.5-3.5c-0.1-0.3-0.3-0.7-0.4-0.9c-0.3-0.6-0.4-1.3-0.1-1.9c0.5-1,1.7-1.4,2.7-1
					c0.7,0.4,0.9,0.8,1.5,2.2c0.4,0.9,0.9,2.1,1.4,3.3l0.1,0.1l0.1,0.4c0.8,2,2.3,5.8-2.3,8.3C367.7,410.1,365.9,410.4,364.3,410.4z
					 M366.8,398.5C366.8,398.5,366.8,398.5,366.8,398.5C366.8,398.5,366.8,398.5,366.8,398.5z M366.8,398.5
					C366.8,398.5,366.8,398.5,366.8,398.5C366.8,398.5,366.8,398.5,366.8,398.5z M366.8,398.5C366.8,398.5,366.8,398.5,366.8,398.5
					C366.8,398.5,366.8,398.5,366.8,398.5z M366.8,398.5C366.8,398.5,366.8,398.5,366.8,398.5C366.8,398.5,366.8,398.5,366.8,398.5z
					 M366.8,398.5C366.8,398.5,366.8,398.5,366.8,398.5C366.8,398.5,366.8,398.5,366.8,398.5z M366.8,398.5
					C366.8,398.5,366.8,398.5,366.8,398.5C366.8,398.5,366.8,398.5,366.8,398.5z M366.8,398.5C366.8,398.5,366.8,398.5,366.8,398.5
					C366.8,398.5,366.8,398.5,366.8,398.5z M366.8,398.5C366.8,398.5,366.8,398.5,366.8,398.5C366.8,398.5,366.8,398.5,366.8,398.5z
					 M366.7,398.5L366.7,398.5L366.7,398.5z M366.7,398.5L366.7,398.5L366.7,398.5z"/>
			</g>
			<g>
				<path class="st1" d="M235.7,419.1c-0.9,0-1.7-0.6-1.9-1.5c-0.4-1.5-1.6-2-3.7-2.9c-2.3-0.9-5.3-2-6.2-5.6
					c-0.9-3.6,1.1-6,2.7-7.9c1.5-1.7,2.3-2.8,1.9-4.3c-0.3-1.1,0.4-2.2,1.4-2.4c1.1-0.3,2.2,0.4,2.4,1.4c0.9,3.6-1.1,6-2.7,7.9
					c-1.5,1.7-2.3,2.8-1.9,4.3c0.4,1.5,1.6,2,3.7,2.9c2.3,0.9,5.3,2,6.2,5.6c0.3,1.1-0.4,2.2-1.4,2.4
					C236,419.1,235.8,419.1,235.7,419.1z"/>
			</g>
			<g>
				<path class="st1" d="M253.2,408.7c-0.7,0-1.3-0.3-1.7-0.9c-2-3.1-3.1-7.7-3-12.5c0-1.1,0.9-2,2-2c1.1,0,2,0.9,2,2.1
					c-0.1,4,0.8,7.9,2.3,10.3c0.6,0.9,0.3,2.2-0.6,2.8C253.9,408.6,253.6,408.7,253.2,408.7z"/>
			</g>
			<g>
				<path class="st1" d="M322.4,411.7c-0.3,0-0.5-0.1-0.8-0.2c-1-0.4-1.5-1.6-1.1-2.6c2.5-5.9,3.3-10.1,3.2-12
					c-0.1-1.1,0.8-2,1.9-2.1c1.1-0.1,2,0.8,2.1,1.9c0.1,3.1-1.1,8.2-3.5,13.8C323.9,411.2,323.2,411.7,322.4,411.7z"/>
			</g>
			<g>
				<path class="st1" d="M268.2,285.9c-0.8,0-1.5-0.4-1.8-1.1c-0.9-0.6-1.1-1.8-0.5-2.7c1-1.5,2.1-2,3.2-1.7
					c0.5,0.2,1.7,0.7,1.7,2.8c0,1.4-1,2.3-2,2.7C268.6,285.8,268.4,285.9,268.2,285.9z"/>
			</g>
			<g>
				<path class="st1" d="M222,386.1c-0.8,0-1.5-0.4-1.8-1.1c-0.9-0.6-1.1-1.8-0.5-2.7c1-1.5,2.1-2,3.2-1.7c0.5,0.2,1.7,0.7,1.7,2.8
					c0,1.4-1,2.3-2,2.7C222.4,386,222.2,386.1,222,386.1z"/>
			</g>
			<g>
				<path class="st1" d="M356.6,368.6c-0.8,0-1.5-0.4-1.8-1.1c-0.9-0.6-1.1-1.8-0.5-2.7c1-1.5,2.1-2,3.2-1.7
					c0.5,0.2,1.7,0.7,1.7,2.8c0,1.4-1,2.3-2,2.7C357,368.5,356.8,368.6,356.6,368.6z"/>
			</g>
			<g>
				<path class="st1" d="M363.8,299.3c-0.8,0-1.5-0.4-1.8-1.1c-0.9-0.6-1.1-1.8-0.5-2.7c1-1.5,2.1-2,3.2-1.7
					c0.5,0.2,1.7,0.7,1.7,2.8c0,1.4-1,2.3-2,2.7C364.2,299.3,364,299.3,363.8,299.3z"/>
			</g>
			<g>
				<path class="st1" d="M296,215.8c-0.8,0-1.5-0.4-1.8-1.1c-0.9-0.6-1.1-1.8-0.5-2.7c1-1.5,2.1-2,3.2-1.7c0.5,0.2,1.7,0.7,1.7,2.8
					c0,1.4-1,2.3-2,2.7C296.4,215.7,296.2,215.8,296,215.8z"/>
			</g>
			<g>
				<path class="st1" d="M363.2,231c-0.8,0-1.5-0.4-1.8-1.1c-0.9-0.6-1.1-1.8-0.5-2.7c1-1.5,2.1-2,3.2-1.7c0.5,0.2,1.7,0.7,1.7,2.8
					c0,1.4-1,2.3-2,2.7C363.6,230.9,363.4,231,363.2,231z"/>
			</g>
			<g>
				<path class="st1" d="M216.2,238.8c-0.8,0-1.5-0.4-1.8-1.1c-0.9-0.6-1.1-1.8-0.5-2.7c1-1.5,2.1-2,3.2-1.7
					c0.5,0.2,1.7,0.7,1.7,2.8c0,1.4-1,2.3-2,2.7C216.6,238.8,216.4,238.8,216.2,238.8z"/>
			</g>
			<g>
				<path class="st1" d="M251.2,324c-0.8,0-1.5-0.4-1.8-1.1c-0.9-0.6-1.1-1.8-0.5-2.7c1-1.5,2.1-2,3.2-1.7c0.5,0.2,1.7,0.7,1.7,2.8
					c0,1.4-1,2.3-2,2.7C251.6,324,251.4,324,251.2,324z"/>
			</g>
		</g>
	</g>
</g>
</svg>
