<?xml version="1.0" encoding="utf-8"?>
<!-- Generator: Adobe Illustrator 22.1.0, SVG Export Plug-In . SVG Version: 6.00 Build 0)  -->
<svg version="1.1" id="Layer_1" xmlns="http://www.w3.org/2000/svg" xmlns:xlink="http://www.w3.org/1999/xlink" x="0px" y="0px"
	 viewBox="0 0 400 400" style="enable-background:new 0 0 400 400;" xml:space="preserve">
<style type="text/css">
	.st0{clip-path:url(#SVGID_2_);}
</style>
<g>
	<g>
		<defs>
			<rect id="SVGID_1_" width="400" height="400"/>
		</defs>
		<use xlink:href="#SVGID_1_"  style="overflow:visible;fill:#FFFFFF;"/>
		<clipPath id="SVGID_2_">
			<use xlink:href="#SVGID_1_"  style="overflow:visible;"/>
		</clipPath>
		<circle class="st0" cx="138.3" cy="257.6" r="9.4"/>
		<ellipse transform="matrix(0.923 -0.3849 0.3849 0.923 -147.5762 33.4946)" class="st0" cx="9.9" cy="385.4" rx="9.4" ry="9.4"/>
		<circle class="st0" cx="159.5" cy="210.7" r="9.4"/>
		
			<ellipse transform="matrix(0.9239 -0.3827 0.3827 0.9239 -75.3966 96.2253)" class="st0" cx="204.2" cy="237.6" rx="9.4" ry="9.4"/>
		<circle class="st0" cx="184.1" cy="276.7" r="9.4"/>
		<circle class="st0" cx="290.8" cy="165.4" r="9.4"/>
		<circle class="st0" cx="214.9" cy="142.1" r="9.4"/>
		
			<ellipse transform="matrix(0.1491 -0.9888 0.9888 0.1491 -32.1825 279.2411)" class="st0" cx="146.2" cy="158.3" rx="9.4" ry="9.4"/>
		<circle class="st0" cx="48.2" cy="63.5" r="9.4"/>
		<circle class="st0" cx="98.9" cy="90.3" r="9.4"/>
		<ellipse transform="matrix(0.923 -0.3849 0.3849 0.923 -14.3449 62.0613)" class="st0" cx="147.9" cy="66.9" rx="9.4" ry="9.4"/>
		<circle class="st0" cx="145.9" cy="26" r="9.4"/>
		<circle class="st0" cx="97.8" cy="37.5" r="9.4"/>
		<circle class="st0" cx="183" cy="154.4" r="9.4"/>
		<circle class="st0" cx="186.9" cy="102.9" r="9.4"/>
		<circle class="st0" cx="153.5" cy="102.9" r="9.4"/>
		
			<ellipse transform="matrix(0.1602 -0.9871 0.9871 0.1602 63.7808 351.8772)" class="st0" cx="238.7" cy="138.5" rx="9.4" ry="9.4"/>
		
			<ellipse transform="matrix(0.9239 -0.3827 0.3827 0.9239 -52.6975 123.9864)" class="st0" cx="285.3" cy="194.5" rx="9.4" ry="9.4"/>
		
			<ellipse transform="matrix(0.9239 -0.3827 0.3827 0.9239 -66.9229 138.8259)" class="st0" cx="315.5" cy="237.6" rx="9.4" ry="9.4"/>
		
			<ellipse transform="matrix(0.1602 -0.9871 0.9871 0.1602 34.671 494.4766)" class="st0" cx="307.9" cy="226.9" rx="9.4" ry="9.4"/>
		
			<ellipse transform="matrix(0.9239 -0.3827 0.3827 0.9239 -87.3647 156.4047)" class="st0" cx="349.5" cy="297.8" rx="9.4" ry="9.4"/>
		<circle class="st0" cx="346.4" cy="278.5" r="9.4"/>
		<circle class="st0" cx="309.6" cy="201.3" r="9.4"/>
		<circle class="st0" cx="324.9" cy="291.6" r="9.4"/>
		<circle class="st0" cx="273.2" cy="317.1" r="9.4"/>
		<circle class="st0" cx="279.4" cy="350.9" r="9.4"/>
		<circle class="st0" cx="272" cy="373.6" r="9.4"/>
		<circle class="st0" cx="120.7" cy="346" r="9.4"/>
		
			<ellipse transform="matrix(0.9239 -0.3827 0.3827 0.9239 -88.6374 150.0061)" class="st0" cx="332.7" cy="297.8" rx="9.4" ry="9.4"/>
		<circle class="st0" cx="290.8" cy="95.5" r="9.4"/>
		<circle class="st0" cx="323.3" cy="143.2" r="9.4"/>
		<ellipse transform="matrix(0.9732 -0.2298 0.2298 0.9732 -4.014 86.7127)" class="st0" cx="370.4" cy="60.6" rx="9.4" ry="9.4"/>
		
			<ellipse transform="matrix(0.1602 -0.9871 0.9871 0.1602 138.6812 467.1128)" class="st0" cx="343.9" cy="152.1" rx="9.4" ry="9.4"/>
		<circle class="st0" cx="226.3" cy="41.8" r="9.4"/>
		<ellipse transform="matrix(0.923 -0.3849 0.3849 0.923 -15.4493 44.0004)" class="st0" cx="102.2" cy="60.6" rx="9.4" ry="9.4"/>
		<ellipse transform="matrix(0.1607 -0.987 0.987 0.1607 -37.5806 101.5597)" class="st0" cx="40.9" cy="72.9" rx="9.4" ry="9.4"/>
		<circle class="st0" cx="45.6" cy="32.4" r="9.4"/>
		<ellipse transform="matrix(0.923 -0.3849 0.3849 0.923 -99.5293 35.4466)" class="st0" cx="38.8" cy="266.4" rx="9.4" ry="9.4"/>
		<circle class="st0" cx="-6.3" cy="263.6" r="9.4"/>
		<ellipse transform="matrix(0.1607 -0.987 0.987 0.1607 -88.213 132.2839)" class="st0" cx="33.7" cy="118" rx="9.4" ry="9.4"/>
		<circle class="st0" cx="9.1" cy="112.3" r="9.4"/>
		<ellipse transform="matrix(0.9239 -0.3827 0.3827 0.9239 16.245 82.2588)" class="st0" cx="214.9" cy="0.3" rx="9.4" ry="9.4"/>
		<circle class="st0" cx="6" cy="48.6" r="9.4"/>
		<circle class="st0" cx="92.8" cy="16.6" r="9.4"/>
		<circle class="st0" cx="108.3" cy="93.4" r="9.4"/>
		
			<ellipse transform="matrix(0.9559 -0.2937 0.2937 0.9559 -38.5239 43.8734)" class="st0" cx="126.8" cy="150.2" rx="9.4" ry="9.4"/>
		<circle class="st0" cx="72.8" cy="372.3" r="9.4"/>
		<circle class="st0" cx="45.6" cy="385.2" r="9.4"/>
		<circle class="st0" cx="108.3" cy="355.7" r="9.4"/>
		<circle class="st0" cx="98.9" cy="280" r="9.4"/>
		<ellipse transform="matrix(0.923 -0.3849 0.3849 0.923 -58.3116 46.2304)" class="st0" cx="86.3" cy="168.8" rx="9.4" ry="9.4"/>
		<circle class="st0" cx="59.4" cy="302.1" r="9.4"/>
		
			<ellipse transform="matrix(0.1602 -0.9871 0.9871 0.1602 129.6499 362.2998)" class="st0" cx="277.7" cy="105" rx="9.4" ry="9.4"/>
		<circle class="st0" cx="277.7" cy="63.5" r="9.4"/>
		<circle class="st0" cx="331.2" cy="93.4" r="9.4"/>
		
			<ellipse transform="matrix(0.1602 -0.9871 0.9871 0.1602 121.4755 296.3379)" class="st0" cx="234.9" cy="76.8" rx="9.4" ry="9.4"/>
		<circle class="st0" cx="242.6" cy="63.5" r="9.4"/>
		<circle class="st0" cx="244.3" cy="124.9" r="9.4"/>
		
			<ellipse transform="matrix(0.1602 -0.9871 0.9871 0.1602 183.1717 451.3085)" class="st0" cx="356.8" cy="118" rx="9.4" ry="9.4"/>
		<circle class="st0" cx="332.7" cy="44.7" r="9.4"/>
		<circle class="st0" cx="347.9" cy="58" r="9.4"/>
		
			<ellipse transform="matrix(0.1602 -0.9871 0.9871 0.1602 -73.7486 636.1764)" class="st0" cx="337" cy="361.4" rx="9.4" ry="9.4"/>
		<circle class="st0" cx="111.6" cy="206.2" r="9.4"/>
		<circle class="st0" cx="161.3" cy="16.6" r="9.4"/>
		<path class="st0" d="M118.9,132.7c0,5.2-4.2,9.4-9.4,9.4c-5.2,0-9.4-4.2-9.4-9.4c0-5.2,4.2-9.4,9.4-9.4
			C114.7,123.3,118.9,127.5,118.9,132.7z"/>
		<circle class="st0" cx="63.3" cy="112.3" r="9.4"/>
		<circle class="st0" cx="101.5" cy="102.9" r="9.4"/>
		<circle class="st0" cx="50.3" cy="210.7" r="9.4"/>
		<ellipse transform="matrix(0.141 -0.99 0.99 0.141 -140.1201 221.5262)" class="st0" cx="57.6" cy="191.5" rx="9.4" ry="9.4"/>
		<circle class="st0" cx="76.4" cy="212" r="9.4"/>
		<ellipse transform="matrix(0.9239 -0.3827 0.3827 0.9239 21.8845 110.6104)" class="st0" cx="289" cy="0.3" rx="9.4" ry="9.4"/>
		<circle class="st0" cx="268.3" cy="12.6" r="9.4"/>
		<ellipse transform="matrix(0.9239 -0.3827 0.3827 0.9239 16.2334 137.7105)" class="st0" cx="354.3" cy="28" rx="9.4" ry="9.4"/>
		
			<ellipse transform="matrix(0.9239 -0.3827 0.3827 0.9239 -19.5619 136.4465)" class="st0" cx="333.2" cy="117.4" rx="9.4" ry="9.4"/>
		<ellipse transform="matrix(0.923 -0.3849 0.3849 0.923 -88.1976 15.8072)" class="st0" cx="-4.6" cy="228.2" rx="9.4" ry="9.4"/>
		<circle class="st0" cx="158" cy="200.2" r="9.4"/>
		<circle class="st0" cx="164.7" cy="178.2" r="9.4"/>
		<circle class="st0" cx="224.3" cy="178.2" r="9.4"/>
		<circle class="st0" cx="240.6" cy="184.1" r="9.4"/>
		<ellipse transform="matrix(0.923 -0.3849 0.3849 0.923 -51.6077 37.8859)" class="st0" cx="68.8" cy="147.9" rx="9.4" ry="9.4"/>
		<circle class="st0" cx="224.3" cy="210.7" r="9.4"/>
		<circle class="st0" cx="265.6" cy="212" r="9.4"/>
		<circle class="st0" cx="272" cy="163" r="9.4"/>
		<circle class="st0" cx="176.1" cy="67.4" r="9.4"/>
		<circle class="st0" cx="174.7" cy="252.8" r="9.4"/>
		<circle class="st0" cx="183" cy="221.4" r="9.4"/>
		<circle class="st0" cx="253.1" cy="268.9" r="9.4"/>
		<circle class="st0" cx="64.4" cy="257.6" r="9.4"/>
		<circle class="st0" cx="45.6" cy="324" r="9.4"/>
		
			<ellipse transform="matrix(0.1607 -0.987 0.987 0.1607 -248.4062 462.5105)" class="st0" cx="147.7" cy="377.3" rx="9.4" ry="9.4"/>
		
			<ellipse transform="matrix(0.1607 -0.987 0.987 0.1607 -240.7883 471.4687)" class="st0" cx="156.8" cy="377.3" rx="9.4" ry="9.4"/>
		<circle class="st0" cx="90.7" cy="269.1" r="9.4"/>
		
			<ellipse transform="matrix(0.1602 -0.9871 0.9871 0.1602 -176.5987 547.0511)" class="st0" cx="233.2" cy="377.3" rx="9.4" ry="9.4"/>
		<circle class="st0" cx="223.8" cy="353.8" r="9.4"/>
		<circle class="st0" cx="221.2" cy="244.5" r="9.4"/>
		<circle class="st0" cx="207.7" cy="356.7" r="9.4"/>
		<circle class="st0" cx="178.4" cy="330.9" r="9.4"/>
		<circle class="st0" cx="331.2" cy="328" r="9.4"/>
		<circle class="st0" cx="324.9" cy="371.5" r="9.4"/>
		<circle class="st0" cx="337" cy="261.1" r="9.4"/>
		<circle class="st0" cx="355.5" cy="245.4" r="9.4"/>
		<ellipse transform="matrix(0.1602 -0.9871 0.9871 0.1602 87.0996 558.829)" class="st0" cx="372" cy="228.2" rx="9.4" ry="9.4"/>
		<circle class="st0" cx="180.9" cy="370.8" r="9.4"/>
		<circle class="st0" cx="138.3" cy="316.2" r="9.4"/>
		<circle class="st0" cx="162.6" cy="294.1" r="9.4"/>
		<circle class="st0" cx="357.9" cy="340.7" r="9.4"/>
		<ellipse transform="matrix(0.7879 -0.6158 0.6158 0.7879 -50.471 126.219)" class="st0" cx="158" cy="136.4" rx="9.4" ry="9.4"/>
		<circle class="st0" cx="252" cy="221.4" r="9.4"/>
		<circle class="st0" cx="214.9" cy="198" r="9.4"/>
		<circle class="st0" cx="197.5" cy="201.3" r="9.4"/>
		
			<ellipse transform="matrix(0.9239 -0.3827 0.3827 0.9239 -86.8314 131.5064)" class="st0" cx="287.1" cy="284" rx="9.4" ry="9.4"/>
		
			<ellipse transform="matrix(0.9732 -0.2298 0.2298 0.9732 -66.3591 50.8919)" class="st0" cx="185.4" cy="310.4" rx="9.4" ry="9.4"/>
		
			<ellipse transform="matrix(0.9566 -0.2915 0.2915 0.9566 -92.7928 60.1812)" class="st0" cx="155.6" cy="341.5" rx="9.4" ry="9.4"/>
		<circle class="st0" cx="238.9" cy="324" r="9.4"/>
		<circle class="st0" cx="263.8" cy="291.6" r="9.4"/>
		
			<ellipse transform="matrix(0.1602 -0.9871 0.9871 0.1602 -25.4973 470.5094)" class="st0" cx="263.8" cy="250.2" rx="9.4" ry="9.4"/>
		<circle class="st0" cx="281.4" cy="233.8" r="9.4"/>
		<circle class="st0" cx="383.7" cy="284.3" r="9.4"/>
		<circle class="st0" cx="386.6" cy="214.4" r="9.4"/>
		
			<ellipse transform="matrix(8.248153e-02 -0.9966 0.9966 8.248153e-02 248.563 415.7365)" class="st0" cx="350.1" cy="72.9" rx="9.4" ry="9.4"/>
		<circle class="st0" cx="36.2" cy="143.2" r="9.4"/>
		<circle class="st0" cx="24.3" cy="137.4" r="9.4"/>
		<ellipse transform="matrix(0.8151 -0.5793 0.5793 0.8151 -44.9683 31.4624)" class="st0" cx="26.8" cy="86.2" rx="9.4" ry="9.4"/>
		<circle class="st0" cx="12.8" cy="34.9" r="9.4"/>
		<circle class="st0" cx="26.9" cy="367.9" r="9.4"/>
		
			<ellipse transform="matrix(8.260976e-02 -0.9966 0.9966 8.260976e-02 -281.2498 380.2205)" class="st0" cx="65.9" cy="342.9" rx="9.4" ry="9.4"/>
		<circle class="st0" cx="14.9" cy="358.5" r="9.4"/>
		
			<ellipse transform="matrix(0.9239 -0.3827 0.3827 0.9239 -77.942 127.4512)" class="st0" cx="281.4" cy="259.6" rx="9.4" ry="9.4"/>
		<path class="st0" d="M135.3,230.2c2-4.8,7.5-7.1,12.3-5.1c4.8,2,7.1,7.5,5.1,12.3c-2,4.8-7.5,7.1-12.3,5.1
			C135.6,240.5,133.3,235,135.3,230.2z"/>
		<path class="st0" d="M128.9,237.6c0,3.8-3.1,6.9-6.9,6.9c-3.8,0-6.9-3.1-6.9-6.9c0-3.8,3.1-6.9,6.9-6.9
			C125.8,230.8,128.9,233.8,128.9,237.6z"/>
		<path class="st0" d="M85.6,167.7c0,3.8-3.1,6.9-6.9,6.9c-3.8,0-6.9-3.1-6.9-6.9c0-3.8,3.1-6.9,6.9-6.9
			C82.5,160.9,85.6,163.9,85.6,167.7z"/>
		<path class="st0" d="M81.4,252.8c0,3.8-3.1,6.9-6.9,6.9c-3.8,0-6.9-3.1-6.9-6.9c0-3.8,3.1-6.9,6.9-6.9
			C78.3,245.9,81.4,249,81.4,252.8z"/>
		<path class="st0" d="M38.4,46.9c0,3.8-3.1,6.9-6.9,6.9c-3.8,0-6.9-3.1-6.9-6.9c0-3.8,3.1-6.9,6.9-6.9C35.3,40,38.4,43.1,38.4,46.9
			z"/>
		<path class="st0" d="M42,11.5c0,3.8-3.1,6.9-6.9,6.9c-3.8,0-6.9-3.1-6.9-6.9c0-3.8,3.1-6.9,6.9-6.9C39,4.6,42,7.7,42,11.5z"/>
		<path class="st0" d="M11.7,11.5c0,3.8-3.1,6.9-6.9,6.9c-3.8,0-6.9-3.1-6.9-6.9c0-3.8,3.1-6.9,6.9-6.9C8.6,4.6,11.7,7.7,11.7,11.5z
			"/>
		<path class="st0" d="M70.2,0.3c0,3.8-3.1,6.9-6.9,6.9c-3.8,0-6.9-3.1-6.9-6.9c0-3.8,3.1-6.9,6.9-6.9C67.1-6.6,70.2-3.5,70.2,0.3z"
			/>
		<path class="st0" d="M133.7,16.6c0,3.8-3.1,6.9-6.9,6.9c-3.8,0-6.9-3.1-6.9-6.9c0-3.8,3.1-6.9,6.9-6.9
			C130.6,9.7,133.7,12.8,133.7,16.6z"/>
		<path class="st0" d="M282.8,5.7c0,3.8-3.1,6.9-6.9,6.9c-3.8,0-6.9-3.1-6.9-6.9c0-3.8,3.1-6.9,6.9-6.9
			C279.7-1.1,282.8,1.9,282.8,5.7z"/>
		<path class="st0" d="M318.7,11.5c0,3.8-3.1,6.9-6.9,6.9c-3.8,0-6.9-3.1-6.9-6.9c0-3.8,3.1-6.9,6.9-6.9
			C315.6,4.7,318.7,7.7,318.7,11.5z"/>
		<path class="st0" d="M322.6,18.4c0,3.8-3.1,6.9-6.9,6.9c-3.8,0-6.9-3.1-6.9-6.9c0-3.8,3.1-6.9,6.9-6.9
			C319.5,11.5,322.6,14.6,322.6,18.4z"/>
		<path class="st0" d="M360,2.1c0,3.8-3.1,6.9-6.9,6.9c-3.8,0-6.9-3.1-6.9-6.9c0-3.8,3.1-6.9,6.9-6.9C356.9-4.7,360-1.7,360,2.1z"/>
		<path class="st0" d="M82.8,81.5c0,3.8-3.1,6.9-6.9,6.9c-3.8,0-6.9-3.1-6.9-6.9c0-3.8,3.1-6.9,6.9-6.9
			C79.7,74.6,82.8,77.7,82.8,81.5z"/>
		<path class="st0" d="M125.8,44.9c0,3.8-3.1,6.9-6.9,6.9c-3.8,0-6.9-3.1-6.9-6.9c0-3.8,3.1-6.9,6.9-6.9
			C122.7,38,125.8,41.1,125.8,44.9z"/>
		<path class="st0" d="M123.2,28c0,3.8-3.1,6.9-6.9,6.9c-3.8,0-6.9-3.1-6.9-6.9c0-3.8,3.1-6.9,6.9-6.9
			C120.2,21.2,123.2,24.3,123.2,28z"/>
		<path class="st0" d="M100,0.3c0,3.8-3.1,6.9-6.9,6.9c-3.8,0-6.9-3.1-6.9-6.9c0-3.8,3.1-6.9,6.9-6.9C96.9-6.6,100-3.5,100,0.3z"/>
		<path class="st0" d="M157.9,7.6c0,3.8-3.1,6.9-6.9,6.9c-3.8,0-6.9-3.1-6.9-6.9c0-3.8,3.1-6.9,6.9-6.9
			C154.9,0.8,157.9,3.8,157.9,7.6z"/>
		<path class="st0" d="M127.6,173.5c0,3.8-3.1,6.9-6.9,6.9c-3.8,0-6.9-3.1-6.9-6.9c0-3.8,3.1-6.9,6.9-6.9
			C124.5,166.6,127.6,169.7,127.6,173.5z"/>
		<path class="st0" d="M108.3,209.6c0,3.8-3.1,6.9-6.9,6.9c-3.8,0-6.9-3.1-6.9-6.9c0-3.8,3.1-6.9,6.9-6.9
			C105.3,202.7,108.3,205.8,108.3,209.6z"/>
		<path class="st0" d="M31.1,177.5c0,3.8-3.1,6.9-6.9,6.9c-3.8,0-6.9-3.1-6.9-6.9c0-3.8,3.1-6.9,6.9-6.9
			C28.1,170.6,31.1,173.7,31.1,177.5z"/>
		<path class="st0" d="M265.7,76.8c0,3.8-3.1,6.9-6.9,6.9c-3.8,0-6.9-3.1-6.9-6.9c0-3.8,3.1-6.9,6.9-6.9
			C262.6,69.9,265.7,73,265.7,76.8z"/>
		<path class="st0" d="M267.2,46.9c0,3.8-3.1,6.9-6.9,6.9c-3.8,0-6.9-3.1-6.9-6.9c0-3.8,3.1-6.9,6.9-6.9
			C264.1,40,267.2,43.1,267.2,46.9z"/>
		<path class="st0" d="M186.2,36.3c0,3.8-3.1,6.9-6.9,6.9c-3.8,0-6.9-3.1-6.9-6.9c0-3.8,3.1-6.9,6.9-6.9
			C183.1,29.5,186.2,32.6,186.2,36.3z"/>
		<path class="st0" d="M346.9,170.6c0,3.8-3.1,6.9-6.9,6.9c-3.8,0-6.9-3.1-6.9-6.9c0-3.8,3.1-6.9,6.9-6.9
			C343.8,163.8,346.9,166.8,346.9,170.6z"/>
		<path class="st0" d="M332.7,118.6c0,3.8-3.1,6.9-6.9,6.9c-3.8,0-6.9-3.1-6.9-6.9c0-3.8,3.1-6.9,6.9-6.9
			C329.7,111.8,332.7,114.9,332.7,118.6z"/>
		<path class="st0" d="M339.6,152.6c0,3.8-3.1,6.9-6.9,6.9c-3.8,0-6.9-3.1-6.9-6.9c0-3.8,3.1-6.9,6.9-6.9
			C336.5,145.7,339.6,148.8,339.6,152.6z"/>
		<path class="st0" d="M393.5,118c0,3.8-3.1,6.9-6.9,6.9c-3.8,0-6.9-3.1-6.9-6.9c0-3.8,3.1-6.9,6.9-6.9
			C390.4,111.1,393.5,114.2,393.5,118z"/>
		<path class="st0" d="M370.5,147.9c0,3.8-3.1,6.9-6.9,6.9c-3.8,0-6.9-3.1-6.9-6.9c0-3.8,3.1-6.9,6.9-6.9
			C367.4,141,370.5,144.1,370.5,147.9z"/>
		<path class="st0" d="M395.6,157.3c0,3.8-3.1,6.9-6.9,6.9c-3.8,0-6.9-3.1-6.9-6.9c0-3.8,3.1-6.9,6.9-6.9
			C392.5,150.4,395.6,153.5,395.6,157.3z"/>
		<path class="st0" d="M370.5,129c0,3.8-3.1,6.9-6.9,6.9c-3.8,0-6.9-3.1-6.9-6.9c0-3.8,3.1-6.9,6.9-6.9
			C367.4,122.2,370.5,125.3,370.5,129z"/>
		<path class="st0" d="M350.7,76.3c0,3.8-3.1,6.9-6.9,6.9c-3.8,0-6.9-3.1-6.9-6.9c0-3.8,3.1-6.9,6.9-6.9
			C347.6,69.4,350.7,72.5,350.7,76.3z"/>
		<path class="st0" d="M316.9,127.4c0,3.8-3.1,6.9-6.9,6.9c-3.8,0-6.9-3.1-6.9-6.9c0-3.8,3.1-6.9,6.9-6.9
			C313.8,120.6,316.9,123.6,316.9,127.4z"/>
		<path class="st0" d="M303.3,69.4c0,3.8-3.1,6.9-6.9,6.9c-3.8,0-6.9-3.1-6.9-6.9c0-3.8,3.1-6.9,6.9-6.9
			C300.2,62.6,303.3,65.6,303.3,69.4z"/>
		<path class="st0" d="M386.6,23.4c0,3.8-3.1,6.9-6.9,6.9c-3.8,0-6.9-3.1-6.9-6.9c0-3.8,3.1-6.9,6.9-6.9
			C383.6,16.6,386.6,19.6,386.6,23.4z"/>
		<path class="st0" d="M384.3,4.7c0,3.8-3.1,6.9-6.9,6.9c-3.8,0-6.9-3.1-6.9-6.9c0-3.8,3.1-6.9,6.9-6.9
			C381.2-2.2,384.3,0.9,384.3,4.7z"/>
		<path class="st0" d="M244.8,4.7c0,3.8-3.1,6.9-6.9,6.9c-3.8,0-6.9-3.1-6.9-6.9c0-3.8,3.1-6.9,6.9-6.9
			C241.8-2.2,244.8,0.9,244.8,4.7z"/>
		<path class="st0" d="M38.4,239.5c0,3.8-3.1,6.9-6.9,6.9c-3.8,0-6.9-3.1-6.9-6.9c0-3.8,3.1-6.9,6.9-6.9
			C35.3,232.7,38.4,235.7,38.4,239.5z"/>
		<path class="st0" d="M13.2,314.4c0,2.8-2.3,5.1-5.1,5.1c-2.8,0-5.1-2.3-5.1-5.1c0-2.8,2.3-5.1,5.1-5.1
			C10.9,309.3,13.2,311.6,13.2,314.4z"/>
		<path class="st0" d="M31.1,297.8c0,3.8-3.1,6.9-6.9,6.9c-3.8,0-6.9-3.1-6.9-6.9c0-3.8,3.1-6.9,6.9-6.9
			C28.1,290.9,31.1,294,31.1,297.8z"/>
		<path class="st0" d="M39.2,290.9c0,3.8-3.1,6.9-6.9,6.9c-3.8,0-6.9-3.1-6.9-6.9s3.1-6.9,6.9-6.9C36.1,284.1,39.2,287.2,39.2,290.9
			z"/>
		<path class="st0" d="M85.3,355.1c0,3.8-3.1,6.9-6.9,6.9c-3.8,0-6.9-3.1-6.9-6.9c0-3.8,3.1-6.9,6.9-6.9
			C82.3,348.2,85.3,351.3,85.3,355.1z"/>
		<circle class="st0" cx="105.8" cy="383.1" r="6.9"/>
		<path class="st0" d="M64.5,388.6c0,3.8-3.1,6.9-6.9,6.9c-3.8,0-6.9-3.1-6.9-6.9c0-3.8,3.1-6.9,6.9-6.9
			C61.4,381.8,64.5,384.8,64.5,388.6z"/>
		<path class="st0" d="M128.9,375.8c0,3.8-3.1,6.9-6.9,6.9c-3.8,0-6.9-3.1-6.9-6.9s3.1-6.9,6.9-6.9C125.8,369,128.9,372,128.9,375.8
			z"/>
		<path class="st0" d="M92.1,363.2c0,3.8-3.1,6.9-6.9,6.9c-3.8,0-6.9-3.1-6.9-6.9c0-3.8,3.1-6.9,6.9-6.9
			C89,356.3,92.1,359.4,92.1,363.2z"/>
		<path class="st0" d="M160,386.7c0,3.8-3.1,6.9-6.9,6.9c-3.8,0-6.9-3.1-6.9-6.9c0-3.8,3.1-6.9,6.9-6.9
			C156.9,379.9,160,382.9,160,386.7z"/>
		<path class="st0" d="M43.1,362.5c0,3.8-3.1,6.9-6.9,6.9c-3.8,0-6.9-3.1-6.9-6.9c0-3.8,3.1-6.9,6.9-6.9
			C40,355.7,43.1,358.7,43.1,362.5z"/>
		<path class="st0" d="M16.7,336c0,3.8-3.1,6.9-6.9,6.9c-3.8,0-6.9-3.1-6.9-6.9s3.1-6.9,6.9-6.9C13.7,329.2,16.7,332.2,16.7,336z"/>
		<path class="st0" d="M9.9,364.2c0,3.8-3.1,6.9-6.9,6.9c-3.8,0-6.9-3.1-6.9-6.9c0-3.8,3.1-6.9,6.9-6.9
			C6.9,357.4,9.9,360.5,9.9,364.2z"/>
		<path class="st0" d="M62.9,342.3c0,3.8-3.1,6.9-6.9,6.9c-3.8,0-6.9-3.1-6.9-6.9c0-3.8,3.1-6.9,6.9-6.9
			C59.9,335.5,62.9,338.6,62.9,342.3z"/>
		<path class="st0" d="M39.9,262.4c0,3.8-3.1,6.9-6.9,6.9c-3.8,0-6.9-3.1-6.9-6.9c0-3.8,3.1-6.9,6.9-6.9
			C36.8,255.6,39.9,258.7,39.9,262.4z"/>
		<path class="st0" d="M9.1,278.5c0,3.8-3.1,6.9-6.9,6.9c-3.8,0-6.9-3.1-6.9-6.9c0-3.8,3.1-6.9,6.9-6.9C6,271.7,9.1,274.7,9.1,278.5
			z"/>
		<path class="st0" d="M70.2,289.4c0,3.8-3.1,6.9-6.9,6.9c-3.8,0-6.9-3.1-6.9-6.9c0-3.8,3.1-6.9,6.9-6.9
			C67.1,282.5,70.2,285.6,70.2,289.4z"/>
		<path class="st0" d="M86.9,121.2c0,3.8-3.1,6.9-6.9,6.9c-3.8,0-6.9-3.1-6.9-6.9c0-3.8,3.1-6.9,6.9-6.9
			C83.8,114.4,86.9,117.4,86.9,121.2z"/>
		<path class="st0" d="M205.9,64c-0.1,3.8-3.3,6.7-7.1,6.6c-3.8-0.1-6.7-3.3-6.6-7.1c0.1-3.8,3.3-6.7,7.1-6.6
			C203.1,57,206.1,60.2,205.9,64z"/>
		<path class="st0" d="M212.8,45.2c-0.1,3.8-3.3,6.7-7.1,6.6c-3.8-0.1-6.7-3.3-6.6-7.1c0.1-3.8,3.3-6.7,7.1-6.6
			C210,38.2,212.9,41.4,212.8,45.2z"/>
		<path class="st0" d="M219.7,14.8c-0.1,3.8-3.3,6.7-7.1,6.6c-3.8-0.1-6.7-3.3-6.6-7.1c0.1-3.8,3.3-6.7,7.1-6.6
			C216.9,7.8,219.8,11,219.7,14.8z"/>
		<path class="st0" d="M180.5,16.8c-0.1,3.8-3.3,6.7-7.1,6.6c-3.8-0.1-6.7-3.3-6.6-7.1c0.1-3.8,3.3-6.7,7.1-6.6
			C177.7,9.9,180.6,13,180.5,16.8z"/>
		<path class="st0" d="M274,97.4c-0.1,3.8-3.3,6.7-7.1,6.6c-3.8-0.1-6.7-3.3-6.6-7.1c0.1-3.8,3.3-6.7,7.1-6.6
			C271.2,90.4,274.2,93.6,274,97.4z"/>
		<path class="st0" d="M301.5,44.9c-0.1,3.8-3.3,6.7-7.1,6.6c-3.8-0.1-6.7-3.3-6.6-7.1c0.1-3.8,3.3-6.7,7.1-6.6
			C298.7,37.9,301.6,41.1,301.5,44.9z"/>
		<path class="st0" d="M369.4,170.9c-0.1,3.8-3.3,6.7-7.1,6.6c-3.8-0.1-6.7-3.3-6.6-7.1c0.1-3.8,3.3-6.7,7.1-6.6
			C366.6,163.9,369.6,167.1,369.4,170.9z"/>
		<path class="st0" d="M388.7,327.1c-0.1,3.8-3.3,6.7-7.1,6.6c-3.8-0.1-6.7-3.3-6.6-7.1c0.1-3.8,3.3-6.7,7.1-6.6
			C385.9,320.1,388.9,323.3,388.7,327.1z"/>
		<path class="st0" d="M392.8,328.2c-0.1,3.8-3.3,6.7-7.1,6.6c-3.8-0.1-6.7-3.3-6.6-7.1c0.1-3.8,3.3-6.7,7.1-6.6
			C390,321.2,393,324.4,392.8,328.2z"/>
		<path class="st0" d="M362.4,326.6c-0.1,3.8-3.2,6.8-7,6.8c-3.8-0.1-6.8-3.2-6.8-7c0.1-3.8,3.2-6.8,7-6.8
			C359.4,319.7,362.4,322.8,362.4,326.6z"/>
		<path class="st0" d="M375.2,378.5c-0.1,3.8-3.2,6.8-7,6.8c-3.8-0.1-6.8-3.2-6.8-7c0.1-3.8,3.2-6.8,7-6.8
			C372.2,371.6,375.2,374.7,375.2,378.5z"/>
		<path class="st0" d="M75.9,293.1c-0.1,3.8-3.2,6.8-7,6.8c-3.8-0.1-6.8-3.2-6.8-7c0.1-3.8,3.2-6.8,7-6.8
			C73,286.2,76,289.3,75.9,293.1z"/>
		<path class="st0" d="M274,386.7c-0.1,3.8-3.2,6.8-7,6.8c-3.8-0.1-6.8-3.2-6.8-7c0.1-3.8,3.2-6.8,7-6.8
			C271,379.8,274.1,382.9,274,386.7z"/>
		<path class="st0" d="M77.8,382.4c-0.1,3.8-3.2,6.8-7,6.8c-3.8-0.1-6.8-3.2-6.8-7c0.1-3.8,3.2-6.8,7-6.8
			C74.8,375.5,77.8,378.6,77.8,382.4z"/>
		<path class="st0" d="M66,253.4c-0.1,3.8-3.2,6.8-7,6.8c-3.8-0.1-6.8-3.2-6.8-7c0.1-3.8,3.2-6.8,7-6.8C63,246.5,66,249.6,66,253.4z
			"/>
		<path class="st0" d="M12.8,267.6c-0.1,3.8-3.2,6.8-7,6.8c-3.8-0.1-6.8-3.2-6.8-7c0.1-3.8,3.2-6.8,7-6.8
			C9.9,260.7,12.9,263.8,12.8,267.6z"/>
		<path class="st0" d="M26.9,169.8c-0.1,3.8-3.2,6.8-7,6.8c-3.8-0.1-6.8-3.2-6.8-7c0.1-3.8,3.2-6.8,7-6.8
			C23.9,162.9,26.9,166,26.9,169.8z"/>
		<path class="st0" d="M334.1,43.3c-0.1,3.8-3.2,6.8-7,6.8c-3.8-0.1-6.8-3.2-6.8-7c0.1-3.8,3.2-6.8,7-6.8
			C331.1,36.4,334.2,39.5,334.1,43.3z"/>
		<path class="st0" d="M385.7,53.8c-0.1,3.8-3.2,6.8-7,6.8c-3.8-0.1-6.8-3.2-6.8-7c0.1-3.8,3.2-6.8,7-6.8
			C382.7,46.9,385.7,50,385.7,53.8z"/>
		<path class="st0" d="M395.6,134.4c-0.1,3.8-3.2,6.8-7,6.8c-3.8-0.1-6.8-3.2-6.8-7c0.1-3.8,3.2-6.8,7-6.8
			C392.6,127.5,395.6,130.6,395.6,134.4z"/>
		<path class="st0" d="M385.7,198.2c-0.1,3.8-3.2,6.8-7,6.8c-3.8-0.1-6.8-3.2-6.8-7c0.1-3.8,3.2-6.8,7-6.8
			C382.7,191.3,385.7,194.4,385.7,198.2z"/>
		<path class="st0" d="M389.4,165.9c-0.1,3.8-3.2,6.8-7,6.8c-3.8-0.1-6.8-3.2-6.8-7c0.1-3.8,3.2-6.8,7-6.8
			C386.4,159,389.4,162.1,389.4,165.9z"/>
		<path class="st0" d="M392.5,198.2c-0.1,3.8-3.2,6.8-7,6.8c-3.8-0.1-6.8-3.2-6.8-7c0.1-3.8,3.2-6.8,7-6.8
			C389.6,191.3,392.6,194.4,392.5,198.2z"/>
		<path class="st0" d="M379.8,275.9c-0.1,3.8-3.2,6.8-7,6.8c-3.8-0.1-6.8-3.2-6.8-7c0.1-3.8,3.2-6.8,7-6.8
			C376.8,269,379.8,272.1,379.8,275.9z"/>
		<path class="st0" d="M33.7,217.8c-0.1,3.8-3.2,6.8-7,6.8c-3.8-0.1-6.8-3.2-6.8-7c0.1-3.8,3.2-6.8,7-6.8
			C30.7,210.9,33.8,214,33.7,217.8z"/>
		<path class="st0" d="M19.7,167.8c-0.1,3.8-3.2,6.8-7,6.8c-3.8-0.1-6.8-3.2-6.8-7c0.1-3.8,3.2-6.8,7-6.8
			C16.7,160.9,19.7,164,19.7,167.8z"/>
		<path class="st0" d="M233.2,105.2c-0.1,3.8-3.3,6.7-7.1,6.6c-3.8-0.1-6.7-3.3-6.6-7.1c0.1-3.8,3.3-6.7,7.1-6.6
			C230.4,98.2,233.3,101.4,233.2,105.2z"/>
		<path class="st0" d="M294.6,17.5c-0.1,3.8-3.3,6.7-7.1,6.6c-3.8-0.1-6.7-3.3-6.6-7.1c0.1-3.8,3.3-6.7,7.1-6.6
			C291.8,10.5,294.8,13.7,294.6,17.5z"/>
		<path class="st0" d="M322.6,70.8c-0.1,3.8-3.3,6.7-7.1,6.6c-3.8-0.1-6.7-3.3-6.6-7.1c0.1-3.8,3.3-6.7,7.1-6.6
			C319.8,63.9,322.8,67.1,322.6,70.8z"/>
		<path class="st0" d="M199.1,280c0,3.8-3.1,6.9-6.9,6.9c-3.8,0-6.9-3.1-6.9-6.9c0-3.8,3.1-6.9,6.9-6.9
			C196,273.1,199.1,276.2,199.1,280z"/>
		<path class="st0" d="M369.2,328.6c0,3.8-3.1,6.9-6.9,6.9c-3.8,0-6.9-3.1-6.9-6.9c0-3.8,3.1-6.9,6.9-6.9
			C366.1,321.8,369.2,324.8,369.2,328.6z"/>
		<path class="st0" d="M203.3,313c0,3.8-3.1,6.9-6.9,6.9c-3.8,0-6.9-3.1-6.9-6.9c0-3.8,3.1-6.9,6.9-6.9
			C200.2,306.1,203.3,309.2,203.3,313z"/>
		<path class="st0" d="M199.1,324c0,3.8-3.1,6.9-6.9,6.9c-3.8,0-6.9-3.1-6.9-6.9c0-3.8,3.1-6.9,6.9-6.9
			C196,317.1,199.1,320.2,199.1,324z"/>
		<path class="st0" d="M254.4,293.4c0,3.8-3.1,6.9-6.9,6.9c-3.8,0-6.9-3.1-6.9-6.9c0-3.8,3.1-6.9,6.9-6.9
			C251.3,286.6,254.4,289.6,254.4,293.4z"/>
		<path class="st0" d="M249.5,275.9c0,3.8-3.1,6.9-6.9,6.9c-3.8,0-6.9-3.1-6.9-6.9c0-3.8,3.1-6.9,6.9-6.9
			C246.4,269.1,249.5,272.1,249.5,275.9z"/>
		<path class="st0" d="M258.9,317.1c0,3.8-3.1,6.9-6.9,6.9c-3.8,0-6.9-3.1-6.9-6.9c0-3.8,3.1-6.9,6.9-6.9
			C255.8,310.3,258.9,313.4,258.9,317.1z"/>
		<path class="st0" d="M123.2,301c0,3.8-3.1,6.9-6.9,6.9c-3.8,0-6.9-3.1-6.9-6.9c0-3.8,3.1-6.9,6.9-6.9
			C120.2,294.1,123.2,297.2,123.2,301z"/>
		<path class="st0" d="M103.2,321.1c0,3.8-3.1,6.9-6.9,6.9c-3.8,0-6.9-3.1-6.9-6.9c0-3.8,3.1-6.9,6.9-6.9
			C100.1,314.3,103.2,317.3,103.2,321.1z"/>
		<path class="st0" d="M184.1,299.9c0,3.8-3.1,6.9-6.9,6.9c-3.8,0-6.9-3.1-6.9-6.9c0-3.8,3.1-6.9,6.9-6.9
			C181.1,293,184.1,296.1,184.1,299.9z"/>
		<path class="st0" d="M217,259.6c0,3.8-3.1,6.9-6.9,6.9c-3.8,0-6.9-3.1-6.9-6.9c0-3.8,3.1-6.9,6.9-6.9
			C213.9,252.8,217,255.9,217,259.6z"/>
		<path class="st0" d="M130.1,209.6c0,3.8-3.1,6.9-6.9,6.9c-3.8,0-6.9-3.1-6.9-6.9c0-3.8,3.1-6.9,6.9-6.9
			C127,202.7,130.1,205.8,130.1,209.6z"/>
		<path class="st0" d="M245.8,333.4c0,3.8-3.1,6.9-6.9,6.9c-3.8,0-6.9-3.1-6.9-6.9c0-3.8,3.1-6.9,6.9-6.9
			C242.7,326.5,245.8,329.6,245.8,333.4z"/>
		<path class="st0" d="M256.3,361c0,3.8-3.1,6.9-6.9,6.9c-3.8,0-6.9-3.1-6.9-6.9c0-3.8,3.1-6.9,6.9-6.9
			C253.2,354.2,256.3,357.3,256.3,361z"/>
		<path class="st0" d="M268.3,365.5c0,3.8-3.1,6.9-6.9,6.9c-3.8,0-6.9-3.1-6.9-6.9c0-3.8,3.1-6.9,6.9-6.9
			C265.2,358.6,268.3,361.7,268.3,365.5z"/>
		<path class="st0" d="M66,349.9c0,3.8-3.1,6.9-6.9,6.9c-3.8,0-6.9-3.1-6.9-6.9c0-3.8,3.1-6.9,6.9-6.9C62.9,343.1,66,346.2,66,349.9
			z"/>
		<path class="st0" d="M86.4,328.6c2.6,2.7,2.5,7.1-0.2,9.7c-2.7,2.6-7.1,2.5-9.7-0.2c-2.6-2.7-2.5-7.1,0.2-9.7
			C79.4,325.8,83.8,325.9,86.4,328.6z"/>
		<path class="st0" d="M98.1,323.6c2.6,2.7,2.5,7.1-0.2,9.7c-2.7,2.6-7.1,2.5-9.7-0.2c-2.6-2.7-2.5-7.1,0.2-9.7
			C91.2,320.8,95.5,320.9,98.1,323.6z"/>
		<path class="st0" d="M113.3,180.3c2.6,2.7,2.5,7.1-0.2,9.7c-2.7,2.6-7.1,2.5-9.7-0.2c-2.6-2.7-2.5-7.1,0.2-9.7
			C106.4,177.5,110.7,177.6,113.3,180.3z"/>
		<path class="st0" d="M246.7,158.1c2.6,2.7,2.5,7.1-0.2,9.7c-2.7,2.6-7.1,2.5-9.7-0.2c-2.6-2.7-2.5-7.1,0.2-9.7
			C239.8,155.2,244.1,155.4,246.7,158.1z"/>
		<path class="st0" d="M287.7,167.7c2.6,2.7,2.5,7.1-0.2,9.7c-2.7,2.6-7.1,2.5-9.7-0.2c-2.6-2.7-2.5-7.1,0.2-9.7
			C280.8,164.8,285.1,165,287.7,167.7z"/>
		<path class="st0" d="M342,237.2c2.6,2.7,2.5,7.1-0.2,9.7c-2.7,2.6-7.1,2.5-9.7-0.2c-2.6-2.7-2.5-7.1,0.2-9.7
			C335,234.4,339.4,234.5,342,237.2z"/>
		<path class="st0" d="M167.1,233.8c0,3.2-2.6,5.7-5.7,5.7c-3.2,0-5.7-2.6-5.7-5.7c0-3.2,2.6-5.7,5.7-5.7
			C164.5,228,167.1,230.6,167.1,233.8z"/>
		<path class="st0" d="M163.7,244.5c0,3.2-2.6,5.7-5.7,5.7c-3.2,0-5.7-2.6-5.7-5.7c0-3.2,2.6-5.7,5.7-5.7
			C161.2,238.8,163.7,241.3,163.7,244.5z"/>
		<path class="st0" d="M138.3,280c0,3.2-2.6,5.7-5.7,5.7c-3.2,0-5.7-2.6-5.7-5.7s2.6-5.7,5.7-5.7C135.8,274.2,138.3,276.8,138.3,280
			z"/>
		<path class="st0" d="M153.5,294.1c0,3.2-2.6,5.7-5.7,5.7c-3.2,0-5.7-2.6-5.7-5.7c0-3.2,2.6-5.7,5.7-5.7
			C150.9,288.4,153.5,291,153.5,294.1z"/>
		<path class="st0" d="M267.2,272.8c0,3.2-2.6,5.7-5.7,5.7s-5.7-2.6-5.7-5.7c0-3.2,2.6-5.7,5.7-5.7S267.2,269.6,267.2,272.8z"/>
		<path class="st0" d="M313.7,269.1c0,3.2-2.6,5.7-5.7,5.7c-3.2,0-5.7-2.6-5.7-5.7c0-3.2,2.6-5.7,5.7-5.7
			C311.1,263.4,313.7,265.9,313.7,269.1z"/>
		<path class="st0" d="M370.4,247.7c0,3.2-2.6,5.7-5.7,5.7c-3.2,0-5.7-2.6-5.7-5.7c0-3.2,2.6-5.7,5.7-5.7
			C367.8,241.9,370.4,244.5,370.4,247.7z"/>
		<path class="st0" d="M338.5,213.2c0,3.2-2.6,5.7-5.7,5.7c-3.2,0-5.7-2.6-5.7-5.7c0-3.2,2.6-5.7,5.7-5.7
			C335.9,207.5,338.5,210,338.5,213.2z"/>
		<path class="st0" d="M240.6,157.3c0,3.2-2.6,5.7-5.7,5.7c-3.2,0-5.7-2.6-5.7-5.7c0-3.2,2.6-5.7,5.7-5.7
			C238.1,151.5,240.6,154.1,240.6,157.3z"/>
		<path class="st0" d="M185.1,203.9c0,3.2-2.6,5.7-5.7,5.7c-3.2,0-5.7-2.6-5.7-5.7c0-3.2,2.6-5.7,5.7-5.7
			C182.5,198.1,185.1,200.7,185.1,203.9z"/>
		<path class="st0" d="M82.2,138.5c0,3.2-2.6,5.7-5.7,5.7c-3.2,0-5.7-2.6-5.7-5.7c0-3.2,2.6-5.7,5.7-5.7
			C79.6,132.7,82.2,135.3,82.2,138.5z"/>
		<path class="st0" d="M204.8,217.7c0,3.2-2.6,5.7-5.7,5.7c-3.2,0-5.7-2.6-5.7-5.7c0-3.2,2.6-5.7,5.7-5.7
			C202.3,212,204.8,214.5,204.8,217.7z"/>
		<path class="st0" d="M249.5,208.6c0,3.2-2.6,5.7-5.7,5.7c-3.2,0-5.7-2.6-5.7-5.7c0-3.2,2.6-5.7,5.7-5.7
			C246.9,202.9,249.5,205.5,249.5,208.6z"/>
		<path class="st0" d="M273.8,233.8c0,3.2-2.6,5.7-5.7,5.7c-3.2,0-5.7-2.6-5.7-5.7c0-3.2,2.6-5.7,5.7-5.7
			C271.3,228,273.8,230.6,273.8,233.8z"/>
		<path class="st0" d="M234.9,280c0,3.2-2.6,5.7-5.7,5.7c-3.2,0-5.7-2.6-5.7-5.7s2.6-5.7,5.7-5.7C232.3,274.2,234.9,276.8,234.9,280
			z"/>
		<path class="st0" d="M237.8,307.9c0,3.2-2.6,5.7-5.7,5.7c-3.2,0-5.7-2.6-5.7-5.7c0-3.2,2.6-5.7,5.7-5.7
			C235.2,302.1,237.8,304.7,237.8,307.9z"/>
		<path class="st0" d="M174.7,118c0,3.2-2.6,5.7-5.7,5.7c-3.2,0-5.7-2.6-5.7-5.7c0-3.2,2.6-5.7,5.7-5.7
			C172.1,112.3,174.7,114.8,174.7,118z"/>
		<path class="st0" d="M184.1,91.9c0,3.2-2.6,5.7-5.7,5.7c-3.2,0-5.7-2.6-5.7-5.7c0-3.2,2.6-5.7,5.7-5.7
			C181.6,86.1,184.1,88.7,184.1,91.9z"/>
		<path class="st0" d="M363.6,210.7c0,3.2-2.6,5.7-5.7,5.7c-3.2,0-5.7-2.6-5.7-5.7c0-3.2,2.6-5.7,5.7-5.7
			C361.1,205,363.6,207.6,363.6,210.7z"/>
		<path class="st0" d="M368.3,302.1c0,3.2-2.6,5.7-5.7,5.7c-3.2,0-5.7-2.6-5.7-5.7c0-3.2,2.6-5.7,5.7-5.7
			C365.7,296.4,368.3,298.9,368.3,302.1z"/>
		<path class="st0" d="M291.1,324.7c0,3.2-2.6,5.7-5.7,5.7c-3.2,0-5.7-2.6-5.7-5.7c0-3.2,2.6-5.7,5.7-5.7
			C288.5,319,291.1,321.5,291.1,324.7z"/>
		<path class="st0" d="M390,311.5c0,3.2-2.6,5.7-5.7,5.7c-3.2,0-5.7-2.6-5.7-5.7c0-3.2,2.6-5.7,5.7-5.7
			C387.4,305.8,390,308.4,390,311.5z"/>
		<path class="st0" d="M389.4,233.8c0,3.2-2.6,5.7-5.7,5.7c-3.2,0-5.7-2.6-5.7-5.7c0-3.2,2.6-5.7,5.7-5.7
			C386.9,228,389.4,230.6,389.4,233.8z"/>
		<path class="st0" d="M298.5,365.5c0,3.2-2.6,5.7-5.7,5.7c-3.2,0-5.7-2.6-5.7-5.7c0-3.2,2.6-5.7,5.7-5.7
			C295.9,359.7,298.5,362.3,298.5,365.5z"/>
		<path class="st0" d="M295,347.5c0,3.2-2.6,5.7-5.7,5.7c-3.2,0-5.7-2.6-5.7-5.7c0-3.2,2.6-5.7,5.7-5.7
			C292.4,341.8,295,344.3,295,347.5z"/>
		<path class="st0" d="M128.9,332.1c0,3.2-2.6,5.7-5.7,5.7c-3.2,0-5.7-2.6-5.7-5.7c0-3.2,2.6-5.7,5.7-5.7
			C126.3,326.4,128.9,328.9,128.9,332.1z"/>
		<path class="st0" d="M375.2,176.6c0,3.2-2.6,5.7-5.7,5.7c-3.2,0-5.7-2.6-5.7-5.7c0-3.2,2.6-5.7,5.7-5.7
			C372.6,170.9,375.2,173.5,375.2,176.6z"/>
		<path class="st0" d="M291.1,389.3c0,3.2-2.6,5.7-5.7,5.7c-3.2,0-5.7-2.6-5.7-5.7c0-3.2,2.6-5.7,5.7-5.7
			C288.5,383.6,291.1,386.1,291.1,389.3z"/>
		<path class="st0" d="M384.6,356.8c0,3.2-2.6,5.7-5.7,5.7c-3.2,0-5.7-2.6-5.7-5.7c0-3.2,2.6-5.7,5.7-5.7
			C382,351.1,384.6,353.6,384.6,356.8z"/>
		<path class="st0" d="M275.8,339.1c0,3.2-2.6,5.7-5.7,5.7c-3.2,0-5.7-2.6-5.7-5.7c0-3.2,2.6-5.7,5.7-5.7
			C273.2,333.4,275.8,336,275.8,339.1z"/>
		<path class="st0" d="M342.7,200.2c0,3.2-2.6,5.7-5.7,5.7c-3.2,0-5.7-2.6-5.7-5.7c0-3.2,2.6-5.7,5.7-5.7
			C340.2,194.5,342.7,197,342.7,200.2z"/>
		<path class="st0" d="M352.1,201.7c0,3.2-2.6,5.7-5.7,5.7c-3.2,0-5.7-2.6-5.7-5.7c0-3.2,2.6-5.7,5.7-5.7
			C349.6,196,352.1,198.5,352.1,201.7z"/>
		<path class="st0" d="M353.6,191.9c0,3.2-2.6,5.7-5.7,5.7c-3.2,0-5.7-2.6-5.7-5.7c0-3.2,2.6-5.7,5.7-5.7
			C351.1,186.2,353.6,188.7,353.6,191.9z"/>
		<path class="st0" d="M220.6,222.5c0,3.2-2.6,5.7-5.7,5.7c-3.2,0-5.7-2.6-5.7-5.7c0-3.2,2.6-5.7,5.7-5.7
			C218.1,216.7,220.6,219.3,220.6,222.5z"/>
		<path class="st0" d="M48.8,307.7c0,3.2-2.6,5.7-5.7,5.7s-5.7-2.6-5.7-5.7c0-3.2,2.6-5.7,5.7-5.7S48.8,304.6,48.8,307.7z"/>
		<path class="st0" d="M87.9,295c0,3.2-2.6,5.7-5.7,5.7c-3.2,0-5.7-2.6-5.7-5.7c0-3.2,2.6-5.7,5.7-5.7
			C85.3,289.3,87.9,291.8,87.9,295z"/>
		<path class="st0" d="M149.8,180.4c0,3.2-2.6,5.7-5.7,5.7c-3.2,0-5.7-2.6-5.7-5.7c0-3.2,2.6-5.7,5.7-5.7
			C147.2,174.7,149.8,177.2,149.8,180.4z"/>
		<path class="st0" d="M88.1,91.9c0,3.2-2.6,5.7-5.7,5.7c-3.2,0-5.7-2.6-5.7-5.7c0-3.2,2.6-5.7,5.7-5.7
			C85.5,86.1,88.1,88.7,88.1,91.9z"/>
		<path class="st0" d="M188.8,176.4c0,3.2-2.6,5.7-5.7,5.7c-3.2,0-5.7-2.6-5.7-5.7c0-3.2,2.6-5.7,5.7-5.7
			C186.2,170.6,188.8,173.2,188.8,176.4z"/>
		<path class="st0" d="M204.8,176.4c0,3.2-2.6,5.7-5.7,5.7c-3.2,0-5.7-2.6-5.7-5.7c0-3.2,2.6-5.7,5.7-5.7
			C202.3,170.6,204.8,173.2,204.8,176.4z"/>
		<path class="st0" d="M206.9,159.9c0,3.2-2.6,5.7-5.7,5.7c-3.2,0-5.7-2.6-5.7-5.7c0-3.2,2.6-5.7,5.7-5.7
			C204.4,154.1,206.9,156.7,206.9,159.9z"/>
		<path class="st0" d="M170.7,150.2c0,3.2-2.6,5.7-5.7,5.7c-3.2,0-5.7-2.6-5.7-5.7c0-3.2,2.6-5.7,5.7-5.7
			C168.2,144.5,170.7,147.1,170.7,150.2z"/>
		<path class="st0" d="M196.1,130.6c0,3.2-2.6,5.7-5.7,5.7s-5.7-2.6-5.7-5.7c0-3.2,2.6-5.7,5.7-5.7S196.1,127.5,196.1,130.6z"/>
		<path class="st0" d="M193.5,117.6c0,3.2-2.6,5.7-5.7,5.7c-3.2,0-5.7-2.6-5.7-5.7c0-3.2,2.6-5.7,5.7-5.7
			C191,111.8,193.5,114.4,193.5,117.6z"/>
		<path class="st0" d="M209,112.3c0,3.2-2.6,5.7-5.7,5.7c-3.2,0-5.7-2.6-5.7-5.7c0-3.2,2.6-5.7,5.7-5.7
			C206.4,106.5,209,109.1,209,112.3z"/>
		<path class="st0" d="M210.6,99.2c0,3.2-2.6,5.7-5.7,5.7c-3.2,0-5.7-2.6-5.7-5.7c0-3.2,2.6-5.7,5.7-5.7
			C208,93.4,210.6,96,210.6,99.2z"/>
		<path class="st0" d="M262.1,148.9c0,3.2-2.6,5.7-5.7,5.7c-3.2,0-5.7-2.6-5.7-5.7c0-3.2,2.6-5.7,5.7-5.7
			C259.5,143.2,262.1,145.7,262.1,148.9z"/>
		<path class="st0" d="M289.2,214.4c0,3.2-2.6,5.7-5.7,5.7s-5.7-2.6-5.7-5.7c0-3.2,2.6-5.7,5.7-5.7S289.2,211.2,289.2,214.4z"/>
		<path class="st0" d="M304.3,213.2c0,3.2-2.6,5.7-5.7,5.7c-3.2,0-5.7-2.6-5.7-5.7c0-3.2,2.6-5.7,5.7-5.7
			C301.7,207.5,304.3,210,304.3,213.2z"/>
		<path class="st0" d="M321.5,252.8c0,3.2-2.6,5.7-5.7,5.7c-3.2,0-5.7-2.6-5.7-5.7c0-3.2,2.6-5.7,5.7-5.7
			C318.9,247,321.5,249.6,321.5,252.8z"/>
		<path class="st0" d="M194.8,355.7c0,3.2-2.6,5.7-5.7,5.7c-3.2,0-5.7-2.6-5.7-5.7c0-3.2,2.6-5.7,5.7-5.7
			C192.2,349.9,194.8,352.5,194.8,355.7z"/>
		<path class="st0" d="M178.2,349.3c0,3.2-2.6,5.7-5.7,5.7c-3.2,0-5.7-2.6-5.7-5.7c0-3.2,2.6-5.7,5.7-5.7
			C175.6,343.6,178.2,346.2,178.2,349.3z"/>
		<path class="st0" d="M213.5,376.6c0,3.2-2.6,5.7-5.7,5.7c-3.2,0-5.7-2.6-5.7-5.7c0-3.2,2.6-5.7,5.7-5.7
			C210.9,370.8,213.5,373.4,213.5,376.6z"/>
		<path class="st0" d="M217,387.5c0,3.2-2.6,5.7-5.7,5.7c-3.2,0-5.7-2.6-5.7-5.7c0-3.2,2.6-5.7,5.7-5.7
			C214.4,381.7,217,384.3,217,387.5z"/>
		<path class="st0" d="M361.8,392.5c0,3.2-2.6,5.7-5.7,5.7c-3.2,0-5.7-2.6-5.7-5.7c0-3.2,2.6-5.7,5.7-5.7
			C359.2,386.8,361.8,389.4,361.8,392.5z"/>
		<path class="st0" d="M207.7,346c0,3.2-2.6,5.7-5.7,5.7c-3.2,0-5.7-2.6-5.7-5.7c0-3.2,2.6-5.7,5.7-5.7
			C205.1,340.3,207.7,342.8,207.7,346z"/>
		<path class="st0" d="M161.3,328c0,3.2-2.6,5.7-5.7,5.7c-3.2,0-5.7-2.6-5.7-5.7c0-3.2,2.6-5.7,5.7-5.7
			C158.7,322.2,161.3,324.8,161.3,328z"/>
		<path class="st0" d="M176.1,318.7c0,3.2-2.6,5.7-5.7,5.7c-3.2,0-5.7-2.6-5.7-5.7c0-3.2,2.6-5.7,5.7-5.7
			C173.6,313,176.1,315.5,176.1,318.7z"/>
		<path class="st0" d="M145.3,342.3c0,3.2-2.6,5.7-5.7,5.7c-3.2,0-5.7-2.6-5.7-5.7c0-3.2,2.6-5.7,5.7-5.7
			C142.8,336.6,145.3,339.2,145.3,342.3z"/>
		<path class="st0" d="M149.8,358.6c0,3.2-2.6,5.7-5.7,5.7c-3.2,0-5.7-2.6-5.7-5.7c0-3.2,2.6-5.7,5.7-5.7
			C147.2,352.9,149.8,355.5,149.8,358.6z"/>
		<path class="st0" d="M200.5,294.1c0,3.2-2.6,5.7-5.7,5.7s-5.7-2.6-5.7-5.7c0-3.2,2.6-5.7,5.7-5.7S200.5,291,200.5,294.1z"/>
		<path class="st0" d="M213.5,310.4c0,3.2-2.6,5.7-5.7,5.7c-3.2,0-5.7-2.6-5.7-5.7c0-3.2,2.6-5.7,5.7-5.7
			C210.9,304.7,213.5,307.2,213.5,310.4z"/>
		<path class="st0" d="M244.7,233.8c0,3.2-2.6,5.7-5.7,5.7c-3.2,0-5.7-2.6-5.7-5.7c0-3.2,2.6-5.7,5.7-5.7
			C242.1,228,244.7,230.6,244.7,233.8z"/>
		<path class="st0" d="M253.2,250.2c0,3.2-2.6,5.7-5.7,5.7c-3.2,0-5.7-2.6-5.7-5.7c0-3.2,2.6-5.7,5.7-5.7
			C250.7,244.5,253.2,247.1,253.2,250.2z"/>
		<path class="st0" d="M264.6,240.8c0,3.2-2.6,5.7-5.7,5.7c-3.2,0-5.7-2.6-5.7-5.7c0-3.2,2.6-5.7,5.7-5.7
			C262,235.1,264.6,237.7,264.6,240.8z"/>
		<path class="st0" d="M292.9,252.8c0,3.2-2.6,5.7-5.7,5.7s-5.7-2.6-5.7-5.7c0-3.2,2.6-5.7,5.7-5.7S292.9,249.6,292.9,252.8z"/>
		<path class="st0" d="M217,288.4c0,3.2-2.6,5.7-5.7,5.7c-3.2,0-5.7-2.6-5.7-5.7c0-3.2,2.6-5.7,5.7-5.7
			C214.4,282.7,217,285.2,217,288.4z"/>
		<path class="st0" d="M384.6,377.3c0,3.2-2.6,5.7-5.7,5.7c-3.2,0-5.7-2.6-5.7-5.7c0-3.2,2.6-5.7,5.7-5.7
			C382,371.6,384.6,374.1,384.6,377.3z"/>
		<path class="st0" d="M335.9,241.9c0,3.2-2.6,5.7-5.7,5.7c-3.2,0-5.7-2.6-5.7-5.7c0-3.2,2.6-5.7,5.7-5.7
			C333.3,236.2,335.9,238.8,335.9,241.9z"/>
		<path class="st0" d="M317.6,191.9c0,3.2-2.6,5.7-5.7,5.7c-3.2,0-5.7-2.6-5.7-5.7c0-3.2,2.6-5.7,5.7-5.7
			C315,186.2,317.6,188.7,317.6,191.9z"/>
		<path class="st0" d="M285.7,122.9c2.1,4.8-0.1,10.3-4.9,12.4c-4.8,2.1-10.3-0.1-12.4-4.9c-2.1-4.8,0.1-10.3,4.9-12.4
			C278.1,116,283.6,118.2,285.7,122.9z"/>
		<path class="st0" d="M280.6,114.9c1.3,2.9-0.1,6.3-3,7.6c-2.9,1.3-6.3-0.1-7.6-3c-1.3-2.9,0.1-6.3,3-7.6
			C276,110.6,279.4,112,280.6,114.9z"/>
		<path class="st0" d="M329.1,186.2c0,3.2-2.6,5.7-5.7,5.7c-3.2,0-5.7-2.6-5.7-5.7c0-3.2,2.6-5.7,5.7-5.7
			C326.5,180.4,329.1,183,329.1,186.2z"/>
		<path class="st0" d="M212.7,201.7c0,3.2-2.6,5.7-5.7,5.7c-3.2,0-5.7-2.6-5.7-5.7c0-3.2,2.6-5.7,5.7-5.7
			C210.1,196,212.7,198.5,212.7,201.7z"/>
		<path class="st0" d="M246.4,167.7c0,3.2-2.6,5.7-5.7,5.7c-3.2,0-5.7-2.6-5.7-5.7c0-3.2,2.6-5.7,5.7-5.7
			C243.8,162,246.4,164.6,246.4,167.7z"/>
		<path class="st0" d="M274,191.9c0,3.2-2.6,5.7-5.7,5.7c-3.2,0-5.7-2.6-5.7-5.7c0-3.2,2.6-5.7,5.7-5.7
			C271.4,186.2,274,188.7,274,191.9z"/>
		<path class="st0" d="M267.2,172.4c0,3.2-2.6,5.7-5.7,5.7s-5.7-2.6-5.7-5.7c0-3.2,2.6-5.7,5.7-5.7S267.2,169.3,267.2,172.4z"/>
		<path class="st0" d="M162.9,157.3c0,3.2-2.6,5.7-5.7,5.7c-3.2,0-5.7-2.6-5.7-5.7c0-3.2,2.6-5.7,5.7-5.7
			C160.3,151.5,162.9,154.1,162.9,157.3z"/>
		<path class="st0" d="M61.8,322.9c0,3.2-2.6,5.7-5.7,5.7c-3.2,0-5.7-2.6-5.7-5.7c0-3.2,2.6-5.7,5.7-5.7
			C59.2,317.1,61.8,319.7,61.8,322.9z"/>
		<path class="st0" d="M102.2,329.7c0,3.2-2.6,5.7-5.7,5.7c-3.2,0-5.7-2.6-5.7-5.7c0-3.2,2.6-5.7,5.7-5.7
			C99.6,324,102.2,326.6,102.2,329.7z"/>
		<path class="st0" d="M159.2,367.9c0,3.2-2.6,5.7-5.7,5.7c-3.2,0-5.7-2.6-5.7-5.7c0-3.2,2.6-5.7,5.7-5.7
			C156.6,362.2,159.2,364.7,159.2,367.9z"/>
		<path class="st0" d="M222.7,356.7c0,3.2-2.6,5.7-5.7,5.7c-3.2,0-5.7-2.6-5.7-5.7c0-3.2,2.6-5.7,5.7-5.7
			C220.1,350.9,222.7,353.5,222.7,356.7z"/>
		<path class="st0" d="M189.9,228.2c0,3.2-2.6,5.7-5.7,5.7c-3.2,0-5.7-2.6-5.7-5.7c0-3.2,2.6-5.7,5.7-5.7
			C187.3,222.5,189.9,225.1,189.9,228.2z"/>
		<path class="st0" d="M147.7,244.5c0,3.2-2.6,5.7-5.7,5.7c-3.2,0-5.7-2.6-5.7-5.7c0-3.2,2.6-5.7,5.7-5.7
			C145.2,238.8,147.7,241.3,147.7,244.5z"/>
		<path class="st0" d="M155.8,248.2c0,3.2-2.6,5.7-5.7,5.7c-3.2,0-5.7-2.6-5.7-5.7c0-3.2,2.6-5.7,5.7-5.7
			C153.3,242.5,155.8,245,155.8,248.2z"/>
		<path class="st0" d="M147.7,250.2c0,3.2-2.6,5.7-5.7,5.7c-3.2,0-5.7-2.6-5.7-5.7c0-3.2,2.6-5.7,5.7-5.7
			C145.2,244.5,147.7,247.1,147.7,250.2z"/>
		<path class="st0" d="M96.4,248.2c0,3.2-2.6,5.7-5.7,5.7c-3.2,0-5.7-2.6-5.7-5.7c0-3.2,2.6-5.7,5.7-5.7
			C93.9,242.5,96.4,245,96.4,248.2z"/>
		<path class="st0" d="M102.2,252.8c0,3.2-2.6,5.7-5.7,5.7c-3.2,0-5.7-2.6-5.7-5.7c0-3.2,2.6-5.7,5.7-5.7
			C99.6,247,102.2,249.6,102.2,252.8z"/>
		<path class="st0" d="M102.2,247c0,3.2-2.6,5.7-5.7,5.7c-3.2,0-5.7-2.6-5.7-5.7c0-3.2,2.6-5.7,5.7-5.7
			C99.6,241.3,102.2,243.9,102.2,247z"/>
		<path class="st0" d="M155.8,335.5c0,3.2-2.6,5.7-5.7,5.7c-3.2,0-5.7-2.6-5.7-5.7c0-3.2,2.6-5.7,5.7-5.7
			C153.3,329.7,155.8,332.3,155.8,335.5z"/>
		<circle class="st0" cx="306.1" cy="306.1" r="9.7"/>
		<path class="st0" d="M340.1,307.2c0,3.2-2.6,5.7-5.7,5.7c-3.2,0-5.7-2.6-5.7-5.7c0-3.2,2.6-5.7,5.7-5.7
			C337.5,301.5,340.1,304,340.1,307.2z"/>
		<path class="st0" d="M304.3,291.6c0,3.2-2.6,5.7-5.7,5.7c-3.2,0-5.7-2.6-5.7-5.7c0-3.2,2.6-5.7,5.7-5.7
			C301.7,285.9,304.3,288.4,304.3,291.6z"/>
		<path class="st0" d="M102.2,132.7c0,3.2-2.6,5.7-5.7,5.7c-3.2,0-5.7-2.6-5.7-5.7c0-3.2,2.6-5.7,5.7-5.7
			C99.6,127,102.2,129.5,102.2,132.7z"/>
		<path class="st0" d="M107.9,186.2c0,3.2-2.6,5.7-5.7,5.7c-3.2,0-5.7-2.6-5.7-5.7c0-3.2,2.6-5.7,5.7-5.7
			C105.4,180.4,107.9,183,107.9,186.2z"/>
		<path class="st0" d="M103.6,162c0,3.2-2.6,5.7-5.7,5.7c-3.2,0-5.7-2.6-5.7-5.7c0-3.2,2.6-5.7,5.7-5.7
			C101,156.2,103.6,158.8,103.6,162z"/>
		<path class="st0" d="M48.8,11.5c0,3.2-2.6,5.7-5.7,5.7s-5.7-2.6-5.7-5.7c0-3.2,2.6-5.7,5.7-5.7S48.8,8.3,48.8,11.5z"/>
		<path class="st0" d="M44.5,239.5c0,3.2-2.6,5.7-5.7,5.7c-3.2,0-5.7-2.6-5.7-5.7c0-3.2,2.6-5.7,5.7-5.7
			C42,233.8,44.5,236.3,44.5,239.5z"/>
		<path class="st0" d="M189,109.7c0,3.2-2.6,5.7-5.7,5.7c-3.2,0-5.7-2.6-5.7-5.7c0-3.2,2.6-5.7,5.7-5.7
			C186.5,104,189,106.6,189,109.7z"/>
		<path class="st0" d="M331.6,23c0,3.2-2.6,5.7-5.7,5.7c-3.2,0-5.7-2.6-5.7-5.7c0-3.2,2.6-5.7,5.7-5.7
			C329.1,17.2,331.6,19.8,331.6,23z"/>
		<path class="st0" d="M69.1,212c0,3.2-2.6,5.7-5.7,5.7c-3.2,0-5.7-2.6-5.7-5.7c0-3.2,2.6-5.7,5.7-5.7
			C66.5,206.2,69.1,208.8,69.1,212z"/>
		<path class="st0" d="M35.6,129c0,3.2-2.6,5.7-5.7,5.7c-3.2,0-5.7-2.6-5.7-5.7c0-3.2,2.6-5.7,5.7-5.7C33,123.3,35.6,125.9,35.6,129
			z"/>
		<path class="st0" d="M44.5,101c0,3.2-2.6,5.7-5.7,5.7c-3.2,0-5.7-2.6-5.7-5.7c0-3.2,2.6-5.7,5.7-5.7C42,95.3,44.5,97.9,44.5,101z"
			/>
		<path class="st0" d="M18.9,137.4c0,3.2-2.6,5.7-5.7,5.7c-3.2,0-5.7-2.6-5.7-5.7c0-3.2,2.6-5.7,5.7-5.7
			C16.3,131.7,18.9,134.3,18.9,137.4z"/>
		<path class="st0" d="M69.1,156c0,3.2-2.6,5.7-5.7,5.7c-3.2,0-5.7-2.6-5.7-5.7c0-3.2,2.6-5.7,5.7-5.7
			C66.5,150.2,69.1,152.8,69.1,156z"/>
		<path class="st0" d="M26.9,200.2c0,3.2-2.6,5.7-5.7,5.7c-3.2,0-5.7-2.6-5.7-5.7c0-3.2,2.6-5.7,5.7-5.7
			C24.3,194.5,26.9,197,26.9,200.2z"/>
		<path class="st0" d="M11.7,205.6c0,3.2-2.6,5.7-5.7,5.7c-3.2,0-5.7-2.6-5.7-5.7c0-3.2,2.6-5.7,5.7-5.7
			C9.1,199.9,11.7,202.4,11.7,205.6z"/>
		<path class="st0" d="M74.6,232.7c0,3.2-2.6,5.7-5.7,5.7c-3.2,0-5.7-2.6-5.7-5.7c0-3.2,2.6-5.7,5.7-5.7
			C72,226.9,74.6,229.5,74.6,232.7z"/>
		<path class="st0" d="M97.7,228.2c0,1.7-1.4,3-3,3c-1.7,0-3-1.4-3-3c0-1.7,1.4-3,3-3C96.3,225.2,97.7,226.6,97.7,228.2z"/>
		<path class="st0" d="M318.8,383.6c0,1.7-1.4,3-3,3c-1.7,0-3-1.4-3-3c0-1.7,1.4-3,3-3C317.4,380.5,318.8,381.9,318.8,383.6z"/>
		<path class="st0" d="M366.7,388.6c0,1.7-1.4,3-3,3c-1.7,0-3-1.4-3-3c0-1.7,1.4-3,3-3C365.3,385.6,366.7,386.9,366.7,388.6z"/>
		<path class="st0" d="M396.7,375.8c0,1.7-1.4,3-3,3c-1.7,0-3-1.4-3-3c0-1.7,1.4-3,3-3C395.4,372.8,396.7,374.2,396.7,375.8z"/>
		<path class="st0" d="M391.7,340.7c0,1.7-1.4,3-3,3c-1.7,0-3-1.4-3-3c0-1.7,1.4-3,3-3C390.3,337.7,391.7,339.1,391.7,340.7z"/>
		<path class="st0" d="M22.7,114.4c0,1.7-1.4,3-3,3c-1.7,0-3-1.4-3-3c0-1.7,1.4-3,3-3C21.4,111.3,22.7,112.7,22.7,114.4z"/>
		<path class="st0" d="M194.6,31.7c0,1.7-1.4,3-3,3c-1.7,0-3-1.4-3-3c0-1.7,1.4-3,3-3C193.2,28.7,194.6,30,194.6,31.7z"/>
		<path class="st0" d="M309.1,39.1c0,1.7-1.4,3-3,3c-1.7,0-3-1.4-3-3c0-1.7,1.4-3,3-3C307.8,36.1,309.1,37.5,309.1,39.1z"/>
		<path class="st0" d="M373.4,36.3c0,1.7-1.4,3-3,3c-1.7,0-3-1.4-3-3c0-1.7,1.4-3,3-3C372,33.3,373.4,34.7,373.4,36.3z"/>
		<path class="st0" d="M373.6,91.1c0,1.7-1.4,3-3,3c-1.7,0-3-1.4-3-3c0-1.7,1.4-3,3-3C372.3,88.1,373.6,89.5,373.6,91.1z"/>
		<path class="st0" d="M320.4,121.7c0,1.7-1.4,3-3,3c-1.7,0-3-1.4-3-3c0-1.7,1.4-3,3-3C319,118.6,320.4,120,320.4,121.7z"/>
		<path class="st0" d="M396.5,2.1c0,1.7-1.4,3-3,3c-1.7,0-3-1.4-3-3c0-1.7,1.4-3,3-3C395.2-0.9,396.5,0.5,396.5,2.1z"/>
		<path class="st0" d="M309.1,53.7c0,1.7-1.4,3-3,3c-1.7,0-3-1.4-3-3c0-1.7,1.4-3,3-3C307.8,50.7,309.1,52.1,309.1,53.7z"/>
		<path class="st0" d="M290.2,70.6c0,1.7-1.4,3-3,3c-1.7,0-3-1.4-3-3c0-1.7,1.4-3,3-3C288.8,67.5,290.2,68.9,290.2,70.6z"/>
		<path class="st0" d="M371.3,25.3c0,1.7-1.4,3-3,3c-1.7,0-3-1.4-3-3c0-1.7,1.4-3,3-3C370,22.2,371.3,23.6,371.3,25.3z"/>
		<path class="st0" d="M360.3,9.7c0,1.7-1.4,3-3,3c-1.7,0-3-1.4-3-3c0-1.7,1.4-3,3-3C359,6.7,360.3,8,360.3,9.7z"/>
		<path class="st0" d="M386.7,3.1c0,1.7-1.4,3-3,3c-1.7,0-3-1.4-3-3c0-1.7,1.4-3,3-3C385.4,0.1,386.7,1.4,386.7,3.1z"/>
		<path class="st0" d="M133.7,122.2c0,1.7-1.4,3-3,3c-1.7,0-3-1.4-3-3c0-1.7,1.4-3,3-3C132.4,119.2,133.7,120.5,133.7,122.2z"/>
		<path class="st0" d="M108.3,162c0,1.7-1.4,3-3,3c-1.7,0-3-1.4-3-3c0-1.7,1.4-3,3-3C106.9,159,108.3,160.3,108.3,162z"/>
		<path class="st0" d="M132,131.7c0,1.7-1.4,3-3,3c-1.7,0-3-1.4-3-3c0-1.7,1.4-3,3-3C130.6,128.7,132,130,132,131.7z"/>
		<path class="st0" d="M128.9,84.4c0,1.7-1.4,3-3,3c-1.7,0-3-1.4-3-3c0-1.7,1.4-3,3-3C127.6,81.3,128.9,82.7,128.9,84.4z"/>
		<path class="st0" d="M136.9,122.2c0,1.2-1,2.2-2.2,2.2c-1.2,0-2.2-1-2.2-2.2c0-1.2,1-2.2,2.2-2.2
			C135.9,119.9,136.9,120.9,136.9,122.2z"/>
		<path class="st0" d="M314.1,339.1c0,1.2-1,2.2-2.2,2.2c-1.2,0-2.2-1-2.2-2.2c0-1.2,1-2.2,2.2-2.2
			C313.1,336.9,314.1,337.9,314.1,339.1z"/>
		<path class="st0" d="M315.5,340.3c0,1.2-1,2.2-2.2,2.2c-1.2,0-2.2-1-2.2-2.2c0-1.2,1-2.2,2.2-2.2C314.5,338,315.5,339,315.5,340.3
			z"/>
		<path class="st0" d="M336.6,390.9c0,1.2-1,2.2-2.2,2.2c-1.2,0-2.2-1-2.2-2.2c0-1.2,1-2.2,2.2-2.2
			C335.6,388.6,336.6,389.6,336.6,390.9z"/>
		<path class="st0" d="M287.6,330.9c0,1.2-1,2.2-2.2,2.2c-1.2,0-2.2-1-2.2-2.2c0-1.2,1-2.2,2.2-2.2
			C286.6,328.6,287.6,329.6,287.6,330.9z"/>
		<path class="st0" d="M315.5,347.3c0,1.2-1,2.2-2.2,2.2c-1.2,0-2.2-1-2.2-2.2c0-1.2,1-2.2,2.2-2.2C314.5,345,315.5,346,315.5,347.3
			z"/>
		<path class="st0" d="M39.2,80.8c0,1.7-1.4,3-3,3c-1.7,0-3-1.4-3-3c0-1.7,1.4-3,3-3C37.9,77.8,39.2,79.2,39.2,80.8z"/>
		<path class="st0" d="M94.6,227.7c0,1.7-1.4,3-3,3c-1.7,0-3-1.4-3-3c0-1.7,1.4-3,3-3C93.3,224.7,94.6,226,94.6,227.7z"/>
		<path class="st0" d="M46.7,84.4c0,3.2-2.6,5.7-5.7,5.7c-3.2,0-5.7-2.6-5.7-5.7c0-3.2,2.6-5.7,5.7-5.7
			C44.1,78.6,46.7,81.2,46.7,84.4z"/>
		<path class="st0" d="M73,155.9c0,2.2-1.7,3.9-3.9,3.9c-2.2,0-3.9-1.7-3.9-3.9c0-2.2,1.7-3.9,3.9-3.9C71.2,152,73,153.8,73,155.9z"
			/>
		<path class="st0" d="M13.8,84c0,2.2-1.7,3.9-3.9,3.9C7.8,88,6,86.2,6,84.1c0-2.2,1.7-3.9,3.9-3.9C12,80.1,13.8,81.9,13.8,84z"/>
		<path class="st0" d="M82.4,201.7c0,2.2-1.7,3.9-3.9,3.9c-2.2,0-3.9-1.7-3.9-3.9c0-2.2,1.7-3.9,3.9-3.9
			C80.6,197.8,82.4,199.5,82.4,201.7z"/>
		<path class="st0" d="M29.4,266.3c0,2.2-1.7,3.9-3.9,3.9c-2.2,0-3.9-1.7-3.9-3.9c0-2.2,1.7-3.9,3.9-3.9
			C27.6,262.4,29.3,264.2,29.4,266.3z"/>
		<path class="st0" d="M29.1,239.5c0,2.2-1.7,3.9-3.9,3.9c-2.2,0-3.9-1.7-3.9-3.9c0-2.2,1.7-3.9,3.9-3.9
			C27.4,235.6,29.1,237.3,29.1,239.5z"/>
		<path class="st0" d="M9.9,233.9c0,2.2-1.7,3.9-3.9,3.9c-2.2,0-3.9-1.7-3.9-3.9c0-2.2,1.7-3.9,3.9-3.9C8.1,230,9.9,231.8,9.9,233.9
			z"/>
		<path class="st0" d="M74.1,191.9c0,2.2-1.7,3.9-3.9,3.9c-2.2,0-3.9-1.7-3.9-3.9c0-2.2,1.7-3.9,3.9-3.9
			C72.3,188,74.1,189.7,74.1,191.9z"/>
		<path class="st0" d="M132.8,317.1c0,2.2-1.7,3.9-3.9,3.9c-2.2,0-3.9-1.7-3.9-3.9c0-2.2,1.7-3.9,3.9-3.9
			C131.1,313.2,132.8,314.9,132.8,317.1z"/>
		<path class="st0" d="M296.7,30.2c0,2.2-1.7,3.9-3.9,3.9c-2.2,0-3.9-1.7-3.9-3.9c0-2.2,1.7-3.9,3.9-3.9
			C294.9,26.4,296.7,28.1,296.7,30.2z"/>
		<path class="st0" d="M320.8,91.1c0,2.2-1.7,3.9-3.9,3.9c-2.2,0-3.9-1.7-3.9-3.9c0-2.2,1.7-3.9,3.9-3.9
			C319,87.2,320.8,89,320.8,91.1z"/>
		<path class="st0" d="M261.4,95c0,2.2-1.7,3.9-3.9,3.9c-2.2,0-3.9-1.7-3.9-3.9c0-2.2,1.7-3.9,3.9-3.9
			C259.6,91.1,261.4,92.9,261.4,95z"/>
		<path class="st0" d="M260.1,112.2c0,2.2-1.7,3.9-3.9,3.9c-2.2,0-3.9-1.7-3.9-3.9c0-2.2,1.7-3.9,3.9-3.9
			C258.3,108.3,260.1,110.1,260.1,112.2z"/>
		<path class="st0" d="M22.8,222.2c0.1,2.2-1.5,4-3.7,4.2c-2.2,0.1-4-1.5-4.2-3.7c-0.1-2.2,1.5-4,3.7-4.2
			C20.8,218.4,22.7,220.1,22.8,222.2z"/>
		<path class="st0" d="M37.6,323.7c0.1,2.2-1.5,4-3.7,4.2c-2.2,0.1-4-1.5-4.2-3.7c-0.1-2.2,1.5-4,3.7-4.2
			C35.6,320,37.5,321.6,37.6,323.7z"/>
		<path class="st0" d="M102.8,377.3c0.1,2.2-1.5,4-3.7,4.2c-2.2,0.1-4-1.5-4.2-3.7c-0.1-2.2,1.5-4,3.7-4.2
			C100.8,373.5,102.7,375.2,102.8,377.3z"/>
		<path class="st0" d="M182.1,145.5c0.1,2.2-1.5,4-3.7,4.2c-2.2,0.1-4-1.5-4.2-3.7c-0.1-2.2,1.5-4,3.7-4.2
			C180.1,141.7,181.9,143.3,182.1,145.5z"/>
		<path class="st0" d="M69.1,327.7c0.1,2.2-1.5,4-3.7,4.2c-2.2,0.1-4-1.5-4.2-3.7c-0.1-2.2,1.5-4,3.7-4.2
			C67.1,323.9,68.9,325.6,69.1,327.7z"/>
		<path class="st0" d="M74.1,328.9c0.1,2.2-1.5,4-3.7,4.2c-2.2,0.1-4-1.5-4.2-3.7c-0.1-2.2,1.5-4,3.7-4.2
			C72.1,325.1,74,326.7,74.1,328.9z"/>
		<path class="st0" d="M103.9,340.5c0.1,2.2-1.5,4-3.7,4.2c-2.2,0.1-4-1.5-4.2-3.7c-0.1-2.2,1.5-4,3.7-4.2
			C101.9,336.7,103.8,338.3,103.9,340.5z"/>
		<path class="st0" d="M30.1,388.4c0.1,2.2-1.5,4-3.7,4.2c-2.2,0.1-4-1.5-4.2-3.7c-0.1-2.2,1.5-4,3.7-4.2
			C28.1,384.6,29.9,386.2,30.1,388.4z"/>
		<path class="st0" d="M8.3,374.8c0.1,2.2-1.5,4-3.7,4.2c-2.2,0.1-4-1.5-4.2-3.7c-0.1-2.2,1.5-4,3.7-4.2
			C6.3,371,8.2,372.6,8.3,374.8z"/>
		<path class="st0" d="M33.7,344.1c0.1,2.2-1.5,4-3.7,4.2c-2.2,0.1-4-1.5-4.2-3.7c-0.1-2.2,1.5-4,3.7-4.2
			C31.7,340.3,33.6,342,33.7,344.1z"/>
		<path class="st0" d="M21.4,338.9c0.1,2.2-1.5,4-3.7,4.2c-2.2,0.1-4-1.5-4.2-3.7c-0.1-2.2,1.5-4,3.7-4.2
			C19.4,335.1,21.2,336.7,21.4,338.9z"/>
		<path class="st0" d="M22.8,291.3c0.1,2.2-1.5,4-3.7,4.2c-2.2,0.1-4-1.5-4.2-3.7c-0.1-2.2,1.5-4,3.7-4.2
			C20.8,287.6,22.7,289.2,22.8,291.3z"/>
		<path class="st0" d="M32.1,170.4c0.1,2.2-1.5,4-3.7,4.2c-2.2,0.1-4-1.5-4.2-3.7c-0.1-2.2,1.5-4,3.7-4.2
			C30.1,166.6,31.9,168.2,32.1,170.4z"/>
		<path class="st0" d="M7,166.5c0.1,2.2-1.5,4-3.7,4.2c-2.2,0.1-4-1.5-4.2-3.7c-0.1-2.2,1.5-4,3.7-4.2C5,162.7,6.9,164.3,7,166.5z"
			/>
		<circle class="st0" cx="393.7" cy="263.6" r="9.4"/>
		<circle class="st0" cx="409.1" cy="112.3" r="9.4"/>
		<circle class="st0" cx="406" cy="48.6" r="9.4"/>
		
			<ellipse transform="matrix(0.9239 -0.3827 0.3827 0.9239 -57.2421 168.6814)" class="st0" cx="395.4" cy="228.2" rx="9.4" ry="9.4"/>
		<path class="st0" d="M411.7,11.5c0,3.8-3.1,6.9-6.9,6.9c-3.8,0-6.9-3.1-6.9-6.9c0-3.8,3.1-6.9,6.9-6.9
			C408.6,4.6,411.7,7.7,411.7,11.5z"/>
		<path class="st0" d="M409.9,364.2c0,3.8-3.1,6.9-6.9,6.9c-3.8,0-6.9-3.1-6.9-6.9c0-3.8,3.1-6.9,6.9-6.9
			C406.9,357.4,409.9,360.5,409.9,364.2z"/>
		<path class="st0" d="M409.1,278.5c0,3.8-3.1,6.9-6.9,6.9c-3.8,0-6.9-3.1-6.9-6.9c0-3.8,3.1-6.9,6.9-6.9
			C406,271.7,409.1,274.7,409.1,278.5z"/>
		<path class="st0" d="M412.8,267.6c-0.1,3.8-3.2,6.8-7,6.8c-3.8-0.1-6.8-3.2-6.8-7c0.1-3.8,3.2-6.8,7-6.8
			C409.9,260.7,412.9,263.8,412.8,267.6z"/>
		<path class="st0" d="M407,166.5c0.1,2.2-1.5,4-3.7,4.2c-2.2,0.1-4-1.5-4.2-3.7c-0.1-2.2,1.5-4,3.7-4.2
			C405,162.7,406.9,164.3,407,166.5z"/>
		<path class="st0" d="M194.8,178.2c0,2.2-1.7,3.9-3.9,3.9c-2.2,0-3.9-1.7-3.9-3.9c0-2.2,1.7-3.9,3.9-3.9
			C193,174.3,194.7,176,194.8,178.2z"/>
		<path class="st0" d="M194.8,231.6c0,2.2-1.7,3.9-3.9,3.9c-2.2,0-3.9-1.7-3.9-3.9c0-2.2,1.7-3.9,3.9-3.9
			C193,227.7,194.7,229.4,194.8,231.6z"/>
		<path class="st0" d="M203,328.6c0,2.2-1.7,3.9-3.9,3.9c-2.2,0-3.9-1.7-3.9-3.9c0-2.2,1.7-3.9,3.9-3.9
			C201.2,324.7,203,326.4,203,328.6z"/>
		<path class="st0" d="M225.1,332.1c0,2.2-1.7,3.9-3.9,3.9c-2.2,0-3.9-1.7-3.9-3.9c0-2.2,1.7-3.9,3.9-3.9
			C223.3,328.2,225.1,329.9,225.1,332.1z"/>
		<path class="st0" d="M375.9,369.4c0,2.2-1.7,3.9-3.9,3.9c-2.2,0-3.9-1.7-3.9-3.9c0-2.2,1.7-3.9,3.9-3.9
			C374.1,365.5,375.9,367.2,375.9,369.4z"/>
		<path class="st0" d="M353.6,386.7c0,2.2-1.7,3.9-3.9,3.9c-2.2,0-3.9-1.7-3.9-3.9c0-2.2,1.7-3.9,3.9-3.9
			C351.9,382.8,353.6,384.5,353.6,386.7z"/>
		<path class="st0" d="M296.8,244.5c0,2.2-1.7,3.9-3.9,3.9c-2.2,0-3.9-1.7-3.9-3.9c0-2.2,1.7-3.9,3.9-3.9
			C295,240.6,296.8,242.3,296.8,244.5z"/>
		<path class="st0" d="M103.9,262.4c0,2.2-1.7,3.9-3.9,3.9c-2.2,0-3.9-1.7-3.9-3.9c0-2.2,1.7-3.9,3.9-3.9
			C102.1,258.5,103.9,260.3,103.9,262.4z"/>
		<path class="st0" d="M246.5,378.4c0,2.2-1.7,3.9-3.9,3.9c-2.2,0-3.9-1.7-3.9-3.9c0-2.2,1.7-3.9,3.9-3.9
			C244.7,374.5,246.5,376.2,246.5,378.4z"/>
		<path class="st0" d="M153.1,288.4c0,2.2-1.7,3.9-3.9,3.9c-2.2,0-3.9-1.7-3.9-3.9c0-2.2,1.7-3.9,3.9-3.9
			C151.4,284.5,153.1,286.2,153.1,288.4z"/>
		<path class="st0" d="M130.8,179.3c0,2.2-1.7,3.9-3.9,3.9c-2.2,0-3.9-1.7-3.9-3.9c0-2.2,1.7-3.9,3.9-3.9
			C129,175.4,130.7,177.1,130.8,179.3z"/>
		<path class="st0" d="M116,235.1c0,2.2-1.7,3.9-3.9,3.9c-2.2,0-3.9-1.7-3.9-3.9c0-2.2,1.7-3.9,3.9-3.9
			C114.2,231.2,116,232.9,116,235.1z"/>
		<path class="st0" d="M128.9,292.3c0,2.2-1.7,3.9-3.9,3.9c-2.2,0-3.9-1.7-3.9-3.9c0-2.2,1.7-3.9,3.9-3.9
			C127.1,288.4,128.9,290.1,128.9,292.3z"/>
		<path class="st0" d="M346.6,196.3c0,2.2-1.7,3.9-3.9,3.9c-2.2,0-3.9-1.7-3.9-3.9c0-2.2,1.7-3.9,3.9-3.9
			C344.8,192.4,346.6,194.1,346.6,196.3z"/>
		<path class="st0" d="M357.6,190.8c0,2.2-1.7,3.9-3.9,3.9c-2.2,0-3.9-1.7-3.9-3.9c0-2.2,1.7-3.9,3.9-3.9
			C355.8,186.9,357.5,188.6,357.6,190.8z"/>
		<path class="st0" d="M165,93.4c0,2.2-1.7,3.9-3.9,3.9c-2.2,0-3.9-1.7-3.9-3.9c0-2.2,1.7-3.9,3.9-3.9C163.2,89.5,165,91.3,165,93.4
			z"/>
		<path class="st0" d="M169.2,66.3c0,2.2-1.7,3.9-3.9,3.9c-2.2,0-3.9-1.7-3.9-3.9c0-2.2,1.7-3.9,3.9-3.9
			C167.4,62.4,169.2,64.1,169.2,66.3z"/>
		<path class="st0" d="M315,81.5c0,2.2-1.7,3.9-3.9,3.9c-2.2,0-3.9-1.7-3.9-3.9c0-2.2,1.7-3.9,3.9-3.9C313.3,77.6,315,79.3,315,81.5
			z"/>
		<path class="st0" d="M200,269c0,2.2-1.7,3.9-3.9,3.9c-2.2,0-3.9-1.7-3.9-3.9c0-2.2,1.7-3.9,3.9-3.9C198.2,265.1,200,266.9,200,269
			z"/>
		<path class="st0" d="M391.5,66.3c0,2.2-1.7,3.9-3.9,3.9c-2.2,0-3.9-1.7-3.9-3.9c0-2.2,1.7-3.9,3.9-3.9
			C389.7,62.4,391.5,64.1,391.5,66.3z"/>
		<path class="st0" d="M15.6,77.8c0,2.2-1.7,3.9-3.9,3.9c-2.2,0-3.9-1.7-3.9-3.9c0-2.2,1.7-3.9,3.9-3.9
			C13.8,73.9,15.6,75.6,15.6,77.8z"/>
		<path class="st0" d="M1.9,185c0,2.2-1.7,3.9-3.9,3.9c-2.2,0-3.9-1.7-3.9-3.9c0-2.2,1.7-3.9,3.9-3.9C0.1,181.1,1.9,182.9,1.9,185z"
			/>
		<path class="st0" d="M338.4,350.9c0,2.2-1.7,3.9-3.9,3.9c-2.2,0-3.9-1.7-3.9-3.9c0-2.2,1.7-3.9,3.9-3.9
			C336.6,347,338.3,348.7,338.4,350.9z"/>
		<path class="st0" d="M396.1,314.2c0,2.2-1.7,3.9-3.9,3.9c-2.2,0-3.9-1.7-3.9-3.9c0-2.2,1.7-3.9,3.9-3.9
			C394.3,310.3,396,312,396.1,314.2z"/>
		<path class="st0" d="M397.4,97.6c0,2.2-1.7,3.9-3.9,3.9c-2.2,0-3.9-1.7-3.9-3.9c0-2.2,1.7-3.9,3.9-3.9
			C395.6,93.7,397.4,95.4,397.4,97.6z"/>
		<path class="st0" d="M399.5,11.5c0,2.2-1.7,3.9-3.9,3.9c-2.2,0-3.9-1.7-3.9-3.9c0-2.2,1.7-3.9,3.9-3.9
			C397.7,7.6,399.5,9.3,399.5,11.5z"/>
		<path class="st0" d="M392.1,26.8c0,2.2-1.7,3.9-3.9,3.9c-2.2,0-3.9-1.7-3.9-3.9c0-2.2,1.7-3.9,3.9-3.9
			C390.4,22.9,392.1,24.7,392.1,26.8z"/>
		<path class="st0" d="M387.2,71.3c0,2.2-1.7,3.9-3.9,3.9c-2.2,0-3.9-1.7-3.9-3.9c0-2.2,1.7-3.9,3.9-3.9
			C385.4,67.4,387.2,69.1,387.2,71.3z"/>
		<path class="st0" d="M126,302.8c0,2.2-1.7,3.9-3.9,3.9c-2.2,0-3.9-1.7-3.9-3.9c0-2.2,1.7-3.9,3.9-3.9
			C124.2,298.9,126,300.6,126,302.8z"/>
		<path class="st0" d="M115.2,296.3c0,2.2-1.7,3.9-3.9,3.9c-2.2,0-3.9-1.7-3.9-3.9c0-2.2,1.7-3.9,3.9-3.9
			C113.4,292.4,115.2,294.2,115.2,296.3z"/>
		<path class="st0" d="M304.3,230.7c0,2.2-1.7,3.9-3.9,3.9c-2.2,0-3.9-1.7-3.9-3.9c0-2.2,1.7-3.9,3.9-3.9
			C302.5,226.8,304.2,228.6,304.3,230.7z"/>
		<path class="st0" d="M218.3,166.7c0,2.2-1.7,3.9-3.9,3.9c-2.2,0-3.9-1.7-3.9-3.9c0-2.2,1.7-3.9,3.9-3.9
			C216.5,162.8,218.3,164.5,218.3,166.7z"/>
		<path class="st0" d="M140.7,104.9c0,2.2-1.7,3.9-3.9,3.9c-2.2,0-3.9-1.7-3.9-3.9c0-2.2,1.7-3.9,3.9-3.9
			C138.9,101,140.7,102.7,140.7,104.9z"/>
		<path class="st0" d="M86.1,51.5c0,2.2-1.7,3.9-3.9,3.9c-2.2,0-3.9-1.7-3.9-3.9c0-2.2,1.7-3.9,3.9-3.9
			C84.3,47.6,86.1,49.3,86.1,51.5z"/>
		<path class="st0" d="M295,53.7c0,2.2-1.7,3.9-3.9,3.9c-2.2,0-3.9-1.7-3.9-3.9c0-2.2,1.7-3.9,3.9-3.9C293.2,49.8,295,51.5,295,53.7
			z"/>
		<path class="st0" d="M370.1,51.7c0,2.2-1.7,3.9-3.9,3.9c-2.2,0-3.9-1.7-3.9-3.9c0-2.2,1.7-3.9,3.9-3.9
			C368.3,47.8,370.1,49.6,370.1,51.7z"/>
		<path class="st0" d="M386.4,84.3c0,2.2-1.7,3.9-3.9,3.9c-2.2,0-3.9-1.7-3.9-3.9c0-2.2,1.7-3.9,3.9-3.9
			C384.6,80.4,386.4,82.2,386.4,84.3z"/>
		<path class="st0" d="M389.2,108.3c0,2.2-1.7,3.9-3.9,3.9c-2.2,0-3.9-1.7-3.9-3.9c0-2.2,1.7-3.9,3.9-3.9
			C387.4,104.4,389.2,106.2,389.2,108.3z"/>
		<path class="st0" d="M399.3,160.8c0,2.2-1.7,3.9-3.9,3.9c-2.2,0-3.9-1.7-3.9-3.9c0-2.2,1.7-3.9,3.9-3.9
			C397.5,156.9,399.3,158.7,399.3,160.8z"/>
		<path class="st0" d="M346.5,99.6c0,2.2-1.7,3.9-3.9,3.9c-2.2,0-3.9-1.7-3.9-3.9c0-2.2,1.7-3.9,3.9-3.9
			C344.7,95.7,346.5,97.5,346.5,99.6z"/>
		<path class="st0" d="M338.4,74.6c0,2.2-1.7,3.9-3.9,3.9c-2.2,0-3.9-1.7-3.9-3.9c0-2.2,1.7-3.9,3.9-3.9
			C336.6,70.7,338.3,72.4,338.4,74.6z"/>
		<path class="st0" d="M90.2,48.2c0,2.2-1.7,3.9-3.9,3.9c-2.2,0-3.9-1.7-3.9-3.9c0-2.2,1.7-3.9,3.9-3.9C88.5,44.3,90.2,46,90.2,48.2
			z"/>
		<path class="st0" d="M145.9,145.8c0,2.2-1.7,3.9-3.9,3.9c-2.2,0-3.9-1.7-3.9-3.9c0-2.2,1.7-3.9,3.9-3.9
			C144.1,141.9,145.9,143.6,145.9,145.8z"/>
		<path class="st0" d="M47,151.5c0,2.2-1.7,3.9-3.9,3.9c-2.2,0-3.9-1.7-3.9-3.9c0-2.2,1.7-3.9,3.9-3.9C45.2,147.6,47,149.3,47,151.5
			z"/>
		<path class="st0" d="M385.3,271.6c0,2.2-1.7,3.9-3.9,3.9c-2.2,0-3.9-1.7-3.9-3.9c0-2.2,1.7-3.9,3.9-3.9
			C383.5,267.7,385.3,269.5,385.3,271.6z"/>
		<path class="st0" d="M387.6,340.2c0,2.2-1.7,3.9-3.9,3.9c-2.2,0-3.9-1.7-3.9-3.9c0-2.2,1.7-3.9,3.9-3.9
			C385.8,336.3,387.6,338.1,387.6,340.2z"/>
		<path class="st0" d="M347.8,340.2c0,2.2-1.7,3.9-3.9,3.9c-2.2,0-3.9-1.7-3.9-3.9c0-2.2,1.7-3.9,3.9-3.9
			C346,336.3,347.7,338,347.8,340.2z"/>
		<path class="st0" d="M117.8,379.1c0,2.2-1.7,3.9-3.9,3.9c-2.2,0-3.9-1.7-3.9-3.9c0-2.2,1.7-3.9,3.9-3.9
			C116,375.2,117.7,377,117.8,379.1z"/>
		<path class="st0" d="M68.4,390.9c0,2.2-1.7,3.9-3.9,3.9c-2.2,0-3.9-1.7-3.9-3.9c0-2.2,1.7-3.9,3.9-3.9
			C66.6,387,68.3,388.7,68.4,390.9z"/>
		<path class="st0" d="M103.9,393.5c0,2.2-1.7,3.9-3.9,3.9c-2.2,0-3.9-1.7-3.9-3.9c0-2.2,1.7-3.9,3.9-3.9
			C102.1,389.6,103.9,391.4,103.9,393.5z"/>
		<path class="st0" d="M86.9,370.8c0,2.2-1.7,3.9-3.9,3.9c-2.2,0-3.9-1.7-3.9-3.9c0-2.2,1.7-3.9,3.9-3.9
			C85.1,366.9,86.9,368.6,86.9,370.8z"/>
		<path class="st0" d="M213.1,382.8c0,2.2-1.7,3.9-3.9,3.9c-2.2,0-3.9-1.7-3.9-3.9c0-2.2,1.7-3.9,3.9-3.9
			C211.3,378.9,213,380.6,213.1,382.8z"/>
		<path class="st0" d="M301,393.2c0,2.2-1.7,3.9-3.9,3.9c-2.2,0-3.9-1.7-3.9-3.9c0-2.2,1.7-3.9,3.9-3.9
			C299.2,389.3,301,391,301,393.2z"/>
		<path class="st0" d="M315.8,387.5c0,2.2-1.7,3.9-3.9,3.9c-2.2,0-3.9-1.7-3.9-3.9c0-2.2,1.7-3.9,3.9-3.9
			C314,383.6,315.7,385.3,315.8,387.5z"/>
		<path class="st0" d="M346.6,38c0,2.2-1.7,3.9-3.9,3.9c-2.2,0-3.9-1.7-3.9-3.9c0-2.2,1.7-3.9,3.9-3.9
			C344.9,34.1,346.6,35.8,346.6,38z"/>
		<path class="st0" d="M265.3,24.1c0,2.2-1.7,3.9-3.9,3.9c-2.2,0-3.9-1.7-3.9-3.9c0-2.2,1.7-3.9,3.9-3.9
			C263.5,20.2,265.3,21.9,265.3,24.1z"/>
		<path class="st0" d="M244.5,26.8c0,2.2-1.7,3.9-3.9,3.9c-2.2,0-3.9-1.7-3.9-3.9c0-2.2,1.7-3.9,3.9-3.9
			C242.8,22.9,244.5,24.7,244.5,26.8z"/>
		<path class="st0" d="M262.8,41.3c0,2.2-1.7,3.9-3.9,3.9c-2.2,0-3.9-1.7-3.9-3.9c0-2.2,1.7-3.9,3.9-3.9
			C261,37.4,262.8,39.2,262.8,41.3z"/>
		<path class="st0" d="M252,26.8c0,2.2-1.7,3.9-3.9,3.9c-2.2,0-3.9-1.7-3.9-3.9c0-2.2,1.7-3.9,3.9-3.9C250.2,22.9,252,24.7,252,26.8
			z"/>
		<path class="st0" d="M224.5,16.5c0.1,2.2-1.7,4-3.8,4c-2.2,0.1-4-1.7-4-3.8c-0.1-2.2,1.7-4,3.8-4
			C222.7,12.6,224.5,14.3,224.5,16.5z"/>
		<path class="st0" d="M273,2c0.1,2.2-1.7,4-3.8,4c-2.2,0.1-4-1.7-4-3.8c-0.1-2.2,1.7-4,3.8-4C271.1-1.8,272.9-0.1,273,2z"/>
		<path class="st0" d="M347.8,3.6c0.1,2.2-1.7,4-3.8,4c-2.2,0.1-4-1.7-4-3.8c-0.1-2.2,1.7-4,3.8-4C345.9-0.3,347.7,1.4,347.8,3.6z"
			/>
		<path class="st0" d="M357.1,16.5c0.1,2.2-1.7,4-3.8,4c-2.2,0.1-4-1.7-4-3.8c-0.1-2.2,1.7-4,3.8-4C355.2,12.6,357,14.3,357.1,16.5z
			"/>
		<path class="st0" d="M317.6,169.7c0,2.2-1.7,3.9-3.9,3.9c-2.2,0-3.9-1.7-3.9-3.9c0-2.2,1.7-3.9,3.9-3.9
			C315.8,165.8,317.6,167.5,317.6,169.7z"/>
		<path class="st0" d="M347.8,267.7c0,2.2-1.7,3.9-3.9,3.9c-2.2,0-3.9-1.7-3.9-3.9c0-2.2,1.7-3.9,3.9-3.9
			C346,263.8,347.7,265.6,347.8,267.7z"/>
		<path class="st0" d="M333,260.1c0,2.2-1.7,3.9-3.9,3.9c-2.2,0-3.9-1.7-3.9-3.9c0-2.2,1.7-3.9,3.9-3.9
			C331.2,256.2,333,258,333,260.1z"/>
		<path class="st0" d="M388.2,190.8c0,2.2-1.7,3.9-3.9,3.9c-2.2,0-3.9-1.7-3.9-3.9c0-2.2,1.7-3.9,3.9-3.9
			C386.4,186.9,388.2,188.6,388.2,190.8z"/>
		<path class="st0" d="M43.8,49.8c0,2.2-1.7,3.9-3.9,3.9c-2.2,0-3.9-1.7-3.9-3.9c0-2.2,1.7-3.9,3.9-3.9C42,45.9,43.8,47.6,43.8,49.8
			z"/>
		<path class="st0" d="M322.9,5.7c0,2.2-1.7,3.9-3.9,3.9c-2.2,0-3.9-1.7-3.9-3.9c0-2.2,1.7-3.9,3.9-3.9
			C321.2,1.8,322.9,3.5,322.9,5.7z"/>
		<path class="st0" d="M310,293c0,2.2-1.7,3.9-3.9,3.9c-2.2,0-3.9-1.7-3.9-3.9c0-2.2,1.7-3.9,3.9-3.9C308.2,289.1,310,290.8,310,293
			z"/>
		<path class="st0" d="M307.4,298.7c0,2.2-1.7,3.9-3.9,3.9c-2.2,0-3.9-1.7-3.9-3.9c0-2.2,1.7-3.9,3.9-3.9
			C305.6,294.8,307.4,296.6,307.4,298.7z"/>
		<path class="st0" d="M296.7,137.4c0,2.2-1.7,3.9-3.9,3.9c-2.2,0-3.9-1.7-3.9-3.9c0-2.2,1.7-3.9,3.9-3.9
			C294.9,133.5,296.7,135.2,296.7,137.4z"/>
		<path class="st0" d="M377.5,28c0,2.2-1.7,3.9-3.9,3.9c-2.2,0-3.9-1.7-3.9-3.9c0-2.2,1.7-3.9,3.9-3.9
			C375.8,24.1,377.5,25.9,377.5,28z"/>
		<path class="st0" d="M290.2,41c0,2.2-1.7,3.9-3.9,3.9c-2.2,0-3.9-1.7-3.9-3.9c0-2.2,1.7-3.9,3.9-3.9
			C288.4,37.1,290.2,38.8,290.2,41z"/>
		<path class="st0" d="M354,143.1c0,2.2-1.7,3.9-3.9,3.9c-2.2,0-3.9-1.7-3.9-3.9c0-2.2,1.7-3.9,3.9-3.9
			C352.2,139.2,354,141,354,143.1z"/>
		<path class="st0" d="M324.7,75.7c0,2.2-1.7,3.9-3.9,3.9c-2.2,0-3.9-1.7-3.9-3.9c0-2.2,1.7-3.9,3.9-3.9
			C322.9,71.8,324.7,73.6,324.7,75.7z"/>
		<path class="st0" d="M372.2,122.2c0,2.2-1.7,3.9-3.9,3.9c-2.2,0-3.9-1.7-3.9-3.9c0-2.2,1.7-3.9,3.9-3.9
			C370.4,118.3,372.2,120,372.2,122.2z"/>
		<path class="st0" d="M248.2,24.1c0,2.2-1.7,3.9-3.9,3.9c-2.2,0-3.9-1.7-3.9-3.9c0-2.2,1.7-3.9,3.9-3.9
			C246.4,20.2,248.2,21.9,248.2,24.1z"/>
		<path class="st0" d="M244.3,12.7c0,2.2-1.7,3.9-3.9,3.9c-2.2,0-3.9-1.7-3.9-3.9c0-2.2,1.7-3.9,3.9-3.9
			C242.5,8.8,244.3,10.5,244.3,12.7z"/>
		<path class="st0" d="M49.5,168.8c0,2.2-1.7,3.9-3.9,3.9c-2.2,0-3.9-1.7-3.9-3.9c0-2.2,1.7-3.9,3.9-3.9
			C47.8,164.9,49.5,166.6,49.5,168.8z"/>
		<path class="st0" d="M40.1,91.4c-0.1,2.2-2,3.8-4.1,3.7c-2.2-0.1-3.8-2-3.7-4.1c0.1-2.2,2-3.8,4.1-3.7
			C38.6,87.4,40.2,89.2,40.1,91.4z"/>
		<path class="st0" d="M157.1,37.4c0,2.2-1.7,3.9-3.9,3.9c-2.2,0-3.9-1.7-3.9-3.9c0-2.2,1.7-3.9,3.9-3.9
			C155.3,33.5,157,35.3,157.1,37.4z"/>
		<path class="st0" d="M127.2,11.4c0,2.2-1.7,3.9-3.9,3.9c-2.2,0-3.9-1.7-3.9-3.9c0-2.2,1.7-3.9,3.9-3.9
			C125.4,7.5,127.1,9.3,127.2,11.4z"/>
		<path class="st0" d="M199.3,7.6c0,2.2-1.7,3.9-3.9,3.9c-2.2,0-3.9-1.7-3.9-3.9c0-2.2,1.7-3.9,3.9-3.9
			C197.6,3.7,199.3,5.4,199.3,7.6z"/>
		<path class="st0" d="M138.5,263.5c0,2.2-1.7,3.9-3.9,3.9c-2.2,0-3.9-1.7-3.9-3.9c0-2.2,1.7-3.9,3.9-3.9
			C136.7,259.6,138.5,261.4,138.5,263.5z"/>
		<path class="st0" d="M37,298.9c0,2.2-1.7,3.9-3.9,3.9c-2.2,0-3.9-1.7-3.9-3.9c0-2.2,1.7-3.9,3.9-3.9C35.2,295,36.9,296.7,37,298.9
			z"/>
		<path class="st0" d="M15.9,311.5c0,2.2-1.7,3.9-3.9,3.9c-2.2,0-3.9-1.7-3.9-3.9c0-2.2,1.7-3.9,3.9-3.9
			C14.2,307.6,15.9,309.3,15.9,311.5z"/>
		<path class="st0" d="M25.2,209.6c0,2.2-1.7,3.9-3.9,3.9c-2.2,0-3.9-1.7-3.9-3.9c0-2.2,1.7-3.9,3.9-3.9
			C23.4,205.7,25.2,207.4,25.2,209.6z"/>
		<path class="st0" d="M85.2,272.7c0,2.2-1.7,3.9-3.9,3.9c-2.2,0-3.9-1.7-3.9-3.9c0-2.2,1.7-3.9,3.9-3.9
			C83.4,268.8,85.2,270.6,85.2,272.7z"/>
		<path class="st0" d="M168.9,344.6c0,2.2-1.7,3.9-3.9,3.9c-2.2,0-3.9-1.7-3.9-3.9c0-2.2,1.7-3.9,3.9-3.9
			C167.1,340.7,168.9,342.5,168.9,344.6z"/>
		<path class="st0" d="M275.9,356.6c0,2.2-1.7,3.9-3.9,3.9c-2.2,0-3.9-1.7-3.9-3.9c0-2.2,1.7-3.9,3.9-3.9
			C274.1,352.7,275.9,354.5,275.9,356.6z"/>
		<path class="st0" d="M262.8,358.6c0,2.2-1.7,3.9-3.9,3.9c-2.2,0-3.9-1.7-3.9-3.9c0-2.2,1.7-3.9,3.9-3.9
			C261,354.7,262.8,356.4,262.8,358.6z"/>
		<path class="st0" d="M315.8,310.3c0,2.2-1.7,3.9-3.9,3.9c-2.2,0-3.9-1.7-3.9-3.9c0-2.2,1.7-3.9,3.9-3.9
			C314,306.4,315.7,308.1,315.8,310.3z"/>
		<path class="st0" d="M304.3,317.1c0,2.2-1.7,3.9-3.9,3.9c-2.2,0-3.9-1.7-3.9-3.9c0-2.2,1.7-3.9,3.9-3.9
			C302.5,313.2,304.2,314.9,304.3,317.1z"/>
		<path class="st0" d="M304.3,322.9c0,2.2-1.7,3.9-3.9,3.9c-2.2,0-3.9-1.7-3.9-3.9c0-2.2,1.7-3.9,3.9-3.9
			C302.5,319,304.3,320.7,304.3,322.9z"/>
		<path class="st0" d="M339.8,372.3c0,2.2-1.7,3.9-3.9,3.9c-2.2,0-3.9-1.7-3.9-3.9c0-2.2,1.7-3.9,3.9-3.9
			C338,368.4,339.8,370.2,339.8,372.3z"/>
		<path class="st0" d="M356.1,370.8c0,2.2-1.7,3.9-3.9,3.9c-2.2,0-3.9-1.7-3.9-3.9c0-2.2,1.7-3.9,3.9-3.9
			C354.3,366.9,356,368.6,356.1,370.8z"/>
		<path class="st0" d="M297.1,371.8c0,2.2-1.7,3.9-3.9,3.9c-2.2,0-3.9-1.7-3.9-3.9c0-2.2,1.7-3.9,3.9-3.9
			C295.3,367.9,297.1,369.6,297.1,371.8z"/>
		<path class="st0" d="M277.1,326.5c0,2.2-1.7,3.9-3.9,3.9c-2.2,0-3.9-1.7-3.9-3.9c0-2.2,1.7-3.9,3.9-3.9
			C275.3,322.6,277.1,324.4,277.1,326.5z"/>
		<path class="st0" d="M90.2,302.8c0,2.2-1.7,3.9-3.9,3.9c-2.2,0-3.9-1.7-3.9-3.9c0-2.2,1.7-3.9,3.9-3.9
			C88.5,298.9,90.2,300.6,90.2,302.8z"/>
		<path class="st0" d="M93,304.9c0,1.5-1.2,2.7-2.7,2.7c-1.5,0-2.7-1.2-2.7-2.7c0-1.5,1.2-2.7,2.7-2.7C91.8,302.2,93,303.4,93,304.9
			z"/>
		<path class="st0" d="M371.2,348.1c0,2.2-1.7,3.9-3.9,3.9c-2.2,0-3.9-1.7-3.9-3.9c0-2.2,1.7-3.9,3.9-3.9
			C369.4,344.2,371.2,345.9,371.2,348.1z"/>
		<path class="st0" d="M390.3,305.4c0,2.2-1.7,3.9-3.9,3.9c-2.2,0-3.9-1.7-3.9-3.9c0-2.2,1.7-3.9,3.9-3.9
			C388.5,301.5,390.3,303.2,390.3,305.4z"/>
		<path class="st0" d="M387.6,316.1c0,2.2-1.7,3.9-3.9,3.9c-2.2,0-3.9-1.7-3.9-3.9c0-2.2,1.7-3.9,3.9-3.9
			C385.8,312.2,387.6,314,387.6,316.1z"/>
		<path class="st0" d="M390.5,388.6c0,2.2-1.7,3.9-3.9,3.9c-2.2,0-3.9-1.7-3.9-3.9c0-2.2,1.7-3.9,3.9-3.9
			C388.8,384.7,390.5,386.4,390.5,388.6z"/>
		<path class="st0" d="M396.5,390.9c0,2.2-1.7,3.9-3.9,3.9c-2.2,0-3.9-1.7-3.9-3.9c0-2.2,1.7-3.9,3.9-3.9
			C394.7,387,396.4,388.7,396.5,390.9z"/>
		<path class="st0" d="M332.5,389.3c0,2.2-1.7,3.9-3.9,3.9c-2.2,0-3.9-1.7-3.9-3.9c0-2.2,1.7-3.9,3.9-3.9
			C330.7,385.4,332.5,387.1,332.5,389.3z"/>
		<path class="st0" d="M317.2,343.6c0,2.2-1.7,3.9-3.9,3.9c-2.2,0-3.9-1.7-3.9-3.9c0-2.2,1.7-3.9,3.9-3.9
			C315.4,339.7,317.2,341.4,317.2,343.6z"/>
		<path class="st0" d="M262.8,383c0,2.2-1.7,3.9-3.9,3.9c-2.2,0-3.9-1.7-3.9-3.9c0-2.2,1.7-3.9,3.9-3.9
			C261,379.1,262.8,380.9,262.8,383z"/>
		<path class="st0" d="M186.3,2.1c0,2.2-1.7,3.9-3.9,3.9c-2.2,0-3.9-1.7-3.9-3.9c0-2.2,1.7-3.9,3.9-3.9
			C184.5-1.8,186.3-0.1,186.3,2.1z"/>
		<path class="st0" d="M186,383.5c0,2.2-1.7,3.9-3.9,3.9c-2.2,0-3.9-1.7-3.9-3.9c0-2.2,1.7-3.9,3.9-3.9
			C184.2,379.6,186,381.4,186,383.5z"/>
		<path class="st0" d="M130.8,44.3c0,2.2-1.7,3.9-3.9,3.9c-2.2,0-3.9-1.7-3.9-3.9c0-2.2,1.7-3.9,3.9-3.9
			C129,40.4,130.7,42.1,130.8,44.3z"/>
		<path class="st0" d="M208.3,384.6c0,2.2-1.7,3.9-3.8,4c-2.2,0-3.9-1.7-4-3.8c0-2.2,1.7-3.9,3.8-4
			C206.5,380.7,208.3,382.5,208.3,384.6z"/>
		<path class="st0" d="M208.3,369.3c0,2.2-1.7,3.9-3.8,4c-2.2,0-3.9-1.7-4-3.8c0-2.2,1.7-3.9,3.8-4
			C206.5,365.4,208.3,367.2,208.3,369.3z"/>
		<path class="st0" d="M383.7,303.5c0,2.2-1.7,3.9-3.9,3.9c-2.2,0-3.9-1.7-3.9-3.9c0-2.2,1.7-3.9,3.9-3.9
			C381.9,299.6,383.7,301.4,383.7,303.5z"/>
		<path class="st0" d="M196.1,191.9c0,2.2-1.7,3.9-3.9,3.9c-2.2,0-3.9-1.7-3.9-3.9c0-2.2,1.7-3.9,3.9-3.9
			C194.4,188,196.1,189.7,196.1,191.9z"/>
		<path class="st0" d="M162.6,278.5c0,3.2-2.6,5.7-5.7,5.7c-3.2,0-5.7-2.6-5.7-5.7c0-3.2,2.6-5.7,5.7-5.7
			C160,272.8,162.6,275.3,162.6,278.5z"/>
		<path class="st0" d="M147.7,225.9c0,3.2-2.6,5.7-5.7,5.7c-3.2,0-5.7-2.6-5.7-5.7c0-3.2,2.6-5.7,5.7-5.7
			C145.2,220.1,147.7,222.7,147.7,225.9z"/>
		<path class="st0" d="M151.1,207.5c0,3.2-2.6,5.7-5.7,5.7c-3.2,0-5.7-2.6-5.7-5.7c0-3.2,2.6-5.7,5.7-5.7
			C148.5,201.7,151.1,204.3,151.1,207.5z"/>
		<path class="st0" d="M193.9,72.9c0,3.2-2.6,5.7-5.7,5.7c-3.2,0-5.7-2.6-5.7-5.7c0-3.2,2.6-5.7,5.7-5.7
			C191.3,67.1,193.9,69.7,193.9,72.9z"/>
		<path class="st0" d="M223,48.6c0,3.2-2.6,5.7-5.7,5.7c-3.2,0-5.7-2.6-5.7-5.7c0-3.2,2.6-5.7,5.7-5.7C220.4,42.8,223,45.4,223,48.6
			z"/>
		<path class="st0" d="M224,58c0,3.2-2.6,5.7-5.7,5.7c-3.2,0-5.7-2.6-5.7-5.7c0-3.2,2.6-5.7,5.7-5.7C221.5,52.2,224,54.8,224,58z"/>
		<path class="st0" d="M204.8,72.9c0,3.2-2.6,5.7-5.7,5.7c-3.2,0-5.7-2.6-5.7-5.7c0-3.2,2.6-5.7,5.7-5.7
			C202.3,67.1,204.8,69.7,204.8,72.9z"/>
		<path class="st0" d="M230,78.6c0,3.2-2.6,5.7-5.7,5.7c-3.2,0-5.7-2.6-5.7-5.7c0-3.2,2.6-5.7,5.7-5.7C227.5,72.9,230,75.4,230,78.6
			z"/>
		<path class="st0" d="M234.9,84.4c0,3.2-2.6,5.7-5.7,5.7c-3.2,0-5.7-2.6-5.7-5.7c0-3.2,2.6-5.7,5.7-5.7
			C232.3,78.6,234.9,81.2,234.9,84.4z"/>
		<path class="st0" d="M300.5,114.4c0,3.2-2.6,5.7-5.7,5.7c-3.2,0-5.7-2.6-5.7-5.7c0-3.2,2.6-5.7,5.7-5.7
			C297.9,108.6,300.5,111.2,300.5,114.4z"/>
		<path class="st0" d="M295,143.2c0,3.2-2.6,5.7-5.7,5.7c-3.2,0-5.7-2.6-5.7-5.7c0-3.2,2.6-5.7,5.7-5.7
			C292.4,137.4,295,140,295,143.2z"/>
		<path class="st0" d="M259.4,129c0,3.2-2.6,5.7-5.7,5.7c-3.2,0-5.7-2.6-5.7-5.7c0-3.2,2.6-5.7,5.7-5.7
			C256.9,123.3,259.4,125.9,259.4,129z"/>
		<path class="st0" d="M255.2,108.9c0,3.2-2.6,5.7-5.7,5.7c-3.2,0-5.7-2.6-5.7-5.7c0-3.2,2.6-5.7,5.7-5.7
			C252.6,103.1,255.2,105.7,255.2,108.9z"/>
		<path class="st0" d="M327.2,95.5c0,3.2-2.6,5.7-5.7,5.7c-3.2,0-5.7-2.6-5.7-5.7c0-3.2,2.6-5.7,5.7-5.7
			C324.7,89.8,327.2,92.4,327.2,95.5z"/>
		<path class="st0" d="M306.1,52.2c0,3.2-2.6,5.7-5.7,5.7c-3.2,0-5.7-2.6-5.7-5.7c0-3.2,2.6-5.7,5.7-5.7
			C303.5,46.5,306.1,49,306.1,52.2z"/>
		<path class="st0" d="M300.4,26c0,3.2-2.6,5.7-5.7,5.7c-3.2,0-5.7-2.6-5.7-5.7s2.6-5.7,5.7-5.7C297.8,20.2,300.4,22.8,300.4,26z"/>
		<path class="st0" d="M261.9,17.2c0,3.2-2.6,5.7-5.7,5.7c-3.2,0-5.7-2.6-5.7-5.7s2.6-5.7,5.7-5.7C259.4,11.5,261.9,14,261.9,17.2z"
			/>
		<path class="st0" d="M353.1,20.2c0,3.2-2.6,5.7-5.7,5.7c-3.2,0-5.7-2.6-5.7-5.7c0-3.2,2.6-5.7,5.7-5.7
			C350.6,14.5,353.1,17.1,353.1,20.2z"/>
		<path class="st0" d="M381.9,89.8c0,3.2-2.6,5.7-5.7,5.7c-3.2,0-5.7-2.6-5.7-5.7c0-3.2,2.6-5.7,5.7-5.7
			C379.3,84.1,381.9,86.6,381.9,89.8z"/>
		<path class="st0" d="M399.2,42.8c0,3.2-2.6,5.7-5.7,5.7c-3.2,0-5.7-2.6-5.7-5.7c0-3.2,2.6-5.7,5.7-5.7
			C396.7,37.1,399.2,39.6,399.2,42.8z"/>
		<path class="st0" d="M179.3,39.2c0,3.2-2.6,5.7-5.7,5.7c-3.2,0-5.7-2.6-5.7-5.7c0-3.2,2.6-5.7,5.7-5.7
			C176.8,33.4,179.3,36,179.3,39.2z"/>
		<path class="st0" d="M147.7,37.5c0,3.2-2.6,5.7-5.7,5.7c-3.2,0-5.7-2.6-5.7-5.7c0-3.2,2.6-5.7,5.7-5.7
			C145.2,31.7,147.7,34.3,147.7,37.5z"/>
		<path class="st0" d="M147.7,60.6c0,3.2-2.6,5.7-5.7,5.7c-3.2,0-5.7-2.6-5.7-5.7c0-3.2,2.6-5.7,5.7-5.7
			C145.2,54.8,147.7,57.4,147.7,60.6z"/>
		<path class="st0" d="M83.1,37.5c0,3.2-2.6,5.7-5.7,5.7c-3.2,0-5.7-2.6-5.7-5.7c0-3.2,2.6-5.7,5.7-5.7
			C80.6,31.7,83.1,34.3,83.1,37.5z"/>
		<path class="st0" d="M61.8,35.2c0,3.2-2.6,5.7-5.7,5.7c-3.2,0-5.7-2.6-5.7-5.7c0-3.2,2.6-5.7,5.7-5.7
			C59.2,29.5,61.8,32.1,61.8,35.2z"/>
		<path class="st0" d="M77.4,54.8c0,3.2-2.6,5.7-5.7,5.7c-3.2,0-5.7-2.6-5.7-5.7c0-3.2,2.6-5.7,5.7-5.7
			C74.8,49.1,77.4,51.7,77.4,54.8z"/>
		<path class="st0" d="M322.6,366.1c0,3.2-2.6,5.7-5.7,5.7c-3.2,0-5.7-2.6-5.7-5.7c0-3.2,2.6-5.7,5.7-5.7
			C320,360.3,322.6,362.9,322.6,366.1z"/>
		<path class="st0" d="M60.8,3.7c0,3.2-2.6,5.7-5.7,5.7s-5.7-2.6-5.7-5.7C49.3,0.5,51.9-2,55-2S60.8,0.5,60.8,3.7z"/>
		<path class="st0" d="M51.4,120.1c0,3.2-2.6,5.7-5.7,5.7c-3.2,0-5.7-2.6-5.7-5.7c0-3.2,2.6-5.7,5.7-5.7
			C48.8,114.4,51.4,116.9,51.4,120.1z"/>
		<path class="st0" d="M70.9,124.9c0,3.2-2.6,5.7-5.7,5.7c-3.2,0-5.7-2.6-5.7-5.7c0-3.2,2.6-5.7,5.7-5.7
			C68.3,119.1,70.9,121.7,70.9,124.9z"/>
		<path class="st0" d="M78.7,102.9c0,3.2-2.6,5.7-5.7,5.7c-3.2,0-5.7-2.6-5.7-5.7c0-3.2,2.6-5.7,5.7-5.7
			C76.2,97.1,78.7,99.7,78.7,102.9z"/>
		<path class="st0" d="M90.7,115.5c0,3.2-2.6,5.7-5.7,5.7c-3.2,0-5.7-2.6-5.7-5.7c0-3.2,2.6-5.7,5.7-5.7
			C88.1,109.7,90.7,112.3,90.7,115.5z"/>
		<path class="st0" d="M134.7,108.6c0,3.2-2.6,5.7-5.7,5.7c-3.2,0-5.7-2.6-5.7-5.7c0-3.2,2.6-5.7,5.7-5.7
			C132.1,102.9,134.7,105.4,134.7,108.6z"/>
		<path class="st0" d="M138.3,81.5c0,3.2-2.6,5.7-5.7,5.7c-3.2,0-5.7-2.6-5.7-5.7c0-3.2,2.6-5.7,5.7-5.7
			C135.8,75.7,138.3,78.3,138.3,81.5z"/>
		<path class="st0" d="M28-1.1c0,3.2-2.6,5.7-5.7,5.7c-3.2,0-5.7-2.6-5.7-5.7c0-3.2,2.6-5.7,5.7-5.7C25.4-6.9,28-4.3,28-1.1z"/>
		<path class="st0" d="M130.4,3.1c0,3.2-2.6,5.7-5.7,5.7c-3.2,0-5.7-2.6-5.7-5.7c0-3.2,2.6-5.7,5.7-5.7
			C127.8-2.7,130.4-0.1,130.4,3.1z"/>
		
			<ellipse transform="matrix(0.1602 -0.9871 0.9871 0.1602 -214.6532 548.2932)" class="st0" cx="214.9" cy="400.3" rx="9.4" ry="9.4"/>
		
			<ellipse transform="matrix(0.1602 -0.9871 0.9871 0.1602 -152.4342 621.423)" class="st0" cx="289" cy="400.3" rx="9.4" ry="9.4"/>
		<path class="st0" d="M70.2,400.3c0,3.8-3.1,6.9-6.9,6.9c-3.8,0-6.9-3.1-6.9-6.9c0-3.8,3.1-6.9,6.9-6.9
			C67.1,393.4,70.2,396.5,70.2,400.3z"/>
		<path class="st0" d="M282.8,405.7c0,3.8-3.1,6.9-6.9,6.9c-3.8,0-6.9-3.1-6.9-6.9c0-3.8,3.1-6.9,6.9-6.9
			C279.7,398.9,282.8,401.9,282.8,405.7z"/>
		<path class="st0" d="M360,402.1c0,3.8-3.1,6.9-6.9,6.9c-3.8,0-6.9-3.1-6.9-6.9s3.1-6.9,6.9-6.9C356.9,395.3,360,398.3,360,402.1z"
			/>
		<path class="st0" d="M100,400.3c0,3.8-3.1,6.9-6.9,6.9c-3.8,0-6.9-3.1-6.9-6.9c0-3.8,3.1-6.9,6.9-6.9
			C96.9,393.4,100,396.5,100,400.3z"/>
		<path class="st0" d="M384.3,404.7c0,3.8-3.1,6.9-6.9,6.9c-3.8,0-6.9-3.1-6.9-6.9c0-3.8,3.1-6.9,6.9-6.9
			C381.2,397.8,384.3,400.9,384.3,404.7z"/>
		<path class="st0" d="M244.8,404.7c0,3.8-3.1,6.9-6.9,6.9c-3.8,0-6.9-3.1-6.9-6.9c0-3.8,3.1-6.9,6.9-6.9
			C241.8,397.8,244.8,400.9,244.8,404.7z"/>
		<path class="st0" d="M396.5,402.1c0,1.7-1.4,3-3,3c-1.7,0-3-1.4-3-3c0-1.7,1.4-3,3-3C395.2,399.1,396.5,400.5,396.5,402.1z"/>
		<path class="st0" d="M273,402c0.1,2.2-1.7,4-3.8,4c-2.2,0.1-4-1.7-4-3.8c-0.1-2.2,1.7-4,3.8-4C271.1,398.2,272.9,399.9,273,402z"
			/>
		<path class="st0" d="M347.8,403.6c0.1,2.2-1.7,4-3.8,4c-2.2,0.1-4-1.7-4-3.8c-0.1-2.2,1.7-4,3.8-4
			C345.9,399.7,347.7,401.4,347.8,403.6z"/>
		<path class="st0" d="M186.3,402.1c0,2.2-1.7,3.9-3.9,3.9c-2.2,0-3.9-1.7-3.9-3.9c0-2.2,1.7-3.9,3.9-3.9
			C184.5,398.2,186.3,399.9,186.3,402.1z"/>
		<path class="st0" d="M60.8,403.7c0,3.2-2.6,5.7-5.7,5.7s-5.7-2.6-5.7-5.7c0-3.2,2.6-5.7,5.7-5.7S60.8,400.5,60.8,403.7z"/>
		<path class="st0" d="M28,398.9c0,3.2-2.6,5.7-5.7,5.7c-3.2,0-5.7-2.6-5.7-5.7c0-3.2,2.6-5.7,5.7-5.7C25.4,393.1,28,395.7,28,398.9
			z"/>
		<path class="st0" d="M130.4,403.1c0,3.2-2.6,5.7-5.7,5.7c-3.2,0-5.7-2.6-5.7-5.7c0-3.2,2.6-5.7,5.7-5.7
			C127.8,397.3,130.4,399.9,130.4,403.1z"/>
		<path class="st0" d="M287.1,164.9c0,3.2-2.6,5.7-5.7,5.7c-3.2,0-5.7-2.6-5.7-5.7c0-3.2,2.6-5.7,5.7-5.7
			C284.6,159.1,287.1,161.7,287.1,164.9z"/>
		<path class="st0" d="M88.1,23c0,3.2-2.6,5.7-5.7,5.7c-3.2,0-5.7-2.6-5.7-5.7c0-3.2,2.6-5.7,5.7-5.7C85.5,17.2,88.1,19.8,88.1,23z"
			/>
		<path class="st0" d="M97.8,48.6c0,3.2-2.6,5.7-5.7,5.7s-5.7-2.6-5.7-5.7c0-3.2,2.6-5.7,5.7-5.7S97.8,45.4,97.8,48.6z"/>
		<path class="st0" d="M61.8,75.7c0,3.2-2.6,5.7-5.7,5.7c-3.2,0-5.7-2.6-5.7-5.7c0-3.2,2.6-5.7,5.7-5.7C59.2,70,61.8,72.6,61.8,75.7
			z"/>
		<path class="st0" d="M56.1,72.9c0,3.2-2.6,5.7-5.7,5.7c-3.2,0-5.7-2.6-5.7-5.7c0-3.2,2.6-5.7,5.7-5.7
			C53.5,67.1,56.1,69.7,56.1,72.9z"/>
		<path class="st0" d="M21.1,58c0,3.2-2.6,5.7-5.7,5.7c-3.2,0-5.7-2.6-5.7-5.7c0-3.2,2.6-5.7,5.7-5.7C18.6,52.2,21.1,54.8,21.1,58z"
			/>
		<path class="st0" d="M26.9,26c0,3.2-2.6,5.7-5.7,5.7c-3.2,0-5.7-2.6-5.7-5.7s2.6-5.7,5.7-5.7C24.3,20.2,26.9,22.8,26.9,26z"/>
		<path class="st0" d="M183,138.5c0,3.2-2.6,5.7-5.7,5.7c-3.2,0-5.7-2.6-5.7-5.7c0-3.2,2.6-5.7,5.7-5.7
			C180.4,132.7,183,135.3,183,138.5z"/>
		<path class="st0" d="M119.6,38c0,3.2-2.6,5.7-5.7,5.7c-3.2,0-5.7-2.6-5.7-5.7s2.6-5.7,5.7-5.7C117,32.3,119.6,34.9,119.6,38z"/>
	</g>
</g>
</svg>
