<?xml version="1.0" encoding="utf-8"?>
<!-- Generator: Adobe Illustrator 22.1.0, SVG Export Plug-In . SVG Version: 6.00 Build 0)  -->
<svg version="1.1" id="Layer_1" xmlns="http://www.w3.org/2000/svg" xmlns:xlink="http://www.w3.org/1999/xlink" x="0px" y="0px"
	 viewBox="0 0 400 400" style="enable-background:new 0 0 400 400;" xml:space="preserve">
<style type="text/css">
	.st0{opacity:0.5;clip-path:url(#SVGID_2_);}
	.st1{opacity:0.28;fill:#AFAEAF;}
	.st2{clip-path:url(#SVGID_2_);}
	.st3{clip-path:url(#SVGID_3_);fill:#FF6F69;}
	.st4{clip-path:url(#SVGID_3_);fill:#9B809A;}
	.st5{clip-path:url(#SVGID_3_);fill:#FFCC5C;}
	.st6{clip-path:url(#SVGID_3_);fill:#96CEB4;}
</style>
<g>
	<g>
		<defs>
			<rect id="SVGID_1_" width="400" height="400"/>
		</defs>
		<use xlink:href="#SVGID_1_"  style="overflow:visible;fill:#FFEEAD;"/>
		<clipPath id="SVGID_2_">
			<use xlink:href="#SVGID_1_"  style="overflow:visible;"/>
		</clipPath>
		<g class="st0">
			<g>
				<path class="st1" d="M139.3,63.9c0,0.8-0.7,1.5-1.5,1.5c-0.8,0-1.5-0.7-1.5-1.5c0-0.8,0.7-1.5,1.5-1.5
					C138.6,62.5,139.3,63.1,139.3,63.9z"/>
				<path class="st1" d="M139.3,70.2c0,0.8-0.7,1.5-1.5,1.5c-0.8,0-1.5-0.7-1.5-1.5c0-0.8,0.7-1.5,1.5-1.5
					C138.6,68.8,139.3,69.4,139.3,70.2z"/>
				<path class="st1" d="M139.3,76.6c0,0.8-0.7,1.5-1.5,1.5c-0.8,0-1.5-0.7-1.5-1.5c0-0.8,0.7-1.5,1.5-1.5
					C138.6,75.1,139.3,75.7,139.3,76.6z"/>
				<path class="st1" d="M139.3,82.9c0,0.8-0.7,1.5-1.5,1.5c-0.8,0-1.5-0.7-1.5-1.5c0-0.8,0.7-1.5,1.5-1.5
					C138.6,81.4,139.3,82,139.3,82.9z"/>
				<path class="st1" d="M139.3,89.2c0,0.8-0.7,1.5-1.5,1.5c-0.8,0-1.5-0.7-1.5-1.5c0-0.8,0.7-1.5,1.5-1.5
					C138.6,87.7,139.3,88.4,139.3,89.2z"/>
				<path class="st1" d="M139.3,95.5c0,0.8-0.7,1.5-1.5,1.5c-0.8,0-1.5-0.7-1.5-1.5c0-0.8,0.7-1.5,1.5-1.5
					C138.6,94,139.3,94.7,139.3,95.5z"/>
				<path class="st1" d="M139.3,101.8c0,0.8-0.7,1.5-1.5,1.5c-0.8,0-1.5-0.7-1.5-1.5c0-0.8,0.7-1.5,1.5-1.5
					C138.6,100.3,139.3,101,139.3,101.8z"/>
				<path class="st1" d="M139.3,108.1c0,0.8-0.7,1.5-1.5,1.5c-0.8,0-1.5-0.7-1.5-1.5c0-0.8,0.7-1.5,1.5-1.5
					C138.6,106.6,139.3,107.3,139.3,108.1z"/>
				<path class="st1" d="M145,63.9c0,0.8-0.7,1.5-1.5,1.5c-0.8,0-1.5-0.7-1.5-1.5c0-0.8,0.7-1.5,1.5-1.5
					C144.3,62.5,145,63.1,145,63.9z"/>
				<path class="st1" d="M145,70.2c0,0.8-0.7,1.5-1.5,1.5c-0.8,0-1.5-0.7-1.5-1.5c0-0.8,0.7-1.5,1.5-1.5
					C144.3,68.8,145,69.4,145,70.2z"/>
				<path class="st1" d="M145,76.6c0,0.8-0.7,1.5-1.5,1.5c-0.8,0-1.5-0.7-1.5-1.5c0-0.8,0.7-1.5,1.5-1.5
					C144.3,75.1,145,75.7,145,76.6z"/>
				<path class="st1" d="M145,82.9c0,0.8-0.7,1.5-1.5,1.5c-0.8,0-1.5-0.7-1.5-1.5c0-0.8,0.7-1.5,1.5-1.5C144.3,81.4,145,82,145,82.9
					z"/>
				<path class="st1" d="M145,89.2c0,0.8-0.7,1.5-1.5,1.5c-0.8,0-1.5-0.7-1.5-1.5c0-0.8,0.7-1.5,1.5-1.5
					C144.3,87.7,145,88.4,145,89.2z"/>
				<path class="st1" d="M145,95.5c0,0.8-0.7,1.5-1.5,1.5c-0.8,0-1.5-0.7-1.5-1.5c0-0.8,0.7-1.5,1.5-1.5C144.3,94,145,94.7,145,95.5
					z"/>
				<path class="st1" d="M145,101.8c0,0.8-0.7,1.5-1.5,1.5c-0.8,0-1.5-0.7-1.5-1.5c0-0.8,0.7-1.5,1.5-1.5
					C144.3,100.3,145,101,145,101.8z"/>
				<path class="st1" d="M145,108.1c0,0.8-0.7,1.5-1.5,1.5c-0.8,0-1.5-0.7-1.5-1.5c0-0.8,0.7-1.5,1.5-1.5
					C144.3,106.6,145,107.3,145,108.1z"/>
				<path class="st1" d="M145,114.4c0,0.8-0.7,1.5-1.5,1.5c-0.8,0-1.5-0.7-1.5-1.5c0-0.8,0.7-1.5,1.5-1.5
					C144.3,112.9,145,113.6,145,114.4z"/>
				<path class="st1" d="M150.7,63.9c0,0.8-0.7,1.5-1.5,1.5s-1.5-0.7-1.5-1.5c0-0.8,0.7-1.5,1.5-1.5S150.7,63.1,150.7,63.9z"/>
				<path class="st1" d="M150.7,70.2c0,0.8-0.7,1.5-1.5,1.5s-1.5-0.7-1.5-1.5c0-0.8,0.7-1.5,1.5-1.5S150.7,69.4,150.7,70.2z"/>
				<path class="st1" d="M150.7,76.6c0,0.8-0.7,1.5-1.5,1.5s-1.5-0.7-1.5-1.5c0-0.8,0.7-1.5,1.5-1.5S150.7,75.7,150.7,76.6z"/>
				<path class="st1" d="M150.7,82.9c0,0.8-0.7,1.5-1.5,1.5s-1.5-0.7-1.5-1.5c0-0.8,0.7-1.5,1.5-1.5S150.7,82,150.7,82.9z"/>
				<path class="st1" d="M150.7,89.2c0,0.8-0.7,1.5-1.5,1.5s-1.5-0.7-1.5-1.5c0-0.8,0.7-1.5,1.5-1.5S150.7,88.4,150.7,89.2z"/>
				<path class="st1" d="M150.7,95.5c0,0.8-0.7,1.5-1.5,1.5s-1.5-0.7-1.5-1.5c0-0.8,0.7-1.5,1.5-1.5S150.7,94.7,150.7,95.5z"/>
				<path class="st1" d="M150.7,101.8c0,0.8-0.7,1.5-1.5,1.5s-1.5-0.7-1.5-1.5c0-0.8,0.7-1.5,1.5-1.5S150.7,101,150.7,101.8z"/>
				<path class="st1" d="M150.7,108.1c0,0.8-0.7,1.5-1.5,1.5s-1.5-0.7-1.5-1.5c0-0.8,0.7-1.5,1.5-1.5S150.7,107.3,150.7,108.1z"/>
				<path class="st1" d="M150.7,114.4c0,0.8-0.7,1.5-1.5,1.5s-1.5-0.7-1.5-1.5c0-0.8,0.7-1.5,1.5-1.5S150.7,113.6,150.7,114.4z"/>
				<path class="st1" d="M150.7,120.7c0,0.8-0.7,1.5-1.5,1.5s-1.5-0.7-1.5-1.5s0.7-1.5,1.5-1.5S150.7,119.9,150.7,120.7z"/>
				<path class="st1" d="M156.4,63.9c0,0.8-0.7,1.5-1.5,1.5s-1.5-0.7-1.5-1.5c0-0.8,0.7-1.5,1.5-1.5S156.4,63.1,156.4,63.9z"/>
				<path class="st1" d="M156.4,70.2c0,0.8-0.7,1.5-1.5,1.5s-1.5-0.7-1.5-1.5c0-0.8,0.7-1.5,1.5-1.5S156.4,69.4,156.4,70.2z"/>
				<path class="st1" d="M156.4,76.6c0,0.8-0.7,1.5-1.5,1.5s-1.5-0.7-1.5-1.5c0-0.8,0.7-1.5,1.5-1.5S156.4,75.7,156.4,76.6z"/>
				<path class="st1" d="M156.4,82.9c0,0.8-0.7,1.5-1.5,1.5s-1.5-0.7-1.5-1.5c0-0.8,0.7-1.5,1.5-1.5S156.4,82,156.4,82.9z"/>
				<path class="st1" d="M156.4,89.2c0,0.8-0.7,1.5-1.5,1.5s-1.5-0.7-1.5-1.5c0-0.8,0.7-1.5,1.5-1.5S156.4,88.4,156.4,89.2z"/>
				<circle class="st1" cx="154.9" cy="95.5" r="1.5"/>
				<circle class="st1" cx="154.9" cy="101.8" r="1.5"/>
				<path class="st1" d="M156.4,108.1c0,0.8-0.7,1.5-1.5,1.5s-1.5-0.7-1.5-1.5c0-0.8,0.7-1.5,1.5-1.5S156.4,107.3,156.4,108.1z"/>
				<path class="st1" d="M156.4,114.4c0,0.8-0.7,1.5-1.5,1.5s-1.5-0.7-1.5-1.5c0-0.8,0.7-1.5,1.5-1.5S156.4,113.6,156.4,114.4z"/>
				<circle class="st1" cx="154.9" cy="120.7" r="1.5"/>
				<circle class="st1" cx="154.9" cy="127" r="1.5"/>
				<path class="st1" d="M162.1,63.9c0,0.8-0.7,1.5-1.5,1.5c-0.8,0-1.5-0.7-1.5-1.5c0-0.8,0.7-1.5,1.5-1.5
					C161.4,62.5,162.1,63.1,162.1,63.9z"/>
				<path class="st1" d="M162.1,70.2c0,0.8-0.7,1.5-1.5,1.5c-0.8,0-1.5-0.7-1.5-1.5c0-0.8,0.7-1.5,1.5-1.5
					C161.4,68.8,162.1,69.4,162.1,70.2z"/>
				<path class="st1" d="M162.1,76.6c0,0.8-0.7,1.5-1.5,1.5c-0.8,0-1.5-0.7-1.5-1.5c0-0.8,0.7-1.5,1.5-1.5
					C161.4,75.1,162.1,75.7,162.1,76.6z"/>
				<path class="st1" d="M162.1,82.9c0,0.8-0.7,1.5-1.5,1.5c-0.8,0-1.5-0.7-1.5-1.5c0-0.8,0.7-1.5,1.5-1.5
					C161.4,81.4,162.1,82,162.1,82.9z"/>
				<path class="st1" d="M162.1,89.2c0,0.8-0.7,1.5-1.5,1.5c-0.8,0-1.5-0.7-1.5-1.5c0-0.8,0.7-1.5,1.5-1.5
					C161.4,87.7,162.1,88.4,162.1,89.2z"/>
				<circle class="st1" cx="160.6" cy="95.5" r="1.5"/>
				<circle class="st1" cx="160.6" cy="101.8" r="1.5"/>
				<path class="st1" d="M162.1,108.1c0,0.8-0.7,1.5-1.5,1.5c-0.8,0-1.5-0.7-1.5-1.5c0-0.8,0.7-1.5,1.5-1.5
					C161.4,106.6,162.1,107.3,162.1,108.1z"/>
				<path class="st1" d="M162.1,114.4c0,0.8-0.7,1.5-1.5,1.5c-0.8,0-1.5-0.7-1.5-1.5c0-0.8,0.7-1.5,1.5-1.5
					C161.4,112.9,162.1,113.6,162.1,114.4z"/>
				<circle class="st1" cx="160.6" cy="120.7" r="1.5"/>
				<circle class="st1" cx="160.6" cy="127" r="1.5"/>
				<path class="st1" d="M162.1,133.3c0,0.8-0.7,1.5-1.5,1.5c-0.8,0-1.5-0.7-1.5-1.5c0-0.8,0.7-1.5,1.5-1.5
					C161.4,131.8,162.1,132.5,162.1,133.3z"/>
				<path class="st1" d="M167.8,63.9c0,0.8-0.7,1.5-1.5,1.5c-0.8,0-1.5-0.7-1.5-1.5c0-0.8,0.7-1.5,1.5-1.5
					C167.1,62.5,167.8,63.1,167.8,63.9z"/>
				<path class="st1" d="M167.8,70.2c0,0.8-0.7,1.5-1.5,1.5c-0.8,0-1.5-0.7-1.5-1.5c0-0.8,0.7-1.5,1.5-1.5
					C167.1,68.8,167.8,69.4,167.8,70.2z"/>
				<path class="st1" d="M167.8,76.6c0,0.8-0.7,1.5-1.5,1.5c-0.8,0-1.5-0.7-1.5-1.5c0-0.8,0.7-1.5,1.5-1.5
					C167.1,75.1,167.8,75.7,167.8,76.6z"/>
				<path class="st1" d="M167.8,82.9c0,0.8-0.7,1.5-1.5,1.5c-0.8,0-1.5-0.7-1.5-1.5c0-0.8,0.7-1.5,1.5-1.5
					C167.1,81.4,167.8,82,167.8,82.9z"/>
				<path class="st1" d="M167.8,89.2c0,0.8-0.7,1.5-1.5,1.5c-0.8,0-1.5-0.7-1.5-1.5c0-0.8,0.7-1.5,1.5-1.5
					C167.1,87.7,167.8,88.4,167.8,89.2z"/>
				<path class="st1" d="M167.8,95.5c0,0.8-0.7,1.5-1.5,1.5c-0.8,0-1.5-0.7-1.5-1.5c0-0.8,0.7-1.5,1.5-1.5
					C167.1,94,167.8,94.7,167.8,95.5z"/>
				<path class="st1" d="M167.8,101.8c0,0.8-0.7,1.5-1.5,1.5c-0.8,0-1.5-0.7-1.5-1.5c0-0.8,0.7-1.5,1.5-1.5
					C167.1,100.3,167.8,101,167.8,101.8z"/>
				<path class="st1" d="M167.8,108.1c0,0.8-0.7,1.5-1.5,1.5c-0.8,0-1.5-0.7-1.5-1.5c0-0.8,0.7-1.5,1.5-1.5
					C167.1,106.6,167.8,107.3,167.8,108.1z"/>
				<path class="st1" d="M167.8,114.4c0,0.8-0.7,1.5-1.5,1.5c-0.8,0-1.5-0.7-1.5-1.5c0-0.8,0.7-1.5,1.5-1.5
					C167.1,112.9,167.8,113.6,167.8,114.4z"/>
				<path class="st1" d="M167.8,120.7c0,0.8-0.7,1.5-1.5,1.5c-0.8,0-1.5-0.7-1.5-1.5s0.7-1.5,1.5-1.5
					C167.1,119.2,167.8,119.9,167.8,120.7z"/>
				<path class="st1" d="M167.8,127c0,0.8-0.7,1.5-1.5,1.5c-0.8,0-1.5-0.7-1.5-1.5c0-0.8,0.7-1.5,1.5-1.5
					C167.1,125.5,167.8,126.2,167.8,127z"/>
				<path class="st1" d="M167.8,133.3c0,0.8-0.7,1.5-1.5,1.5c-0.8,0-1.5-0.7-1.5-1.5c0-0.8,0.7-1.5,1.5-1.5
					C167.1,131.8,167.8,132.5,167.8,133.3z"/>
				<path class="st1" d="M167.8,139.6c0,0.8-0.7,1.5-1.5,1.5c-0.8,0-1.5-0.7-1.5-1.5c0-0.8,0.7-1.5,1.5-1.5
					C167.1,138.2,167.8,138.8,167.8,139.6z"/>
				<path class="st1" d="M173.4,63.9c0,0.8-0.7,1.5-1.5,1.5c-0.8,0-1.5-0.7-1.5-1.5c0-0.8,0.7-1.5,1.5-1.5
					C172.8,62.5,173.4,63.1,173.4,63.9z"/>
				<path class="st1" d="M173.4,70.2c0,0.8-0.7,1.5-1.5,1.5c-0.8,0-1.5-0.7-1.5-1.5c0-0.8,0.7-1.5,1.5-1.5
					C172.8,68.8,173.4,69.4,173.4,70.2z"/>
				<path class="st1" d="M173.4,76.6c0,0.8-0.7,1.5-1.5,1.5c-0.8,0-1.5-0.7-1.5-1.5c0-0.8,0.7-1.5,1.5-1.5
					C172.8,75.1,173.4,75.7,173.4,76.6z"/>
				<path class="st1" d="M173.4,82.9c0,0.8-0.7,1.5-1.5,1.5c-0.8,0-1.5-0.7-1.5-1.5c0-0.8,0.7-1.5,1.5-1.5
					C172.8,81.4,173.4,82,173.4,82.9z"/>
				<path class="st1" d="M173.4,89.2c0,0.8-0.7,1.5-1.5,1.5c-0.8,0-1.5-0.7-1.5-1.5c0-0.8,0.7-1.5,1.5-1.5
					C172.8,87.7,173.4,88.4,173.4,89.2z"/>
				<path class="st1" d="M173.4,95.5c0,0.8-0.7,1.5-1.5,1.5c-0.8,0-1.5-0.7-1.5-1.5c0-0.8,0.7-1.5,1.5-1.5
					C172.8,94,173.4,94.7,173.4,95.5z"/>
				<path class="st1" d="M173.4,101.8c0,0.8-0.7,1.5-1.5,1.5c-0.8,0-1.5-0.7-1.5-1.5c0-0.8,0.7-1.5,1.5-1.5
					C172.8,100.3,173.4,101,173.4,101.8z"/>
				<path class="st1" d="M173.4,108.1c0,0.8-0.7,1.5-1.5,1.5c-0.8,0-1.5-0.7-1.5-1.5c0-0.8,0.7-1.5,1.5-1.5
					C172.8,106.6,173.4,107.3,173.4,108.1z"/>
				<path class="st1" d="M173.4,114.4c0,0.8-0.7,1.5-1.5,1.5c-0.8,0-1.5-0.7-1.5-1.5c0-0.8,0.7-1.5,1.5-1.5
					C172.8,112.9,173.4,113.6,173.4,114.4z"/>
				<path class="st1" d="M173.4,120.7c0,0.8-0.7,1.5-1.5,1.5c-0.8,0-1.5-0.7-1.5-1.5s0.7-1.5,1.5-1.5
					C172.8,119.2,173.4,119.9,173.4,120.7z"/>
				<path class="st1" d="M173.4,127c0,0.8-0.7,1.5-1.5,1.5c-0.8,0-1.5-0.7-1.5-1.5c0-0.8,0.7-1.5,1.5-1.5
					C172.8,125.5,173.4,126.2,173.4,127z"/>
				<path class="st1" d="M173.4,133.3c0,0.8-0.7,1.5-1.5,1.5c-0.8,0-1.5-0.7-1.5-1.5c0-0.8,0.7-1.5,1.5-1.5
					C172.8,131.8,173.4,132.5,173.4,133.3z"/>
				<path class="st1" d="M173.4,139.6c0,0.8-0.7,1.5-1.5,1.5c-0.8,0-1.5-0.7-1.5-1.5c0-0.8,0.7-1.5,1.5-1.5
					C172.8,138.2,173.4,138.8,173.4,139.6z"/>
				<path class="st1" d="M173.4,145.9c0,0.8-0.7,1.5-1.5,1.5c-0.8,0-1.5-0.7-1.5-1.5c0-0.8,0.7-1.5,1.5-1.5
					C172.8,144.5,173.4,145.1,173.4,145.9z"/>
			</g>
			<g>
				<path class="st1" d="M170.5,57.6c0-0.8,0.7-1.5,1.5-1.5c0.8,0,1.5,0.7,1.5,1.5c0,0.8-0.7,1.5-1.5,1.5
					C171.2,59.1,170.5,58.4,170.5,57.6z"/>
				<path class="st1" d="M170.5,51.3c0-0.8,0.7-1.5,1.5-1.5c0.8,0,1.5,0.7,1.5,1.5c0,0.8-0.7,1.5-1.5,1.5
					C171.2,52.8,170.5,52.1,170.5,51.3z"/>
				<path class="st1" d="M170.5,45c0-0.8,0.7-1.5,1.5-1.5c0.8,0,1.5,0.7,1.5,1.5c0,0.8-0.7,1.5-1.5,1.5
					C171.2,46.5,170.5,45.8,170.5,45z"/>
				<path class="st1" d="M170.5,38.7c0-0.8,0.7-1.5,1.5-1.5c0.8,0,1.5,0.7,1.5,1.5c0,0.8-0.7,1.5-1.5,1.5
					C171.2,40.2,170.5,39.5,170.5,38.7z"/>
				<path class="st1" d="M170.5,32.4c0-0.8,0.7-1.5,1.5-1.5c0.8,0,1.5,0.7,1.5,1.5c0,0.8-0.7,1.5-1.5,1.5
					C171.2,33.9,170.5,33.2,170.5,32.4z"/>
				<path class="st1" d="M170.5,26.1c0-0.8,0.7-1.5,1.5-1.5c0.8,0,1.5,0.7,1.5,1.5c0,0.8-0.7,1.5-1.5,1.5
					C171.2,27.6,170.5,26.9,170.5,26.1z"/>
				<path class="st1" d="M170.5,19.8c0-0.8,0.7-1.5,1.5-1.5c0.8,0,1.5,0.7,1.5,1.5c0,0.8-0.7,1.5-1.5,1.5
					C171.2,21.3,170.5,20.6,170.5,19.8z"/>
				<path class="st1" d="M164.8,57.6c0-0.8,0.7-1.5,1.5-1.5s1.5,0.7,1.5,1.5c0,0.8-0.7,1.5-1.5,1.5S164.8,58.4,164.8,57.6z"/>
				<path class="st1" d="M164.8,51.3c0-0.8,0.7-1.5,1.5-1.5s1.5,0.7,1.5,1.5c0,0.8-0.7,1.5-1.5,1.5S164.8,52.1,164.8,51.3z"/>
				<path class="st1" d="M164.8,45c0-0.8,0.7-1.5,1.5-1.5s1.5,0.7,1.5,1.5c0,0.8-0.7,1.5-1.5,1.5S164.8,45.8,164.8,45z"/>
				<path class="st1" d="M164.8,38.7c0-0.8,0.7-1.5,1.5-1.5s1.5,0.7,1.5,1.5c0,0.8-0.7,1.5-1.5,1.5S164.8,39.5,164.8,38.7z"/>
				<path class="st1" d="M164.8,32.4c0-0.8,0.7-1.5,1.5-1.5s1.5,0.7,1.5,1.5c0,0.8-0.7,1.5-1.5,1.5S164.8,33.2,164.8,32.4z"/>
				<path class="st1" d="M164.8,26.1c0-0.8,0.7-1.5,1.5-1.5s1.5,0.7,1.5,1.5c0,0.8-0.7,1.5-1.5,1.5S164.8,26.9,164.8,26.1z"/>
				<path class="st1" d="M164.8,19.8c0-0.8,0.7-1.5,1.5-1.5s1.5,0.7,1.5,1.5c0,0.8-0.7,1.5-1.5,1.5S164.8,20.6,164.8,19.8z"/>
				<path class="st1" d="M164.8,13.5c0-0.8,0.7-1.5,1.5-1.5s1.5,0.7,1.5,1.5c0,0.8-0.7,1.5-1.5,1.5S164.8,14.3,164.8,13.5z"/>
				<path class="st1" d="M159.1,57.6c0-0.8,0.7-1.5,1.5-1.5c0.8,0,1.5,0.7,1.5,1.5c0,0.8-0.7,1.5-1.5,1.5
					C159.8,59.1,159.1,58.4,159.1,57.6z"/>
				<path class="st1" d="M159.1,51.3c0-0.8,0.7-1.5,1.5-1.5c0.8,0,1.5,0.7,1.5,1.5c0,0.8-0.7,1.5-1.5,1.5
					C159.8,52.8,159.1,52.1,159.1,51.3z"/>
				<path class="st1" d="M159.1,45c0-0.8,0.7-1.5,1.5-1.5c0.8,0,1.5,0.7,1.5,1.5c0,0.8-0.7,1.5-1.5,1.5
					C159.8,46.5,159.1,45.8,159.1,45z"/>
				<path class="st1" d="M159.1,38.7c0-0.8,0.7-1.5,1.5-1.5c0.8,0,1.5,0.7,1.5,1.5c0,0.8-0.7,1.5-1.5,1.5
					C159.8,40.2,159.1,39.5,159.1,38.7z"/>
				<path class="st1" d="M159.1,32.4c0-0.8,0.7-1.5,1.5-1.5c0.8,0,1.5,0.7,1.5,1.5c0,0.8-0.7,1.5-1.5,1.5
					C159.8,33.9,159.1,33.2,159.1,32.4z"/>
				<circle class="st1" cx="160.6" cy="26.1" r="1.5"/>
				<path class="st1" d="M159.1,19.8c0-0.8,0.7-1.5,1.5-1.5c0.8,0,1.5,0.7,1.5,1.5c0,0.8-0.7,1.5-1.5,1.5
					C159.8,21.3,159.1,20.6,159.1,19.8z"/>
				<path class="st1" d="M159.1,13.5c0-0.8,0.7-1.5,1.5-1.5c0.8,0,1.5,0.7,1.5,1.5c0,0.8-0.7,1.5-1.5,1.5
					C159.8,14.9,159.1,14.3,159.1,13.5z"/>
				<path class="st1" d="M159.1,7.2c0-0.8,0.7-1.5,1.5-1.5c0.8,0,1.5,0.7,1.5,1.5c0,0.8-0.7,1.5-1.5,1.5
					C159.8,8.6,159.1,8,159.1,7.2z"/>
				<path class="st1" d="M153.4,57.6c0-0.8,0.7-1.5,1.5-1.5c0.8,0,1.5,0.7,1.5,1.5c0,0.8-0.7,1.5-1.5,1.5
					C154.1,59.1,153.4,58.4,153.4,57.6z"/>
				<path class="st1" d="M153.4,51.3c0-0.8,0.7-1.5,1.5-1.5c0.8,0,1.5,0.7,1.5,1.5c0,0.8-0.7,1.5-1.5,1.5
					C154.1,52.8,153.4,52.1,153.4,51.3z"/>
				<path class="st1" d="M153.4,45c0-0.8,0.7-1.5,1.5-1.5c0.8,0,1.5,0.7,1.5,1.5c0,0.8-0.7,1.5-1.5,1.5
					C154.1,46.5,153.4,45.8,153.4,45z"/>
				<path class="st1" d="M153.4,38.7c0-0.8,0.7-1.5,1.5-1.5c0.8,0,1.5,0.7,1.5,1.5c0,0.8-0.7,1.5-1.5,1.5
					C154.1,40.2,153.4,39.5,153.4,38.7z"/>
				<path class="st1" d="M153.4,32.4c0-0.8,0.7-1.5,1.5-1.5c0.8,0,1.5,0.7,1.5,1.5c0,0.8-0.7,1.5-1.5,1.5
					C154.1,33.9,153.4,33.2,153.4,32.4z"/>
				<path class="st1" d="M153.4,26.1c0-0.8,0.7-1.5,1.5-1.5c0.8,0,1.5,0.7,1.5,1.5c0,0.8-0.7,1.5-1.5,1.5
					C154.1,27.6,153.4,26.9,153.4,26.1z"/>
				<path class="st1" d="M153.4,19.8c0-0.8,0.7-1.5,1.5-1.5c0.8,0,1.5,0.7,1.5,1.5c0,0.8-0.7,1.5-1.5,1.5
					C154.1,21.3,153.4,20.6,153.4,19.8z"/>
				<path class="st1" d="M153.4,13.5c0-0.8,0.7-1.5,1.5-1.5c0.8,0,1.5,0.7,1.5,1.5c0,0.8-0.7,1.5-1.5,1.5
					C154.1,14.9,153.4,14.3,153.4,13.5z"/>
				<path class="st1" d="M153.4,7.2c0-0.8,0.7-1.5,1.5-1.5c0.8,0,1.5,0.7,1.5,1.5c0,0.8-0.7,1.5-1.5,1.5
					C154.1,8.6,153.4,8,153.4,7.2z"/>
				<path class="st1" d="M153.4,0.9c0-0.8,0.7-1.5,1.5-1.5c0.8,0,1.5,0.7,1.5,1.5c0,0.8-0.7,1.5-1.5,1.5
					C154.1,2.3,153.4,1.7,153.4,0.9z"/>
				<path class="st1" d="M147.7,57.6c0-0.8,0.7-1.5,1.5-1.5c0.8,0,1.5,0.7,1.5,1.5c0,0.8-0.7,1.5-1.5,1.5
					C148.4,59.1,147.7,58.4,147.7,57.6z"/>
				<path class="st1" d="M147.7,51.3c0-0.8,0.7-1.5,1.5-1.5c0.8,0,1.5,0.7,1.5,1.5c0,0.8-0.7,1.5-1.5,1.5
					C148.4,52.8,147.7,52.1,147.7,51.3z"/>
				<path class="st1" d="M147.7,45c0-0.8,0.7-1.5,1.5-1.5c0.8,0,1.5,0.7,1.5,1.5c0,0.8-0.7,1.5-1.5,1.5
					C148.4,46.5,147.7,45.8,147.7,45z"/>
				<path class="st1" d="M147.7,38.7c0-0.8,0.7-1.5,1.5-1.5c0.8,0,1.5,0.7,1.5,1.5c0,0.8-0.7,1.5-1.5,1.5
					C148.4,40.2,147.7,39.5,147.7,38.7z"/>
				<path class="st1" d="M147.7,32.4c0-0.8,0.7-1.5,1.5-1.5c0.8,0,1.5,0.7,1.5,1.5c0,0.8-0.7,1.5-1.5,1.5
					C148.4,33.9,147.7,33.2,147.7,32.4z"/>
				<path class="st1" d="M147.7,26.1c0-0.8,0.7-1.5,1.5-1.5c0.8,0,1.5,0.7,1.5,1.5c0,0.8-0.7,1.5-1.5,1.5
					C148.4,27.6,147.7,26.9,147.7,26.1z"/>
				<path class="st1" d="M147.7,19.8c0-0.8,0.7-1.5,1.5-1.5c0.8,0,1.5,0.7,1.5,1.5c0,0.8-0.7,1.5-1.5,1.5
					C148.4,21.3,147.7,20.6,147.7,19.8z"/>
				<path class="st1" d="M147.7,13.5c0-0.8,0.7-1.5,1.5-1.5c0.8,0,1.5,0.7,1.5,1.5c0,0.8-0.7,1.5-1.5,1.5
					C148.4,14.9,147.7,14.3,147.7,13.5z"/>
				<path class="st1" d="M147.7,7.2c0-0.8,0.7-1.5,1.5-1.5c0.8,0,1.5,0.7,1.5,1.5c0,0.8-0.7,1.5-1.5,1.5
					C148.4,8.6,147.7,8,147.7,7.2z"/>
				<path class="st1" d="M147.7,0.9c0-0.8,0.7-1.5,1.5-1.5c0.8,0,1.5,0.7,1.5,1.5c0,0.8-0.7,1.5-1.5,1.5
					C148.4,2.3,147.7,1.7,147.7,0.9z"/>
				<path class="st1" d="M142,57.6c0-0.8,0.7-1.5,1.5-1.5c0.8,0,1.5,0.7,1.5,1.5c0,0.8-0.7,1.5-1.5,1.5
					C142.7,59.1,142,58.4,142,57.6z"/>
				<path class="st1" d="M142,51.3c0-0.8,0.7-1.5,1.5-1.5c0.8,0,1.5,0.7,1.5,1.5c0,0.8-0.7,1.5-1.5,1.5
					C142.7,52.8,142,52.1,142,51.3z"/>
				<path class="st1" d="M142,45c0-0.8,0.7-1.5,1.5-1.5c0.8,0,1.5,0.7,1.5,1.5c0,0.8-0.7,1.5-1.5,1.5C142.7,46.5,142,45.8,142,45z"
					/>
				<path class="st1" d="M142,38.7c0-0.8,0.7-1.5,1.5-1.5c0.8,0,1.5,0.7,1.5,1.5c0,0.8-0.7,1.5-1.5,1.5
					C142.7,40.2,142,39.5,142,38.7z"/>
				<path class="st1" d="M142,32.4c0-0.8,0.7-1.5,1.5-1.5c0.8,0,1.5,0.7,1.5,1.5c0,0.8-0.7,1.5-1.5,1.5
					C142.7,33.9,142,33.2,142,32.4z"/>
				<path class="st1" d="M142,26.1c0-0.8,0.7-1.5,1.5-1.5c0.8,0,1.5,0.7,1.5,1.5c0,0.8-0.7,1.5-1.5,1.5
					C142.7,27.6,142,26.9,142,26.1z"/>
				<path class="st1" d="M142,19.8c0-0.8,0.7-1.5,1.5-1.5c0.8,0,1.5,0.7,1.5,1.5c0,0.8-0.7,1.5-1.5,1.5
					C142.7,21.3,142,20.6,142,19.8z"/>
				<path class="st1" d="M142,13.5c0-0.8,0.7-1.5,1.5-1.5c0.8,0,1.5,0.7,1.5,1.5c0,0.8-0.7,1.5-1.5,1.5
					C142.7,14.9,142,14.3,142,13.5z"/>
				<path class="st1" d="M142,7.2c0-0.8,0.7-1.5,1.5-1.5c0.8,0,1.5,0.7,1.5,1.5c0,0.8-0.7,1.5-1.5,1.5C142.7,8.6,142,8,142,7.2z"/>
				<path class="st1" d="M142,0.9c0-0.8,0.7-1.5,1.5-1.5c0.8,0,1.5,0.7,1.5,1.5c0,0.8-0.7,1.5-1.5,1.5C142.7,2.3,142,1.7,142,0.9z"
					/>
				<path class="st1" d="M136.4,57.6c0-0.8,0.7-1.5,1.5-1.5c0.8,0,1.5,0.7,1.5,1.5c0,0.8-0.7,1.5-1.5,1.5
					C137,59.1,136.4,58.4,136.4,57.6z"/>
				<path class="st1" d="M136.4,51.3c0-0.8,0.7-1.5,1.5-1.5c0.8,0,1.5,0.7,1.5,1.5c0,0.8-0.7,1.5-1.5,1.5
					C137,52.8,136.4,52.1,136.4,51.3z"/>
				<path class="st1" d="M136.4,45c0-0.8,0.7-1.5,1.5-1.5c0.8,0,1.5,0.7,1.5,1.5c0,0.8-0.7,1.5-1.5,1.5
					C137,46.5,136.4,45.8,136.4,45z"/>
				<path class="st1" d="M136.4,38.7c0-0.8,0.7-1.5,1.5-1.5c0.8,0,1.5,0.7,1.5,1.5c0,0.8-0.7,1.5-1.5,1.5
					C137,40.2,136.4,39.5,136.4,38.7z"/>
				<path class="st1" d="M136.4,32.4c0-0.8,0.7-1.5,1.5-1.5c0.8,0,1.5,0.7,1.5,1.5c0,0.8-0.7,1.5-1.5,1.5
					C137,33.9,136.4,33.2,136.4,32.4z"/>
				<path class="st1" d="M136.4,26.1c0-0.8,0.7-1.5,1.5-1.5c0.8,0,1.5,0.7,1.5,1.5c0,0.8-0.7,1.5-1.5,1.5
					C137,27.6,136.4,26.9,136.4,26.1z"/>
				<path class="st1" d="M136.4,19.8c0-0.8,0.7-1.5,1.5-1.5c0.8,0,1.5,0.7,1.5,1.5c0,0.8-0.7,1.5-1.5,1.5
					C137,21.3,136.4,20.6,136.4,19.8z"/>
				<path class="st1" d="M136.4,13.5c0-0.8,0.7-1.5,1.5-1.5c0.8,0,1.5,0.7,1.5,1.5c0,0.8-0.7,1.5-1.5,1.5
					C137,14.9,136.4,14.3,136.4,13.5z"/>
				<path class="st1" d="M136.4,7.2c0-0.8,0.7-1.5,1.5-1.5c0.8,0,1.5,0.7,1.5,1.5c0,0.8-0.7,1.5-1.5,1.5C137,8.6,136.4,8,136.4,7.2z
					"/>
				<path class="st1" d="M136.4,0.9c0-0.8,0.7-1.5,1.5-1.5c0.8,0,1.5,0.7,1.5,1.5c0,0.8-0.7,1.5-1.5,1.5
					C137,2.3,136.4,1.7,136.4,0.9z"/>
			</g>
		</g>
		<g class="st2">
			<g>
				<path class="st1" d="M267.4,208.9c0,0.8-0.7,1.5-1.5,1.5c-0.8,0-1.5-0.7-1.5-1.5c0-0.8,0.7-1.5,1.5-1.5
					C266.8,207.4,267.4,208.1,267.4,208.9z"/>
				<path class="st1" d="M267.4,215.2c0,0.8-0.7,1.5-1.5,1.5c-0.8,0-1.5-0.7-1.5-1.5c0-0.8,0.7-1.5,1.5-1.5
					C266.8,213.7,267.4,214.4,267.4,215.2z"/>
				<path class="st1" d="M267.4,221.5c0,0.8-0.7,1.5-1.5,1.5c-0.8,0-1.5-0.7-1.5-1.5c0-0.8,0.7-1.5,1.5-1.5
					C266.8,220,267.4,220.7,267.4,221.5z"/>
				<path class="st1" d="M267.4,227.8c0,0.8-0.7,1.5-1.5,1.5c-0.8,0-1.5-0.7-1.5-1.5c0-0.8,0.7-1.5,1.5-1.5
					C266.8,226.3,267.4,227,267.4,227.8z"/>
				<path class="st1" d="M267.4,234.1c0,0.8-0.7,1.5-1.5,1.5c-0.8,0-1.5-0.7-1.5-1.5c0-0.8,0.7-1.5,1.5-1.5
					C266.8,232.7,267.4,233.3,267.4,234.1z"/>
				<path class="st1" d="M267.4,240.4c0,0.8-0.7,1.5-1.5,1.5c-0.8,0-1.5-0.7-1.5-1.5c0-0.8,0.7-1.5,1.5-1.5
					C266.8,239,267.4,239.6,267.4,240.4z"/>
				<path class="st1" d="M267.4,246.7c0,0.8-0.7,1.5-1.5,1.5c-0.8,0-1.5-0.7-1.5-1.5c0-0.8,0.7-1.5,1.5-1.5
					C266.8,245.3,267.4,245.9,267.4,246.7z"/>
				<path class="st1" d="M267.4,253c0,0.8-0.7,1.5-1.5,1.5c-0.8,0-1.5-0.7-1.5-1.5c0-0.8,0.7-1.5,1.5-1.5
					C266.8,251.6,267.4,252.2,267.4,253z"/>
				<path class="st1" d="M273.1,208.9c0,0.8-0.7,1.5-1.5,1.5c-0.8,0-1.5-0.7-1.5-1.5c0-0.8,0.7-1.5,1.5-1.5
					C272.4,207.4,273.1,208.1,273.1,208.9z"/>
				<path class="st1" d="M273.1,215.2c0,0.8-0.7,1.5-1.5,1.5c-0.8,0-1.5-0.7-1.5-1.5c0-0.8,0.7-1.5,1.5-1.5
					C272.4,213.7,273.1,214.4,273.1,215.2z"/>
				<path class="st1" d="M273.1,221.5c0,0.8-0.7,1.5-1.5,1.5c-0.8,0-1.5-0.7-1.5-1.5c0-0.8,0.7-1.5,1.5-1.5
					C272.4,220,273.1,220.7,273.1,221.5z"/>
				<path class="st1" d="M273.1,227.8c0,0.8-0.7,1.5-1.5,1.5c-0.8,0-1.5-0.7-1.5-1.5c0-0.8,0.7-1.5,1.5-1.5
					C272.4,226.3,273.1,227,273.1,227.8z"/>
				<path class="st1" d="M273.1,234.1c0,0.8-0.7,1.5-1.5,1.5c-0.8,0-1.5-0.7-1.5-1.5c0-0.8,0.7-1.5,1.5-1.5
					C272.4,232.7,273.1,233.3,273.1,234.1z"/>
				<path class="st1" d="M273.1,240.4c0,0.8-0.7,1.5-1.5,1.5c-0.8,0-1.5-0.7-1.5-1.5c0-0.8,0.7-1.5,1.5-1.5
					C272.4,239,273.1,239.6,273.1,240.4z"/>
				<path class="st1" d="M273.1,246.7c0,0.8-0.7,1.5-1.5,1.5c-0.8,0-1.5-0.7-1.5-1.5c0-0.8,0.7-1.5,1.5-1.5
					C272.4,245.3,273.1,245.9,273.1,246.7z"/>
				<path class="st1" d="M273.1,253c0,0.8-0.7,1.5-1.5,1.5c-0.8,0-1.5-0.7-1.5-1.5c0-0.8,0.7-1.5,1.5-1.5
					C272.4,251.6,273.1,252.2,273.1,253z"/>
				<path class="st1" d="M273.1,259.4c0,0.8-0.7,1.5-1.5,1.5c-0.8,0-1.5-0.7-1.5-1.5c0-0.8,0.7-1.5,1.5-1.5
					C272.4,257.9,273.1,258.5,273.1,259.4z"/>
				<path class="st1" d="M278.8,208.9c0,0.8-0.7,1.5-1.5,1.5s-1.5-0.7-1.5-1.5c0-0.8,0.7-1.5,1.5-1.5S278.8,208.1,278.8,208.9z"/>
				<path class="st1" d="M278.8,215.2c0,0.8-0.7,1.5-1.5,1.5s-1.5-0.7-1.5-1.5c0-0.8,0.7-1.5,1.5-1.5S278.8,214.4,278.8,215.2z"/>
				<path class="st1" d="M278.8,221.5c0,0.8-0.7,1.5-1.5,1.5s-1.5-0.7-1.5-1.5c0-0.8,0.7-1.5,1.5-1.5S278.8,220.7,278.8,221.5z"/>
				<path class="st1" d="M278.8,227.8c0,0.8-0.7,1.5-1.5,1.5s-1.5-0.7-1.5-1.5c0-0.8,0.7-1.5,1.5-1.5S278.8,227,278.8,227.8z"/>
				<path class="st1" d="M278.8,234.1c0,0.8-0.7,1.5-1.5,1.5s-1.5-0.7-1.5-1.5c0-0.8,0.7-1.5,1.5-1.5S278.8,233.3,278.8,234.1z"/>
				<path class="st1" d="M278.8,240.4c0,0.8-0.7,1.5-1.5,1.5s-1.5-0.7-1.5-1.5c0-0.8,0.7-1.5,1.5-1.5S278.8,239.6,278.8,240.4z"/>
				<path class="st1" d="M278.8,246.7c0,0.8-0.7,1.5-1.5,1.5s-1.5-0.7-1.5-1.5c0-0.8,0.7-1.5,1.5-1.5S278.8,245.9,278.8,246.7z"/>
				<path class="st1" d="M278.8,253c0,0.8-0.7,1.5-1.5,1.5s-1.5-0.7-1.5-1.5c0-0.8,0.7-1.5,1.5-1.5S278.8,252.2,278.8,253z"/>
				<path class="st1" d="M278.8,259.4c0,0.8-0.7,1.5-1.5,1.5s-1.5-0.7-1.5-1.5c0-0.8,0.7-1.5,1.5-1.5S278.8,258.5,278.8,259.4z"/>
				<path class="st1" d="M278.8,265.7c0,0.8-0.7,1.5-1.5,1.5s-1.5-0.7-1.5-1.5s0.7-1.5,1.5-1.5S278.8,264.8,278.8,265.7z"/>
				<path class="st1" d="M284.5,208.9c0,0.8-0.7,1.5-1.5,1.5c-0.8,0-1.5-0.7-1.5-1.5c0-0.8,0.7-1.5,1.5-1.5
					C283.8,207.4,284.5,208.1,284.5,208.9z"/>
				<path class="st1" d="M284.5,215.2c0,0.8-0.7,1.5-1.5,1.5c-0.8,0-1.5-0.7-1.5-1.5c0-0.8,0.7-1.5,1.5-1.5
					C283.8,213.7,284.5,214.4,284.5,215.2z"/>
				<path class="st1" d="M284.5,221.5c0,0.8-0.7,1.5-1.5,1.5c-0.8,0-1.5-0.7-1.5-1.5c0-0.8,0.7-1.5,1.5-1.5
					C283.8,220,284.5,220.7,284.5,221.5z"/>
				<path class="st1" d="M284.5,227.8c0,0.8-0.7,1.5-1.5,1.5c-0.8,0-1.5-0.7-1.5-1.5c0-0.8,0.7-1.5,1.5-1.5
					C283.8,226.3,284.5,227,284.5,227.8z"/>
				<path class="st1" d="M284.5,234.1c0,0.8-0.7,1.5-1.5,1.5c-0.8,0-1.5-0.7-1.5-1.5c0-0.8,0.7-1.5,1.5-1.5
					C283.8,232.7,284.5,233.3,284.5,234.1z"/>
				<circle class="st1" cx="283" cy="240.4" r="1.5"/>
				<path class="st1" d="M284.5,246.7c0,0.8-0.7,1.5-1.5,1.5c-0.8,0-1.5-0.7-1.5-1.5c0-0.8,0.7-1.5,1.5-1.5
					C283.8,245.3,284.5,245.9,284.5,246.7z"/>
				<path class="st1" d="M284.5,253c0,0.8-0.7,1.5-1.5,1.5c-0.8,0-1.5-0.7-1.5-1.5c0-0.8,0.7-1.5,1.5-1.5
					C283.8,251.6,284.5,252.2,284.5,253z"/>
				<path class="st1" d="M284.5,259.4c0,0.8-0.7,1.5-1.5,1.5c-0.8,0-1.5-0.7-1.5-1.5c0-0.8,0.7-1.5,1.5-1.5
					C283.8,257.9,284.5,258.5,284.5,259.4z"/>
				<circle class="st1" cx="283" cy="265.7" r="1.5"/>
				<path class="st1" d="M284.5,272c0,0.8-0.7,1.5-1.5,1.5c-0.8,0-1.5-0.7-1.5-1.5c0-0.8,0.7-1.5,1.5-1.5
					C283.8,270.5,284.5,271.2,284.5,272z"/>
				<path class="st1" d="M290.2,208.9c0,0.8-0.7,1.5-1.5,1.5c-0.8,0-1.5-0.7-1.5-1.5c0-0.8,0.7-1.5,1.5-1.5
					C289.5,207.4,290.2,208.1,290.2,208.9z"/>
				<path class="st1" d="M290.2,215.2c0,0.8-0.7,1.5-1.5,1.5c-0.8,0-1.5-0.7-1.5-1.5c0-0.8,0.7-1.5,1.5-1.5
					C289.5,213.7,290.2,214.4,290.2,215.2z"/>
				<path class="st1" d="M290.2,221.5c0,0.8-0.7,1.5-1.5,1.5c-0.8,0-1.5-0.7-1.5-1.5c0-0.8,0.7-1.5,1.5-1.5
					C289.5,220,290.2,220.7,290.2,221.5z"/>
				<path class="st1" d="M290.2,227.8c0,0.8-0.7,1.5-1.5,1.5c-0.8,0-1.5-0.7-1.5-1.5c0-0.8,0.7-1.5,1.5-1.5
					C289.5,226.3,290.2,227,290.2,227.8z"/>
				<path class="st1" d="M290.2,234.1c0,0.8-0.7,1.5-1.5,1.5c-0.8,0-1.5-0.7-1.5-1.5c0-0.8,0.7-1.5,1.5-1.5
					C289.5,232.7,290.2,233.3,290.2,234.1z"/>
				<circle class="st1" cx="288.7" cy="240.4" r="1.5"/>
				<path class="st1" d="M290.2,246.7c0,0.8-0.7,1.5-1.5,1.5c-0.8,0-1.5-0.7-1.5-1.5c0-0.8,0.7-1.5,1.5-1.5
					C289.5,245.3,290.2,245.9,290.2,246.7z"/>
				<path class="st1" d="M290.2,253c0,0.8-0.7,1.5-1.5,1.5c-0.8,0-1.5-0.7-1.5-1.5c0-0.8,0.7-1.5,1.5-1.5
					C289.5,251.6,290.2,252.2,290.2,253z"/>
				<path class="st1" d="M290.2,259.4c0,0.8-0.7,1.5-1.5,1.5c-0.8,0-1.5-0.7-1.5-1.5c0-0.8,0.7-1.5,1.5-1.5
					C289.5,257.9,290.2,258.5,290.2,259.4z"/>
				<circle class="st1" cx="288.7" cy="265.7" r="1.5"/>
				<path class="st1" d="M290.2,272c0,0.8-0.7,1.5-1.5,1.5c-0.8,0-1.5-0.7-1.5-1.5c0-0.8,0.7-1.5,1.5-1.5
					C289.5,270.5,290.2,271.2,290.2,272z"/>
				<path class="st1" d="M290.2,278.3c0,0.8-0.7,1.5-1.5,1.5c-0.8,0-1.5-0.7-1.5-1.5c0-0.8,0.7-1.5,1.5-1.5
					C289.5,276.8,290.2,277.5,290.2,278.3z"/>
				<path class="st1" d="M295.9,208.9c0,0.8-0.7,1.5-1.5,1.5c-0.8,0-1.5-0.7-1.5-1.5c0-0.8,0.7-1.5,1.5-1.5
					C295.2,207.4,295.9,208.1,295.9,208.9z"/>
				<path class="st1" d="M295.9,215.2c0,0.8-0.7,1.5-1.5,1.5c-0.8,0-1.5-0.7-1.5-1.5c0-0.8,0.7-1.5,1.5-1.5
					C295.2,213.7,295.9,214.4,295.9,215.2z"/>
				<path class="st1" d="M295.9,221.5c0,0.8-0.7,1.5-1.5,1.5c-0.8,0-1.5-0.7-1.5-1.5c0-0.8,0.7-1.5,1.5-1.5
					C295.2,220,295.9,220.7,295.9,221.5z"/>
				<path class="st1" d="M295.9,227.8c0,0.8-0.7,1.5-1.5,1.5c-0.8,0-1.5-0.7-1.5-1.5c0-0.8,0.7-1.5,1.5-1.5
					C295.2,226.3,295.9,227,295.9,227.8z"/>
				<path class="st1" d="M295.9,234.1c0,0.8-0.7,1.5-1.5,1.5c-0.8,0-1.5-0.7-1.5-1.5c0-0.8,0.7-1.5,1.5-1.5
					C295.2,232.7,295.9,233.3,295.9,234.1z"/>
				<path class="st1" d="M295.9,240.4c0,0.8-0.7,1.5-1.5,1.5c-0.8,0-1.5-0.7-1.5-1.5c0-0.8,0.7-1.5,1.5-1.5
					C295.2,239,295.9,239.6,295.9,240.4z"/>
				<path class="st1" d="M295.9,246.7c0,0.8-0.7,1.5-1.5,1.5c-0.8,0-1.5-0.7-1.5-1.5c0-0.8,0.7-1.5,1.5-1.5
					C295.2,245.3,295.9,245.9,295.9,246.7z"/>
				<path class="st1" d="M295.9,253c0,0.8-0.7,1.5-1.5,1.5c-0.8,0-1.5-0.7-1.5-1.5c0-0.8,0.7-1.5,1.5-1.5
					C295.2,251.6,295.9,252.2,295.9,253z"/>
				<path class="st1" d="M295.9,259.4c0,0.8-0.7,1.5-1.5,1.5c-0.8,0-1.5-0.7-1.5-1.5c0-0.8,0.7-1.5,1.5-1.5
					C295.2,257.9,295.9,258.5,295.9,259.4z"/>
				<path class="st1" d="M295.9,265.7c0,0.8-0.7,1.5-1.5,1.5c-0.8,0-1.5-0.7-1.5-1.5s0.7-1.5,1.5-1.5
					C295.2,264.2,295.9,264.8,295.9,265.7z"/>
				<path class="st1" d="M295.9,272c0,0.8-0.7,1.5-1.5,1.5c-0.8,0-1.5-0.7-1.5-1.5c0-0.8,0.7-1.5,1.5-1.5
					C295.2,270.5,295.9,271.2,295.9,272z"/>
				<path class="st1" d="M295.9,278.3c0,0.8-0.7,1.5-1.5,1.5c-0.8,0-1.5-0.7-1.5-1.5c0-0.8,0.7-1.5,1.5-1.5
					C295.2,276.8,295.9,277.5,295.9,278.3z"/>
				<path class="st1" d="M295.9,284.6c0,0.8-0.7,1.5-1.5,1.5c-0.8,0-1.5-0.7-1.5-1.5c0-0.8,0.7-1.5,1.5-1.5
					C295.2,283.1,295.9,283.8,295.9,284.6z"/>
				<path class="st1" d="M301.6,208.9c0,0.8-0.7,1.5-1.5,1.5c-0.8,0-1.5-0.7-1.5-1.5c0-0.8,0.7-1.5,1.5-1.5
					C300.9,207.4,301.6,208.1,301.6,208.9z"/>
				<path class="st1" d="M301.6,215.2c0,0.8-0.7,1.5-1.5,1.5c-0.8,0-1.5-0.7-1.5-1.5c0-0.8,0.7-1.5,1.5-1.5
					C300.9,213.7,301.6,214.4,301.6,215.2z"/>
				<path class="st1" d="M301.6,221.5c0,0.8-0.7,1.5-1.5,1.5c-0.8,0-1.5-0.7-1.5-1.5c0-0.8,0.7-1.5,1.5-1.5
					C300.9,220,301.6,220.7,301.6,221.5z"/>
				<path class="st1" d="M301.6,227.8c0,0.8-0.7,1.5-1.5,1.5c-0.8,0-1.5-0.7-1.5-1.5c0-0.8,0.7-1.5,1.5-1.5
					C300.9,226.3,301.6,227,301.6,227.8z"/>
				<path class="st1" d="M301.6,234.1c0,0.8-0.7,1.5-1.5,1.5c-0.8,0-1.5-0.7-1.5-1.5c0-0.8,0.7-1.5,1.5-1.5
					C300.9,232.7,301.6,233.3,301.6,234.1z"/>
				<path class="st1" d="M301.6,240.4c0,0.8-0.7,1.5-1.5,1.5c-0.8,0-1.5-0.7-1.5-1.5c0-0.8,0.7-1.5,1.5-1.5
					C300.9,239,301.6,239.6,301.6,240.4z"/>
				<path class="st1" d="M301.6,246.7c0,0.8-0.7,1.5-1.5,1.5c-0.8,0-1.5-0.7-1.5-1.5c0-0.8,0.7-1.5,1.5-1.5
					C300.9,245.3,301.6,245.9,301.6,246.7z"/>
				<path class="st1" d="M301.6,253c0,0.8-0.7,1.5-1.5,1.5c-0.8,0-1.5-0.7-1.5-1.5c0-0.8,0.7-1.5,1.5-1.5
					C300.9,251.6,301.6,252.2,301.6,253z"/>
				<path class="st1" d="M301.6,259.4c0,0.8-0.7,1.5-1.5,1.5c-0.8,0-1.5-0.7-1.5-1.5c0-0.8,0.7-1.5,1.5-1.5
					C300.9,257.9,301.6,258.5,301.6,259.4z"/>
				<path class="st1" d="M301.6,265.7c0,0.8-0.7,1.5-1.5,1.5c-0.8,0-1.5-0.7-1.5-1.5s0.7-1.5,1.5-1.5
					C300.9,264.2,301.6,264.8,301.6,265.7z"/>
				<path class="st1" d="M301.6,272c0,0.8-0.7,1.5-1.5,1.5c-0.8,0-1.5-0.7-1.5-1.5c0-0.8,0.7-1.5,1.5-1.5
					C300.9,270.5,301.6,271.2,301.6,272z"/>
				<path class="st1" d="M301.6,278.3c0,0.8-0.7,1.5-1.5,1.5c-0.8,0-1.5-0.7-1.5-1.5c0-0.8,0.7-1.5,1.5-1.5
					C300.9,276.8,301.6,277.5,301.6,278.3z"/>
				<path class="st1" d="M301.6,284.6c0,0.8-0.7,1.5-1.5,1.5c-0.8,0-1.5-0.7-1.5-1.5c0-0.8,0.7-1.5,1.5-1.5
					C300.9,283.1,301.6,283.8,301.6,284.6z"/>
				<path class="st1" d="M301.6,290.9c0,0.8-0.7,1.5-1.5,1.5c-0.8,0-1.5-0.7-1.5-1.5c0-0.8,0.7-1.5,1.5-1.5
					C300.9,289.4,301.6,290.1,301.6,290.9z"/>
			</g>
			<g>
				<path class="st1" d="M298.6,202.6c0-0.8,0.7-1.5,1.5-1.5c0.8,0,1.5,0.7,1.5,1.5c0,0.8-0.7,1.5-1.5,1.5
					C299.3,204.1,298.6,203.4,298.6,202.6z"/>
				<path class="st1" d="M298.6,196.3c0-0.8,0.7-1.5,1.5-1.5c0.8,0,1.5,0.7,1.5,1.5c0,0.8-0.7,1.5-1.5,1.5
					C299.3,197.7,298.6,197.1,298.6,196.3z"/>
				<path class="st1" d="M298.6,190c0-0.8,0.7-1.5,1.5-1.5c0.8,0,1.5,0.7,1.5,1.5c0,0.8-0.7,1.5-1.5,1.5
					C299.3,191.4,298.6,190.8,298.6,190z"/>
				<path class="st1" d="M298.6,183.7c0-0.8,0.7-1.5,1.5-1.5c0.8,0,1.5,0.7,1.5,1.5c0,0.8-0.7,1.5-1.5,1.5
					C299.3,185.1,298.6,184.5,298.6,183.7z"/>
				<path class="st1" d="M298.6,177.4c0-0.8,0.7-1.5,1.5-1.5c0.8,0,1.5,0.7,1.5,1.5c0,0.8-0.7,1.5-1.5,1.5
					C299.3,178.8,298.6,178.2,298.6,177.4z"/>
				<path class="st1" d="M298.6,171c0-0.8,0.7-1.5,1.5-1.5c0.8,0,1.5,0.7,1.5,1.5c0,0.8-0.7,1.5-1.5,1.5
					C299.3,172.5,298.6,171.9,298.6,171z"/>
				<path class="st1" d="M298.6,164.7c0-0.8,0.7-1.5,1.5-1.5c0.8,0,1.5,0.7,1.5,1.5c0,0.8-0.7,1.5-1.5,1.5
					C299.3,166.2,298.6,165.6,298.6,164.7z"/>
				<path class="st1" d="M292.9,202.6c0-0.8,0.7-1.5,1.5-1.5s1.5,0.7,1.5,1.5c0,0.8-0.7,1.5-1.5,1.5S292.9,203.4,292.9,202.6z"/>
				<path class="st1" d="M292.9,196.3c0-0.8,0.7-1.5,1.5-1.5s1.5,0.7,1.5,1.5c0,0.8-0.7,1.5-1.5,1.5S292.9,197.1,292.9,196.3z"/>
				<path class="st1" d="M292.9,190c0-0.8,0.7-1.5,1.5-1.5s1.5,0.7,1.5,1.5c0,0.8-0.7,1.5-1.5,1.5S292.9,190.8,292.9,190z"/>
				<path class="st1" d="M292.9,183.7c0-0.8,0.7-1.5,1.5-1.5s1.5,0.7,1.5,1.5c0,0.8-0.7,1.5-1.5,1.5S292.9,184.5,292.9,183.7z"/>
				<path class="st1" d="M292.9,177.4c0-0.8,0.7-1.5,1.5-1.5s1.5,0.7,1.5,1.5c0,0.8-0.7,1.5-1.5,1.5S292.9,178.2,292.9,177.4z"/>
				<path class="st1" d="M292.9,171c0-0.8,0.7-1.5,1.5-1.5s1.5,0.7,1.5,1.5c0,0.8-0.7,1.5-1.5,1.5S292.9,171.9,292.9,171z"/>
				<path class="st1" d="M292.9,164.7c0-0.8,0.7-1.5,1.5-1.5s1.5,0.7,1.5,1.5c0,0.8-0.7,1.5-1.5,1.5S292.9,165.6,292.9,164.7z"/>
				<path class="st1" d="M292.9,158.4c0-0.8,0.7-1.5,1.5-1.5s1.5,0.7,1.5,1.5c0,0.8-0.7,1.5-1.5,1.5S292.9,159.2,292.9,158.4z"/>
				<path class="st1" d="M287.2,202.6c0-0.8,0.7-1.5,1.5-1.5c0.8,0,1.5,0.7,1.5,1.5c0,0.8-0.7,1.5-1.5,1.5
					C287.9,204.1,287.2,203.4,287.2,202.6z"/>
				<path class="st1" d="M287.2,196.3c0-0.8,0.7-1.5,1.5-1.5c0.8,0,1.5,0.7,1.5,1.5c0,0.8-0.7,1.5-1.5,1.5
					C287.9,197.7,287.2,197.1,287.2,196.3z"/>
				<path class="st1" d="M287.2,190c0-0.8,0.7-1.5,1.5-1.5c0.8,0,1.5,0.7,1.5,1.5c0,0.8-0.7,1.5-1.5,1.5
					C287.9,191.4,287.2,190.8,287.2,190z"/>
				<circle class="st1" cx="288.7" cy="183.7" r="1.5"/>
				<path class="st1" d="M287.2,177.4c0-0.8,0.7-1.5,1.5-1.5c0.8,0,1.5,0.7,1.5,1.5c0,0.8-0.7,1.5-1.5,1.5
					C287.9,178.8,287.2,178.2,287.2,177.4z"/>
				<circle class="st1" cx="288.7" cy="171" r="1.5"/>
				<path class="st1" d="M287.2,164.7c0-0.8,0.7-1.5,1.5-1.5c0.8,0,1.5,0.7,1.5,1.5c0,0.8-0.7,1.5-1.5,1.5
					C287.9,166.2,287.2,165.6,287.2,164.7z"/>
				<path class="st1" d="M287.2,158.4c0-0.8,0.7-1.5,1.5-1.5c0.8,0,1.5,0.7,1.5,1.5c0,0.8-0.7,1.5-1.5,1.5
					C287.9,159.9,287.2,159.2,287.2,158.4z"/>
				<path class="st1" d="M287.2,152.1c0-0.8,0.7-1.5,1.5-1.5c0.8,0,1.5,0.7,1.5,1.5s-0.7,1.5-1.5,1.5
					C287.9,153.6,287.2,152.9,287.2,152.1z"/>
				<path class="st1" d="M281.5,202.6c0-0.8,0.7-1.5,1.5-1.5c0.8,0,1.5,0.7,1.5,1.5c0,0.8-0.7,1.5-1.5,1.5
					C282.2,204.1,281.5,203.4,281.5,202.6z"/>
				<path class="st1" d="M281.5,196.3c0-0.8,0.7-1.5,1.5-1.5c0.8,0,1.5,0.7,1.5,1.5c0,0.8-0.7,1.5-1.5,1.5
					C282.2,197.7,281.5,197.1,281.5,196.3z"/>
				<path class="st1" d="M281.5,190c0-0.8,0.7-1.5,1.5-1.5c0.8,0,1.5,0.7,1.5,1.5c0,0.8-0.7,1.5-1.5,1.5
					C282.2,191.4,281.5,190.8,281.5,190z"/>
				<path class="st1" d="M281.5,183.7c0-0.8,0.7-1.5,1.5-1.5c0.8,0,1.5,0.7,1.5,1.5c0,0.8-0.7,1.5-1.5,1.5
					C282.2,185.1,281.5,184.5,281.5,183.7z"/>
				<path class="st1" d="M281.5,177.4c0-0.8,0.7-1.5,1.5-1.5c0.8,0,1.5,0.7,1.5,1.5c0,0.8-0.7,1.5-1.5,1.5
					C282.2,178.8,281.5,178.2,281.5,177.4z"/>
				<path class="st1" d="M281.5,171c0-0.8,0.7-1.5,1.5-1.5c0.8,0,1.5,0.7,1.5,1.5c0,0.8-0.7,1.5-1.5,1.5
					C282.2,172.5,281.5,171.9,281.5,171z"/>
				<path class="st1" d="M281.5,164.7c0-0.8,0.7-1.5,1.5-1.5c0.8,0,1.5,0.7,1.5,1.5c0,0.8-0.7,1.5-1.5,1.5
					C282.2,166.2,281.5,165.6,281.5,164.7z"/>
				<path class="st1" d="M281.5,158.4c0-0.8,0.7-1.5,1.5-1.5c0.8,0,1.5,0.7,1.5,1.5c0,0.8-0.7,1.5-1.5,1.5
					C282.2,159.9,281.5,159.2,281.5,158.4z"/>
				<path class="st1" d="M281.5,152.1c0-0.8,0.7-1.5,1.5-1.5c0.8,0,1.5,0.7,1.5,1.5s-0.7,1.5-1.5,1.5
					C282.2,153.6,281.5,152.9,281.5,152.1z"/>
				<path class="st1" d="M281.5,145.8c0-0.8,0.7-1.5,1.5-1.5c0.8,0,1.5,0.7,1.5,1.5c0,0.8-0.7,1.5-1.5,1.5
					C282.2,147.3,281.5,146.6,281.5,145.8z"/>
				<path class="st1" d="M275.9,202.6c0-0.8,0.7-1.5,1.5-1.5c0.8,0,1.5,0.7,1.5,1.5c0,0.8-0.7,1.5-1.5,1.5
					C276.5,204.1,275.9,203.4,275.9,202.6z"/>
				<path class="st1" d="M275.9,196.3c0-0.8,0.7-1.5,1.5-1.5c0.8,0,1.5,0.7,1.5,1.5c0,0.8-0.7,1.5-1.5,1.5
					C276.5,197.7,275.9,197.1,275.9,196.3z"/>
				<path class="st1" d="M275.9,190c0-0.8,0.7-1.5,1.5-1.5c0.8,0,1.5,0.7,1.5,1.5c0,0.8-0.7,1.5-1.5,1.5
					C276.5,191.4,275.9,190.8,275.9,190z"/>
				<path class="st1" d="M275.9,183.7c0-0.8,0.7-1.5,1.5-1.5c0.8,0,1.5,0.7,1.5,1.5c0,0.8-0.7,1.5-1.5,1.5
					C276.5,185.1,275.9,184.5,275.9,183.7z"/>
				<path class="st1" d="M275.9,177.4c0-0.8,0.7-1.5,1.5-1.5c0.8,0,1.5,0.7,1.5,1.5c0,0.8-0.7,1.5-1.5,1.5
					C276.5,178.8,275.9,178.2,275.9,177.4z"/>
				<path class="st1" d="M275.9,171c0-0.8,0.7-1.5,1.5-1.5c0.8,0,1.5,0.7,1.5,1.5c0,0.8-0.7,1.5-1.5,1.5
					C276.5,172.5,275.9,171.9,275.9,171z"/>
				<path class="st1" d="M275.9,164.7c0-0.8,0.7-1.5,1.5-1.5c0.8,0,1.5,0.7,1.5,1.5c0,0.8-0.7,1.5-1.5,1.5
					C276.5,166.2,275.9,165.6,275.9,164.7z"/>
				<path class="st1" d="M275.9,158.4c0-0.8,0.7-1.5,1.5-1.5c0.8,0,1.5,0.7,1.5,1.5c0,0.8-0.7,1.5-1.5,1.5
					C276.5,159.9,275.9,159.2,275.9,158.4z"/>
				<path class="st1" d="M275.9,152.1c0-0.8,0.7-1.5,1.5-1.5c0.8,0,1.5,0.7,1.5,1.5s-0.7,1.5-1.5,1.5
					C276.5,153.6,275.9,152.9,275.9,152.1z"/>
				<path class="st1" d="M275.9,145.8c0-0.8,0.7-1.5,1.5-1.5c0.8,0,1.5,0.7,1.5,1.5c0,0.8-0.7,1.5-1.5,1.5
					C276.5,147.3,275.9,146.6,275.9,145.8z"/>
				<path class="st1" d="M275.9,139.5c0-0.8,0.7-1.5,1.5-1.5c0.8,0,1.5,0.7,1.5,1.5c0,0.8-0.7,1.5-1.5,1.5
					C276.5,141,275.9,140.3,275.9,139.5z"/>
				<path class="st1" d="M270.2,202.6c0-0.8,0.7-1.5,1.5-1.5c0.8,0,1.5,0.7,1.5,1.5c0,0.8-0.7,1.5-1.5,1.5
					C270.8,204.1,270.2,203.4,270.2,202.6z"/>
				<path class="st1" d="M270.2,196.3c0-0.8,0.7-1.5,1.5-1.5c0.8,0,1.5,0.7,1.5,1.5c0,0.8-0.7,1.5-1.5,1.5
					C270.8,197.7,270.2,197.1,270.2,196.3z"/>
				<path class="st1" d="M270.2,190c0-0.8,0.7-1.5,1.5-1.5c0.8,0,1.5,0.7,1.5,1.5c0,0.8-0.7,1.5-1.5,1.5
					C270.8,191.4,270.2,190.8,270.2,190z"/>
				<circle class="st1" cx="271.6" cy="183.7" r="1.5"/>
				<path class="st1" d="M270.2,177.4c0-0.8,0.7-1.5,1.5-1.5c0.8,0,1.5,0.7,1.5,1.5c0,0.8-0.7,1.5-1.5,1.5
					C270.8,178.8,270.2,178.2,270.2,177.4z"/>
				<circle class="st1" cx="271.6" cy="171" r="1.5"/>
				<path class="st1" d="M270.2,164.7c0-0.8,0.7-1.5,1.5-1.5c0.8,0,1.5,0.7,1.5,1.5c0,0.8-0.7,1.5-1.5,1.5
					C270.8,166.2,270.2,165.6,270.2,164.7z"/>
				<path class="st1" d="M270.2,158.4c0-0.8,0.7-1.5,1.5-1.5c0.8,0,1.5,0.7,1.5,1.5c0,0.8-0.7,1.5-1.5,1.5
					C270.8,159.9,270.2,159.2,270.2,158.4z"/>
				<path class="st1" d="M270.2,152.1c0-0.8,0.7-1.5,1.5-1.5c0.8,0,1.5,0.7,1.5,1.5s-0.7,1.5-1.5,1.5
					C270.8,153.6,270.2,152.9,270.2,152.1z"/>
				<path class="st1" d="M270.2,145.8c0-0.8,0.7-1.5,1.5-1.5c0.8,0,1.5,0.7,1.5,1.5c0,0.8-0.7,1.5-1.5,1.5
					C270.8,147.3,270.2,146.6,270.2,145.8z"/>
				<circle class="st1" cx="271.6" cy="139.5" r="1.5"/>
				<path class="st1" d="M270.2,133.2c0-0.8,0.7-1.5,1.5-1.5c0.8,0,1.5,0.7,1.5,1.5c0,0.8-0.7,1.5-1.5,1.5
					C270.8,134.7,270.2,134,270.2,133.2z"/>
				<path class="st1" d="M264.5,202.6c0-0.8,0.7-1.5,1.5-1.5c0.8,0,1.5,0.7,1.5,1.5c0,0.8-0.7,1.5-1.5,1.5
					C265.1,204.1,264.5,203.4,264.5,202.6z"/>
				<path class="st1" d="M264.5,196.3c0-0.8,0.7-1.5,1.5-1.5c0.8,0,1.5,0.7,1.5,1.5c0,0.8-0.7,1.5-1.5,1.5
					C265.1,197.7,264.5,197.1,264.5,196.3z"/>
				<path class="st1" d="M264.5,190c0-0.8,0.7-1.5,1.5-1.5c0.8,0,1.5,0.7,1.5,1.5c0,0.8-0.7,1.5-1.5,1.5
					C265.1,191.4,264.5,190.8,264.5,190z"/>
				<path class="st1" d="M264.5,183.7c0-0.8,0.7-1.5,1.5-1.5c0.8,0,1.5,0.7,1.5,1.5c0,0.8-0.7,1.5-1.5,1.5
					C265.1,185.1,264.5,184.5,264.5,183.7z"/>
				<path class="st1" d="M264.5,177.4c0-0.8,0.7-1.5,1.5-1.5c0.8,0,1.5,0.7,1.5,1.5c0,0.8-0.7,1.5-1.5,1.5
					C265.1,178.8,264.5,178.2,264.5,177.4z"/>
				<path class="st1" d="M264.5,171c0-0.8,0.7-1.5,1.5-1.5c0.8,0,1.5,0.7,1.5,1.5c0,0.8-0.7,1.5-1.5,1.5
					C265.1,172.5,264.5,171.9,264.5,171z"/>
				<path class="st1" d="M264.5,164.7c0-0.8,0.7-1.5,1.5-1.5c0.8,0,1.5,0.7,1.5,1.5c0,0.8-0.7,1.5-1.5,1.5
					C265.1,166.2,264.5,165.6,264.5,164.7z"/>
				<path class="st1" d="M264.5,158.4c0-0.8,0.7-1.5,1.5-1.5c0.8,0,1.5,0.7,1.5,1.5c0,0.8-0.7,1.5-1.5,1.5
					C265.1,159.9,264.5,159.2,264.5,158.4z"/>
				<path class="st1" d="M264.5,152.1c0-0.8,0.7-1.5,1.5-1.5c0.8,0,1.5,0.7,1.5,1.5s-0.7,1.5-1.5,1.5
					C265.1,153.6,264.5,152.9,264.5,152.1z"/>
				<path class="st1" d="M264.5,145.8c0-0.8,0.7-1.5,1.5-1.5c0.8,0,1.5,0.7,1.5,1.5c0,0.8-0.7,1.5-1.5,1.5
					C265.1,147.3,264.5,146.6,264.5,145.8z"/>
				<path class="st1" d="M264.5,139.5c0-0.8,0.7-1.5,1.5-1.5c0.8,0,1.5,0.7,1.5,1.5c0,0.8-0.7,1.5-1.5,1.5
					C265.1,141,264.5,140.3,264.5,139.5z"/>
				<path class="st1" d="M264.5,133.2c0-0.8,0.7-1.5,1.5-1.5c0.8,0,1.5,0.7,1.5,1.5c0,0.8-0.7,1.5-1.5,1.5
					C265.1,134.7,264.5,134,264.5,133.2z"/>
				<path class="st1" d="M264.5,126.9c0-0.8,0.7-1.5,1.5-1.5c0.8,0,1.5,0.7,1.5,1.5c0,0.8-0.7,1.5-1.5,1.5
					C265.1,128.4,264.5,127.7,264.5,126.9z"/>
			</g>
		</g>
		<g class="st2">
			<g>
				<g>
				</g>
			</g>
		</g>
		<g class="st2">
			<g>
				<path class="st1" d="M153.4,400.9c0-0.8,0.7-1.5,1.5-1.5c0.8,0,1.5,0.7,1.5,1.5c0,0.8-0.7,1.5-1.5,1.5
					C154.1,402.3,153.4,401.7,153.4,400.9z"/>
				<path class="st1" d="M147.7,400.9c0-0.8,0.7-1.5,1.5-1.5c0.8,0,1.5,0.7,1.5,1.5c0,0.8-0.7,1.5-1.5,1.5
					C148.4,402.3,147.7,401.7,147.7,400.9z"/>
				<path class="st1" d="M147.7,394.6c0-0.8,0.7-1.5,1.5-1.5c0.8,0,1.5,0.7,1.5,1.5c0,0.8-0.7,1.5-1.5,1.5
					C148.4,396,147.7,395.4,147.7,394.6z"/>
				<path class="st1" d="M142,400.9c0-0.8,0.7-1.5,1.5-1.5c0.8,0,1.5,0.7,1.5,1.5c0,0.8-0.7,1.5-1.5,1.5
					C142.7,402.3,142,401.7,142,400.9z"/>
				<path class="st1" d="M142,394.6c0-0.8,0.7-1.5,1.5-1.5c0.8,0,1.5,0.7,1.5,1.5c0,0.8-0.7,1.5-1.5,1.5
					C142.7,396,142,395.4,142,394.6z"/>
				<path class="st1" d="M142,388.2c0-0.8,0.7-1.5,1.5-1.5c0.8,0,1.5,0.7,1.5,1.5c0,0.8-0.7,1.5-1.5,1.5
					C142.7,389.7,142,389.1,142,388.2z"/>
				<path class="st1" d="M136.4,400.9c0-0.8,0.7-1.5,1.5-1.5c0.8,0,1.5,0.7,1.5,1.5c0,0.8-0.7,1.5-1.5,1.5
					C137,402.3,136.4,401.7,136.4,400.9z"/>
				<path class="st1" d="M136.4,394.6c0-0.8,0.7-1.5,1.5-1.5c0.8,0,1.5,0.7,1.5,1.5c0,0.8-0.7,1.5-1.5,1.5
					C137,396,136.4,395.4,136.4,394.6z"/>
				<path class="st1" d="M136.4,388.2c0-0.8,0.7-1.5,1.5-1.5c0.8,0,1.5,0.7,1.5,1.5c0,0.8-0.7,1.5-1.5,1.5
					C137,389.7,136.4,389.1,136.4,388.2z"/>
				<path class="st1" d="M136.4,381.9c0-0.8,0.7-1.5,1.5-1.5c0.8,0,1.5,0.7,1.5,1.5c0,0.8-0.7,1.5-1.5,1.5
					C137,383.4,136.4,382.8,136.4,381.9z"/>
			</g>
		</g>
		<g class="st2">
			<g>
				<path class="st1" d="M393.8,335.2c0,0.8-0.7,1.5-1.5,1.5c-0.8,0-1.5-0.7-1.5-1.5c0-0.8,0.7-1.5,1.5-1.5
					C393.2,333.7,393.8,334.3,393.8,335.2z"/>
				<path class="st1" d="M393.8,341.5c0,0.8-0.7,1.5-1.5,1.5c-0.8,0-1.5-0.7-1.5-1.5c0-0.8,0.7-1.5,1.5-1.5
					C393.2,340,393.8,340.6,393.8,341.5z"/>
				<path class="st1" d="M393.8,347.8c0,0.8-0.7,1.5-1.5,1.5c-0.8,0-1.5-0.7-1.5-1.5c0-0.8,0.7-1.5,1.5-1.5
					C393.2,346.3,393.8,347,393.8,347.8z"/>
				<path class="st1" d="M393.8,354.1c0,0.8-0.7,1.5-1.5,1.5c-0.8,0-1.5-0.7-1.5-1.5c0-0.8,0.7-1.5,1.5-1.5
					C393.2,352.6,393.8,353.3,393.8,354.1z"/>
				<path class="st1" d="M393.8,360.4c0,0.8-0.7,1.5-1.5,1.5c-0.8,0-1.5-0.7-1.5-1.5s0.7-1.5,1.5-1.5
					C393.2,358.9,393.8,359.6,393.8,360.4z"/>
				<path class="st1" d="M393.8,366.7c0,0.8-0.7,1.5-1.5,1.5c-0.8,0-1.5-0.7-1.5-1.5s0.7-1.5,1.5-1.5
					C393.2,365.2,393.8,365.9,393.8,366.7z"/>
				<path class="st1" d="M393.8,373c0,0.8-0.7,1.5-1.5,1.5c-0.8,0-1.5-0.7-1.5-1.5c0-0.8,0.7-1.5,1.5-1.5
					C393.2,371.5,393.8,372.2,393.8,373z"/>
				<path class="st1" d="M393.8,379.3c0,0.8-0.7,1.5-1.5,1.5c-0.8,0-1.5-0.7-1.5-1.5c0-0.8,0.7-1.5,1.5-1.5
					C393.2,377.8,393.8,378.5,393.8,379.3z"/>
				<path class="st1" d="M399.5,335.2c0,0.8-0.7,1.5-1.5,1.5c-0.8,0-1.5-0.7-1.5-1.5c0-0.8,0.7-1.5,1.5-1.5
					C398.9,333.7,399.5,334.3,399.5,335.2z"/>
				<path class="st1" d="M399.5,341.5c0,0.8-0.7,1.5-1.5,1.5c-0.8,0-1.5-0.7-1.5-1.5c0-0.8,0.7-1.5,1.5-1.5
					C398.9,340,399.5,340.6,399.5,341.5z"/>
				<path class="st1" d="M399.5,347.8c0,0.8-0.7,1.5-1.5,1.5c-0.8,0-1.5-0.7-1.5-1.5c0-0.8,0.7-1.5,1.5-1.5
					C398.9,346.3,399.5,347,399.5,347.8z"/>
				<path class="st1" d="M399.5,354.1c0,0.8-0.7,1.5-1.5,1.5c-0.8,0-1.5-0.7-1.5-1.5c0-0.8,0.7-1.5,1.5-1.5
					C398.9,352.6,399.5,353.3,399.5,354.1z"/>
				<path class="st1" d="M399.5,360.4c0,0.8-0.7,1.5-1.5,1.5c-0.8,0-1.5-0.7-1.5-1.5s0.7-1.5,1.5-1.5
					C398.9,358.9,399.5,359.6,399.5,360.4z"/>
				<path class="st1" d="M399.5,366.7c0,0.8-0.7,1.5-1.5,1.5c-0.8,0-1.5-0.7-1.5-1.5s0.7-1.5,1.5-1.5
					C398.9,365.2,399.5,365.9,399.5,366.7z"/>
				<path class="st1" d="M399.5,373c0,0.8-0.7,1.5-1.5,1.5c-0.8,0-1.5-0.7-1.5-1.5c0-0.8,0.7-1.5,1.5-1.5
					C398.9,371.5,399.5,372.2,399.5,373z"/>
				<path class="st1" d="M399.5,379.3c0,0.8-0.7,1.5-1.5,1.5c-0.8,0-1.5-0.7-1.5-1.5c0-0.8,0.7-1.5,1.5-1.5
					C398.9,377.8,399.5,378.5,399.5,379.3z"/>
				<path class="st1" d="M399.5,385.6c0,0.8-0.7,1.5-1.5,1.5c-0.8,0-1.5-0.7-1.5-1.5c0-0.8,0.7-1.5,1.5-1.5
					C398.9,384.1,399.5,384.8,399.5,385.6z"/>
			</g>
			<g>
				<path class="st1" d="M396.6,328.8c0-0.8,0.7-1.5,1.5-1.5c0.8,0,1.5,0.7,1.5,1.5c0,0.8-0.7,1.5-1.5,1.5
					C397.2,330.3,396.6,329.7,396.6,328.8z"/>
				<path class="st1" d="M396.6,322.5c0-0.8,0.7-1.5,1.5-1.5c0.8,0,1.5,0.7,1.5,1.5c0,0.8-0.7,1.5-1.5,1.5
					C397.2,324,396.6,323.3,396.6,322.5z"/>
				<path class="st1" d="M396.6,316.2c0-0.8,0.7-1.5,1.5-1.5c0.8,0,1.5,0.7,1.5,1.5c0,0.8-0.7,1.5-1.5,1.5
					C397.2,317.7,396.6,317,396.6,316.2z"/>
				<path class="st1" d="M396.6,309.9c0-0.8,0.7-1.5,1.5-1.5c0.8,0,1.5,0.7,1.5,1.5c0,0.8-0.7,1.5-1.5,1.5
					C397.2,311.4,396.6,310.7,396.6,309.9z"/>
				<path class="st1" d="M396.6,303.6c0-0.8,0.7-1.5,1.5-1.5c0.8,0,1.5,0.7,1.5,1.5c0,0.8-0.7,1.5-1.5,1.5
					C397.2,305.1,396.6,304.4,396.6,303.6z"/>
				<path class="st1" d="M396.6,297.3c0-0.8,0.7-1.5,1.5-1.5c0.8,0,1.5,0.7,1.5,1.5c0,0.8-0.7,1.5-1.5,1.5
					C397.2,298.8,396.6,298.1,396.6,297.3z"/>
				<path class="st1" d="M396.6,291c0-0.8,0.7-1.5,1.5-1.5c0.8,0,1.5,0.7,1.5,1.5c0,0.8-0.7,1.5-1.5,1.5
					C397.2,292.5,396.6,291.8,396.6,291z"/>
				<path class="st1" d="M396.6,284.7c0-0.8,0.7-1.5,1.5-1.5c0.8,0,1.5,0.7,1.5,1.5c0,0.8-0.7,1.5-1.5,1.5
					C397.2,286.2,396.6,285.5,396.6,284.7z"/>
				<path class="st1" d="M396.6,278.4c0-0.8,0.7-1.5,1.5-1.5c0.8,0,1.5,0.7,1.5,1.5c0,0.8-0.7,1.5-1.5,1.5
					C397.2,279.9,396.6,279.2,396.6,278.4z"/>
				<path class="st1" d="M396.6,272.1c0-0.8,0.7-1.5,1.5-1.5c0.8,0,1.5,0.7,1.5,1.5s-0.7,1.5-1.5,1.5
					C397.2,273.5,396.6,272.9,396.6,272.1z"/>
				<path class="st1" d="M396.6,265.8c0-0.8,0.7-1.5,1.5-1.5c0.8,0,1.5,0.7,1.5,1.5c0,0.8-0.7,1.5-1.5,1.5
					C397.2,267.2,396.6,266.6,396.6,265.8z"/>
				<path class="st1" d="M396.6,259.5c0-0.8,0.7-1.5,1.5-1.5c0.8,0,1.5,0.7,1.5,1.5c0,0.8-0.7,1.5-1.5,1.5
					C397.2,260.9,396.6,260.3,396.6,259.5z"/>
				<path class="st1" d="M390.9,328.8c0-0.8,0.7-1.5,1.5-1.5c0.8,0,1.5,0.7,1.5,1.5c0,0.8-0.7,1.5-1.5,1.5
					C391.6,330.3,390.9,329.7,390.9,328.8z"/>
				<path class="st1" d="M390.9,322.5c0-0.8,0.7-1.5,1.5-1.5c0.8,0,1.5,0.7,1.5,1.5c0,0.8-0.7,1.5-1.5,1.5
					C391.6,324,390.9,323.3,390.9,322.5z"/>
				<path class="st1" d="M390.9,316.2c0-0.8,0.7-1.5,1.5-1.5c0.8,0,1.5,0.7,1.5,1.5c0,0.8-0.7,1.5-1.5,1.5
					C391.6,317.7,390.9,317,390.9,316.2z"/>
				<path class="st1" d="M390.9,309.9c0-0.8,0.7-1.5,1.5-1.5c0.8,0,1.5,0.7,1.5,1.5c0,0.8-0.7,1.5-1.5,1.5
					C391.6,311.4,390.9,310.7,390.9,309.9z"/>
				<path class="st1" d="M390.9,303.6c0-0.8,0.7-1.5,1.5-1.5c0.8,0,1.5,0.7,1.5,1.5c0,0.8-0.7,1.5-1.5,1.5
					C391.6,305.1,390.9,304.4,390.9,303.6z"/>
				<path class="st1" d="M390.9,297.3c0-0.8,0.7-1.5,1.5-1.5c0.8,0,1.5,0.7,1.5,1.5c0,0.8-0.7,1.5-1.5,1.5
					C391.6,298.8,390.9,298.1,390.9,297.3z"/>
				<path class="st1" d="M390.9,291c0-0.8,0.7-1.5,1.5-1.5c0.8,0,1.5,0.7,1.5,1.5c0,0.8-0.7,1.5-1.5,1.5
					C391.6,292.5,390.9,291.8,390.9,291z"/>
				<path class="st1" d="M390.9,284.7c0-0.8,0.7-1.5,1.5-1.5c0.8,0,1.5,0.7,1.5,1.5c0,0.8-0.7,1.5-1.5,1.5
					C391.6,286.2,390.9,285.5,390.9,284.7z"/>
				<path class="st1" d="M390.9,278.4c0-0.8,0.7-1.5,1.5-1.5c0.8,0,1.5,0.7,1.5,1.5c0,0.8-0.7,1.5-1.5,1.5
					C391.6,279.9,390.9,279.2,390.9,278.4z"/>
				<path class="st1" d="M390.9,272.1c0-0.8,0.7-1.5,1.5-1.5c0.8,0,1.5,0.7,1.5,1.5s-0.7,1.5-1.5,1.5
					C391.6,273.5,390.9,272.9,390.9,272.1z"/>
				<path class="st1" d="M390.9,265.8c0-0.8,0.7-1.5,1.5-1.5c0.8,0,1.5,0.7,1.5,1.5c0,0.8-0.7,1.5-1.5,1.5
					C391.6,267.2,390.9,266.6,390.9,265.8z"/>
				<path class="st1" d="M390.9,259.5c0-0.8,0.7-1.5,1.5-1.5c0.8,0,1.5,0.7,1.5,1.5c0,0.8-0.7,1.5-1.5,1.5
					C391.6,260.9,390.9,260.3,390.9,259.5z"/>
				<path class="st1" d="M390.9,253.2c0-0.8,0.7-1.5,1.5-1.5c0.8,0,1.5,0.7,1.5,1.5c0,0.8-0.7,1.5-1.5,1.5
					C391.6,254.6,390.9,254,390.9,253.2z"/>
			</g>
		</g>
		<g class="st2">
			<g>
				<path class="st1" d="M16.6,4.5c0,0.8-0.7,1.5-1.5,1.5c-0.8,0-1.5-0.7-1.5-1.5c0-0.8,0.7-1.5,1.5-1.5C15.9,3.1,16.6,3.7,16.6,4.5
					z"/>
				<path class="st1" d="M22.3,4.5c0,0.8-0.7,1.5-1.5,1.5c-0.8,0-1.5-0.7-1.5-1.5c0-0.8,0.7-1.5,1.5-1.5C21.6,3.1,22.3,3.7,22.3,4.5
					z"/>
				<path class="st1" d="M22.3,10.8c0,0.8-0.7,1.5-1.5,1.5c-0.8,0-1.5-0.7-1.5-1.5c0-0.8,0.7-1.5,1.5-1.5
					C21.6,9.4,22.3,10,22.3,10.8z"/>
				<path class="st1" d="M28,4.5C28,5.3,27.3,6,26.5,6C25.7,6,25,5.3,25,4.5c0-0.8,0.7-1.5,1.5-1.5C27.3,3.1,28,3.7,28,4.5z"/>
				<path class="st1" d="M28,10.8c0,0.8-0.7,1.5-1.5,1.5c-0.8,0-1.5-0.7-1.5-1.5c0-0.8,0.7-1.5,1.5-1.5C27.3,9.4,28,10,28,10.8z"/>
				<path class="st1" d="M28,17.1c0,0.8-0.7,1.5-1.5,1.5c-0.8,0-1.5-0.7-1.5-1.5c0-0.8,0.7-1.5,1.5-1.5C27.3,15.7,28,16.3,28,17.1z"
					/>
			</g>
		</g>
		<g class="st2">
			<g>
				<path class="st1" d="M5.2,335.2c0,0.8-0.7,1.5-1.5,1.5c-0.8,0-1.5-0.7-1.5-1.5c0-0.8,0.7-1.5,1.5-1.5
					C4.6,333.7,5.2,334.3,5.2,335.2z"/>
				<path class="st1" d="M5.2,341.5c0,0.8-0.7,1.5-1.5,1.5c-0.8,0-1.5-0.7-1.5-1.5c0-0.8,0.7-1.5,1.5-1.5
					C4.6,340,5.2,340.6,5.2,341.5z"/>
				<path class="st1" d="M5.2,347.8c0,0.8-0.7,1.5-1.5,1.5c-0.8,0-1.5-0.7-1.5-1.5c0-0.8,0.7-1.5,1.5-1.5
					C4.6,346.3,5.2,347,5.2,347.8z"/>
				<circle class="st1" cx="3.7" cy="354.1" r="1.5"/>
				<path class="st1" d="M5.2,360.4c0,0.8-0.7,1.5-1.5,1.5c-0.8,0-1.5-0.7-1.5-1.5s0.7-1.5,1.5-1.5C4.6,358.9,5.2,359.6,5.2,360.4z"
					/>
				<circle class="st1" cx="3.7" cy="366.7" r="1.5"/>
				<path class="st1" d="M5.2,373c0,0.8-0.7,1.5-1.5,1.5c-0.8,0-1.5-0.7-1.5-1.5c0-0.8,0.7-1.5,1.5-1.5C4.6,371.5,5.2,372.2,5.2,373
					z"/>
				<path class="st1" d="M5.2,379.3c0,0.8-0.7,1.5-1.5,1.5c-0.8,0-1.5-0.7-1.5-1.5c0-0.8,0.7-1.5,1.5-1.5
					C4.6,377.8,5.2,378.5,5.2,379.3z"/>
				<path class="st1" d="M5.2,385.6c0,0.8-0.7,1.5-1.5,1.5c-0.8,0-1.5-0.7-1.5-1.5c0-0.8,0.7-1.5,1.5-1.5
					C4.6,384.1,5.2,384.8,5.2,385.6z"/>
				<circle class="st1" cx="3.7" cy="391.9" r="1.5"/>
				<path class="st1" d="M10.9,335.2c0,0.8-0.7,1.5-1.5,1.5c-0.8,0-1.5-0.7-1.5-1.5c0-0.8,0.7-1.5,1.5-1.5
					C10.3,333.7,10.9,334.3,10.9,335.2z"/>
				<path class="st1" d="M10.9,341.5c0,0.8-0.7,1.5-1.5,1.5c-0.8,0-1.5-0.7-1.5-1.5c0-0.8,0.7-1.5,1.5-1.5
					C10.3,340,10.9,340.6,10.9,341.5z"/>
				<path class="st1" d="M10.9,347.8c0,0.8-0.7,1.5-1.5,1.5c-0.8,0-1.5-0.7-1.5-1.5c0-0.8,0.7-1.5,1.5-1.5
					C10.3,346.3,10.9,347,10.9,347.8z"/>
				<path class="st1" d="M10.9,354.1c0,0.8-0.7,1.5-1.5,1.5c-0.8,0-1.5-0.7-1.5-1.5c0-0.8,0.7-1.5,1.5-1.5
					C10.3,352.6,10.9,353.3,10.9,354.1z"/>
				<path class="st1" d="M10.9,360.4c0,0.8-0.7,1.5-1.5,1.5c-0.8,0-1.5-0.7-1.5-1.5s0.7-1.5,1.5-1.5
					C10.3,358.9,10.9,359.6,10.9,360.4z"/>
				<path class="st1" d="M10.9,366.7c0,0.8-0.7,1.5-1.5,1.5c-0.8,0-1.5-0.7-1.5-1.5s0.7-1.5,1.5-1.5
					C10.3,365.2,10.9,365.9,10.9,366.7z"/>
				<path class="st1" d="M10.9,373c0,0.8-0.7,1.5-1.5,1.5c-0.8,0-1.5-0.7-1.5-1.5c0-0.8,0.7-1.5,1.5-1.5
					C10.3,371.5,10.9,372.2,10.9,373z"/>
				<path class="st1" d="M10.9,379.3c0,0.8-0.7,1.5-1.5,1.5c-0.8,0-1.5-0.7-1.5-1.5c0-0.8,0.7-1.5,1.5-1.5
					C10.3,377.8,10.9,378.5,10.9,379.3z"/>
				<path class="st1" d="M10.9,385.6c0,0.8-0.7,1.5-1.5,1.5c-0.8,0-1.5-0.7-1.5-1.5c0-0.8,0.7-1.5,1.5-1.5
					C10.3,384.1,10.9,384.8,10.9,385.6z"/>
				<path class="st1" d="M10.9,391.9c0,0.8-0.7,1.5-1.5,1.5c-0.8,0-1.5-0.7-1.5-1.5c0-0.8,0.7-1.5,1.5-1.5
					C10.3,390.4,10.9,391.1,10.9,391.9z"/>
				<path class="st1" d="M10.9,398.2c0,0.8-0.7,1.5-1.5,1.5c-0.8,0-1.5-0.7-1.5-1.5c0-0.8,0.7-1.5,1.5-1.5
					C10.3,396.8,10.9,397.4,10.9,398.2z"/>
				<path class="st1" d="M16.6,335.2c0,0.8-0.7,1.5-1.5,1.5c-0.8,0-1.5-0.7-1.5-1.5c0-0.8,0.7-1.5,1.5-1.5
					C15.9,333.7,16.6,334.3,16.6,335.2z"/>
				<path class="st1" d="M16.6,341.5c0,0.8-0.7,1.5-1.5,1.5c-0.8,0-1.5-0.7-1.5-1.5c0-0.8,0.7-1.5,1.5-1.5
					C15.9,340,16.6,340.6,16.6,341.5z"/>
				<path class="st1" d="M16.6,347.8c0,0.8-0.7,1.5-1.5,1.5c-0.8,0-1.5-0.7-1.5-1.5c0-0.8,0.7-1.5,1.5-1.5
					C15.9,346.3,16.6,347,16.6,347.8z"/>
				<path class="st1" d="M16.6,354.1c0,0.8-0.7,1.5-1.5,1.5c-0.8,0-1.5-0.7-1.5-1.5c0-0.8,0.7-1.5,1.5-1.5
					C15.9,352.6,16.6,353.3,16.6,354.1z"/>
				<path class="st1" d="M16.6,360.4c0,0.8-0.7,1.5-1.5,1.5c-0.8,0-1.5-0.7-1.5-1.5s0.7-1.5,1.5-1.5
					C15.9,358.9,16.6,359.6,16.6,360.4z"/>
				<path class="st1" d="M16.6,366.7c0,0.8-0.7,1.5-1.5,1.5c-0.8,0-1.5-0.7-1.5-1.5s0.7-1.5,1.5-1.5
					C15.9,365.2,16.6,365.9,16.6,366.7z"/>
				<path class="st1" d="M16.6,373c0,0.8-0.7,1.5-1.5,1.5c-0.8,0-1.5-0.7-1.5-1.5c0-0.8,0.7-1.5,1.5-1.5
					C15.9,371.5,16.6,372.2,16.6,373z"/>
				<path class="st1" d="M16.6,379.3c0,0.8-0.7,1.5-1.5,1.5c-0.8,0-1.5-0.7-1.5-1.5c0-0.8,0.7-1.5,1.5-1.5
					C15.9,377.8,16.6,378.5,16.6,379.3z"/>
				<path class="st1" d="M16.6,385.6c0,0.8-0.7,1.5-1.5,1.5c-0.8,0-1.5-0.7-1.5-1.5c0-0.8,0.7-1.5,1.5-1.5
					C15.9,384.1,16.6,384.8,16.6,385.6z"/>
				<path class="st1" d="M16.6,391.9c0,0.8-0.7,1.5-1.5,1.5c-0.8,0-1.5-0.7-1.5-1.5c0-0.8,0.7-1.5,1.5-1.5
					C15.9,390.4,16.6,391.1,16.6,391.9z"/>
				<path class="st1" d="M16.6,398.2c0,0.8-0.7,1.5-1.5,1.5c-0.8,0-1.5-0.7-1.5-1.5c0-0.8,0.7-1.5,1.5-1.5
					C15.9,396.8,16.6,397.4,16.6,398.2z"/>
				<path class="st1" d="M22.3,335.2c0,0.8-0.7,1.5-1.5,1.5c-0.8,0-1.5-0.7-1.5-1.5c0-0.8,0.7-1.5,1.5-1.5
					C21.6,333.7,22.3,334.3,22.3,335.2z"/>
				<path class="st1" d="M22.3,341.5c0,0.8-0.7,1.5-1.5,1.5c-0.8,0-1.5-0.7-1.5-1.5c0-0.8,0.7-1.5,1.5-1.5
					C21.6,340,22.3,340.6,22.3,341.5z"/>
				<path class="st1" d="M22.3,347.8c0,0.8-0.7,1.5-1.5,1.5c-0.8,0-1.5-0.7-1.5-1.5c0-0.8,0.7-1.5,1.5-1.5
					C21.6,346.3,22.3,347,22.3,347.8z"/>
				<path class="st1" d="M22.3,354.1c0,0.8-0.7,1.5-1.5,1.5c-0.8,0-1.5-0.7-1.5-1.5c0-0.8,0.7-1.5,1.5-1.5
					C21.6,352.6,22.3,353.3,22.3,354.1z"/>
				<path class="st1" d="M22.3,360.4c0,0.8-0.7,1.5-1.5,1.5c-0.8,0-1.5-0.7-1.5-1.5s0.7-1.5,1.5-1.5
					C21.6,358.9,22.3,359.6,22.3,360.4z"/>
				<path class="st1" d="M22.3,366.7c0,0.8-0.7,1.5-1.5,1.5c-0.8,0-1.5-0.7-1.5-1.5s0.7-1.5,1.5-1.5
					C21.6,365.2,22.3,365.9,22.3,366.7z"/>
				<path class="st1" d="M22.3,373c0,0.8-0.7,1.5-1.5,1.5c-0.8,0-1.5-0.7-1.5-1.5c0-0.8,0.7-1.5,1.5-1.5
					C21.6,371.5,22.3,372.2,22.3,373z"/>
				<path class="st1" d="M22.3,379.3c0,0.8-0.7,1.5-1.5,1.5c-0.8,0-1.5-0.7-1.5-1.5c0-0.8,0.7-1.5,1.5-1.5
					C21.6,377.8,22.3,378.5,22.3,379.3z"/>
				<path class="st1" d="M22.3,385.6c0,0.8-0.7,1.5-1.5,1.5c-0.8,0-1.5-0.7-1.5-1.5c0-0.8,0.7-1.5,1.5-1.5
					C21.6,384.1,22.3,384.8,22.3,385.6z"/>
				<path class="st1" d="M22.3,391.9c0,0.8-0.7,1.5-1.5,1.5c-0.8,0-1.5-0.7-1.5-1.5c0-0.8,0.7-1.5,1.5-1.5
					C21.6,390.4,22.3,391.1,22.3,391.9z"/>
				<path class="st1" d="M22.3,398.2c0,0.8-0.7,1.5-1.5,1.5c-0.8,0-1.5-0.7-1.5-1.5c0-0.8,0.7-1.5,1.5-1.5
					C21.6,396.8,22.3,397.4,22.3,398.2z"/>
				<path class="st1" d="M28,335.2c0,0.8-0.7,1.5-1.5,1.5c-0.8,0-1.5-0.7-1.5-1.5c0-0.8,0.7-1.5,1.5-1.5
					C27.3,333.7,28,334.3,28,335.2z"/>
				<path class="st1" d="M28,341.5c0,0.8-0.7,1.5-1.5,1.5c-0.8,0-1.5-0.7-1.5-1.5c0-0.8,0.7-1.5,1.5-1.5C27.3,340,28,340.6,28,341.5
					z"/>
				<path class="st1" d="M28,347.8c0,0.8-0.7,1.5-1.5,1.5c-0.8,0-1.5-0.7-1.5-1.5c0-0.8,0.7-1.5,1.5-1.5C27.3,346.3,28,347,28,347.8
					z"/>
				<path class="st1" d="M28,354.1c0,0.8-0.7,1.5-1.5,1.5c-0.8,0-1.5-0.7-1.5-1.5c0-0.8,0.7-1.5,1.5-1.5
					C27.3,352.6,28,353.3,28,354.1z"/>
				<path class="st1" d="M28,360.4c0,0.8-0.7,1.5-1.5,1.5c-0.8,0-1.5-0.7-1.5-1.5s0.7-1.5,1.5-1.5C27.3,358.9,28,359.6,28,360.4z"/>
				<path class="st1" d="M28,366.7c0,0.8-0.7,1.5-1.5,1.5c-0.8,0-1.5-0.7-1.5-1.5s0.7-1.5,1.5-1.5C27.3,365.2,28,365.9,28,366.7z"/>
				<path class="st1" d="M28,373c0,0.8-0.7,1.5-1.5,1.5c-0.8,0-1.5-0.7-1.5-1.5c0-0.8,0.7-1.5,1.5-1.5C27.3,371.5,28,372.2,28,373z"
					/>
				<path class="st1" d="M28,379.3c0,0.8-0.7,1.5-1.5,1.5c-0.8,0-1.5-0.7-1.5-1.5c0-0.8,0.7-1.5,1.5-1.5
					C27.3,377.8,28,378.5,28,379.3z"/>
				<path class="st1" d="M28,385.6c0,0.8-0.7,1.5-1.5,1.5c-0.8,0-1.5-0.7-1.5-1.5c0-0.8,0.7-1.5,1.5-1.5
					C27.3,384.1,28,384.8,28,385.6z"/>
				<path class="st1" d="M28,391.9c0,0.8-0.7,1.5-1.5,1.5c-0.8,0-1.5-0.7-1.5-1.5c0-0.8,0.7-1.5,1.5-1.5
					C27.3,390.4,28,391.1,28,391.9z"/>
				<path class="st1" d="M28,398.2c0,0.8-0.7,1.5-1.5,1.5c-0.8,0-1.5-0.7-1.5-1.5c0-0.8,0.7-1.5,1.5-1.5
					C27.3,396.8,28,397.4,28,398.2z"/>
			</g>
			<g>
				<path class="st1" d="M25,328.8c0-0.8,0.7-1.5,1.5-1.5c0.8,0,1.5,0.7,1.5,1.5c0,0.8-0.7,1.5-1.5,1.5
					C25.7,330.3,25,329.7,25,328.8z"/>
				<path class="st1" d="M25,322.5c0-0.8,0.7-1.5,1.5-1.5c0.8,0,1.5,0.7,1.5,1.5c0,0.8-0.7,1.5-1.5,1.5C25.7,324,25,323.3,25,322.5z
					"/>
				<path class="st1" d="M25,316.2c0-0.8,0.7-1.5,1.5-1.5c0.8,0,1.5,0.7,1.5,1.5c0,0.8-0.7,1.5-1.5,1.5C25.7,317.7,25,317,25,316.2z
					"/>
				<path class="st1" d="M25,309.9c0-0.8,0.7-1.5,1.5-1.5c0.8,0,1.5,0.7,1.5,1.5c0,0.8-0.7,1.5-1.5,1.5
					C25.7,311.4,25,310.7,25,309.9z"/>
				<path class="st1" d="M25,303.6c0-0.8,0.7-1.5,1.5-1.5c0.8,0,1.5,0.7,1.5,1.5c0,0.8-0.7,1.5-1.5,1.5
					C25.7,305.1,25,304.4,25,303.6z"/>
				<path class="st1" d="M25,297.3c0-0.8,0.7-1.5,1.5-1.5c0.8,0,1.5,0.7,1.5,1.5c0,0.8-0.7,1.5-1.5,1.5
					C25.7,298.8,25,298.1,25,297.3z"/>
				<path class="st1" d="M25,291c0-0.8,0.7-1.5,1.5-1.5c0.8,0,1.5,0.7,1.5,1.5c0,0.8-0.7,1.5-1.5,1.5C25.7,292.5,25,291.8,25,291z"
					/>
				<path class="st1" d="M19.4,328.8c0-0.8,0.7-1.5,1.5-1.5c0.8,0,1.5,0.7,1.5,1.5c0,0.8-0.7,1.5-1.5,1.5
					C20,330.3,19.4,329.7,19.4,328.8z"/>
				<path class="st1" d="M19.4,322.5c0-0.8,0.7-1.5,1.5-1.5c0.8,0,1.5,0.7,1.5,1.5c0,0.8-0.7,1.5-1.5,1.5
					C20,324,19.4,323.3,19.4,322.5z"/>
				<path class="st1" d="M19.4,316.2c0-0.8,0.7-1.5,1.5-1.5c0.8,0,1.5,0.7,1.5,1.5c0,0.8-0.7,1.5-1.5,1.5
					C20,317.7,19.4,317,19.4,316.2z"/>
				<path class="st1" d="M19.4,309.9c0-0.8,0.7-1.5,1.5-1.5c0.8,0,1.5,0.7,1.5,1.5c0,0.8-0.7,1.5-1.5,1.5
					C20,311.4,19.4,310.7,19.4,309.9z"/>
				<path class="st1" d="M19.4,303.6c0-0.8,0.7-1.5,1.5-1.5c0.8,0,1.5,0.7,1.5,1.5c0,0.8-0.7,1.5-1.5,1.5
					C20,305.1,19.4,304.4,19.4,303.6z"/>
				<path class="st1" d="M19.4,297.3c0-0.8,0.7-1.5,1.5-1.5c0.8,0,1.5,0.7,1.5,1.5c0,0.8-0.7,1.5-1.5,1.5
					C20,298.8,19.4,298.1,19.4,297.3z"/>
				<path class="st1" d="M19.4,291c0-0.8,0.7-1.5,1.5-1.5c0.8,0,1.5,0.7,1.5,1.5c0,0.8-0.7,1.5-1.5,1.5
					C20,292.5,19.4,291.8,19.4,291z"/>
				<path class="st1" d="M19.4,284.7c0-0.8,0.7-1.5,1.5-1.5c0.8,0,1.5,0.7,1.5,1.5c0,0.8-0.7,1.5-1.5,1.5
					C20,286.2,19.4,285.5,19.4,284.7z"/>
				<path class="st1" d="M13.7,328.8c0-0.8,0.7-1.5,1.5-1.5c0.8,0,1.5,0.7,1.5,1.5c0,0.8-0.7,1.5-1.5,1.5
					C14.3,330.3,13.7,329.7,13.7,328.8z"/>
				<path class="st1" d="M13.7,322.5c0-0.8,0.7-1.5,1.5-1.5c0.8,0,1.5,0.7,1.5,1.5c0,0.8-0.7,1.5-1.5,1.5
					C14.3,324,13.7,323.3,13.7,322.5z"/>
				<path class="st1" d="M13.7,316.2c0-0.8,0.7-1.5,1.5-1.5c0.8,0,1.5,0.7,1.5,1.5c0,0.8-0.7,1.5-1.5,1.5
					C14.3,317.7,13.7,317,13.7,316.2z"/>
				<path class="st1" d="M13.7,309.9c0-0.8,0.7-1.5,1.5-1.5c0.8,0,1.5,0.7,1.5,1.5c0,0.8-0.7,1.5-1.5,1.5
					C14.3,311.4,13.7,310.7,13.7,309.9z"/>
				<path class="st1" d="M13.7,303.6c0-0.8,0.7-1.5,1.5-1.5c0.8,0,1.5,0.7,1.5,1.5c0,0.8-0.7,1.5-1.5,1.5
					C14.3,305.1,13.7,304.4,13.7,303.6z"/>
				<path class="st1" d="M13.7,297.3c0-0.8,0.7-1.5,1.5-1.5c0.8,0,1.5,0.7,1.5,1.5c0,0.8-0.7,1.5-1.5,1.5
					C14.3,298.8,13.7,298.1,13.7,297.3z"/>
				<path class="st1" d="M13.7,291c0-0.8,0.7-1.5,1.5-1.5c0.8,0,1.5,0.7,1.5,1.5c0,0.8-0.7,1.5-1.5,1.5
					C14.3,292.5,13.7,291.8,13.7,291z"/>
				<path class="st1" d="M13.7,284.7c0-0.8,0.7-1.5,1.5-1.5c0.8,0,1.5,0.7,1.5,1.5c0,0.8-0.7,1.5-1.5,1.5
					C14.3,286.2,13.7,285.5,13.7,284.7z"/>
				<path class="st1" d="M13.7,278.4c0-0.8,0.7-1.5,1.5-1.5c0.8,0,1.5,0.7,1.5,1.5c0,0.8-0.7,1.5-1.5,1.5
					C14.3,279.9,13.7,279.2,13.7,278.4z"/>
				<path class="st1" d="M8,328.8c0-0.8,0.7-1.5,1.5-1.5c0.8,0,1.5,0.7,1.5,1.5c0,0.8-0.7,1.5-1.5,1.5C8.6,330.3,8,329.7,8,328.8z"
					/>
				<path class="st1" d="M8,322.5c0-0.8,0.7-1.5,1.5-1.5c0.8,0,1.5,0.7,1.5,1.5c0,0.8-0.7,1.5-1.5,1.5C8.6,324,8,323.3,8,322.5z"/>
				<path class="st1" d="M8,316.2c0-0.8,0.7-1.5,1.5-1.5c0.8,0,1.5,0.7,1.5,1.5c0,0.8-0.7,1.5-1.5,1.5C8.6,317.7,8,317,8,316.2z"/>
				<path class="st1" d="M8,309.9c0-0.8,0.7-1.5,1.5-1.5c0.8,0,1.5,0.7,1.5,1.5c0,0.8-0.7,1.5-1.5,1.5C8.6,311.4,8,310.7,8,309.9z"
					/>
				<path class="st1" d="M8,303.6c0-0.8,0.7-1.5,1.5-1.5c0.8,0,1.5,0.7,1.5,1.5c0,0.8-0.7,1.5-1.5,1.5C8.6,305.1,8,304.4,8,303.6z"
					/>
				<path class="st1" d="M8,297.3c0-0.8,0.7-1.5,1.5-1.5c0.8,0,1.5,0.7,1.5,1.5c0,0.8-0.7,1.5-1.5,1.5C8.6,298.8,8,298.1,8,297.3z"
					/>
				<path class="st1" d="M8,291c0-0.8,0.7-1.5,1.5-1.5c0.8,0,1.5,0.7,1.5,1.5c0,0.8-0.7,1.5-1.5,1.5C8.6,292.5,8,291.8,8,291z"/>
				<path class="st1" d="M8,284.7c0-0.8,0.7-1.5,1.5-1.5c0.8,0,1.5,0.7,1.5,1.5c0,0.8-0.7,1.5-1.5,1.5C8.6,286.2,8,285.5,8,284.7z"
					/>
				<path class="st1" d="M8,278.4c0-0.8,0.7-1.5,1.5-1.5c0.8,0,1.5,0.7,1.5,1.5c0,0.8-0.7,1.5-1.5,1.5C8.6,279.9,8,279.2,8,278.4z"
					/>
				<path class="st1" d="M8,272.1c0-0.8,0.7-1.5,1.5-1.5c0.8,0,1.5,0.7,1.5,1.5s-0.7,1.5-1.5,1.5C8.6,273.5,8,272.9,8,272.1z"/>
				<path class="st1" d="M2.3,328.8c0-0.8,0.7-1.5,1.5-1.5c0.8,0,1.5,0.7,1.5,1.5c0,0.8-0.7,1.5-1.5,1.5
					C2.9,330.3,2.3,329.7,2.3,328.8z"/>
				<path class="st1" d="M2.3,322.5c0-0.8,0.7-1.5,1.5-1.5c0.8,0,1.5,0.7,1.5,1.5c0,0.8-0.7,1.5-1.5,1.5
					C2.9,324,2.3,323.3,2.3,322.5z"/>
				<path class="st1" d="M2.3,316.2c0-0.8,0.7-1.5,1.5-1.5c0.8,0,1.5,0.7,1.5,1.5c0,0.8-0.7,1.5-1.5,1.5
					C2.9,317.7,2.3,317,2.3,316.2z"/>
				<path class="st1" d="M2.3,309.9c0-0.8,0.7-1.5,1.5-1.5c0.8,0,1.5,0.7,1.5,1.5c0,0.8-0.7,1.5-1.5,1.5
					C2.9,311.4,2.3,310.7,2.3,309.9z"/>
				<path class="st1" d="M2.3,303.6c0-0.8,0.7-1.5,1.5-1.5c0.8,0,1.5,0.7,1.5,1.5c0,0.8-0.7,1.5-1.5,1.5
					C2.9,305.1,2.3,304.4,2.3,303.6z"/>
				<path class="st1" d="M2.3,297.3c0-0.8,0.7-1.5,1.5-1.5c0.8,0,1.5,0.7,1.5,1.5c0,0.8-0.7,1.5-1.5,1.5
					C2.9,298.8,2.3,298.1,2.3,297.3z"/>
				<circle class="st1" cx="3.7" cy="291" r="1.5"/>
				<path class="st1" d="M2.3,284.7c0-0.8,0.7-1.5,1.5-1.5c0.8,0,1.5,0.7,1.5,1.5c0,0.8-0.7,1.5-1.5,1.5
					C2.9,286.2,2.3,285.5,2.3,284.7z"/>
				<path class="st1" d="M2.3,278.4c0-0.8,0.7-1.5,1.5-1.5c0.8,0,1.5,0.7,1.5,1.5c0,0.8-0.7,1.5-1.5,1.5
					C2.9,279.9,2.3,279.2,2.3,278.4z"/>
				<path class="st1" d="M2.3,272.1c0-0.8,0.7-1.5,1.5-1.5c0.8,0,1.5,0.7,1.5,1.5s-0.7,1.5-1.5,1.5C2.9,273.5,2.3,272.9,2.3,272.1z"
					/>
				<circle class="st1" cx="3.7" cy="265.8" r="1.5"/>
			</g>
		</g>
	</g>
	<g>
		<defs>
			<rect id="SVGID_52_" width="400" height="400"/>
		</defs>
		<clipPath id="SVGID_3_">
			<use xlink:href="#SVGID_52_"  style="overflow:visible;"/>
		</clipPath>
		<path class="st3" d="M290.7,397.7V412l55.6-8.6v-14.2l-35.2-10.4l-5.5,1.1L290.7,397.7z"/>
		<polygon class="st3" points="302.1,388.7 307.2,392.8 310.7,391.1 319,389.9 328.4,385.5 309.9,375.7 		"/>
		<path class="st4" d="M346.2,389.1l-40.7-23.5l-14.9,32.1L346.2,389.1z M310.7,377l15.7,9.1l-21.5,3.3L310.7,377z"/>
		<path class="st5" d="M179.4,111.1h-42v42h42V111.1z M143.8,132.2c0-8.1,6.5-14.6,14.6-14.6c8.1,0,14.6,6.5,14.6,14.6
			c0,8.1-6.5,14.6-14.6,14.6C150.3,146.8,143.8,140.3,143.8,132.2z"/>
		<circle class="st6" cx="123.9" cy="276.4" r="24.9"/>
		<path class="st3" d="M123.9,277.8c-0.2,0-0.5-0.1-0.7-0.2L86,256.1c-0.4-0.2-0.7-0.7-0.7-1.2s0.3-0.9,0.7-1.2l37.2-21.5
			c0.4-0.2,0.9-0.2,1.3,0l37.2,21.5c0.4,0.2,0.7,0.7,0.7,1.2c0,0.5-0.3,0.9-0.7,1.2l-37.2,21.5C124.3,277.7,124.1,277.8,123.9,277.8
			z M89.3,254.9l34.5,19.9l34.5-19.9L123.9,235L89.3,254.9z"/>
		<path class="st3" d="M123.9,320.7c-0.2,0-0.5-0.1-0.7-0.2c-0.4-0.2-0.7-0.7-0.7-1.2l0-43c0-0.5,0.3-0.9,0.7-1.2l37.2-21.5
			c0.4-0.2,0.9-0.2,1.3,0c0.4,0.2,0.7,0.7,0.7,1.2v43c0,0.5-0.3,0.9-0.7,1.2l-37.2,21.5C124.3,320.7,124.1,320.7,123.9,320.7z
			 M125.2,277.2l0,39.9l34.5-19.9v-39.9L125.2,277.2z M161.1,297.9L161.1,297.9L161.1,297.9z"/>
		<path class="st3" d="M123.9,320.7c-0.2,0-0.5-0.1-0.7-0.2L86,299.1c-0.4-0.2-0.7-0.7-0.7-1.2l0-43c0-0.5,0.3-0.9,0.7-1.2
			c0.4-0.2,0.9-0.2,1.3,0l37.2,21.5c0.4,0.2,0.7,0.7,0.7,1.2v43c0,0.5-0.3,0.9-0.7,1.2C124.3,320.7,124.1,320.7,123.9,320.7z
			 M88,297.1l34.5,19.9v-39.9L88,257.3L88,297.1z"/>
		
			<rect x="198.1" y="-17.9" transform="matrix(0.7071 -0.7071 0.7071 0.7071 63.0704 153.2885)" class="st5" width="36.9" height="36.9"/>
		<path class="st3" d="M216.6,1.8c-0.2,0-0.5-0.1-0.7-0.2l-37.2-21.5c-0.4-0.2-0.7-0.7-0.7-1.2s0.3-0.9,0.7-1.2l37.2-21.5
			c0.4-0.2,0.9-0.2,1.3,0l37.2,21.5c0.4,0.2,0.7,0.7,0.7,1.2s-0.3,0.9-0.7,1.2L217.2,1.7C217,1.8,216.8,1.8,216.6,1.8z M182-21
			L216.6-1L251.1-21l-34.5-19.9L182-21z"/>
		<path class="st3" d="M216.6,44.8c-0.2,0-0.5-0.1-0.7-0.2c-0.4-0.2-0.7-0.7-0.7-1.2l0-43c0-0.5,0.3-0.9,0.7-1.2l37.2-21.5
			c0.4-0.2,0.9-0.2,1.3,0c0.4,0.2,0.7,0.7,0.7,1.2v43c0,0.5-0.3,0.9-0.7,1.2l-37.2,21.5C217,44.8,216.8,44.8,216.6,44.8z M217.9,1.3
			l0,39.9l34.5-19.9v-39.9L217.9,1.3z M253.8,22L253.8,22L253.8,22z"/>
		<path class="st3" d="M216.6,44.8c-0.2,0-0.5-0.1-0.7-0.2l-37.2-21.5c-0.4-0.2-0.7-0.7-0.7-1.2l0-43c0-0.5,0.3-0.9,0.7-1.2
			c0.4-0.2,0.9-0.2,1.3,0l37.2,21.5c0.4,0.2,0.7,0.7,0.7,1.2v43c0,0.5-0.3,0.9-0.7,1.2C217,44.8,216.8,44.8,216.6,44.8z M180.7,21.2
			l34.5,19.9V1.3l-34.5-19.9L180.7,21.2z"/>
		
			<rect x="198.1" y="382.1" transform="matrix(0.7071 -0.7071 0.7071 0.7071 -219.7722 270.4457)" class="st5" width="36.9" height="36.9"/>
		<path class="st3" d="M216.6,401.8c-0.2,0-0.5-0.1-0.7-0.2l-37.2-21.5c-0.4-0.2-0.7-0.7-0.7-1.2c0-0.5,0.3-0.9,0.7-1.2l37.2-21.5
			c0.4-0.2,0.9-0.2,1.3,0l37.2,21.5c0.4,0.2,0.7,0.7,0.7,1.2s-0.3,0.9-0.7,1.2l-37.2,21.5C217,401.8,216.8,401.8,216.6,401.8z
			 M182,379l34.5,19.9l34.5-19.9l-34.5-19.9L182,379z"/>
		<path class="st3" d="M216.6,444.8c-0.2,0-0.5-0.1-0.7-0.2c-0.4-0.2-0.7-0.7-0.7-1.2l0-43c0-0.5,0.3-0.9,0.7-1.2l37.2-21.5
			c0.4-0.2,0.9-0.2,1.3,0c0.4,0.2,0.7,0.7,0.7,1.2v43c0,0.5-0.3,0.9-0.7,1.2l-37.2,21.5C217,444.8,216.8,444.8,216.6,444.8z
			 M217.9,401.3l0,39.9l34.5-19.9v-39.9L217.9,401.3z M253.8,422L253.8,422L253.8,422z"/>
		<path class="st3" d="M216.6,444.8c-0.2,0-0.5-0.1-0.7-0.2l-37.2-21.5c-0.4-0.2-0.7-0.7-0.7-1.2l0-43c0-0.5,0.3-0.9,0.7-1.2
			c0.4-0.2,0.9-0.2,1.3,0l37.2,21.5c0.4,0.2,0.7,0.7,0.7,1.2v43c0,0.5-0.3,0.9-0.7,1.2C217,444.8,216.8,444.8,216.6,444.8z
			 M180.7,421.2l34.5,19.9v-39.9l-34.5-19.9L180.7,421.2z"/>
		<polygon class="st5" points="-5.5,202.1 20.6,161.8 46.6,202.1 		"/>
		<path class="st3" d="M20.6,187.1c-0.2,0-0.5-0.1-0.7-0.2l-37.2-21.5c-0.4-0.2-0.7-0.7-0.7-1.2c0-0.5,0.3-0.9,0.7-1.2l37.2-21.5
			c0.4-0.2,0.9-0.2,1.3,0l37.2,21.5c0.4,0.2,0.7,0.7,0.7,1.2s-0.3,0.9-0.7,1.2L21.2,187C21,187.1,20.8,187.1,20.6,187.1z M-14,164.3
			l34.5,19.9l34.5-19.9l-34.5-19.9L-14,164.3z"/>
		<path class="st3" d="M20.6,230.1c-0.2,0-0.5-0.1-0.7-0.2c-0.4-0.2-0.7-0.7-0.7-1.2l0-43c0-0.5,0.3-0.9,0.7-1.2l37.2-21.5
			c0.4-0.2,0.9-0.2,1.3,0c0.4,0.2,0.7,0.7,0.7,1.2v43c0,0.5-0.3,0.9-0.7,1.2l-37.2,21.5C21,230.1,20.8,230.1,20.6,230.1z
			 M21.9,186.6l0,39.9l34.5-19.9v-39.9L21.9,186.6z M57.8,207.3L57.8,207.3L57.8,207.3z"/>
		<path class="st3" d="M20.6,230.1c-0.2,0-0.5-0.1-0.7-0.2l-37.2-21.5c-0.4-0.2-0.7-0.7-0.7-1.2l0-43c0-0.5,0.3-0.9,0.7-1.2
			c0.4-0.2,0.9-0.2,1.3,0l37.2,21.5c0.4,0.2,0.7,0.7,0.7,1.2v43c0,0.5-0.3,0.9-0.7,1.2C21,230.1,20.8,230.1,20.6,230.1z
			 M-15.3,206.5l34.5,19.9v-39.9l-34.5-19.9L-15.3,206.5z"/>
		<path class="st5" d="M313.1,283.2v42h42v-42H313.1z M334.1,318.8c-8.1,0-14.6-6.5-14.6-14.6c0-8.1,6.5-14.6,14.6-14.6
			c8.1,0,14.6,6.5,14.6,14.6C348.8,312.3,342.2,318.8,334.1,318.8z"/>
		<path class="st3" d="M331.8,301.5h-34.3c2.5-7,9.2-12,17.1-12C322.6,289.5,329.3,294.5,331.8,301.5z"/>
		<path class="st3" d="M304.8,152.8h34.3c-2.5,7-9.2,12-17.1,12C314.1,164.9,307.3,159.8,304.8,152.8z"/>
		<polygon class="st6" points="305.1,102 293.7,88.8 289.6,93.1 277.5,79.3 274.1,84.2 262.8,70.1 260,74.5 257.3,69.6 266.4,64.5 
			274.1,77.8 281.9,73.5 289.6,86.7 297.4,82.4 305.1,95.7 312.8,91.3 321.9,107 318.4,109 309.9,97.8 		"/>
		<polygon class="st4" points="301.6,104.1 293.8,90.8 286.1,95.1 278.4,81.8 270.6,86.2 262.9,72.9 256.5,76.5 253.8,71.7 
			262.9,66.5 270.6,79.8 278.4,75.5 286.1,88.7 293.8,84.4 301.6,97.7 309.3,93.3 318.4,109 315.7,110.6 309.3,99.7 		"/>
		<polygon class="st6" points="259.2,269.9 255.7,274.3 252.3,269.5 240.2,283.3 236.1,278.9 224.7,292.2 219.9,287.9 211.4,299.1 
			207.9,297.1 217,281.5 224.7,285.8 232.5,272.6 240.2,276.9 247.9,263.6 251.4,265.6 253.6,266.8 256.4,268.4 259.2,270 
			259.2,269.9 		"/>
		<polygon class="st4" points="262,271.5 259.2,276.3 253.6,273.2 251.4,272 246.5,280.4 243.7,285.3 238.1,282.1 236,280.9 
			231.1,289.4 228.2,294.2 222.6,291.1 220.5,289.9 217,295.9 214.1,300.8 211.4,299.1 220.5,283.5 222.6,284.7 225.4,286.3 
			228.2,287.8 228.3,287.8 231.1,283 236,274.6 238.1,275.8 240.9,277.3 243.7,278.9 243.7,278.9 246.5,274 251.4,265.6 
			253.6,266.8 256.4,268.4 259.2,270 259.2,269.9 259.2,269.9 		"/>
		<polygon class="st6" points="32,263.1 28.4,267.5 25,262.7 12.9,276.5 8.9,272.1 -2.5,285.4 -7.4,281.2 -15.9,292.4 -19.4,290.3 
			-10.3,274.7 -2.5,279 5.2,265.8 12.9,270.1 20.7,256.8 24.2,258.9 26.3,260 29.1,261.6 31.9,263.2 32,263.1 		"/>
		<polygon class="st4" points="34.8,264.7 31.9,269.6 26.3,266.4 24.2,265.2 19.3,273.6 16.5,278.5 10.8,275.4 8.7,274.2 3.8,282.6 
			1,287.4 -4.6,284.3 -6.8,283.1 -10.3,289.1 -13.1,294 -15.9,292.4 -6.8,276.7 -4.6,277.9 -1.8,279.5 1,281.1 1,281 3.8,276.2 
			8.7,267.8 10.8,269 13.6,270.5 16.5,272.1 16.5,272.1 19.3,267.3 24.2,258.9 26.3,260 29.1,261.6 31.9,263.2 32,263.1 32,263.1 		
			"/>
		<polygon class="st3" points="355.6,36.8 361.6,28.6 367.6,36.8 		"/>
		<polygon class="st3" points="355.6,24.6 361.6,16.4 367.6,24.6 		"/>
		<polygon class="st3" points="355.4,49 361.4,40.8 367.4,49 		"/>
		<polygon class="st3" points="355.4,36.8 361.4,28.6 367.4,36.8 		"/>
		<polygon class="st3" points="131.4,179.4 137.4,171.2 143.4,179.4 		"/>
		<polygon class="st3" points="131.4,167.2 137.4,159 143.4,167.2 		"/>
		<polygon class="st3" points="131.4,155 137.4,146.9 143.4,155 		"/>
		<path class="st5" d="M34.4,365.3v42h42v-42H34.4z M55.4,400.9c-8.1,0-14.6-6.5-14.6-14.6s6.5-14.6,14.6-14.6
			c8.1,0,14.6,6.5,14.6,14.6S63.5,400.9,55.4,400.9z"/>
		<polygon class="st3" points="82.3,353.1 76.3,361.3 70.3,353.1 		"/>
		<polygon class="st3" points="82.3,365.3 76.3,373.5 70.3,365.3 		"/>
		<path class="st3" d="M290.7-2.3V12l55.6-8.6v-14.2l-35.2-10.4l-5.5,1.1L290.7-2.3z"/>
		<path class="st5" d="M34.4-34.7v42h42v-42H34.4z M55.4,0.9c-8.1,0-14.6-6.5-14.6-14.6c0-8.1,6.5-14.6,14.6-14.6
			c8.1,0,14.6,6.5,14.6,14.6C70.1-5.6,63.5,0.9,55.4,0.9z"/>
		<path class="st5" d="M249.6,173.1l-5.5-1.1l-35.2,10.4v14.2l55.6,8.6v-14.2L249.6,173.1z"/>
		<polygon class="st5" points="253,181.9 248,186 244.4,184.3 236.1,183.1 226.8,178.7 245.2,168.9 		"/>
		<path class="st3" d="M264.5,190.9l-14.9-32.1l-40.7,23.5L264.5,190.9z M250.1,182.5l-21.5-3.3l15.7-9.1L250.1,182.5z"/>
		<path class="st6" d="M62.1,69.6v14.2l55.6-8.6V61L82.5,50.6L77,51.7L62.1,69.6z"/>
		<polygon class="st6" points="73.5,60.6 78.6,64.7 82.2,63 90.5,61.8 99.8,57.4 81.3,47.6 		"/>
		<path class="st4" d="M117.7,61L77,37.5L62.1,69.6L117.7,61z M82.2,48.8l15.7,9.1l-21.5,3.3L82.2,48.8z"/>
		<path class="st3" d="M109.5,69.6v34.3c-7-2.5-12-9.2-12-17.1C97.4,78.9,102.5,72.1,109.5,69.6z"/>
		<polygon class="st3" points="45.9,312.9 45.9,321 69.7,307.3 69.7,299.1 		"/>
		<polygon class="st5" points="11.7,92.7 11.7,100.8 -12.1,87.1 -12.1,79 		"/>
		<polygon class="st5" points="394.5,202.1 420.6,161.8 446.6,202.1 		"/>
		<path class="st3" d="M420.6,187.1c-0.2,0-0.5-0.1-0.7-0.2l-37.2-21.5c-0.4-0.2-0.7-0.7-0.7-1.2c0-0.5,0.3-0.9,0.7-1.2l37.2-21.5
			c0.4-0.2,0.9-0.2,1.3,0l37.2,21.5c0.4,0.2,0.7,0.7,0.7,1.2s-0.3,0.9-0.7,1.2L421.2,187C421,187.1,420.8,187.1,420.6,187.1z
			 M386,164.3l34.5,19.9l34.5-19.9l-34.5-19.9L386,164.3z"/>
		<path class="st3" d="M420.6,230.1c-0.2,0-0.5-0.1-0.7-0.2l-37.2-21.5c-0.4-0.2-0.7-0.7-0.7-1.2l0-43c0-0.5,0.3-0.9,0.7-1.2
			c0.4-0.2,0.9-0.2,1.3,0l37.2,21.5c0.4,0.2,0.7,0.7,0.7,1.2v43c0,0.5-0.3,0.9-0.7,1.2C421,230.1,420.8,230.1,420.6,230.1z
			 M384.7,206.5l34.5,19.9v-39.9l-34.5-19.9L384.7,206.5z"/>
		<polygon class="st6" points="432,263.1 428.4,267.5 425,262.7 412.9,276.5 408.9,272.1 397.5,285.4 392.6,281.2 384.1,292.4 
			380.6,290.3 389.7,274.7 397.5,279 405.2,265.8 412.9,270.1 420.7,256.8 424.2,258.9 426.3,260 429.1,261.6 431.9,263.2 
			432,263.1 		"/>
		<polygon class="st4" points="434.8,264.7 431.9,269.6 426.3,266.4 424.2,265.2 419.3,273.6 416.5,278.5 410.8,275.4 408.7,274.2 
			403.8,282.6 401,287.4 395.4,284.3 393.2,283.1 389.7,289.1 386.9,294 384.1,292.4 393.2,276.7 395.4,277.9 398.2,279.5 
			401,281.1 401,281 403.8,276.2 408.7,267.8 410.8,269 413.6,270.5 416.5,272.1 416.5,272.1 419.3,267.3 424.2,258.9 426.3,260 
			429.1,261.6 431.9,263.2 432,263.1 432,263.1 		"/>
		<polygon class="st5" points="411.7,92.7 411.7,100.8 387.9,87.1 387.9,79 		"/>
		<polygon class="st4" points="314,235.1 314,243.2 290.2,229.5 290.2,221.3 		"/>
	</g>
</g>
</svg>
