<?xml version="1.0" encoding="utf-8"?>
<svg xmlns="http://www.w3.org/2000/svg" id="Layer_1" viewBox="0 0 1127.4 711.8">
  <style>
    .st1{fill:#fff}.st3{opacity:.1;fill:#e7fbff}.st10{fill:#001e42}
  </style>
  <linearGradient id="SVGID_1_" x1="563.7" x2="563.7" y1="527.8" y2="26.6" gradientUnits="userSpaceOnUse">
    <stop offset="0" stop-color="#00a1e7"/>
    <stop offset="1" stop-color="#00205c"/>
  </linearGradient>
  <path fill="url(#SVGID_1_)" d="M0 0h1127.4v711.8H0z"/>
  <path d="M30.4 105.3c0 .5-.4.8-.8.8a.8.8 0 0 1-.8-.8c0-.5.4-.8.8-.8.5-.1.8.3.8.8zM17 85.6c0 .2-.2.4-.4.4a.4.4 0 0 1-.4-.4c0-.2.2-.4.4-.4.2.1.4.2.4.4zM136.3 50.4c0 .5-.4.8-.8.8a.8.8 0 0 1-.8-.8c0-.5.4-.8.8-.8.5-.1.8.3.8.8zM110.8 432.1c0 .4-.3.7-.7.7a.7.7 0 0 1-.7-.7c0-.4.3-.7.7-.7.4 0 .7.3.7.7zM37.7 76.9c0 .6-.5 1-1.1 1-.6 0-1.1-.5-1.1-1 0-.6.5-1 1.1-1 .6 0 1.1.4 1.1 1zM45.5 102.1c0 .3-.2.6-.6.6-.3 0-.6-.2-.6-.6 0-.3.2-.6.6-.6.4.1.6.3.6.6zM204.6 256.3c0 .5-.4.8-.8.8a.8.8 0 0 1-.8-.8c0-.5.4-.8.8-.8s.8.4.8.8zM20.2 323.9c0 .2-.2.4-.4.4a.4.4 0 0 1-.4-.4c0-.2.2-.4.4-.4.2-.1.4.1.4.4zM5.1 82.1c0 .4-.4.8-.8.8a.9.9 0 0 1-.8-.8c0-.4.4-.8.8-.8s.8.4.8.8zM50 146.1c0 .6-.5 1.1-1.1 1.1-.6 0-1.1-.5-1.1-1.1 0-.6.5-1.1 1.1-1.1.6-.1 1.1.4 1.1 1.1zM97.2 8.7c0 .3-.2.5-.5.5s-.5-.2-.5-.5.2-.5.5-.5.5.2.5.5zM74.1 249c0 .5-.4 1-1 1s-1-.4-1-1c0-.5.4-1 1-1s1 .4 1 1zM30.3 101.8c0 .3-.2.5-.6.5-.3 0-.6-.2-.6-.5s.2-.6.6-.6c.3.1.6.3.6.6zM8.6 146.6c0 .4-.3.8-.8.8a.8.8 0 0 1-.8-.8c0-.4.3-.7.8-.7s.8.3.8.7zM88.3 81.2c0 .1-.1.3-.3.3-.2 0-.3-.1-.3-.3 0-.1.1-.3.3-.3.2 0 .3.2.3.3zM57.9 243.9c0 .4-.3.8-.8.8a.8.8 0 0 1-.8-.8c0-.4.4-.8.8-.8s.8.3.8.8zM110 161.6c0 .4-.4.8-.8.8a.9.9 0 0 1-.8-.8c0-.4.4-.8.8-.8.5 0 .8.3.8.8zM98.4 60.7c0 .2-.2.4-.4.4a.4.4 0 0 1-.4-.4c0-.2.2-.4.4-.4s.4.2.4.4zM55.9 111.8c0 .4-.3.7-.7.7a.7.7 0 0 1-.7-.7c0-.4.3-.7.7-.7.4-.1.7.3.7.7zM18.9 28.2c0 .5-.4 1-1 1a1 1 0 0 1-1-1c0-.5.4-1 1-1 .5 0 1 .4 1 1zM32.5 40c0 .4-.3.7-.7.7a.7.7 0 0 1-.7-.7c0-.4.3-.7.7-.7.4 0 .7.3.7.7zM6.9 439.5c0 .8-.6 1.4-1.4 1.4-.8 0-1.4-.6-1.4-1.4 0-.8.6-1.4 1.4-1.4.8 0 1.4.6 1.4 1.4zM46 377.7c0 .1-.1.3-.3.3-.1 0-.3-.1-.3-.3 0-.1.1-.3.3-.3l.3.3zM327.9 66.6c0 .4-.3.7-.7.7a.7.7 0 0 1-.7-.7c0-.4.3-.7.7-.7.4 0 .7.3.7.7zM94.6 308.4c0 .3-.2.5-.5.5s-.5-.2-.5-.5.2-.5.5-.5c.2 0 .5.2.5.5zM309.6 124.1c0 .3-.3.6-.6.6a.6.6 0 0 1-.6-.6c0-.3.3-.6.6-.6.4 0 .6.3.6.6zM13 106.4c0 .5-.4.9-.9.9a.9.9 0 0 1-.9-.9c0-.5.4-.9.9-.9s.9.4.9.9zM53.1 331.4c0 .4-.3.7-.7.7a.7.7 0 0 1-.7-.7c0-.4.3-.7.7-.7.4 0 .7.3.7.7zM73.3 213.7c0 .2-.1.3-.3.3-.2 0-.3-.1-.3-.3 0-.2.1-.3.3-.3.1 0 .3.1.3.3zM183 266c0 .7-.6 1.3-1.3 1.3-.7 0-1.3-.6-1.3-1.3 0-.7.6-1.3 1.3-1.3.8 0 1.3.6 1.3 1.3zM206.4 220.7c0 .7-.6 1.3-1.3 1.3-.7 0-1.3-.6-1.3-1.3 0-.7.6-1.3 1.3-1.3.7 0 1.3.6 1.3 1.3zM292.5 226.4c0 .6-.5 1.1-1.1 1.1-.6 0-1.1-.5-1.1-1.1 0-.6.5-1.1 1.1-1.1.6 0 1.1.5 1.1 1.1zM91 219.4c0 .4-.3.7-.7.7a.7.7 0 0 1-.7-.7c0-.4.3-.7.7-.7.4 0 .7.3.7.7zM101.6 168.3c0 .6-.5 1.1-1.1 1.1-.6 0-1.1-.5-1.1-1.1 0-.6.5-1.1 1.1-1.1.6.1 1.1.6 1.1 1.1zM95.8 32.4c0 .9-.7 1.5-1.6 1.5-.9 0-1.5-.7-1.5-1.5s.7-1.5 1.5-1.5c.9 0 1.6.7 1.6 1.5zM37.4 50.5c0 .4-.3.7-.7.7a.7.7 0 0 1-.7-.7c0-.4.3-.7.7-.7.4 0 .7.3.7.7zM209.1 306.7c0 .3-.3.6-.6.6a.6.6 0 0 1-.6-.6c0-.3.3-.6.6-.6s.6.3.6.6zM393.9 217.2c0 .4-.3.7-.7.7a.7.7 0 0 1-.7-.7c0-.4.3-.7.7-.7.4-.1.7.3.7.7zM228.8 252.4c0 .7-.6 1.3-1.3 1.3-.7 0-1.3-.6-1.3-1.3 0-.7.6-1.3 1.3-1.3.7 0 1.3.6 1.3 1.3zM3.5 213.5c0 .3-.3.6-.6.6a.6.6 0 0 1-.6-.6c0-.3.3-.6.6-.6s.6.2.6.6zM304 49.5c0 .4-.3.7-.7.7a.7.7 0 0 1-.7-.7c0-.4.3-.7.7-.7.4 0 .7.3.7.7zM118.3 308.6c0 .4-.3.8-.8.8a.8.8 0 0 1-.8-.8c0-.4.3-.8.8-.8.4 0 .8.3.8.8zM398.3 346.1c0 .7-.6 1.3-1.3 1.3-.7 0-1.3-.6-1.3-1.3 0-.7.6-1.3 1.3-1.3.8.1 1.3.6 1.3 1.3zM237.1 198.8c0 .4-.4.8-.8.8a.9.9 0 0 1-.8-.8c0-.4.4-.8.8-.8s.8.3.8.8zM123.2 246.3c0 .4-.4.8-.8.8a.9.9 0 0 1-.8-.8c0-.4.4-.8.8-.8.5 0 .8.3.8.8zM275.3 178.7c0 .3-.2.5-.5.5s-.5-.2-.5-.5.2-.5.5-.5.5.3.5.5zM406.9 198.3c0 .3-.3.6-.6.6s-.6-.2-.6-.6c0-.3.2-.6.6-.6.4.1.6.3.6.6zM26.6 85.2c0 .8-.6 1.4-1.4 1.4-.8 0-1.4-.6-1.4-1.4 0-.8.6-1.4 1.4-1.4.8 0 1.4.6 1.4 1.4zM238.6 221.6c0 .5-.4.9-.9.9a.9.9 0 0 1-.9-.9c0-.5.4-.9.9-.9s.9.4.9.9zM404.4 60.8c0 .4-.3.7-.7.7a.7.7 0 0 1-.7-.7c0-.4.3-.7.7-.7.4 0 .7.3.7.7zM97.9 219.1c0 .5-.4.9-.9.9a.9.9 0 0 1-.9-.9c0-.5.4-.9.9-.9.5.1.9.4.9.9zM54.2 215.9c0 .2-.1.3-.3.3-.2 0-.3-.1-.3-.3 0-.2.1-.3.3-.3.2 0 .3.1.3.3zM391.7 89.2c0 .6-.4 1-1 1a1 1 0 0 1 0-2c.6-.1 1 .4 1 1zM352 33.9c0 .4-.3.7-.7.7a.7.7 0 0 1-.7-.7c0-.4.3-.7.7-.7.4 0 .7.3.7.7zM266 191.6c0 .5-.4 1-1 1a1 1 0 0 1-1-1c0-.5.4-1 1-1s1 .4 1 1zM167.6 137.7a1 1 0 0 1-2 0c0-.6.5-1 1-1s1 .5 1 1zM190.9 125.3c0 .5-.4.9-1 .9a.9.9 0 0 1-.9-.9c0-.5.4-.9.9-.9.5-.1 1 .4 1 .9zM397.4 47.9c0 .1-.1.3-.3.3-.2 0-.3-.1-.3-.3 0-.1.1-.3.3-.3.2 0 .3.1.3.3zM213.7 43.7c0 .4-.3.7-.7.7a.7.7 0 0 1-.7-.7c0-.4.3-.7.7-.7.3-.1.7.3.7.7zM351 164.4c0 .7-.5 1.2-1.2 1.2s-1.2-.5-1.2-1.2.5-1.2 1.2-1.2c.6 0 1.2.5 1.2 1.2zM272.7 341.6c0 .4-.4.8-.8.8a.8.8 0 0 1-.8-.8c0-.4.3-.8.8-.8.4 0 .8.3.8.8zM437.9 300.4c0 .7-.5 1.2-1.2 1.2s-1.2-.5-1.2-1.2c0-.6.5-1.2 1.2-1.2.7.1 1.2.6 1.2 1.2zM96.6 57.1c0 .6-.5 1.1-1.1 1.1-.6 0-1.1-.5-1.1-1.1 0-.6.5-1.1 1.1-1.1.6 0 1.1.5 1.1 1.1zM154 89.2c0 .3-.2.5-.5.5s-.5-.2-.5-.5.2-.5.5-.5c.2-.1.5.2.5.5zM194.5 94c0 .3-.2.5-.5.5s-.5-.2-.5-.5.2-.5.5-.5.5.2.5.5zM520.5 272.7a1 1 0 0 1-2 0 1 1 0 0 1 2 0zM555.8 294.1c0 .4-.4.8-.8.8a.9.9 0 0 1-.8-.8c0-.4.4-.8.8-.8s.8.3.8.8zM257.4 125.1a2 2 0 0 1-2 2 2 2 0 0 1-2-2c0-1.1.9-2 2-2a2 2 0 0 1 2 2zM32.7 288.4c0 .5-.4.9-.9.9a.9.9 0 0 1-.9-.9c0-.5.4-.9.9-.9.5.1.9.5.9.9zM417 132.7c0 .4-.3.7-.7.7a.7.7 0 0 1-.7-.7c0-.4.3-.7.7-.7.4-.1.7.3.7.7zM290.5 185.9c0 1-.8 1.8-1.8 1.8s-1.8-.8-1.8-1.8.8-1.8 1.8-1.8 1.8.8 1.8 1.8zM168.6 328.7c0 .5-.4.9-.9.9a.9.9 0 0 1-.9-.9c0-.5.4-.9.9-.9s.9.4.9.9zM269.9 162.8c0 .3-.3.6-.6.6a.6.6 0 0 1-.6-.6c0-.3.3-.6.6-.6s.6.2.6.6zM209.1 269.6c0 .3-.3.6-.6.6-.4 0-.6-.3-.6-.6 0-.4.3-.6.6-.6s.6.3.6.6zM106.9 76.9c0 .7-.6 1.3-1.3 1.3-.7 0-1.3-.6-1.3-1.3 0-.7.6-1.3 1.3-1.3.7-.1 1.3.5 1.3 1.3zM509.4 59.4c0 .5-.4.9-.9.9a.9.9 0 0 1-.9-.9c0-.5.4-.9.9-.9s.9.4.9.9zM296.2 17.4c0 .3-.3.6-.6.6a.6.6 0 0 1-.6-.6c0-.3.3-.6.6-.6s.6.3.6.6zM171.3 178.8c0 .2-.2.4-.4.4a.4.4 0 0 1-.4-.4c0-.2.2-.4.4-.4s.4.2.4.4zM410.7 17.4c0 .8-.6 1.4-1.4 1.4-.8 0-1.4-.6-1.4-1.4 0-.8.6-1.4 1.4-1.4.8 0 1.4.7 1.4 1.4zM258.5 165.6c0 .8-.7 1.5-1.5 1.5-.9 0-1.5-.7-1.5-1.5s.7-1.5 1.5-1.5c.8-.1 1.5.6 1.5 1.5zM182 65.7c0 .6-.5 1.1-1.1 1.1-.6 0-1.1-.5-1.1-1.1 0-.6.5-1.1 1.1-1.1.6 0 1.1.5 1.1 1.1zM476.4 155.2c0 .3-.2.5-.5.5s-.5-.2-.5-.5.2-.5.5-.5.5.2.5.5zM241.8 94.9c0 .2-.2.4-.4.4a.4.4 0 0 1-.4-.4c0-.2.2-.4.4-.4s.4.2.4.4zM167.7 230.8c0 .6-.5 1.2-1.2 1.2-.6 0-1.2-.5-1.2-1.2 0-.6.5-1.1 1.2-1.1.7-.1 1.2.4 1.2 1.1zM428.4 281.6c0 .7-.5 1.2-1.2 1.2s-1.2-.5-1.2-1.2.5-1.2 1.2-1.2 1.2.6 1.2 1.2zM209 131.2c0 .3-.2.5-.5.5s-.5-.2-.5-.5.2-.5.5-.5.5.2.5.5zM167.3 376.2c0 .3-.3.6-.6.6a.6.6 0 0 1-.6-.6c0-.3.3-.6.6-.6s.6.2.6.6zM85 241.4c0 .4-.3.7-.7.7a.7.7 0 0 1-.7-.7c0-.4.3-.7.7-.7.4-.1.7.2.7.7zM120 197c0 .5-.4 1-1 1a1 1 0 0 1-1-1c0-.5.4-1 1-1s1 .5 1 1zM409.9 254.3c0 .3-.2.5-.5.5s-.5-.2-.5-.5.2-.5.5-.5.5.2.5.5zM320.9 110.6c0 .3-.3.6-.6.6a.6.6 0 0 1-.6-.6c0-.3.3-.6.6-.6s.6.2.6.6zM215.3 217.6c0 .4-.3.7-.7.7a.7.7 0 0 1-.7-.7c0-.4.3-.7.7-.7.4.1.7.4.7.7zM349.8 305.6c0 .4-.3.7-.7.7a.7.7 0 0 1-.7-.7c0-.4.3-.7.7-.7.4-.1.7.3.7.7zM427 106.6c0 .2-.2.4-.4.4a.4.4 0 0 1-.4-.4c0-.2.2-.4.4-.4.2-.1.4.1.4.4zM380.9 127.5c0 .4-.3.7-.7.7a.7.7 0 0 1-.7-.7c0-.4.3-.7.7-.7.4 0 .7.3.7.7zM229.7 393.9c0 .3-.3.5-.6.5s-.5-.2-.5-.5.2-.6.5-.6c.4.1.6.3.6.6zM666.8 5.7c0 .5-.4.9-.9.9a.9.9 0 0 1-.9-.9c0-.5.4-.9.9-.9.5-.1.9.3.9.9zM89.1 288.6c0 .6-.5 1.1-1.1 1.1-.6 0-1.1-.5-1.1-1.1 0-.6.5-1.1 1.1-1.1.6.1 1.1.5 1.1 1.1zM335.9 99c0 .4-.3.8-.8.8a.8.8 0 0 1-.8-.8c0-.4.3-.8.8-.8.4 0 .8.4.8.8zM235.3 197.6c0 .3-.2.5-.5.5s-.5-.2-.5-.5.2-.5.5-.5.5.2.5.5zM98.3 462.7c0 1.3-1.1 2.4-2.4 2.4a2.4 2.4 0 0 1-2.4-2.4c0-1.3 1.1-2.4 2.4-2.4 1.3-.1 2.4 1 2.4 2.4zM189.8 44.5c0 .2-.1.3-.3.3-.2 0-.3-.1-.3-.3 0-.2.1-.3.3-.3.1 0 .3.1.3.3zM504.7 18.2c0 .5-.4 1-1 1a1 1 0 0 1-1-1c0-.5.4-1 1-1s1 .4 1 1zM695.3 130.2c0 .3-.3.6-.6.6a.6.6 0 0 1-.6-.6c0-.3.3-.6.6-.6s.6.3.6.6zM348.3 222.9c0 .6-.5 1-1.1 1-.6 0-1.1-.5-1.1-1 0-.6.5-1.1 1.1-1.1.7 0 1.1.5 1.1 1.1zM337.8 320.9c0 .5-.4.8-.8.8a.9.9 0 0 1-.8-.8c0-.5.4-.8.8-.8.4-.1.8.3.8.8zM470.8 13.6c0 .4-.4.8-.8.8a.9.9 0 0 1-.8-.8c0-.4.4-.8.8-.8s.8.4.8.8zM445.3 357.5c0 .5-.4 1-1 1a1 1 0 0 1-1-1c0-.5.4-1 1-1s1 .4 1 1zM356.5 170.2c0 .3-.3.6-.6.6a.6.6 0 0 1-.6-.6c0-.3.3-.6.6-.6s.6.3.6.6zM274.5 118.4c0 .5-.4 1-1 1a1 1 0 0 1-1-1c0-.5.4-1 1-1s1 .4 1 1zM610.6 277.9c0 1-.8 1.8-1.8 1.8s-1.8-.8-1.8-1.8.8-1.7 1.8-1.7c1-.1 1.8.7 1.8 1.7zM596.2 135.3c0 .7-.6 1.3-1.3 1.3-.7 0-1.3-.6-1.3-1.3 0-.7.6-1.3 1.3-1.3.8 0 1.3.6 1.3 1.3zM571.9 311c0 .6-.5 1.1-1.1 1.1-.6 0-1.1-.5-1.1-1.1 0-.6.5-1.1 1.1-1.1.6 0 1.1.5 1.1 1.1zM228.2 159.1c0 .6-.5 1-1.1 1a1 1 0 0 1 0-2c.6-.1 1.1.4 1.1 1zM546.2 188.2c0 .3-.3.6-.6.6a.6.6 0 0 1-.6-.6c0-.3.3-.6.6-.6s.6.3.6.6zM627.4 313.9c0 .2-.2.4-.4.4a.4.4 0 0 1-.4-.4c0-.2.2-.4.4-.4.3 0 .4.2.4.4zM582.4 293.2c0 .5-.4.9-.9.9a.9.9 0 0 1-.9-.9c0-.5.4-.9.9-.9s.9.4.9.9zM426 121.7c0 .5-.4.9-.9.9a.9.9 0 0 1-.9-.9c0-.5.4-.9.9-.9s.9.4.9.9zM485.2 329.3c0 .5-.4.8-.8.8a.8.8 0 0 1-.8-.8c0-.5.4-.8.8-.8.5 0 .8.4.8.8zM442.5 285.9c0 .3-.2.5-.5.5s-.5-.2-.5-.5.2-.5.5-.5c.2 0 .5.3.5.5zM581 183.6c0 .2-.1.3-.3.3-.2 0-.3-.1-.3-.3 0-.2.1-.3.3-.3.1 0 .3.1.3.3zM638.4 68.4c0 .4-.3.7-.7.7a.7.7 0 0 1-.7-.7c0-.4.3-.7.7-.7.4.1.7.4.7.7zM743.9 112.8c0 .4-.4.8-.8.8a.8.8 0 0 1-.8-.8c0-.4.4-.8.8-.8s.8.4.8.8zM578.7 126c0 .4-.4.8-.8.8a.9.9 0 0 1-.8-.8c0-.4.4-.8.8-.8s.8.4.8.8zM317.7 227.2c0 .3-.3.6-.6.6a.6.6 0 0 1-.6-.6c0-.3.3-.6.6-.6.4 0 .6.3.6.6zM174.1 113.9c0 .3-.2.6-.6.6-.3 0-.6-.2-.6-.6 0-.3.2-.6.6-.6.4 0 .6.3.6.6zM481.3 366.2c0 .9-.7 1.6-1.6 1.6-.9 0-1.6-.7-1.6-1.6 0-.9.7-1.6 1.6-1.6.8 0 1.6.7 1.6 1.6zM498.5 346.7c0 .7-.6 1.3-1.3 1.3-.7 0-1.3-.6-1.3-1.3 0-.7.6-1.3 1.3-1.3.7 0 1.3.6 1.3 1.3zM228.3 184c0 .3-.2.5-.5.5-.2 0-.4-.2-.4-.5s.2-.5.4-.5c.3 0 .5.2.5.5zM434.6 131.1c0 .4-.4.8-.8.8a.8.8 0 0 1-.8-.8c0-.4.4-.8.8-.8s.8.3.8.8zM334.7 231.9c0 .3-.3.6-.6.6s-.5-.2-.5-.6c0-.3.2-.5.5-.5.4 0 .6.2.6.5zM214.8 6.1c0 .4-.3.7-.7.7a.7.7 0 0 1-.7-.7c0-.4.3-.7.7-.7.3 0 .7.3.7.7zM831.8 82.6c0 .4-.3.7-.7.7a.7.7 0 0 1-.7-.7c0-.4.3-.7.7-.7.4 0 .7.3.7.7zM337.4 228.3c0 .3-.2.5-.5.5s-.5-.2-.5-.5.2-.5.5-.5.5.2.5.5zM667.3 52.5c0 .3-.3.6-.6.6a.6.6 0 0 1-.6-.6c0-.3.3-.6.6-.6s.6.3.6.6zM491.4 278.9c0 .5-.4.9-.9.9a.9.9 0 0 1-.9-.9c0-.5.4-.9.9-.9s.9.4.9.9zM726.7 260c0 .3-.2.5-.5.5s-.5-.2-.5-.5.2-.5.5-.5c.3.1.5.3.5.5zM520.6 41.8c0 .4-.4.8-.8.8a.9.9 0 0 1-.8-.8c0-.4.4-.8.8-.8.5 0 .8.4.8.8zM458.4 27.1c0 .5-.4.8-.8.8a.8.8 0 0 1-.8-.8c0-.5.4-.8.8-.8s.8.4.8.8zM304.5 328.3c0 .7-.6 1.3-1.3 1.3-.7 0-1.3-.6-1.3-1.3 0-.7.6-1.3 1.3-1.3.7 0 1.3.6 1.3 1.3zM685.5 73.9c0 .5-.4.9-.9.9a.9.9 0 0 1-.9-.9c0-.5.4-.9.9-.9s.9.4.9.9zM617.1 199.6c0 .4-.4.8-.8.8a.9.9 0 0 1-.8-.8c0-.4.3-.8.8-.8s.8.3.8.8zM245 284.1c0 .7-.6 1.2-1.3 1.2-.7 0-1.3-.6-1.3-1.2 0-.7.6-1.2 1.3-1.2.7-.1 1.3.5 1.3 1.2zM470.9 22c0 .3-.3.6-.6.6a.6.6 0 0 1-.6-.6c0-.3.3-.6.6-.6s.6.3.6.6zM564.9 47.5c0 .2-.2.4-.4.4a.4.4 0 0 1-.4-.4c0-.2.2-.4.4-.4.2-.1.4.1.4.4zM657 74.6c0 .3-.2.5-.5.5s-.5-.2-.5-.5.2-.5.5-.5c.2 0 .5.3.5.5zM538.4 178.3c0 .2-.1.3-.3.3-.2 0-.3-.1-.3-.3 0-.2.1-.3.3-.3l.3.3zM700.6 13.2c0 .8-.6 1.4-1.4 1.4-.8 0-1.4-.6-1.4-1.4 0-.8.6-1.4 1.4-1.4.8 0 1.4.7 1.4 1.4zM690.6 144.7c0 .4-.3.7-.7.7a.7.7 0 0 1-.7-.7c0-.4.3-.7.7-.7.4 0 .7.3.7.7zM342.7 120.6c0 .5-.4.8-.8.8a.8.8 0 0 1-.8-.8c0-.5.4-.8.8-.8.4-.1.8.3.8.8zM604.3 395.3c0 .4-.3.7-.7.7a.7.7 0 0 1-.7-.7c0-.4.3-.7.7-.7.4 0 .7.4.7.7zM513.2 149c0 .2-.1.3-.3.3-.2 0-.3-.1-.3-.3 0-.2.1-.3.3-.3.2 0 .3.1.3.3zM902.4 283.3c0 .3-.3.6-.6.6a.6.6 0 0 1-.6-.6c0-.3.3-.6.6-.6s.6.2.6.6zM373.9 140.7c0 .4-.3.7-.7.7a.7.7 0 0 1-.7-.7c0-.4.3-.7.7-.7.4.1.7.4.7.7zM619.9 30.1c0 .6-.4 1-1 1a1 1 0 0 1 0-2c.6 0 1 .4 1 1zM683.6 46.6c0 .3-.3.6-.6.6a.6.6 0 0 1-.6-.6c0-.3.3-.6.6-.6.4 0 .6.3.6.6zM823.3 7.7c0 .7-.6 1.4-1.4 1.4-.7 0-1.4-.6-1.4-1.4 0-.7.6-1.4 1.4-1.4.8 0 1.4.6 1.4 1.4zM864 387.4c0 .4-.3.7-.7.7a.7.7 0 0 1-.7-.7c0-.4.3-.7.7-.7.4 0 .7.3.7.7zM554.2 98.4c0 .4-.4.8-.8.8a.9.9 0 0 1-.8-.8c0-.4.4-.8.8-.8s.8.4.8.8zM559.7 279.5a1.9 1.9 0 1 1-3.8 0 1.9 1.9 0 1 1 3.8 0zM719.9 182.2c0 .4-.4.8-.8.8a.9.9 0 0 1-.8-.8c0-.4.4-.8.8-.8s.8.4.8.8zM829.8 168.6c0 .4-.3.7-.7.7a.7.7 0 0 1-.7-.7c0-.4.3-.7.7-.7.4 0 .7.4.7.7zM552.4 147.2c0 .8-.7 1.5-1.5 1.5s-1.5-.7-1.5-1.5.7-1.5 1.5-1.5c.8-.1 1.5.6 1.5 1.5zM783.4 254.5c0 .8-.7 1.5-1.5 1.5s-1.5-.7-1.5-1.5.6-1.4 1.5-1.4c.8 0 1.5.6 1.5 1.4zM693.5 358.5c0 .4-.4.8-.8.8a.8.8 0 0 1-.8-.8c0-.4.4-.8.8-.8s.8.4.8.8zM750.4 29.3c0 .2-.2.4-.4.4a.4.4 0 0 1-.4-.4c0-.2.2-.4.4-.4s.4.2.4.4zM921.2 92.6c0 .1-.1.3-.3.3-.1 0-.3-.1-.3-.3 0-.1.1-.3.3-.3.2 0 .3.1.3.3zM636 203.5c0 .2-.2.4-.4.4a.4.4 0 0 1-.4-.4c0-.2.2-.4.4-.4.3 0 .4.2.4.4zM789.5 88.9c0 .5-.4.9-.9.9a.9.9 0 0 1-.9-.9c0-.5.4-.9.9-.9s.9.4.9.9zM380.3 244.5c0 .7-.5 1.2-1.2 1.2s-1.2-.5-1.2-1.2.5-1.2 1.2-1.2 1.2.5 1.2 1.2zM671.5 152.7c0 .5-.4.9-.9.9a.9.9 0 0 1-.9-.9c0-.5.4-.9.9-.9s.9.4.9.9zM483.7 117.1c0 .3-.2.5-.5.5s-.5-.2-.5-.5.2-.5.5-.5c.2-.1.5.2.5.5zM701.2 313c0 .4-.3.8-.8.8a.8.8 0 0 1-.8-.8c0-.4.3-.7.8-.7.5-.1.8.3.8.7zM839.5 187.3c0 .3-.3.6-.6.6a.6.6 0 0 1-.6-.6c0-.3.3-.6.6-.6.4 0 .6.3.6.6zM820.9 233.8c0 .8-.6 1.4-1.4 1.4-.8 0-1.4-.6-1.4-1.4 0-.8.6-1.4 1.4-1.4.8 0 1.4.7 1.4 1.4zM477.6 242.2c0 .6-.5 1.1-1.1 1.1-.6 0-1.1-.5-1.1-1.1 0-.6.5-1.1 1.1-1.1.6 0 1.1.5 1.1 1.1zM816.2 332.2c0 .5-.4.8-.8.8a.8.8 0 0 1-.8-.8c0-.5.4-.8.8-.8.4-.1.8.3.8.8zM929.8 206.5c0 .8-.7 1.5-1.5 1.5s-1.5-.7-1.5-1.5.7-1.5 1.5-1.5 1.5.6 1.5 1.5zM946.9 376.6c0 .4-.3.8-.8.8-.4 0-.7-.3-.7-.8 0-.4.3-.8.7-.8.4 0 .8.4.8.8zM805.3 196.6c0 .6-.5 1.1-1.1 1.1-.6 0-1.1-.5-1.1-1.1 0-.6.5-1.1 1.1-1.1.6 0 1.1.5 1.1 1.1zM562.7 183.1c0 .5-.4.9-.9.9a.9.9 0 0 1-.9-.9c0-.5.4-.9.9-.9s.9.4.9.9zM750.8 392.1c0 .3-.3.6-.6.6a.6.6 0 0 1-.6-.6c0-.3.3-.6.6-.6.4 0 .6.2.6.6zM940.6 146.1c0 .4-.3.7-.7.7a.7.7 0 0 1-.7-.7c0-.4.3-.7.7-.7.4 0 .7.3.7.7zM716.6 116.5c0 .4-.3.7-.7.7a.7.7 0 0 1-.7-.7c0-.4.3-.7.7-.7.4 0 .7.3.7.7zM745.5 295.3c0 1-.8 1.8-1.8 1.8s-1.8-.8-1.8-1.8.8-1.8 1.8-1.8 1.8.8 1.8 1.8zM783.6 330.8c0 .5-.4.9-.9.9a.9.9 0 0 1-.9-.9c0-.5.4-.9.9-.9.5.1.9.5.9.9zM836.3 277.8c0 .6-.5 1.1-1.1 1.1-.6 0-1.1-.5-1.1-1.1 0-.6.5-1.1 1.1-1.1.6.1 1.1.6 1.1 1.1zM747.3 79.3c0 1-.8 1.7-1.7 1.7-1 0-1.7-.8-1.7-1.7 0-1 .8-1.7 1.7-1.7 1 0 1.7.7 1.7 1.7zM688.4 216.6c0 .4-.4.8-.8.8a.9.9 0 0 1-.8-.8c0-.4.4-.8.8-.8.5 0 .8.4.8.8zM909.1 336.2c0 .2-.1.3-.3.3-.2 0-.3-.1-.3-.3 0-.2.1-.3.3-.3l.3.3zM622.1 410.9c0 .4-.3.6-.6.6a.6.6 0 0 1-.6-.6c0-.3.3-.6.6-.6s.6.3.6.6zM895.7 50.2c0 .4-.3.8-.8.8a.9.9 0 0 1-.8-.8c0-.4.3-.8.8-.8s.8.3.8.8zM732.3 275.4c0 .4-.3.6-.6.6-.4 0-.6-.3-.6-.6 0-.4.3-.6.6-.6.3-.1.6.2.6.6zM618 57.3c0 .6-.5 1.1-1.1 1.1-.6 0-1.1-.5-1.1-1.1 0-.6.5-1.1 1.1-1.1.7 0 1.1.5 1.1 1.1zM731.3 81.2c0 .4-.3.8-.8.8a.9.9 0 0 1-.8-.8c0-.4.4-.8.8-.8.5 0 .8.4.8.8zM888.6 162.3c0 .4-.3.7-.7.7a.7.7 0 0 1-.7-.7c0-.4.3-.7.7-.7.4 0 .7.3.7.7zM848 151c0 .7-.6 1.3-1.3 1.3-.7 0-1.3-.6-1.3-1.3 0-.7.6-1.3 1.3-1.3.7 0 1.3.6 1.3 1.3zM1125.2 222.9c-.3-.2-.6-.3-1-.3-.9 0-1.6.7-1.6 1.6 0 .9.7 1.6 1.6 1.6.4 0 .7-.1 1-.3v-2.6zM1045 282.3c0 .1-.1.3-.3.3-.1 0-.3-.1-.3-.3 0-.1.1-.3.3-.3.2 0 .3.1.3.3zM993.9 200.6c0 .8-.6 1.5-1.4 1.5-.8 0-1.4-.7-1.4-1.5s.6-1.4 1.4-1.4c.8-.1 1.4.6 1.4 1.4zM702.5 79.2c0 .3-.3.6-.6.6a.6.6 0 0 1-.6-.6c0-.3.3-.6.6-.6.3-.1.6.2.6.6zM1066.5 137.5c0 .3-.3.6-.6.6a.6.6 0 0 1-.6-.6c0-.3.3-.6.6-.6.4.1.6.3.6.6zM613.1 224c0 .8-.7 1.5-1.5 1.5s-1.5-.7-1.5-1.5.7-1.5 1.5-1.5 1.5.7 1.5 1.5zM490.5 128.1c0 .2-.1.3-.3.3-.2 0-.3-.2-.3-.3 0-.2.1-.3.3-.3.2 0 .3.1.3.3zM634 254.6c0 .7-.6 1.3-1.3 1.3-.7 0-1.3-.6-1.3-1.3 0-.7.6-1.3 1.3-1.3.7 0 1.3.6 1.3 1.3zM941.3 156.6c0 .3-.2.5-.5.5s-.5-.2-.5-.5.2-.5.5-.5.5.2.5.5zM977.1 154.3c0 .5-.4.9-.9.9a.9.9 0 0 1-.9-.9c0-.5.4-.9.9-.9s.9.4.9.9zM852.1 329.9c0 .7-.5 1.2-1.2 1.2s-1.2-.5-1.2-1.2.5-1.2 1.2-1.2 1.2.5 1.2 1.2zM750.3 36.3c0 .5-.4.9-.9.9a.9.9 0 0 1-.9-.9c0-.5.4-.9.9-.9.5-.1.9.4.9.9zM782.2 373.6c0 .5-.4 1-1 1a1 1 0 0 1-1-1c0-.5.4-1 1-1s1 .4 1 1zM837.6 321a1 1 0 0 1-2 0 1 1 0 0 1 2 0zM934.1 157.8c0 .3-.2.5-.5.5s-.5-.2-.5-.5.2-.5.5-.5.5.2.5.5zM860.2 85.4c0 .4-.3.6-.7.6-.4 0-.6-.3-.6-.6 0-.4.3-.6.6-.6.4 0 .7.3.7.6zM679.9 201.9c0 .7-.6 1.4-1.4 1.4-.7 0-1.4-.6-1.4-1.4 0-.7.6-1.3 1.4-1.3.8 0 1.4.6 1.4 1.3zM831.8 65c0 .5-.4 1-1 1a1 1 0 0 1-1-1c0-.5.4-1 1-1s1 .5 1 1zM660.3 42.9c0 .3-.2.5-.6.5-.3 0-.5-.2-.5-.5s.2-.5.5-.5c.4 0 .6.2.6.5zM870.6 285c0 .4-.3.8-.7.8a.8.8 0 0 1-.8-.8c0-.4.3-.7.8-.7.3 0 .7.3.7.7zM834 244.5c0 .4-.3.8-.8.8a.8.8 0 0 1-.8-.8c0-.4.3-.8.8-.8s.8.4.8.8zM869.5 200.8c0 .7-.6 1.3-1.3 1.3-.7 0-1.3-.6-1.3-1.3 0-.7.6-1.3 1.3-1.3.7 0 1.3.6 1.3 1.3zM730.3 108.2c0 .4-.3.7-.8.7a.7.7 0 0 1-.7-.7c0-.4.3-.8.7-.8.5 0 .8.4.8.8zM878.9 133.5c0 1-.8 1.8-1.8 1.8s-1.8-.8-1.8-1.8.8-1.8 1.8-1.8 1.8.8 1.8 1.8zM854.5 88.5c0 .5-.4.9-.9.9a.9.9 0 0 1-.9-.9c0-.5.4-.9.9-.9s.9.4.9.9zM1016.8 159.9c0 .3-.2.5-.5.5s-.5-.2-.5-.5.2-.5.5-.5.5.2.5.5zM907.3 212.6c0 .2-.1.3-.3.3-.2 0-.3-.1-.3-.3 0-.2.1-.3.3-.3.2 0 .3.2.3.3zM985.1 263.7c0 .9-.8 1.7-1.7 1.7-1 0-1.7-.8-1.7-1.7 0-.9.8-1.7 1.7-1.7.9 0 1.7.8 1.7 1.7zM892.9 229.5c0 .4-.3.8-.8.8a.8.8 0 0 1-.8-.8c0-.4.4-.8.8-.8.5 0 .8.4.8.8zM991.4 343.5c0 .6-.5 1.1-1 1.1-.6 0-1.1-.5-1.1-1.1 0-.6.5-1 1.1-1 .5 0 1 .4 1 1zM1088.5 385.3c0 .3-.3.6-.6.6a.6.6 0 0 1-.6-.6c0-.3.3-.6.6-.6.4 0 .6.3.6.6zM965.5 10.9c0 .5-.4 1-1 1s-1-.4-1-1c0-.5.4-1 1-1 .5 0 1 .5 1 1zM830.9 153.4c0 .3-.2.5-.5.5s-.5-.2-.5-.5.2-.5.5-.5.5.2.5.5zM885.2 232.7c0 .6-.5 1.1-1.2 1.1-.6 0-1.2-.5-1.2-1.1 0-.6.5-1.1 1.2-1.1.6-.1 1.2.4 1.2 1.1zM740.3 88c0 .5-.4.9-.9.9a.9.9 0 0 1-.9-.9c0-.5.4-.9.9-.9s.9.4.9.9zM847.4 205.5c0 .8-.6 1.4-1.4 1.4-.8 0-1.4-.6-1.4-1.4 0-.8.6-1.4 1.4-1.4.8.1 1.4.7 1.4 1.4zM978.4 83.5c0 .7-.6 1.3-1.3 1.3-.7 0-1.3-.6-1.3-1.3 0-.7.6-1.3 1.3-1.3.7 0 1.3.6 1.3 1.3zM873.8 188.5c0 .3-.3.6-.6.6a.6.6 0 0 1-.6-.6c0-.3.3-.6.6-.6.4 0 .6.2.6.6zM957.4 53.5c0 .3-.2.5-.5.5s-.5-.2-.5-.5.2-.5.5-.5.5.2.5.5zM1066.9 238.5c0 .6-.5 1.2-1.2 1.2s-1.2-.5-1.2-1.2.5-1.2 1.2-1.2 1.2.5 1.2 1.2zM944.1 240.4c0 .5-.4.9-.9.9a.9.9 0 0 1-.9-.9c0-.5.4-.9.9-.9.5-.1.9.4.9.9zM923.8 38.8c0 .7-.6 1.2-1.2 1.2-.7 0-1.3-.6-1.3-1.2 0-.7.6-1.3 1.3-1.3.6.1 1.2.6 1.2 1.3zM970.3 210.5c0 .5-.4 1-1 1s-1-.4-1-1c0-.5.4-1 1-1s1 .4 1 1zM805.1 89c0 .6-.5 1.1-1.1 1.1-.6 0-1.1-.5-1.1-1.1 0-.6.5-1.1 1.1-1.1.6 0 1.1.5 1.1 1.1zM1071.9 53.8c0 .9-.7 1.5-1.5 1.5s-1.5-.7-1.5-1.5.7-1.5 1.5-1.5 1.5.7 1.5 1.5zM863.8 207.2c0 .6-.5 1.2-1.2 1.2-.6 0-1.2-.5-1.2-1.2 0-.6.5-1.2 1.2-1.2.7.1 1.2.6 1.2 1.2zM938.3 56.6c0 1.2-1 2.2-2.2 2.2-1.2 0-2.2-1-2.2-2.2 0-1.2 1-2.2 2.2-2.2 1.3 0 2.2 1 2.2 2.2zM916.7 244.4c0 .6-.5 1.2-1.2 1.2-.6 0-1.2-.5-1.2-1.2 0-.6.5-1.2 1.2-1.2.7.1 1.2.6 1.2 1.2zM716.3 108.2c0 .5-.4 1-1 1a1 1 0 0 1-1-1c0-.5.4-1 1-1 .5 0 1 .5 1 1zM1060.9 455.3c0 .8-.7 1.5-1.5 1.5s-1.5-.7-1.5-1.5.7-1.5 1.5-1.5 1.5.7 1.5 1.5zM952 221.7c0 .8-.6 1.4-1.4 1.4-.8 0-1.4-.6-1.4-1.4 0-.8.6-1.4 1.4-1.4.7 0 1.4.7 1.4 1.4zM769.6 155.4c0 .3-.2.5-.4.5-.3 0-.5-.2-.5-.5 0-.2.2-.5.5-.5.2 0 .4.2.4.5zM878.4 261.3c0 .6-.5 1.1-1.1 1.1-.6 0-1.1-.5-1.1-1.1 0-.6.5-1.1 1.1-1.1.7 0 1.1.5 1.1 1.1zM1024.5 254.6c0 .9-.7 1.5-1.6 1.5-.8 0-1.6-.7-1.6-1.5 0-.9.7-1.5 1.6-1.5.9 0 1.6.7 1.6 1.5zM961.2 386.5c0 .3-.2.5-.5.5s-.5-.2-.5-.5.2-.5.5-.5c.2.1.5.3.5.5zM1077.1 132.1c0 .3-.3.6-.6.6a.6.6 0 0 1-.6-.6c0-.3.3-.6.6-.6.3-.1.6.2.6.6zM907.4 182.5c0 .8-.7 1.4-1.5 1.4s-1.5-.6-1.5-1.4c0-.8.7-1.5 1.5-1.5s1.5.7 1.5 1.5zM1075 398.3c0 .3-.3.6-.6.6a.6.6 0 0 1-.6-.6c0-.3.3-.6.6-.6.4.1.6.3.6.6zM998 32.3c0 .9-.7 1.7-1.7 1.7-.9 0-1.7-.7-1.7-1.7 0-.9.7-1.7 1.7-1.7s1.7.8 1.7 1.7zM927.8 151c0 .4-.3.7-.7.7a.7.7 0 0 1-.7-.7c0-.4.3-.7.7-.7.4 0 .7.3.7.7zM799 144.6c0 .3-.3.6-.6.6a.6.6 0 0 1-.6-.6c0-.3.3-.6.6-.6s.6.3.6.6zM972.9 405.5c0 .4-.4.8-.8.8a.9.9 0 0 1-.8-.8c0-.4.4-.8.8-.8s.8.4.8.8zM846.1 110c0 .7-.6 1.2-1.2 1.2-.7 0-1.2-.6-1.2-1.2 0-.7.5-1.2 1.2-1.2s1.2.6 1.2 1.2zM892 318.1c0 .3-.2.5-.5.5s-.5-.2-.5-.5.2-.5.5-.5c.3.1.5.3.5.5zM1000.2 167.4c0 .6-.5 1.1-1.1 1.1-.6 0-1.1-.5-1.1-1.1 0-.6.5-1.1 1.1-1.1.6 0 1.1.4 1.1 1.1zM1037.7 306.8c0 .6-.5 1.1-1.1 1.1-.6 0-1.1-.5-1.1-1.1 0-.6.5-1.1 1.1-1.1.6 0 1.1.5 1.1 1.1zM1061.7 85.2c0 .6-.5 1.2-1.2 1.2-.6 0-1.2-.5-1.2-1.2 0-.6.5-1.2 1.2-1.2s1.2.6 1.2 1.2zM1076.9 309.2c0 .3-.2.5-.5.5s-.5-.2-.5-.5.2-.5.5-.5.5.2.5.5zM881.8 40.4c0 .8-.6 1.5-1.5 1.5-.8 0-1.5-.7-1.5-1.5s.7-1.4 1.5-1.4c.9 0 1.5.6 1.5 1.4zM950.8 174.6c0 .5-.4.9-.9.9a.9.9 0 0 1-.9-.9c0-.5.4-.9.9-.9s.9.4.9.9zM1070.3 245.2c0 .3-.2.5-.5.5s-.5-.2-.5-.5.2-.5.5-.5c.3-.1.5.2.5.5zM1039.8 202.5c0 .7-.5 1.2-1.2 1.2s-1.2-.5-1.2-1.2c0-.6.5-1.2 1.2-1.2.7.1 1.2.6 1.2 1.2zM893.9 185c0 .4-.3.7-.7.7a.7.7 0 0 1-.7-.7c0-.4.3-.7.7-.7.3 0 .7.3.7.7zM1067.4 191.6c0 .4-.3.7-.7.7a.7.7 0 0 1-.7-.7c0-.4.3-.7.7-.7.4 0 .7.3.7.7zM1063.6 355.1c0 .3-.3.6-.6.6a.6.6 0 0 1-.6-.6c0-.4.3-.6.6-.6.3-.1.6.2.6.6zM1111.4 255.9c0 .3-.2.5-.5.5s-.5-.2-.5-.5.2-.5.5-.5.5.2.5.5zM1016.3 94c0 .6-.5 1.2-1.2 1.2-.6 0-1.2-.5-1.2-1.2 0-.6.5-1.2 1.2-1.2.6 0 1.2.5 1.2 1.2zM929.9 314c0 .2-.2.4-.4.4a.4.4 0 0 1-.4-.4c0-.2.2-.4.4-.4.2-.1.4.1.4.4zM1043 403.7c0 .4-.3.7-.7.7a.7.7 0 0 1-.7-.7c0-.4.3-.7.7-.7.3 0 .7.3.7.7zM1073.2 266.4c0 .2-.2.4-.4.4a.4.4 0 0 1-.4-.4c0-.2.2-.4.4-.4s.4.2.4.4zM1090.3 91c0 1.4-1.1 2.5-2.5 2.5a2.5 2.5 0 0 1-2.5-2.5c0-1.4 1.1-2.5 2.5-2.5s2.5 1.1 2.5 2.5zM1042.3 201.4c0 .6-.5 1.1-1.1 1.1-.6 0-1.1-.5-1.1-1.1 0-.6.5-1.1 1.1-1.1.7.1 1.1.5 1.1 1.1zM1057 243.7c0 .3-.3.6-.6.6-.4 0-.6-.3-.6-.6 0-.4.3-.6.6-.6s.6.3.6.6zM1087.8 215.8c0 .7-.6 1.2-1.2 1.2-.7 0-1.2-.5-1.2-1.2s.6-1.2 1.2-1.2c.7 0 1.2.5 1.2 1.2zM1039.3 43.6c0 .7-.5 1.2-1.2 1.2-.6 0-1.2-.5-1.2-1.2 0-.6.5-1.2 1.2-1.2s1.2.6 1.2 1.2zM1103.6 371.3c0 .3-.3.6-.6.6a.6.6 0 0 1-.6-.6c0-.3.3-.6.6-.6s.6.3.6.6zM1114.7 173.8c0 .5-.4.9-.9.9a.9.9 0 0 1-.9-.9c0-.5.4-.9.9-.9.6.1.9.5.9.9zM1032.2 103.3c0 .2-.2.4-.4.4a.4.4 0 0 1-.4-.4c0-.2.2-.4.4-.4s.4.2.4.4zM1105.2 246.2c0 .4-.3.8-.8.8a.8.8 0 0 1-.8-.8c0-.4.3-.8.8-.8s.8.4.8.8zM1026.1 116.7c0 .2-.2.4-.4.4a.4.4 0 0 1-.4-.4c0-.2.2-.4.4-.4s.4.2.4.4zM1065.4 265.6c0 .9-.7 1.5-1.6 1.5-.9 0-1.6-.7-1.6-1.5 0-.9.7-1.5 1.6-1.5 1 0 1.6.7 1.6 1.5zM977.7 217.4c0 .2-.2.4-.4.4a.4.4 0 0 1-.4-.4c0-.2.2-.4.4-.4.3.1.4.3.4.4zM1110.4 263.3c0 .8-.6 1.4-1.4 1.4-.8 0-1.4-.6-1.4-1.4 0-.8.6-1.4 1.4-1.4.7 0 1.4.6 1.4 1.4zM905.3 161.1c0 .5-.4.8-.8.8a.8.8 0 0 1-.8-.8c0-.5.4-.8.8-.8s.8.3.8.8zM905.2 6.4c0 .3-.3.6-.6.6a.6.6 0 0 1-.6-.6c0-.3.3-.6.6-.6s.6.2.6.6zM1097.5 154.5c0 .8-.7 1.5-1.5 1.5s-1.5-.7-1.5-1.5.7-1.5 1.5-1.5c.9 0 1.5.7 1.5 1.5zM971.6 75.5c0 .3-.2.5-.5.5s-.5-.2-.5-.5.2-.5.5-.5c.3-.1.5.2.5.5zM1081.6 61.2c0 .5-.4.9-.9.9a.9.9 0 0 1-.9-.9c0-.5.4-.9.9-.9s.9.4.9.9zM962.4 118.3c0 .5-.4.9-.9.9a.9.9 0 0 1-.9-.9c0-.5.4-.9.9-.9s.9.4.9.9zM930.1 87.3c0 .3-.3.6-.6.6a.6.6 0 0 1-.6-.6c0-.3.3-.6.6-.6.4 0 .6.2.6.6zM986.5 191.4c0 .3-.2.5-.5.5s-.5-.2-.5-.5.2-.5.5-.5.5.3.5.5zM888.6 116.7c0 .6-.4 1-1 1s-1-.4-1-1 .5-1 1-1 1 .5 1 1zM838.3 93.7c0 .2-.2.3-.3.3-.2 0-.3-.2-.3-.3 0-.2.2-.3.3-.3.2-.1.3.1.3.3zM945.4 145.7c0 .4-.3.7-.7.7a.7.7 0 0 1-.7-.7c0-.4.3-.7.7-.7.4 0 .7.3.7.7zM944.4 58.3c0 .2-.2.4-.4.4a.4.4 0 0 1-.4-.4c0-.2.2-.4.4-.4s.4.2.4.4zM1020.4 66.8c0 .9-.7 1.6-1.6 1.6-.9 0-1.6-.7-1.6-1.6 0-.9.7-1.6 1.6-1.6.9 0 1.6.7 1.6 1.6zM1027.8 213.4c0 .5-.4 1-1 1a1 1 0 0 1-1-1c0-.5.4-1 1-1 .5 0 1 .5 1 1zM1024 80c0 .8-.6 1.4-1.4 1.4-.8 0-1.4-.6-1.4-1.4 0-.8.6-1.4 1.4-1.4.7 0 1.4.6 1.4 1.4zM942.2 150.7c0 .3-.2.5-.5.5-.2 0-.5-.2-.5-.5s.2-.5.5-.5c.2 0 .5.2.5.5zM858.3 286c0 .2-.1.3-.3.3-.2 0-.3-.1-.3-.3 0-.2.1-.3.3-.3.2 0 .3.1.3.3zM1079.6 79.1c0 .3-.2.5-.5.5s-.5-.2-.5-.5.2-.5.5-.5c.3-.1.5.2.5.5zM674.3 37c0 .3-.2.5-.5.5s-.5-.2-.5-.5.2-.5.5-.5c.2.1.5.3.5.5zM789.9 78c0 .5-.4.9-.9.9a.9.9 0 0 1-.9-.9c0-.5.4-.9.9-.9s.9.4.9.9zM1087.8 281.8c0 .6-.5 1.1-1.1 1.1-.6 0-1.1-.5-1.1-1.1 0-.6.5-1.1 1.1-1.1.6.1 1.1.5 1.1 1.1zM883.8 126.6c0 .2-.2.4-.4.4a.4.4 0 0 1-.4-.4c0-.2.2-.4.4-.4s.4.2.4.4zM888.9 55.8c0 .3-.2.5-.5.5s-.5-.2-.5-.5.2-.5.5-.5c.3-.1.5.2.5.5zM1066.2 9.6c0 .4-.4.8-.8.8a.8.8 0 0 1-.8-.8c0-.5.4-.8.8-.8s.8.4.8.8zM913.6 132.3c0 .5-.4.8-.8.8a.8.8 0 0 1-.8-.8c0-.5.4-.8.8-.8s.8.4.8.8zM1003.9 48.3c0 .6-.5 1-1 1-.6 0-1-.4-1-1s.5-1 1-1c.6 0 1 .4 1 1zM1031.4 314.7c0 .3-.2.5-.5.5s-.5-.2-.5-.5.2-.5.5-.5.5.2.5.5zM894 79.2c0 .2-.2.4-.4.4a.4.4 0 0 1-.4-.4c0-.2.2-.4.4-.4.2-.1.4.1.4.4zM677 127.5c0 .3-.3.6-.6.6a.6.6 0 0 1-.6-.6c0-.3.3-.6.6-.6s.6.3.6.6zM1112.1 151.2c0 .4-.3.7-.7.7a.7.7 0 0 1-.7-.7c0-.4.3-.7.7-.7.4 0 .7.3.7.7zM1042.5 96.5c0 .9-.7 1.6-1.6 1.6-.9 0-1.6-.7-1.6-1.6 0-.9.7-1.6 1.6-1.6.9 0 1.6.7 1.6 1.6zM829.7 50.3a1 1 0 0 1-2 0c0-.6.4-1 1-1 .5 0 1 .4 1 1zM1114.3 16.1c0 .2-.2.4-.4.4a.4.4 0 0 1-.4-.4c0-.2.2-.4.4-.4s.4.2.4.4zM907.3 49c0 .5-.4.9-.9.9a.9.9 0 0 1-.9-.9c0-.5.4-.9.9-.9.5.1.9.5.9.9zM735.6 121.7c0 .7-.5 1.2-1.2 1.2s-1.2-.5-1.2-1.2.5-1.2 1.2-1.2c.6 0 1.2.5 1.2 1.2zM812.5 27.8c0 .3-.2.5-.5.5s-.5-.2-.5-.5.2-.5.5-.5.5.2.5.5zM900.5 20.7c0 .4-.3.7-.7.7a.7.7 0 0 1-.7-.7c0-.4.3-.7.7-.7.4 0 .7.3.7.7zM764 208.7c0 .2-.1.3-.3.3-.2 0-.3-.1-.3-.3 0-.2.1-.3.3-.3.2 0 .3.2.3.3zM494.1 10.6c0 .9-.8 1.7-1.7 1.7-.9 0-1.7-.8-1.7-1.7 0-.9.8-1.7 1.7-1.7.9 0 1.7.7 1.7 1.7zM1011.4 193c0 .3-.2.5-.5.5s-.5-.2-.5-.5.2-.5.5-.5.5.2.5.5zM850.3 67.1a1.9 1.9 0 1 1-3.8 0 1.9 1.9 0 1 1 3.8 0zM795.7 51.8c0 .3-.3.6-.6.6a.6.6 0 0 1-.6-.6c0-.3.3-.6.6-.6s.6.3.6.6zM605 119.9c0 .4-.3.6-.6.6-.4 0-.6-.3-.6-.6 0-.4.3-.6.6-.6.3-.1.6.2.6.6zM642.2 39.2c0 .5-.4.9-.9.9a.9.9 0 0 1-.9-.9c0-.5.4-.9.9-.9s.9.4.9.9zM736.1 202.6c0 .3-.3.6-.6.6a.6.6 0 0 1-.6-.6c0-.3.3-.6.6-.6.3.1.6.3.6.6zM664.6 122.3c0 .5-.4.8-.8.8a.8.8 0 0 1-.8-.8c0-.5.4-.8.8-.8.4-.1.8.3.8.8zM592.3 58.7c0 .8-.6 1.4-1.4 1.4-.8 0-1.4-.6-1.4-1.4 0-.8.6-1.4 1.4-1.4.7 0 1.4.6 1.4 1.4zM891.5 213c0 .2-.2.3-.4.3s-.3-.2-.3-.3c0-.2.2-.3.3-.3.2-.1.4.1.4.3zM879.9 184c0 .5-.4 1-1 1a1 1 0 0 1-1-1c0-.5.4-1 1-1 .6.1 1 .5 1 1zM789.7 336.4c0 .6-.5 1.1-1.1 1.1-.6 0-1.1-.5-1.1-1.1 0-.6.5-1.1 1.1-1.1.6 0 1.1.5 1.1 1.1zM712.4 214.1c0 .5-.4.9-.9.9a.9.9 0 0 1-.9-.9c0-.5.4-.9.9-.9s.9.4.9.9zM717.5 113.2c0 .3-.2.5-.5.5s-.5-.2-.5-.5.2-.5.5-.5.5.2.5.5zM737 70.1c0 .5-.4.9-.9.9a.9.9 0 0 1-.9-.9c0-.5.4-.9.9-.9s.9.4.9.9zM656.8 3.7c0 .3-.3.6-.6.6a.6.6 0 0 1-.6-.6c0-.4.3-.6.6-.6s.6.3.6.6zM987.3 64.2c0 .4-.3.6-.6.6-.4 0-.6-.3-.6-.6 0-.4.3-.6.6-.6.3-.1.6.2.6.6zM479.4 138.8c0 .2-.2.4-.4.4a.4.4 0 0 1-.4-.4c0-.2.2-.4.4-.4s.4.2.4.4zM582.1 82c0 1-.8 1.7-1.7 1.7-1 0-1.7-.8-1.7-1.7 0-1 .8-1.7 1.7-1.7.9 0 1.7.8 1.7 1.7zM626.2 81.3c0 .5-.4 1-1 1s-1-.4-1-1c0-.5.4-1 1-1 .6.1 1 .5 1 1zM1070.8 265.8c0 .4-.3.8-.8.8a.8.8 0 0 1-.8-.8c0-.4.3-.8.8-.8.4.1.8.4.8.8zM726.6 38c0 .5-.4.9-.8.9-.5 0-.8-.4-.8-.9s.4-.9.8-.9c.5.1.8.4.8.9zM509 15.4c0 .2-.2.4-.4.4a.4.4 0 0 1-.4-.4c0-.2.2-.4.4-.4s.4.1.4.4zM755.8 168.8c0 .2-.1.3-.3.3-.2 0-.3-.1-.3-.3 0-.2.1-.3.3-.3.2 0 .3.1.3.3zM719.8 257.3c0 .5-.4.9-.9.9a.9.9 0 0 1-.9-.9c0-.5.4-.9.9-.9s.9.4.9.9zM642.3 182.4c0 .7-.5 1.2-1.2 1.2s-1.2-.6-1.2-1.2c0-.7.6-1.2 1.2-1.2.7-.1 1.2.5 1.2 1.2zM481.8 85.3c0 .5-.4.9-.9.9a.9.9 0 0 1-.9-.9c0-.5.4-.9.9-.9.6 0 .9.4.9.9zM353.5 276.5c0 .4-.3.6-.6.6-.4 0-.6-.3-.6-.6 0-.4.3-.6.6-.6.3-.1.6.2.6.6zM799.9 7.6c0 .2-.2.4-.4.4a.4.4 0 0 1-.4-.4c0-.2.2-.4.4-.4s.4.2.4.4zM531.6 115.5c0 .9-.8 1.7-1.7 1.7-.9 0-1.7-.8-1.7-1.7 0-.9.8-1.7 1.7-1.7.9 0 1.7.7 1.7 1.7zM602.9 8.9c0 .2-.1.3-.3.3-.2 0-.3-.1-.3-.3 0-.2.1-.3.3-.3.2 0 .3.1.3.3zM578.3 46.6c0 .4-.4.8-.8.8a.9.9 0 0 1-.8-.8c0-.4.4-.8.8-.8s.8.3.8.8zM697.3 69.7c0 .5-.4.8-.8.8a.8.8 0 0 1-.8-.8c0-.5.4-.8.8-.8.4-.1.8.3.8.8zM479 132.8c0 .3-.2.5-.5.5s-.5-.2-.5-.5.2-.5.5-.5.5.2.5.5zM791 87.5c0 .5-.4.9-.9.9a.9.9 0 0 1-.9-.9c0-.5.4-.9.9-.9s.9.4.9.9zM534.1 330.4c0 .3-.3.6-.6.6a.6.6 0 0 1-.6-.6c0-.3.3-.6.6-.6.4 0 .6.3.6.6zM596.9 41.5c0 .7-.6 1.2-1.2 1.2-.7 0-1.2-.5-1.2-1.2s.5-1.2 1.2-1.2c.6 0 1.2.5 1.2 1.2zM803 301c0 .4-.3.8-.8.8a.8.8 0 0 1-.8-.8c0-.4.3-.8.8-.8s.8.4.8.8zM648.9 95.1c0 .3-.3.6-.6.6a.6.6 0 0 1-.6-.6c0-.3.3-.6.6-.6.4 0 .6.3.6.6zM384.5 190.7c0 .4-.3.7-.7.7a.7.7 0 0 1-.7-.7c0-.4.3-.7.7-.7.4 0 .7.3.7.7zM535.9 69.7c0 .7-.6 1.3-1.3 1.3-.7 0-1.3-.6-1.3-1.3 0-.7.6-1.3 1.3-1.3.8 0 1.3.5 1.3 1.3zM489.7 309.6c0 .3-.3.6-.6.6a.6.6 0 0 1-.6-.6c0-.3.3-.6.6-.6s.6.3.6.6zM355.8 143c0 .8-.7 1.5-1.5 1.5s-1.5-.7-1.5-1.5.7-1.5 1.5-1.5c.9.1 1.5.7 1.5 1.5zM524.3 219.9c0 .3-.2.5-.5.5s-.5-.2-.5-.5.2-.5.5-.5.5.2.5.5zM687 54.8c0 .7-.6 1.3-1.3 1.3-.7 0-1.3-.6-1.3-1.3 0-.7.6-1.3 1.3-1.3.7.1 1.3.6 1.3 1.3zM641.3 145.5c0 .4-.3.7-.7.7a.7.7 0 0 1-.7-.7c0-.4.3-.7.7-.7.4.1.7.4.7.7zM620.6 168.3a1 1 0 0 1-2 0c0-.6.5-1 1-1 .6 0 1 .4 1 1zM454.2 69.1c0 .3-.2.5-.5.5s-.5-.2-.5-.5.2-.5.5-.5c.3.1.5.3.5.5zM630.6 189.6c0 .3-.2.5-.5.5s-.5-.2-.5-.5.2-.5.5-.5c.2 0 .5.2.5.5zM432.7 173c0 .5-.4.9-.9.9a.9.9 0 0 1-.9-.9c0-.5.4-.9.9-.9s.9.4.9.9zM643.5 284.7c0 .3-.3.6-.6.6a.6.6 0 0 1-.6-.6c0-.3.3-.6.6-.6.4 0 .6.3.6.6zM595.8 29.1c0 .4-.3.7-.7.7a.7.7 0 0 1-.7-.7c0-.4.3-.7.7-.7.4.1.7.4.7.7zM780.3 132.1c0 .3-.3.6-.6.6a.6.6 0 0 1-.6-.6c0-.3.3-.6.6-.6s.6.3.6.6zM882.5 94.3c0 .5-.4.9-.9.9a.9.9 0 0 1-.9-.9c0-.5.4-.9.9-.9.5-.1.9.4.9.9zM465.2 45.9c0 .3-.2.5-.5.5s-.5-.2-.5-.5.2-.5.5-.5c.2 0 .5.2.5.5zM304.5 137.6c0 .9-.7 1.7-1.7 1.7-.9 0-1.7-.7-1.7-1.7 0-.9.7-1.7 1.7-1.7s1.7.8 1.7 1.7zM620.6 122.7c0 .2-.2.4-.4.4a.4.4 0 0 1-.4-.4c0-.2.2-.4.4-.4s.4.2.4.4zM242.3 63.1c0 .4-.3.7-.7.7a.7.7 0 0 1-.7-.7c0-.4.3-.7.7-.7.4 0 .7.3.7.7zM406.7 45.5c0 .2-.2.4-.4.4a.4.4 0 0 1-.4-.4c0-.2.2-.4.4-.4s.4.2.4.4zM513 208.3c0 .2-.2.4-.4.4a.4.4 0 0 1-.4-.4c0-.2.2-.4.4-.4s.4.2.4.4zM275.1 103.9c0 .6-.4 1-1 1a1 1 0 0 1 0-2c.5 0 1 .5 1 1zM494.9 116.3c0 .5-.4.8-.8.8a.8.8 0 0 1-.8-.8c0-.5.4-.8.8-.8s.8.3.8.8zM287.7 74.2c0 .2-.2.4-.4.4a.4.4 0 0 1-.4-.4c0-.2.2-.4.4-.4s.4.2.4.4zM237.4 18.1c0 .3-.3.6-.6.6a.6.6 0 0 1-.6-.6c0-.3.3-.6.6-.6s.6.3.6.6zM201.8 246.5c0 .8-.7 1.5-1.5 1.5-.9 0-1.5-.7-1.5-1.5s.7-1.5 1.5-1.5c.8-.1 1.5.6 1.5 1.5zM582 123.8c0 .6-.5 1.1-1.1 1.1-.6 0-1.1-.5-1.1-1.1 0-.6.5-1.1 1.1-1.1.5 0 1.1.5 1.1 1.1zM599.5 95.8c0 .5-.4.9-.9.9a.9.9 0 0 1-.9-.9c0-.5.4-.9.9-.9.5-.1.9.4.9.9zM97 11.1c0 .2-.1.3-.3.3-.2 0-.3-.1-.3-.3 0-.2.1-.3.3-.3.2 0 .3.1.3.3zM536.5 151.1c0 .3-.2.5-.5.5s-.5-.2-.5-.5.2-.5.5-.5.5.2.5.5zM505.2 70.2c0 .4-.3.7-.7.7a.7.7 0 0 1-.7-.7c0-.4.3-.7.7-.7.4 0 .7.3.7.7zM234.4 31c0 .3-.3.6-.6.6a.6.6 0 0 1-.6-.6c0-.3.3-.6.6-.6s.6.2.6.6zM457.4 6.7c0 .4-.3.7-.7.7a.7.7 0 0 1-.7-.7c0-.4.3-.8.7-.8.4.1.7.4.7.8zM547.4 23.3c0 .5-.4.9-.9.9a.9.9 0 0 1-.9-.9c0-.5.4-.9.9-.9s.9.4.9.9zM111.9 21.5c0 .2-.1.3-.3.3-.2 0-.3-.1-.3-.3 0-.2.1-.3.3-.3.2 0 .3.1.3.3zM171.6 302.2c0 .5-.4 1-1 1s-1-.4-1-1c0-.5.4-1 1-1s1 .4 1 1zM405.2 50.2c0 .8-.7 1.4-1.4 1.4-.8 0-1.4-.6-1.4-1.4 0-.8.6-1.4 1.4-1.4.8 0 1.4.6 1.4 1.4zM356.9 244.3c0 .5-.4 1-1 1a1 1 0 0 1-1-1c0-.5.4-1 1-1 .5.1 1 .5 1 1zM220.1 152.1c0 .4-.3.6-.6.6-.4 0-.7-.3-.7-.6 0-.4.3-.6.7-.6.4 0 .6.2.6.6zM92.2 253.4c0 .3-.3.6-.6.6a.6.6 0 0 1-.6-.6c0-.3.3-.6.6-.6s.6.2.6.6zM175.1 140.1c0 .5-.4.8-.8.8a.8.8 0 0 1-.8-.8c0-.5.4-.8.8-.8s.8.4.8.8zM558.7 238.6c0 .5-.4.9-.9.9a.9.9 0 0 1-.9-.9c0-.5.4-.9.9-.9s.9.4.9.9zM426.4 67c0 .5-.4 1-1 1a1 1 0 0 1-1-1c0-.5.4-1 1-1s1 .5 1 1zM416 270c0 .4-.3.7-.7.7a.7.7 0 0 1-.7-.7c0-.4.3-.7.7-.7.4 0 .7.3.7.7zM393.3 248.5c0 .4-.3.7-.7.7a.7.7 0 0 1-.7-.7c0-.4.3-.7.7-.7.4.1.7.4.7.7zM474.7 70.5c0 .6-.5 1-1.1 1-.6 0-1.1-.5-1.1-1 0-.6.5-1.1 1.1-1.1.6.1 1.1.5 1.1 1.1zM455 56c0 .4-.3.8-.7.8a.8.8 0 0 1-.8-.8c0-.4.3-.8.8-.8.4.1.7.4.7.8zM471.4 154.3c0 .2-.2.4-.4.4a.4.4 0 0 1-.4-.4c0-.2.2-.4.4-.4s.4.2.4.4zM155.4 191.7a1.9 1.9 0 1 1-3.8 0c0-1 .8-1.9 1.9-1.9 1.1 0 1.9.8 1.9 1.9zM293.4 289c0 .3-.3.6-.6.6s-.5-.2-.5-.6c0-.3.2-.5.5-.5.3-.1.6.2.6.5zM334.1 136.7c0 .4-.4.8-.8.8a.9.9 0 0 1-.8-.8c0-.4.4-.8.8-.8s.8.3.8.8zM158 83.1c0 .3-.3.6-.6.6a.6.6 0 0 1-.6-.6c0-.3.3-.6.6-.6s.6.3.6.6zM443.5 43.8c0 .7-.6 1.3-1.3 1.3-.7 0-1.3-.6-1.3-1.3 0-.7.6-1.3 1.3-1.3.7 0 1.3.6 1.3 1.3zM414.5 75.9c0 .2-.1.3-.3.3-.2 0-.3-.1-.3-.3 0-.2.1-.3.3-.3.1-.1.3.1.3.3zM171.1 123.6c0 .8-.7 1.5-1.5 1.5s-1.5-.7-1.5-1.5.7-1.5 1.5-1.5 1.5.6 1.5 1.5zM31.1 142.8c0 .4-.3.8-.8.8a.9.9 0 0 1-.8-.8c0-.4.3-.8.8-.8.4 0 .8.4.8.8zM271.6 143c0 .5-.4.8-.8.8-.5 0-.9-.4-.9-.8 0-.5.4-.8.9-.8.4 0 .8.4.8.8zM290.8 94.4c0 .5-.4 1-1 1a1 1 0 0 1-1-1c0-.5.4-.9 1-.9.6-.1 1 .3 1 .9zM273.3 26.5c0 .4-.3.8-.8.8a.9.9 0 0 1-.8-.8c0-.4.3-.8.8-.8.4.1.8.4.8.8zM525.1 70.4c0 .5-.4.9-.9.9a.9.9 0 0 1-.9-.9c0-.5.4-.9.9-.9s.9.4.9.9zM324.7 184.2c0 .9-.7 1.6-1.6 1.6-.9 0-1.6-.7-1.6-1.6 0-.9.7-1.6 1.6-1.6.9 0 1.6.8 1.6 1.6zM301.2 266c0 .9-.7 1.6-1.6 1.6-.9 0-1.6-.7-1.6-1.6 0-.9.7-1.6 1.6-1.6.9 0 1.6.7 1.6 1.6zM268.8 34.6c0 .3-.3.6-.6.6-.4 0-.6-.3-.6-.6s.3-.6.6-.6.6.3.6.6zM215.7 201.4c0 .7-.6 1.3-1.3 1.3-.7 0-1.3-.6-1.3-1.3 0-.7.6-1.3 1.3-1.3.7 0 1.3.6 1.3 1.3zM34.5 30.6c0 .4-.4.8-.8.8a.9.9 0 0 1-.8-.8c0-.4.4-.8.8-.8s.8.3.8.8zM459.2 179.7c0 .6-.5 1.1-1.1 1.1-.6 0-1.1-.5-1.1-1.1 0-.6.5-1.1 1.1-1.1.6 0 1.1.5 1.1 1.1zM326 246.4c0 .4-.3.7-.7.7a.7.7 0 0 1-.7-.7c0-.4.3-.7.7-.7.4-.1.7.3.7.7zM532.5 53.9c0 .5-.4.9-.9.9a.9.9 0 0 1-.9-.9c0-.5.4-.9.9-.9s.9.4.9.9zM117.6 57.8c0 .5-.4 1-1 1a1 1 0 0 1-1-1c0-.5.4-1 1-1s1 .4 1 1zM89.1 41c0 .4-.3.7-.7.7a.7.7 0 0 1-.7-.7c0-.4.3-.7.7-.7.4 0 .7.3.7.7zM253.8 45c0 .3-.3.6-.6.6a.6.6 0 0 1-.6-.6c0-.3.3-.6.6-.6s.6.2.6.6zM438.9 218.8c0 .7-.6 1.2-1.2 1.2-.7 0-1.2-.6-1.2-1.2 0-.7.6-1.2 1.2-1.2s1.2.5 1.2 1.2zM386.1 104.1c0 .7-.6 1.4-1.4 1.4-.8 0-1.4-.6-1.4-1.4 0-.8.6-1.4 1.4-1.4.8 0 1.4.6 1.4 1.4zM176.5 260.8c0 .2-.2.4-.4.4a.4.4 0 0 1-.4-.4c0-.2.2-.4.4-.4s.4.2.4.4zM129.7 21.9c0 .3-.3.6-.6.6a.6.6 0 0 1-.6-.6c0-.3.3-.6.6-.6.4 0 .6.3.6.6zM326 18.9c0 .4-.3.7-.8.7-.4 0-.8-.3-.8-.7 0-.4.3-.7.8-.7s.8.3.8.7zM89.2 3.9c0 .3-.3.6-.6.6a.6.6 0 0 1-.6-.6c0-.3.3-.6.6-.6s.6.3.6.6zM55 171.3c0 .7-.6 1.3-1.3 1.3-.7 0-1.3-.6-1.3-1.3 0-.7.6-1.3 1.3-1.3.7 0 1.3.6 1.3 1.3zM107 172.5c0 .8-.7 1.5-1.5 1.5s-1.5-.7-1.5-1.5.7-1.5 1.5-1.5c.8.1 1.5.7 1.5 1.5zM56.3 230.1c0 .2-.2.4-.4.4a.4.4 0 0 1-.4-.4c0-.2.2-.4.4-.4s.4.2.4.4zM23.9 121.7c0 .8-.6 1.4-1.4 1.4-.8 0-1.4-.6-1.4-1.4 0-.8.6-1.4 1.4-1.4.8.1 1.4.7 1.4 1.4zM130.9 153.8c0 .6-.5 1.1-1.1 1.1-.6 0-1.1-.5-1.1-1.1 0-.6.5-1.1 1.1-1.1.6-.1 1.1.4 1.1 1.1zM79.4 122.1c0 .3-.2.5-.5.5s-.5-.2-.5-.5.2-.5.5-.5.5.2.5.5zM81.2 145a1 1 0 0 1-2 0c0-.6.5-1 1-1 .6 0 1 .4 1 1zM300.7 23.3a2 2 0 0 1-2 2 2 2 0 0 1-2-2c0-1.1.9-2 2-2a2 2 0 0 1 2 2zM161.4 200c0 .3-.3.6-.6.6a.6.6 0 0 1-.6-.6c0-.3.3-.6.6-.6s.6.3.6.6zM202 85.8c0 .5-.4.9-.9.9a.9.9 0 0 1-.9-.9c0-.5.4-.9.9-.9s.9.4.9.9zM107 65.7c0 .3-.3.6-.6.6a.6.6 0 0 1-.6-.6c0-.3.3-.6.6-.6.3-.1.6.2.6.6zM130.5 36.6c0 .3-.3.6-.6.6a.6.6 0 0 1-.6-.6c0-.3.3-.6.6-.6.4 0 .6.3.6.6zM11.5 27.6c0 .3-.2.5-.5.5s-.5-.2-.5-.5.2-.5.5-.5.5.2.5.5zM197 156.3c0 .9-.8 1.7-1.7 1.7-1 0-1.7-.8-1.7-1.7 0-.9.8-1.7 1.7-1.7.9 0 1.7.8 1.7 1.7zM193.5 187.5c0 .5-.4 1-1 1a1 1 0 0 1-1-1c0-.5.4-.9 1-.9.6-.1 1 .3 1 .9zM73.8 20.5c0 .4-.3.7-.7.7a.7.7 0 0 1-.7-.7c0-.4.3-.7.7-.7.4 0 .7.4.7.7zM118.9 205.4c0 .8-.7 1.4-1.4 1.4-.8 0-1.4-.6-1.4-1.4 0-.8.6-1.4 1.4-1.4.8-.1 1.4.6 1.4 1.4zM21.5 104.6c0 .7-.5 1.2-1.2 1.2s-1.2-.5-1.2-1.2.6-1.2 1.2-1.2c.7-.1 1.2.5 1.2 1.2zM44.5 236.8c0 .3-.3.6-.6.6a.6.6 0 0 1-.6-.6c0-.3.3-.6.6-.6s.6.2.6.6zM73.1 81.4c0 .5-.4.8-.8.8a.8.8 0 0 1-.8-.8c0-.5.4-.8.8-.8.4-.1.8.3.8.8z" class="st1"/>
  <g opacity=".5">
    <path d="M1127.4 336.3a83.4 83.4 0 0 0-19-6.4c-10.4-2-21.4-.7-31.9.6-11 1.4-22.1 3-33.2 3.8-11.4.8-22.8.6-34.2.4a151.2 151.2 0 0 0-33.1 1.7c-5.4.8-10.8 2.4-16.4 2.4-2.8 0-5.5-.5-8.3-.4l-8.5.2c-5.5.1-11.1 0-16.5-.9l-2-.3c-.6-.2-1.2-.7-1.6-.9l-3.5-2a103.9 103.9 0 0 0-36.3-13c-11.1-1.6-22.5 0-33.7-.1l-16.8-.6c-5.6-.3-11.1-1.1-16.6-1.9-11.1-1.6-22.1-3.5-33.1-5.3l-16.6-2.9-8.2-1.5-3.8-.7-2-.4c-.4-.1-2.1-.2-2.4-.5-.3-.3-.3-1.2-.3-1.5l-.3-1.5-.8-3c-.6-2.1-1.7-3.9-3.1-5.7a32.2 32.2 0 0 0-9.1-8 162 162 0 0 0-13-7.3c-4.7-2.4-9.3-4.8-14.1-7l-28.7-13.4c-9.2-4.3-18.8-8.3-29.2-10.4a42.7 42.7 0 0 0-11.6-.8c-1.3.2-2.4.7-3.6 1.1-5 1.9-9.3 5-13.6 7.7a248.6 248.6 0 0 1-26.9 14.7c-4.9 2.2-9.8 4.4-14.8 6.4a167 167 0 0 1-15.5 5.4 428.9 428.9 0 0 1-32 8.3c-10.8 2.5-21.6 5.2-32.6 7.4-11 2.3-22.1 4.3-33.1 6.5-22.1 4.3-44.3 8.6-66.7 12.1l-33.6 5.2a341 341 0 0 1-33.4 3.7c-5.7.3-11.3.4-17 .3-1.3 0-2.9.1-4.2-.1l-.8-.3-.6-.5-1.6-1.2a82.2 82.2 0 0 0-18.7-10.9 79.2 79.2 0 0 0-14.1-5.4c-2.7-.7-5.3-1.5-8.2-1.5-1.2 0-2.5 0-3.7.2-1.3.2-2.5.6-3.7 1l-15.9 4.6a285 285 0 0 0-23.3 8.2c-2.3.9-4.4 2.4-6.8 3-5.1 1.4-10.5 1.8-15.8 2.2a1301.3 1301.3 0 0 1-51 1.9c-23 .3-45.9.4-68.9.9-22.9.5-45.8 1.4-68.6 2.7l-11 .6v9.5c22.2-.3 44.3.1 66.5.4a2504.9 2504.9 0 0 1 135.3 5.8c11.3.8 22.5 1.6 33.8 2.1l16.8.6c2.8.1 5.7.4 8.5.1 2.5-.2 4.8-1.3 7-2.2 4.9-2.1 10-3.9 15.1-5.6l7.7-2.5c.6-.2.6-.2 1.1-.1l.7.3 1.7.8 3.6 1.6a97 97 0 0 0 29.1 7.4 262.5 262.5 0 0 0 66.6-1.9c11-1.7 22-3.6 33-5.5s22-3.8 33-5.9c22.2-4.1 44.2-9 66.2-13.8 10.9-2.3 21.7-4.8 32.5-7.4l16.2-3.8c5.1-1.2 10.3-2.4 15.3-3.9a125.6 125.6 0 0 0 20.2-8.1l5.9-3.8c4.1-2.5 8.6-4.6 13-6.9a221.3 221.3 0 0 0 26.2-15.8c3.8-2.6 7.4-5.6 11.6-7.9 2.2-1.2 5.3-.6 7.5.1a56 56 0 0 1 7.1 3l14.1 6.8c4.8 2.3 9.5 4.5 14.2 6.9l3.3 1.7c.6.3 1.2.5 1.5 1 .3.5.4 1.2.6 1.8.6 2 .8 4.1 1.1 6.1.3 1.9.6 3.8 1.8 5.5 1 1.6 2.4 3.1 3.8 4.4a54 54 0 0 0 11.2 8c7.9 4.5 16.5 8.2 25.6 11 10 3 20.5 5.1 30.9 7 10.9 2 21.9 3.8 32.8 5.6 10.9 1.8 21.8 3.7 32.9 4.8 5.5.6 11 1 16.5 1.3 5.4.3 11 .5 16.4.3 5.7-.2 11.4-.8 17.1-.8l3.8.1 2 .3c1 .2 1.4.3 2.2.8l6.6 3.7c8.1 4.4 16.8 8 26.2 10.3 10.1 2.5 20.6 3.1 31.2 3.1h8.4c2.7 0 5.3.5 7.9.5 2.7 0 5.3-.5 7.9-.9a218 218 0 0 1 24.7-3.2c5.5-.2 11.1-.3 16.6-.3 11.1-.1 22.4-.2 33.5-1.8 10.9-1.6 21.6-3.9 32.3-6.1a97.3 97.3 0 0 1 16.2-2.3h2.8v-9.1z" class="st3"/>
    <path d="M1127.4 367.7c-15.1 0-30.2 0-45.3.4-18.5.5-36.9 1.1-55.3 1.8l-55.3 2.1c-18.3.7-36.7 1.6-55.1 1.9-9.1.1-18.3.2-27.3-.3a164 164 0 0 1-25.7-3.8c-16.7-3.8-32.8-8.5-49.4-12.6-16.1-4-33.3-7.6-51-6.3-8.9.7-17.8 2.1-26.6 3.5l-26.7 4.3c-16.9 2.6-34.4 4.1-50.3 8.9-3.6 1.1-7 2.3-10.2 3.8l1.9-.5 3.2-.8 6-1.3a409.8 409.8 0 0 1 39.9-4.2c9.1-.5 18.2-1.1 27.3-1.9l27.5-2.3c8.9-.7 17.8-1.4 26.8-1.3 4.4.1 8.7.5 13 1.1 4.2.6 8.5 1.2 12.6 2.1 16.8 3.8 32.7 8.8 49.1 13.3 8.2 2.2 16.4 4.2 24.7 6.1a162 162 0 0 0 25.4 3.9c18.1 1.3 36.3.5 54.5-.5 18.2-1 36.4-2.3 54.6-3.7l54.3-4.2c18.2-1.3 36.3-2.6 54.5-3.5l3-.1v-5.9zM562.3 369.2c-18.9-4.2-39.6-5.1-59.7-7l-31.7-3.2c-10.4-1-20.9-2.1-31.5-2.5-21-.6-41.5 3.7-60.6 8.3-19.6 4.7-38.7 10-58.6 14.5-9.8 2.2-20.1 4-30.5 4.8-10.7.8-21.6 1.1-32.4 1.3-21.8.4-43.6.2-65.3.2l-65.6.1-65.7.4c-20.2.2-40.5.8-60.7 1.6v5.3h10.5c21.6.2 43.1.7 64.7 1.4l64.5 2.1c21.6.6 43.1 1.3 64.8 1.6 21.6.3 43.2.5 64.7-1.6 10.4-1 20.3-2.7 30.1-4.9 9.9-2.2 19.7-4.5 29.4-7 19.4-5 38.3-10.7 58.2-15.2a195.8 195.8 0 0 1 30.3-4.2c10.6-.5 21.2-.1 31.7.2 10.9.3 21.7.8 32.6 1.2 10.8.4 21.6.6 32.4.8a577.3 577.3 0 0 1 47.4 2.7l7.2 1.1 3.8.7 2.3.5c-4-1.2-8.1-2.3-12.3-3.2z" class="st3"/>
  </g>
  <g>
    <linearGradient id="SVGID_2_" x1="396.5" x2="396.5" y1="434.9" y2="362.9" gradientUnits="userSpaceOnUse">
      <stop offset="0" stop-color="#0072b7"/>
      <stop offset="1" stop-color="#0069ad"/>
    </linearGradient>
    <path fill="url(#SVGID_2_)" d="M473.8 418c-.8 0-1.3.2-2 .1l-1.1-.2-3.9-.9c-3.5-.9-7-1.6-10.5-2.3l-12.6-2.6c-3.1-.6-6-.6-9.1.1-1.7.4-3.3 1-5 1.6l-2.5.7c-.7.2-.7 0-1.2-.3l-1.3-.5c-2.9-.9-5.9-1.5-8.9-2.2-3.2-.8-6.2-1.7-9.2-2.8a145 145 0 0 0-11.7-3.7c-2-.6-4.1-1-6.1-1.5-1.6-.3-3.3-.8-5-.8a15 15 0 0 0-9 3.1c-1.5 1-3.1 1.8-4.8 2.6-1.8.8-3.5 1.8-5.2 2.7l-9.8 4.7-12.9 5.9a220.6 220.6 0 0 0-21.6 11.2c-.5.2-1.8.6-2 1-.2.3 0 .8 0 1.1v43.5h156.3v-.7-1.7-5.8-17.7-19.4-13.1-1.3c-.1-.8.1-.8-.9-.8z"/>
    <linearGradient id="SVGID_3_" x1="100.5" x2="100.5" y1="434.9" y2="362.9" gradientUnits="userSpaceOnUse">
      <stop offset="0" stop-color="#0072b7"/>
      <stop offset="1" stop-color="#0069ad"/>
    </linearGradient>
    <path fill="url(#SVGID_3_)" d="M200.8 512.2V435c-5.1-1.8-10.3-3.3-15.3-5.1-5.6-2-11-4.3-16.2-6.7-7.2-3.3-13.3-7.6-19.9-11.4-1-.6-2-1.1-2.8-1.8-1-.9-2.4-.8-3.6-.3-2.2.9-4.1 2.3-5.8 3.6-4.1 3.2-8.7 5.9-13.3 8.7-7.2 4.3-13.3 9.4-20.6 13.7A90 90 0 0 1 99 438l-2 1-3.2 1.7c-.7.3-2.1-.1-2.9-.2l-1.8-.3-2.9-.6c-4.6-1.1-8.7-2.9-13.2-4.2-5-1.5-10.2-2.3-15.4-3.4-5.5-1.2-11-2.6-16.6-3.6-3.4-.6-6.7-1.2-10-2l-10.2-2.9C15 421.9 9 421 3.5 418.9L0 417.4v95.4c.1.3.3.2.8.2h200.1c.1-.1-.1-.6-.1-.8z"/>
    <linearGradient id="SVGID_4_" x1="991.9" x2="991.9" y1="434.9" y2="362.9" gradientUnits="userSpaceOnUse">
      <stop offset="0" stop-color="#0072b7"/>
      <stop offset="1" stop-color="#0069ad"/>
    </linearGradient>
    <path fill="url(#SVGID_4_)" d="M1127.4 433.9l-1.7-.6-7.7-2.4a247 247 0 0 1-18.9-6.4c-7-2.7-14.1-5.2-21-8l-7.2-2.9c-2.1-.8-4.2-1.5-6.4-2.1-1.3-.4-2.5-.8-3.9-.9-.7-.1-1.5.1-2.2-.1-.6-.1-1.1-.3-1.8-.2-.7.1-1.4.4-2 .7l-2.9 1.6-3.3 1.8-10.1 5.7c-2.9 1.7-5.9 3.2-8.9 4.8l-6.5 3.7-2.1 1.1-.7.3c-.5.2-.8.1-1.3 0-8.7-1.5-17.2-3.9-25.7-5.8l-15.2-3.4-5.5-1.3-8-2.2c-2.6-.7-5.4-1.2-8-2-2.8-.8-5.5-1.7-8.3-2.4-3.8-1-7.7-2.1-11.6-3l-3.9-.6c-1.1-.1-2.4-.2-3.5-.1l-1.4.5c-.4.3-.5.7-.8 1-.3.3-.9.5-1.3.7-4.2 2.3-8.7 4.3-13 6.5a98 98 0 0 1-7.4 3.3 50.8 50.8 0 0 0-6.9 3.8c-3.6 2.2-7.6 4.1-11.4 6.1-3.3 1.8-6.9 3.3-10.1 5.1-3.7 2.1-7.8 3.7-11.4 5.8-1.6.9-3.2 2-4.9 2.8a129 129 0 0 1-3.7 1.8c-.3.1-.4.1-.5.3v30.5c0 .2-.1.4.1.5h270.9v-44z"/>
    <g>
      <linearGradient id="SVGID_5_" x1="563.7" x2="563.7" y1="489" y2="351" gradientUnits="userSpaceOnUse">
        <stop offset="0" stop-color="#0067ac"/>
        <stop offset="1" stop-color="#005394"/>
      </linearGradient>
      <path fill="url(#SVGID_5_)" d="M1127.4 477.7l-15.1-6.4-12.9-5.5c-4.4-1.9-8.9-3.9-13.5-5.5l-4.2-1.4-2.4-.6c-.9-.2-1.9-.3-2.7-.6-.6-.2-1-.5-1.8-.6-.9-.1-1.7.2-2.4.5l-5 2c-8.3 3.4-16.7 6.5-25.2 9.6-5 1.8-10 3.5-14.8 5.5l-1.3.5c-.4.2-1.4.8-1.9.8-.3 0-1-.4-1.3-.5l-2.2-.8-10.7-4.2-3.6-1.4-6.5-1.9-16.4-5.7c-5.1-1.8-10.3-3.2-15.3-5.1l-13.9-5.2-2.3-.8-1.1-.4c-.3-.1-1.1-.5-1.5-.5-.3 0-.8.4-1.1.5l-1.1.5-2.5 1.1-9.5 4.3-12.5 5.9-4.9 2.5c-.6.3-1.3.9-2 1.1-.4.1 0 .2-.5 0l-2.2-1.4-16.3-10.7-19.1-12.6c-8.8-5.8-17.5-11.7-26.3-17.4-6.6-4.3-13.5-8.4-20.3-12.5l-6.7-4.2c-1.6-1-3.2-1.8-4.9-2.7-4.8-2.4-9.4-4.9-14.1-7.4l-18.4-9.2-4.2-2.2-1-.5-.8.3c-.8.3-1.4.7-2.2 1.2l-3.9 2.2c-1.2.6-2.6 1.2-3.7 2l-1.7.7-2.2 1-5 2.2-13.8 6.2-6.4 3-2.2 1.1c-.6.3-.6.4-1.1 0l-6-3.6-18.5-11c-4.4-2.6-8.8-5.2-13-8l-13.4-8.7c-6-3.8-12.4-7.2-18.7-10.8-5.8-3.3-11.3-6.8-16.9-10.3-3.7-2.2-7.7-4.3-11.8-6.2-5.7-2.6-11.6-5-17.1-7.9l-1.3-.7c-.3-.2-1.2-.9-1.5-.8-.5.1-1.1.6-1.5.8l-3.3 1.8c-2.7 1.5-5.3 2.9-7.9 4.5-4.9 3-9.6 6.3-14.4 9.3l-6.3 4.1c-2 1.3-3.8 2.8-5.7 4.1l-2.4 1.6c-1.2.7-2.5 1.7-4 2.2-1.2.4-2-.1-2.9-.7l-2.9-2c-2.6-1.8-5.3-3.5-7.9-5.1l-2-1.3-1-.5c-.4-.1-.9 0-1.3.1-1.5.3-2.8 1.6-3.9 2.3-6.1 4.1-12.5 7.8-19 11.5l-15.1 8.6-14.8 9.2-20.4 12.9c-7.9 5-15.6 10.2-23.2 15.3l-13.9 8.9c-5.4 3.4-10.8 6.8-16.1 10.4-6.1 4.1-12.1 8.2-18.5 11.9l-7.1 4.2a27 27 0 0 1-2.9 1.6c-.6.3-1.3 1-2 1.1-.4.1-1.1-.3-1.6-.4l-8.6-2.8-16.9-5.9-27.2-10.1-17.4-6.1c-8.9-3.1-18.2-5.7-27.3-8.5l-26.1-8.1-8.7-2.8-5.1-1.6-2.6-.8-1.2-.4-.9-.5c-1.4-.8-2.9-.2-4.4.2-.3.1-.8.4-1.1.4l-1.1-.2a6 6 0 0 0-2.3.6l-9.6 3.2-17.6 6.4c-6.7 2.4-13.7 4.6-20.5 6.9l-26.3 9.2c-5.3 1.8-10.6 3.8-15.9 5.8-8.2 3.1-16.5 6.1-24.9 9l-29.7 10.4c-8.3 2.9-16.5 6-24.5 9.3-6.2 2.5-12.4 5.1-18.8 7.4l-16 5.6c-5.2 1.8-10.5 3.5-15.5 5.6-1.4.6-2.9 1.2-4.1 2-.4.3-.5.6-.9.8l-.8.3-7.4 2.8-8.9 3.2-4.6 1.5c-.4.1-1.5.3-1.7.5v215.3h1127.4V477.7z"/>
    </g>
    <g>
      <linearGradient id="SVGID_6_" x1="563.7" x2="563.7" y1="645.9" y2="484.6" gradientUnits="userSpaceOnUse">
        <stop offset="0" stop-color="#0062a3"/>
        <stop offset="1" stop-color="#004373"/>
      </linearGradient>
      <path fill="url(#SVGID_6_)" d="M1127.4 516c-2.5-.6-5.1-.9-7.6-1.5s-4.8-1.5-7.2-2.1a9.8 9.8 0 0 0-8.1 1.4c-.7.4-1.6 1.1-2.5.8-1.3-.5-1.9-1.6-3.5-1.7-1.5-.2-2.9.6-4 1.1a8.5 8.5 0 0 0-2.9 2.3c-.3.3-.3.4-.9.4l-2 .1c-1.4.1-2.3.8-3.5 1.3-1.2.5-1.9.6-2.8-.1-1.1-.8-2.3-.8-3.5 0l-2.1 1.9-1.3 1.2-.8.6c-.4.3-.6.2-1.1 0-1.5-.6-2.8-1.3-3.9-2.3-1-.8-2-1.8-3.3-2.4-1.4-.7-2.9-.5-4.4.1-1.3.6-2.3 1.5-3.7 2-.5-.7-.7-1.8-2-2-1.1-.1-1.7.6-2.2 1.2l-2.4 2.5-1.5 1.4-.8.6c-.3.2-.4.3-.7 0l.1.1c-.9-.9-1.9-1.9-3-2.7-1.7-1.3-3.8-2-5.8-2.9l.1.1c-1-.6-1.8-1.2-2.6-1.9-.7-.7-1.7-2.3-3.2-2-.5.1-.9.4-1.3.7l-2 1.2c-1.1.5-3 1.3-4.3 1-.6-.1-.8-.5-1.1-.9l-.2-.3-.1-.2.1-.5c0-1.1-1.7-1.5-2.6-2.2l-.7-.6c-.3-.2-.6-.2-1.1-.3a6 6 0 0 1-1.9-.6l-.7-.3c-.6-.2-.7 0-1.2.3-1.9 1.3-6.1 3.6-8.2 1.1l-4.8 3.1-2.4 1.5c-.6.4-1.6.7-2.5.5-.5-.1-.9-.3-1.1-.6-.3-.4 0-.6-.1-1-.1-.5-.9-1-1.4-1.3a3.3 3.3 0 0 0-4.2.5c-1.2 1.1-2.1 2.2-3.9 2.8-1.6.5-3.6.5-5.3.8-1 .2-2 .3-3 .1-1.1-.3-2.1-.8-3-1.3-.8-.5-1.5-1.2-2.4-1.5-1.1-.3-2.2 0-3.2.2-1.1.2-2 .1-2.8-.5-.6-.5-1-1.4-2-1.6-1.1-.2-2.3.7-3.1 1.1.1-.2-.5-.6-.7-.8-.4-.3-.9-.5-1.5-.6-1-.1-1.7.2-2.4.6l-1.1.6-.8.4c-.5.1-.2 0-.6-.2l-1.1-.9c-2.2-1.5-3.9 1.2-4.9 2.4l-2.1 2.2c-.8.8-1.8 1.8-3.1 2.3-.6-.8-1.1-1.5-2.3-1.9a4 4 0 0 1-2-1.6 3.9 3.9 0 0 0-2.2-1.7c-1-.3-1.9 0-2.8.2-1.2.4-2.7 1-3.9.4-.9-.5-1.6-1.4-2.9-1.5-1.3-.1-2.1.5-2.6 1.3l-1.4-1.7c-.5-.6-1.3-.7-2.2-.9-1.3-.3-2 .3-2.7 1l-1.8 1.9-1.1 1-.4.3c-.4.3-.5.2-.9 0-1.4-.6-2.7-.4-3.7.5-.5.4-.9.9-1.2 1.4-.4.6-1 1.8-2 1.8l-1.7-.2-1.8-.1c-.9 0-1.7-.1-2.5.1-1.2.3-1.9.5-3.2.4l-2.7-.3c-1.2-.1-2.2.2-3.3.6-1.1.4-2.3 1.2-3.6 1.1-1.1 0-1.8-.9-2.8-1.1-2.3-.5-4.3 1.6-5.8 2.6-.3-1-.5-2.1-.6-3.2l-.1-.5c-.1-.3 0-.2-.3-.3h-1.1l-2.1-.1-2.4-.2-.8-.1-1 .6-1.8.9c-.6.3-1.3.8-2 .9-.7.1-1.1-.7-1.8-.9-1.1-.3-1.6.3-2.5.6-.8.3-1.3-.2-1.8-.6-.3-.3-.7-.7-.6-1 .1-.4.4-.6.3-1-.3-1.6-3.4-1.8-5.1-1.3-1.4.4-2.2 1.5-3.1 2.3-.3.3-1.2 1.2-1.8 1.3l-.8-.4c-.5-.2-1.1-.1-1.6 0-2.5.7-4 2.5-6 3.7a4.6 4.6 0 0 0-2.9-1.3h-1.7l-1.6-.5c-1.1-.4-2.1-.8-3.4-.7-1.4.1-2.3.6-3.5-.1-1-.6-1.6-1.7-3-1.7s-2.3 1.1-3 1.8c-1.2 1.2-2.2 2.5-3.7 3.5l-1.6-2.5c-.6-1-1.6-1.8-2.6-2.6-.6-.5-1.6-.4-2.4-.6-1.4-.3-2.7-1-3.9-1.7-.7-.4-1.3-1.1-2.2-1.1-1.4-.1-2.9 0-4.3-.2-1.5-.2-3.2-.4-4.5-1l-.7-.4-.5-.5c-.3-.1-1 .1-1.4.2l-2.1.3c-.5.1-.5.3-.8.6-.8 1.2-1.6 2.4-2.7 3.6-.2-1-1.7-1.7-2.5-2.4-1-.9-1.8-1.9-2.6-2.8-1.1-1.3-2.4-3.6-4.9-3.5-1.2.1-2.3.7-3.6.5-1.4-.3-2-1.3-3.1-1.8-2.1-1-3.6 1.4-4.4 2.5-.1-.6-.8-.8-1.4-1.1l-2.1-1.2-2.3-1.2c-.9-.5-1.5-1.2-2.5-1.6-1.1-.4-2.3-.1-3.3.2l-1.1.3c-.4.1-1.2.5-1.6.4-.7-.1-1.2-1-1.6-1.4-.7-.8-1.8-1.2-2.9-.5-.7-1.4-2-2.6-2.6-4.1-1.5.4-2.4-.4-3.5-1-.3-.1-.7-.4-.9-.3-.3.1-.7.6-.9.8-.3.2-.6.6-1 .7-.4.2-.4.1-.7-.1-.5-.4-.8-.8-1.5-.9-1.7-.4-3.1 1.1-4.5 1.6l-.6-1.8-.2-1.3c-.2-1-.6-2.2-2-2.6-.9-.3-1.9-.2-2.8-.4-1.5-.3-2.5-.9-4.1-.7 0-1-1-2-2.5-2s-2.5.8-3.6 1.4c.1-.2-.6-.6-.7-.8l-.3-.7-.7-2.2-.4-.5c-.3-.1-.6.2-.9.3-1.1.3-2.3-.1-3-.7-.8-.5-1.4-1.2-2-1.8l-.7-.6c-.4-.2-.4-.2-.9-.1-1.6.3-2.3 1.6-3.3 2.3-.3-1.1-2.2-1.5-3.3-.8-.7.4-1.1 1-1.6 1.5l-1 .8a3 3 0 0 1-.7.5l-.3-.1c-.5-.1-1.2-.8-1.6-1.1-.8-.6-1.4-1.3-2.1-2a5.3 5.3 0 0 0-2.6-1.3c-1-.2-2 0-2.9-.1l-1.5-.4a3.4 3.4 0 0 0-2.8.3l-.7.5c-.3.1-.4-.1-.8-.2l-1.4-.1-.7.2c-.3 0-.4-.3-.6-.5l-1.6-2-.9-.9c-.4-.2-1-.2-1.3-.4-.6-.3-1-1-1.7-1.3-.9-.4-1.8-.4-2.8-.2-.7.2-1.8.7-2.5.2-.7-.5-1.1-1.1-2.2-.7-1.6.6-2.3 2.1-3.6 2.9-.4-.4-.9-.8-1.6-.9-1.1-.1-2.2.5-2.8 1-1.5 1.2-2.6 2.7-4.2 3.8-.2-.8-.7-1.4-1.1-2.1-.3-.5-.4-1-.5-1.4-.2-.5-.2-1-.2-1.5 0-.2.2-.9 0-1.1-.1-.2-.9-.1-1.2-.3l-.7-.6-.8-.8c-.3-.3-.3-.2-.7-.2h-.4l-.4.2c-.8.8-1.8 1-3 .5l-.6-.2-.6-.2a.8.8 0 0 0-.5-.2c-.4-.1-.2-.1-.6.1-.4.2-.7.3-1.2.3s-1-.4-1.4-.3l-.7.3-1.7.7a3 3 0 0 0-1.4.7l-1.4 1.3c-.6-.4-1.8-.3-2.2.2-1.2-.8-2.9-.6-4.3-.6-1.4-.1-2.4-.7-3.8-.3l-.7.3-1-.2a5 5 0 0 0-2.1.2c-.8.2-.9.1-1.2-.4-.3-.5-.5-1-1-1.4a3 3 0 0 0-1.9-.7c-.2 0-.8.2-1 .1-.2 0-.5-.5-.6-.5-.8-.7-1.4-1.5-2-2.2-1-1.1-2.5-1.3-4-.6-.7.3-1.4.9-2.3 1.1-.6.2-.9-.1-1.4-.3-.6-.4-1.2-.6-2-.6-.6 0-1.4.2-2 .1-1.5-.3-1.5-2-2.6-2.6-.5-.3-1-.2-1.5-.3-.6-.2-1.1-.9-1.4-1.3-.4-.5-1-.9-1.9-.5l-1.1.8-1.1.9c-.4.3-.9 1-1.4 1.2l-.9.1-1.3.5c-.8.3-1.4.1-2.3.1a8 8 0 0 0-2.7.5c-.4.2-.9.6-1.4.7-.4.1-.1.1-.6-.1a5 5 0 0 0-1.3-.4c-2-.3-3.1.9-4.1 1.9l-.5.6-.4.4-.2.2h-.4c-1 .3-1.3.7-1.7 1.4-.5 1.1-.9 2.6-2.1 3.5-.6.4-1.4.6-2.1 1a8 8 0 0 0-2.1 1.5c-.5-1.2-1.6-2.1-1.9-3.3-.2-.6-.4-1.3-1.4-1.4-.8-.1-1.4.3-1.9.7-1 1-1.8 2.2-2.6 3.2a36 36 0 0 1-3.3 3.5c-.6-.5-1.7-.7-2.5-.5-.7.1-1.4.6-2.1.4-1.3-.4-2-2.6-3.8-1.9-1.4.5-2.3 2-3 2.9-.4.5-1 1.6-1.7 1.8l-1.2.1-1.3-.2c-1.7-.5-2.9.6-3.8 1.5l-.9 1c-.3.3-.3.6-.4 1a3 3 0 0 1-.8 1.7c-.3.3-.9.4-1.2.7l-.2.5c-.2.3-.6.4-.9.6l-.6.5-.8-.2c-.5-.1-.3 0-.6-.5-.2-.3-.4-.8-.9-1l-1.9-.9c-.4-.2-.3-.2-.8-.2H528c-.4 0-.5.1-.9.3l-.8.4a2 2 0 0 0-1 .8c-1.1 1.3-1.8 2.7-2.7 4.1l-1.5 2.1-.9 1c-.2.2-.4.5-.7.6l-.3.2-.6-.2c-1.9-.4-3.3.8-4.4 1.7l-1 .8-1.2.9-.5.3c-.4.3-.4.2-.9.2-.9 0-1.5 0-2.3.4-.5.2-.9.6-1.2.9l-.6.5-.5.4c-.4.2-.1 0-.6 0h-1.5l-1.1.4c-.4.1-.2.1-.6-.2l-1.1-.5-1.5-.9c-.7-.4-1.3-.9-2.2-1-1-.1-1.9.4-2.4 1.1-1.6 2.2-2.4 4.7-4.9 6.5l-1.1-5-1.2.5a3 3 0 0 1-.8.4c-.7.2-1.2 0-1.9-.1-.3 0-1-.2-1.2-.1-.3 0-.5.2-.8.4-.4.3-.6.4-1.1.3-.6-.2-.9-.5-1.7-.4-.8.1-1.4.4-1.9.8a8.7 8.7 0 0 0-2.2 3.3l-1.9-1.5-.3-.3c-.3-.1-.4 0-.8.2l-1.5.3c-.5 0-1-.1-1.4.1l-.7.5-1.3.8-2.6 1.4c-.5.2-1 .4-1.3.8l-.8 1.1c-.2.2-.4.7-.8.8l-1 .2c-.8.2-1.4.7-2 1.1-.4-.5-1.3-.5-1.9-.2-.7.4-1.1 1.1-1.4 1.6-.6.8-1 1.7-1.8 2.5-.9-.4-1.6-.9-2.3-1.5-.6-.6-1.2-1.4-2.3-1.6-2-.3-3.2 1.8-4.4 2.5-.2-.7-1.3-1.1-2.2-.8-.9.3-1.5 1.1-2.1 1.6-.3.3-.7.6-1.2.8-.4.1-.2.1-.5-.1l-.5-.5c-.3-.2-.8-.3-1.2-.2l-.5.2-.7-.3-1.5-.7c-.6-.3-1.2-.7-1.7-1.2a3 3 0 0 0-2.5-.8c-1 .2-1.5.8-2.2 1.3-1.4-2-4.9 1-5.9 1.8l-1.6 1.3-.6.5-.3.3c-.3.1-.2 0-.5-.1a8.2 8.2 0 0 0-4.1.2c-.5.1-.6.2-1 0l-.8-.7-1.9-1.8c-.6-.5-1.2-1.1-2.3-1.2-.7-.1-1.4.2-2 .5-.4.2-.3.2-.6 0l-.4-.5-.8-.9c-.6-.5-1.2-.6-1.9-.9-1.4-.5-1.4-1.7-1.8-2.7-.7.3-1.4.6-2.3.7l-1.4-.2c-.5.1-.8.6-1 .9l-2.1 1.9a3 3 0 0 1-.7.5l-.6-.4c-.5-.3-1-.6-1.6-.7h-1.5c-.4 0-.5.1-.8-.2a5 5 0 0 0-2.5-1l-2.4-.6c-.5-.1-1.1.1-1.4-.1-.4-.2-.3-.5-.5-.7h-1.3l-1.3.4c-.5.1-1 .2-1.4.5l-.7.5-1.2.9-.2.2c-.1.2-.3.2-.5.1l-.9-.1c-1.1.1-1.9.7-2.7 1.3-.1.1-.6.5-.8.5l-.6-.3-.7-.3a5.4 5.4 0 0 0-3.1.2l-1.4.5c-.5.1-.3.2-.6-.1l-1-.7c-.6-.2-1.3-.2-1.8-.5-1-.5-1.3-1.4-2.5-1.8l-1.3-.2-1.2-.5c-.9-.6-1.4-1.4-2.8-1.4-1.5 0-2.5.9-3.2 1.7-.5-1.1-1.8-3.6-3.9-2.3l-.9-2.4c-.2-.6-.3-1.2-.7-1.7-1.3-1.9-3.6 1.1-4.6 1.8a7.5 7.5 0 0 0-3.6-1.6c-.7-.1-1.4-.1-2 .1-.5.1-1.4.8-1.8.7-.5-.1-1.1-1.1-1.4-1.4-.4-.4-.9-.7-1.6-.7-1.1-.1-2 .4-2.8.8-.1-.9-.5-1.8-.9-2.7-.3-.7-.6-1.8-1.4-2.3-.8-.5-1.6-.2-2.5-.1-.9.1-1.6-.1-2.5.2-.9.3-1.6.9-2.5 1.3-.6.3-.6.3-1 .1l-.4-.3c-2.1-1.3-3.4 0-5.3.7-.2-.5-.5-1-1.1-1.3l-.9-.3c-.3 0-.9.2-1.1.1-.3-.1-.7-.9-.8-1.2l-.6-1.5c-.7-1.1-2.1-.5-2.8.2-.9.9-1.8 1.8-3 2.5-.5.2-.7.4-1.1.2l-.8-.5-1.3-1-1.4-1c-.5-.4-1-.8-1.9-.8-.8 0-1.4.4-2 .6-1 .3-1.3-.3-1.7-.8-.8-1.3-2.4-1.2-3.5-.1-.9.9-1.7 1.9-2.7 2.7-.6-1-.9-1.9-1.1-2.9-.2-1-.8-2.6-2.7-2.1-.9.2-1.6.9-2.2 1.4l-.9.7-.6.4-.7-.1c-1.6 0-2.8 1.7-3.8 2.4a1 1 0 0 0-.6-.5l-.8-.6c-.3-.4-.6-.9-1.1-1.3-.5-.4-1.1-.8-1.8-1.1-.5-.2-1.1-.2-1.5-.5l-1.1-.9a3 3 0 0 0-2.1-.1c-.7.2-1.3.7-1.9 1-.3-.9-1.6-1.2-2.6-.6-.6.3-1.1.7-1.8.9l-2.1.6c-1.3.4-3.1.5-4.4.1-1.4-.4-2.6-.8-4 0-.7-1.4-1.9-3.1-4.3-2.1l-.5-1.7-.2-.6c-.2-.4 0-.1-.5-.2-.6-.1-1-.2-1.5-.5l-.9-.9c-.3-.2-1-.2-1.4-.4-.7-.3-1.3-.5-2-.6-1.1-.2-2.2.5-3 1-.3.2-.7.5-1 .5l-.4-.2-1.4.4-1.7.4c-1.1.2-2.3.5-3.1-.3-1.3.8-2.3 2-3.3 3-.3-.5-1.6-1.1-2.3-1.4-.9-.4-2.2-.3-3-.9-.6-.5-.6-1.1-1.1-1.7-.7-.8-1.9-.5-2.7 0-1.6 1-2.5 2.4-3.6 3.7-.6.7-1.2 1.5-2 2.1-.2.2-.7.7-1 .7-.4.1-1-.3-1.3-.5-.9-.5-1.7-.6-2.8-.4l-1.5.5c-.5.2-.6.3-1.1.1-.9-.3-1.7-1.1-2.4-1.6-.8-.5-1.8-1-2.9-1.1-1.1-.1-1.9.4-2.7.8-.2.1-.5.4-.8.3-.2 0-.6-.3-.6-.4-.6-.4-1.1-.9-1.8-1.1-.7-.3-1.5-.3-2.3-.3-1.3 0-2.1-.3-3.2-.7-1.2-.5-2.1-.1-2.7.7l-2.1 2.2-1.4 1c-.5.3-1.1.3-1.6.6-.2-.5-.5-.9-.6-1.4-.1-.4-.1-.3-.6-.3l-1 .1-1.5.1h-.9l-.6.6c-.8.8-1.8 1.4-2.7 2.2l-2 2.1c0-.5-1.5-.1-1.7 0-.7.4-1.3 1-1.7 1.5-.6.8-1.1 1.6-1.8 2.3-.6-.5-1.1-1.2-2.2-1-.5.1-.9.5-1.3.8l-1.6 1.2-1 .8c-.2.2-.5.5-.8.6-.4.2-.4.1-.8.1l-1.8-.3c-.7-.2-1.3-.6-1.9-.9-1.3-.7-2.7-1-3.9-1.9-1-.8-1.7-1.5-3.4-1.4-1.1.1-2.1.5-3.2.5l-1.8.1c-.9-.1-1.4 0-2.2.2l-.4.1-.7-.4c-.6-.4-1.3-.9-2.2-1-1.6-.1-2.9 1.3-4 2v-1.4c-.1-.4-.1-.2-.7-.3-1.1-.1-2.4-.7-3.4-.6-1 .1-1.8.8-2.9.7-1-.1-1-.1-1.5.4l-3 3.2c-.3.3-.7.7-1.2.9l-1 .1c-.9.2-1.6.7-2.4 1-.7.3-1.9.6-2.5 0-.6-.5-.4-1.5-1.5-1.7-.9-.1-1.6.5-2.2.9l-2.7 1.7-4.4 3.3a25.4 25.4 0 0 1-4.2 2.1c-.7.1-1.4-.1-2-.4-.9-.4-1.6-.9-2.6-1.2-1.2-.4-2.1.2-2.9.7-1.2.7-2.2 1.6-3.3 2.4a7 7 0 0 0-.9.7c0-.5-2.7-.3-3.2-.3-.7-.1-1.3-.1-2 .1-.5.2-.9.5-1.4.6-1 .1-2.1-.6-2.8-.9-1-.4-2.1-.8-3.2-.9l-1.4-.1c-.8-.1-1-.4-1.3-.9-.3-.5-.4-1-1.1-1.3-.6-.2-1.4-.2-1.9.1l-.3.3c0 .2-.1.2-.3.1h-.7c-.7.1-1.2.7-1.6 1.1-1 .9-2.4 2-2.9 3.1 0-1.1-2.1-1.7-3.2-2.3-1.3-.7-3.7-2.4-5.4-1.4-.3.2-.6.5-.6.8l.1.5.3.4-1 1.1c-.4.2-1.1-.1-1.7.3l-1.1 1c-.4.2-.2.2-.6 0a75 75 0 0 0-4.1-1.9c-.8-.4-1.6-.7-2.6-.4-.9.3-1.5 1-1.2 1.7.1.2.6.6.5.7l-.4.4-1.9 1.1a36.5 36.5 0 0 0-5.2 3.2c-.2.1-.1 0-.4 0-.6 0-1.3-.3-2-.3-1.3-.1-3 .2-4.2-.1-.8-.2-1.3-.7-2.1-.8H20v-.2c-.3-.3-.2-.6-.6-.9-1.3-1-3.3-.5-4.8-.2l-1.3.2c-.7.1-.7-.2-1.2-.5-.8-.5-1.8-.6-2.8-.7-2.2-.1-4 .2-6.1.6l-1.6.3-1.1.2v179.1h1127.4V516z"/>
      <linearGradient id="SVGID_7_" x1="563.7" x2="563.7" y1="757.9" y2="558.5" gradientUnits="userSpaceOnUse">
        <stop offset="0" stop-color="#004d80"/>
        <stop offset="1" stop-color="#003c66"/>
      </linearGradient>
      <path fill="url(#SVGID_7_)" d="M1127.4 594.4c-.9 0-1.8.3-2.5.8-1.3-1-2.9-1.9-4.9-2.2-.8-.1-1.3-.2-1.9-.6-.6-.4-1.1-.8-1.8-1-1.6-.6-3.2-.2-4.7.3-.3.1-1.3.6-1.6.5l-.5-.6c-.7-.7-1.3-1.5-2.5-1.9-2.8-1-5.3 1.4-7.2 2.6.1-.1-1.2-1.3-1.4-1.5-.5-.5-1-1.2-1.9-1.3-1.8-.4-3.4 1.5-4.6 2.2-.3-.7-1-1.4-1.9-1.8-.9-.4-1.9-.2-2.8 0-1.1.3-3 1.2-4.2 1.1-.6-.1-1.2-.5-1.9-.6-.9-.1-1.8.1-2.5.6-1.5 1-2.6 2.2-4.3 3-.8-.9-2.7-.9-3.4-1.8l-.8-1.4c-1-1.9-2-4.4-5.2-4.8-1.4-.2-3 0-4.4-.4-1.2-.3-2-1.2-3.1-1.6a5.4 5.4 0 0 0-4.5.4c-.7.3-2.3 1.5-3.1 1.3-.5-.2-1-1.2-1.2-1.5l-.9-2c-.2-.6-.5-1.1-1.3-1.2-.7-.1-1.6.1-1.9.6.1-.2-1.1-.2-1.3-.2l-.9.2c-.7.2-1.3.2-2.1.2-2.3-.2-4.1.4-6.2.9-.4.1-.9.3-1.2.1-.2-.1-.4-.6-.5-.8-.4-.6-.8-1.2-1.7-1.5-1.6-.5-3 .5-4.1 1.1.1-1.3-.4-2.7-.5-3.9-.1-1.1-.2-2.2-.6-3.2-.6-1.4-2.3-2.1-4.1-1.4-1.6.6-3 1.3-4.4 2.1l-2.1 1.3c-1 .6-2.5 1.9-4 1.7-.8-.1-1.5-.7-2-1.1-.6-.4-1.2-.9-1.9-1.2-1.8-.9-3.6-.7-5.4.1l-1.8.9-.9.4c-.2 0-.6-.5-.7-.6l-.8-.7a6.9 6.9 0 0 0-3-1.3c-1.3-.2-2.6.3-3.7.7-.3-.8.6-3.5-1.7-3.2.3-1.3-2.7-1.8-4-1.5-1.7.3-3.1 1.1-4.6 1.7-.2-.4-.8-.9-1.1-1.2-1.3-1.1-2.8-.6-4.1.2-.7.4-1.5.9-2.3 1.2-.4.2-1.4.7-1.9.6-.4-.1-.7-.4-1-.7-1.2-1.2-2.4-2.7-4.8-1.8-2.6 1-4.2 2.8-6.6 4l-.6-1.6c-.5-1.1-.9-2.3-2-3.1-2.5-1.8-5.6 1-7.4 2.2.3-.7 0-1.7 0-2.4-.1-1 0-2.3-.7-3.1-.7-.8-2-1-3.1-.6l-2 1.1c-1.1.5-2.2-.2-3.4-.2-1.5 0-2.7.7-3.9 1.3-2.3 1.2-4.3 2.7-6.5 4 0-.4-1.1-.8-1.4-1l-1.1-.9c-1.2-.7-2.7-.4-4.1-.4-.5 0-1 .1-1.4-.1-.6-.3-1-.8-1.4-1.1-1-.9-2.4-1.5-4.1-1.2-.7.1-1.3.4-2 .6-.5.2-1.3.6-1.9.6-.8-.1-1.2-1.1-1.5-1.5-.8-1-1.8-1.9-3.5-1.9-1.6 0-2.8.7-4 1.4l-.1-1.5c-.1-.5 0-1.2-.3-1.7-.2-.3-.5-.4-1-.6l-2.3-.7c-.7-.2-.8-.2-1.3.4-.3.4-.6.9-1.3 1.1-.6.2-1.3.1-1.8-.1l-1.3-.5-.4-.1c-.4 0-.7.2-1 .4l-2.5 1.8c-1 .8-2.8 2.3-4.4 2.2-1-.1-1.2-.4-1.6-.9-.3-.3-1.1-.3-1.7-.3-2 .2-3.6 1.2-5.2 2-.7-1.5-3.2-1.5-4.9-1l-1.8.7-1.4.5-.3.1-.5-.6c-.8-.9-1.6-1.9-3.2-2.3-2-.4-3.7.8-5.1 1.7.3-.4-.9-.8-1.3-.8-.6 0-1.2.5-1.6.8-1.1.8-2.1 1.4-3.5 1.8.6-.3-2.7-1.8-3.1-1.9-1.3-.5-2.7-.9-4.2-.9-1.3 0-2.3.5-3.4 1-.4.2-1.2.7-1.6.7-.5 0-.8-.6-1-.8l-1.5-1.7c-.7-.8-1.5-2-3-2.1-2.5-.2-4.1 2.4-5.3 3.5-.4-.8-2.3-1.5-3.4-1.5a8 8 0 0 0-2.7.5l-.8.3-.3-.3c-1.1-1-1.9-2-3.4-2.7-1.5-.7-2.8-.4-4.3.2l-.6-1.8c-.5-1.5-2.3-1.9-3.9-.9-2.5 1.4-4.4 3.2-7.4 4.2.1-.1-.7-.6-.8-.7l-.9-1.1c-.5-.7-1-1.4-1.7-2-1.8-1.4-4.3-.5-5.9.5 0-1-1.9-2.1-3.3-2-1.5.1-2.7 1.1-4 1.5-.2-.5-1-1.1-1.4-1.5a5.8 5.8 0 0 0-1.9-1.5c-1.8-1-3.2-.2-4.8.5-.8-1.1-1.5-3.1-3.2-3.7-1.1-.4-2.1 0-2.8.6-.7.6-1.6 1.3-2.1 2 .1-.3-.4-.8-.5-1.1-.2-.5-.5-1.6-.9-1.8-.3-.2-1-.3-1.3-.4-.8-.2-1.8-.2-2.6-.2h-1.2c-.3.1-.5.4-.7.6l-1.5 1.1c-.8.7-1.8 1.2-2.9 1.7-.2-.6-.9-1.2-1.4-1.6-1.1-.8-2.4-.7-3.6-.1l-5.8 2.9-1.2-2.4c-.3-.5-.6-.9-1.4-1l-.6-.1-.4-.5-.8-1c-1-1.2-2.4-2.4-4.6-2.1-2 .3-3.3 1.6-4.4 2.7-.1-.6-.5-1.2-.8-1.8l-.2-.4-1.5-.5-2.1-.8c-.5-.2-1.1-.5-1.6-.3l-.9.4-1.4.8c-.5.3-1.1.4-1.6.6-.9.4-1.1 1.2-2.2 1.4-1 .2-2-.2-3-.4l-1.1-.1c-.4 0-.5 0-.8.2l-.9.9c-.8.8-1.5 1.6-2.5 2.3-.4.3-.9.5-1.4.6l-.7.1-.3.3c.2-.5-1.4-1.4-1.9-1.7-.8-.4-1.8-.6-2.8-.4-1.1.1-2.1.5-3.1.8a7 7 0 0 1-1.2.3l-.3-.4-.7-.8c-1.1-1.3-3-2.2-4.8-.9 0-.3-.6-.8-.8-1l-1.1-1.1-.9-.6-.9-.1-.7-.1c-.6.1-1.4.6-1.9.9-.6.3-1.1.4-1.8.4s-.8 0-1.1.5c.3-.6-.8-.6-1.3-.4l-2.4 1c-.5.2-1.2.2-1.5.5-.5.5-.8 1.1-1.2 1.6.2-.3-.8-.7-1.1-.7-.6-.1-1.1.2-1.6.1-.6-.1-1.1-.5-1.8-.6a6 6 0 0 0-1.9.1c-.8.2-1.5.7-2.2 1-.6.3-.5.3-.8 0l-.4-.5c-.8-1.3-1.9-4.9-4.9-4.2-1.2.3-1.9 1.3-2.5 2l-1.6 1.8c.2-.2-.2-1.1-.3-1.3l-.8-2.4c-.3-.9-.9-2.4-2.7-2-1.5.3-2.4 1.9-3.1 2.7-.8 1-1.6 2-2.6 2.9.1-.3-1.4-.4-1.6-.4-.9.1-1.7.6-2.4 1l-2.8 1.8c0-.3-.7-.7-1.1-.9-.2-.1-1-.7-1.3-.7l-.7.2-.9.1c-.7-.1-1.1-.4-1.7-.6l-1.5-.5-1.7-.8c-.7-.2-.8-.3-1.3.1s-1.1.5-1.8.5c-.9 0-2-.2-2.9 0-.9.1-1.7 1.3-2.2 1.9l-2.2 2.1-1.8 2.2a31 31 0 0 1-3.8 3.3c-.9-1.2-1.6-2.4-2.3-3.6-.9-1.5-2.1-4.3-5.1-3.3l-1.2.5c-.6.2-.7.4-1.3.2-1.2-.4-1.9-1.3-2.6-2-.7-.7-1.4-1.7-2.7-1.8-1.4-.1-2.1.7-2.5 1.5-.3-.3-1.1-.5-1.6-.4-.4.1-.9.5-1.2.7a68 68 0 0 0-2.8 2.1c-.8.7-2.7 1-3.9.6l-.8-.4-1.3-.4c-.7-.2-.8-.4-1.4 0-.6.4-1.4.7-1.7 1.2-.4.7-.9 1.2-2.1 1.2-.5 0-1.3-.4-1.8-.3-.4.1-.9.7-1.2.9-1.6 1.4-2.7 3-4.1 4.5-1.1 1.2-2.9 3.1-5.2 2.5-.9-.2-1.6-.8-2.3-1.2-.8-.5-1.7-1.3-2.8-1.4-1.2-.1-2.2.3-3.1.8-.5.3-.8.5-1.4.3l-1-.3a6.3 6.3 0 0 0-4.3-.2c-1.4.5-2.5 1.4-3.6 2.1-.1-.4-1.3-.8-1.7-.9-.7-.1-1.3-.2-2-.1-1.6.2-2.5 1.1-3.9 1.6-.2-.3-.3-.4-.7-.5-.8-.2-1.4-.4-2.1-.8l-2.2-1.7c-.7.5-1.3 1.1-1.8 1.8-.8.9-1.3 1.7-3 1.6l-1.1-.2c-.3-.1-.5-.3-.8-.3-.3 0-.5.3-.7.6l-1.3 1.6c-.9 1-2 2-3.1 2.9-.8.6-1.9 1.8-3.2 1.4-.5-.2-1-.5-1.2-.9v-.7l-.5-.4a5 5 0 0 0-3.8-.4c-.8.2-1.2.5-1.6 1-.3.3-.5.6-1.1.8-1.1.3-1.6-.1-2.4-.5l-1-.4c-.4-.2-1.2-.7-1.7-.6-.3.1-.7.6-.8.7l-1.4 1.3c-1.7 1.5-3.7 3-6.1 4-.5.2-1.1.3-1.6.6l-.6.5-.9-.2c-1.4-.1-2.6.6-3.5 1.3l-1.1.9-1.4 1.1c-.6.3-1 .3-1.6.1-1.6-.5-3-.8-4.7-.1-1.2.5-1.9 1.3-2.7 2.1-.3-.4-1-.9-1.4-1.2a7.5 7.5 0 0 0-3.1-1.5c-2.4-.3-3.8 1.5-5.2 2.5-.1-.3-.4-.9-.7-1l-1.3-.1c-.4-.1-.6-.3-.9-.5-.4-.2-.4-.1-.7.2l-1.4 1.6-2.5 2.5c-.5.4-1 1.1-1.7 1.3-.4.1-1.1 0-1.3.3.1-.2-.9-.6-1-.8-.4-.4-.5-.6-1.1-.9a4 4 0 0 0-3.2.2c-1 .6-1.6 1.6-2.2 2.3l-1.6 1.9a3 3 0 0 0-4.5-.3c-1.2 1.1-1.8 2.6-2.8 3.8a4.5 4.5 0 0 0-3-1.7 4 4 0 0 0-3.3 1.1c.1-.2-1-.4-1.1-.5l-1.5-.1-.3-.1-.8.3-1 .4c-.7.3-1.1.6-2 .6-1.2 0-2.3-.4-3.4-.7l-1.7-.4-1.1-.2c-.2 0-.5-.2-.7-.1-.3 0-.4.2-.5.4l-1.1 1.2a20 20 0 0 1-1.9 2.2l-1.4 1.2-1.7 1c-.6.6-.9 1.4-1.4 2 0-.5-1.4-1.1-1.9-1.3l.2-.1-.6-.4-.7-.1h-.6l-.6-.2c-.2 0-.3.3-.4.3-.3.2-.7.2-1.1.2-.5 0-1.7.3-2.2.2-.3-.1-.7-.6-1-.8-.4-.3-.8-.7-1.3-.9a5 5 0 0 0-5.3.3c-1.4 1.1-2.3 2.6-3.5 3.8-.1-.6-.8-1.3-1.3-1.8a5.4 5.4 0 0 0-3.1-1.8c-1.8-.2-3.2 1-4.4 1.8.1-.1-.6-1.2-.7-1.4-.2-.3-.3-1-.7-1.1-.5-.1-1.1.1-1.6 0s-.8-.3-1.1-.5l-1.2-1c-.3-.3-.5-.4-1-.5-.6-.2-1.3-.7-2-.8-.5-.1-1.1.3-1.6.4-2 .5-2.7-.4-3.8-1.3-.2-.2-.9-.8-1.2-.8-.2 0-.4.3-.6.4l-2.6 1.9c-.7.4-1.2.7-2 .9l-1.5.3-.9.5c.3-.3-1.6-1.5-2-1.7-1-.6-2.2-.9-3.5-.9h-1.1c-.2-.1-.4-1.1-.5-1.2-.8-1.7-1.8-3.6-4.5-4-2.2-.3-3.9 1.1-5.6 1.9-.4-2.4-4.3-7.1-8.2-4.5.2-.2-.9-1.6-1.1-1.8-.4-.3-1.2-.4-1.7-.7-.4-.2-.7-.5-1.1-.6l-1.2-.3-1.2.2-.8-.1h-.6l-.5.3c-.4.1-.9.2-1.3.1-.6-.1-1.3-.5-1.9-.7l-1.6-.7-.7-.3c-.3 0-.3.1-.5.3l-.9 1.3c-1.9-.9-3.7-.3-5.5.4l-2.1.7c-.7.2-1.8.8-2.6.5-.9-.3-1.2-1.5-1.5-2.1-.5-.9-.9-1.8-1.6-2.6-.7-.8-1.9-1.1-3.1-.7-.7.2-1.3.7-1.8 1.2.3-.5-.1-1.2-.1-1.7v-2.5c-1.2.4-2.8.5-4.1.6-1 .1-2.1 0-3 .4l-1.9 1-1.8.8c-.5.3-1 .9-1.4 1.3-.3.3-.5.6-1 .6l-.9-.6c-1-.6-2.3-1.2-3.6-1.4-1-.1-1.9.1-2.8.4-1.2.4-2.1 1-3.3 1.4-1.1-1.2-1.7-3.3-3.6-3.9-1.8-.6-5.6 1.2-6.6-.2-.9-1.3-1.6-2.7-2.6-4-.6-.7-1.1-1.4-2.1-1.8-1.3-.5-2.4-.1-3.4.5a6 6 0 0 0-.9-1.8c-.2-.2-.7-.2-1-.3l-3.6-.7c-.8-.1-1.5-.4-2.2-.1l-2 1.1a19 19 0 0 1-3.6 1.2l-1.8.2h-1.2l-.7.6-1.2.9c0-.2-.4-.5-.5-.7l-1.3-1.4a9.3 9.3 0 0 0-4.8-2.2c-.9-.1-2.1 0-2.8-.6-.9-.7-1.4-1.8-2.1-2.7-.9-1.1-2.2-2.3-4.2-2.1-.9 0-1.7.3-2.5.6-.1 0-.5.3-.7.2-.2 0-.4-.7-.5-.8-.5-1-.6-2.5-1.5-3.4-1.3-1.2-2.9 0-3.7.8l-1.3 1.2c-1.1 1-2.3 2.3-3.8 2.9-.4-1.1-3.2-1.3-4.5-1.5-2.2-.3-4.1 0-6.2.6l-2.9.9c-2.1.5-3.8.5-5.7-.3a8.5 8.5 0 0 0-5-1c-1.5.3-3.4 1.5-4.9.8-1.4-.6-1.6-2-2.1-3-.5-1.1-1.6-3-3.7-2.3-.8.2-1.4.8-2.2 1.1-.8.4-1.7.7-2.7.9-1.2.2-2.4-.4-3.6-.3-.9.1-1.6.4-2.3.7-.9.4-2 .7-3.1.7-1.5.1-2.9-.4-4.4-.5-2.1-.1-3.5 1.1-4.7 2.1-.6.5-1.2.9-2.1 1-1.1.1-2.2-.4-3.1-.7-1.7-.6-3.8-1.2-5.5-.2-.6.4-1 .9-1.4 1.3l-.3.5-.1.1h-.2l-1.2-.2c-3.4-.8-6.6-1.8-10-2.4-.8-.1-1.6-.2-2.4-.5-.9-.3-1.7-.7-2.7-.6-.9.1-1.6.6-2.2 1-.7.5-1.5.8-2.3 1.2-1.3.7-2.5 1.4-4 1.9a28 28 0 0 1-5.9 1.1c-1.9.2-3.9.1-5.8.5a3 3 0 0 1-.8.2l-1.1-.2-3.2-.7c-3.1-.7-6-1.6-9-2.4-1-.3-2.2-.5-3.1-1-.6-.3-1.1-.7-2-.8-1-.1-1.9.3-2.6.8a79.3 79.3 0 0 0-6.1 3.7c-.4.3-1.6 1.2-2.2 1.1-.6 0-.7-.7-1-1-.4-.6-1.2-1-2.1-1-1 0-2 .5-2.8.8l-4.8 1.7c-1.8.6-3.6 1.4-5.5 1.7-.7.1-1.2.1-1.8-.2-.9-.4-1.8-.6-2.9-.4-1.9.4-3.6 1.3-5.3 2-.9.4-1.9.8-2.9.8-.9.1-1.7-.2-2.6-.2-.9 0-1.5.3-2.2.6-.7.4-1.4.4-2.3.3l-9.4-.6c-1.7-.1-3.4.3-2.9 1.7-1.8-.4-3.7-.5-5.5-1l-1.9-.7c-.7-.2-1.2 0-1.8.3-1.3.8-2.8 1.5-4.2 2.2l-6.9 3.2c-2.2 1.1-4.2 2.3-6.3 3.5l-1.5.9c-.6.3-1.8.8-2 1.4-.7-.4-1.9 0-2.4.3-.7.4-1.3.8-2.1 1.1.3-1 .3-2.4-1.1-2.9-.6-.2-2.3-.4-2.7.3v127.5h1127.4V594.4z"/>
    </g>
  </g>
  <g>
    <path d="M399.3 709.8l-3.8-2.2c-1.5-1-3-2-4.3-3.1l-1.5-1.4-3.4-3.5-2.3-2.4c-2.1-2.2-4-4.4-5.8-6.8l-2.4-3.4-3.8-5 1.9.6 5 1.5c1.5.5 3.1.8 4.6 1.1 3.1.6 6.3.7 9.4.9l5.8.3H400c.1-.1-.1-.5-.1-.7l-.3-1.2-.4-1.8-.1-.8-.1-.4c-.1-.2-.6-.4-.8-.6l-1.4-1c-2.6-1.8-5.5-3.2-8-5.1l-3.6-2.9-3.5-2.4c-1.5-1-2.8-1.9-4.1-3.1l-3.2-2.8c-2.5-2.1-5.3-4-7.5-6.3l-3.1-3.3-2.4-2.3-1.4-1.6c2.5.9 5.2 1.6 7.8 2.4 3.1.9 6.2 1.5 9.4 2.3 1.9.5 3.8 1 5.8 1.1l-.4-1.4-.3-1.3-.1-.6-.1-.3-.3-.3-2.5-1.6-1.6-1.7c-2.3-2.6-5.4-4.8-7.9-7.3l-3.2-3.6-2.8-3.1a54.2 54.2 0 0 1-6.6-7.9l-3.1-5c-1-1.5-2.3-2.9-3.4-4.4l.3.2.9.5 1.1.5 1.9.8c2 .9 4.1 1.7 6.2 2.3 1.5.4 2.9.8 4.5 1l.1-1.3.1-1.3v-.7c0-.3.1-.5 0-.8l-1-1-1.2-1.1-2.3-2.1a29.3 29.3 0 0 1-3.8-4.1l-2.8-3.7c-1.9-2.4-3.9-4.7-5.7-7.2l-3.2-4.5-3.4-4.6-2.6-3.1a51 51 0 0 1-4.8-7.6 57.5 57.5 0 0 0-7.5-11.1l-2.1-3.9c-1.2-2.4-2.4-4.8-4-7.1-.9-1.2-1.7-2.5-2.4-3.8l-1.3-2.4-1.1-2.5c-.3-.7-.6-1.5-1-2.1l-.5.3-.5.3-.8.4-1 .6c-.3.2-.8.3-1 .6l-.4 1-.6 1.9c-1 2.9-2.1 5.7-3.3 8.5-1.9 4.6-4.1 9.1-6 13.7-1.9 4.8-4.7 9.3-7.2 13.9l-3.8 7.1a66.5 66.5 0 0 1-4.9 7.3l-2.7 3.6-2.5 3.8-2.9 3.8-.6.7c-.2.2-.1.4-.1.6l-.2 2.5-.2 2.5 1.5-.5 1.4-.6 2.9-1.7 5.3-3.2-3.4 3.9-4.2 5.2-1.6 1.9c-1.5-1.8-3.2-3.5-4.6-5.4l-3.7-5.3c-2.8-4.1-6.2-7.8-8.8-11.9-2.4-3.8-4.3-7.9-7.2-11.5l5.8 3.8c2.5 1.6 5.2 2.8 7.9 4.1 2.3 1.1 4.5 2.2 6.8 3.1l4 1.6c.7.3 1.5.8 2.2.9l-.8-4.7c0-.3 0-.7-.2-1l-.4-.5-1.5-1.7-3-2.9a38.5 38.5 0 0 1-5-5.7 56.2 56.2 0 0 0-5.5-6.4 47 47 0 0 1-3.6-4.2l-3.4-5c-2.8-4-5.8-7.8-7.9-12.1-1.4-2.7-2.5-5.5-3.9-8.3l-4.7-10.3c-1.4-3.2-2.5-6.6-3.7-9.9l-2.2-6.2-3.2-7.5c-1-2.4-2-4.8-2.8-7.4-.7-2.4-1.2-4.8-1.7-7.2l-2.7-12.2-.7-2.9-1.6-4.8-.2-.7c-.2-.2 0-.2-.3 0-1.1.9-2.1 2.1-3.1 3.1-.2.2-.5.4-.6.7l-.7 1.7-1.3 4-1.2 3.9-1.7 4-2.8 7.5-1.3 3.9c-.7 1.9-1.8 3.8-2.6 5.7l-3 7.3-2.4 6c-1.5 3-3.3 5.9-5.2 8.7a57 57 0 0 0-2.6 4.1l-1.5 2.7c-.7 1.1-1.6 2-2.4 3-3.6 4.6-6.7 9.5-10.4 14l-1 1.1c-1.7-2.2-3.2-4.4-4.7-6.6-1.5-2.2-3.2-4.4-4.8-6.5-4.1-5.3-8.2-10.6-11.3-16.4l-5.2-10.4c-1.8-3.2-3.9-6.1-5.8-9.2l.5.4 1.6 1 1.9 1.1 3.2 1.8c3.5 1.8 7 3.5 10.7 4.8 2.5.9 5 1.7 7.7 2l.1-2.8.1-2.6.1-1.4c0-.5.2-1.1-.1-1.6-.4-.7-1.2-1.4-1.7-2l-2-2.3-3.9-4.4a77.3 77.3 0 0 1-6.6-8.5c-1.7-2.5-3.1-5.2-4.8-7.7-3.2-5-6.7-9.9-9.8-15a289 289 0 0 1-5.5-9.4c-1.9-3.2-3.7-6.4-5.8-9.5-1.4-2.2-3-4.3-4.4-6.6-3.2-5-5.8-10.4-8.2-15.8-2.4-5.4-5.1-10.7-8.3-15.8-1.5-2.4-3.1-4.7-4.4-7.2-1.4-2.6-2.5-5.4-3.7-8.1-2.1-5-4-10-6.8-14.8-1.5-2.6-2.9-5.2-4.2-7.9-.8-1.7-1.6-3.3-2.2-5.1l-1.9-5.2c-.6-1.4-1-3-1.7-4.4-.2 0-.7.5-.9.7l-.9.7-1.3.9-1.7 1.2c-.5.3-1.4.7-1.6 1.2-.3.6-.4 1.5-.6 2.1l-1.1 3.9c-1.7 5.9-3.7 11.8-5.7 17.7-3.3 9.6-7.1 19-10.3 28.6-3.3 10-8 19.4-12.4 29L43 468.6c-2.4 5.2-5.3 10.3-8.4 15.2a298 298 0 0 0-4.6 7.4l-4.3 7.9a82.4 82.4 0 0 1-5 8l-1 1.5c-.3.4-.2.8-.2 1.3l-.3 5.3-.4 5.1c.9-.1 1.8-.6 2.6-1l2.3-1.3 4.9-3.5c3-2.3 6-4.5 9.1-6.6l-5.9 8.2c-2.6 3.6-4.9 7.3-7.3 10.9-3.7 5.6-8.2 10.5-12.4 15.7a84.2 84.2 0 0 1-6.9 7.7l-2.3 2.1-.9.8c-.3.3-1 .6-1.2.9v20.6c4.9-.1 9.8-.6 14.6-1.1a80.4 80.4 0 0 0 20.1-5l-2.3 1.6c-1.6 1.2-3 2.6-4.5 3.9-2.2 2.1-4.4 4.2-6.8 6.1-5.6 4.6-11.6 8.8-17.6 13l-2.2 1.5-1.2.8-.1.2v115.6H401.5l-.5-1.5c-.9.2-1.4 0-1.7-.1zM1121.8 456.2c-2.8-4.3-5.7-8.5-8.7-12.7-3.1-4.2-6.1-8.5-8.7-13-2-3.4-4.1-6.7-6.4-9.9-2.5-3.5-4.8-7.1-7-10.8-2-3.4-3.2-7-4.7-10.5-2.1-5.3-4.5-10.5-7-15.7-2.1-4.2-4.2-8.3-5.9-12.6-1.9-4.8-3.3-9.7-4.8-14.5-.8-2.6-1.7-5.3-2.7-7.8-.4-.9-.6-2.2-1.3-3-.8-.9-1.8-1.6-2.7-2.4-1-.9-1.9-2-3-2.9l-1 2.7-1.9 5c-.5 1.4-.8 3-1.2 4.5-1.8 6.9-3.3 13.8-4.9 20.7a90 90 0 0 1-3.4 11.2c-1.5 3.9-3.4 7.6-5.1 11.4-2.5 5.5-4.4 11.1-6.4 16.7l-3.4 8.9c-1.1 2.6-2.4 5.2-3.7 7.8l-7.8 16c-1 2.1-2 4.3-3.2 6.3-1.7 2.8-3.5 5.5-5.4 8.2l-7.1 9.6c-1.7 2.4-3.2 4.8-5.2 7-2.1 2.4-4.5 4.7-6.7 7-1.6 1.6-3 3.3-4.4 5.1-1.1 1.4-2.2 3-3.4 4.3-2.7 3-5.9 5.6-8.8 8.5l-2.2 2.3c-.3.3-.7.6-.9 1-.2.3-.2.8-.3 1.2l-.8 4.6-.4 2.3c.8 0 2-.7 2.8-1l4.8-1.9c3.2-1.1 6.3-2.4 9.4-3.8 3.2-1.5 6.5-2.8 9.7-4.4 2.7-1.3 5.3-2.9 7.8-4.5l5.4-3.4c-3.9 4.3-6.4 9.4-9.4 14.2-1.9 3-4.1 5.9-6.3 8.8l-6.6 8-5.6 7.6c-2.1 2.8-4.6 5.4-7 8a92 92 0 0 0-6.3 7.7c-1.9 2.5-4 4.8-6.3 7l-8.6 8.8c-.5.5-1.1 1.1-1.4 1.7l-1.4 2.6-3 5.8c1 0 2.1-.4 3.1-.7l2.2-.6 8.6-2.4c5.5-1.7 10.9-3.6 16.2-5.7 3.7-1.5 7-3.5 10.6-5.1 3.5-1.5 7-3 10.3-4.8 2.5-1.4 4.9-3 7.3-4.6l6.6-4.4-4.7 7.2-5.3 8.1c-3.9 6.2-8.2 12.1-12.8 17.8-1.8 2.2-3.5 4.5-5.1 6.8a76.8 76.8 0 0 1-5 6.3c-1.9 2.1-4 4-6 6-1.9 1.9-3.6 3.9-5.3 5.9a40 40 0 0 1-4.6 4.6l-7 5.4a66.8 66.8 0 0 0-4 3.5l-3.4-5c-1.6-2.3-3.3-4.5-5.1-6.7a234.2 234.2 0 0 1 8.2 5.7c.8.5 2 1.2 3 1.4-.2-2-.4-4-.4-6 0-1.1-1.2-2.1-1.8-3-2.2-3.2-3.8-6.7-5.9-9.9-1.6-2.4-3.1-4.7-4.5-7.1-1.5-2.6-2.6-5.2-3.9-7.9-2.8-6-6-11.9-8.4-18l-3-8.4-2.9-7.5a175.3 175.3 0 0 1-4.9-14.7l-.3-1c-.2-.4-.6-.6-1-.8l-1.1-.7-.7-.4c-.2-.1-.9-.8-1.1-.8-.9 1.8-1.4 3.7-2.2 5.6-.8 2-1.8 3.9-2.9 5.8l-2.1 3.6-1.9 4.3a63 63 0 0 1-4.5 9c-1.8 2.8-3.7 5.5-5.1 8.4-1.2 2.6-2.5 5.3-3.9 7.8-1.8 3.3-4.2 6.2-6.2 9.3-3.1 4.9-6 9.8-9.4 14.5-2.2 3-3.9 6.2-6.3 9.1-1.4 1.7-2.9 3.2-4.4 4.8l-1 1.1c-.4.4-1 .8-1.2 1.3-.2.4 0 1 0 1.4l.1 1.6.1 1.7c3.4-.4 6.7-1.8 9.7-3.3l2.8-1.4.8-.5c.6-.3 1.4-.6 1.8-1.1l-2.9 4.3c-1.1 1.7-1.9 3.5-2.9 5.3a60 60 0 0 1-7.1 10.2c-1.9 2.3-3.6 4.8-5.4 7.2a22 22 0 0 1-2 2.3 58.4 58.4 0 0 1-3.2-3.8c-1.1-1.5-2.1-3.1-3.3-4.5l-2.7-3.4 4.1 2.8 2.2 1.5 1.1.5c.4.2.8.4 1.2.4l-.2-2.1-.1-2.2-.1-.5-.5-.6-2.3-3.3-1.9-3.3c-.6-1.1-1.4-2.1-2.1-3.1-1.4-2-2.7-4.1-3.8-6.3l-3-6.1c-2-4-4.1-7.9-5.6-12.1l-4.7-11.9-2.6-7.4-.5-1.6-.3-.9c-.1-.2-.5-.4-.7-.5l-.8-.5a2 2 0 0 1-.6-.4l-.4-.3-.4-.3-.8 1.8-.9 2.2-1 2.1-1.9 3.3c-1.3 2-2.1 4.1-3.1 6.2-.5 1.1-1 2.3-1.7 3.4l-2 3a43.4 43.4 0 0 0-3.8 6.6 53.2 53.2 0 0 1-3.7 6.6l-2 2.7-2.6 4-2.5 3.9-4.4 6.2a36.2 36.2 0 0 1-5.2 6.7l-1.8 1.8-.9.9-.8.8V632.3l.1 1.1.1 1.2c1.2-.1 2.4-.4 3.5-.8l4.9-2 1.5-.7.8-.4.7-.4.2-.2-2.6 3.8c-.9 1.4-1.6 2.9-2.4 4.3-1.4 2.4-3.3 4.6-5.2 6.8l-2.2 2.7-2.5 3.1c-2 2.2-4.3 4.1-6.1 6.4l-1.3 1.5-1.9 1.4-.2.2-.1.3-.1.5-.3 1.1-.3 1.2c1.6-.1 3-.6 4.5-1 2.4-.7 4.9-1.2 7.3-2 2-.7 4.1-1.3 6.1-2.1l-1.1 1.4-1.9 2-2.4 2.8c-1.7 2-3.9 3.7-5.8 5.5l-2.5 2.5c-1 1-2.1 1.8-3.2 2.7l-2.7 2.1-2.8 2.5c-1.9 1.6-4.2 2.8-6.2 4.4l-1.1.8-.6.5c-.1.1 0 .3 0 .4l-.1.7-.3 1.5-.3 1c0 .1-.2.5-.1.6h1.1l4.5-.3c2.5-.2 4.9-.3 7.3-.8l3.6-1 3.9-1.3 1.5-.5-2.9 4.3-1.9 2.9c-1.4 2-2.9 4-4.5 5.9L775 701c-.9 1-1.7 2.1-2.7 3l-1.2 1.2c-1 1-2.2 1.9-3.4 2.7a29 29 0 0 1-2.9 1.9c-.2.1-.6.3-.7.5l-.4 1.3h364.1V464.1c-2.5-2.5-4.2-5.2-6-7.9z" class="st10"/>
  </g>
</svg>
