<?xml version="1.0" encoding="utf-8"?>
<svg xmlns="http://www.w3.org/2000/svg" id="Layer_1" viewBox="0 0 1242 704">
  <style>
    .st18{fill:#ff6b7c}.st19{fill:#ffd75e}.st22{opacity:.6}.st23{fill:#ffb87c}.st24{fill:#ff7d97}.st25{fill:#8b399a}.st35{opacity:.2}.st36{fill:#4a39de}.st38{fill:#5b2c94}.st39{opacity:.7}.st40{fill:#ca5fc8}.st41{fill:#9952aa}
  </style>
  <path d="M1242 676.9c-1.2.5-2.4 1-3.3 1.7-1.1.7-2.2 1.4-3 2.3a17 17 0 0 0-5.3 9.7l1.7-1.4 2-1.5 1.3-.9.7-.5.8-.4c1-.5 2.1-1.2 3.4-1.7l1.8-.7v-6.6z"/>
  <path fill="#5baa52" d="M1122.5 654.7h23.9v23.9h-23.9z"/>
  <path fill="#1d5c7a" d="M1122.5 680.7h23.9V704h-23.9z"/>
  <path fill="#286e5c" d="M1149 680.7h23.9V704H1149z"/>
  <path fill="#7a9334" d="M1172.9 680.7h23.9V704h-23.9z"/>
  <path fill="#4d3c43" d="M1154.7 654.7h23.9v23.9h-23.9z"/>
  <path fill="#81906e" d="M1189.1 654.7h23.9v23.9h-23.9z"/>
  <linearGradient id="SVGID_1_" x1="621" x2="621" y1="356.5" y2="-66.2" gradientUnits="userSpaceOnUse">
    <stop offset="0" stop-color="#ff6b7d"/>
    <stop offset="1" stop-color="#ff4d7a"/>
  </linearGradient>
  <path fill="url(#SVGID_1_)" d="M0 0h1242v450.4H0z"/>
  <path fill="#ff4d7a" d="M1242 0H0v118.3c413.6 1.3 828 .4 1242 1V0zm0 123.4C827.9 125 414.2 133.9 0 137.8v26.3c413.6-.6 828-1.1 1242-1.3v-39.4zm0 52c-200.1-.8-400-.9-600.7-.4-214.3 1-428 5.4-641.3 8.8v12h1242v-20.4z"/>
  <path fill="#ff6b7d" d="M1242 106.1a69124 69124 0 0 0-492-2.5c-218.6 0-539.7 2.9-539.7 2.9s301.7 2.9 539.7 2.9c160.5 0 392.9-1.7 492-2.5v-.8zM378.3 52.3c138.5 0 314.1 2.9 314.1 2.9s-186.9 2.9-314.1 2.9c-127.3 0-314.1-2.9-314.1-2.9s192.5-2.9 314.1-2.9z"/>
  <linearGradient id="SVGID_2_" x1="621" x2="621" y1="428.8" y2="230.6" gradientUnits="userSpaceOnUse">
    <stop offset="0" stop-color="#f7e291"/>
    <stop offset="1" stop-color="#ff677e"/>
  </linearGradient>
  <path fill="url(#SVGID_2_)" d="M1242 352.9c-413.6-1.1-828-.4-1242-.8V446h1242v-93.1z"/>
  <linearGradient id="SVGID_3_" x1="621" x2="621" y1="428.8" y2="230.6" gradientUnits="userSpaceOnUse">
    <stop offset="0" stop-color="#f7e291"/>
    <stop offset="1" stop-color="#ff677e"/>
  </linearGradient>
  <path fill="url(#SVGID_3_)" d="M1242 324.8L0 325.6v23.2c414.1-1.1 827.8-6.4 1242-8.6v-15.4z"/>
  <linearGradient id="SVGID_4_" x1="621" x2="621" y1="428.8" y2="230.6" gradientUnits="userSpaceOnUse">
    <stop offset="0" stop-color="#f7e291"/>
    <stop offset="1" stop-color="#ff677e"/>
  </linearGradient>
  <path fill="url(#SVGID_4_)" d="M1242 263.9H0v51.3c191.1 1.7 382.1 2 573.7.8 223.4-2.5 446-14.3 668.3-23.2v-28.9z"/>
  <ellipse cx="894.3" cy="462.7" fill="#ffffe5" rx="141.8" ry="87"/>
  <linearGradient id="SVGID_5_" x1="-74.7" x2="1004.7" y1="384.9" y2="384.9" gradientUnits="userSpaceOnUse">
    <stop offset="0" stop-color="#ff6b7d"/>
    <stop offset="1" stop-color="#ff4d7a"/>
  </linearGradient>
  <path fill="url(#SVGID_5_)" d="M465 378.4a31076 31076 0 0 0-465 5.1v2.8c108 1.9 311.7 5.1 465 5.1 218.6 0 539.7-6.5 539.7-6.5s-301.6-6.5-539.7-6.5z" opacity=".6"/>
  <path fill="#ff5558" d="M0 446h1242v151.3H0z"/>
  <path fill="#ff7867" d="M0 446h1242v75.7H0z"/>
  <path fill="#ff8b8b" d="M0 446h1242v35.4H0z"/>
  <path fill="#ffb87c" d="M1030.7 600c-21.2-1.2-42.5-2.2-64.1-2.7H802.8c-22.7-.6-46.5 2.6-69.1 2.6 1.3-8.4 22.6-9.4 13.8-16.8-3.8-4.2-16.3-3.1-15-8.4 2.5-9.4 25.1-8.4 21.3-18.9-2.5-4.2-13.8-3.1-20.1-7.3 12.5-8.4 16.3-17.8 1.3-28.3-3.8-2.1 16.3-4.2 13.8-13.6 0-3.1-8.8-4.2-7.5-8.4 0-7.3 5-13.6 3.8-21 0-2.1 2.5-4.2 3.8-6.3 2.5-6.3-2.5-10.5-5.1-15.9v-9.2h265.3l25.7-.1c-15 12.6-7.5 15.7 6.3 26.2 1.3 1-6.3 4.2-5 6.3 2.5 8.4-1.3 12.6-6.3 19.9-1.3 3.1 11.3 3.1 13.8 7.3 5 7.3-15 7.3-13.8 13.6 0 7.3 17.6 5.2 17.6 11.5-1.3 6.3-16.3 7.3-18.8 13.6s11.3 6.3 11.3 9.4c-1.3 8.4-5 11.5 3.8 17.8-12.5 6.3-17.6 11.5-5 21-2.5 2.1-5 4.2-7 6.2l-1 1.5z" opacity=".6"/>
  <path d="M1242 482.4c-113.9-.6-506.1-2.7-786.9-2.7-140.1 0-307.9.5-455.1 1.1v3.6c142.4.6 306.9 1.1 455.1 1.1 269 0 671.3-2.1 786.9-2.7v-.4z" class="st18"/>
  <path d="M178.4 483.8c-53.3 0-121 .6-178.4 1.3v3.2c56.5.7 123.3 1.2 178.4 1.2 121 0 298.6-2.9 298.6-2.9s-166.9-2.8-298.6-2.8zM1242 491c-77.2-.9-217.7-2.2-324-2.2-154.3 0-380.8 2.9-380.8 2.9s212.8 2.9 380.8 2.9c102.1 0 245.5-1.4 324-2.2V491zm-610.2-9.6c-196.3 0-445.2-2.9-445.2-2.9s264.8-2.9 445.2-2.9c180.3 0 445.2 2.9 445.2 2.9s-272.9 2.9-445.2 2.9z" class="st18"/>
  <path d="M125 463.3c-37.3 0-83.3.5-125 1v3.7c41 .5 86.6 1 125 1 97.1 0 239.7-2.9 239.7-2.9s-134-2.8-239.7-2.8zm1117-12.1c-116.9-.8-293.5-1.9-430.8-1.9-225.3 0-556.1 2.9-556.1 2.9s310.9 2.9 556.1 2.9c132.3 0 311.9-1.1 430.8-1.9v-2zm-214.4 12.9c-58 0-131.5-2.9-131.5-2.9s78.2-2.9 131.5-2.9 131.5 2.9 131.5 2.9-80.6 2.9-131.5 2.9z" class="st19"/>
  <path fill="#ff906d" d="M261.9 500.3c-78.4 0-178.9.7-261.9 1.4v3.1c81.7.7 180.8 1.3 261.9 1.3 170.4 0 420.5-2.9 420.5-2.9s-235-2.9-420.5-2.9zm276.7 16.4c-144.4 0-327.4-2.9-327.4-2.9S406 511 538.6 511c132.6 0 327.4 2.9 327.4 2.9s-200.6 2.8-327.4 2.8z"/>
  <path d="M907.1 508.5c-59.2 0-134.2-2.9-134.2-2.9s79.9-2.9 134.2-2.9c54.4 0 134.2 2.9 134.2 2.9s-82.2 2.9-134.2 2.9z" class="st19"/>
  <path fill="#ff8887" d="M581.1 542.2c-229.6 0-520.5-2.9-520.5-2.9s309.6-2.9 520.5-2.9c210.9 0 520.5 2.9 520.5 2.9s-319 2.9-520.5 2.9zm-283.5-15.6c71.9 0 163 2.9 163 2.9s-97 2.9-163 2.9-163-2.9-163-2.9 99.9-2.9 163-2.9z"/>
  <path d="M585.7 470.4c-13.7 0-31-2.9-31-2.9s18.5-2.9 31-2.9c12.6 0 31 2.9 31 2.9s-19 2.9-31 2.9zm.9-16.2c32.6 0 74 2.9 74 2.9s-44 2.9-74 2.9-74-2.9-74-2.9 45.4-2.9 74-2.9zm322.3 12.1c30.6 0 69.4 2.9 69.4 2.9s-41.3 2.9-69.4 2.9c-28.1 0-69.4-2.9-69.4-2.9s42.6-2.9 69.4-2.9z" class="st19"/>
  <g class="st22">
    <path d="M744.6 469c-10.1 0-22.9-2.9-22.9-2.9s13.6-2.9 22.9-2.9c9.3 0 22.9 2.9 22.9 2.9s-14 2.9-22.9 2.9z" class="st23"/>
  </g>
  <g class="st22">
    <path d="M1006.4 513.5c46.2 0 104.7 2.9 104.7 2.9s-62.3 2.9-104.7 2.9c-42.4 0-104.7-2.9-104.7-2.9s64.1-2.9 104.7-2.9z" class="st23"/>
  </g>
  <g class="st22">
    <path d="M877.5 548.1c-64.6 0-146.4-2.9-146.4-2.9s87.1-2.9 146.4-2.9c59.3 0 146.4 2.9 146.4 2.9s-89.7 2.9-146.4 2.9z" class="st23"/>
  </g>
  <g class="st22">
    <path d="M781 544.9c46 0 104.4 2.9 104.4 2.9s-62.1 2.9-104.4 2.9c-42.3 0-104.4-2.9-104.4-2.9s64-2.9 104.4-2.9z" class="st23"/>
  </g>
  <g class="st22">
    <path d="M1035 563.3c57.6 0 130.6 2.9 130.6 2.9s-77.7 2.9-130.6 2.9c-52.9 0-130.6-2.9-130.6-2.9s80.1-2.9 130.6-2.9z" class="st23"/>
  </g>
  <g class="st22">
    <path d="M981.6 573.2c-78 0-176.8-2.9-176.8-2.9s105.2-2.9 176.8-2.9c71.6 0 176.8 2.9 176.8 2.9s-108.4 2.9-176.8 2.9z" class="st23"/>
  </g>
  <g class="st22">
    <path d="M713.2 563.3c42.2 0 95.6 2.9 95.6 2.9S752 569 713.2 569c-38.7 0-95.6-2.9-95.6-2.9s58.6-2.8 95.6-2.8z" class="st23"/>
  </g>
  <g class="st22">
    <path d="M777.9 583.7c35.3 0 79.9 2.9 79.9 2.9s-47.6 2.9-79.9 2.9c-32.4 0-79.9-2.9-79.9-2.9s49-2.9 79.9-2.9z" class="st23"/>
  </g>
  <g class="st22">
    <path d="M1048.5 419.7c56.4 0 127.9 2.9 127.9 2.9s-76.1 2.9-127.9 2.9c-51.8 0-127.9-2.9-127.9-2.9s78.4-2.9 127.9-2.9z" class="st24"/>
  </g>
  <g class="st22">
    <path d="M726.9 412.8c-36.5 0-82.8-2.9-82.8-2.9s49.2-2.9 82.8-2.9c33.5 0 82.8 2.9 82.8 2.9s-50.8 2.9-82.8 2.9z" class="st24"/>
  </g>
  <path d="M258.3 444.8l-32.3-.7 1.8-16.9 28.1.1z" class="st25"/>
  <path fill="#f7e291" d="M239 436.8l-6.8-.1.5-7.5h6.4zm8.4-.1l-6.9-.1v-7.5h6.5z"/>
  <path d="M263.1 427.7l-42-.1.5-3.1 19.9-5.6 21 5.6zm4.1 19.3l-53.5-1.2.7-3.7 50.9.8z" class="st25"/>
  <path d="M223.2 454.1l-3-.1 1.1-8h2.9zm9.1 5.5h-2.6l1.1-15.4 2.3.1zm17.9.7l-2.7-.1-.8-15.8h2.4zm5.1 1.7l-2.1-.1-1.5-17.4h1.9zm12.2.5l-2.1-.1-3-17.7h1.9z" class="st25"/>
  <path fill="#fc8a83" d="M242.1 419.5l12.6 5.1h5.8z"/>
  <path d="M68.2 359.7l-.3-2.5v-2.7l.5-3 .5-1.5.3-.8.4-.8.8-1.6 1.1-1.5.6-.8.7-.7 1.4-1.4a23.4 23.4 0 0 1 7.6-4.7c3.1-1.1 6.1-1.5 8.7-1.2a12 12 0 0 1 6.4 2.6 8 8 0 0 1 2.5 4.1v1.7a5 5 0 0 1-.4 1.3l-.2-.3-.6-.9a6.4 6.4 0 0 0-3-2.4c-1.5-.7-3.7-1-6.1-.8-2.4.2-5 1-7.5 2.2l-3.5 2-.9.5-.8.6-.8.6-.7.6c-2 1.6-3.3 3.5-4.3 5.1l-1.2 2.4c-.3.7-.6 1.4-.7 2l-.5 1.9z" class="st25"/>
  <path d="M71.8 354.4c-.3-.7-.2-1.8.4-3 .6-1.2 1.5-2.3 2.7-3.4 2.4-2 5.9-3.6 10.2-3.4 4.3.2 7.5 2 9.2 4.1a6.8 6.8 0 0 1 1.7 5.5l-.2-.2-.6-.5c-.6-.4-1.4-1-2.5-1.5a21.5 21.5 0 0 0-9.2-1.7c-3.5 0-7.1.9-9.1 2a6 6 0 0 0-2 1.5l-.6.6z" class="st25"/>
  <path d="M69 356.6c0-.8.1-1.8.4-2.7l.3-.7.4-.7.5-.7.6-.6c.9-.9 2.2-1.5 3.7-1.7a9.2 9.2 0 0 1 8.1 3.1l1 1.5.6 1.5c.3 1 .3 2 .2 2.8-.1.9-.3 1.6-.6 2.2l-.6-.6-.7-.7-.9-.9c-.7-.6-1.5-1.3-2.5-1.9-1-.6-2-1.1-3.1-1.5a8.5 8.5 0 0 0-3.1-.4l-1.3.2-.6.2-.5.2-.9.5a1 1 0 0 0-.6.5l-.4.4zm-.1-4.1c-1.2-1.3-2-4-1.9-6.8.1-2.9 1-6 3.2-9 2.2-2.9 4.8-4.5 7.1-5.2 1.1-.3 2.2-.4 3.2-.4 1 .1 1.8.2 2.4.5l-.9.7-1 .8-1.2 1.1A44 44 0 0 0 69.6 349l-.5 1.5-.2 1.1v.9zm-2.1 2.6c.3-.7.2-1.8-.4-3-.6-1.2-1.5-2.3-2.7-3.4-2.4-2-5.9-3.6-10.2-3.4-4.3.2-7.5 2-9.2 4.1a6.8 6.8 0 0 0-1.7 5.5l.2-.2.6-.5c.6-.4 1.4-1 2.5-1.5a21.5 21.5 0 0 1 9.2-1.7c3.5 0 7.1.9 9.1 2a6 6 0 0 1 2 1.5l.6.6z" class="st25"/>
  <path d="M69.6 357.3c0-.8-.1-1.8-.4-2.7l-.3-.7-.4-.7-.5-.7-.6-.6a6.4 6.4 0 0 0-3.7-1.7 9.2 9.2 0 0 0-8.1 3.1l-1 1.5-.6 1.5c-.3 1-.3 2-.2 2.8.1.9.3 1.6.6 2.2l.6-.6.7-.7.9-.9c.7-.6 1.5-1.3 2.5-1.9 1-.6 2-1.1 3.1-1.5 1.1-.3 2.1-.5 3.1-.4l1.3.2.6.2.5.2.9.5c.3.1.5.3.6.5l.4.4z" class="st25"/>
  <path d="M67.4 355.6c.9-1.6 1.1-4.3.3-7A15.7 15.7 0 0 0 54.5 337c-1.2-.1-2.3.1-3.2.3-.9.3-1.7.6-2.3 1l1 .5 1.1.6 1.5.8a51.6 51.6 0 0 1 13.2 12.2l.8 1.3.4 1 .4.9zm8.7 1c1.2 1.7 1 4.5.3 6.4-.4 1.2-3.1-.3-4-.8-.7-.4-1.9-5.1-1.5-6 .7-1.7 4.4-.6 5.2.4.8 1.1-.7-.9 0 0zm-7.4 1.7c.1.3-.2.8-.6 1.2l-.7.7h-1l-1.1-.2c-.1-.2.2-.6.5-1l.7-.8 1-.1c.5-.1 1.1 0 1.2.2z" class="st25"/>
  <path d="M72.5 359.1c0 .5-.5.9-1 1.4l-1 .7s-.5-.3-.9-.8-.9-1.2-.8-1.7c.1-.5.6-1 1.1-1.4l1-.7.8.9c.4.6.8 1.2.8 1.6zm-2.4 2.2c0 .4-.4 1-.9 1.4l-.9.8-1-.7c-.5-.4-1-.9-1-1.3s.4-1 .9-1.4l.9-.7 1 .7c.4.4.9.9 1 1.2z" class="st25"/>
  <path d="M69.7 357.9c-.1.5-.7 1-1.2 1.2l-1 .4-.8-.9c-.4-.5-.8-1-.7-1.3 0-.4.6-.8 1.1-1.1l1-.6.9.8c.3.5.8 1.1.7 1.5zm-3.7.1c.1.3-.3.7-.6 1.2s-.7.8-.7.8l-1.1-.2c-.6-.1-1.2-.5-1.3-.9 0-.2 0-.5.2-.7l.2-.4.3-.4.9-.6 1 .5.7.3.4.4zm1.1 5.3c-.1.5-.6.9-1.2 1.2l-1.1.4-.8-.9c-.4-.5-.8-1-.7-1.3 0-.3.6-.7 1.1-1l1-.6.9.7c.5.5.9 1 .8 1.5zm2.7 1.9c0 .8-1.9 1.7-1.9 1.7s-1.9-1.1-1.8-1.8c0-.7 1.9-1.7 1.9-1.7s1.8 1.2 1.8 1.8z" class="st25"/>
  <path d="M66.9 360.9c-.2.6-2.2.9-2.2.9s-1.6-1.4-1.4-1.9c.2-.6 2.2-.9 2.2-.9s1.5 1.3 1.4 1.9zm-.3-3c-.1.2-.7.2-1.2.1l-1-.2-.5-.9c-.2-.5-.4-1.1-.2-1.3.2-.2.8-.2 1.4-.1l1 .3.4 1c.1.5.3 1 .1 1.1z" class="st25"/>
  <path d="M64.8 361.4c.3.4.3 1.1.1 1.7l-.4 1.1h-1.2c-.6 0-1.3-.1-1.4-.3-.2-.2-.1-.8 0-1.3V361.4l.3-.2.8-.2c.7-.1 1.5.1 1.8.4zm2.3 5.1c-.2.4-.8.6-1.4.7l-1.1.1-.6-1c-.3-.5-.5-1.1-.3-1.4.2-.3.8-.5 1.4-.6l1.1-.2.6 1c.3.4.5 1.1.3 1.4z" class="st25"/>
  <path d="M64.5 365.1c.1.2-.3.5-.7.9l-.8.6h-1c-.5 0-1.1-.2-1.1-.4-.1-.2.3-.7.7-1l.8-.5 1 .2c.6 0 1.1 0 1.1.2zM59 333.3c.4-.2 1.1-.2 1.8.1a9 9 0 0 1 2.2 1.4 14.2 14.2 0 0 1 3.7 5.2c1 2.3 1.1 4.4.7 5.9a5.3 5.3 0 0 1-1.7 3v-.8l-.2-2c-.2-1.7-.9-3.9-1.9-6l-.7-1.6-.8-1.5c-.5-1-1-1.8-1.5-2.4l-1.2-1.2-.4-.1zm-9.2 11.5c.4-.8 1.2-1.6 2.4-2.1a5.6 5.6 0 0 1 6.9 2.9 5 5 0 0 1 .3 2.6l-1.4-1-3.3-1.9a9.7 9.7 0 0 0-3.4-.8h-.6l-.4.1-.5.2zm9.6 18.3v-1.7l.3-1.9a6.9 6.9 0 0 1 6.6-4.8c1.1.1 2 .6 2.5 1l-.5.2-1.3.5c-1.1.5-2.4 1.3-3.6 2.2-1.2 1-2.3 2.1-3 3l-.8 1.1-.2.4z" class="st25"/>
  <path d="M38.8 456.2a20.8 20.8 0 0 1-10.6 5.6c-1.6.2-3 0-3.9-.3-.9-.4-1.2-.8-1.2-1.1.1-.3.6-.5 1.3-.7.7-.3 1.7-.5 2.9-1.1a41 41 0 0 0 8.4-5.9A94.1 94.1 0 0 0 50.1 435a78 78 0 0 0 8.2-18.4l2.5-10.9 1.9-11.3c2.1-15.2 3-30.4 3.7-41.6l1-13.6.4-5.1-.2 5.1-.5 13.6c-.3 11.3-.6 26.5-2.2 41.9-.4 3.9-1 7.7-1.5 11.5l-2.2 11.2c-1.8 7.4-4.8 14-7.9 19.5a94.6 94.6 0 0 1-14.5 19.3zM97.6 382l-.3-2.5v-2.7l.5-3 .5-1.5.3-.8.4-.8.8-1.6 1.1-1.5.6-.8.7-.7 1.4-1.4a23.4 23.4 0 0 1 7.6-4.7c3.1-1.1 6.1-1.5 8.7-1.2a12 12 0 0 1 6.4 2.6 8 8 0 0 1 2.5 4.1v1.7a5 5 0 0 1-.4 1.3l-.2-.3-.6-.9a6.4 6.4 0 0 0-3-2.4c-1.5-.7-3.7-1-6.1-.8-2.4.2-5 1-7.5 2.2l-3.5 2-.9.5-.8.6-.8.6-.7.6c-2 1.6-3.3 3.5-4.3 5.1l-1.2 2.4c-.3.7-.6 1.4-.7 2l-.5 1.9z" class="st25"/>
  <path d="M101.2 376.8c-.3-.7-.2-1.8.4-3 .6-1.2 1.5-2.3 2.7-3.4 2.4-2 5.9-3.6 10.2-3.4 4.3.2 7.5 2 9.2 4.1a6.8 6.8 0 0 1 1.7 5.5l-.2-.2-.6-.5c-.6-.4-1.4-1-2.5-1.5a21.5 21.5 0 0 0-9.2-1.7c-3.5 0-7.1.9-9.1 2a6 6 0 0 0-2 1.5l-.6.6z" class="st25"/>
  <path d="M98.4 379c0-.8.1-1.8.4-2.7l.3-.7.4-.7.5-.7.6-.6c.9-.9 2.2-1.5 3.7-1.7a9.2 9.2 0 0 1 8.1 3.1l1 1.5.6 1.5c.3 1 .3 2 .2 2.8-.1.9-.3 1.6-.6 2.2l-.6-.6-.7-.7-.9-.9c-.7-.6-1.5-1.3-2.5-1.9-1-.6-2-1.1-3.1-1.5a8.5 8.5 0 0 0-3.1-.4l-1.3.2-.6.2-.5.2-.9.5a1 1 0 0 0-.6.5l-.4.4zm-.1-4.2c-1.2-1.3-2-4-1.9-6.8.1-2.9 1-6 3.2-9 2.2-2.9 4.8-4.5 7.1-5.2 1.1-.3 2.2-.4 3.2-.4 1 .1 1.8.2 2.4.5l-.9.7-1 .8-1.2 1.1A44 44 0 0 0 99 371.3l-.5 1.5-.2 1.1v.9zm-2.1 2.7c.3-.7.2-1.8-.4-3-.6-1.2-1.5-2.3-2.7-3.4-2.4-2-5.9-3.6-10.2-3.4-4.3.2-7.5 2-9.2 4.1a6.8 6.8 0 0 0-1.7 5.5l.2-.2.6-.5c.6-.4 1.4-1 2.5-1.5a21.5 21.5 0 0 1 9.2-1.7c3.5 0 7.1.9 9.1 2a6 6 0 0 1 2 1.5l.6.6z" class="st25"/>
  <path d="M99 379.7c0-.8-.1-1.8-.4-2.7l-.3-.7-.4-.7-.5-.7-.6-.6a6.4 6.4 0 0 0-3.7-1.7 9.2 9.2 0 0 0-8.1 3.1l-1 1.5-.6 1.5c-.3 1-.3 2-.2 2.8.1.9.3 1.6.6 2.2l.6-.6.7-.7.9-.9c.7-.6 1.5-1.3 2.5-1.9 1-.6 2-1.1 3.1-1.5 1.1-.3 2.1-.5 3.1-.4l1.3.2.6.2.5.2.9.5c.3.1.5.3.6.5l.4.4z" class="st25"/>
  <path d="M96.8 377.9c.9-1.6 1.1-4.3.3-7a15.7 15.7 0 0 0-13.2-11.6c-1.2-.1-2.3.1-3.2.3-.9.3-1.7.6-2.3 1l1 .5 1.1.6 1.5.8a51.6 51.6 0 0 1 13.2 12.2l.8 1.3.4 1 .4.9zm8.7 1c1.2 1.7 1 4.5.3 6.4-.4 1.2-3.1-.3-4-.8-.7-.4-1.9-5.1-1.5-6 .7-1.7 4.5-.6 5.2.4.8 1.1-.7-.9 0 0zm-7.4 1.7c.1.3-.2.8-.6 1.2l-.7.7h-1l-1.1-.2c-.1-.2.2-.6.5-1l.7-.8 1-.1c.5 0 1.1 0 1.2.2z" class="st25"/>
  <path d="M101.9 381.4c0 .5-.5.9-1 1.4l-1 .7s-.5-.3-.9-.8-.9-1.2-.8-1.7c.1-.5.6-1 1.1-1.4l1-.7.8.9c.5.6.9 1.2.8 1.6zm-2.4 2.3c0 .4-.4 1-.9 1.4l-.9.8-1-.7c-.5-.4-1-.9-1-1.3s.4-1 .9-1.4l.9-.7 1 .7c.5.3 1 .8 1 1.2z" class="st25"/>
  <path d="M99.2 380.2c-.1.5-.7 1-1.2 1.2l-1 .4-.8-.9c-.4-.5-.8-1-.7-1.3 0-.4.6-.8 1.1-1.1l1-.6.9.8c.3.6.7 1.1.7 1.5zm-3.7.1c.1.3-.3.7-.6 1.2s-.7.8-.7.8l-1.1-.2c-.6-.1-1.2-.5-1.3-.9 0-.2 0-.5.2-.7l.2-.4.3-.4.9-.6 1 .5.7.3.4.4zm1.1 5.3c-.1.5-.6.9-1.2 1.2l-1.1.4-.8-.9c-.4-.5-.8-1-.7-1.3 0-.3.6-.7 1.1-1l1-.6.9.7c.4.5.8 1.1.8 1.5zm2.6 2c0 .8-1.9 1.7-1.9 1.7s-1.9-1.1-1.8-1.8c0-.7 1.9-1.7 1.9-1.7s1.8 1.1 1.8 1.8z" class="st25"/>
  <path d="M96.3 383.2c-.2.6-2.2.9-2.2.9s-1.6-1.4-1.4-1.9c.2-.6 2.2-.9 2.2-.9s1.5 1.4 1.4 1.9zm-.2-2.9c-.1.2-.7.2-1.2.1l-1-.2-.5-.9c-.2-.5-.4-1.1-.2-1.3.2-.2.8-.2 1.4-.1l1 .3.4 1c0 .4.2.9.1 1.1z" class="st25"/>
  <path d="M94.2 383.7c.3.4.3 1.1.1 1.7l-.4 1.1h-1.2c-.6 0-1.3-.1-1.4-.3-.2-.2-.1-.8 0-1.3V383.7l.3-.2.8-.2c.7-.1 1.5.1 1.8.4zm2.3 5.1c-.2.4-.8.6-1.4.7l-1.1.1-.6-1c-.3-.5-.5-1.1-.3-1.4.2-.3.8-.5 1.4-.6l1.1-.2.6 1c.3.5.5 1.1.3 1.4z" class="st25"/>
  <path d="M93.9 387.4c.1.2-.3.5-.7.9l-.8.6h-1c-.5 0-1.1-.2-1.1-.4-.1-.2.3-.7.7-1l.8-.5 1 .2c.6 0 1.1 0 1.1.2zm-5.5-31.7c.4-.2 1.1-.2 1.8.1a9 9 0 0 1 2.2 1.4 14.2 14.2 0 0 1 3.7 5.2c1 2.3 1.1 4.4.7 5.9a5.3 5.3 0 0 1-1.7 3v-.8l-.2-2c-.2-1.7-.9-3.9-1.9-6l-.7-1.6-.8-1.5c-.5-1-1-1.8-1.5-2.4l-1.2-1.2-.4-.1zm-9.2 11.4c.4-.8 1.2-1.6 2.4-2.1a5.6 5.6 0 0 1 6.9 2.9 5 5 0 0 1 .3 2.6l-1.4-1-3.3-1.9a9.7 9.7 0 0 0-3.4-.8h-.6l-.4.1-.5.2zm9.6 18.3v-1.7l.3-1.9a6.9 6.9 0 0 1 6.6-4.8c1.1.1 2 .6 2.5 1l-.5.2-1.3.5c-1.1.5-2.4 1.3-3.6 2.2-1.2 1-2.3 2.1-3 3L89 385l-.2.4z" class="st25"/>
  <path d="M59.9 455.1a19.3 19.3 0 0 1-10.1 2.3c-2.8-.2-4.3-1.3-4.1-1.9.2-.7 1.7-.8 3.9-1.4 2.2-.5 5.1-1.6 8.3-3.2.8-.4 2.9-1.4 5.7-3.3a69 69 0 0 0 20.9-21.8A70.6 70.6 0 0 0 92 408c3.5-12.7 3.9-25.9 4.3-35.6a417.7 417.7 0 0 1 1-16.1l-.2 4.4-.1 11.7c0 4.9.1 10.6-.2 16.8-.3 6.2-1 12.8-2.5 19.4a71.5 71.5 0 0 1-34.4 46.5zM184.5 358.7l-.1-2.6.2-2.8.7-2.9.6-1.5.3-.8.4-.7.9-1.4 1-1.3.6-.7.6-.6 1.3-1.1c1-.6 1.9-1.3 3.1-1.8l.9-.4.9-.3 1.9-.4a13.6 13.6 0 0 1 12.3 4.6 9.4 9.4 0 0 1 1.8 3.9l-.1 1.4a3 3 0 0 1-.4 1l-.1-.3-.4-.9a8.5 8.5 0 0 0-2.3-2.6c-1.2-.9-3-1.6-5-1.9a15.7 15.7 0 0 0-9.5 1.8l-.8.4-.7.4-.7.4a16.8 16.8 0 0 0-6 7.2c-.3.7-.6 1.3-.7 1.9l-.7 2z" class="st25"/>
  <path d="M187.9 353.9c-.2-.7 0-1.9.5-2.9a8.6 8.6 0 0 1 2.5-2.9 10 10 0 0 1 8.8-1.4 13 13 0 0 1 7.4 5.2c.7 1 1.1 2 1.2 2.9.2.9.1 1.6 0 2.2l-.2-.2-.5-.5-2.1-1.6c-.9-.6-2.1-1.2-3.4-1.8a27 27 0 0 0-4.3-1.2c-3-.5-6-.2-7.9.6a6 6 0 0 0-1.8 1.2l-.2.4z" class="st25"/>
  <path d="M185.3 355.7c.1-.8.2-1.8.5-2.7l.3-.7.4-.7.5-.6.6-.5c.9-.7 2-1.1 3.2-1.1a7 7 0 0 1 3.9 1.3c1.2.9 2.2 1.9 2.8 2.9l.8 1.5.4 1.5c.2.9.2 1.8.1 2.6s-.3 1.4-.6 1.9l-.5-.6-.6-.7-.8-.9-2.1-2a9.6 9.6 0 0 0-5.2-2.6l-1.1.1-.5.1-.5.2-.8.4-.6.4-.2.2zm.2-4.2c-.9-1.5-1.3-4.3-1-7.2.4-2.9 1.6-6 3.8-8.4 2.3-2.4 4.6-3.3 6.6-3.3 1 0 1.9.2 2.6.5.8.3 1.4.7 1.9 1.1l-.8.4-.9.5-1.2.8a31.2 31.2 0 0 0-10.2 12.4l-.5 1.4-.3 1v.8zm-2 2.4c.3-.6.3-1.9-.1-3.1-.4-1.3-1.1-2.6-2-3.9a13 13 0 0 0-8.1-5.4 8.7 8.7 0 0 0-10 6.3c-.3 1.1-.4 2.1-.4 2.9l.2-.2.6-.5 2.3-1.4a12.7 12.7 0 0 1 8-.6c3 .6 5.9 2 7.6 3.5.8.7 1.4 1.4 1.6 1.8l.3.6z" class="st25"/>
  <path d="M185.8 356.5c0-.8 0-1.8-.2-2.8l-.2-.8-.3-.8-.4-.8-.5-.7a7 7 0 0 0-3-2.3 6.8 6.8 0 0 0-4-.1 8.3 8.3 0 0 0-3.2 2.2l-1 1.5a11 11 0 0 0-1 4.7c0 1 .2 1.8.4 2.5l.5-.6.6-.7.8-.9c.6-.6 1.4-1.2 2.3-1.8a16 16 0 0 1 2.7-1.2c.9-.2 1.8-.2 2.6-.1l1.1.4.5.2.4.3.7.6.5.6.7.6z" class="st25"/>
  <path d="M184 354.4c.8-1.5 1.2-4.2.8-7.1-.3-2.9-1.3-6.2-3.3-9.3-2-3.1-4.2-4.8-6.1-5.5-1-.4-1.9-.4-2.7-.4-.8.1-1.5.3-2 .6l.7.8.8.9 1.1 1.2a98 98 0 0 1 5.3 7.4 58.8 58.8 0 0 1 4.8 9.4l.3 1.1.3.9zm7.4 2.1c.9 1.7.7 4.4.1 6.2-.4 1.1-2.7-.5-3.4-1-.7-.5-1.5-5.3-1.1-6.2.6-1.6 3.8-.1 4.4 1 .6 1.1-.5-1 0 0zm-6.4.9c.1.3-.2.8-.5 1.1-.3.4-.7.6-.7.6l-.9-.1-.9-.3c-.1-.2.2-.6.5-1l.6-.7.9.1c.4-.1.9.1 1 .3z" class="st25"/>
  <path d="M188.2 358.6c0 .5-.5.9-.9 1.2-.4.4-.9.6-.9.6l-.7-.9c-.4-.5-.7-1.3-.7-1.8.1-.5.6-1 1-1.3l.9-.5.7 1c.4.6.7 1.2.6 1.7zm-2.1 2c0 .4-.4.9-.8 1.3l-.8.7-.8-.7c-.4-.4-.8-1-.8-1.4 0-.4.4-1 .8-1.4l.8-.7.8.8c.3.5.7 1 .8 1.4z" class="st25"/>
  <path d="M185.9 357.1c-.1.5-.6.9-1.1 1.1l-.9.3-.6-1c-.3-.5-.6-1.1-.5-1.4.1-.4.5-.8 1-1l.9-.5.7.9c.2.6.6 1.2.5 1.6zm-3.2-.3c.1.3-.3.7-.6 1.2l-.6.8-.9-.3c-.5-.2-1-.6-1-1 0-.2 0-.5.2-.8l.2-.4.3-.3c.4-.4.8-.5.8-.5l.8.7.6.4.2.2zm.8 5.5c-.1.5-.6.9-1.1 1.1l-.9.3-.6-1c-.3-.5-.6-1.1-.6-1.4 0-.3.5-.7.9-1l.9-.5.8.8c.3.6.6 1.3.6 1.7zm2.2 2.2c0 .8-1.7 1.6-1.7 1.6s-1.6-1.2-1.6-2c0-.7 1.7-1.6 1.7-1.6.1 0 1.7 1.3 1.6 2z" class="st25"/>
  <path d="M183.3 359.8c-.2.6-1.9.8-1.9.8s-1.3-1.6-1.1-2.1c.2-.6 1.9-.7 1.9-.7 0-.1 1.3 1.5 1.1 2zm0-3c-.1.2-.6.1-1.1 0l-.9-.3-.4-1c-.2-.5-.3-1.2-.1-1.4.2-.2.7-.2 1.2 0l.8.4.3 1.1c.1.5.3 1 .2 1.2z" class="st25"/>
  <path d="M181.5 360.2c.3.4.2 1.2 0 1.7l-.3 1.1h-1c-.5-.1-1.1-.2-1.2-.5-.2-.2 0-.8 0-1.4V359.9l.3-.1.7-.2c.6 0 1.3.2 1.5.6zm1.9 5.4c-.2.4-.7.5-1.2.6h-1l-.5-1.1c-.2-.6-.4-1.2-.3-1.5.1-.3.7-.5 1.2-.5l1-.1.5 1c.3.6.5 1.3.3 1.6z" class="st25"/>
  <path d="M181.2 364c0 .2-.3.5-.6.8l-.7.6-.9-.1c-.4-.1-.9-.2-1-.5-.1-.3.3-.7.7-1l.7-.5.9.2c.4.2.8.3.9.5zm-1.4-34.4c.4-.1.9.1 1.4.6a8 8 0 0 1 1.5 2c.5.8.9 1.8 1.3 2.7.4 1 .7 2.2 1 3.5.5 2.6.3 4.7-.1 6.2a5 5 0 0 1-.8 1.8 3 3 0 0 1-.9 1l.1-.8.1-2.1c0-1.8-.3-4.2-.8-6.6l-.4-1.8-.4-1.8c-.3-1.1-.5-2.2-.8-2.9-.3-.8-.6-1.3-.8-1.5l-.4-.3zm-9.5 10.6c.4-.8 1.2-1.6 2.3-1.9 1.1-.3 2.3.1 3.4 1.1s1.6 2.3 1.9 3.4c.2 1.1.1 2.1 0 2.8l-1.1-1.4a30 30 0 0 0-2.5-2.6c-1-.8-2-1.3-2.7-1.5l-.5-.1h-.4l-.4.2zm6.5 21.3l.1-1.8.4-2c.2-.7.5-1.3.9-2 .4-.6.9-1.2 1.6-1.6 1.3-.9 2.5-1 3.5-.8 1 .2 1.7.8 2.1 1.3l-.4.1-1.1.4a14 14 0 0 0-6.6 5.8l-.5.6z" class="st25"/>
  <path d="M153.5 466.2c-3 4.1-6.6 7.1-9.5 8-.7.3-1.4.3-2 .4l-1.6-.2c-.9-.3-1.4-.7-1.4-1.3-.1-1.1 1.4-1.9 3.5-3.8a58 58 0 0 0 7.4-8.2c.7-.9 2.5-3.2 4.9-6.9a181.2 181.2 0 0 0 16.8-34.9c2.6-7.3 4.6-15 6.1-22.6 1.6-7.6 2.7-15.2 3.7-22.2 1.1-7 2.1-13.6 3.2-19.1 1.1-5.6 2.3-10.1 3.2-13.3l1.6-4.9-1.4 4.9c-.8 3.2-1.8 7.8-2.7 13.4-.9 5.6-1.6 12.2-2.4 19.2-.8 7.1-1.6 14.7-2.9 22.5a172 172 0 0 1-13.4 44.8c-2.8 6.4-5.7 12-8 16.2-2.4 4.2-4.3 7-5.1 8zM202.5 335c.5-.1 1.1 0 1.6.1l.8.4-.7.6c-.4.3-.8.7-1.3.8h-1.4l-.9-.1.6-.8c.3-.5.9-.8 1.3-1zM186.1 331.6c.1-.4.4-.7.7-1l.6-.4.3.7c.2.4.3.8.2 1.1-.1.6-1.2 1.5-1.2 1.5s-.7-1.2-.6-1.9zM169.8 351.3c-.5.5-1.9.4-1.9.4s.1-1.3.7-1.8c.5-.5 1.9-.4 1.9-.4s-.2 1.3-.7 1.8zM171.3 353.5c-.1.2-.5.2-.8.3l-.6.1-.2-.6c-.1-.4 0-.8.2-1.1.2-.2.7-.3 1-.3l.6.1-.1.6c.1.4.1.8-.1.9zM196.5 361.8c.3.7.4 1.6.4 2.4l-.1 1.2-.8-1-1.2-1.8c-.3-.5-.4-1.3-.7-1.9l-.3-.8-.1-.3.3.1.9.4c.6.4 1.2 1.1 1.6 1.7zM195.5 393.7l-.1-1.7.1-1.8.4-1.9.4-1 .2-.5.3-.5.6-.9.7-.9.4-.4.4-.4.9-.7c.6-.4 1.3-.9 2-1.2l.6-.2.6-.2 1.3-.3c1.7-.2 3.4 0 4.8.6s2.5 1.5 3.3 2.4c.7.9 1.1 1.9 1.1 2.6l-.1.9-.2.7-.1-.2-.3-.6c-.3-.5-.7-1.1-1.5-1.7-.8-.6-2-1.1-3.3-1.2a8.8 8.8 0 0 0-4.2.4l-2.1.8-.5.2-.5.3-.5.3-.4.3c-1.2.8-2 1.9-2.7 2.9l-.8 1.5-.5 1.2-.3 1.2z" class="st25"/>
  <path d="M197.7 390.5c-.2-.5 0-1.2.3-1.9.4-.7.9-1.4 1.7-1.9a6.3 6.3 0 0 1 5.8-.9c2.3.6 4 2.1 4.9 3.4.4.7.7 1.3.8 1.9v1.4l-.1-.1-.3-.3a9.8 9.8 0 0 0-3.7-2.2l-2.8-.8c-1.9-.3-3.9-.1-5.1.4l-1.2.8-.3.2z" class="st25"/>
  <path d="M196 391.8l.3-1.8.2-.5.3-.4.3-.4.4-.4c.6-.5 1.3-.7 2.1-.7s1.7.3 2.5.8a6.4 6.4 0 0 1 2.3 2.9l.3 1 .1 1.7a5 5 0 0 1-.4 1.3l-.3-.4-.4-.5-.5-.6c-.4-.4-.8-.9-1.4-1.3l-1.7-1.2a4 4 0 0 0-1.7-.5h-.7l-.3.1-.3.1c-.2 0-.4.2-.5.3l-.4.3-.2.2zm.1-2.8c-.6-1-.9-2.8-.6-4.7.3-1.9 1-3.9 2.5-5.5s3-2.1 4.3-2.2c.6 0 1.2.1 1.7.3l1.2.7-.5.3a2 2 0 0 0-.6.4l-.8.5c-1.1.8-2.5 2-3.8 3.5a18.3 18.3 0 0 0-2.9 4.6l-.3.9-.2.7v.5zm-1.3 1.6c.2-.4.2-1.2-.1-2.1a10 10 0 0 0-1.3-2.5 8.7 8.7 0 0 0-5.3-3.5c-2.4-.4-4.3.6-5.4 2a7.4 7.4 0 0 0-1.4 4.1l.1-.1.4-.3c.3-.3.9-.6 1.5-.9a8.4 8.4 0 0 1 5.3-.4c1.9.4 3.8 1.3 4.9 2.3.6.5.9.9 1.1 1.2l.2.2z" class="st25"/>
  <path d="M196.3 392.3l-.1-1.8-.1-.5-.2-.5-.2-.5-.3-.5a4 4 0 0 0-1.9-1.5c-.8-.3-1.7-.3-2.6-.1a4 4 0 0 0-2.1 1.5c-.3.3-.5.7-.6 1l-.4 1c-.2.7-.3 1.4-.2 2 0 .6.1 1.2.3 1.6l.3-.4.4-.5.5-.6 1.5-1.2 1.8-.8h1.7c.2.1.5.1.7.3l.3.2.3.2.5.4.3.4.1.3z" class="st25"/>
  <path d="M195.1 390.9c.5-1 .8-2.8.6-4.7-.2-1.9-.9-4.1-2.1-6.1a8.7 8.7 0 0 0-4-3.6c-.6-.2-1.2-.3-1.7-.2-.5.1-1 .2-1.3.4l.5.5.5.6.7.8a61 61 0 0 1 6.3 10l.4 1 .2.7-.1.6zm4.9 1.4c.6 1.1.5 2.9.1 4.1-.3.7-1.8-.3-2.3-.7-.4-.3-1-3.5-.7-4 .4-1.1 2.5-.2 2.9.6.4.7-.4-.7 0 0zm-4.2.5c.1.2-.1.5-.3.7l-.4.4-.6-.1-.6-.2.3-.7.4-.5h.6l.6.4z" class="st25"/>
  <path d="M197.9 393.6c0 .3-.3.6-.6.8l-.6.4-.5-.6c-.2-.4-.5-.8-.4-1.2 0-.3.4-.6.7-.9l.6-.4.4.7.4 1.2zm-1.4 1.3c0 .3-.3.6-.5.9l-.5.5-.5-.5-.6-.9c0-.3.3-.6.5-.9l.5-.4.5.5c.3.2.6.6.6.8z" class="st25"/>
  <path d="M196.4 392.6c-.1.3-.4.6-.7.7l-.6.2-.4-.6-.4-.9c0-.3.3-.5.6-.7l.6-.3.5.6.4 1zm-2.1-.1l-.4.8-.4.5-.6-.2c-.3-.1-.6-.4-.7-.7l.1-.5.1-.2.2-.2.5-.4.5.4.4.3c.2 0 .3.1.3.2zm.5 3.6c-.1.3-.4.6-.7.7l-.6.2-.4-.6-.4-.9c0-.2.3-.4.6-.6l.6-.4.5.5c.2.4.4.8.4 1.1zm1.5 1.4c0 .5-1.1 1.1-1.1 1.1s-1.1-.8-1-1.3c0-.5 1.1-1.1 1.1-1.1-.1 0 1 .8 1 1.3z" class="st25"/>
  <path d="M194.7 394.5c-.1.4-1.3.5-1.3.5s-.9-1-.7-1.4c.1-.4 1.3-.5 1.3-.5-.1 0 .8 1 .7 1.4zm-.1-2h-.7l-.6-.2-.3-.7c-.1-.4-.2-.8-.1-.9.1-.2.5-.1.8 0l.5.3.2.7c.2.3.3.7.2.8z" class="st25"/>
  <path d="M193.5 394.7c.2.3.1.8 0 1.1l-.2.7h-.7c-.3-.1-.7-.1-.8-.3V394.6l.2-.1.5-.1c.4-.1.8 0 1 .3zm1.2 3.5c-.1.2-.5.4-.8.4h-.6l-.3-.7c-.1-.4-.3-.8-.2-1 .1-.2.4-.3.8-.3l.6-.1.3.7c.2.4.3.8.2 1z" class="st25"/>
  <path d="M193.3 397.1l-.4.6-.4.4h-.6c-.3 0-.6-.2-.6-.3l.4-.7.5-.3.6.1.5.2zm-.9-22.4c.2-.1.6.1.9.4a7.3 7.3 0 0 1 1.8 3.1c.3.6.5 1.4.6 2.3a9 9 0 0 1-.1 4.1l-.5 1.2-.6.6v-1.9c0-1.1-.2-2.7-.5-4.3l-.2-1.2-.3-1.2-.5-1.9-.5-1-.1-.2zm-6.2 6.9c.3-.5.8-1.1 1.5-1.2.7-.2 1.5 0 2.2.7a4 4 0 0 1 1.2 2.2v1.8l-.7-.9a9 9 0 0 0-1.7-1.7c-.6-.5-1.3-.9-1.8-.9h-.7zm4.2 13.9v-1.2l.2-1.3c.1-.4.3-.9.6-1.3l1-1.1c.8-.6 1.7-.7 2.3-.5.6.2 1.1.5 1.4.9l-.3.1-.7.3c-.6.2-1.4.7-2.1 1.2a15.7 15.7 0 0 0-2.3 2.6l-.1.3z" class="st25"/>
  <path d="M175.2 464c-2 2.7-4.3 4.6-6.2 5.2l-1.3.3-1-.1c-.6-.2-.9-.5-.9-.8-.1-.7.9-1.3 2.3-2.5a63.7 63.7 0 0 0 13.5-19.6 114.6 114.6 0 0 0 12.1-42.4l2.1-12.5c.7-3.6 1.5-6.6 2.1-8.7l1-3.2-.9 3.2a252.3 252.3 0 0 0-3.3 21.3c-.5 4.6-1.1 9.6-1.9 14.7a116.7 116.7 0 0 1-14.1 39.9l-3.5 5.2zM207.2 378.2c.3-.1.7 0 1.1.1l.5.2-.5.4-.8.5h-.9l-.6-.1.4-.5c.2-.2.5-.5.8-.6zM196.5 376c.1-.5.8-.9.8-.9s.5.8.4 1.2c-.1.4-.8.9-.8.9s-.5-.8-.4-1.2zM185.8 388.8c-.4.3-1.3.3-1.3.3s.1-.9.4-1.2c.4-.3 1.3-.3 1.3-.3s-.1 1-.4 1.2zM186.8 390.3l-.5.2-.4.1-.1-.4c-.1-.3 0-.5.2-.7.3-.3 1.1-.1 1.1-.1s-.1.7-.3.9zM203.3 395.7l.3 1.5-.1.8-.5-.6-.8-1.2-.4-1.3-.2-.5-.1-.2.2.1.6.3c.3.3.8.7 1 1.1zM131.9 379.1l-.3-2.5v-2.7l.5-3 .5-1.5.3-.8.4-.8.8-1.6 1.1-1.5.6-.8.7-.7 1.4-1.4a23.4 23.4 0 0 1 7.6-4.7c3.1-1.1 6.1-1.5 8.7-1.2a12 12 0 0 1 6.4 2.6 8 8 0 0 1 2.5 4.1v1.7a5 5 0 0 1-.4 1.3l-.2-.3-.6-.9a6.4 6.4 0 0 0-3-2.4c-1.5-.7-3.7-1-6.1-.8-2.4.2-5 1-7.5 2.2l-3.5 2-.9.5-.8.6-.8.6-.7.6c-2 1.6-3.3 3.5-4.3 5.1l-1.2 2.4c-.3.7-.6 1.4-.7 2l-.5 1.9z" class="st25"/>
  <path d="M135.5 373.9c-.3-.7-.2-1.8.4-3 .6-1.2 1.5-2.3 2.7-3.4 2.4-2 5.9-3.6 10.2-3.4 4.3.2 7.5 2 9.2 4.1a6.8 6.8 0 0 1 1.7 5.5l-.2-.2-.6-.5c-.6-.4-1.4-1-2.5-1.5a21.5 21.5 0 0 0-9.2-1.7c-3.5 0-7.1.9-9.1 2a6 6 0 0 0-2 1.5l-.6.6z" class="st25"/>
  <path d="M132.7 376.1c0-.8.1-1.8.4-2.7l.3-.7.4-.7.5-.7.6-.6c.9-.9 2.2-1.5 3.7-1.7a9.2 9.2 0 0 1 8.1 3.1l1 1.5.6 1.5c.3 1 .3 2 .2 2.8-.1.9-.3 1.6-.6 2.2l-.6-.6-.7-.7-.9-.9c-.7-.6-1.5-1.3-2.5-1.9-1-.6-2-1.1-3.1-1.5a8.5 8.5 0 0 0-3.1-.4l-1.3.2-.6.2-.5.2-.9.5a1 1 0 0 0-.6.5l-.4.4zm-.1-4.1c-1.2-1.3-2-4-1.9-6.8.1-2.9 1-6 3.2-9 2.2-2.9 4.8-4.5 7.1-5.2 1.1-.3 2.2-.4 3.2-.4 1 .1 1.8.2 2.4.5l-.9.7-1 .8-1.2 1.1a44 44 0 0 0-10.2 14.8l-.5 1.5-.2 1.1v.9zm-2.1 2.6c.3-.7.2-1.8-.4-3-.6-1.2-1.5-2.3-2.7-3.4-2.4-2-5.9-3.6-10.2-3.4-4.3.2-7.5 2-9.2 4.1a6.8 6.8 0 0 0-1.7 5.5l.2-.2.6-.5c.6-.4 1.4-1 2.5-1.5a21.5 21.5 0 0 1 9.2-1.7c3.5 0 7.1.9 9.1 2a6 6 0 0 1 2 1.5l.6.6z" class="st25"/>
  <path d="M133.3 376.8c0-.8-.1-1.8-.4-2.7l-.3-.7-.4-.7-.5-.7-.6-.6a6.4 6.4 0 0 0-3.7-1.7 9.2 9.2 0 0 0-8.1 3.1l-1 1.5-.6 1.5c-.3 1-.3 2-.2 2.8.1.9.3 1.6.6 2.2l.6-.6.7-.7.9-.9c.7-.6 1.5-1.3 2.5-1.9 1-.6 2-1.1 3.1-1.5 1.1-.3 2.1-.5 3.1-.4l1.3.2.6.2.5.2.9.5c.3.1.5.3.6.5l.4.4z" class="st25"/>
  <path d="M131.1 375.1c.9-1.6 1.1-4.3.3-7a15.7 15.7 0 0 0-13.2-11.6c-1.2-.1-2.3.1-3.2.3-.9.3-1.7.6-2.3 1l1 .5 1.1.6 1.5.8a51.6 51.6 0 0 1 13.2 12.2l.8 1.3.4 1 .4.9zm8.7 1c1.2 1.7 1 4.5.3 6.4-.4 1.2-3.1-.3-4-.8-.7-.4-1.9-5.1-1.5-6 .7-1.7 4.5-.7 5.2.4.8 1-.7-.9 0 0zm-7.4 1.7c.1.3-.2.8-.6 1.2l-.7.7h-1l-1.1-.2c-.1-.2.2-.6.5-1l.7-.8 1-.1c.5-.1 1.1 0 1.2.2z" class="st25"/>
  <path d="M136.2 378.6c0 .5-.5.9-1 1.4l-1 .7s-.5-.3-.9-.8-.9-1.2-.8-1.7c.1-.5.6-1 1.1-1.4l1-.7.8.9c.5.6.9 1.2.8 1.6zm-2.4 2.2c0 .4-.4 1-.9 1.4l-.9.8-1-.7c-.5-.4-1-.9-1-1.3s.4-1 .9-1.4l.9-.7 1 .7c.5.4 1 .8 1 1.2z" class="st25"/>
  <path d="M133.4 377.4c-.1.5-.7 1-1.2 1.2l-1 .4-.8-.9c-.4-.5-.8-1-.7-1.3 0-.4.6-.8 1.1-1.1l1-.6.9.8c.4.5.8 1.1.7 1.5zm-3.6.1c.1.3-.3.7-.6 1.2s-.7.8-.7.8l-1.1-.2c-.6-.1-1.2-.5-1.3-.9 0-.2 0-.5.2-.7l.2-.4.3-.4.9-.6 1 .5.7.3.4.4zm1 5.3c-.1.5-.6.9-1.2 1.2l-1.1.4-.8-.9c-.4-.5-.8-1-.7-1.3 0-.3.6-.7 1.1-1l1-.6.9.7c.5.4.9 1 .8 1.5zm2.7 1.9c0 .8-1.9 1.7-1.9 1.7s-1.9-1.1-1.8-1.8c0-.7 1.9-1.7 1.9-1.7s1.8 1.2 1.8 1.8z" class="st25"/>
  <path d="M130.6 380.4c-.2.6-2.2.9-2.2.9s-1.6-1.4-1.4-1.9c.2-.6 2.2-.9 2.2-.9s1.5 1.3 1.4 1.9zm-.2-3c-.1.2-.7.2-1.2.1l-1-.2-.5-.9c-.2-.5-.4-1.1-.2-1.3.2-.2.8-.2 1.4-.1l1 .3.4 1c0 .5.2 1 .1 1.1z" class="st25"/>
  <path d="M128.5 380.9c.3.4.3 1.1.1 1.7l-.4 1.1H127c-.6 0-1.3-.1-1.4-.3-.2-.2-.1-.8 0-1.3V380.9l.3-.2.8-.2c.7-.1 1.5.1 1.8.4zm2.3 5.1c-.2.4-.8.6-1.4.7l-1.1.1-.6-1c-.3-.5-.5-1.1-.3-1.4.2-.3.8-.5 1.4-.6l1.1-.2.6 1c.3.4.5 1.1.3 1.4z" class="st25"/>
  <path d="M128.2 384.6c.1.2-.3.5-.7.9l-.8.6h-1c-.5 0-1.1-.2-1.1-.4-.1-.2.3-.7.7-1l.8-.5 1 .2c.6-.1 1.1 0 1.1.2zm-5.5-31.8c.4-.2 1.1-.2 1.8.1a9 9 0 0 1 2.2 1.4 14.2 14.2 0 0 1 3.7 5.2c1 2.3 1.1 4.4.7 5.9a5.3 5.3 0 0 1-1.7 3v-.8l-.2-2c-.2-1.7-.9-3.9-1.9-6l-.7-1.6-.8-1.5c-.5-1-1-1.8-1.5-2.4l-1.2-1.2-.4-.1zm-9.2 11.4c.4-.8 1.2-1.6 2.4-2.1a5.6 5.6 0 0 1 6.9 2.9 5 5 0 0 1 .3 2.6l-1.4-1-3.3-1.9a9.7 9.7 0 0 0-3.4-.8h-.6l-.4.1-.5.2zm9.6 18.3v-1.7l.3-1.9a6.9 6.9 0 0 1 6.6-4.8c1.1.1 2 .6 2.5 1l-.5.2-1.3.5c-1.1.5-2.4 1.3-3.6 2.2-1.2 1-2.3 2.1-3 3l-.8 1.1-.2.4z" class="st25"/>
  <path d="M111.4 453.8a18 18 0 0 1-7.1 6.7c-1.2.6-2.3.8-3.1.7-.8-.1-1.2-.4-1.2-.7 0-.7 1.2-1.3 2.5-2.7a51.4 51.4 0 0 0 8.2-11.8c1.6-2.8 3.4-6.6 5.3-11.2a230.9 230.9 0 0 0 15.8-66.2 78 78 0 0 0-.3-13.9l-.1-1.1.2 1.1.4 3c.3 2.6.5 6.4.5 11a215.6 215.6 0 0 1-12.8 67.6 93.8 93.8 0 0 1-8.3 17.5zM144.9 380.2c.1.8.2 1.7 0 2.4l-.3 1.2-.6-1.1-.9-2-.2-1v-.6l-.1-.5-.1-1.3 1 .9.7 1 .5 1zM116 374.6c-.7.8-2.4 1.4-2.4 1.4s.2-1.8 1-2.7c.4-.4 1.1-.7 1.7-.9l.8-.1h.3l-.2.3a2 2 0 0 1-.4.6c-.2.5-.5 1.1-.8 1.4zM115.1 376.9c.2-.4.7-.7 1.1-.9l.7-.3.1.8c0 .4 0 .9-.2 1.2l-.9.9-.7.4-.2-.8.1-1.3zM135.5 349.7c.6-.7 1.4-1.2 2.1-1.5l1.2-.5s-.9 2.2-1.8 3.3l-1.6 1.6-.6.7-.3.3v-.4l.1-1c0-1 .4-1.9.9-2.5zM146.7 353.1a4.5 4.5 0 0 1 3 .2l-.8.7c-.5.3-1 .8-1.5.9-.5.2-1.2.2-1.7.2l-1.1.1.6-.9c.4-.5 1-1 1.5-1.2zM99.2 458.4c-.3-3.4-1.2-7-2.2-10.5-.5-1.8-1.1-3.5-1.5-5.3l-1.3-5.7a35.7 35.7 0 0 1 .6-15.1l1.2-3.4.9 1.5.9 1.8 1.1 2.4a48 48 0 0 1 3.8 13.7c.3 2.6.3 5.3.1 7.8l-.5 3.6-.3 1.6-.4 1.5c-.2 1-.6 1.8-.9 2.6l-.4 1.1-.4.9-.7 1.5z" class="st25"/>
  <path d="M102 461l-1.7-4a24 24 0 0 1-1-4.8 18.4 18.4 0 0 1 4.5-13.3c.6-.7 1.3-1.3 2-1.8a15.4 15.4 0 0 1 11.5-3.1l-.8 1.1-2.2 3c-1.8 2.4-4 5.7-6.1 9.1-.9 1.7-2 3.4-2.7 5l-1.1 2.3-.9 2.1-.4.9-.3.9-.4 1.4-.4 1.2z" class="st25"/>
  <path d="M114.8 459.3c-.6-2.7-1.5-5.8-2-9-.2-1.6-.4-3.2-.3-4.9a18.2 18.2 0 0 1 12.2-16.7l-.2 1.4c-.2.9-.3 2.2-.7 3.6a120 120 0 0 1-8.4 24.4l-.6 1.2z" class="st25"/>
  <g>
    <path d="M131.2 454.5c-1.7-1.6-3.8-3.4-5.4-5.5-.8-1-1.6-2.1-2.1-3.3a10 10 0 0 1 1-10.4c1.3-2 2.9-3.7 4.3-5l.3 1.1.7 2.8c.6 2.4.9 5.5 1.1 8.6l.1 8.2v3.5z" class="st25"/>
  </g>
  <g>
    <path d="M136.1 456.6c-1-.4-2-1.4-2.7-2.8-.7-1.4-1.2-3.1-1.2-5-.1-3.8 1.2-8 4.2-11.5 3-3.6 6.5-5.2 9.6-5.7 3.1-.6 5.8 0 7.6.7l-4 3.4a65.4 65.4 0 0 0-11.3 13.3 19 19 0 0 0-1.9 4.3c-.3 1.2-.4 2.1-.4 2.6l.1.6v.1z" class="st25"/>
  </g>
  <g>
    <path d="M140.2 456.8a10 10 0 0 1-3.6-6.8 12 12 0 0 1 2.8-9c2.3-2.6 5.1-3.6 7.7-3.7 2.6-.1 4.9.6 6.7 1.3l-3 2.7c-1.8 1.6-4 3.8-5.9 6.1a26.2 26.2 0 0 0-4.1 6.5l-.4 1.2-.2.9v.8z" class="st25"/>
  </g>
  <g>
    <path d="M141.9 456.9c-.3-.3-.7-.6-1-1.1-.2-.5-.5-1-.6-1.6a8.6 8.6 0 0 1 0-3.9 9.9 9.9 0 0 1 4.8-6.7 8.9 8.9 0 0 1 7.6-.3c2.2.9 3.9 2.6 4.9 4.2l-.8.2-2.2.8c-1.8.7-4.2 1.8-6.4 3a25 25 0 0 0-5.2 3.8l-.9 1.2-.2.4z" class="st25"/>
  </g>
  <g>
    <path d="M59.6 439.6c2.1-1.3 4.7-2.8 7.7-3.4a11.3 11.3 0 0 1 10 2.3c1.6 1.4 2.8 3 3.3 4.8.3.8.4 1.7.4 2.5s-.2 1.5-.4 2.2a5 5 0 0 1-.9 1.8c-.4.5-.7 1-1.2 1.3-.9.8-1.8 1.2-2.7 1.5l-.1-.9v-.5l-.1-.5-.3-1.2-.2-.7-.3-.7-.2-.4-.2-.3-.5-.7c-.7-.9-1.7-1.8-2.9-2.7a28.2 28.2 0 0 0-7.6-3.5l-2.8-.8-1-.1z" class="st25"/>
  </g>
  <g>
    <path d="M63.4 430.8c2.5-.2 5.5-.3 8.6.5 3 .8 6.2 2.7 8.2 6.2 2 3.5 2 7.2.9 9.7a9.4 9.4 0 0 1-2.1 3.2c-.9.8-1.8 1.4-2.6 1.8l-.1-1-.2-1.2-.1-.7-.2-.8c-.5-2.2-1.7-5.2-3.5-7.9l-2.8-3.9a30 30 0 0 0-5.1-5.1l-1-.8z" class="st25"/>
  </g>
  <g>
    <path d="M71.5 418.8l3.8 3.2a28.2 28.2 0 0 1 6.9 9.5 24 24 0 0 1 1.5 6.9 18.4 18.4 0 0 1-4.6 13.6l-1.6 1.4c-1.1.8-2.1 1.4-3.1 1.8l.2-1.6a33.5 33.5 0 0 0 .6-4.1 65.2 65.2 0 0 0-2.1-25.1l-.6-2.3-.5-1.8-.5-1.5z" class="st25"/>
  </g>
  <g>
    <path d="M83.9 451.9l-1.5-3.7a19.4 19.4 0 0 1-1.1-9 13.5 13.5 0 0 1 3.4-6.9 9 9 0 0 1 1.9-1.5 10.5 10.5 0 0 1 7.7-1.6c1.2.2 2.2.5 3 .9l-.8.8-.9.9-1.1 1.2a50.4 50.4 0 0 0-9.2 15.1l-1.1 2.8-.3 1z" class="st25"/>
  </g>
  <g>
    <path d="M83.7 456.4c-.9-2-1.3-5.1-.3-8.2a13.3 13.3 0 0 1 22.1-5.3l-4.2 1.6c-2.5 1-5.7 2.3-8.6 4a27.4 27.4 0 0 0-7.8 6.2l-.6.9-.6.8z" class="st25"/>
  </g>
  <g>
    <path d="M171.3 463.8a40 40 0 0 0-2.9-9.3c-.6-1.5-1.3-2.9-1.8-4.4-.6-1.5-1-3-1.5-4.7a26.2 26.2 0 0 1 .1-13.1c.3-1.2.6-2.4 1-3.3l.9 1.3 1 1.5 1.2 2a37.6 37.6 0 0 1 4.3 11.8c.4 2.3.5 4.6.4 6.8-.1 1.1-.1 2.2-.3 3.2l-.2 1.5-.3 1.3-.7 2.3c-.2.7-.4 1.3-.7 1.7l-.5 1.4z" class="st25"/>
  </g>
  <g>
    <path d="M170.2 429.3c2.5 1.2 5.4 3 7.7 6a17 17 0 0 1 3.2 12.2c-.6 4.9-2.9 8.3-5.4 10.3-2.5 2-5.1 2.8-7.1 3l.6-1.3.6-1.5.7-2 1.5-5.1a38.5 38.5 0 0 0 .8-11.8l-.4-2.7-.2-1.2-.3-1.1-.6-1.9-.6-1.5-.5-1.4z" class="st25"/>
  </g>
  <g>
    <path d="M175.4 460.5l-.9-4.9c-.2-1.8-.1-3.6.1-5.7.1-1 .4-2 .7-3 .3-1 .6-2.1 1.1-3.1l1.7-3.1 1.1-1.5 1.3-1.4 2.7-2.5a22 22 0 0 1 4.2-2.5l1.4-.5 2.6-.7a14.8 14.8 0 0 1 8.1.8l-1.3.9-1.5 1.1-.9.7-1 .8-2.2 1.8-2.4 2.2c-1.7 1.5-3.2 3.2-4.9 4.9-1.5 1.8-3 3.6-4.2 5.4-.6.9-1.3 1.7-1.7 2.6l-1.4 2.4-.6 1.1-.4 1-.7 1.6c-.7 1-.9 1.6-.9 1.6z" class="st25"/>
  </g>
  <g>
    <path d="M196.8 434.2a24.5 24.5 0 0 0-3.2 8.9c-.7 3-1.2 6-2.8 9a17.7 17.7 0 0 1-6.1 6.8 22.3 22.3 0 0 1-6.7 2.9s.5-1.9 1.6-4.8a60 60 0 0 1 4.7-10.3c1.1-1.8 2.2-3.6 3.5-5.2 1.3-1.6 2.7-3 4-4.1l1-.8 1-.6 1.6-1 1.4-.8z" class="st25"/>
  </g>
  <g>
    <path d="M187.7 457.7l.6-3.4a15.6 15.6 0 0 1 3.7-7.1c1-1 2.2-2.1 3.8-2.8l2.2-.9 2.1-.4a10.4 10.4 0 0 1 8.7 3l-1 .3-2.6.8a53.7 53.7 0 0 0-14.6 8.1l-1.2 1-.9.8-.8.6z" class="st25"/>
  </g>
  <g>
    <path d="M37.1 455.3l-2.4-2.3-2.6-2.1c-.9-.7-1.8-1.4-2.5-2.2a12 12 0 0 1-3.5-9.2c.2-2 .9-3.8 1.6-5a68.8 68.8 0 0 0 8.9 17.2l.2.8.1.8.2 1.2v.8z" class="st25"/>
  </g>
  <g>
    <path d="M20.4 431.4l3.7.6a21.2 21.2 0 0 1 8 3.7 19 19 0 0 1 4.8 6.3l.8 2.3c.4 1.5.4 2.9.4 4.2a10.7 10.7 0 0 1-2.1 5.6l-.4-1.1-1.2-2.9c-1-2.4-2.8-5.4-4.8-8.3-2-2.9-4.2-5.6-6.1-7.4l-2.2-2.2-.9-.8z" class="st25"/>
  </g>
  <g>
    <path d="M43.5 455.3c-1.5-1.1-3.3-2.3-4.8-4a11.5 11.5 0 0 1-2.9-6.4 10 10 0 0 1 1.5-6.2c1.1-1.6 2.5-2.9 3.7-3.7l.4 3.3c.3 2 .4 4.6.7 7.1.3 2.5.5 5 .9 6.8l.5 3.1z" class="st25"/>
  </g>
  <g>
    <path d="M40.4 426l2.5 3.3a26.3 26.3 0 0 1 3.6 9.4 25 25 0 0 1-3.1 16 18 18 0 0 1-4.5 5.1l.1-1.5.3-4 1.3-11.8c.4-4.2.6-8.4.4-11.4V430l-.1-1-.2-1.6a75 75 0 0 1-.3-1.4z" class="st25"/>
  </g>
  <g>
    <path d="M48.1 451.9c-.9-2.3-2.1-4.9-2.8-7.9a19 19 0 0 1-.5-4.9 20.9 20.9 0 0 1 2.7-10.5 14.8 14.8 0 0 1 8.1-6.7l-1.5 4.6c-1 2.7-1.9 6.5-2.9 10.2-.8 3.8-1.7 7.5-2.1 10.4l-1 4.8z" class="st25"/>
  </g>
  <g>
    <path d="M61.2 425.5c0 2.8 0 5.9-.4 9.3a33.9 33.9 0 0 1-8.8 19.4c-2 2-4 3.3-5.6 4l.5-1.5.5-1.7.7-2.2c1.1-3.2 2.9-7.4 4.8-11.5l5.6-10.9 2.7-4.9z" class="st25"/>
  </g>
  <g>
    <path d="M58 459.9c-.6-2.3-1.4-5-1.7-8a19.8 19.8 0 0 1 1.2-9.8c2.7-7.1 7.8-9.6 10.9-10.3l-1.8 4.4-3.8 9.6c-1.2 3.5-2.6 7.1-3.4 9.7a220 220 0 0 1-1.4 4.4z" class="st25"/>
  </g>
  <g>
    <path d="M63.4 456.3l1.2-2.2.7-1.6.3-1 .1-.5v.6l.3 1.5a9 9 0 0 0 1.9 3.6l-.4.2-.9.3c-.5.1-1.1 0-1.6-.1s-.8-.3-1.1-.5l-.5-.3z" class="st25"/>
  </g>
  <g>
    <path fill="#bd39cb" d="M209.5 479.1c44.3 1 96 12.1 96 12.1s-55.2 9.4-96 9.2C165.8 500.1 95.8 488 95.8 488s72-9.9 113.7-8.9z"/>
  </g>
  <path d="M0 440.7v62.8L483.7 463z" class="st25"/>
  <path fill="#f6f8eb" d="M218 453.3c39.4 2.1 78.7 3.6 118.5 7.7a765 765 0 0 1 50.1 7.3l97.1-5.2-265.7-9.8z" opacity=".6"/>
  <g>
    <path d="M155 478.8c-42.8.7-97.6 3.8-155 7.9v31.4c56.5.4 111.1 0 155.1-2 119.7-5.5 259.9-26.8 259.9-26.8s-130.7-12.7-260-10.5z" class="st25"/>
  </g>
  <g>
    <path fill="#f6f8eb" d="M415 489.2s-130.7-12.7-260-10.5c-18.1.3-38.2 1-59.8 2.1 89.3 1.9 167.3 7.9 235.4 19.7 49.5-6 84.4-11.3 84.4-11.3z" opacity=".4"/>
    <path d="M95.3 480.8c-29.6 1.4-62 3.5-95.3 5.8V518c56.5.4 111.1 0 155.1-2 60.1-2.8 126.3-9.6 175.6-15.6-68.1-11.6-146.1-17.6-235.4-19.6z" class="st25"/>
  </g>
  <g>
    <path d="M87.7 525A784.5 784.5 0 0 0 0 536.8v7.9a664 664 0 0 0 83 2.1c41.7-2.6 100.1-16.4 100.1-16.4s-51-7.5-95.4-5.4z" class="st25"/>
  </g>
  <g>
    <path d="M1242 482.8c-13.5-.9-26.9-1.5-39-1.5-59.4 0-146.7 13.8-146.7 13.8s82 13.8 146.7 13.8c11.9 0 25.3-.6 39-1.6v-24.5z" class="st25"/>
  </g>
  <g>
    <path d="M1139.1 381.5l.4-3.6c.1-1.3 0-2.6-.1-4-.2-1.4-.4-2.8-.8-4.3l-.7-2.2-.4-1.2-.5-1.1-1.2-2.3-1.5-2.2-.8-1.1-.9-1-2-2.1c-1.5-1.2-3-2.6-4.9-3.7l-1.4-.9-1.5-.8-3.2-1.4c-4.5-1.7-8.9-2.2-12.7-1.7a18 18 0 0 0-9.3 3.8 11.2 11.2 0 0 0-3.6 5.9c-.1 1-.2 1.7 0 2.5l.5 1.9.3-.5.8-1.3a9.8 9.8 0 0 1 4.4-3.5c2.3-1 5.4-1.4 8.9-1.1a38 38 0 0 1 16.1 6.1l1.2.8 1.2.9 1.1.9 1.1.9c2.9 2.3 4.8 5.1 6.3 7.5.7 1.3 1.4 2.4 1.7 3.5.4 1.1.9 2 1.1 2.9l.4 2.4z" class="st25"/>
    <path d="M1133.9 374c.5-1 .3-2.7-.6-4.4-.8-1.7-2.2-3.4-3.9-4.9-3.5-3-8.6-5.2-14.9-5-6.2.2-10.9 2.9-13.4 5.9a9.9 9.9 0 0 0-2.5 8l.3-.3.9-.7a26.5 26.5 0 0 1 9.7-4.1 35.8 35.8 0 0 1 20.7 2.4c1.5.8 2.5 1.6 3 2.1l.7 1z" class="st25"/>
    <path d="M1138 377.2a12.1 12.1 0 0 0-1-5.1l-.6-1-.7-1-.9-.9a10.4 10.4 0 0 0-5.4-2.5 13 13 0 0 0-13.3 6.7 11.7 11.7 0 0 0-1.1 6.3c.2 1.2.5 2.3.9 3.2l.8-.9 1-1 1.3-1.3c1-.9 2.3-1.8 3.6-2.7 1.4-.8 2.9-1.6 4.5-2.1s3.1-.7 4.5-.6c.7.1 1.3.1 1.9.3l.8.2.7.4 1.3.7.9.7.8.6zm.2-6.1c1.7-1.9 2.9-5.8 2.7-9.9-.1-4.2-1.4-8.8-4.7-13.1-3.2-4.3-7-6.6-10.4-7.5-1.7-.5-3.3-.6-4.6-.6-1.4.1-2.6.4-3.5.7a51 51 0 0 0 2.6 2.2l1.8 1.7c2.6 2.5 5.9 6.2 8.7 10.2a49 49 0 0 1 6.3 11.4l.7 2.1.3 1.6.1 1.2zm3 3.9c-.5-1-.3-2.7.6-4.4.8-1.7 2.2-3.4 3.9-4.9 3.5-3 8.6-5.2 14.9-5 6.2.2 10.9 2.9 13.4 5.9a9.9 9.9 0 0 1 2.5 8l-.3-.3-.9-.7a26.5 26.5 0 0 0-9.7-4.1 35.8 35.8 0 0 0-20.7 2.4c-1.5.8-2.5 1.6-3 2.1l-.7 1z" class="st25"/>
    <path d="M1137.2 378.2a12.1 12.1 0 0 1 1-5.1l.6-1 .7-1 .9-.9c1.4-1.3 3.2-2.1 5.4-2.5a13 13 0 0 1 13.3 6.7 11.7 11.7 0 0 1 1.1 6.3c-.2 1.2-.5 2.3-.9 3.2l-.8-.9-1-1-1.3-1.3c-1-.9-2.3-1.8-3.6-2.7-1.4-.8-2.9-1.6-4.5-2.1s-3.1-.7-4.5-.6c-.7.1-1.3.1-1.9.3l-.8.2-.7.4-1.3.7-.9.7c-.6.3-.8.6-.8.6z" class="st25"/>
    <path d="M1140.3 375.6a15.5 15.5 0 0 1-.5-10.2c1-4 3.3-8.3 7.4-11.7 4.1-3.5 8.3-4.8 11.8-5a12.6 12.6 0 0 1 8 2l-1.4.7a9 9 0 0 0-1.6.9l-2.1 1.2a72.2 72.2 0 0 0-10.7 8 48.3 48.3 0 0 0-8.6 9.7l-1.1 1.9a6 6 0 0 1-.7 1.4l-.5 1.1zm-12.7 1.5c-1.7 2.4-1.5 6.5-.5 9.3.6 1.7 4.6-.4 5.8-1.1 1.1-.6 2.8-7.5 2.2-8.8-.8-2.4-6.3-.9-7.5.6-1.1 1.5 1-1.3 0 0zm10.9 2.5c-.2.4.3 1.1.8 1.7.5.6 1.1 1 1.1 1h1.5c.8 0 1.5-.1 1.6-.3.1-.3-.3-.9-.8-1.5l-1-1.1-1.5-.1c-.8-.1-1.6 0-1.7.3z" class="st25"/>
    <path d="M1132.9 380.7c0 .7.8 1.4 1.5 2l1.4 1.1s.7-.5 1.3-1.2c.6-.7 1.3-1.7 1.2-2.4-.1-.7-.9-1.5-1.7-2l-1.5-1-1.2 1.4c-.5.6-1.1 1.5-1 2.1zm3.5 3.3c0 .6.6 1.4 1.3 2l1.3 1.1 1.4-.9c.7-.6 1.4-1.3 1.5-1.9 0-.6-.6-1.4-1.3-2.1l-1.3-1.1-1.4 1c-.7.6-1.4 1.3-1.5 1.9z" class="st25"/>
    <path d="M1136.9 379c.1.7 1 1.4 1.7 1.8l1.5.6 1.2-1.3c.6-.7 1.1-1.4 1-1.9-.1-.6-.8-1.2-1.6-1.6-.7-.5-1.5-.8-1.5-.8l-1.3 1.2c-.4.6-1 1.4-1 2zm5.4.2c-.1.4.4 1.1.9 1.7l1 1.2 1.6-.3c.8-.2 1.7-.7 1.8-1.3.1-.3 0-.7-.2-1.1a2 2 0 0 0-.4-.6l-.5-.5c-.7-.6-1.4-.9-1.4-.9l-1.4.8-1 .5c-.2.2-.4.3-.4.5zm-1.6 7.6c.1.7.9 1.3 1.8 1.7l1.6.6 1.1-1.3c.5-.7 1.1-1.4 1-1.9 0-.5-.8-1-1.5-1.5l-1.4-.9s-.7.4-1.3 1.1c-.8.7-1.4 1.6-1.3 2.2zm-3.8 2.9c0 1.1 2.8 2.5 2.8 2.5s2.7-1.6 2.7-2.7c0-1-2.8-2.5-2.8-2.5s-2.8 1.7-2.7 2.7z" class="st25"/>
    <path d="M1141.1 383.4c.3.9 3.2 1.3 3.2 1.3s2.3-2 2.1-2.8c-.2-.8-3.2-1.3-3.2-1.3s-2.3 2-2.1 2.8zm.3-4.3c.2.3 1 .3 1.8.2l1.5-.3.7-1.3c.3-.7.6-1.5.3-1.9-.3-.4-1.2-.4-2-.2-.8.1-1.4.4-1.4.4l-.6 1.4c-.2.7-.5 1.4-.3 1.7z" class="st25"/>
    <path d="M1144.1 384.1c-.5.6-.4 1.6-.1 2.4l.5 1.6h1.7c.9-.1 1.8-.1 2.1-.5.3-.3.1-1.1 0-1.9v-1.6l-.5-.2c-.3-.1-.7-.3-1.2-.3-.9-.2-2 0-2.5.5zm-3.4 7.4c.3.5 1.2.8 2 1l1.6.1.8-1.5c.4-.8.7-1.7.5-2.1-.2-.4-1.1-.7-2-.9l-1.7-.2s-.5.6-.8 1.4c-.3.8-.6 1.7-.4 2.2z" class="st25"/>
    <path d="M1144.5 389.4c-.1.2.5.8 1 1.2l1.1.9h1.5c.7-.1 1.6-.2 1.7-.6.1-.4-.5-1-1.1-1.4l-1.2-.8-1.5.2c-.7.2-1.4.3-1.5.5zm6.9-50.2c-1.3.9-2 2.1-2.5 3.2-.5 1.2-.8 2.4-1 3.7l-1.1 4.1c-.5 1.4-.9 2.8-1.6 4.4a62.2 62.2 0 0 1-5.2 9.8l-1.4 1.8v-1.3l.3-3.5c.4-2.8 1.6-6.4 3.1-9.8l1.2-2.5 1.2-2.3c.8-1.5 1.6-2.9 2.6-4.1.9-1.2 2-2.2 2.9-2.7l1.1-.6.4-.2zm15.9 16.7c-1.7.3-3.3 1.3-4.6 2.2-1.4 1-2.7 2-4.4 2.8a12 12 0 0 1-4.9 1.2c-1.5 0-2.8-.2-3.8-.6l2.3-1.7c1.4-1 3.4-2.2 5.6-3.1a16.7 16.7 0 0 1 8-1.3l1 .2.8.3zm-11.7 28.4l-2.4-1-2.6-1c-.9-.4-1.8-.7-2.6-1.2-.9-.4-1.7-1-2.6-1.6a14.6 14.6 0 0 1-5.7-7.7l.8.3 2.1.9a28.8 28.8 0 0 1 11 8.7l1.4 1.9.6.7z" class="st25"/>
    <path d="M1197.1 482c4.6 2.3 8.9 3.9 12.1 4.7 3.2.9 5.4 1 5.6 2 .1.5-.3 1-1.4 1.6a11 11 0 0 1-4.6 1.1c-4 .4-9.5-.8-14.7-3.4-1.3-.6-4.6-2.4-9-5.5a104.7 104.7 0 0 1-41-62.2c-2.2-9.6-3.2-19.3-3.7-28.2-.4-9-.4-17.3-.4-24.4.1-7.1 0-13-.1-17.1l-.3-6.4.6 6.4.9 17.1c.3 7.1.6 15.4 1.4 24.3.8 8.9 2.3 18.3 4.8 27.6a101.5 101.5 0 0 0 41.5 57.7c4.1 2.7 7.1 4.2 8.3 4.7zM1122.9 383.9c-.2 1-.8 2.1-1.3 3l-.9 1.6-.2-.5-.3-1.3a8.3 8.3 0 0 1 0-3.5c.3-1 1-2.2 1.8-3l1-.9.4-.3-.1.5-.2 1.3c.1 1 0 2.2-.2 3.1zM1164.3 373c.6.7 1 1.7 1.2 2.5l.2 1.4-1.4-.6c-.7-.4-1.6-.9-2.1-1.4-.5-.5-.9-1.3-1.3-2l-.5-.9-.2-.4h.4l1.1.1c1 .2 2 .7 2.6 1.3zM1161.1 379.6c-.3-.5-.3-1.2-.3-1.8l.1-1.1 1.1.4c.6.3 1.2.7 1.5 1.2.2.5.2 1.3.1 1.9l-.2 1.1-1-.6c-.5-.2-1-.6-1.3-1.1zM1131.9 340.4a15 15 0 0 1-1.8-3l-.8-1.7 1.8.8a9 9 0 0 1 2.9 2.2c.7.9 1.3 2.3 1.5 3.5l.1 1.5v.6l-.4-.5-.9-1c-.8-.9-1.8-1.6-2.4-2.4zM1116.7 346.2c-.8-.2-1.6-.9-2.3-1.4l-1.2-1 1.5-.4c.9-.2 2-.2 2.8.1a7.5 7.5 0 0 1 1.8 1.2l.5.6.9 1.3-1.6-.1-.6-.1h-.7c-.4 0-.8 0-1.1-.2zM1102.2 425.2l.2-1.9v-2.1l-.4-2.3-.4-1.2-.2-.6-.3-.6-.7-1.2-.8-1.2-.5-.6-.5-.6-1.1-1.1c-.8-.7-1.6-1.4-2.6-2l-.8-.5-.8-.4-1.7-.7c-2.4-.9-4.8-1.2-6.8-.9-2.1.3-3.8 1-5 2.1a5.5 5.5 0 0 0-1.9 3.2v1.3l.3 1 .1-.3.4-.7c.4-.6 1.1-1.3 2.3-1.9a10 10 0 0 1 4.8-.6 18.2 18.2 0 0 1 8.6 3.3l.7.4.6.5.6.5.6.5c1.5 1.3 2.6 2.7 3.4 4l.9 1.9.6 1.5.4 1.2z" class="st25"/>
    <path d="M1099.4 421.2c.2-.5.1-1.4-.3-2.3a8.3 8.3 0 0 0-2.1-2.6 11.7 11.7 0 0 0-8-2.7 9.8 9.8 0 0 0-7.2 3.2c-.7.8-1.1 1.6-1.3 2.4-.2.7-.2 1.4-.1 2l.2-.1.5-.4a13.4 13.4 0 0 1 5.2-2.2c1.2-.2 2.6-.4 4-.3 2.8 0 5.5.7 7.1 1.6a6 6 0 0 1 1.6 1.2c.3 0 .4.2.4.2z" class="st25"/>
    <path d="M1101.6 422.9l-.3-2.1-.2-.6-.3-.6a2 2 0 0 0-.4-.6l-.5-.5a5.2 5.2 0 0 0-2.9-1.3c-1.1-.2-2.4 0-3.6.4a6.4 6.4 0 0 0-2.7 2l-.8 1.2-.5 1.2c-.2.8-.2 1.5-.2 2.2.1.7.3 1.2.5 1.7l.4-.5.5-.6.7-.7 1.9-1.5c.8-.4 1.6-.9 2.4-1.1.8-.3 1.7-.4 2.4-.3l1 .2.5.1.4.2.7.4.5.4.5.4zm.1-3.3c.9-1 1.5-3.1 1.5-5.3-.1-2.2-.8-4.7-2.5-7a10.5 10.5 0 0 0-5.6-4c-.9-.3-1.8-.3-2.5-.3-.8 0-1.4.2-1.9.4l.7.5.8.7 1 .9a34.1 34.1 0 0 1 8 11.6l.4 1.1.2.8-.1.6zm1.6 2.1c-.2-.5-.1-1.4.3-2.3.4-.9 1.2-1.8 2.1-2.6 1.9-1.6 4.6-2.8 8-2.7 3.3.1 5.9 1.6 7.2 3.2.7.8 1.1 1.6 1.3 2.4.2.7.2 1.4.1 2l-.2-.1-.5-.4a13.4 13.4 0 0 0-5.2-2.2c-1.2-.2-2.6-.4-4-.3-2.8 0-5.5.7-7.1 1.6a6 6 0 0 0-1.6 1.2l-.4.2z" class="st25"/>
    <path d="M1101.2 423.4l.3-2.1.2-.6.3-.6.4-.6.5-.5c.7-.7 1.7-1.1 2.9-1.3 1.1-.2 2.4 0 3.6.4 1.2.5 2.1 1.2 2.7 2l.8 1.2.5 1.2c.2.8.2 1.5.2 2.2-.1.7-.3 1.2-.5 1.7l-.4-.5-.5-.6-.7-.7-1.9-1.5c-.8-.4-1.6-.9-2.4-1.1-.8-.3-1.7-.4-2.4-.3l-1 .2-.5.1-.4.2-.7.4-.5.4-.5.4z" class="st25"/>
    <path d="M1102.8 422c-.7-1.2-.8-3.4-.3-5.5.6-2.2 1.8-4.4 4-6.3 2.2-1.9 4.5-2.6 6.3-2.7.9-.1 1.8.1 2.5.2.7.2 1.3.5 1.8.8l-.8.4-.9.5-1.1.7a32.7 32.7 0 0 0-10.3 9.5l-.6 1-.3.8-.3.6zm-6.8.8c-.9 1.3-.8 3.5-.3 5 .3.9 2.5-.2 3.1-.6.6-.3 1.5-4 1.2-4.7-.4-1.3-3.4-.5-4 .3-.6.9.6-.7 0 0zm5.9 1.4c-.1.2.2.6.4.9l.6.5h.8c.4 0 .8 0 .9-.2.1-.2-.2-.5-.4-.8l-.5-.6h-.8c-.5 0-1 0-1 .2z" class="st25"/>
    <path d="M1098.9 424.8c0 .4.4.7.8 1.1l.8.6.7-.7c.3-.4.7-.9.7-1.3s-.5-.8-.9-1.1l-.8-.5-.6.7c-.5.4-.8.9-.7 1.2zm1.9 1.7c0 .3.3.7.7 1.1l.7.6.8-.5c.4-.3.8-.7.8-1 0-.3-.3-.8-.7-1.1l-.7-.6-.8.6c-.4.3-.8.6-.8.9z" class="st25"/>
    <path d="M1101 423.9c.1.4.5.7.9 1l.8.3.6-.7c.3-.4.6-.8.6-1 0-.3-.4-.6-.8-.9l-.8-.5-.7.6c-.3.4-.6.8-.6 1.2zm2.9 0c-.1.2.2.6.5.9l.5.7.9-.2c.4-.1.9-.4 1-.7l-.1-.6-.2-.3-.3-.3-.7-.5-.7.4-.5.3a3 3 0 0 0-.4.3zm-.8 4.2c.1.4.5.7.9.9l.8.3.6-.7c.3-.4.6-.8.5-1 0-.3-.5-.5-.8-.8l-.8-.5s-.4.2-.7.6c-.3.4-.6.8-.5 1.2zm-2.1 1.5c0 .6 1.5 1.3 1.5 1.3s1.4-.9 1.4-1.4c0-.6-1.5-1.3-1.5-1.3s-1.4.9-1.4 1.4z" class="st25"/>
    <path d="M1103.3 426.2c.1.5 1.7.7 1.7.7s1.2-1.1 1.1-1.5c-.1-.5-1.7-.7-1.7-.7s-1.3 1.1-1.1 1.5zm.1-2.3c.1.2.5.1 1 .1l.8-.1.4-.7c.2-.4.3-.8.2-1-.2-.2-.6-.2-1.1-.1l-.8.2-.3.8c-.1.3-.3.7-.2.8z" class="st25"/>
    <path d="M1104.9 426.6c-.3.3-.2.9-.1 1.3l.3.8h.9c.5 0 1-.1 1.1-.3.2-.2.1-.6 0-1V426.5l-.2-.1-.6-.2c-.6 0-1.2.1-1.4.4zm-1.8 4c.1.3.6.4 1.1.5l.9.1.4-.8c.2-.4.4-.9.3-1.1-.1-.2-.6-.4-1.1-.5l-.9-.1-.4.8c-.3.3-.5.8-.3 1.1z" class="st25"/>
    <path d="M1105.1 429.5l.5.7.6.5h.8c.4 0 .8-.1.9-.3 0-.2-.3-.5-.6-.8l-.7-.4-.8.1c-.3 0-.7 0-.7.2zm3.7-27l-.8.8-.5.9c-.3.6-.4 1.3-.6 2l-.6 2.2-.9 2.4a28.6 28.6 0 0 1-3.5 6.2v-.7l.2-1.9c.2-1.5.8-3.4 1.6-5.2l.6-1.3.6-1.2 1.4-2.2.8-.9.8-.6.9-.5zm8.5 9c-.9.2-1.8.7-2.5 1.2s-1.4 1.1-2.4 1.5a6 6 0 0 1-4.7.3l1.2-.9c.8-.5 1.8-1.2 3-1.7s2.5-.8 3.6-.8a4.4 4.4 0 0 1 1.8.4zm-6.3 15.2l-2.7-1.1-1.4-.6c-.5-.2-.9-.5-1.4-.9a7.4 7.4 0 0 1-3-4.1l.4.2 1.2.5a17.1 17.1 0 0 1 6.9 6z" class="st25"/>
    <path d="M1174 483.7l10.2.8c2.6.1 4.2.2 4.4.7.1.5-1.5 1.3-4.2 1.9-2.7.5-6.5.6-10.7.2a91.1 91.1 0 0 1-39.3-13.7l-4.4-3-4.2-3.4a40.5 40.5 0 0 1-7.2-8.3c-2.1-3-3.8-6.2-5.4-9.4l-2.1-4.8-1.8-4.8a138.9 138.9 0 0 1-6.8-33.5l-.1-1.2.1 1.2.4 3.5a129.2 129.2 0 0 0 7.4 29.6c.5 1.6 1.3 3.1 1.9 4.7l2.2 4.7c1.6 3.1 3.4 6.2 5.5 9a40.4 40.4 0 0 0 11.4 10.8l4.3 2.8a86 86 0 0 0 17.2 7.8c10.9 3.5 19.2 4.2 21.2 4.4zM1093.5 426.5c-.1.5-.5 1.1-.7 1.6l-.5.8-.3-1a6 6 0 0 1 0-1.9 4 4 0 0 1 1-1.6l.8-.7-.1 1c-.1.6 0 1.3-.2 1.8z" class="st25"/>
    <path d="M1115.7 420.6c.7.7.8 2.1.8 2.1l-.7-.3c-.4-.2-.9-.4-1.1-.7-.3-.2-.5-.7-.7-1.1l-.4-.7.8.1c.5.1 1 .4 1.3.6zM1114 424.2c-.1-.3-.2-.6-.1-1l.1-.6.6.2c.3.2.7.4.8.7.3.6 0 1.6 0 1.6s-1.2-.4-1.4-.9zM1098.3 403.2c-.8-.9-1.4-2.5-1.4-2.5s1.7.6 2.5 1.6c.4.5.7 1.2.8 1.9v1.1l-.7-.8c-.3-.5-.9-.9-1.2-1.3zM1090.2 406.3c-.4-.1-.9-.5-1.2-.7l-.6-.5.8-.2h1.5c.4.2.9.5 1.2.9l.5.7h-.8l-1.4-.2zM1149.3 484.5a16 16 0 0 1-9.1 3.1h-.8l-.8-.1-1.6-.2-1.6-.5c-.5-.2-1.1-.3-1.6-.6-2.2-1-4.2-2.5-6.1-4.5-3.6-4.1-5.1-8-5.8-11.1-.6-3.1-.4-5.4-.1-6.9l.7 1.6 2 4c1.8 3.3 4.4 7.5 7.8 10.8 1.7 1.6 3.6 2.9 5.6 3.8l1.5.5.7.2.7.1 1.4.3 1.3.1c.8.1 1.6 0 2.3-.1l1-.1.8-.2 1.7-.2zM1139.8 468.8c2.4-.2 5.2-.3 8.4.4 3.2.6 6.7 2 10.2 4.7 3.4 2.8 5.3 6 6 8.5.4 1.3.5 2.5.5 3.4l-.4 2.4-.6-1.2-.8-1.3-.5-.8-.6-.9a34.3 34.3 0 0 0-7.8-7.8 60.6 60.6 0 0 0-13.1-7.1l-1.3-.3z" class="st25"/>
    <path d="M1150.8 467.3c2.2.1 4.7.2 7.5 1s5.8 2.3 8.6 5.1 4 6 4.1 8.5c.1 1.2-.1 2.3-.4 3.1-.3.8-.7 1.5-1.1 1.9l-.2-1.1-.4-1.2-.6-1.6a26 26 0 0 0-5.7-7.6 47.1 47.1 0 0 0-7.9-6l-2.9-1.6-1-.5z" class="st25"/>
    <g>
      <path d="M1174 481.6c-1.3-1.2-2.7-2.4-4-3.9-.7-.7-1.4-1.5-1.9-2.4-.6-.9-1-1.9-1.5-3-1.8-4.4-.6-8 .7-9.9l1.3 2.9 2.7 6.4c.8 2.4 1.7 4.8 2.1 6.7l.6 3.2z" class="st25"/>
    </g>
    <g>
      <path d="M1164 458.6l2.7 1.6 2.9 2.2c1.8 1.8 3.6 4.1 4.9 7.2 1.3 3.1 1.6 5.6 1.6 7.8 0 2.1-.4 3.8-.9 5l-.5-1.1-1.3-2.8-3.6-8.5c-1.3-3-2.6-6-3.8-8-.5-1.1-1.1-1.8-1.5-2.4l-.5-1z" class="st25"/>
    </g>
    <g>
      <path d="M1183.3 479.4c-1.4-1.3-3-2.7-4.4-4.4a19.9 19.9 0 0 1-3.9-6.4c-1-2.7-1.1-5.1-.8-7a9.1 9.1 0 0 1 1.8-4.2l1.1 3.4 2.6 7.4c1 2.8 2 5.5 2.6 7.6l1 3.6z" class="st25"/>
    </g>
    <g>
      <path d="M1173.6 456.3a79 79 0 0 1 5.7 10.2c.6 1.4 1 2.9 1.5 4.5a37 37 0 0 1 1.4 8.2v3l-.3 2.4-.7-1.1-.8-1.3-.5-.8-.4-.9a57 57 0 0 1-5.4-19.6c-.2-2.8-.5-4.6-.5-4.6z" class="st25"/>
    </g>
    <g>
      <path d="M1188.6 477.8l-2.2-1.6-2.1-2.2c-.7-.9-1.2-1.9-1.7-3l-.6-1.8-.2-1-.1-1v-2l.3-1.8c.3-1.1.8-2 1.3-2.8 1-1.5 2.4-2.4 3.4-2.8l-.1.9c-.1.6-.3 1.3-.3 2.3a40.7 40.7 0 0 0 1.3 13.9l.7 2.2.3.7z" class="st25"/>
    </g>
    <g>
      <path d="M1184.9 459c.6 2.1 1.4 4.5 2 7.3.6 2.7.9 5.7 1 9.1.1 3.4 0 6-.1 8.3l-.2 3.1-.3 2.4-.7-1.2-.7-1.4-.4-.9-.4-1a32.1 32.1 0 0 1-1.6-10.7 1307.1 1307.1 0 0 1 1.4-15z" class="st25"/>
    </g>
    <g>
      <path d="M1193.4 478.4c-1-1-2.3-2.2-3.2-3.8-.5-.8-.8-1.7-1-2.6-.1-1-.3-2 0-3.2a7.4 7.4 0 0 1 2.9-4.7 7.6 7.6 0 0 1 3.7-1.2l-.3.6-.7 1.6c-.5 1.4-1.1 3.3-1.4 5.2-.3 1.9-.3 3.9-.3 5.4l.1 1.8.2.9z" class="st25"/>
    </g>
    <g>
      <path d="M1144.2 484.5c-2.6.5-5.9.9-9.6.3-3.7-.5-7.8-1.8-12.1-4.1a64.7 64.7 0 0 1-9.8-6.3c-1.2-1-2.2-1.7-3-2.6-.9-.7-1.6-1.4-2.1-2l1.8.4 2 .6 1.2.4 1.3.5c3.7 1.3 8.2 3.7 12.5 6l6.4 3.2c2.1.9 4 1.7 5.7 2.2l2.3.7 1.8.4 1.6.3z" class="st25"/>
    </g>
    <g>
      <path d="M1096.2 478.9c3.5-.5 7.2-1.3 11.6-1.9a51 51 0 0 1 15.5.3 25 25 0 0 1 13.1 6.3l.9.9.8 1 1.2 1.8a10 10 0 0 1 1 2.9l-1.4-1.3-.8-.7-1-.7-1.1-.8-1.3-.7c-1.8-1.1-4.1-2-6.6-2.9-2.5-.8-5.4-1.4-8.2-1.9-5.8-.9-11.7-1.3-16.2-1.7-4.4-.2-7.5-.6-7.5-.6z" class="st25"/>
    </g>
    <g>
      <path d="M1140.9 483.9c-2.9-.5-6.6-.8-9.3-3.9a10 10 0 0 1-1.4-2.4c-.3-.8-.3-1.7-.3-2.4.1-1.5.6-2.7 1.2-3.6l1.3 2c.7 1.2 2 2.7 3.2 4.2l5.3 6.1z" class="st25"/>
    </g>
    <g>
      <path d="M1126.8 464.1l3.1 1.6a24.5 24.5 0 0 1 9.6 9.7c1.8 3.2 2.8 5.8 3.4 8.1l.6 3.1.1 2.4-.9-1-1-1.2-.6-.7-.6-.8c-1.8-2.3-3.7-5.6-5.6-8.8-1.9-3.2-3.8-6.3-5.3-8.5l-1.9-2.6-.9-1.3z" class="st25"/>
    </g>
    <g>
      <path d="M1126.7 486.4c-2.9 1.5-6.1 4-10.9 3.5a9.1 9.1 0 0 1-5.4-2.5 7 7 0 0 1-1.9-3.6l.7.2c.5.1 1.1.4 1.9.5a59.7 59.7 0 0 0 12.5 1.6l3.1.3z" class="st25"/>
    </g>
    <g>
      <path d="M1094.7 485.6c1.7-1 3.9-2.1 6.6-2.5 2.7-.4 6-.1 9.4 1.4a15 15 0 0 1 6.7 5.7 11 11 0 0 1 1.7 4.9l-.9-.7a50 50 0 0 0-10.7-6.3 31 31 0 0 0-8.8-2.3l-1.7-.1h-1.3l-1-.1z" class="st25"/>
    </g>
    <g>
      <path d="M1125.9 493.2l-3.8-1.3a5.5 5.5 0 0 1-3-2.4c-1.3-2.4.1-5.1 1.3-6.6a101.7 101.7 0 0 0 5.5 10.3z" class="st25"/>
    </g>
    <g>
      <path d="M1121.2 479.8l2.5 1.3 2.7 1.4a17 17 0 0 1 5.2 4.6c1.6 2.2 2.1 4.4 2.1 6.3 0 1.8-.7 3.2-1.3 4.1l-.4-.8-1-2c-.9-1.7-2.3-3.8-3.8-5.9l-4.3-6.1-1.3-2.1-.4-.8z" class="st25"/>
    </g>
  </g>
  <g>
    <path d="M1242 571.5c-414 58.2-828-58.2-1242 0v43.1c208.7-39.1 412-4.1 622.4 38.9 176.8 35.5 346.7 52 523.4 13.8a729.2 729.2 0 0 0 96.2-28.2v-67.6z" class="st25"/>
    <path fill="#d24dc0" d="M181.3 704c56.4-2 112.8-1.7 169.2 0H1242V561.9c-414 58.2-828-58.2-1242 0V704h181.3z"/>
    <path d="M1242 704V571.5c-414 58.2-828-58.2-1242 0V704h1242z" class="st25"/>
    <path d="M1242 704v-88.7c-182.6 25.4-364.7 6.7-547.5-14.2-232.2-26.7-462.7-28.8-694.5.1V704h1242z" class="st25"/>
    <path fill="#c348bd" d="M1242 571.5c-414 58.2-828-58.2-1242 0v29.6c231.8-28.9 462.3-26.8 694.5-.1 182.8 21 364.9 39.6 547.5 14.2v-43.7z" opacity=".4"/>
    <path fill="#c348bd" d="M347.7 704c26.7-32.3 56.9-60.5 93.7-77.6 48-21.8 100-17.2 152-25.8 23.2-4.6 44.9-12 61.6-26.7l-14.5-1a137.3 137.3 0 0 1-48.1 15.5c-120 13.4-247-.2-344 91.4-8 7.1-14.8 15.3-20.5 24.2h119.8z"/>
    <path fill="#4a39de" d="M1242 704v-64.9a729.2 729.2 0 0 1-96.2 28.2c-176.8 38.3-346.7 21.8-523.4-13.8-210.4-43-413.7-78-622.4-38.9V704h1242z" opacity=".2"/>
    <path d="M0 568.8c413.5-58.1 826.9 57.9 1240.4.2-39.6 2.8-105.9 8.9-203.1 8.8-97.2.3-225.4-5.5-388.9-17.9C369.6 538 166.8 537.8 0 566.8v2z" class="st23"/>
    <g class="st35">
      <path d="M921.9 676.7c17.6-.2 37-1.3 59.7-3.3l4.3-.4 4.4-.5 9-.9 19-2.2c6.6-.9 13.4-1.7 20.5-2.8l10.9-1.6 11.3-1.9a2639.6 2639.6 0 0 0 86-17.4l10.7-2.2c6.5-1.3 11.6-2.2 15.5-2.7l-10.5 4.1-5.6 2.1a320 320 0 0 0-14.1 5.1l-8.3 2.7-9.1 2.9-9.7 2.8-5.1 1.5-5.2 1.4-10.8 2.7a532.6 532.6 0 0 1-46.2 8.8 555.6 555.6 0 0 1-46.5 4.4l-11 .4-5.3.1h-15.1a4474.5 4474.5 0 0 1-17.8-.6l-7.7-.5-6.8-.4-5.7-.5-10.8-1.1z" class="st36"/>
    </g>
    <g class="st35">
      <path d="M351 592.1l23.3-2 3.1-.2 3.2-.1 6.6-.1 13.9-.1h3.7l3.7.2 7.6.5c5.2.4 10.6.8 16.2 1.5l17.5 2.7c3 .5 6.1 1 9.3 1.7l9.6 2.2 9.5 2.3 4.5 1.2 4.4 1.3a389 389 0 0 1 16.2 5.3l7.3 2.6 6.8 2.7 12.1 5.2 5.3 2.5 4.8 2.5c3.1 1.6 5.8 3.2 8.3 4.6 5 2.9 8.8 5.4 11.6 7.5l-8.8-3.1-10.1-3.6-6.2-2.2a1240.4 1240.4 0 0 1-22.5-7.2l-4.2-1.3-4.3-1.2-9-2.5c-12.1-3.6-25.2-6.5-38.2-9.7-13.1-2.6-26.2-5.4-38.5-7l-9.1-1.4a67 67 0 0 1-4.4-.7l-4.3-.5-16-1.7-7.1-.7-6.4-.4-10.4-.6c-5.7 0-9-.2-9-.2z" class="st36"/>
    </g>
    <g class="st35">
      <path d="M534.9 610.3c13.3 1.6 28.2 3.7 45.6 7.1 17.4 3.4 37.1 8.2 60.4 14.1 23.3 5.8 41.6 9.8 55.7 12.8l5.1 1.1 4.7.9 8.2 1.8c5 1 9 2 12 3l-8.4.2-4.4.1-5.2-.1-5.9-.2-6.6-.5-7.2-.6-7.6-.9-4-.5-4.1-.7-8.4-1.4a468.5 468.5 0 0 1-35.4-8.1c-23.9-6.4-47.4-14.1-65.1-19.5l-12-3.7-9.3-2.7c-5.2-1.3-8.1-2.2-8.1-2.2z" class="st36"/>
    </g>
    <path fill="#5e52e3" d="M697.9 630.9c7 1.3 14.9 3.7 21.1 5.5l10.6 3.4s-4.8 0-11.3-.3a740.1 740.1 0 0 0-10.5-.8c-3.6-.4-7.3-.8-10.6-1.5a160.3 160.3 0 0 1-15.7-4.4l-4.9-1.8c-6.2-2.4-10.8-4.4-10.8-4.4s5 .4 11.5 1.2l5.1.7 5.4.6 10.1 1.8z"/>
  </g>
  <g>
    <path d="M1242 537.3a470.9 470.9 0 0 0-54.5-4.2c-33.6 0-83 8.3-83 8.3s46.4 8.3 83 8.3a485 485 0 0 0 54.5-4.2v-8.2z" class="st25"/>
  </g>
  <g>
    <path d="M321.7 704l-4.2-2.9c-36.3-23.5-74.4-42.8-105.3-43l-4.2.1c-22.1-27.8-38.5-48.3-61.2-48.8-21.3-.4-39.2 18.2-43.7 45.3a54 54 0 0 0-37.4 4.7A83 83 0 0 0 0 633.7V704h321.7z" class="st38"/>
    <path d="M183.1 617.7c1-2.4 3.2-4.1 5-5.6l2.3-1.9 1-.8.6 1.2.9 3.3a16 16 0 0 1-.5 7.7c-.8 1.9-2.7 3.5-4.2 5.2a25 25 0 0 0-1.8 2.3l-.7 1.1-.9-1.1a13.5 13.5 0 0 1-1.7-11.4zm18.6 7.3c3.5-1.1 7.8-1.2 11.3-.8 3.4.4 5.9 1 5.9 1s-2 1.8-4.8 3.9c-2.8 2-6.2 4.5-9.3 5.4-1.5.5-3.3.8-5.2 1-1.9.2-3.8.1-5.5.2-3.4 0-6.2-.3-6.2-.3s1.9-2 4.5-4.4c1.3-1.2 2.9-2.4 4.5-3.4a23 23 0 0 1 4.8-2.6z" class="st38"/>
    <path d="M205 623.2a21.8 21.8 0 0 1 10.8.2c1.6.3 3 .9 3.9 1.3l1.5.6-1.4.9-3.4 2.2-2.1 1.3-2.2 1.3c-1.5.8-2.9 1.5-4.3 1.9-1.4.4-3 .6-4.6.7-1.6.2-3.4.1-4.9.2h-2.2l-1.8.1-1.7.1.9-1.4 1.1-1.6 1.6-1.8c1.2-1.3 2.6-2.5 4.1-3.6 1.6-1.1 3.2-2 4.7-2.4zm-3.8 16.9c1.6.6 3 2.4 3.8 4.2.9 1.7 1.3 3.3 1.3 3.3s-1.5.7-3.3 1.3c-1.8.6-3.9 1.2-5.1.7-1.4-.5-2.6-2.2-3.6-3.8-1-1.6-1.7-3.1-1.7-3.1s1.4-.9 3.2-1.6c1.8-.9 4-1.5 5.4-1z" class="st38"/>
    <path d="M200.8 631.3c3.7.1 7.9 1.5 11.2 2.8 3.3 1.3 5.7 2.6 5.7 2.6s-2.6 1.2-6 2.3a35.4 35.4 0 0 1-11.4 2.2c-3.5-.2-7.7-1.7-11.1-3.1-3.4-1.4-5.8-2.8-5.8-2.8s2.7-1.1 6.2-2.1c3.5-1.1 7.9-2.1 11.2-1.9z" class="st38"/>
    <path d="M207 628.9a27 27 0 0 1 13.1 2l-1 1-2.6 2.3c-2 1.7-4.7 3.7-7.2 4.3-2.5.6-6.1 0-8.7-1.1-1.3-.4-2.5-1.1-3.3-1.5l-1.2-.7 1.2-.8 2.9-1.9 1.7-1.1 1.8-1.1c1-.6 2.2-1.2 3.3-1.4zM123.2 616c-2-1.9-3.4-5-4.5-7.6-1.1-2.6-1.7-4.7-1.7-4.7l1.5.3c.9.2 2.2.4 3.6.9a19 19 0 0 1 8.1 4.2 23.2 23.2 0 0 1 5.1 13.4l-1.4-.6-3.4-1.5c-2.5-1.3-5.6-2.7-7.3-4.4z" class="st38"/>
    <path d="M120.4 610.4a17.6 17.6 0 0 1-1.4-11.2l.3-1.3 1.1.7 2.7 1.7c2.1 1.3 4.7 3 6 5.2a12.9 12.9 0 0 1 .9 8.9c-.2.8-.5 1.4-.8 2l-.9 1.4-1 1-.5-1.3-.7-1.2-1-1.2c-1.5-1.5-3.6-2.9-4.7-4.7zm24.8-4c.2-2.2 1.6-4.5 3.2-6.4 1.5-1.8 2.9-2.9 2.9-2.9l2 3.7.7 1.6c.2.6.5 1.1.6 1.7.4 1.1.6 2.2.5 3.2-.1 1-.5 2.1-1.1 3.2l-1 1.6-1.1 1.5a37.1 37.1 0 0 1-2.9 3.1l-2-3.8-.7-1.6c-.2-.6-.5-1.1-.6-1.7a7.6 7.6 0 0 1-.5-3.2z" class="st38"/>
    <path d="M155.8 607.5c1.3-1.1 3.5-1.5 5.5-1.9l2.6-.4 1.1-.1v1.2c0 .7 0 1.7-.2 2.8-.3 2.2-1.3 4.8-2.9 6.2a9.7 9.7 0 0 1-6.8 1.5l-2.9-.5-1.1-.4.5-1.1 1.1-2.4.6-1.4.6-1.4c.8-.8 1.3-1.7 1.9-2.1zm-58.4 23.8c-2.7-1.3-5.6-3.6-8-5.5l-4.4-3.4 1.6-.5a26.3 26.3 0 0 1 15 .4c3.1 1.4 6.2 4.7 7.9 7.9.9 1.6 1.3 3.1 1.6 4.2l.2 1.7-1.5-.9a18 18 0 0 0-3.6-1.4c-2.9-.9-6.4-1.4-8.8-2.5zm123.1 26.2c.8-2.1 3.1-3.7 5.1-4.5 1-.5 1.9-.7 2.6-.9l1.1-.2.2 1.1.4 2.7c.2 2 .5 4.2 0 5.5-.5 1.3-2.2 2.5-3.6 3.9l-1.9 1.8-.8.8-.7-.9c-.4-.6-1.1-1.4-1.5-2.5a8.7 8.7 0 0 1-.9-6.8zm18.1-.7c.6-1.5 1.6-2.9 2.8-4.1a18 18 0 0 1 3.8-3l.9-.5.9-.4 1.5-.7 1.3-.5-.1 1.5-.4 3.5-.2 2.1-.2 2.1c-.3 1.4-.4 2.7-.9 3.7l-.8 1.6-1.1 1.7-1.2 1.7-1.2 1.7-1.1 1.6-.9 1.3-.8 1.2-.7-1.4-.7-1.6-.6-2c-.5-1.5-.6-3.2-.7-4.9l.2-2.4c-.2-.8-.1-1.5.2-2.2zm21.6 7.5a41.2 41.2 0 0 1 15.3-3.6l1.8-.1-1.1 1.5-2.8 3.6a39.3 39.3 0 0 1-4 4.3 22.1 22.1 0 0 1-4.8 3.4 20 20 0 0 1-5.7 1.7l-3.1.3h-3l-1.3-.1-1.3-.2-2-.4-1.8-.4 1.5-1.1 1.6-1.2 1-.7 1-.8 2.2-1.6 2.2-1.7c1.5-1.2 2.9-2.3 4.3-2.9zm20.2 7.9a22 22 0 0 1 10.2 1.1c1.5.5 2.8 1.1 3.6 1.5l1.4.7-1.4.8-3.4 1.9c-2.7 1.4-5.8 3.2-8.7 3.7-2.9.5-6.7 0-9.8-.9-1.5-.4-2.9-.9-3.8-1.3l-1.5-.6 1.4-.9 3.4-2.1c2.6-1.5 5.8-3.4 8.6-3.9z" class="st38"/>
  </g>
  <g>
    <path d="M43.7 548.6a24.1 24.1 0 0 1 12.6-4.8 32.2 32.2 0 0 1 13.8 1.8c-1.8 1-3.3 2.2-4.5 3.7a22 22 0 0 0-2.1 3.2 21.4 21.4 0 0 0-1.3 15.1l1.1-1.4 1.3-1.5 1.8-1.8a26.5 26.5 0 0 1 10.6-6.2l1.7-.3-1.3.8c-1.4.9-2.4 2.2-3.3 3.5-.8 1.4-1.4 2.7-1.9 4.2-.4 1.5-.7 2.8-.8 4.2l-.2 3.8.6-.9 1.6-2.4c1-1.4 2.5-3.1 4.1-4.6.3.4.8.8 1.3 1.1l-.2.3c-.2.6.4 1.7 1 2.6-.5-.1-1-.2-1.5-.1a3 3 0 0 0-1.5.4l-.6.3v.8l-.1 1.7c-.1 1.2-.4 2.5 0 3 .3.6 1.5.8 2.6 1l1.7.1.3.4c-.6.2-1.1.5-1.3.9l-.5-.1-1.8-.5s-.8.4-1.6 1.1c-.8.6-1.5 1.6-1.4 2.1.1.5 1.1.9 2.1 1 .9.2 1.8.1 1.8.1l1.4-1.3.2-.2.3.9 1 2.3s1 .1 2-.1l1.1-.2-2.7 17.8c-2.3 14.9-4.6 30.8-7.9 47A370.2 370.2 0 0 1 57 704.2h8l1.9-6.1c4.9-16.2 8.6-33.1 11.3-49.5 2.7-16.5 4.4-32.6 6.1-47.6l2.1-18.6.4.3s3.5-1.8 3.6-3.4c0-1.2-2.3-3.3-3.1-4v-.3l.4.3 1.7-1.5c.8-.8 1.7-1.9 1.7-2.8 0-.8-.9-1.9-1.8-2.9l-.9-.9.2-1.3.3-.2c.2 1 .7 2.1 1.4 3l1.6 1.9 1.8-1.4.2-.1c.5 2 1 3.6 1.5 4 1.5 1.2 6.4 4.6 7.3 2.2 1.3-3.7 1.7-9.1-.1-12.8.3.5.4.8-.1-.3-.4-.8-.4-.6-.2-.2-1.6-2.2-7.9-5.1-9.2-1.9l-.2 1-1.8 1.1-.5.3-.1-.3v-2.4l.1-.1c.3-.3.7-.7 1.2-.9.5-.3 1-.7 1.6-.9l1-.4 1.1-.2c.7-.2 1.5-.1 2.4-.1 1.7.2 3.6.8 5.5 1.7a32.3 32.3 0 0 1 9.8 8l1.6 1.9a39 39 0 0 1 2.2 2.8c.5-1.1.9-2.5 1.2-4.1a17.3 17.3 0 0 0-1.1-8.6c-.4-1.1-.9-2.2-1.6-3.2-.9-1.6-2.2-3.1-3.9-4.5 1.5.1 3.1.2 4.7.5a41.3 41.3 0 0 1 20.9 9.5l1.1 1.1.4.4a12 12 0 0 0-.1-4.6c-.4-1.8-1.2-3.9-2.6-6-2.8-4.3-8.2-9-15.7-11a23 23 0 0 0-12.2-.1 33 33 0 0 1 19.9-3.6c4.3.6 8 2.2 10.6 4 2.6 1.8 4.1 3.9 5 5.5.5.7.7 1.4.9 1.9l.3.7c.3-.6.6-1.2.8-2.1.2-.9.2-1.8.2-3-.3-2.2-1.3-5.3-3.7-8.3a29 29 0 0 0-29.9-8.9l-1.9.6-1.8.8c-2.4 1-4.5 2.5-6.5 3.8l-2.8 2.4-1.3 1.2-1.2 1.4-1.8 2.2a65.8 65.8 0 0 1 19-21.1l2.5-1.6a10 10 0 0 1 1.9-1.1l1.7-.9a15 15 0 0 0-9.6-3.3c-4.1.1-9.2 1.8-13.9 7-3 3.3-5.1 7.1-6.5 11a42.6 42.6 0 0 0-5.3-18.6c-1-1.7-2.1-3.2-3.2-4.2s-2.3-1.5-3.1-1.3l.6.7c.4.5 1 1.6 1.6 3.2.6 1.6 1.1 3.8 1.7 6.2l.9 3.8.8 3.7.9 5c-.8-1.7-1.7-3.3-2.7-4.9a27.6 27.6 0 0 0-12.9-11.6c-2-.8-4-.9-5.6-.8-1.7.2-3.2.7-4.3 1.3l1.5 1.6 1.7 1.9 2.2 2.6 6.9 9.2-1.4-1.5a8.2 8.2 0 0 0-7.2-2.3 7.7 7.7 0 0 0-4.8 3.9l.7-.1c.2-.1.5 0 .8 0l1.1.1c1.6.2 3.7 1.4 5.7 3.1l.3.3-2.3-.5c-7.6-1.3-13.9 2-17.4 6.4a20.7 20.7 0 0 0-4.5 13.2l.4-.4c-.3-.2.1-.6.6-1zm45 .6l.4 1.1-.5 1.8-.2-.4c.2-.7.2-1.6.3-2.5zm-5.1 21.2l.5-.2v.2l.2.9-.2-.2a3 3 0 0 0-.5-.7zm1.8 3.1l-.4-.9.4.5c.1.1 0 .2 0 .4zm-.1-13.8l-.6.5-.1-.2.7-.3zm.4 8l-.6.7a3 3 0 0 0-.4-.8l1 .1zm-.6 7.7l-.1.8-.7.6-.2-.4 1-1zM84 563h.3l.2.3-1.1 1.2-.4.5-.1-.1c.6-.7 1-1.4 1.1-1.9zm-8.6-29.1l2.5 4.1a27.4 27.4 0 0 0-4.1-3.4l-.2-1.4c-.3-1.4-.8-2.9-1.7-4.4 1.2 1.6 2.4 3.3 3.5 5.1z" class="st38"/>
    <path d="M125.3 520.8l1.5-.1c.9-.2 1.8-1 2.7-1.6l1.5-1.2s-.7-.4-1.7-.7c-1-.4-2.3-.5-3.4-.3-.5.1-1 .4-1.5.8l-.7.6-.6.7-1.2 1.6 1.9.3c.4-.2 1-.1 1.5-.1zm-32.9-7.3l1.2-1a6 6 0 0 0 1.4-2c.2-.7-.1-1.6-.5-2.4l-.7-1.4s-.6.3-1.2.9c-.6.6-1.3 1.3-1.5 2.1-.1.7.2 1.7.6 2.5l.7 1.3zM53.9 548c-.6.5-.9 1.5-1.1 2.4l-.2 1.6 1.6-.1c.9-.1 1.8-.3 2.4-.8 1-.9 1.5-3.8 1.5-3.8s-3.1-.2-4.2.7zm2.6 7.3c0 .4.2.7.3 1l.2.4 1.3-.3c.7-.1 1.4-.2 1.7-.5.3-.3.4-1.1.5-1.8l.2-1.4s-.6-.2-1.4-.2c-.7-.1-1.7.1-2.1.5-.7.5-.9 1.5-.7 2.3zm53 14.5c-.7-.5-1.3-.7-1.8-.9l-.7-.3.3.7.7 1.7c.5 1.3.8 3 1.4 4.1.5 1.2 1.6 2.6 2.5 3.8l1.1 1.5.5.6.1-.7.2-1.9c.1-1.5-.1-3.4-.8-5a10 10 0 0 0-3.5-3.6z" class="st38"/>
  </g>
  <g>
    <path d="M1088.3 560.2l.2-.7c.2-.4.2-1.2.6-1.9a15 15 0 0 1 4.2-6 25 25 0 0 1 10-5.3 32 32 0 0 1 13.5-.5c2.2.3 4.4.9 6.6 1.7-3.7-.6-7.8-.1-12.1 1.6a27.8 27.8 0 0 0-14.2 12.8 17.4 17.4 0 0 0-1.8 6.3c-.2 1.8.1 3.4.5 4.5l.3-.4 1-1.2a37 37 0 0 1 10.7-8.6 45.3 45.3 0 0 1 13.2-4.7 23.4 23.4 0 0 0-3.3 4.9c-.6 1.1-.9 2.3-1.2 3.4-.3 1.1-.5 2.2-.5 3.2a15.3 15.3 0 0 0 2.2 9.3l.8-1.5 1-1.6 1.4-2.1a37.8 37.8 0 0 1 8.7-9.2 16 16 0 0 1 5.2-2.4c.8 0 1.6-.3 2.3-.2l1.1.1 1 .2c.6.1 1.2.5 1.7.7l1.3.7.1.1.3 2.4-.1.3-.5-.3-1.9-.8-.3-1c-1.7-3-7.6.6-8.9 3l-.1.2-.2.5c-1.2 3.8-.1 9.1 1.6 12.5 1.1 2.2 5.5-1.7 6.9-3.1.5-.4.8-2.1 1-4.1l.2.1 2 1.1s.7-.9 1.3-2.1c.5-1 .9-2.2 1-3.2l.3.1.3 1.2-.7 1c-.7 1.1-1.5 2.3-1.4 3.1.1.9 1.1 1.8 2 2.6l1.8 1.2.3-.3.1.3c-.7.7-2.7 3.1-2.5 4.3.3 1.6 4 2.9 4 2.9l.3-.3 4.4 18.1c3.5 14.6 7.2 30.3 11.9 46.3a375.3 375.3 0 0 0 17.3 47.5l3.1 6.8h8.5a349 349 0 0 1-24.2-56.1c-5.3-15.5-9.6-31-13.7-45.4L1152 585l1.1.1c1.1 0 2-.2 2-.2l.7-2.4.2-1 .2.1 1.6 1.1 1.8-.4c.9-.3 1.9-.7 1.9-1.3 0-.6-.8-1.4-1.6-1.9-.8-.6-1.7-.9-1.7-.9l-1.8.7-.5.2c-.2-.4-.8-.6-1.4-.7l.2-.5 1.6-.3c1.1-.3 2.2-.7 2.5-1.3.3-.6-.1-1.8-.4-2.9l-.3-1.7-.1-.8-.6-.2a7 7 0 0 0-1.6-.2c-.5 0-1 .1-1.4.3.5-1 .9-2.1.7-2.7l-.3-.3c.5-.4.9-.8 1.1-1.3 1.8 1.3 3.4 2.7 4.6 4l1.9 2.2.7.8-.6-3.7a20.6 20.6 0 0 0-3.7-7.9 12.2 12.2 0 0 0-5.1-3.6l1.7.1c2 .2 4.1.9 6 1.7 1.9 1 3.7 2 5.2 3.1l2 1.6 1.5 1.3 1.2 1.2a19.5 19.5 0 0 0-1.4-11.6c-.5-1.1-1-2.2-1.7-3.2a16.8 16.8 0 0 0-7.4-6 33.8 33.8 0 0 1 13.5-3.5c2.9-.1 5.6.3 7.9.9 2.2.7 4 1.5 5.2 2.3l1.4.9.5.3a20 20 0 0 0-6.1-12.4c-4.1-4-10.7-6.4-18.1-4.2l-2.2.8.3-.3c1.8-1.9 3.8-3.3 5.3-3.7l1-.2.8-.1h.7a8 8 0 0 0-5.2-3.3c-2.3-.3-4.8.7-6.9 3.1l-1.2 1.6c2-3.8 4-7.2 5.7-9.9l1.9-2.9c.6-.8 1-1.6 1.5-2.1l1.3-1.8a10 10 0 0 0-4.4-.7c-1.7.1-3.6.5-5.5 1.5-3.9 1.9-8 6.1-11.3 13-.8 1.7-1.5 3.5-2.1 5.2l.2-5.1.3-3.8.4-3.9c.2-2.5.5-4.6.9-6.3.4-1.7.8-2.8 1.2-3.4.3-.6.6-.7.6-.7-.8-.1-1.9.5-2.9 1.6s-1.9 2.7-2.6 4.6a41 41 0 0 0-2.9 19 31.2 31.2 0 0 0-7.8-10.1 19.6 19.6 0 0 0-14.6-5.2c-2 .2-3.9.9-5.4 1.6-1.5.8-2.7 1.8-3.7 2.8a29.8 29.8 0 0 0 3.8 1.6l2.6 1.3a66.4 66.4 0 0 1 21.4 18.5l-2-2-1.4-1.2-1.5-1.1-3.1-2c-2.2-1.1-4.4-2.3-6.9-2.9l-1.9-.5-2-.4c-1.3-.3-2.7-.3-4.1-.4a28.4 28.4 0 0 0-24.4 13 17 17 0 0 0-2.6 8.7c.1 1.2.2 2.1.5 3 .7 1.3 1 2 1.4 2.5zm66.1-24a284 284 0 0 1 2.7-5.5c-.7 1.6-1 3.1-1.1 4.6v1.4a33.3 33.3 0 0 0-3.6 3.9l2-4.4zm-5.2 35.2l-.7-.6 1-.3-.3.9zm.3 5.1l-.1-.4.4-.6-.3 1zm1.5 3.2l-.8-.5-.2-.8 1.1.8-.1.5zm-.6-5.6l-.1.2.1-.9-.1-.2.6.1-.5.8zm-1.1-8l.3-.1c.1.5.7 1.1 1.3 1.8l-.1.1-.4-.4-1.2-1.1.1-.3zm-.8-2.9v.2l-.6-.4.6.2zm-5.3-10.2c.2.9.3 1.7.6 2.5l-.1.4-.7-1.8.2-1.1z" class="st38"/>
    <path d="M1102 529.5c.4.1.9 0 1.4-.1l.8-.2.8-.2 1.9-.5s-.5-.7-1.3-1.4l-.7-.6-.8-.5c-.5-.3-1.1-.5-1.6-.6-1-.1-2.3.2-3.3.7l-1.7.9a33 33 0 0 0 4.5 2.5zm31.7-12.2l1.3.9.6-1.5c.3-.8.5-1.8.2-2.5a5.4 5.4 0 0 0-1.8-1.9l-1.4-.8-.5 1.5c-.2.8-.4 1.8-.1 2.5a7 7 0 0 0 1.7 1.8zm45.6 33.9l-.4-1.5c-.3-.8-.8-1.8-1.4-2.2-1.2-.8-4.1-.2-4.1-.2s.8 2.8 1.9 3.6c.6.4 1.5.5 2.4.5l1.6-.2zm-6.5 1.3c-.7.1-1.3.4-1.3.4l.3 1.3c.2.7.4 1.4.8 1.7.3.3 1 .2 1.7.3l.9.1.4.1.1-.4.2-1c0-.8-.3-1.8-.8-2.2-.6-.4-1.5-.4-2.3-.3zm-47.5 23.4a9.3 9.3 0 0 0-3 4.1c-.5 1.5-.5 3.4-.2 4.9l.4 1.9.2.7.4-.6.9-1.6c.7-1.3 1.6-2.7 2-4.1.4-1.2.5-2.8.9-4.2l.5-1.8.2-.8-.7.3c-.4.3-1.1.6-1.6 1.2z" class="st38"/>
  </g>
  <g>
    <path d="M1242 704v-60.6c-3.3-.9-6.5-1.3-9.6-1.3h-2.7c-7.7-16-28.1-24.3-41.4-24.4-13.2-.2-22.7 7.1-25.5 21.2a35 35 0 0 0-24.1 3.1c-8.3-9.8-22.8-15-38.4-14.8-20.8 0-49.7 10.9-55 32.3l-4.4-.2c-9.6.1-24.5 6.5-24.8 18.6-.3 2.8.2 6 1.4 9.5-5.6.1-11.4.4-17 1l-9.8 1.1c13-16.9-10.7-22.7-42.2-18-10 1.5-21.4 4-32.4 7.2-8.9-7.6-19.2-11.1-31.3-3.3-2.3-3.6-10.5-18.7-14.5-7-4.8-10.6-18.3-10-27.6-6.3-13.4 5.4-21.1 19.6-21.4 33.8-5.6-1.7-9.6-4.5-16.3-3a17 17 0 0 0-12.5 11.1H1242z" class="st38"/>
    <path d="M1022.3 658.5l.1-.1c11-4.1 10.5-14-3.3-9.7-11.4 3.7-11.8 15.3 3.2 9.8zm30.4-32.9l1.1-1.5c6-9.7-8.2-12.2-14.4-4.4-7 8.7 6.2 14.6 13.3 5.9z" class="st38"/>
  </g>
  <g>
    <path d="M727.5 687.9l1.2 1.9a68.9 68.9 0 0 1 6.5 14.2H764l.1-.1 1.6-1 1.2-.7 1-.5-2.6-1.8-1.6-.6.7-.6 1.5-1.2 1.5-1.1.8-.5.8-.5 2.9-1.8 2.4-1.3 2.3-1.1-2.4-.5-2.8-.4-1.7-.1h-1.9c-2.6.1-5.7.6-8.6 1.5-2.5.8-4.9 2-7.1 3.5l.2-3c.1-.8.3-1.6.8-2.5.4-.8 1.4-1.7 2.3-2.3l-.7.1-.8.3-.5.2-.5.3c-1.4.8-2.7 2.1-3.7 3.5-1.1 1.4-2 2.9-2.9 4.4l-1.5 2.6-1.1 2.2c-.4-2-1-3.9-1.8-5.7a18 18 0 0 0-8.1-8.6 16 16 0 0 0-8.1-1.4l.9 1.1.9 1.5zM680.3 704a37.2 37.2 0 0 1 26-4.4c3.8.8 7.3 2.4 10.5 4.4h16.7l-.1-.2c-1.3-1.7-2.5-3.6-4.2-5.1l-1.2-1.2-1.4-1.1c-.9-.8-2-1.4-3-2a33 33 0 0 0-14.4-4.2 41.3 41.3 0 0 0-28.6 9.8c-1.5 1.5-2.7 2.6-3.5 3.8l-.1.2h3.3z" class="st38"/>
    <path d="M742.6 686.9l.3.9.5-.7 1.3-1.6c1-1.3 2.3-2.7 2.9-4.1.6-1.4.8-3.3 1-5l.1-3s-1.1.6-2.4 1.7a12 12 0 0 0-3.5 4.2c-.6 1.5-.8 3.7-.5 5.4-.1.9.1 1.7.3 2.2zm-31.5-1.6c1.1.9 1.9 2.2 2.8 2.9.9.7 2.5 1.4 3.9 2.1l2.5 1.2s0-1.2-.4-2.8a8.9 8.9 0 0 0-2.8-4.7 7.5 7.5 0 0 0-5.5-1.3c-.9.1-1.7.4-2.1.7l-.7.5.7.4a7 7 0 0 1 1.6 1z" class="st38"/>
  </g>
  <g>
    <path d="M963.5 671l-1 5 2.4 1-2.2-3.5c-.7-1.2-1.5-2.4-2.1-3.7a39.5 39.5 0 0 1-3.3-8.6c-.6-2.2-.8-4.2-1-6-.1-1.9 0-3.6.3-5.2a21 21 0 0 1 2.7-7.6c2.4 5.3 4.6 10.9 6.1 16.8a72.2 72.2 0 0 1 2.3 18l-7.1-3 2.9-3.2z" class="st38"/>
  </g>
  <g>
    <path d="M968.6 674.6c-2.9.7-6.6 1-10.6-.3-1-.3-2-.8-3-1.3l-2.9-2a21.3 21.3 0 0 1-4.8-6.1c-2.5-5-2.7-9.4-2-12.8.7-3.4 2.3-5.9 3.7-7.4l.4 1.7c.3 1.1.6 2.6 1.2 4.3a68.8 68.8 0 0 0 5 12.2c1.2 2 2.5 3.9 3.9 5.5l1.1 1.1.5.5.5.5 1 .9 1 .8c.6.5 1.3.9 1.9 1.2l.8.5.7.3 1.6.4z" class="st38"/>
  </g>
  <g>
    <path d="M961.9 679.8c-1.2.3-2.6.7-4.1.9a17.6 17.6 0 0 1-9.6-1 15.3 15.3 0 0 1-7.6-7.7c-.7-1.5-.9-3-.9-4.4-.1-2.8.8-5.2 1.7-6.9l.7 1 1.9 2.6a67.2 67.2 0 0 0 14 13.3l.8.5.7.4 1.2.7 1.2.6z" class="st38"/>
  </g>
  <g>
    <path d="M974.8 655.3a32.9 32.9 0 0 1 4.7 7.6 16 16 0 0 1 .4 10.4 12.7 12.7 0 0 1-9.8 8.9c-1.2.2-2.3.2-3.2.2l.6-1.1.7-1.2.4-.7.4-.9a66.4 66.4 0 0 0 5.5-18.8l.3-3.2v-1.2z" class="st38"/>
  </g>
  <g>
    <path d="M482.4 704h19.3l-2.6-3a57.2 57.2 0 0 1-5.4-9.2c-3.3-6.8-5.6-14.5-7.2-20.2-.8-2.9-1.3-5.3-1.7-7.1l-.6-2.7a28.4 28.4 0 0 0-9.8 22c.1 3.6.8 7.5 2.6 11.6a28 28 0 0 0 5.4 8.6z" class="st38"/>
  </g>
  <g>
    <path d="M512.4 704l.3-2.2.4-3.3.3-3.3.6-6.4.6-11.3.2-11a37.1 37.1 0 0 0-11.1 10.5 33.7 33.7 0 0 0-4.6 8.4l-.8 2.5-.8 2.6a61.4 61.4 0 0 0-1.2 13.6h16.1z" class="st38"/>
  </g>
  <g>
    <path d="M499.6 654.6a156.7 156.7 0 0 1 5.6 18.4 95.4 95.4 0 0 1 2.6 30.3l-.1.7h15.9c.8-3.7 1.2-7.8 1-12.2l-.4-4.4a62 62 0 0 0-.8-4.2c-.5-2.7-1.5-5.2-2.4-7.6-1-2.4-2.1-4.6-3.3-6.6-1.3-2-2.5-4-3.9-5.7-5.5-7-11.8-11.9-17.3-16.2a198 198 0 0 0 3.1 7.5z" class="st38"/>
  </g>
  <g>
    <path d="M522.8 704h11.4l4.1-6.2 9-13.2 4.1-6.1c-3.7-.7-8.5-1.1-13.1-.1a19.3 19.3 0 0 0-15.5 15.5c-.5 2.6-.6 5.3-.3 7.9l.3 2.2z" class="st38"/>
  </g>
  <g>
    <path d="M539.8 704c.7-4.4.8-8.7.4-13-.6-6.5-2.1-12.8-3.2-18.2l-4.4 8.9c-2.7 5.4-6.2 12.8-9.1 20.6l-.6 1.7h16.9z" class="st38"/>
  </g>
  <g>
    <path d="M560.1 704a48.5 48.5 0 0 1 6.7-4.7l.9-.6.9-.5 3.4-1.9 1.5-.8 1.4-.7 2.3-1.1 2-1a24 24 0 0 0-10.5-5.8l-1.9-.4c-1.3-.2-2.7-.3-4.2-.3l-2.2.1-2.2.4a28 28 0 0 0-4.6 1.6c-.8.3-1.5.8-2.3 1.3l-2.3 1.6-2.1 1.8c-.7.6-1.2 1.3-1.8 2a29.5 29.5 0 0 0-4.8 8.8h19.8z" class="st38"/>
  </g>
  <g>
    <path d="M437.3 685.5c4.8 4.9 11 9.8 19.6 14.3 3.1 1.6 6 3 9 4.2h25.8a123.4 123.4 0 0 0-37.5-24l-3.6-1.5-3.5-1.3c-2.3-.8-4.4-1.6-6.5-2.1l-5.6-1.6-4.4-1-3.9-.7a58.4 58.4 0 0 0 10.6 13.7z" class="st38"/>
  </g>
  <g>
    <path d="M587 704l3-9c.9-3.3 1.7-6.4 2.2-9.2l.6-3.8.3-3 .2-2.6a55.7 55.7 0 0 0-8.9 5.1l-1.5 1.1-1.5 1.1a28.5 28.5 0 0 0-11.1 20.3H587z" class="st38"/>
  </g>
  <g>
    <path d="M579.2 704H596c-1.9-6.3-5-11.5-8.6-16-4.3-5.5-9.4-10-13.6-14l1.9 10.5c.9 5.4 2.1 12.3 3.5 19.5z" class="st38"/>
  </g>
  <g>
    <path d="M588.5 703.9s.1.1 0 0l15.3.1-2.4-12.9c-.9-5.3-1.9-10.6-2.6-15.5l-.5-3.6-.5-3.4-.7-6.3-.3-2.8-.1-2.5-.2-4.1a99 99 0 0 0-.2-3.5 32 32 0 0 0-7.9 9l-1.2 2.2-1 2.4c-2.7 6.7-4 15.8-2 26.5 1 5.4 2.5 10.1 4.3 14.4z" class="st38"/>
  </g>
  <g>
    <path d="M594.2 673.7l3.5 19L600 704h16.6c-.4-2.9-.8-5.9-1.5-9.1a114.6 114.6 0 0 0-11.5-31.3c-4.7-8.7-9.5-16.3-12.4-24.6l-.2 5a131.2 131.2 0 0 0 3.2 29.7z" class="st38"/>
  </g>
  <g>
    <path d="M617.3 704h13.6a115 115 0 0 1 11.8-22l4.9-7.5c-3.9-.4-8.9-.3-14 1.4a24 24 0 0 0-13.8 12 27 27 0 0 0-2.5 15.5v.6z" class="st38"/>
  </g>
  <g class="st39">
    <path d="M454.4 619.3c10.5-3.9 22.8-6.7 32.5-8.5l11.9-2.1 4.7-.7-16.6 5.6a1582 1582 0 0 0-30.6 10.8 235.4 235.4 0 0 0-32.7 14.5l-2.8 1.7-2.4 1.7-2.1 1.5-3.9 3.1 3.4-3.8 4.1-4 2.6-2.2 2.9-2.3a124.3 124.3 0 0 1 29-15.3z" class="st40"/>
  </g>
  <g class="st39">
    <path d="M315.7 617.2c5.1-1.7 11.1-3.1 15.7-4.3l5.8-1.4 2.3-.5-2.1 1.4c-1.3.8-3.1 2.1-5.3 3.3l-3.4 1.9-3.7 1.8a91.8 91.8 0 0 1-7.5 3.1c-4.7 1.6-10.7 2.9-15.6 3.9l-6 1.2-2.4.5 2.2-1.3 5.5-3.1c4.4-2.4 10-4.9 14.5-6.5z" class="st40"/>
  </g>
  <g>
    <path d="M502.7 223.8l.4-.7.6-.9 1.3-1.6 2.5-2.8 2.5-2.9-.4 1.1-1.1 2.7-1.7 3.3-1 1.6-.4.8-.2.4-.3.5-.9 1.5-.5.8-.1.2-.1.1-.3-.3-1.3-1.3-.6-.6-.3-.4a64.5 64.5 0 0 1-4.2-5.3l-.4-.8-.1-.3.2.2.6.6c.6.5 1.3 1.1 2.3 1.7l3.1 2.1.4.3h.1c-.1.1-.1.1-.1 0z" class="st41"/>
  </g>
  <g>
    <path d="M737.4 189.6l.3-.3.4-.4.8-.9 1.5-1.9 1.6-2.2-.1.8-.3 2-.3 1.3a7 7 0 0 1-.5 1.3c-.2.4-.4.9-.7 1.2l-.4.5-.2.3-.4.4-.4.4-.3.1h-2.1v-.1l-.2-.3-.3-.6-.2-.3-.1-.1v-.1l-.1-.3-.5-1.1-.5-1.1-1.3-2.4a20.5 20.5 0 0 0 3.4 2.4l.5.5.5.5.2.3c0 .1 0 0 .1 0h-.1l-.3.1z" class="st41"/>
  </g>
  <g>
    <path d="M1006 314.3l2.4-3.1 2.3-2.9c1.2-1.9 2.3-3.2 2.3-3.2l-1.1 4-1.6 3.6-2 3.3a3 3 0 0 0-.5.7l-.7.9a64 64 0 0 1-2.2 2.7l-1.3-2.6-.3-.6-.2-.4-.3-.6-1.1-2.4c-.3-.7-.4-1.4-.5-1.8l-.1-.7.4.6 1.1 1.5 1.7 1.9.5.5.1.1.1.1.1.1.2.1.1-.3.1-.2.3-.4c-.1-.5.1-.7.2-.9z" class="st41"/>
  </g>
  <g>
    <path d="M1089.3 219.3a48 48 0 0 1 2.3-2.8l1.4-1.5-.1 2.1a8.8 8.8 0 0 1-1.4 3.9l-.4.4-.5.4c-.4.3-.9.5-1.5.5-.6.1-1.2-.2-1.5-.4l-.5-.4-.3-.5c-.4-.6-.5-1.1-.6-1.5l-.1-.6.5.4 1.2.7.3.1h.3c.2 0 .3-.1.3-.2l.6-.6z" class="st41"/>
  </g>
  <g>
    <path d="M579.9 339l.1.1.1.1h.1l.1-.1v-.5l-.1-2.1v-1.8l-.1-1.4-.1-1.3a59.1 59.1 0 0 0 1 2.6l.5 1.8.6 2 .2.8.3 1 .6 2.1.6 2.2v.1l-.1-.1-.2-.1-.4-.3-.9-.5-3.5-2.2-1-.7-.9-.6-1.8-1.4-3.4-2.7-3.6-3.1a109.5 109.5 0 0 0 8.3 4l1.9 1.1.9.5.8.5z" class="st41"/>
  </g>
  <g>
    <path d="M327.1 109.4l.3-.4.5-.7 1.1-1.3 2-2.4.8-1 .6-.8.5-.8-.2 1-.7 2.4c-.3 1-.8 2-1.3 3l-.8 1.5-.4.7-.2.3-.4.6-1.8 2.5-.2.3-.1-.1-.1-.2-.4-.8-.7-1.5-.7-1.4-.3-.8-.6-1.5-1.1-3.3 2.3 2.7 1 1.2.5.6h.1c.3.5.3.2.3.2z" class="st41"/>
  </g>
</svg>
