<?xml version="1.0" encoding="utf-8"?>
<!-- Generator: Adobe Illustrator 22.1.0, SVG Export Plug-In . SVG Version: 6.00 Build 0)  -->
<svg version="1.1" id="Layer_1" xmlns="http://www.w3.org/2000/svg" xmlns:xlink="http://www.w3.org/1999/xlink" x="0px" y="0px"
	 viewBox="0 0 701 809" style="enable-background:new 0 0 701 809;" xml:space="preserve">
<style type="text/css">
	.st0{fill:#13181A;}
	.st1{fill:none;stroke:#525354;stroke-width:0.25;stroke-miterlimit:10;}
	.st2{fill:#99996D;}
	.st3{fill:#EC342E;}
	.st4{fill:#67B445;}
	.st5{fill:#0094BE;}
	.st6{fill:#EDE0D8;}
	.st7{fill:none;stroke:#515352;stroke-width:0.25;stroke-miterlimit:10;}
</style>
<g>
	<rect x="0.4" y="-314.5" class="st0" width="700.6" height="1266"/>
	<g>
		<line class="st1" x1="701" y1="-317" x2="701" y2="949"/>
	</g>
	<g>
		<line class="st1" x1="676.8" y1="-317" x2="676.8" y2="949"/>
	</g>
	<g>
		<line class="st1" x1="652.6" y1="-317" x2="652.6" y2="949"/>
	</g>
	<g>
		<line class="st1" x1="628.5" y1="-317" x2="628.5" y2="949"/>
	</g>
	<g>
		<line class="st1" x1="604.3" y1="-317" x2="604.3" y2="949"/>
	</g>
	<g>
		<line class="st1" x1="580.1" y1="-317" x2="580.1" y2="949"/>
	</g>
	<g>
		<line class="st1" x1="555.9" y1="-317" x2="555.9" y2="949"/>
	</g>
	<g>
		<line class="st1" x1="531.8" y1="-317" x2="531.8" y2="949"/>
	</g>
	<g>
		<line class="st1" x1="507.6" y1="-317" x2="507.6" y2="949"/>
	</g>
	<g>
		<line class="st1" x1="483.4" y1="-317" x2="483.4" y2="949"/>
	</g>
	<g>
		<line class="st1" x1="459.3" y1="-317" x2="459.3" y2="949"/>
	</g>
	<g>
		<line class="st1" x1="435.1" y1="-317" x2="435.1" y2="949"/>
	</g>
	<g>
		<line class="st1" x1="410.9" y1="-317" x2="410.9" y2="949"/>
	</g>
	<g>
		<line class="st1" x1="386.7" y1="-317" x2="386.7" y2="949"/>
	</g>
	<g>
		<line class="st1" x1="362.6" y1="-317" x2="362.6" y2="949"/>
	</g>
	<g>
		<line class="st1" x1="338.4" y1="-317" x2="338.4" y2="949"/>
	</g>
	<g>
		<line class="st1" x1="314.2" y1="-317" x2="314.2" y2="949"/>
	</g>
	<g>
		<line class="st1" x1="290.1" y1="-317" x2="290.1" y2="949"/>
	</g>
	<g>
		<line class="st1" x1="265.9" y1="-317" x2="265.9" y2="949"/>
	</g>
	<g>
		<line class="st1" x1="241.7" y1="-317" x2="241.7" y2="949"/>
	</g>
	<g>
		<line class="st1" x1="217.5" y1="-317" x2="217.5" y2="949"/>
	</g>
	<g>
		<line class="st1" x1="193.4" y1="-317" x2="193.4" y2="949"/>
	</g>
	<g>
		<line class="st1" x1="169.2" y1="-317" x2="169.2" y2="949"/>
	</g>
	<g>
		<line class="st1" x1="145" y1="-317" x2="145" y2="949"/>
	</g>
	<g>
		<line class="st1" x1="120.9" y1="-317" x2="120.9" y2="949"/>
	</g>
	<g>
		<line class="st1" x1="96.7" y1="-317" x2="96.7" y2="949"/>
	</g>
	<g>
		<line class="st1" x1="72.5" y1="-317" x2="72.5" y2="949"/>
	</g>
	<g>
		<line class="st1" x1="48.3" y1="-317" x2="48.3" y2="949"/>
	</g>
	<g>
		<line class="st1" x1="24.2" y1="-317" x2="24.2" y2="949"/>
	</g>
	<g>
		<line class="st1" x1="0" y1="-317" x2="0" y2="949"/>
	</g>
	<g>
		<polygon class="st0" points="701,115.1 0,302.4 0,441 701,253.6 		"/>
		<polygon class="st2" points="0,203.2 0,294.6 0,302.4 701,115.1 701,107.2 701,15.9 		"/>
		<polygon class="st3" points="0,441 0,469.4 701,282 701,253.6 		"/>
		<polygon class="st4" points="701,282 0,469.4 0,497.7 701,310.4 		"/>
		<polygon class="st5" points="0,497.7 0,526.1 701,338.7 701,310.4 		"/>
	</g>
	<g>
		<path class="st6" d="M701,797.4L559.9,654.2c0,0-39.5-33.3-5.1-67.3L701,440.8"/>
		<path class="st7" d="M701,797.4L559.9,654.2c0,0-39.5-33.3-5.1-67.3L701,440.8"/>
	</g>
</g>
</svg>
