<svg xmlns="http://www.w3.org/2000/svg" viewBox="0 0 2400 1200">
  <style>
    .st4{fill:#13131f}.st5{fill:#dedede}.st6{fill:#9b9b9b}.st7{fill:#d3d3d3}.st8{fill:#c4c4c4}.st9{fill:#e5e5e5}.st10{fill:#ebebeb}.st12{fill:#626262}.st13{fill:#d1d1d1}.st14{fill:#f7f7f7}.st15{fill:#e8e8e8}.st16{fill:#adadad}.st17{fill:#b5b5b5}.st18{fill:#ccc}.st19{fill:#a6a6a6}.st20{fill:#bfbfbf}.st21{fill:#6e6e6e}.st22{fill:#696969}.st23{fill:#737373}.st24{fill:#3b3b3b}.st25{fill:#6ce2d9}.st28{fill:#fff}
  </style>
  <g id="Layer_2">
    <radialGradient id="SVGID_1_" cx="617.02" cy="313.02" r="1698.57" gradientUnits="userSpaceOnUse">
      <stop offset="0" stop-color="#ffc8b3"/>
      <stop offset="1" stop-color="#d1c4ec"/>
    </radialGradient>
    <path fill="url(#SVGID_1_)" d="M0 0h2400v1200H0z"/>
  </g>
  <g id="Layer_1">
    <g opacity=".25">
      <path d="M673.7 177.9s-18.2 25.4-13 51.4c4.4 21.9 77.2 177.5 225.3 198.5s187-40.8 202.8-101c15.7-60.2-10.1-158.1-10.1-158.1s-15-82.1-109.6-79.1c-94.7 3-221.7 30.2-250.5 47.9-28.7 17.7-28.5 17.2-44.9 40.4zM524.4 202.9s25.5 18.1 29 44.4c3 22.2-15 193-148.1 261.2-133.1 68.2-190.1 22.5-224.7-29.3-34.5-51.8-42.1-152.8-42.1-152.8s-12.7-82.5 77.8-110.6c90.5-28.1 219.4-43.9 252.4-36.5 33 7.5 32.6 7.1 55.7 23.6z"/>
      <path d="M981.9 435.5c-27.2 4.6-59.3 4.2-96.8-1.1C731 412.5 658.5 251.5 654.2 230.6c-5.7-28.5 13.2-55.4 14.1-56.6 16.5-23.2 17.3-24 45-41.1l1.9-1.2c30.5-18.8 159-45.9 253.8-48.9 51.7-1.6 80.6 21.4 95.8 41 15.6 20.1 20 40.5 20.5 43.3 1.7 6.5 25.8 100.9 10 161.3-6.6 25.1-19.3 61.1-54.5 84.8-16.3 11-35.9 18.4-58.9 22.3zM679.1 181.7c-.2.2-16.4 23.5-11.9 46.3 1.7 8.3 19.5 51.7 57.4 96.6 32.1 38.1 86.3 85.8 162.4 96.6 145.6 20.6 180.9-40.5 195.4-96.1 15.1-57.8-9.8-153.8-10.1-154.7l-.1-.5c-.6-3.1-15.3-76.4-102.9-73.7-97.8 3.1-221.4 31-247.2 46.9l-1.9 1.2c-25.8 15.9-25.8 15.9-41.1 37.4zM317.2 547.1c-23 3.9-43.9 3.2-62.9-1.8-41-10.9-64.8-40.8-79.2-62.4-34.6-51.9-42.7-149-43.2-155.7-.4-2.8-2.9-23.5 5.3-47.6 7.9-23.5 27.7-54.7 77.1-70.1 90.5-28.1 220.8-44.5 255.8-36.6l2.2.5c31.7 7.1 32.8 7.6 55.9 24.1 1.2.9 27.9 20.1 31.8 48.9 2.8 21.1-13.2 197-151.7 268-33.7 17.2-63.9 28.1-91.1 32.7zm15.3-351.3c-38 6.4-78.5 15.3-114.2 26.4-35.4 11-58.4 31.7-68.5 61.6-7.5 22.3-4.7 41.4-4.7 41.6l.1.5c.1 1 7.8 99.8 41 149.6 23.6 35.4 59.1 70 129.1 58.2 24.5-4.1 53.1-13.9 87-31.2 68.4-35 104-97.8 121.9-144.3 21.1-54.9 23.8-101.7 22.7-110.1-3.1-23-26.1-39.7-26.3-39.9-21.4-15.3-21.4-15.3-51.1-22l-2.2-.5c-18.3-3.9-73.4-.2-134.8 10.1z"/>
      <path d="M1083.1 197.3h46.6v25h-46.6z" transform="rotate(-9.53 1106.23 209.7)"/>
      <path d="M101.5 362.1h46.6v25h-46.6z" transform="rotate(-9.53 124.78 374.5)"/>
      <path d="M667 230.3l-11.1 1.9c-3.2-18.9-27.4-30.6-54-26.2-26.6 4.5-45.7 23.5-42.5 42.4l-11.1 1.9c-4.2-25 19-49.9 51.8-55.4 32.6-5.5 62.7 10.4 66.9 35.4zM595.2 167.7c-50.3 8.4-98.1 13.6-134.6 14.6-54.6 1.4-61.3-.7-62.3-7.1l11.1-1.9c.7 1.8 11 .6 53.2-.6 35.7-1 82.3-6.1 131.1-14.3 48.9-8.2 94.6-18.6 128.6-29.3 40.3-12.6 50.4-14.9 50.5-16.8l11.1-1.8c1.1 6.4-4.6 10.6-56.6 27.1-34.9 11-81.8 21.7-132.1 30.1zM2352.5 1226.6c-2.2-7.4-4.5-14.7-6.5-22.1-6.8-24.4-14-51-22.5-84l-4.1-16c-6.1-23.5-11.9-45.7-20.4-76.7l-6-21.6c-2.8-9.9-5.6-19.7-8.3-29.7-.9-3.2-1.6-6.4-2.4-9.6-1.9-7.6-3.8-15.4-6.6-23.1-1.7-4.6-3.6-9.2-5.9-13.6a167.3 167.3 0 0 0-84.4-86.5c-.7-1.9-1.6-3.8-2.5-5.8-2.1-4.9-4.4-10.1-6-14.4-7-17.5-9.5-21.7-13.6-25.5-6.9-6.5-14.4-8.2-24.8-10.5-17.4-3.9-35.7-2-51.8-.5-14.7 1.5-33.9 4.2-51.4 12.8-9.6 4.6-16.5 8.1-21.7 16-3.1 4.7-4.5 9.4-7.2 28-.7 5.4-1.3 10.9-2 16.3l-.2 1.8c-.2 2.2-.3 4.7-.4 7.1 0 .8-.1 1.6-.1 2.4-5.7 5.3-11.2 10.8-16.2 16.9l-21.6 3-336.9 40-21.7 2.2c-6.2-4.7-12.8-8.8-19.7-12.6-.2-.7-.4-1.5-.6-2.3-.7-2.3-1.3-4.7-2.1-6.8l-.6-1.7c-1.9-5.1-3.8-10.2-5.7-15.4-7-17.5-9.5-21.7-13.6-25.5-6.9-6.5-14.4-8.2-24.8-10.5-19.1-4.3-38.4-2.4-53-.4-16 2.3-34.2 4.8-50.3 12.7-9.6 4.6-16.5 8.1-21.7 16-3 4.7-4.5 9.4-7.2 28-.6 4.6-1.6 10.1-2.5 15.4-.3 2.2-.8 4.2-1 6.2a167.1 167.1 0 0 0-61.7 103.9c-1.1 4.8-1.9 9.6-2.5 14.6-1 8.1-1 16.2-1.1 24 0 3.3 0 6.6-.1 9.9-.2 10.3-.7 20.5-1.1 30.8-.3 7.5-.6 14.9-.8 22.4-1 32.1-1.4 55.1-1.9 79.3l-.2 16.5c-.6 34-1.3 61.6-2.2 86.9-.3 7.7-.7 15.4-1.2 23.1-1.2 20.4-2.4 41.5-.2 62.1.4 3.2.8 6.4 1.3 9.4 1.2 7.9 3 15.6 5.1 23.2 6.6 22.9 16 40 28.6 52.5 14.5 14.3 37 25.3 58.6 28.6 1.9.3 3.8.5 5.7.6 5.2.5 10.7.3 16.2-.4 14.6-1.7 29.4-6.6 40.5-11.2 28.2-11.4 51.2-34.3 65-64.6 5.7-12.6 11.1-25.5 16.3-38.1 3.1-7.4 6.2-14.9 9.4-22.3.7-1.7 1.5-3.3 2.2-5 2.1-4.6 4.2-9.3 5.6-14.1l18.4-48.5c23.4 22.5 56.2 34.8 90.9 30.7 51.4-6.1 90.5-46.2 97.4-95.2l89.7-10.7c18.2 46 65.6 75.8 117 69.7 34.6-4.1 63.7-23.8 81.2-51.1l29.3 42.9c2.5 4.3 5.7 8.4 8.8 12.4 1.1 1.5 2.2 2.9 3.3 4.4l14.4 19.5c8 11 16.2 22.3 24.7 33.2 20.5 26.2 48.3 43.1 78.4 47.5 11.8 1.8 27.4 3.1 42 1.4 5.5-.7 10.9-1.7 15.9-3.4 1.8-.6 3.6-1.2 5.4-1.9 20.2-8.3 39.5-24.2 50.3-41.5 9.4-15.1 14.5-34 15.5-57.8a188.12 188.12 0 0 0-1.4-33.2c-2.6-20.7-8.7-40.9-14.7-60.5z"/>
      <path d="M1520.2 1178.9l-13.5-20.6 21.8-2.6-8.3 23.2zm97.2-123.5l-20.5 13.5-1.3-11.2-11.1 1.3 1.9 15.8c.6 5.2-3 9.9-8.1 10.5l-23 2.7c-3.8.5-7-1.8-8.5-2.9l-16.8-12.6a9.6 9.6 0 0 1-3.7-6.1c0-.2.1-.3 0-.5l-38.5 4.6c0 .2.1.3.1.5.3 2.4-.5 4.8-2.2 6.8l-13.4 16.2c-1.2 1.4-3.6 4.3-7.6 4.8l-23 2.7c-5 .6-9.6-3.1-10.2-8.3l-1.9-15.8-10.2 1.2 1.3 11.2-23.1-8.3.4-.3-4 .5 4.3 36c.3 2.3 2.3 3.8 4.5 3.5l69.2-8.2 8.2 69.2c.3 2.2 2.2 3.8 4.5 3.5l71.5-8.5c2.3-.3 3.9-2.3 3.6-4.5l-8.2-69.2 69.1-8.2c2.3-.3 3.8-2.2 3.5-4.5l-4.3-36-3.1.4.6.2zm-77.3 78.3c.6 5.1-3.2 9.7-8.4 10.3l-31.1 3.7c-5.2.6-9.9-3-10.5-8.1l-2.7-23c-.3-2.7.6-4.7 1.6-6.4.9-1.6 2-3 3.1-4.4l10.9-14.5c1.7-2.2 4.1-3.3 6.4-3.7 2.4-.2 4.9.5 6.8 2.2l16.2 13.4c1.5 1.3 4.4 3.7 4.9 7.6l2.8 22.9z"/>
      <path d="M1526.6 1020c.5 3.9-1.8 6.8-3 8.5l-12.6 16.8a9.6 9.6 0 0 1-6.1 3.7c-2.4.2-5-.4-7.1-2l-14-11.6c-1.4-1.2-2.8-2.3-4.1-3.7-1.4-1.4-2.8-3.2-3.1-5.7l-2.7-23c-.6-5.1 3.1-9.7 8.3-10.3l31.1-3.7c5.2-.6 9.9 3 10.5 8.1l2.8 22.9zm84.6-4.3l-69.1 8.2-8.2-69.1c-.3-2.3-2.3-3.8-4.6-3.5l-71.5 8.5c-2.3.3-3.8 2.2-3.5 4.5l8.2 69.1-69.2 8.2c-2.2.3-3.8 2.3-3.5 4.5l4.2 35.6 4-.5 20.1-13.2 1.3 10.7 10.2-1.2-1.8-15.3c-.6-5.2 3-9.9 8-10.5l23-2.7c2.7-.3 4.7.6 6.4 1.6 1.5.8 3 2 4.5 3.1l14.5 10.9a9.2 9.2 0 0 1 3.4 6l38.5-4.6c-.2-2.3.5-4.7 2-6.6l11.6-14c1.1-1.4 2.3-2.9 3.7-4.2 1.4-1.3 3.2-2.7 5.8-3l23-2.7c5.1-.6 9.7 3.1 10.3 8.3l1.8 15.3 11.1-1.3-1.3-10.7 22.6 8.1 3.1-.4-4.2-35.6c-.1-2.1-2.1-3.7-4.4-3.5zm-117.3-57.5l13.5 20.5-21.8 2.6 8.3-23.1z"/>
      <path d="M1599.9 938.5c-4.4-3.1-8.9-6-13.5-8.6-1.9-1.1-3.9-2.2-5.9-3.3a159.16 159.16 0 0 0-91.4-16.4 156.76 156.76 0 0 0-81.8 34.9c-6.4 5.2-12.4 11-17.9 17.1-.5.6-1.1 1.2-1.6 1.7a158.9 158.9 0 0 0-36.8 77.9c-2.5 14.6-3 29.7-1.2 45.1l35.8-4.3-4.2-35.6c-.8-6.8 4.1-13.1 10.9-13.9l60.8-7.2-7.2-60.7c-.8-6.9 4.1-13 10.9-13.9l71.5-8.5c6.9-.8 13.1 4 13.9 10.9l7.2 60.7 60.7-7.2c6.9-.8 13.1 4.1 13.9 10.9l4.2 35.6 37.7-4.5c-5.3-44.3-28.4-82.2-61.3-107.4-1.4-1-3-2.1-4.7-3.3zM1632.6 1089.8c.8 6.9-4.1 13-10.9 13.9l-60.7 7.2 7.2 60.8c.8 6.8-4.1 13-11 13.9l-71.5 8.5c-6.9.8-13-4.1-13.9-10.9l-7.2-60.8-60.8 7.2c-6.8.8-13-4.1-13.9-10.9l-4.3-36-35.8 4.3v.2c10.4 87.2 89.7 149.6 176.8 139.3 16.7-2 32.6-6.5 47.1-13.2 9.7-39 40-70.8 80-81.2 10.9-25.1 15.6-53.3 12.2-82.4v-.2l-37.7 4.5 4.4 35.8zM2103.9 892c16.1-1.9 30.8 9.7 32.8 25.8 1.9 16.2-9.7 30.8-25.8 32.8a29.68 29.68 0 0 1-32.8-25.8 29.6 29.6 0 0 1 25.8-32.8zm-66.1 83.8a29.5 29.5 0 0 1 32.7 25.6l91.1-10.8a29.4 29.4 0 0 1 25.8-32.5 29.5 29.5 0 0 1 32.7 25.6l9.3-1.1-4.1-34.5c-.2-2.1-2-3.6-3.8-3.4l-73.5 8.7-8.4-70.7c-.2-2.1-2-3.7-3.8-3.5l-65.6 7.8c-1.8.2-3.1 2.2-2.9 4.2l8.4 70.7-73.5 8.7c-1.8.2-3.1 2.1-2.9 4.2l4.1 34.5 8.5-1a29.55 29.55 0 0 1 25.9-32.5z"/>
      <path d="M2121.7 1041.6c16.1-1.9 30.8 9.7 32.8 25.8 1.9 16.1-9.7 30.8-25.8 32.8-16.1 1.9-30.8-9.7-32.8-25.8s9.6-30.8 25.8-32.8zm-110.2 5.9l73.5-8.7 8.4 70.7c.2 2.1 2 3.6 3.8 3.4l65.6-7.8c1.8-.2 3.1-2.1 2.9-4.2l-8.4-70.7 73.5-8.7c1.8-.2 3.1-2.1 2.9-4.2l-4.1-34.9-9.3 1.1v.2c1.9 16.1-9.7 30.8-25.8 32.8a29.68 29.68 0 0 1-32.8-25.8v-.2l-91.1 10.8v.2c1.9 16.1-9.7 30.8-25.8 32.8a29.68 29.68 0 0 1-32.8-25.8v-.2l-8.5 1 4.1 34.9c.3 2.1 2 3.5 3.9 3.3z"/>
      <path d="M2237.8 981.5l4.1 34.9c.8 6.7-3.8 12.8-10.3 13.5l-65.1 7.7 7.4 62.3c.8 6.7-3.8 12.8-10.3 13.5l-65.6 7.8c-6.4.8-12.4-4-13.2-10.7l-7.4-62.3-65.1 7.7c-6.4.8-12.4-4-13.2-10.7l-4.1-34.9-37.7 4.5v.2c3.5 29.1 14.7 55.5 31.2 77.3 41.3.8 78.3 24.6 96.8 60.2 15.7 3.1 32.2 3.8 48.9 1.8 87.2-10.4 149.6-89.7 139.3-176.8v-.2l-35.7 4.2z"/>
      <path d="M1991.1 975.8c-.8-6.7 3.8-12.8 10.3-13.5l65.1-7.7-7.4-62.3c-.8-6.7 3.8-12.8 10.3-13.6l65.6-7.8c6.4-.8 12.4 4.1 13.2 10.8l7.4 62.3 65.1-7.7c6.4-.8 12.4 4 13.2 10.7l4.1 34.5 35.8-4.3a159.55 159.55 0 0 0-65.7-110.7l-1.9-1.3c-6.8-4.7-14-8.9-21.4-12.5-1.8-1-3.8-1.8-5.7-2.6-25-10.9-53.1-15.5-82-12.1a159.6 159.6 0 0 0-85 37.3c-1.7 1.6-3.4 3-5 4.6-3.9 3.6-7.6 7.4-11.1 11.5l-3.9 4.5a158.75 158.75 0 0 0-34.4 118.8l37.7-4.5-4.3-34.4z"/>
      <path d="M1634.7 959.1a166.2 166.2 0 0 1 39.8 89.3l18.5-2.2-1.8-15.3 49.3-5.9 1.8 15.3 127.9-15.2-2-16.8 57.3 10.2 23.7-2.8c-4-34.4 2.9-67.5 17.7-96.2l-332.2 39.6z"/>
      <path d="M1823.9 1134.5c-1.2.1-2.2 0-3.3.1-18 .4-33.8-12.8-36-31-2.2-18.3 10.1-34.8 27.7-38.7 1.1-.2 2.1-.6 3.2-.7 19.4-2.3 37 11.6 39.3 31.1 2.4 19.2-11.5 36.9-30.9 39.2zm106.8-115l-58.2 25.5-2.4-19.9-127.9 15.2 2.2 18.5-49.3 5.9-2.2-18.5-18.5 2.2v.2c3.4 28.5-.6 56.2-10.5 81.3 1.7-.4 3.4-.6 5.2-.8 55.1-6.5 105.6 28.4 120.5 80.1l85.3-10.1c2.3-53.7 43.2-99.5 98.3-106.1 1.8-.2 3.4-.4 5.2-.5-15.5-22-25.9-48-29.3-76.5v-.2l-23.7 2.8 5.3.9z"/>
      <path d="M1977.9 1130.9c39.7-4.7 76 23.7 80.8 63.4l29.9-3.6c-1.4-11-4.5-21.3-9-30.9a75 75 0 0 0-2.5-4.9c-.9-1.8-1.9-3.5-3-5.2a103.06 103.06 0 0 0-78.3-48.7c-2-.3-3.9-.4-6-.5h-.1c-1.8 0-3.6-.1-5.4 0-3.5.1-6.9.3-10.4.7-56.3 6.7-96.7 57.7-90.5 113.8l30.5-3.6a73.23 73.23 0 0 1 64-80.5z"/>
      <path d="M2058.8 1194.4v.3c4.7 39.9-23.9 76.2-63.7 80.9a72.91 72.91 0 0 1-80.9-63.7v-.3l-30.5 3.6c0 .3 0 .6.1.9.8 6.9 2.3 13.5 4.4 19.8 2.2 6.7 4.9 13.1 8.4 19.1.2.2.4.5.5.9 21.8 34.1 61.7 54.6 104.7 49.5 4.9-.6 9.5-1.5 14.1-2.6 25.6-7.6 46.6-24.7 59.5-46.8.1-.2.3-.4.4-.6 10.8-18.7 15.9-40.7 13.1-63.8 0-.3-.1-.6-.1-.9l-30 3.7zM1670.1 1137.5c-3.4.4-6.8 1-10.2 1.7-1.7.4-3.5.8-5.2 1.3h-.1c-2 .6-3.9 1.1-5.7 1.9a103.4 103.4 0 0 0-64.7 65.7c-.7 1.9-1.2 3.8-1.7 5.7-.6 1.8-.9 3.5-1.3 5.3-2.2 10.3-2.7 21.1-1.5 32.1l29.9-3.6c-4.5-39.8 24-75.8 63.7-80.5 39.8-4.7 76 23.6 80.9 63.3l30.4-3.6c-7-55.9-58.2-96-114.5-89.3zM2127.6 1091.9a21.1 21.1 0 0 0 18.4-23.4 21.1 21.1 0 0 0-23.4-18.4 21.1 21.1 0 0 0-18.4 23.4c1.4 11.5 12 19.7 23.4 18.4zM2109.9 942.2a21.1 21.1 0 0 0 18.4-23.4 21.1 21.1 0 0 0-23.4-18.4 21.1 21.1 0 0 0-18.4 23.4 20.97 20.97 0 0 0 23.4 18.4zM1440.8 1093.2l23-2.7c.4 0 1.1-.6 2.1-1.9l13.4-16.1c.2-.9 0-1.1-.3-1.4l-14.3-10.7c-1.1-1-2.3-1.8-3.6-2.5-.8-.5-1.1-.6-1.2-.5l-23 2.7c-.4 0-.7.5-.6 1.1l3.7 31.1c0 .6.4.9.8.9z"/>
      <path d="M1571.9 1223.3c-13.8 5.7-28.6 9.7-44.2 11.5-82.9 9.9-159.1-42.9-181.1-120.9 0 2-.1 4.1-.2 6.1-.3 7.4-.6 14.8-.8 22.3-1 32.1-1.4 55-1.9 79.1l-.2 16.5c-.6 34.1-1.3 61.8-2.2 87.1-.3 7.8-.7 15.5-1.2 23.3-1.2 20.1-2.4 40.8-.2 60.7.4 3 .7 6 1.3 9.1 1.1 7.5 2.8 14.8 4.8 21.8 6.3 21.7 15 37.6 26.5 49.1 13.4 13.1 34 23.2 54 26.2 1.7.3 3.4.4 5 .6 17.8 1.4 38.6-5.2 53-11 26.1-10.7 47.6-32 60.5-60.3 5.6-12.5 11-25.3 16.1-37.8 3.1-7.4 6.2-14.9 9.4-22.4.8-1.7 1.5-3.4 2.4-5.2 2-4.5 4-8.8 5.2-13.3l20.1-52.6c-14.3-16.4-24-37.1-26.8-60.2-1.2-10-1.1-20 .5-29.7zM1511 1096.3c-.3 0-.6-.1-.8-.1-.3 0-.5.1-.6.4l-10.7 14.3c-1 1.2-1.8 2.4-2.5 3.6-.5.8-.5 1.1-.5 1.2l2.7 23c0 .4.6.8 1.1.7l31.1-3.7c.6-.1 1-.5 1-1l-2.7-23c0-.3-.7-1-1.9-2.1l-16.2-13.3zM1554.2 1079.7l23-2.7c.4 0 .8-.5.7-1.1l-3.7-31.1c-.1-.6-.5-1-1-.9l-23 2.7c-.1 0-.2.1-.9.7-1.1 1.1-2 2.2-3 3.4l-10.9 13.2c-.7.9-.9 1.2-.8 1.5l17.2 13.1c1.2.8 2 1.3 2.4 1.2zM1674.4 1175.6c-35.2 4.2-60.5 36.3-56.3 71.5 4.2 35.2 36.3 60.5 71.5 56.3 35.3-4.2 60.6-36.3 56.4-71.5-4.2-35.2-36.3-60.5-71.6-56.3zM1489.1 1028.8l13.7 11.4c.2.1.5.3.7.3.2 0 .4-.1.7-.3l12.5-16.8c.9-1.3 1.4-2.1 1.4-2.5l-2.7-23c-.1-.5-.6-.8-1.2-.7l-31.1 3.7c-.5.1-1 .5-.9 1l2.7 23c0 .1.1.2.8.9 1.1 1.2 2.2 2.1 3.4 3zM1577.3 915.8c0-.4-.2-.8-.3-1.2l-.6-1.8c-1.9-5-3.7-10.1-5.7-15-6.7-16.9-8.7-20-11.4-22.6-5.2-4.9-11.1-6.2-20.9-8.4-15.3-3.4-31-2.5-44-1l-6 .7c-15.4 2.2-32.9 4.7-47.7 11.9-9 4.4-14.4 7.1-18.3 13-1.9 2.9-3.3 6-5.9 24.6-.6 3.9-1.3 8.6-2.2 13.2 21.4-14.5 46.5-24.3 73.9-27.5 31.5-3.6 62.1 1.7 89.1 14.1zM2043.8 1026a21.1 21.1 0 0 0 18.4-23.4 21.1 21.1 0 0 0-23.4-18.4 21.1 21.1 0 0 0-18.4 23.4c1.3 11.5 11.8 19.7 23.4 18.4zM1877.9 1018.7l1.6 14 22.5-9.7z"/>
      <ellipse cx="1986.5" cy="1203.2" rx="64.4" ry="64.4" transform="rotate(-6.78 1986.26 1203.4)"/>
      <path d="M2174.1 839.1c-1.9-4.3-3.8-8.7-5.2-12.4-6.9-17.5-8.9-20.2-11.5-22.6-5.2-4.9-11.1-6.2-20.9-8.4-16.1-3.5-33.7-1.8-49.2-.4l-6 .7c-13 1.5-28.4 4.4-42.5 11.2-9.1 4.4-14.4 7.1-18.4 13-2 3.1-3.3 6.6-5.8 24.6-.7 5.3-1.4 10.6-2 15.9l-.2 1.9c0 .3-.1.8 0 1.2 23.4-18.4 51.8-30.7 83.4-34.4 27.5-3 54.1.7 78.3 9.7zM2337.8 1206.7c-6.8-24.4-14-51.1-22.6-84.1l-4.1-16c-6.1-23.4-11.9-45.5-20.4-76.5-2-7.2-4-14.4-6-21.5-.6-2-1.1-3.9-1.6-5.9-3.1 81-64.8 150.1-147.7 159.9a166 166 0 0 1-45.7-.9c3.8 9.1 6.3 18.8 7.5 28.9 2.7 23.1-1.8 45.5-11.9 64.8l31.8 46.5c2.3 4.1 5.2 7.8 8.2 11.7 1.2 1.6 2.3 3 3.5 4.5 4.9 6.6 9.6 13.1 14.4 19.6 7.9 10.9 16.1 22.2 24.5 33 19.2 24.4 45.1 40.2 73 44.4 15.4 2.2 37.1 3.8 54.1-1.8 1.6-.5 3.2-1.1 4.7-1.7 18.8-7.6 36.5-22.2 46.4-38.1 8.5-13.9 13.2-31.4 14.3-54 .3-7.3.2-14.8-.4-22.3-.2-3.1-.6-6.1-.9-9.1-2.5-19.9-8.5-39.7-14.4-59-2.4-7.4-4.6-14.9-6.7-22.4zM2193.4 1008.2a21.1 21.1 0 0 0 18.4-23.4 21.1 21.1 0 0 0-23.4-18.4 21.04 21.04 0 1 0 5 41.8zM1816.5 1072.5c-1.2.1-2.1.5-3.2.7-13 3.2-22 15.7-20.4 29.3 1.6 13.6 13.2 23.5 26.7 23.6 1.1 0 2.1.1 3.3-.1a27.06 27.06 0 0 0 23.6-30 26.98 26.98 0 0 0-30-23.5z"/>
      <path d="M1701.4 1036.2h32.8v17.2h-32.8z" transform="rotate(-6.78 1717.53 1044.98)"/>
      <path d="M1980 897.8l-13.1 1.9-337 40-13.2 1.2c4.8 4.1 9.2 8.5 13.5 13l339.7-40.4c3.1-5.4 6.4-10.7 10.1-15.7zM1352 1050.2c4.9-29.2 17.9-56 36.8-77.9.4-.6 1.1-1.1 1.6-1.7 5.5-6.2 11.5-12 17.9-17.1 1.5-1.4 3.2-2.7 4.9-3.9 21.7-16.4 48-27.5 76.9-31 32.6-3.9 64.1 2.5 91.4 16.4 2 1.1 4 2.2 5.9 3.3 4.6 2.6 9.1 5.4 13.5 8.6 1.7 1.2 3.2 2.3 4.8 3.5 32.1 24.6 54.7 61.4 60.8 104.3-.1-1.7-.2-3.4-.4-5.1-5.3-44.3-28.4-82.3-61.3-107.6-1.6-1.2-3.2-2.3-4.8-3.5-4.4-3.1-8.9-6-13.5-8.6-1.9-1.1-3.9-2.2-5.9-3.3a159.16 159.16 0 0 0-91.4-16.4 156.76 156.76 0 0 0-81.8 34.9c-6.4 5.2-12.4 11-17.9 17.1-.5.6-1.1 1.2-1.6 1.7a158.9 158.9 0 0 0-36.8 77.9c-2.5 14.6-3 29.9-1.1 45.4.1 1.2.4 2.3.6 3.5-1.3-13.8-.8-27.4 1.4-40.5zM1404.8 1137.9l60.8-7.2-1-8.4-60.8 7.2c-6.8.8-13-4.1-13.9-10.9l1 8.4c.8 6.9 7.1 11.8 13.9 10.9zM1472.8 1191.6c.8 6.8 7 11.7 13.9 10.9l71.5-8.5c6.9-.8 11.8-7.1 11-13.9l-1-8.4c.8 6.8-4.1 13-11 13.9l-71.5 8.5c-6.9.8-13-4.1-13.9-10.9l1 8.4zM1633.6 1098.2l-1-8.4c.8 6.9-4.1 13-10.9 13.9l-60.7 7.2 1 8.4 60.7-7.2c6.8-.9 11.7-7 10.9-13.9zM2013.7 1066.4l65.1-7.7-1.2-10.5-65.1 7.7c-6.4.8-12.4-4-13.2-10.7l1.2 10.5c.8 6.6 6.8 11.4 13.2 10.7zM2086.2 1121c.8 6.7 6.7 11.5 13.2 10.7l65.6-7.8c6.4-.8 11.1-6.8 10.3-13.5l-1.2-10.5c.8 6.7-3.8 12.8-10.3 13.5l-65.6 7.8c-6.4.8-12.4-4-13.2-10.7l1.2 10.5zM2243.2 1026.8l-1.2-10.5c.8 6.7-3.8 12.8-10.3 13.5l-65.1 7.7 1.2 10.5 65.1-7.7c6.5-.8 11.1-6.8 10.3-13.5zM1959.7 978.6c4.9-29.2 17.9-56 36.8-77.9.4-.6 1.1-1.1 1.6-1.7 5.5-6.2 11.5-12 17.9-17.1 1.5-1.4 3.2-2.7 4.9-3.9 21.7-16.4 48-27.5 76.9-31 32.6-3.9 64.1 2.5 91.4 16.4 2 1.1 4 2.2 5.9 3.3 4.6 2.6 9.1 5.4 13.5 8.6 1.7 1.2 3.2 2.3 4.8 3.5 32.1 24.6 54.7 61.4 60.8 104.3-.1-1.7-.2-3.4-.4-5.1-5.3-44.3-28.4-82.3-61.3-107.6-1.6-1.2-3.2-2.3-4.8-3.5-4.4-3.1-8.9-6-13.5-8.6-1.9-1.1-3.9-2.2-5.9-3.3a159.16 159.16 0 0 0-91.4-16.4 156.76 156.76 0 0 0-81.8 34.9c-6.4 5.2-12.4 11-17.9 17.1-.5.6-1.1 1.2-1.6 1.7a158.9 158.9 0 0 0-36.8 77.9c-2.5 14.6-3 29.9-1.1 45.4.1 1.2.4 2.3.6 3.5-1.3-13.9-.8-27.5 1.4-40.5z"/>
      <path d="M1417 921.8c2.6-18.6 4-21.7 5.9-24.6 3.9-6 9.3-8.7 18.3-13 14.8-7.2 32.4-9.7 47.7-11.9l6-.7c13-1.5 28.7-2.4 44 1 9.8 2.1 15.7 3.5 20.9 8.4 2.7 2.6 4.7 5.6 11.4 22.6 1.5 3.9 3 7.8 4.5 11.8l1.5.6c0-.4-.2-.8-.3-1.2l-.6-1.8c-1.9-5-3.7-10.1-5.7-15-6.7-16.9-8.7-20-11.4-22.6-5.2-4.9-11.1-6.2-20.9-8.4-15.3-3.4-31-2.5-44-1l-6 .7c-15.4 2.2-32.9 4.7-47.7 11.9-9 4.4-14.4 7.1-18.3 13-1.9 2.9-3.3 6-5.9 24.6-.6 3.9-1.3 8.6-2.2 13.2l1.8-1.2c.4-2.2.7-4.4 1-6.4zM2015.3 850.7c2.5-18 3.8-21.5 5.8-24.6 4-6 9.3-8.7 18.4-13 14.1-6.9 29.6-9.7 42.5-11.2l6-.7c15.4-1.5 33.1-3.2 49.2.4 9.8 2.1 15.7 3.5 20.9 8.4 2.6 2.4 4.6 5.1 11.5 22.6.7 1.9 1.6 3.9 2.5 6.1.7.2 1.4.4 2 .7-1.9-4.3-3.8-8.7-5.2-12.4-6.9-17.5-8.9-20.2-11.5-22.6-5.2-4.9-11.1-6.2-20.9-8.4-16.1-3.5-33.7-1.8-49.2-.4l-6 .7c-13 1.5-28.4 4.4-42.5 11.2-9.1 4.4-14.4 7.1-18.4 13-2 3.1-3.3 6.6-5.8 24.6-.7 5.3-1.4 10.6-2 15.9l-.2 1.9c0 .3-.1.8 0 1.2.4-.3.9-.6 1.3-1 .5-4.1 1-8.3 1.6-12.4zM1969.9 913.6L1630.2 954c.8.8 1.5 1.7 2.2 2.6l335.9-39.9c.6-1.1 1.1-2.1 1.6-3.1z"/>
      <path d="M1968.4 916.6l-335.9 39.9c.8.8 1.5 1.7 2.2 2.6l332.1-39.5c.5-1 1-2 1.6-3zM1790.5 1212.6l84.2-10c0-1.2.1-2.4.1-3.6l-85.3 10.1c.4 1.3.7 2.4 1 3.5zM1576.4 912.9c-.1-.2-.1-.3-.2-.5a165.63 165.63 0 0 0-88.4-13.6c-27 3.2-51.7 12.8-72.9 26.9l-.6 3.8c21.4-14.5 46.5-24.3 73.9-27.5 31.5-3.7 62.1 1.5 89.1 13.9 0-.4-.2-.8-.3-1.2l-.6-1.8zM2095.4 826.6c-31.3 3.7-59.5 15.8-82.7 33.9 0 .2 0 .4-.1.5l-.2 1.9c0 .3-.1.8 0 1.2 23.4-18.4 51.8-30.7 83.4-34.4 27.4-3.3 54.1.4 78.3 9.4-.5-1.2-1-2.3-1.5-3.5a164.8 164.8 0 0 0-77.2-9zM1974.7 1105.5c3.4-.4 6.9-.6 10.4-.7h5.5c2 .1 4 .2 6 .5 32.6 3 61.5 21.5 78.3 48.7 1.1 1.6 2.1 3.4 3 5.2 1 1.6 1.7 3.2 2.5 4.9 4.4 9.2 7.3 19.1 8.8 29.7-.1-.7-.1-1.4-.2-2.1a102.37 102.37 0 0 0-14.6-41.9 103.06 103.06 0 0 0-78.3-48.7c-2-.3-3.9-.4-6-.5h-.1c-1.8 0-3.6-.1-5.4 0-3.5.1-6.9.3-10.4.7-56.6 6.7-97.1 58.2-90.4 114.7.1.7.3 1.4.4 2.1-5.6-55.6 34.6-105.9 90.5-112.6z"/>
      <path d="M1995.6 1279.7c39.8-4.7 68.4-41 63.7-80.9-.1-.7-.3-1.4-.4-2.1 3.5 39.1-24.7 74.1-63.8 78.8-39.2 4.7-74.8-22.8-80.5-61.6.1.7.1 1.4.1 2.1 4.8 39.9 41 68.5 80.9 63.7zM1581.7 1223.3c.4-1.8.8-3.6 1.3-5.3.5-1.9 1-3.9 1.7-5.7 9.9-30.5 33.7-55.2 64.7-65.7 1.9-.7 3.7-1.3 5.7-1.9h.1c1.7-.5 3.5-.9 5.2-1.3 3.4-.7 6.8-1.3 10.2-1.7 55.9-6.6 106.7 32.9 114.4 88.3-.1-.7-.1-1.4-.1-2.1-6.7-56.5-58.2-97-114.8-90.3-3.4.4-6.8 1-10.2 1.7-1.7.4-3.5.8-5.2 1.3h-.1c-2 .6-3.9 1.1-5.7 1.9a103.4 103.4 0 0 0-64.7 65.7c-.7 1.9-1.2 3.8-1.7 5.7-.6 1.8-.9 3.5-1.3 5.3a100.94 100.94 0 0 0-1.1 35.1c-1-10.6-.5-21 1.6-31z"/>
      <path d="M2088.6 1190.8c2.1 22.1-3 43.2-13.3 61.2-.1.2-.2.4-.4.6-12.9 22.1-34 39.2-59.5 46.8-4.6 1.1-9.3 2-14.1 2.6-42.9 5.1-82.9-15.4-104.7-49.5-.1-.3-.3-.6-.5-.9-3.4-6-6.2-12.4-8.4-19.1-1.8-5.6-3.1-11.4-4-17.3h-.1c0 .3 0 .6.1.9.8 6.9 2.3 13.5 4.4 19.8 2.2 6.7 4.9 13.1 8.4 19.1.2.2.4.5.5.9 21.8 34.1 61.7 54.6 104.7 49.5 4.9-.6 9.5-1.5 14.1-2.6 25.6-7.6 46.6-24.7 59.5-46.8.1-.2.3-.4.4-.6 10.8-18.7 15.9-40.7 13.1-63.8 0-.2-.1-.5-.2-.8zM2123 1052.6c11.1-1.3 21.1 6.3 23.1 17.1v-1.3a21.1 21.1 0 0 0-23.4-18.4 21.1 21.1 0 0 0-18.4 23.4l.3 1.3c-.7-11 7.4-20.8 18.4-22.1zM2105.2 903c11.1-1.3 21.1 6.3 23.1 17.1v-1.3a21.1 21.1 0 0 0-23.4-18.4 21.1 21.1 0 0 0-18.4 23.4l.3 1.3c-.7-11 7.4-20.8 18.4-22.1zM2039.1 986.7c11.1-1.3 21.1 6.3 23.1 17.1v-1.3a21.1 21.1 0 0 0-23.4-18.4 21.1 21.1 0 0 0-18.4 23.4l.3 1.3c-.7-11 7.3-20.7 18.4-22.1zM2188.7 969c11.1-1.3 21.1 6.3 23.1 17.1v-1.3a21.1 21.1 0 0 0-23.4-18.4 21.1 21.1 0 0 0-18.4 23.4l.3 1.3c-.6-11.1 7.3-20.8 18.4-22.1zM1514.3 997.3l-31.1 3.7c-.5.1-1 .5-.9 1l.2 2.1c-.1-.5.4-.9.9-1l31.1-3.7c.6-.1 1.1.2 1.2.7l-.2-2.1c0-.5-.6-.8-1.2-.7zM1527.1 1109.7l-16.1-13.4c-.3 0-.6-.1-.8-.1-.3 0-.5.1-.6.4l-10.7 14.3c-1 1.2-1.8 2.4-2.5 3.6-.5.8-.5 1.1-.5 1.2l.2 2.1c0-.1 0-.3.5-1.2.7-1.2 1.6-2.4 2.5-3.6l10.7-14.3c.1-.3.4-.4.6-.4.2 0 .4 0 .8.1l16.1 13.4c1.2 1 1.9 1.7 1.9 2.1l-.2-2.1c0-.4-.7-1.1-1.9-2.1zM1437.1 1062.1l23-2.7c.1 0 .3 0 1.2.5 1.3.7 2.5 1.6 3.6 2.5l14 10.4.4-.4c.2-.9 0-1.1-.3-1.4l-14.3-10.7c-1.1-1-2.3-1.8-3.6-2.5-.8-.5-1.1-.6-1.2-.5l-23 2.7c-.4 0-.7.5-.6 1.1l.2 2.1c-.1-.5.2-1 .6-1.1zM1573.2 1043.9l-23 2.7c-.1 0-.2.1-.9.7-1.1 1.1-2 2.2-3 3.4l-10.9 13.2c-.7.9-.9 1.2-.8 1.5l1 .8c0-.1 0-.1.1-.1l10.9-13.2c1-1.2 1.9-2.4 3-3.4.7-.6.9-.7.9-.7l23-2.7c.4 0 .9.3 1 .9l-.2-2.1c-.2-.7-.6-1.1-1.1-1zM1902 1023l-24.1-4.3.2 2.1 20.5 3.6z"/>
      <path d="M1700.5 1036.3h32.8v2.1h-32.8z" transform="rotate(-6.78 1716.64 1037.5)"/>
      <path d="M1813.6 1075.3c1.1-.2 2.1-.6 3.2-.7 14.5-1.7 27.5 8.4 29.7 22.6v-1.1a27.13 27.13 0 0 0-30-23.7c-1.2.1-2.1.5-3.2.7-13 3.2-22 15.7-20.4 29.3 0 .4.2.7.2 1-1-13.1 7.8-25 20.5-28.1zM1676 1189.3c-27.7 3.3-47.5 28.5-44.2 56.2s28.5 47.5 56.2 44.2a50.67 50.67 0 0 0 44.3-56.2c-3.4-27.6-28.6-47.5-56.3-44.2zM1980.5 1153a50.6 50.6 0 0 0-44.2 56.2 50.53 50.53 0 0 0 56.2 44.2 50.6 50.6 0 0 0 44.2-56.2 50.66 50.66 0 0 0-56.2-44.2z"/>
      <path d="M1982 1165.6a38.03 38.03 0 0 0-33.2 42.1c2.5 20.7 21.3 35.7 42.1 33.2a38.1 38.1 0 0 0 33.2-42.1 37.84 37.84 0 0 0-42.1-33.2zM2172.4 1374.4c-8.4-10.8-16.6-22-24.5-33-4.8-6.5-9.5-13-14.4-19.6-1.2-1.5-2.3-3-3.5-4.5-3-3.9-5.9-7.6-8.2-11.7l-31.8-46.5c10.1-19.3 14.6-41.7 11.9-64.8-1.2-10.1-3.7-19.8-7.5-28.9a170 170 0 0 0 45.7.9c79.4-9.4 139.3-73.3 146.9-149.9-.7-2.6-1.5-5.2-2.2-7.8-.6-2-1.1-3.9-1.6-5.9-3.1 81-64.8 150.1-147.7 159.9a166 166 0 0 1-45.7-.9c3.8 9.1 6.3 18.8 7.5 28.9 2.7 23.1-1.8 45.5-11.9 64.8l31.8 46.5c2.3 4.1 5.2 7.8 8.2 11.7 1.2 1.6 2.3 3 3.5 4.5 4.9 6.6 9.6 13.1 14.4 19.6 7.9 10.9 16.1 22.2 24.5 33 7.5 9.5 16 17.6 25.2 24.4-7.5-6-14.4-12.9-20.6-20.7zM1571.4 1253.2c-1.2-10.1-1-20.2.5-29.8-13.8 5.7-28.6 9.7-44.2 11.5-82.9 9.9-159.1-42.9-181.1-120.9 0 2-.1 4.1-.2 6.1l-.3 8.1c25.3 72.6 98.5 120.7 177.9 111.3 15.6-1.8 30.4-5.8 44.2-11.5-1.6 9.7-1.7 19.7-.5 29.8a110.4 110.4 0 0 0 26.8 60.2l-20.1 52.6c-1.2 4.5-3.2 8.8-5.2 13.3-.8 1.8-1.5 3.5-2.4 5.2-3.2 7.5-6.3 15-9.4 22.4-5.1 12.5-10.5 25.3-16.1 37.8a129 129 0 0 1-15.1 24.9c7.4-8.7 13.7-18.6 18.8-29.6 5.6-12.5 11-25.3 16.1-37.8 3.1-7.4 6.2-14.9 9.4-22.4.8-1.7 1.5-3.4 2.4-5.2 2-4.5 4-8.8 5.2-13.3l20.1-52.6c-14.4-16.3-24.1-37-26.8-60.1zM1822.9 1126.1c-1.2.1-2.2 0-3.3.1-13.4-.1-25-10-26.7-23.6a26.97 26.97 0 0 1 20.4-29.3c1.1-.2 2.1-.6 3.2-.7 14.8-1.8 28.2 8.9 30 23.7 1.8 14.6-8.8 28.1-23.6 29.8zm-7.4-62c-1.2.1-2.1.5-3.2.7-17.6 3.9-29.9 20.4-27.7 38.7 2.2 18.2 18 31.4 36 31 1.1 0 2.1.1 3.3-.1 19.4-2.3 33.3-20 31-39.3a35.45 35.45 0 0 0-39.4-31zM1700.5 1038.2l32.6-3.9 2 17.1-32.6 3.9-2-17.1zm-5.4 26.5l49.3-5.9-4-33.8-49.3 5.9 4 33.8zM1877.9 1018.7l24.1 4.3-22.4 9.8-1.7-14.1zm-9.7-10.3l4.4 36.6 58.2-25.5-62.6-11.1zM1418.2 1068l-20.6 13.5 23.2 8.4z"/>
      <path d="M1398.3 1117.7l-8.5-71.5c-.3-2.2 1.4-4.2 3.5-4.5l69.2-8.2-8.2-69.1c-.3-2.3 1.3-4.2 3.5-4.5l71.5-8.5c2.3-.3 4.3 1.3 4.6 3.5l8.2 69.1 69.1-8.2c2.3-.3 4.2 1.4 4.5 3.5l8.5 71.5c.3 2.3-1.3 4.2-3.5 4.5l-69.1 8.2 8.2 69.2c.3 2.2-1.4 4.2-3.6 4.5l-71.5 8.5c-2.3.3-4.2-1.4-4.5-3.5l-8.2-69.2-69.2 8.2c-2.2.3-4.2-1.3-4.5-3.5zm66.3 4.7l7.2 60.8c.8 6.8 7 11.7 13.9 10.9l71.5-8.5c6.9-.8 11.8-7.1 11-13.9l-7.2-60.8 60.7-7.2c6.9-.8 11.7-7 10.9-13.9l-8.5-71.5c-.8-6.8-7-11.7-13.9-10.9l-60.7 7.2-7.2-60.7c-.8-6.9-7.1-11.7-13.9-10.9l-71.5 8.5c-6.9.8-11.7 7-10.9 13.9l7.2 60.7-60.8 7.2c-6.8.8-11.7 7.1-10.9 13.9l8.5 71.5c.8 6.9 7.1 11.7 13.9 10.9l60.7-7.2z"/>
      <path d="M1531.8 1134.7c0 .4-.4.9-1 1l-31.1 3.7c-.5.1-1.1-.3-1.1-.7l-2.7-23c0-.1 0-.3.5-1.2.7-1.2 1.6-2.4 2.5-3.6l10.7-14.3c.1-.3.4-.4.6-.4.2 0 .4 0 .8.1l16.1 13.4c1.2 1 1.9 1.7 1.9 2.1l2.8 22.9zm-15.5-44.9a9.47 9.47 0 0 0-6.8-2.2c-2.3.4-4.7 1.5-6.4 3.7l-10.9 14.5c-1.1 1.4-2.2 2.9-3.1 4.4-1 1.7-1.9 3.7-1.6 6.4l2.7 23c.6 5.1 5.3 8.7 10.5 8.1l31.1-3.7c5.2-.6 9-5.2 8.4-10.3l-2.7-23c-.5-3.8-3.4-6.2-4.9-7.6l-16.3-13.3zM1482.3 1002c-.1-.5.4-.9.9-1l31.1-3.7c.6-.1 1.1.2 1.2.7l2.7 23c0 .3-.5 1.2-1.4 2.5l-12.5 16.8c-.3.1-.6.2-.7.3a.9.9 0 0 1-.7-.3l-13.7-11.4c-1.2-.9-2.3-1.8-3.3-2.9-.7-.7-.8-.8-.8-.9l-2.8-23.1zm1.5 33.4l14 11.6c2.1 1.6 4.8 2.2 7.1 2a9.6 9.6 0 0 0 6.1-3.7l12.6-16.8c1.2-1.7 3.4-4.7 3-8.5l-2.7-23c-.6-5.1-5.4-8.7-10.5-8.1l-31.1 3.7c-5.2.6-8.9 5.2-8.3 10.3l2.7 23a9.1 9.1 0 0 0 3.1 5.7c1.2 1.5 2.6 2.6 4 3.8zM1535.4 1063.9l10.9-13.2c1-1.2 1.9-2.3 3-3.4.7-.6.9-.7.9-.7l23-2.7c.4 0 .9.3 1 .9l3.7 31.1c.1.6-.3 1.1-.7 1.1l-23 2.7c-.3 0-1.1-.4-2.4-1.3l-17.2-13.1c-.1-.2.1-.5.8-1.4zm-9.2 2.6a9.2 9.2 0 0 0 3.7 6.1l16.8 12.6c1.5 1.1 4.6 3.4 8.5 2.9l23-2.7c5.1-.6 8.7-5.3 8.1-10.5l-3.7-31.1c-.6-5.2-5.2-8.9-10.3-8.3l-23 2.7c-2.6.3-4.4 1.7-5.8 3a35.9 35.9 0 0 0-3.7 4.2l-11.6 14a9.6 9.6 0 0 0-2 7.1zM1436.2 1061.2c-.1-.6.2-1 .6-1.1l23-2.7c.1 0 .3 0 1.2.5 1.3.7 2.5 1.6 3.6 2.5l14.3 10.7c.3.3.5.5.3 1.4l-13.4 16.1c-1 1.2-1.7 1.8-2.1 1.9l-23 2.7c-.4 0-.8-.3-.9-.9l-3.6-31.1zm5.6 40.4l23-2.7c3.9-.5 6.4-3.4 7.6-4.8l13.4-16.2c1.6-2 2.5-4.4 2.2-6.8-.2-2.5-1.5-4.8-3.6-6.4l-14.5-10.9c-1.5-1.1-3-2.3-4.5-3.1-1.6-1-3.7-1.9-6.4-1.6l-23 2.7c-5 .6-8.6 5.3-8 10.5l3.7 31.1c.5 5.1 5.1 8.8 10.1 8.2zM1493.9 958.2l-8.3 23.1 21.8-2.6zM1520.2 1178.9l8.3-23.2-21.9 2.6zM1594.2 1047.1l2.6 21.8 20.6-13.5zM1999.4 974.8c-.2-2.1 1.1-3.9 2.9-4.2l73.5-8.7-8.4-70.7c-.2-2.1 1-4 2.9-4.2l65.6-7.8c1.8-.2 3.6 1.4 3.8 3.5l8.4 70.7 73.5-8.7c1.8-.2 3.5 1.3 3.8 3.4l8.2 69.4c.2 2.1-1.1 3.9-2.9 4.2l-73.5 8.7 8.4 70.7c.2 2.1-1.1 3.9-2.9 4.2l-65.6 7.8c-1.8.2-3.5-1.3-3.8-3.4l-8.4-70.7-73.5 8.7c-1.8.2-3.5-1.3-3.8-3.4l-8.2-69.5zm13.1 81.1l65.1-7.7 7.4 62.3c.8 6.7 6.7 11.5 13.2 10.7l65.6-7.8c6.4-.8 11.1-6.8 10.3-13.5l-7.4-62.3 65.1-7.7c6.4-.8 11.1-6.8 10.3-13.5l-8.2-69.4c-.8-6.7-6.7-11.5-13.2-10.7l-65.1 7.7-7.4-62.3c-.8-6.7-6.7-11.6-13.2-10.8l-65.6 7.8c-6.4.8-11.1 6.9-10.3 13.6l7.4 62.3-65.1 7.7c-6.4.8-11.1 6.8-10.3 13.5l8.2 69.4c.8 6.7 6.7 11.5 13.2 10.7z"/>
      <path d="M2104.9 900.4c11.5-1.4 22 6.9 23.4 18.4 1.4 11.5-6.9 22-18.4 23.4a21.1 21.1 0 0 1-23.4-18.4 21.1 21.1 0 0 1 18.4-23.4zm6 50.2a29.56 29.56 0 0 0 25.8-32.8 29.56 29.56 0 0 0-32.8-25.8 29.56 29.56 0 0 0-25.8 32.8 29.49 29.49 0 0 0 32.8 25.8zM2122.7 1050c11.5-1.4 22 6.9 23.4 18.4 1.4 11.5-6.9 22-18.4 23.4a21.1 21.1 0 0 1-23.4-18.4 21.1 21.1 0 0 1 18.4-23.4zm5.9 50.2a29.56 29.56 0 0 0 25.8-32.8 29.56 29.56 0 0 0-32.8-25.8c-16.1 1.9-27.7 16.6-25.8 32.8s16.7 27.7 32.8 25.8zM2188.4 966.3c11.5-1.4 22 6.9 23.4 18.4 1.4 11.5-6.9 22-18.4 23.4a21.1 21.1 0 0 1-23.4-18.4 21.1 21.1 0 0 1 18.4-23.4zm6 50.2c16.1-1.9 27.7-16.6 25.8-32.8s-16.6-27.7-32.8-25.8a29.56 29.56 0 0 0-25.8 32.8 29.42 29.42 0 0 0 32.8 25.8zM2038.8 984.1c11.5-1.4 22 6.9 23.4 18.4 1.4 11.5-6.9 22-18.4 23.4a21.1 21.1 0 0 1-23.4-18.4 21.1 21.1 0 0 1 18.4-23.4zm6 50.2c16.1-1.9 27.7-16.6 25.8-32.8s-16.6-27.7-32.8-25.8a29.56 29.56 0 0 0-25.8 32.8 29.49 29.49 0 0 0 32.8 25.8zM1994.1 1267.2a64.41 64.41 0 0 1-71.5-56.3 64.4 64.4 0 0 1 56.3-71.5c35.2-4.2 67.3 21.1 71.5 56.3 4.2 35.2-21.1 67.3-56.3 71.5zm-16.2-136.3c-39.9 4.7-68.4 41-63.7 80.9s41 68.4 80.9 63.7c39.8-4.7 68.4-41 63.7-80.9s-41-68.4-80.9-63.7zM1689.5 1303.4c-35.2 4.2-67.3-21.1-71.5-56.3-4.2-35.2 21.1-67.3 56.3-71.5 35.3-4.2 67.4 21.1 71.6 56.3 4.2 35.2-21 67.3-56.4 71.5zm-16.1-136.2c-39.8 4.7-68.4 41-63.7 80.9s41.1 68.4 80.9 63.7c39.9-4.7 68.5-41 63.8-80.9s-41.1-68.4-81-63.7z"/>
      <path d="M2359.8 1297.2c.6 7.6.8 15 .4 22.3-1.1 22.5-5.8 40.1-14.3 54-9.9 15.9-27.6 30.5-46.4 38.1-1.5.7-3.2 1.2-4.7 1.7-17 5.6-38.7 4-54.1 1.8-27.9-4.2-53.8-20-73-44.4-8.4-10.8-16.6-22-24.5-33-4.8-6.5-9.5-13-14.4-19.6-1.2-1.5-2.3-3-3.5-4.5-3-3.9-5.9-7.6-8.2-11.7l-31.8-46.5c10.1-19.3 14.6-41.7 11.9-64.8-1.2-10.1-3.7-19.8-7.5-28.9a170 170 0 0 0 45.7.9c82.9-9.9 144.6-79 147.7-159.9.5 2 1.1 3.9 1.6 5.9 2 7.1 4.1 14.3 6 21.5 8.5 31 14.3 53.1 20.4 76.5l4.1 16c8.6 33 15.8 59.7 22.6 84.1 2.1 7.5 4.3 14.9 6.6 22.4 5.9 19.2 11.9 39.1 14.4 59 .4 3 .8 6 1 9.1zm-7.3-70.6c-2.2-7.4-4.5-14.7-6.5-22.1-6.8-24.4-14-51-22.5-84l-4.1-16c-6.1-23.5-11.9-45.7-20.4-76.7l-6-21.6c-2.8-9.9-5.6-19.7-8.3-29.7-.9-3.2-1.6-6.4-2.4-9.6-1.9-7.6-3.8-15.4-6.6-23.1-1.7-4.6-3.6-9.2-5.9-13.6a167.3 167.3 0 0 0-84.4-86.5c-.7-1.9-1.6-3.8-2.5-5.8-2.1-4.9-4.4-10.1-6-14.4-7-17.5-9.5-21.7-13.6-25.5-6.9-6.5-14.4-8.2-24.8-10.5-17.4-3.9-35.7-2-51.8-.5-14.7 1.5-33.9 4.2-51.4 12.8-9.6 4.6-16.5 8.1-21.7 16-3.1 4.7-4.5 9.4-7.2 28-.7 5.4-1.3 10.9-2 16.3l-.2 1.8c-.2 2.2-.3 4.7-.4 7.1 0 .8-.1 1.6-.1 2.4-5.7 5.3-11.2 10.8-16.2 16.9l-21.6 3-336.9 40-21.7 2.2c-6.2-4.7-12.8-8.8-19.7-12.6-.2-.7-.4-1.5-.6-2.3-.7-2.3-1.3-4.7-2.1-6.8l-.6-1.7c-1.9-5.1-3.8-10.2-5.7-15.4-7-17.5-9.5-21.7-13.6-25.5-6.9-6.5-14.4-8.2-24.8-10.5-19.1-4.3-38.4-2.4-53-.4-16 2.3-34.2 4.8-50.3 12.7-9.6 4.6-16.5 8.1-21.7 16-3 4.7-4.5 9.4-7.2 28-.6 4.6-1.6 10.1-2.5 15.4-.3 2.2-.8 4.2-1 6.2a167.1 167.1 0 0 0-61.7 103.9c-1.1 4.8-1.9 9.6-2.5 14.6-1 8.1-1 16.2-1.1 24 0 3.3 0 6.6-.1 9.9-.2 10.3-.7 20.5-1.1 30.8-.3 7.5-.6 14.9-.8 22.4-1 32.1-1.4 55.1-1.9 79.3l-.2 16.5c-.6 34-1.3 61.6-2.2 86.9-.3 7.7-.7 15.4-1.2 23.1-1.2 20.4-2.4 41.5-.2 62.1.4 3.2.8 6.4 1.3 9.4 1.2 7.9 3 15.6 5.1 23.1 6.6 22.9 16 40 28.6 52.5 14.5 14.3 37 25.3 58.6 28.6 1.9.3 3.8.5 5.7.6 5.2.5 10.7.3 16.2-.4 14.6-1.7 29.4-6.6 40.5-11.2 28.2-11.4 51.2-34.3 65-64.6 5.7-12.6 11.1-25.5 16.3-38.1 3.1-7.4 6.2-14.9 9.4-22.3.7-1.7 1.5-3.3 2.2-5 2.1-4.6 4.2-9.3 5.6-14.1l18.4-48.5c23.4 22.5 56.2 34.8 90.9 30.7 51.4-6.1 90.5-46.2 97.4-95.2l89.7-10.7c18.2 46 65.6 75.8 117 69.7 34.6-4.1 63.7-23.8 81.2-51.1l29.3 42.9c2.5 4.3 5.7 8.4 8.8 12.4 1.1 1.5 2.2 2.9 3.3 4.4l14.4 19.5c8 11 16.2 22.3 24.7 33.2 20.5 26.2 48.3 43.1 78.4 47.5 11.8 1.8 27.4 3.1 42 1.4 5.5-.7 10.9-1.7 15.9-3.4 1.8-.6 3.6-1.2 5.4-1.9 20.2-8.3 39.6-24.2 50.3-41.5 9.4-15.1 14.5-34 15.5-57.8a188.12 188.12 0 0 0-1.4-33.2c-2.6-20.6-8.7-40.8-14.7-60.4zm-340.1-363.7l.2-1.9c.6-5.3 1.3-10.7 2-15.9 2.5-18 3.8-21.5 5.8-24.6 4-6 9.3-8.7 18.4-13 14.1-6.9 29.6-9.7 42.5-11.2l6-.7c15.4-1.5 33.1-3.2 49.2.4 9.8 2.1 15.7 3.5 20.9 8.4 2.6 2.4 4.6 5.1 11.5 22.6 1.5 3.6 3.3 8.1 5.2 12.4-24.2-9.1-50.9-12.7-78.3-9.4-31.5 3.7-60 16-83.4 34.4v-1.5zm-20.6 33.1c1.3-1.5 2.5-3 3.9-4.5 3.5-4.1 7.2-7.9 11.1-11.5 1.6-1.5 3.3-3 5-4.6 23.3-19.9 52.4-33.5 85-37.3a158.03 158.03 0 0 1 87.7 14.7c7.5 3.5 14.7 7.8 21.4 12.5.6.4 1.4.9 1.9 1.3 23.5 16.8 42.4 39.8 54 67.1 5.9 13.6 9.9 28.4 11.7 43.8 10.4 87.2-52.1 166.5-139.3 176.8-16.7 2-33.2 1.3-48.9-1.8-18.6-35.6-55.5-59.4-96.8-60.2a158.97 158.97 0 0 1-31.2-77.3c-5.1-44.3 8.4-86.7 34.5-119zm-575.4 20.2c2.6-18.6 4-21.7 5.9-24.6 3.9-6 9.3-8.7 18.3-13 14.8-7.2 32.4-9.7 47.7-11.9l6-.7c13-1.5 28.7-2.4 44 1 9.8 2.1 15.7 3.5 20.9 8.4 2.7 2.6 4.7 5.6 11.4 22.6 1.9 4.9 3.8 10 5.7 15l.6 1.8c.1.3.3.7.3 1.2a165.4 165.4 0 0 0-89.1-13.9c-27.4 3.3-52.5 13-73.9 27.5.8-4.8 1.6-9.5 2.2-13.4zm-65.4 125.6c4.9-29.2 17.9-56 36.8-77.9.4-.6 1.1-1.1 1.6-1.7 5.5-6.2 11.5-12 17.9-17.1 1.5-1.4 3.2-2.7 4.9-3.9 21.7-16.4 48-27.5 76.9-31 32.6-3.9 64.1 2.5 91.4 16.4 2 1.1 4 2.2 5.9 3.3 4.6 2.6 9.1 5.4 13.5 8.6 1.7 1.2 3.2 2.3 4.8 3.5 33 25.3 56.1 63.3 61.3 107.6 3.5 29.1-1.2 57.3-12.2 82.4-40 10.4-70.3 42.2-80 81.2-14.6 6.7-30.4 11.2-47.1 13.2-87.2 10.4-166.5-52.1-176.8-139.3-1.9-15.4-1.4-30.6 1.1-45.3zm227.1 324.2c-1.3 4.5-3.2 8.8-5.2 13.3-.8 1.8-1.5 3.5-2.4 5.2-3.2 7.5-6.3 15-9.4 22.4-5.1 12.5-10.5 25.3-16.1 37.8-12.9 28.3-34.4 49.7-60.5 60.3-14.4 5.8-35.2 12.4-53 11-1.6-.1-3.3-.3-5-.6-20-3-40.7-13.1-54-26.2-11.6-11.5-20.2-27.5-26.5-49.1-2-7.1-3.7-14.3-4.8-21.8-.5-3.1-.9-6.1-1.3-9.1-2.2-19.9-1-40.6.2-60.7.5-7.8 1-15.6 1.2-23.3.9-25.3 1.6-53 2.2-87.1l.2-16.5c.4-24.2.9-47 1.9-79.1.2-7.5.5-14.9.8-22.3.1-2 .2-4.1.2-6.1 22 78 98.2 130.7 181.1 120.9 15.6-1.8 30.4-5.8 44.2-11.5-1.6 9.7-1.7 19.7-.5 29.8a110.4 110.4 0 0 0 26.8 60.2l-20.1 52.5zm207.1-117.9c-.5 7-1.7 13.9-3.7 20.5-.1.3-.3.6-.3 1-13.2 38.2-47.2 67.6-90.1 72.7-4.9.6-9.6.8-14.3.8-26.6-1.4-51.1-13.1-68.8-31.5-.2-.1-.4-.3-.5-.5-14.8-15.6-25-35.9-27.7-58.9-1.3-11.3-.8-22.4 1.4-33 .4-1.8.8-3.6 1.3-5.3.5-1.9 1-3.9 1.7-5.7 9.9-30.5 33.7-55.2 64.7-65.7 1.9-.7 3.7-1.3 5.7-1.9h.1c1.7-.5 3.5-.9 5.2-1.3 3.4-.7 6.8-1.3 10.2-1.7 56.6-6.7 108.1 33.8 114.8 90.3.8 6.8.9 13.5.3 20.2zm94.4-11.2l-85.8 10.2c.4-6.7.3-13.4-.5-20.3-7.3-61.2-63-105-124.1-97.7-1.8.2-3.4.4-5.2.8 9.9-25 13.9-52.7 10.5-81.3-5.2-43.6-26.7-81.3-57.8-107.7l13.2-1.2 337-40 13.1-1.9c-24 33-36.1 74.6-30.9 118.2a166.7 166.7 0 0 0 29.3 76.5c-1.8 0-3.5.2-5.2.5-61.2 7.3-105 62.9-97.8 124.1.8 6.8 2.3 13.4 4.2 19.8zm196.1 18.5c-.1.2-.2.4-.4.6-12.9 22.1-34 39.2-59.5 46.8-4.6 1.1-9.3 2-14.1 2.6-42.9 5.1-82.9-15.4-104.7-49.5-.1-.3-.3-.6-.5-.9a105.4 105.4 0 0 1-12.8-38.9c-6.7-56.5 33.8-108 90.4-114.7 3.4-.4 6.9-.6 10.4-.7h5.5c2 .1 4 .2 6 .5 32.6 3 61.5 21.5 78.3 48.7 1.1 1.6 2.1 3.4 3 5.2 1 1.6 1.7 3.2 2.5 4.9 4.6 9.8 7.8 20.5 9.1 31.8 2.7 22.9-2.4 45-13.2 63.6zM1732.9 454.3c177 46.2 355.3 90.4 532.3 136.6l34.2 8.7c6.2 1.6 12.9 1.2 18.6-1.6 4.7-2.3 9.3-6.2 11.4-13.2 4.4-14.2 5.9-20.9 5.9-20.9 29.4-118.3 58.7-236.6 88.1-355 0 0 3.1-13.5 4.6-19.2 1.3-5.1.5-10.1-1.1-12.3-4.8-6.5-17.9-9.8-17.9-9.8l-33.4-8.5c-177-46.2-434.1-110.5-611.1-156.7 0 0-11.7-3.9-16.4-1.1s-7.4 11.2-7.4 11.2l-7.6 29.3c-31.1 121.9-62.2 243.8-93.3 365.8 0 0-4.5 19.5 12.9 25.9 17.5 6.5 80.2 20.8 80.2 20.8z"/>
      <path d="M1732.2 458c182.9 47.7 366.2 94.2 549.4 141 22.9 5.8 44.8 9.1 53.1-18.4 11.9-39.6 20.4-80.5 30.4-120.7 12-48.5 24.1-97 36.1-145.5 10.1-40.9 23.8-82.3 30.6-123.9 3.7-22.7-20.3-26-37.1-30.3-28.8-7.3-57.5-14.9-86.3-22.3-80.7-20.8-161.6-41.4-242.4-62-79.7-20.3-159.4-40.6-239.1-61.1-17.8-4.6-35.6-9.2-53.3-13.8-8.7-2.3-20.6-7.6-28.7-1.6-6.2 4.7-7.8 13-9.7 20.1l-9.3 36.2-74.1 290.3c-5.2 20.3-12.8 41.3-15.8 62.1-1.1 7.8.3 16.3 5.6 22.4 6.5 7.5 18.2 9.4 27.3 12 13.6 3.8 27.3 7.1 41 10.4 7.4 1.7 14.8 3.4 22.3 5.1 4.7 1.1 6.1-6.3 1.4-7.4-19.1-4.4-38.1-8.9-57.1-14-10.8-2.9-28.6-5-32.5-17.3-4.4-13.9 5.2-32.9 8.5-45.9 22.2-87.1 44.4-174.2 66.7-261.3 8-31.3 15.4-62.8 24-93.8.6-2.3.9-5.3 2.3-7.3 6.5-10 14.3-6 22.5-3.8 16.9 4.5 33.9 8.8 50.8 13.2 71.1 18.4 142.2 36.5 213.4 54.6 74.1 18.9 148.2 37.7 222.2 56.7 51.3 13.2 104 24 154.5 39.8 9.1 2.9 16.1 6.5 15.4 17.5-.4 6-3 12.6-4.4 18.4-5.2 21.6-10.7 43.2-16.1 64.8l-31.8 128c-11.1 44.6-22.2 89.2-33.2 133.8-3.4 13.6-6.4 27.3-10.3 40.8-4.4 14.7-11.8 24.1-28.4 21.1-3.9-.7-7.7-2-11.5-2.9-185-47.3-370.2-94.2-555-142.4-4.7-1.2-6.1 6.2-1.4 7.4z"/>
      <path d="M2349.8 197.5c-6.9-3.3-211.7-54.3-266.6-67.9-54.8-14.3-259-67.4-266.7-67.8-8.8-.5-11.3 7-11.3 7-20.7 82.3-39.3 157.2-60 239.6-.6 2.4-3.2 12.5-1.9 14.6 1.1 1.8 3.2 2.6 5.2 3.2 5.7 1.9 14.6 5 25.1 7.7l240.1 61.2 3.4.9 248.1 63.1c5.9 1 11.8 2 17.8 3.1 2.1.4 4.3.7 6.1-.3 2.2-1.2 3-3.9 3.6-6.3 21.2-82.2 41.4-165 62.5-247.1.2-.1 2.6-7.2-5.4-11z"/>
      <path d="M2351.5 194.1c-13.5-5.8-29.2-8.2-43.4-11.8-30.5-7.9-61-15.6-91.6-23.3-52.3-13.1-104.6-25.9-156.8-39.4-61.2-15.9-122.3-31.8-183.6-47.3-18.4-4.7-37.6-11.4-56.5-13.8-7.1-.9-13.4.9-17.2 7.4-4.9 8.5-5.8 21.7-8.2 31.3-3.6 14.3-7.1 28.5-10.7 42.8-14 55.9-28.7 111.6-41.9 167.6-3.2 13.5-3.7 18.8 10.3 23.6 8.2 2.8 16.5 5.2 24.8 7.3 45.1 11.6 90.2 23 135.4 34.5 73.7 18.8 147.5 37.6 221.2 56.3 42.9 10.9 85.7 22.9 128.9 32.8 7.9 1.8 20.7 7.1 28.4 3.2 6-3 6.8-12.2 8.3-17.7 3.7-14.3 7.3-28.7 11-43.1 14.3-56.5 28.3-113.1 42.7-169.6 3.2-12.6 13.6-31-.2-40.3-4-2.7-9 3-4.9 5.7 9.5 6.4-.1 24.8-2.3 33.2l-10.2 40.2c-6.8 26.8-13.5 53.7-20.2 80.5-6.5 25.9-13 51.8-19.6 77.6-1.9 7.2-2.6 16.3-7.8 21.9-6.2 6.6-2.1 3.5-9.3 3.7-2.7.1-6.2-1-8.9-1.5-1.7-.3-3.2-.6-4.9-1-39-8.8-77.6-19.7-116.3-29.6-65.6-16.7-131.2-33.4-196.9-50.1-49-12.5-98-25-146.9-37.5-10.7-2.7-21.5-5.3-32.2-8.2-10.2-2.8-24.5-3.4-23.9-16.1.5-10.8 5.7-23 8.4-33.5 6.6-26.5 13.3-53 19.9-79.4 6.3-25.4 12.7-50.7 19-76.1 3.1-12.5 6.2-24.9 9.4-37.4 2-8.1 2.5-20.9 13-21.2 5.5-.2 12.5 2.8 17.8 4.1 10.4 2.5 20.7 5.1 31.1 7.7 58 14.6 115.8 29.6 173.7 44.6 98.4 25.6 197.6 48.5 295.7 75.1 4 1.1 8.4 1.9 12.3 3.6 4.2 1.8 7.5-4.9 3.1-6.8z"/>
      <path d="M1765.3 319.6c6.7 2.7 201.2 51.5 253.4 64.5 52.1 13.5 246.3 63.6 253.4 64.4 8.3.9 10-3.9 10-3.9 13.6-54.4 27.2-108.7 40.7-163.1.4-1.6.7-3.4-.7-4.9-1.2-1.3-3.2-2-5.1-2.6l-16.3-5.1-235.8-60-3.2-.8-235.8-60-16.8-3.3c-1.9-.4-4.1-.8-5.7-.2-1.9.7-2.5 2.4-2.9 4-14.1 54.3-28.1 108.5-42.2 162.8.1-.1-.7 5 7 8.2z"/>
      <path d="M2250.4 297.2c-9.2-24.4-36-36.9-59.7-42.4l-268-68.2c-11.4-2.9-33.1-5.4-45.2-2a68.7 68.7 0 0 0-41.6 32.8c-9 16.1-11.3 34.8-6.3 52.6 6.9 24.6 27.8 42.8 58.9 50.7l268 68.2c.5.1 1 .3 1.5.4 11.4 2.9 33.2 5.4 45.3 2a68.7 68.7 0 0 0 41.6-32.8c9-16.1 13-41.4 5.5-61.3z"/>
      <path d="M2162.8 394.6c-2.1-.4-4.1-.8-5.8-1.3-.2 0-.4-.1-.6-.2l-.9-.2-271.7-69.1v-.1c-30.5-8.7-51.1-27.3-58.2-52.5-5.3-18.8-3-38.6 6.6-55.7a72.68 72.68 0 0 1 44.1-34.7c11.6-3.3 30.6-1.5 43.1 1v-.1l4.2 1 270.1 68.7c.3.1.6.1.8.2l1.2.3c19.1 5.1 48.2 17.1 58.3 43.9 8.5 22.3 2.9 49.2-5.7 64.7a72.68 72.68 0 0 1-44.1 34.7c-11 3.2-29 1.7-41.4-.6zm-9.2-10.6l4.7 1.3c.2.1.5.1.7.2 10.7 2.7 31.7 5.2 43.2 2a64.56 64.56 0 0 0 39.2-30.9c7.8-13.9 12.8-38 5.2-57.9-9.6-25.4-39.8-35.9-56.9-39.9l-4.3-1v-.1l-263.8-67.1c-10.6-2.7-31.7-5.2-43.1-2a64.56 64.56 0 0 0-39.2 30.9 65.04 65.04 0 0 0-5.9 49.6c6.6 23.3 26.5 40.4 56 47.9l264.2 67zM1728.8 449.6c17.7-25 35.4-49.9 53.2-74.9 2.9-4.1 5.9-8.3 10-11.2 10.8-7.7 34-1.7 46.8 2 9.2 2.7 60.5 15.9 69.7 18.5l196.4 50c9.4 2.1 60.7 15 70.1 17 13 2.9 36.2 8.7 42.1 20.6 2.2 4.5 2.8 9.6 3.4 14.6 3.6 30.4 7.3 60.8 10.9 91.2"/>
      <path d="M1731.7 452.1c11.1-15.6 22.2-31.2 33.2-46.8 5.5-7.8 11.1-15.6 16.6-23.4 8.4-11.7 14.9-19.2 30.4-18.1 19.7 1.5 40.2 9.3 59.3 14.3 23.7 6.2 47.4 12.5 71.1 18.5 59.6 15.2 119.2 30.7 179 45.3 22.2 5.4 45.1 9.8 67 16.5 7.4 2.3 17 5.1 22.4 11.1 8.3 9.3 7.3 28 8.7 39.9 2.7 22.8 5.5 45.6 8.2 68.4.6 4.8 8.1 4.2 7.5-.6l-7.5-62.7c-1.7-14.2-.3-36.4-9.8-48.3-12.8-16.2-40.5-18.3-59.4-22.9-27.7-6.8-55.4-13.5-83-20.6-66.5-16.9-133-33.7-199.4-51.1-22.6-5.9-51.6-18.8-75.1-15.1-15.7 2.4-23.3 18-31.7 29.8l-43.2 60.9c-2.8 3.9 2.9 8.9 5.7 4.9z"/>
      <path d="M2014.5 222h51.7v131.9h-51.7z" transform="rotate(-75.72 2040.38 288)"/>
      <path d="M2099.3 331.7l-131.7-33.5 13.7-53.9 131.7 33.5-13.7 53.9zm-126.9-36.4l124 31.6 11.8-46.3-124-31.6-11.8 46.3zM1822.1 445.6c-1.8 7.2-9.2 11.6-16.4 9.8-7.2-1.8-11.6-9.2-9.8-16.4 1.8-7.2 9.2-11.6 16.4-9.8a13.4 13.4 0 0 1 9.8 16.4z"/>
      <path d="M1806.3 456.9c-.3-.1-.6-.1-.9-.2-7.9-2-12.8-10.1-10.7-18.1 2-7.9 10.2-12.7 18.1-10.7a14.85 14.85 0 0 1 10.7 18.1c-1 3.8-3.4 7.1-6.8 9.1-3.2 1.8-6.9 2.5-10.4 1.8zm5-26.6a12.2 12.2 0 0 0-14.1 9c-1.7 6.5 2.3 13.2 8.8 14.8a12.15 12.15 0 0 0 14.8-8.8 12.15 12.15 0 0 0-8.8-14.8c-.2-.1-.5-.2-.7-.2zM1870.3 447.7l-14.2-3.6c-3-.8-4.8-3.8-4-6.8l3.6-14.2c.8-3 3.8-4.8 6.8-4l14.2 3.6c3 .8 4.8 3.8 4 6.8l-3.6 14.2c-.7 3-3.8 4.8-6.8 4z"/>
      <path d="M1870.4 449.1c-.1 0-.3-.1-.4-.1l-14.2-3.6c-3.7-.9-5.9-4.7-5-8.4l3.6-14.2c.9-3.7 4.8-5.9 8.4-5l14.2 3.6c1.8.5 3.3 1.6 4.2 3.2.9 1.6 1.2 3.4.8 5.2l-3.6 14.2a6.8 6.8 0 0 1-3.2 4.2c-1.4.9-3.1 1.2-4.8.9zm-8.5-28.8c-2.2-.4-4.3.9-4.9 3.1l-3.6 14.2c-.6 2.3.8 4.6 3.1 5.2l14.2 3.6c1.1.3 2.2.1 3.2-.5s1.7-1.5 1.9-2.6l3.6-14.2c.3-1.1.1-2.2-.5-3.2s-1.5-1.7-2.6-1.9l-14.2-3.6c0-.1-.1-.1-.2-.1zM2153 529.8c-1.8 7.2 2.5 14.6 9.8 16.4 7.2 1.8 14.6-2.5 16.4-9.8 1.8-7.2-2.5-14.6-9.8-16.4-7.2-1.8-14.6 2.6-16.4 9.8z"/>
      <path d="M2163.3 547.7c-.3-.1-.6-.1-.9-.2a14.85 14.85 0 0 1-10.7-18.1 14.85 14.85 0 0 1 18.1-10.7c7.9 2 12.8 10.1 10.7 18.1-1.9 7.7-9.5 12.4-17.2 10.9zm5.1-26.5c-2.9-.6-5.9 0-8.5 1.5-2.8 1.7-4.8 4.3-5.6 7.5a12.15 12.15 0 0 0 8.8 14.8c6.5 1.7 13.2-2.3 14.8-8.8 1.7-6.5-2.3-13.2-8.8-14.8-.2-.1-.5-.2-.7-.2zM2109.6 508.6l14.2 3.6c3 .8 6-1.1 6.8-4l3.6-14.2c.8-3-1.1-6-4-6.8l-14.2-3.6c-3-.8-6 1.1-6.8 4l-3.6 14.2c-.7 3 1.1 6.1 4 6.8z"/>
      <path d="M2124 513.6c-.1 0-.3-.1-.4-.1l-14.2-3.6c-3.7-.9-5.9-4.7-5-8.4l3.6-14.2a6.8 6.8 0 0 1 3.2-4.2c1.6-.9 3.4-1.2 5.2-.8l14.2 3.6c3.7.9 5.9 4.7 5 8.4l-3.6 14.2c-1 3.6-4.5 5.8-8 5.1zm-8.6-28.8c-1-.2-2.1 0-3 .5-1 .6-1.7 1.5-1.9 2.6l-3.6 14.2c-.3 1.1-.1 2.2.5 3.2s1.5 1.7 2.6 1.9l14.2 3.6c2.3.6 4.6-.8 5.2-3.1l3.6-14.2c.6-2.3-.8-4.6-3.1-5.2l-14.2-3.6c-.1.2-.2.1-.3.1zM2013 441.3a13.4 13.4 0 0 1-16.3 9.7c-7.2-1.8-11.5-9.1-9.7-16.3s9.1-11.5 16.3-9.7a13.4 13.4 0 0 1 9.7 16.3z"/>
      <path d="M1997.3 452.5c-.3-.1-.6-.1-.9-.2-3.8-1-7.1-3.4-9.1-6.8s-2.6-7.4-1.6-11.2c2-7.9 10.1-12.8 18-10.7 7.9 2 12.7 10.1 10.7 18-1.9 7.6-9.5 12.4-17.1 10.9zm5-26.2a11.94 11.94 0 0 0-5.2 23.3 11.9 11.9 0 0 0 14.5-8.6 11.9 11.9 0 0 0-8.6-14.5c-.2-.1-.5-.2-.7-.2z"/>
      <path d="M1992.2 444c-.4-.1-.8-.3-1.1-.7-.4-.7-.2-1.7.6-2.2l15.2-9c.7-.4 1.7-.2 2.2.5.4.7.2 1.7-.6 2.2l-15.2 9c-.3.2-.7.3-1.1.2z"/>
      <path d="M2004.3 447.1c-.4-.1-.8-.3-1.1-.7l-9-15.2c-.4-.7-.2-1.7.6-2.2.7-.4 1.7-.2 2.2.5l9 15.2c.4.7.2 1.7-.6 2.2-.4.2-.8.3-1.1.2zM1690.4 399.6a13.3 13.3 0 0 1-4.7 18.3 13.3 13.3 0 0 1-18.3-4.7 13.3 13.3 0 0 1 4.7-18.3c6.4-3.8 14.6-1.7 18.3 4.7z"/>
      <path d="M1676.2 421c-4-.8-7.7-3.2-10-7-4.2-7-1.9-16.1 5.2-20.3 7-4.2 16.1-1.9 20.3 5.2 4.2 7 1.9 16.2-5.2 20.3-3.2 1.9-6.9 2.4-10.3 1.8zm5-26.3c-2.9-.5-5.8 0-8.3 1.5-5.6 3.4-7.5 10.7-4.2 16.3a12 12 0 0 0 16.3 4.2 11.9 11.9 0 0 0 4.1-16.3c-1.6-2.7-4.2-4.7-7.3-5.5-.2-.1-.4-.2-.6-.2z"/>
      <path d="M1676.5 416.5s-.1 0 0 0c-.9-.2-1.5-1.1-1.2-1.9l4.3-17.1c.2-.8 1.1-1.4 1.9-1.1.8.2 1.4 1.1 1.1 1.9l-4.3 17.1c-.2.7-1 1.2-1.8 1.1z"/>
      <path d="M1687.2 410.1s-.1 0 0 0l-17.2-4.4c-.8-.2-1.4-1.1-1.1-1.9.2-.8 1.1-1.4 1.9-1.1l17.1 4.3c.8.2 1.4 1.1 1.1 1.9-.2.9-1 1.4-1.8 1.2zM2312.7 567.7a13.4 13.4 0 0 1-16.3 9.7 13.4 13.4 0 0 1-9.7-16.3 13.4 13.4 0 0 1 16.3-9.7 13.4 13.4 0 0 1 9.7 16.3z"/>
      <path d="M2297 578.9c-.3-.1-.6-.1-.9-.2-7.9-2-12.7-10.1-10.7-18 1-3.8 3.4-7.1 6.8-9.1s7.4-2.6 11.2-1.6c7.9 2 12.7 10.1 10.7 18-1 3.8-3.4 7.1-6.8 9.1-3.1 1.9-6.8 2.5-10.3 1.8zm5-26.2a12.01 12.01 0 0 0-13.8 8.8c-1.6 6.4 2.2 12.8 8.6 14.5a11.96 11.96 0 0 0 14.5-8.6c1.6-6.4-2.2-12.8-8.6-14.5-.3-.1-.5-.2-.7-.2z"/>
      <path d="M2291.9 570.4c-.4-.1-.8-.3-1.1-.7-.4-.7-.2-1.7.6-2.2l15.2-9c.7-.4 1.7-.2 2.2.6.4.7.2 1.7-.6 2.2l-15.2 9c-.4.1-.8.2-1.1.1z"/>
      <path d="M2303.9 573.5c-.4-.1-.8-.3-1.1-.7l-9-15.2c-.4-.7-.2-1.7.6-2.2.8-.4 1.7-.2 2.2.5l9 15.2c.4.7.2 1.7-.6 2.2-.3.2-.7.3-1.1.2zM1777.3 20a13.4 13.4 0 0 1 9.7 16.3 13.4 13.4 0 0 1-16.3 9.7 13.4 13.4 0 0 1-9.7-16.3c1.9-7.2 9.1-11.6 16.3-9.7z"/>
      <path d="M1771.2 47.5c-.3-.1-.6-.1-.9-.2-7.9-2-12.7-10.1-10.7-18s10.1-12.8 18-10.7c3.8 1 7.1 3.4 9.1 6.8s2.6 7.4 1.6 11.2c-1.9 7.6-9.4 12.3-17.1 10.9zm5-26.3c-6.1-1.2-12.2 2.6-13.8 8.8a11.9 11.9 0 0 0 8.6 14.5c6.3 1.6 12.9-2.2 14.5-8.6a11.96 11.96 0 0 0-8.6-14.5c-.2-.1-.5-.1-.7-.2z"/>
      <path d="M1778.2 42c-.4-.1-.8-.3-1.1-.7l-9-15.2c-.4-.7-.2-1.7.6-2.2.7-.4 1.7-.2 2.2.6l9 15.2c.4.7.2 1.7-.6 2.2-.3.2-.7.2-1.1.1z"/>
      <path d="M1766.1 39c-.4-.1-.8-.3-1.1-.7-.4-.7-.2-1.7.6-2.2l15.2-9c.7-.4 1.7-.2 2.2.5.4.7.2 1.7-.6 2.2l-15.2 9c-.3.2-.7.2-1.1.2z"/>
      <ellipse cx="2394.8" cy="190.9" rx="13.4" ry="13.4" transform="rotate(-77.89 2394.82 190.93)"/>
      <path d="M2392 205.4c-4-.8-7.7-3.2-10-7-4.2-7-1.9-16.1 5.2-20.3 7-4.2 16.1-1.9 20.3 5.2 4.2 7 1.9 16.2-5.2 20.3-3.2 2-6.9 2.5-10.3 1.8zm5-26.2c-2.9-.5-5.8 0-8.3 1.5-5.6 3.4-7.5 10.7-4.2 16.3 3.4 5.6 10.7 7.5 16.3 4.2a11.9 11.9 0 0 0 4.1-16.3c-1.6-2.7-4.2-4.7-7.3-5.5-.1-.1-.4-.2-.6-.2z"/>
      <path d="M2392.3 201s-.1 0 0 0c-.9-.2-1.5-1.1-1.2-1.9l4.3-17.1c.2-.8 1.1-1.4 1.9-1.1.8.2 1.4 1.1 1.1 1.9l-4.3 17.1c-.2.7-1 1.2-1.8 1.1z"/>
      <path d="M2403 194.6l-17.2-4.4c-.8-.2-1.4-1.1-1.1-1.9.2-.8 1.1-1.4 1.9-1.1l17.1 4.3c.8.2 1.4 1.1 1.1 1.9-.2.9-1 1.4-1.8 1.2zM2034.4 259.8l-51.6-13.1-12.7 50.1 51.1 13c12.6-25.4 13.6-42.7 13.2-50z"/>
      <path d="M2022.2 312.1l-54.5-13.9 13.7-53.9 54.9 14 .1 1.4c.4 8.2-.8 25.6-13.5 50.9l-.7 1.5zm-49.8-16.8l47.7 12.1c10.9-22.4 12.6-38 12.4-46.1l-48.3-12.3-11.8 46.3zM2110.7 279.2l-15.1-3.1c-3.9 7.8-13.4 23.6-12.5 49.4l14.9 3.8 12.7-50.1z"/>
      <path d="M2099.3 331.7l-18.2-4.6v-1.5c-.8-24 7.3-39.7 11.6-48.1.4-.8.8-1.6 1.2-2.3l.7-1.4 18.6 3.8-13.9 54.1zm-14.4-7.7l11.5 2.9 11.8-46.2-11.6-2.4c-.2.3-.3.6-.5 1-4 7.9-11.6 22.5-11.2 44.7zM1872 148.8c148.8 38.8 298.3 74.6 447.1 113.4 1.1.3 1.4-1.5.3-1.7-148.8-38.8-298.3-74.6-447.1-113.4-1-.3-1.4 1.4-.3 1.7zM1846.9 142.6l-34.1-8.7c-3-.8-4.8-3.8-4-6.8l8.7-34.1c.8-3 3.8-4.8 6.8-4l34.1 8.7c3 .8 4.8 3.8 4 6.8l-8.7 34.1c-.8 3-3.8 4.8-6.8 4z"/>
      <path d="M1825.3 125.9c5.2-7.9 11-15.2 16.2-23.1-1.4-.3-2.8-.5-4.2-.8 1.4 9.5 4.1 18.7 4.9 28.3.2 2.8 4.6 2.5 4.4-.4-.8-9.6-3.5-18.8-4.9-28.3-.3-2.3-3-2.6-4.2-.8-5.2 7.9-11 15.2-16.2 23.1-1.6 2.4 2.4 4.3 4 2z"/>
      <path d="M1827.2 121.2c5.1 1.1 10.1 2.3 15.1 3.8 2.7.8 3.5-3.5.8-4.3-5-1.6-10-2.7-15.1-3.8-2.7-.6-3.5 3.7-.8 4.3zM2128.6 349.9a54.13 54.13 0 0 1-.7-54.1c14.6-26 47.5-35.2 73.5-20.7 26 14.6 35.2 47.5 20.7 73.5a54.08 54.08 0 0 1-73.5 20.7 53.3 53.3 0 0 1-20-19.4z"/>
      <path d="M2174.4 280.8c-7 .1-14.1 2-20.6 5.8a41.32 41.32 0 0 0-19 25.4 41.57 41.57 0 0 0 4.5 31.4 41.54 41.54 0 0 0 56.8 14.5c19.7-11.7 26.2-37.2 14.5-56.8a41.19 41.19 0 0 0-36.2-20.3z"/>
      <path d="M2187.8 344.4h14.1v18h-14.1z" transform="rotate(-35.23 2194.67 353.42)"/>
      <path d="M2202.8 313.6h18v14.1h-18z" transform="matrix(.9958 -.09116 .09116 .9958 -20.02 202.97)"/>
      <path d="M2183 282.4h18v14.1h-18z" transform="rotate(-65.23 2192.04 289.43)"/>
      <path d="M2148.1 282.1h14.1v18h-14.1z" transform="rotate(-35.23 2154.98 291.17)"/>
      <path d="M2129.1 316.8h18v14.1h-18z" transform="matrix(.9958 -.09116 .09116 .9958 -20.62 196.25)"/>
      <path d="M2148.9 348h18v14.1h-18z" transform="rotate(-65.23 2157.97 354.93)"/>
      <path d="M1868.2 292.4a53.98 53.98 0 0 1-14.7-52c7.3-28.8 36.8-46.3 65.6-39 28.8 7.3 46.3 36.8 39 65.6-7.3 28.8-36.8 46.3-65.6 39-9.5-2.4-17.8-7.2-24.3-13.6z"/>
      <path d="M1894.5 213.8a42 42 0 0 0-18.4 10.9 41.5 41.5 0 0 0-11.8 29.5 41.3 41.3 0 0 0 12.5 29.2c16.4 16 42.7 15.6 58.7-.7 16-16.4 15.6-42.7-.7-58.7a41.65 41.65 0 0 0-40.3-10.2z"/>
      <path d="M1926 269.7h14.1v18H1926z" transform="rotate(-50.23 1933.04 278.7)"/>
      <path d="M1932 235.6h18v14.1h-18z" transform="rotate(-20.23 1941.04 242.66)"/>
      <path d="M1904.8 210.7h18v14.1h-18z" transform="rotate(-80.23 1913.76 217.68)"/>
      <path d="M1871.5 219.8h14.1v18h-14.1z" transform="rotate(-50.23 1878.59 228.83)"/>
      <path d="M1861.6 257.8h18v14.1h-18z" transform="rotate(-20.23 1870.63 264.89)"/>
      <path d="M1888.8 282.8h18v14.1h-18z" transform="rotate(-80.23 1897.8 289.77)"/>
    </g>
    <linearGradient id="SVGID_2_" x1="923.75" x2="956.57" y1="74.49" y2="312.48" gradientTransform="rotate(-9.53 606.16 793.07)" gradientUnits="userSpaceOnUse">
      <stop offset=".02" stop-color="#caa697"/>
      <stop offset=".41" stop-color="#e16686"/>
      <stop offset=".81" stop-color="#f72a76"/>
      <stop offset="1" stop-color="#ff1370"/>
    </linearGradient>
    <path fill="url(#SVGID_2_)" d="M648.7 152.9s-18.2 25.4-13 51.4c4.4 21.9 77.2 177.5 225.3 198.5s187-40.8 202.8-101c15.7-60.2-10.1-158.1-10.1-158.1s-15-82.1-109.6-79.1c-94.7 3-221.7 30.2-250.5 47.9-28.7 17.7-28.5 17.2-44.9 40.4z"/>
    <linearGradient id="SVGID_3_" x1="396.82" x2="429.64" y1="147.17" y2="385.16" gradientTransform="rotate(-9.53 606.16 793.07)" gradientUnits="userSpaceOnUse">
      <stop offset=".02" stop-color="#caa697"/>
      <stop offset=".41" stop-color="#e16686"/>
      <stop offset=".81" stop-color="#f72a76"/>
      <stop offset="1" stop-color="#ff1370"/>
    </linearGradient>
    <path fill="url(#SVGID_3_)" d="M499.4 177.9s25.5 18.1 29 44.4c3 22.2-15 193-148.1 261.2-133.1 68.2-190.1 22.5-224.7-29.3-34.5-51.8-42.1-152.8-42.1-152.8s-12.7-82.5 77.8-110.6c90.5-28.1 219.4-43.9 252.4-36.5 33 7.5 32.6 7.1 55.7 23.6z"/>
    <g>
      <path d="M956.9 410.5c-27.2 4.6-59.3 4.2-96.8-1.1C706 387.5 633.5 226.5 629.2 205.6c-5.7-28.5 13.2-55.4 14.1-56.6 16.5-23.2 17.3-24 45-41.1l1.9-1.2c30.5-18.8 159-45.9 253.8-48.9 51.7-1.6 80.6 21.4 95.8 41 15.6 20.1 20 40.5 20.5 43.3 1.7 6.5 25.8 100.9 10 161.3-6.6 25.1-19.3 61.1-54.5 84.8-16.3 11-35.9 18.4-58.9 22.3zM654.1 156.7c-.2.2-16.4 23.5-11.9 46.3 1.7 8.3 19.5 51.7 57.4 96.6 32.1 38.1 86.3 85.8 162.4 96.6 145.6 20.6 180.9-40.5 195.4-96.1 15.1-57.8-9.8-153.8-10.1-154.7l-.1-.5c-.6-3.1-15.3-76.4-102.9-73.7-97.8 3.1-221.4 31-247.2 46.9l-1.9 1.2c-25.8 15.9-25.8 15.9-41.1 37.4zM292.2 522.1c-23 3.9-43.9 3.2-62.9-1.8-41-10.9-64.8-40.8-79.2-62.4-34.6-51.9-42.7-149-43.2-155.7-.4-2.8-2.9-23.5 5.3-47.6 7.9-23.5 27.7-54.7 77.1-70.1 90.5-28.1 220.8-44.5 255.8-36.6l2.2.5c31.7 7.1 32.8 7.6 55.9 24.1 1.2.9 27.9 20.1 31.8 48.9 2.8 21.1-13.2 197-151.7 268-33.7 17.2-63.9 28.1-91.1 32.7zm15.3-351.3c-38 6.4-78.5 15.3-114.2 26.4-35.4 11-58.4 31.7-68.5 61.6-7.5 22.3-4.7 41.4-4.7 41.6l.1.5c.1 1 7.8 99.8 41 149.6 23.6 35.4 59.1 70 129.1 58.2 24.5-4.1 53.1-13.9 87-31.2 68.4-35 104-97.8 121.9-144.3 21.1-54.9 23.8-101.7 22.7-110.1-3.1-23-26.1-39.7-26.3-39.9-21.4-15.3-21.4-15.3-51.1-22l-2.2-.5c-18.3-3.9-73.4-.2-134.8 10.1z" class="st4"/>
      <path d="M1058.1 172.3h46.6v25h-46.6z" class="st4" transform="rotate(-9.53 1081.23 184.7)"/>
      <path d="M76.5 337.1h46.6v25H76.5z" class="st4" transform="rotate(-9.53 99.78 349.5)"/>
      <g>
        <path d="M642 205.3l-11.1 1.9c-3.2-18.9-27.4-30.6-54-26.2-26.6 4.5-45.7 23.5-42.5 42.4l-11.1 1.9c-4.2-25 19-49.9 51.8-55.4 32.6-5.5 62.7 10.4 66.9 35.4zM570.2 142.7c-50.3 8.4-98.1 13.6-134.6 14.6-54.6 1.4-61.3-.7-62.3-7.1l11.1-1.9c.7 1.8 11 .6 53.2-.6 35.7-1 82.3-6.1 131.1-14.3 48.9-8.2 94.6-18.6 128.6-29.3 40.3-12.6 50.4-14.9 50.5-16.8l11.1-1.8c1.1 6.4-4.6 10.6-56.6 27.1-34.9 11-81.8 21.7-132.1 30.1z" class="st4"/>
      </g>
    </g>
    <g>
      <path d="M2327.5 1201.6c-2.2-7.4-4.5-14.7-6.5-22.1-6.8-24.4-14-51-22.5-84l-4.1-16c-6.1-23.5-11.9-45.7-20.4-76.7l-6-21.6c-2.8-9.9-5.6-19.7-8.3-29.7-.9-3.2-1.6-6.4-2.4-9.6-1.9-7.6-3.8-15.4-6.6-23.1-1.7-4.6-3.6-9.2-5.9-13.6a167.3 167.3 0 0 0-84.4-86.5c-.7-1.9-1.6-3.8-2.5-5.8-2.1-4.9-4.4-10.1-6-14.4-7-17.5-9.5-21.7-13.6-25.5-6.9-6.5-14.4-8.2-24.8-10.5-17.4-3.9-35.7-2-51.8-.5-14.7 1.5-33.9 4.2-51.4 12.8-9.6 4.6-16.5 8.1-21.7 16-3.1 4.7-4.5 9.4-7.2 28-.7 5.4-1.3 10.9-2 16.3l-.2 1.8c-.2 2.2-.3 4.7-.4 7.1 0 .8-.1 1.6-.1 2.4-5.7 5.3-11.2 10.8-16.2 16.9l-21.6 3-336.9 40-21.7 2.2c-6.2-4.7-12.8-8.8-19.7-12.6-.2-.7-.4-1.5-.6-2.3-.7-2.3-1.3-4.7-2.1-6.8l-.6-1.7c-1.9-5.1-3.8-10.2-5.7-15.4-7-17.5-9.5-21.7-13.6-25.5-6.9-6.5-14.4-8.2-24.8-10.5-19.1-4.3-38.4-2.4-53-.4-16 2.3-34.2 4.8-50.3 12.7-9.6 4.6-16.5 8.1-21.7 16-3 4.7-4.5 9.4-7.2 28-.6 4.6-1.6 10.1-2.5 15.4-.3 2.2-.8 4.2-1 6.2a167.1 167.1 0 0 0-61.7 103.9c-1.1 4.8-1.9 9.6-2.5 14.6-1 8.1-1 16.2-1.1 24 0 3.3 0 6.6-.1 9.9-.2 10.3-.7 20.5-1.1 30.8-.3 7.5-.6 14.9-.8 22.4-1 32.1-1.4 55.1-1.9 79.3l-.2 16.5c-.6 34-1.3 61.6-2.2 86.9-.3 7.7-.7 15.4-1.2 23.1-1.2 20.4-2.4 41.5-.2 62.1.4 3.2.8 6.4 1.3 9.4 1.2 7.9 3 15.6 5.1 23.2 6.6 22.9 16 40 28.6 52.5 14.5 14.3 37 25.3 58.6 28.6 1.9.3 3.8.5 5.7.6 5.2.5 10.7.3 16.2-.4 14.6-1.7 29.4-6.6 40.5-11.2 28.2-11.4 51.2-34.3 65-64.6 5.7-12.6 11.1-25.5 16.3-38.1 3.1-7.4 6.2-14.9 9.4-22.3.7-1.7 1.5-3.3 2.2-5 2.1-4.6 4.2-9.3 5.6-14.1l18.4-48.5c23.4 22.5 56.2 34.8 90.9 30.7 51.4-6.1 90.5-46.2 97.4-95.2l89.7-10.7c18.2 46 65.6 75.8 117 69.7 34.6-4.1 63.7-23.8 81.2-51.1l29.3 42.9c2.5 4.3 5.7 8.4 8.8 12.4 1.1 1.5 2.2 2.9 3.3 4.4l14.4 19.5c8 11 16.2 22.3 24.7 33.2 20.5 26.2 48.3 43.1 78.4 47.5 11.8 1.8 27.4 3.1 42 1.4 5.5-.7 10.9-1.7 15.9-3.4 1.8-.6 3.6-1.2 5.4-1.9 20.2-8.3 39.5-24.2 50.3-41.5 9.4-15.1 14.5-34 15.5-57.8a188.12 188.12 0 0 0-1.4-33.2c-2.6-20.7-8.7-40.9-14.7-60.5z" class="st5"/>
      <path d="M1495.2 1153.9l-13.5-20.6 21.8-2.6-8.3 23.2zm97.2-123.5l-20.5 13.5-1.3-11.2-11.1 1.3 1.9 15.8c.6 5.2-3 9.9-8.1 10.5l-23 2.7c-3.8.5-7-1.8-8.5-2.9l-16.8-12.6a9.6 9.6 0 0 1-3.7-6.1c0-.2.1-.3 0-.5l-38.5 4.6c0 .2.1.3.1.5.3 2.4-.5 4.8-2.2 6.8l-13.4 16.2c-1.2 1.4-3.6 4.3-7.6 4.8l-23 2.7c-5 .6-9.6-3.1-10.2-8.3l-1.9-15.8-10.2 1.2 1.3 11.2-23.1-8.3.4-.3-4 .5 4.3 36c.3 2.3 2.3 3.8 4.5 3.5l69.2-8.2 8.2 69.2c.3 2.2 2.2 3.8 4.5 3.5l71.5-8.5c2.3-.3 3.9-2.3 3.6-4.5l-8.2-69.2 69.1-8.2c2.3-.3 3.8-2.2 3.5-4.5l-4.3-36-3.1.4.6.2zm-77.3 78.3c.6 5.1-3.2 9.7-8.4 10.3l-31.1 3.7c-5.2.6-9.9-3-10.5-8.1l-2.7-23c-.3-2.7.6-4.7 1.6-6.4.9-1.6 2-3 3.1-4.4l10.9-14.5c1.7-2.2 4.1-3.3 6.4-3.7 2.4-.2 4.9.5 6.8 2.2l16.2 13.4c1.5 1.3 4.4 3.7 4.9 7.6l2.8 22.9z" class="st6"/>
      <path d="M1501.6 995c.5 3.9-1.8 6.8-3 8.5l-12.6 16.8a9.6 9.6 0 0 1-6.1 3.7c-2.4.2-5-.4-7.1-2l-14-11.6c-1.4-1.2-2.8-2.3-4.1-3.7-1.4-1.4-2.8-3.2-3.1-5.7l-2.7-23c-.6-5.1 3.1-9.7 8.3-10.3l31.1-3.7c5.2-.6 9.9 3 10.5 8.1l2.8 22.9zm84.6-4.3l-69.1 8.2-8.2-69.1c-.3-2.3-2.3-3.8-4.6-3.5l-71.5 8.5c-2.3.3-3.8 2.2-3.5 4.5l8.2 69.1-69.2 8.2c-2.2.3-3.8 2.3-3.5 4.5l4.2 35.6 4-.5 20.1-13.2 1.3 10.7 10.2-1.2-1.8-15.3c-.6-5.2 3-9.9 8-10.5l23-2.7c2.7-.3 4.7.6 6.4 1.6 1.5.8 3 2 4.5 3.1l14.5 10.9a9.2 9.2 0 0 1 3.4 6l38.5-4.6c-.2-2.3.5-4.7 2-6.6l11.6-14c1.1-1.4 2.3-2.9 3.7-4.2 1.4-1.3 3.2-2.7 5.8-3l23-2.7c5.1-.6 9.7 3.1 10.3 8.3l1.8 15.3 11.1-1.3-1.3-10.7 22.6 8.1 3.1-.4-4.2-35.6c-.1-2.1-2.1-3.7-4.4-3.5zm-117.3-57.5l13.5 20.5-21.8 2.6 8.3-23.1z" class="st6"/>
      <path d="M1574.9 913.5c-4.4-3.1-8.9-6-13.5-8.6-1.9-1.1-3.9-2.2-5.9-3.3a159.16 159.16 0 0 0-91.4-16.4 156.76 156.76 0 0 0-81.8 34.9c-6.4 5.2-12.4 11-17.9 17.1-.5.6-1.1 1.2-1.6 1.7a158.9 158.9 0 0 0-36.8 77.9c-2.5 14.6-3 29.7-1.2 45.1l35.8-4.3-4.2-35.6c-.8-6.8 4.1-13.1 10.9-13.9l60.8-7.2-7.2-60.7c-.8-6.9 4.1-13 10.9-13.9l71.5-8.5c6.9-.8 13.1 4 13.9 10.9l7.2 60.7 60.7-7.2c6.9-.8 13.1 4.1 13.9 10.9l4.2 35.6 37.7-4.5c-5.3-44.3-28.4-82.2-61.3-107.4-1.4-1-3-2.1-4.7-3.3z" class="st7"/>
      <path d="M1607.6 1064.8c.8 6.9-4.1 13-10.9 13.9l-60.7 7.2 7.2 60.8c.8 6.8-4.1 13-11 13.9l-71.5 8.5c-6.9.8-13-4.1-13.9-10.9l-7.2-60.8-60.8 7.2c-6.8.8-13-4.1-13.9-10.9l-4.3-36-35.8 4.3v.2c10.4 87.2 89.7 149.6 176.8 139.3 16.7-2 32.6-6.5 47.1-13.2 9.7-39 40-70.8 80-81.2 10.9-25.1 15.6-53.3 12.2-82.4v-.2l-37.7 4.5 4.4 35.8z" class="st8"/>
      <path d="M2078.9 867c16.1-1.9 30.8 9.7 32.8 25.8 1.9 16.2-9.7 30.8-25.8 32.8a29.68 29.68 0 0 1-32.8-25.8 29.6 29.6 0 0 1 25.8-32.8zm-66.1 83.8a29.5 29.5 0 0 1 32.7 25.6l91.1-10.8a29.4 29.4 0 0 1 25.8-32.5 29.5 29.5 0 0 1 32.7 25.6l9.3-1.1-4.1-34.5c-.2-2.1-2-3.6-3.8-3.4l-73.5 8.7-8.4-70.7c-.2-2.1-2-3.7-3.8-3.5l-65.6 7.8c-1.8.2-3.1 2.2-2.9 4.2l8.4 70.7-73.5 8.7c-1.8.2-3.1 2.1-2.9 4.2l4.1 34.5 8.5-1a29.55 29.55 0 0 1 25.9-32.5z" class="st6"/>
      <path d="M2096.7 1016.6c16.1-1.9 30.8 9.7 32.8 25.8 1.9 16.1-9.7 30.8-25.8 32.8-16.1 1.9-30.8-9.7-32.8-25.8s9.6-30.8 25.8-32.8zm-110.2 5.9l73.5-8.7 8.4 70.7c.2 2.1 2 3.6 3.8 3.4l65.6-7.8c1.8-.2 3.1-2.1 2.9-4.2l-8.4-70.7 73.5-8.7c1.8-.2 3.1-2.1 2.9-4.2l-4.1-34.9-9.3 1.1v.2c1.9 16.1-9.7 30.8-25.8 32.8a29.68 29.68 0 0 1-32.8-25.8v-.2l-91.1 10.8v.2c1.9 16.1-9.7 30.8-25.8 32.8a29.68 29.68 0 0 1-32.8-25.8v-.2l-8.5 1 4.1 34.9c.3 2.1 2 3.5 3.9 3.3z" class="st6"/>
      <path d="M2212.8 956.5l4.1 34.9c.8 6.7-3.8 12.8-10.3 13.5l-65.1 7.7 7.4 62.3c.8 6.7-3.8 12.8-10.3 13.5l-65.6 7.8c-6.4.8-12.4-4-13.2-10.7l-7.4-62.3-65.1 7.7c-6.4.8-12.4-4-13.2-10.7l-4.1-34.9-37.7 4.5v.2c3.5 29.1 14.7 55.5 31.2 77.3 41.3.8 78.3 24.6 96.8 60.2 15.7 3.1 32.2 3.8 48.9 1.8 87.2-10.4 149.6-89.7 139.3-176.8v-.2l-35.7 4.2z" class="st8"/>
      <path d="M1966.1 950.8c-.8-6.7 3.8-12.8 10.3-13.5l65.1-7.7-7.4-62.3c-.8-6.7 3.8-12.8 10.3-13.6l65.6-7.8c6.4-.8 12.4 4.1 13.2 10.8l7.4 62.3 65.1-7.7c6.4-.8 12.4 4 13.2 10.7l4.1 34.5 35.8-4.3a159.55 159.55 0 0 0-65.7-110.7l-1.9-1.3c-6.8-4.7-14-8.9-21.4-12.5-1.8-1-3.8-1.8-5.7-2.6-25-10.9-53.1-15.5-82-12.1a159.6 159.6 0 0 0-85 37.3c-1.7 1.6-3.4 3-5 4.6-3.9 3.6-7.6 7.4-11.1 11.5l-3.9 4.5a158.75 158.75 0 0 0-34.4 118.8l37.7-4.5-4.3-34.4z" class="st7"/>
      <path d="M1609.7 934.1a166.2 166.2 0 0 1 39.8 89.3l18.5-2.2-1.8-15.3 49.3-5.9 1.8 15.3 127.9-15.2-2-16.8 57.3 10.2 23.7-2.8c-4-34.4 2.9-67.5 17.7-96.2l-332.2 39.6z" class="st9"/>
      <path d="M1798.9 1109.5c-1.2.1-2.2 0-3.3.1-18 .4-33.8-12.8-36-31-2.2-18.3 10.1-34.8 27.7-38.7 1.1-.2 2.1-.6 3.2-.7 19.4-2.3 37 11.6 39.3 31.1 2.4 19.2-11.5 36.9-30.9 39.2zm106.8-115l-58.2 25.5-2.4-19.9-127.9 15.2 2.2 18.5-49.3 5.9-2.2-18.5-18.5 2.2v.2c3.4 28.5-.6 56.2-10.5 81.3 1.7-.4 3.4-.6 5.2-.8 55.1-6.5 105.6 28.4 120.5 80.1l85.3-10.1c2.3-53.7 43.2-99.5 98.3-106.1 1.8-.2 3.4-.4 5.2-.5-15.5-22-25.9-48-29.3-76.5v-.2l-23.7 2.8 5.3.9z" class="st5"/>
      <path d="M1952.9 1105.9c39.7-4.7 76 23.7 80.8 63.4l29.9-3.6c-1.4-11-4.5-21.3-9-30.9a75 75 0 0 0-2.5-4.9c-.9-1.8-1.9-3.5-3-5.2a103.06 103.06 0 0 0-78.3-48.7c-2-.3-3.9-.4-6-.5h-.1c-1.8 0-3.6-.1-5.4 0-3.5.1-6.9.3-10.4.7-56.3 6.7-96.7 57.7-90.5 113.8l30.5-3.6a73.23 73.23 0 0 1 64-80.5z" class="st10"/>
      <path fill="#dbdbdb" d="M2033.8 1169.4v.3c4.7 39.9-23.9 76.2-63.7 80.9a72.91 72.91 0 0 1-80.9-63.7v-.3l-30.5 3.6c0 .3 0 .6.1.9.8 6.9 2.3 13.5 4.4 19.8 2.2 6.7 4.9 13.1 8.4 19.1.2.2.4.5.5.9 21.8 34.1 61.7 54.6 104.7 49.5 4.9-.6 9.5-1.5 14.1-2.6 25.6-7.6 46.6-24.7 59.5-46.8.1-.2.3-.4.4-.6 10.8-18.7 15.9-40.7 13.1-63.8 0-.3-.1-.6-.1-.9l-30 3.7z"/>
      <path d="M1645.1 1112.5c-3.4.4-6.8 1-10.2 1.7-1.7.4-3.5.8-5.2 1.3h-.1c-2 .6-3.9 1.1-5.7 1.9a103.4 103.4 0 0 0-64.7 65.7c-.7 1.9-1.2 3.8-1.7 5.7-.6 1.8-.9 3.5-1.3 5.3-2.2 10.3-2.7 21.1-1.5 32.1l29.9-3.6c-4.5-39.8 24-75.8 63.7-80.5 39.8-4.7 76 23.6 80.9 63.3l30.4-3.6c-7-55.9-58.2-96-114.5-89.3z" class="st10"/>
      <path d="M2102.6 1066.9a21.1 21.1 0 0 0 18.4-23.4 21.1 21.1 0 0 0-23.4-18.4 21.1 21.1 0 0 0-18.4 23.4c1.4 11.5 12 19.7 23.4 18.4zM2084.9 917.2a21.1 21.1 0 0 0 18.4-23.4 21.1 21.1 0 0 0-23.4-18.4 21.1 21.1 0 0 0-18.4 23.4 20.97 20.97 0 0 0 23.4 18.4zM1415.8 1068.2l23-2.7c.4 0 1.1-.6 2.1-1.9l13.4-16.1c.2-.9 0-1.1-.3-1.4l-14.3-10.7c-1.1-1-2.3-1.8-3.6-2.5-.8-.5-1.1-.6-1.2-.5l-23 2.7c-.4 0-.7.5-.6 1.1l3.7 31.1c0 .6.4.9.8.9z" class="st12"/>
      <path d="M1546.9 1198.3c-13.8 5.7-28.6 9.7-44.2 11.5-82.9 9.9-159.1-42.9-181.1-120.9 0 2-.1 4.1-.2 6.1-.3 7.4-.6 14.8-.8 22.3-1 32.1-1.4 55-1.9 79.1l-.2 16.5c-.6 34.1-1.3 61.8-2.2 87.1-.3 7.8-.7 15.5-1.2 23.3-1.2 20.1-2.4 40.8-.2 60.7.4 3 .7 6 1.3 9.1 1.1 7.5 2.8 14.8 4.8 21.8 6.3 21.7 15 37.6 26.5 49.1 13.4 13.1 34 23.2 54 26.2 1.7.3 3.4.4 5 .6 17.8 1.4 38.6-5.2 53-11 26.1-10.7 47.6-32 60.5-60.3 5.6-12.5 11-25.3 16.1-37.8 3.1-7.4 6.2-14.9 9.4-22.4.8-1.7 1.5-3.4 2.4-5.2 2-4.5 4-8.8 5.2-13.3l20.1-52.6c-14.3-16.4-24-37.1-26.8-60.2-1.2-10-1.1-20 .5-29.7z" class="st13"/>
      <path d="M1486 1071.3c-.3 0-.6-.1-.8-.1-.3 0-.5.1-.6.4l-10.7 14.3c-1 1.2-1.8 2.4-2.5 3.6-.5.8-.5 1.1-.5 1.2l2.7 23c0 .4.6.8 1.1.7l31.1-3.7c.6-.1 1-.5 1-1l-2.7-23c0-.3-.7-1-1.9-2.1l-16.2-13.3zM1529.2 1054.7l23-2.7c.4 0 .8-.5.7-1.1l-3.7-31.1c-.1-.6-.5-1-1-.9l-23 2.7c-.1 0-.2.1-.9.7-1.1 1.1-2 2.2-3 3.4l-10.9 13.2c-.7.9-.9 1.2-.8 1.5l17.2 13.1c1.2.8 2 1.3 2.4 1.2zM1649.4 1150.6c-35.2 4.2-60.5 36.3-56.3 71.5 4.2 35.2 36.3 60.5 71.5 56.3 35.3-4.2 60.6-36.3 56.4-71.5-4.2-35.2-36.3-60.5-71.6-56.3zM1464.1 1003.8l13.7 11.4c.2.1.5.3.7.3.2 0 .4-.1.7-.3l12.5-16.8c.9-1.3 1.4-2.1 1.4-2.5l-2.7-23c-.1-.5-.6-.8-1.2-.7l-31.1 3.7c-.5.1-1 .5-.9 1l2.7 23c0 .1.1.2.8.9 1.1 1.2 2.2 2.1 3.4 3z" class="st12"/>
      <path d="M1552.3 890.8c0-.4-.2-.8-.3-1.2l-.6-1.8c-1.9-5-3.7-10.1-5.7-15-6.7-16.9-8.7-20-11.4-22.6-5.2-4.9-11.1-6.2-20.9-8.4-15.3-3.4-31-2.5-44-1l-6 .7c-15.4 2.2-32.9 4.7-47.7 11.9-9 4.4-14.4 7.1-18.3 13-1.9 2.9-3.3 6-5.9 24.6-.6 3.9-1.3 8.6-2.2 13.2 21.4-14.5 46.5-24.3 73.9-27.5 31.5-3.6 62.1 1.7 89.1 14.1z" class="st13"/>
      <path d="M2018.8 1001a21.1 21.1 0 0 0 18.4-23.4 21.1 21.1 0 0 0-23.4-18.4 21.1 21.1 0 0 0-18.4 23.4c1.3 11.5 11.8 19.7 23.4 18.4zM1852.9 993.7l1.6 14 22.5-9.7z" class="st12"/>
      <ellipse cx="1961.5" cy="1178.2" class="st12" rx="64.4" ry="64.4" transform="rotate(-6.78 1961.27 1178.4)"/>
      <path d="M2149.1 814.1c-1.9-4.3-3.8-8.7-5.2-12.4-6.9-17.5-8.9-20.2-11.5-22.6-5.2-4.9-11.1-6.2-20.9-8.4-16.1-3.5-33.7-1.8-49.2-.4l-6 .7c-13 1.5-28.4 4.4-42.5 11.2-9.1 4.4-14.4 7.1-18.4 13-2 3.1-3.3 6.6-5.8 24.6-.7 5.3-1.4 10.6-2 15.9l-.2 1.9c0 .3-.1.8 0 1.2 23.4-18.4 51.8-30.7 83.4-34.4 27.5-3 54.1.7 78.3 9.7zM2312.8 1181.7c-6.8-24.4-14-51.1-22.6-84.1l-4.1-16c-6.1-23.4-11.9-45.5-20.4-76.5-2-7.2-4-14.4-6-21.5-.6-2-1.1-3.9-1.6-5.9-3.1 81-64.8 150.1-147.7 159.9a166 166 0 0 1-45.7-.9c3.8 9.1 6.3 18.8 7.5 28.9 2.7 23.1-1.8 45.5-11.9 64.8l31.8 46.5c2.3 4.1 5.2 7.8 8.2 11.7 1.2 1.6 2.3 3 3.5 4.5 4.9 6.6 9.6 13.1 14.4 19.6 7.9 10.9 16.1 22.2 24.5 33 19.2 24.4 45.1 40.2 73 44.4 15.4 2.2 37.1 3.8 54.1-1.8 1.6-.5 3.2-1.1 4.7-1.7 18.8-7.6 36.5-22.2 46.4-38.1 8.5-13.9 13.2-31.4 14.3-54 .3-7.3.2-14.8-.4-22.3-.2-3.1-.6-6.1-.9-9.1-2.5-19.9-8.5-39.7-14.4-59-2.4-7.4-4.6-14.9-6.7-22.4z" class="st13"/>
      <path d="M2168.4 983.2a21.1 21.1 0 0 0 18.4-23.4 21.1 21.1 0 0 0-23.4-18.4 21.04 21.04 0 1 0 5 41.8zM1791.5 1047.5c-1.2.1-2.1.5-3.2.7-13 3.2-22 15.7-20.4 29.3 1.6 13.6 13.2 23.5 26.7 23.6 1.1 0 2.1.1 3.3-.1a27.06 27.06 0 0 0 23.6-30 26.98 26.98 0 0 0-30-23.5z" class="st12"/>
      <path d="M1676.4 1011.2h32.8v17.2h-32.8z" class="st12" transform="rotate(-6.78 1692.53 1019.98)"/>
      <path d="M1955 872.8l-13.1 1.9-337 40-13.2 1.2c4.8 4.1 9.2 8.5 13.5 13l339.7-40.4c3.1-5.4 6.4-10.7 10.1-15.7z" class="st14"/>
      <path d="M1327 1025.2c4.9-29.2 17.9-56 36.8-77.9.4-.6 1.1-1.1 1.6-1.7 5.5-6.2 11.5-12 17.9-17.1 1.5-1.4 3.2-2.7 4.9-3.9 21.7-16.4 48-27.5 76.9-31 32.6-3.9 64.1 2.5 91.4 16.4 2 1.1 4 2.2 5.9 3.3 4.6 2.6 9.1 5.4 13.5 8.6 1.7 1.2 3.2 2.3 4.8 3.5 32.1 24.6 54.7 61.4 60.8 104.3-.1-1.7-.2-3.4-.4-5.1-5.3-44.3-28.4-82.3-61.3-107.6-1.6-1.2-3.2-2.3-4.8-3.5-4.4-3.1-8.9-6-13.5-8.6-1.9-1.1-3.9-2.2-5.9-3.3a159.16 159.16 0 0 0-91.4-16.4 156.76 156.76 0 0 0-81.8 34.9c-6.4 5.2-12.4 11-17.9 17.1-.5.6-1.1 1.2-1.6 1.7a158.9 158.9 0 0 0-36.8 77.9c-2.5 14.6-3 29.9-1.1 45.4.1 1.2.4 2.3.6 3.5-1.3-13.8-.8-27.4 1.4-40.5z" class="st15"/>
      <path d="M1379.8 1112.9l60.8-7.2-1-8.4-60.8 7.2c-6.8.8-13-4.1-13.9-10.9l1 8.4c.8 6.9 7.1 11.8 13.9 10.9zM1447.8 1166.6c.8 6.8 7 11.7 13.9 10.9l71.5-8.5c6.9-.8 11.8-7.1 11-13.9l-1-8.4c.8 6.8-4.1 13-11 13.9l-71.5 8.5c-6.9.8-13-4.1-13.9-10.9l1 8.4zM1608.6 1073.2l-1-8.4c.8 6.9-4.1 13-10.9 13.9l-60.7 7.2 1 8.4 60.7-7.2c6.8-.9 11.7-7 10.9-13.9z" class="st16"/>
      <path d="M1988.7 1041.4l65.1-7.7-1.2-10.5-65.1 7.7c-6.4.8-12.4-4-13.2-10.7l1.2 10.5c.8 6.6 6.8 11.4 13.2 10.7zM2061.2 1096c.8 6.7 6.7 11.5 13.2 10.7l65.6-7.8c6.4-.8 11.1-6.8 10.3-13.5l-1.2-10.5c.8 6.7-3.8 12.8-10.3 13.5l-65.6 7.8c-6.4.8-12.4-4-13.2-10.7l1.2 10.5zM2218.2 1001.8l-1.2-10.5c.8 6.7-3.8 12.8-10.3 13.5l-65.1 7.7 1.2 10.5 65.1-7.7c6.5-.8 11.1-6.8 10.3-13.5z" class="st17"/>
      <path d="M1934.7 953.6c4.9-29.2 17.9-56 36.8-77.9.4-.6 1.1-1.1 1.6-1.7 5.5-6.2 11.5-12 17.9-17.1 1.5-1.4 3.2-2.7 4.9-3.9 21.7-16.4 48-27.5 76.9-31 32.6-3.9 64.1 2.5 91.4 16.4 2 1.1 4 2.2 5.9 3.3 4.6 2.6 9.1 5.4 13.5 8.6 1.7 1.2 3.2 2.3 4.8 3.5 32.1 24.6 54.7 61.4 60.8 104.3-.1-1.7-.2-3.4-.4-5.1-5.3-44.3-28.4-82.3-61.3-107.6-1.6-1.2-3.2-2.3-4.8-3.5-4.4-3.1-8.9-6-13.5-8.6-1.9-1.1-3.9-2.2-5.9-3.3a159.16 159.16 0 0 0-91.4-16.4 156.76 156.76 0 0 0-81.8 34.9c-6.4 5.2-12.4 11-17.9 17.1-.5.6-1.1 1.2-1.6 1.7a158.9 158.9 0 0 0-36.8 77.9c-2.5 14.6-3 29.9-1.1 45.4.1 1.2.4 2.3.6 3.5-1.3-13.9-.8-27.5 1.4-40.5z" class="st15"/>
      <path d="M1392 896.8c2.6-18.6 4-21.7 5.9-24.6 3.9-6 9.3-8.7 18.3-13 14.8-7.2 32.4-9.7 47.7-11.9l6-.7c13-1.5 28.7-2.4 44 1 9.8 2.1 15.7 3.5 20.9 8.4 2.7 2.6 4.7 5.6 11.4 22.6 1.5 3.9 3 7.8 4.5 11.8l1.5.6c0-.4-.2-.8-.3-1.2l-.6-1.8c-1.9-5-3.7-10.1-5.7-15-6.7-16.9-8.7-20-11.4-22.6-5.2-4.9-11.1-6.2-20.9-8.4-15.3-3.4-31-2.5-44-1l-6 .7c-15.4 2.2-32.9 4.7-47.7 11.9-9 4.4-14.4 7.1-18.3 13-1.9 2.9-3.3 6-5.9 24.6-.6 3.9-1.3 8.6-2.2 13.2l1.8-1.2c.4-2.2.7-4.4 1-6.4zM1990.3 825.7c2.5-18 3.8-21.5 5.8-24.6 4-6 9.3-8.7 18.4-13 14.1-6.9 29.6-9.7 42.5-11.2l6-.7c15.4-1.5 33.1-3.2 49.2.4 9.8 2.1 15.7 3.5 20.9 8.4 2.6 2.4 4.6 5.1 11.5 22.6.7 1.9 1.6 3.9 2.5 6.1.7.2 1.4.4 2 .7-1.9-4.3-3.8-8.7-5.2-12.4-6.9-17.5-8.9-20.2-11.5-22.6-5.2-4.9-11.1-6.2-20.9-8.4-16.1-3.5-33.7-1.8-49.2-.4l-6 .7c-13 1.5-28.4 4.4-42.5 11.2-9.1 4.4-14.4 7.1-18.4 13-2 3.1-3.3 6.6-5.8 24.6-.7 5.3-1.4 10.6-2 15.9l-.2 1.9c0 .3-.1.8 0 1.2.4-.3.9-.6 1.3-1 .5-4.1 1-8.3 1.6-12.4z" class="st14"/>
      <path d="M1944.9 888.6L1605.2 929c.8.8 1.5 1.7 2.2 2.6l335.9-39.9c.6-1.1 1.1-2.1 1.6-3.1z" class="st9"/>
      <path d="M1943.4 891.6l-335.9 39.9c.8.8 1.5 1.7 2.2 2.6l332.1-39.5c.5-1 1-2 1.6-3z" class="st14"/>
      <path d="M1765.5 1187.6l84.2-10c0-1.2.1-2.4.1-3.6l-85.3 10.1c.4 1.3.7 2.4 1 3.5z" class="st18"/>
      <path d="M1766.2 1190.2l83.4-9.9c0-.9.1-1.8.1-2.7l-84.2 10c.2.9.5 1.7.7 2.6z" class="st9"/>
      <path d="M1551.4 887.9c-.1-.2-.1-.3-.2-.5a165.63 165.63 0 0 0-88.4-13.6c-27 3.2-51.7 12.8-72.9 26.9l-.6 3.8c21.4-14.5 46.5-24.3 73.9-27.5 31.5-3.7 62.1 1.5 89.1 13.9 0-.4-.2-.8-.3-1.2l-.6-1.8zM2070.4 801.6c-31.3 3.7-59.5 15.8-82.7 33.9 0 .2 0 .4-.1.5l-.2 1.9c0 .3-.1.8 0 1.2 23.4-18.4 51.8-30.7 83.4-34.4 27.4-3.3 54.1.4 78.3 9.4-.5-1.2-1-2.3-1.5-3.5a164.8 164.8 0 0 0-77.2-9z" class="st19"/>
      <path d="M1949.7 1080.5c3.4-.4 6.9-.6 10.4-.7h5.5c2 .1 4 .2 6 .5 32.6 3 61.5 21.5 78.3 48.7 1.1 1.6 2.1 3.4 3 5.2 1 1.6 1.7 3.2 2.5 4.9 4.4 9.2 7.3 19.1 8.8 29.7-.1-.7-.1-1.4-.2-2.1a102.37 102.37 0 0 0-14.6-41.9 103.06 103.06 0 0 0-78.3-48.7c-2-.3-3.9-.4-6-.5h-.1c-1.8 0-3.6-.1-5.4 0-3.5.1-6.9.3-10.4.7-56.6 6.7-97.1 58.2-90.4 114.7.1.7.3 1.4.4 2.1-5.6-55.6 34.6-105.9 90.5-112.6z" class="st14"/>
      <path d="M1970.6 1254.7c39.8-4.7 68.4-41 63.7-80.9-.1-.7-.3-1.4-.4-2.1 3.5 39.1-24.7 74.1-63.8 78.8-39.2 4.7-74.8-22.8-80.5-61.6.1.7.1 1.4.1 2.1 4.8 39.9 41 68.5 80.9 63.7z" class="st20"/>
      <path d="M1556.7 1198.3c.4-1.8.8-3.6 1.3-5.3.5-1.9 1-3.9 1.7-5.7 9.9-30.5 33.7-55.2 64.7-65.7 1.9-.7 3.7-1.3 5.7-1.9h.1c1.7-.5 3.5-.9 5.2-1.3 3.4-.7 6.8-1.3 10.2-1.7 55.9-6.6 106.7 32.9 114.4 88.3-.1-.7-.1-1.4-.1-2.1-6.7-56.5-58.2-97-114.8-90.3-3.4.4-6.8 1-10.2 1.7-1.7.4-3.5.8-5.2 1.3h-.1c-2 .6-3.9 1.1-5.7 1.9a103.4 103.4 0 0 0-64.7 65.7c-.7 1.9-1.2 3.8-1.7 5.7-.6 1.8-.9 3.5-1.3 5.3a100.94 100.94 0 0 0-1.1 35.1c-1-10.6-.5-21 1.6-31z" class="st14"/>
      <path d="M2063.6 1165.8c2.1 22.1-3 43.2-13.3 61.2-.1.2-.2.4-.4.6-12.9 22.1-34 39.2-59.5 46.8-4.6 1.1-9.3 2-14.1 2.6-42.9 5.1-82.9-15.4-104.7-49.5-.1-.3-.3-.6-.5-.9-3.4-6-6.2-12.4-8.4-19.1-1.8-5.6-3.1-11.4-4-17.3h-.1c0 .3 0 .6.1.9.8 6.9 2.3 13.5 4.4 19.8 2.2 6.7 4.9 13.1 8.4 19.1.2.2.4.5.5.9 21.8 34.1 61.7 54.6 104.7 49.5 4.9-.6 9.5-1.5 14.1-2.6 25.6-7.6 46.6-24.7 59.5-46.8.1-.2.3-.4.4-.6 10.8-18.7 15.9-40.7 13.1-63.8 0-.2-.1-.5-.2-.8z" class="st20"/>
      <path d="M1850.4 1192c-.5-3.9-.7-7.9-.8-11.7l-83.4 9.9c.9 3.8 1.5 7.7 2 11.6.6 5.5.8 10.9.6 16.2l84.7-10.1c-1.3-5.1-2.5-10.4-3.1-15.9z" class="st18"/>
      <path d="M2098 1027.6c11.1-1.3 21.1 6.3 23.1 17.1v-1.3a21.1 21.1 0 0 0-23.4-18.4 21.1 21.1 0 0 0-18.4 23.4l.3 1.3c-.7-11 7.4-20.8 18.4-22.1zM2080.2 878c11.1-1.3 21.1 6.3 23.1 17.1v-1.3a21.1 21.1 0 0 0-23.4-18.4 21.1 21.1 0 0 0-18.4 23.4l.3 1.3c-.7-11 7.4-20.8 18.4-22.1zM2014.1 961.7c11.1-1.3 21.1 6.3 23.1 17.1v-1.3a21.1 21.1 0 0 0-23.4-18.4 21.1 21.1 0 0 0-18.4 23.4l.3 1.3c-.7-11 7.3-20.7 18.4-22.1zM2163.7 944c11.1-1.3 21.1 6.3 23.1 17.1v-1.3a21.1 21.1 0 0 0-23.4-18.4 21.1 21.1 0 0 0-18.4 23.4l.3 1.3c-.6-11.1 7.3-20.8 18.4-22.1zM1489.3 972.3l-31.1 3.7c-.5.1-1 .5-.9 1l.2 2.1c-.1-.5.4-.9.9-1l31.1-3.7c.6-.1 1.1.2 1.2.7l-.2-2.1c0-.5-.6-.8-1.2-.7zM1502.1 1084.7l-16.1-13.4c-.3 0-.6-.1-.8-.1-.3 0-.5.1-.6.4l-10.7 14.3c-1 1.2-1.8 2.4-2.5 3.6-.5.8-.5 1.1-.5 1.2l.2 2.1c0-.1 0-.3.5-1.2.7-1.2 1.6-2.4 2.5-3.6l10.7-14.3c.1-.3.4-.4.6-.4.2 0 .4 0 .8.1l16.1 13.4c1.2 1 1.9 1.7 1.9 2.1l-.2-2.1c0-.4-.7-1.1-1.9-2.1zM1412.1 1037.1l23-2.7c.1 0 .3 0 1.2.5 1.3.7 2.5 1.6 3.6 2.5l14 10.4.4-.4c.2-.9 0-1.1-.3-1.4l-14.3-10.7c-1.1-1-2.3-1.8-3.6-2.5-.8-.5-1.1-.6-1.2-.5l-23 2.7c-.4 0-.7.5-.6 1.1l.2 2.1c-.1-.5.2-1 .6-1.1zM1548.2 1018.9l-23 2.7c-.1 0-.2.1-.9.7-1.1 1.1-2 2.2-3 3.4l-10.9 13.2c-.7.9-.9 1.2-.8 1.5l1 .8c0-.1 0-.1.1-.1l10.9-13.2c1-1.2 1.9-2.4 3-3.4.7-.6.9-.7.9-.7l23-2.7c.4 0 .9.3 1 .9l-.2-2.1c-.2-.7-.6-1.1-1.1-1zM1877 998l-24.1-4.3.2 2.1 20.5 3.6z" class="st21"/>
      <path d="M1675.5 1011.3h32.8v2.1h-32.8z" class="st21" transform="rotate(-6.78 1691.65 1012.5)"/>
      <path d="M1788.6 1050.3c1.1-.2 2.1-.6 3.2-.7 14.5-1.7 27.5 8.4 29.7 22.6v-1.1a27.13 27.13 0 0 0-30-23.7c-1.2.1-2.1.5-3.2.7-13 3.2-22 15.7-20.4 29.3 0 .4.2.7.2 1-1-13.1 7.8-25 20.5-28.1z" class="st21"/>
      <path d="M1651 1164.3c-27.7 3.3-47.5 28.5-44.2 56.2s28.5 47.5 56.2 44.2a50.67 50.67 0 0 0 44.3-56.2c-3.4-27.6-28.6-47.5-56.3-44.2zM1955.5 1128a50.6 50.6 0 0 0-44.2 56.2 50.53 50.53 0 0 0 56.2 44.2 50.6 50.6 0 0 0 44.2-56.2 50.66 50.66 0 0 0-56.2-44.2z" class="st22"/>
      <path d="M1957 1140.6a38.03 38.03 0 0 0-33.2 42.1c2.5 20.7 21.3 35.7 42.1 33.2a38.1 38.1 0 0 0 33.2-42.1 37.84 37.84 0 0 0-42.1-33.2zM1652.5 1176.9a38.1 38.1 0 0 0-33.2 42.1 38.1 38.1 0 0 0 42.1 33.2c20.8-2.5 35.7-21.4 33.2-42.1s-21.3-35.7-42.1-33.2z" class="st23"/>
      <path d="M2147.4 1349.4c-8.4-10.8-16.6-22-24.5-33-4.8-6.5-9.5-13-14.4-19.6-1.2-1.5-2.3-3-3.5-4.5-3-3.9-5.9-7.6-8.2-11.7l-31.8-46.5c10.1-19.3 14.6-41.7 11.9-64.8-1.2-10.1-3.7-19.8-7.5-28.9a170 170 0 0 0 45.7.9c79.4-9.4 139.3-73.3 146.9-149.9-.7-2.6-1.5-5.2-2.2-7.8-.6-2-1.1-3.9-1.6-5.9-3.1 81-64.8 150.1-147.7 159.9a166 166 0 0 1-45.7-.9c3.8 9.1 6.3 18.8 7.5 28.9 2.7 23.1-1.8 45.5-11.9 64.8l31.8 46.5c2.3 4.1 5.2 7.8 8.2 11.7 1.2 1.6 2.3 3 3.5 4.5 4.9 6.6 9.6 13.1 14.4 19.6 7.9 10.9 16.1 22.2 24.5 33 7.5 9.5 16 17.6 25.2 24.4-7.5-6-14.4-12.9-20.6-20.7zM1546.4 1228.2c-1.2-10.1-1-20.2.5-29.8-13.8 5.7-28.6 9.7-44.2 11.5-82.9 9.9-159.1-42.9-181.1-120.9 0 2-.1 4.1-.2 6.1l-.3 8.1c25.3 72.6 98.5 120.7 177.9 111.3 15.6-1.8 30.4-5.8 44.2-11.5-1.6 9.7-1.7 19.7-.5 29.8a110.4 110.4 0 0 0 26.8 60.2l-20.1 52.6c-1.2 4.5-3.2 8.8-5.2 13.3-.8 1.8-1.5 3.5-2.4 5.2-3.2 7.5-6.3 15-9.4 22.4-5.1 12.5-10.5 25.3-16.1 37.8a129 129 0 0 1-15.1 24.9c7.4-8.7 13.7-18.6 18.8-29.6 5.6-12.5 11-25.3 16.1-37.8 3.1-7.4 6.2-14.9 9.4-22.4.8-1.7 1.5-3.4 2.4-5.2 2-4.5 4-8.8 5.2-13.3l20.1-52.6c-14.4-16.3-24.1-37-26.8-60.1z" class="st19"/>
      <path d="M1797.9 1101.1c-1.2.1-2.2 0-3.3.1-13.4-.1-25-10-26.7-23.6a26.97 26.97 0 0 1 20.4-29.3c1.1-.2 2.1-.6 3.2-.7 14.8-1.8 28.2 8.9 30 23.7 1.8 14.6-8.8 28.1-23.6 29.8zm-7.4-62c-1.2.1-2.1.5-3.2.7-17.6 3.9-29.9 20.4-27.7 38.7 2.2 18.2 18 31.4 36 31 1.1 0 2.1.1 3.3-.1 19.4-2.3 33.3-20 31-39.3a35.45 35.45 0 0 0-39.4-31zM1675.5 1013.2l32.6-3.9 2 17.1-32.6 3.9-2-17.1zm-5.4 26.5l49.3-5.9-4-33.8-49.3 5.9 4 33.8zM1852.9 993.7l24.1 4.3-22.4 9.8-1.7-14.1zm-9.7-10.3l4.4 36.6 58.2-25.5-62.6-11.1zM1393.2 1043l-20.6 13.5 23.2 8.4z" class="st24"/>
      <path d="M1373.3 1092.7l-8.5-71.5c-.3-2.2 1.4-4.2 3.5-4.5l69.2-8.2-8.2-69.1c-.3-2.3 1.3-4.2 3.5-4.5l71.5-8.5c2.3-.3 4.3 1.3 4.6 3.5l8.2 69.1 69.1-8.2c2.3-.3 4.2 1.4 4.5 3.5l8.5 71.5c.3 2.3-1.3 4.2-3.5 4.5l-69.1 8.2 8.2 69.2c.3 2.2-1.4 4.2-3.6 4.5l-71.5 8.5c-2.3.3-4.2-1.4-4.5-3.5l-8.2-69.2-69.2 8.2c-2.2.3-4.2-1.3-4.5-3.5zm66.3 4.7l7.2 60.8c.8 6.8 7 11.7 13.9 10.9l71.5-8.5c6.9-.8 11.8-7.1 11-13.9l-7.2-60.8 60.7-7.2c6.9-.8 11.7-7 10.9-13.9l-8.5-71.5c-.8-6.8-7-11.7-13.9-10.9l-60.7 7.2-7.2-60.7c-.8-6.9-7.1-11.7-13.9-10.9l-71.5 8.5c-6.9.8-11.7 7-10.9 13.9l7.2 60.7-60.8 7.2c-6.8.8-11.7 7.1-10.9 13.9l8.5 71.5c.8 6.9 7.1 11.7 13.9 10.9l60.7-7.2z" class="st24"/>
      <path d="M1506.8 1109.7c0 .4-.4.9-1 1l-31.1 3.7c-.5.1-1.1-.3-1.1-.7l-2.7-23c0-.1 0-.3.5-1.2.7-1.2 1.6-2.4 2.5-3.6l10.7-14.3c.1-.3.4-.4.6-.4.2 0 .4 0 .8.1l16.1 13.4c1.2 1 1.9 1.7 1.9 2.1l2.8 22.9zm-15.5-44.9a9.47 9.47 0 0 0-6.8-2.2c-2.3.4-4.7 1.5-6.4 3.7l-10.9 14.5c-1.1 1.4-2.2 2.9-3.1 4.4-1 1.7-1.9 3.7-1.6 6.4l2.7 23c.6 5.1 5.3 8.7 10.5 8.1l31.1-3.7c5.2-.6 9-5.2 8.4-10.3l-2.7-23c-.5-3.8-3.4-6.2-4.9-7.6l-16.3-13.3zM1457.3 977c-.1-.5.4-.9.9-1l31.1-3.7c.6-.1 1.1.2 1.2.7l2.7 23c0 .3-.5 1.2-1.4 2.5l-12.5 16.8c-.3.1-.6.2-.7.3a.9.9 0 0 1-.7-.3l-13.7-11.4c-1.2-.9-2.3-1.8-3.3-2.9-.7-.7-.8-.8-.8-.9l-2.8-23.1zm1.5 33.4l14 11.6c2.1 1.6 4.8 2.2 7.1 2a9.6 9.6 0 0 0 6.1-3.7l12.6-16.8c1.2-1.7 3.4-4.7 3-8.5l-2.7-23c-.6-5.1-5.4-8.7-10.5-8.1l-31.1 3.7c-5.2.6-8.9 5.2-8.3 10.3l2.7 23a9.1 9.1 0 0 0 3.1 5.7c1.2 1.5 2.6 2.6 4 3.8zM1510.4 1038.9l10.9-13.2c1-1.2 1.9-2.3 3-3.4.7-.6.9-.7.9-.7l23-2.7c.4 0 .9.3 1 .9l3.7 31.1c.1.6-.3 1.1-.7 1.1l-23 2.7c-.3 0-1.1-.4-2.4-1.3l-17.2-13.1c-.1-.2.1-.5.8-1.4zm-9.2 2.6a9.2 9.2 0 0 0 3.7 6.1l16.8 12.6c1.5 1.1 4.6 3.4 8.5 2.9l23-2.7c5.1-.6 8.7-5.3 8.1-10.5l-3.7-31.1c-.6-5.2-5.2-8.9-10.3-8.3l-23 2.7c-2.6.3-4.4 1.7-5.8 3a35.9 35.9 0 0 0-3.7 4.2l-11.6 14a9.6 9.6 0 0 0-2 7.1zM1411.2 1036.2c-.1-.6.2-1 .6-1.1l23-2.7c.1 0 .3 0 1.2.5 1.3.7 2.5 1.6 3.6 2.5l14.3 10.7c.3.3.5.5.3 1.4l-13.4 16.1c-1 1.2-1.7 1.8-2.1 1.9l-23 2.7c-.4 0-.8-.3-.9-.9l-3.6-31.1zm5.6 40.4l23-2.7c3.9-.5 6.4-3.4 7.6-4.8l13.4-16.2c1.6-2 2.5-4.4 2.2-6.8-.2-2.5-1.5-4.8-3.6-6.4l-14.5-10.9c-1.5-1.1-3-2.3-4.5-3.1-1.6-1-3.7-1.9-6.4-1.6l-23 2.7c-5 .6-8.6 5.3-8 10.5l3.7 31.1c.5 5.1 5.1 8.8 10.1 8.2zM1468.9 933.2l-8.3 23.1 21.8-2.6zM1495.2 1153.9l8.3-23.2-21.9 2.6zM1569.2 1022.1l2.6 21.8 20.6-13.5zM1974.4 949.8c-.2-2.1 1.1-3.9 2.9-4.2l73.5-8.7-8.4-70.7c-.2-2.1 1-4 2.9-4.2l65.6-7.8c1.8-.2 3.6 1.4 3.8 3.5l8.4 70.7 73.5-8.7c1.8-.2 3.5 1.3 3.8 3.4l8.2 69.4c.2 2.1-1.1 3.9-2.9 4.2l-73.5 8.7 8.4 70.7c.2 2.1-1.1 3.9-2.9 4.2l-65.6 7.8c-1.8.2-3.5-1.3-3.8-3.4l-8.4-70.7-73.5 8.7c-1.8.2-3.5-1.3-3.8-3.4l-8.2-69.5zm13.1 81.1l65.1-7.7 7.4 62.3c.8 6.7 6.7 11.5 13.2 10.7l65.6-7.8c6.4-.8 11.1-6.8 10.3-13.5l-7.4-62.3 65.1-7.7c6.4-.8 11.1-6.8 10.3-13.5l-8.2-69.4c-.8-6.7-6.7-11.5-13.2-10.7l-65.1 7.7-7.4-62.3c-.8-6.7-6.7-11.6-13.2-10.8l-65.6 7.8c-6.4.8-11.1 6.9-10.3 13.6l7.4 62.3-65.1 7.7c-6.4.8-11.1 6.8-10.3 13.5l8.2 69.4c.8 6.7 6.7 11.5 13.2 10.7z" class="st24"/>
      <path d="M2079.9 875.4c11.5-1.4 22 6.9 23.4 18.4 1.4 11.5-6.9 22-18.4 23.4a21.1 21.1 0 0 1-23.4-18.4 21.1 21.1 0 0 1 18.4-23.4zm6 50.2a29.56 29.56 0 0 0 25.8-32.8 29.56 29.56 0 0 0-32.8-25.8 29.56 29.56 0 0 0-25.8 32.8 29.49 29.49 0 0 0 32.8 25.8zM2097.7 1025c11.5-1.4 22 6.9 23.4 18.4 1.4 11.5-6.9 22-18.4 23.4a21.1 21.1 0 0 1-23.4-18.4 21.1 21.1 0 0 1 18.4-23.4zm5.9 50.2a29.56 29.56 0 0 0 25.8-32.8 29.56 29.56 0 0 0-32.8-25.8c-16.1 1.9-27.7 16.6-25.8 32.8s16.7 27.7 32.8 25.8zM2163.4 941.3c11.5-1.4 22 6.9 23.4 18.4 1.4 11.5-6.9 22-18.4 23.4a21.1 21.1 0 0 1-23.4-18.4 21.1 21.1 0 0 1 18.4-23.4zm6 50.2c16.1-1.9 27.7-16.6 25.8-32.8s-16.6-27.7-32.8-25.8a29.56 29.56 0 0 0-25.8 32.8 29.42 29.42 0 0 0 32.8 25.8zM2013.8 959.1c11.5-1.4 22 6.9 23.4 18.4 1.4 11.5-6.9 22-18.4 23.4a21.1 21.1 0 0 1-23.4-18.4 21.1 21.1 0 0 1 18.4-23.4zm6 50.2c16.1-1.9 27.7-16.6 25.8-32.8s-16.6-27.7-32.8-25.8a29.56 29.56 0 0 0-25.8 32.8 29.49 29.49 0 0 0 32.8 25.8zM1969.1 1242.2a64.41 64.41 0 0 1-71.5-56.3 64.4 64.4 0 0 1 56.3-71.5c35.2-4.2 67.3 21.1 71.5 56.3 4.2 35.2-21.1 67.3-56.3 71.5zm-16.2-136.3c-39.9 4.7-68.4 41-63.7 80.9s41 68.4 80.9 63.7c39.8-4.7 68.4-41 63.7-80.9s-41-68.4-80.9-63.7zM1664.5 1278.4c-35.2 4.2-67.3-21.1-71.5-56.3-4.2-35.2 21.1-67.3 56.3-71.5 35.3-4.2 67.4 21.1 71.6 56.3 4.2 35.2-21 67.3-56.4 71.5zm-16.1-136.2c-39.8 4.7-68.4 41-63.7 80.9s41.1 68.4 80.9 63.7c39.9-4.7 68.5-41 63.8-80.9s-41.1-68.4-81-63.7z" class="st24"/>
      <path d="M2334.8 1272.2c.6 7.6.8 15 .4 22.3-1.1 22.5-5.8 40.1-14.3 54-9.9 15.9-27.6 30.5-46.4 38.1-1.5.7-3.2 1.2-4.7 1.7-17 5.6-38.7 4-54.1 1.8-27.9-4.2-53.8-20-73-44.4-8.4-10.8-16.6-22-24.5-33-4.8-6.5-9.5-13-14.4-19.6-1.2-1.5-2.3-3-3.5-4.5-3-3.9-5.9-7.6-8.2-11.7l-31.8-46.5c10.1-19.3 14.6-41.7 11.9-64.8-1.2-10.1-3.7-19.8-7.5-28.9a170 170 0 0 0 45.7.9c82.9-9.9 144.6-79 147.7-159.9.5 2 1.1 3.9 1.6 5.9 2 7.1 4.1 14.3 6 21.5 8.5 31 14.3 53.1 20.4 76.5l4.1 16c8.6 33 15.8 59.7 22.6 84.1 2.1 7.5 4.3 14.9 6.6 22.4 5.9 19.2 11.9 39.1 14.4 59 .4 3 .8 6 1 9.1zm-7.3-70.6c-2.2-7.4-4.5-14.7-6.5-22.1-6.8-24.4-14-51-22.5-84l-4.1-16c-6.1-23.5-11.9-45.7-20.4-76.7l-6-21.6c-2.8-9.9-5.6-19.7-8.3-29.7-.9-3.2-1.6-6.4-2.4-9.6-1.9-7.6-3.8-15.4-6.6-23.1-1.7-4.6-3.6-9.2-5.9-13.6a167.3 167.3 0 0 0-84.4-86.5c-.7-1.9-1.6-3.8-2.5-5.8-2.1-4.9-4.4-10.1-6-14.4-7-17.5-9.5-21.7-13.6-25.5-6.9-6.5-14.4-8.2-24.8-10.5-17.4-3.9-35.7-2-51.8-.5-14.7 1.5-33.9 4.2-51.4 12.8-9.6 4.6-16.5 8.1-21.7 16-3.1 4.7-4.5 9.4-7.2 28-.7 5.4-1.3 10.9-2 16.3l-.2 1.8c-.2 2.2-.3 4.7-.4 7.1 0 .8-.1 1.6-.1 2.4-5.7 5.3-11.2 10.8-16.2 16.9l-21.6 3-336.9 40-21.7 2.2c-6.2-4.7-12.8-8.8-19.7-12.6-.2-.7-.4-1.5-.6-2.3-.7-2.3-1.3-4.7-2.1-6.8l-.6-1.7c-1.9-5.1-3.8-10.2-5.7-15.4-7-17.5-9.5-21.7-13.6-25.5-6.9-6.5-14.4-8.2-24.8-10.5-19.1-4.3-38.4-2.4-53-.4-16 2.3-34.2 4.8-50.3 12.7-9.6 4.6-16.5 8.1-21.7 16-3 4.7-4.5 9.4-7.2 28-.6 4.6-1.6 10.1-2.5 15.4-.3 2.2-.8 4.2-1 6.2a167.1 167.1 0 0 0-61.7 103.9c-1.1 4.8-1.9 9.6-2.5 14.6-1 8.1-1 16.2-1.1 24 0 3.3 0 6.6-.1 9.9-.2 10.3-.7 20.5-1.1 30.8-.3 7.5-.6 14.9-.8 22.4-1 32.1-1.4 55.1-1.9 79.3l-.2 16.5c-.6 34-1.3 61.6-2.2 86.9-.3 7.7-.7 15.4-1.2 23.1-1.2 20.4-2.4 41.5-.2 62.1.4 3.2.8 6.4 1.3 9.4 1.2 7.9 3 15.6 5.1 23.1 6.6 22.9 16 40 28.6 52.5 14.5 14.3 37 25.3 58.6 28.6 1.9.3 3.8.5 5.7.6 5.2.5 10.7.3 16.2-.4 14.6-1.7 29.4-6.6 40.5-11.2 28.2-11.4 51.2-34.3 65-64.6 5.7-12.6 11.1-25.5 16.3-38.1 3.1-7.4 6.2-14.9 9.4-22.3.7-1.7 1.5-3.3 2.2-5 2.1-4.6 4.2-9.3 5.6-14.1l18.4-48.5c23.4 22.5 56.2 34.8 90.9 30.7 51.4-6.1 90.5-46.2 97.4-95.2l89.7-10.7c18.2 46 65.6 75.8 117 69.7 34.6-4.1 63.7-23.8 81.2-51.1l29.3 42.9c2.5 4.3 5.7 8.4 8.8 12.4 1.1 1.5 2.2 2.9 3.3 4.4l14.4 19.5c8 11 16.2 22.3 24.7 33.2 20.5 26.2 48.3 43.1 78.4 47.5 11.8 1.8 27.4 3.1 42 1.4 5.5-.7 10.9-1.7 15.9-3.4 1.8-.6 3.6-1.2 5.4-1.9 20.2-8.3 39.6-24.2 50.3-41.5 9.4-15.1 14.5-34 15.5-57.8a188.12 188.12 0 0 0-1.4-33.2c-2.6-20.6-8.7-40.8-14.7-60.4zm-340.1-363.7l.2-1.9c.6-5.3 1.3-10.7 2-15.9 2.5-18 3.8-21.5 5.8-24.6 4-6 9.3-8.7 18.4-13 14.1-6.9 29.6-9.7 42.5-11.2l6-.7c15.4-1.5 33.1-3.2 49.2.4 9.8 2.1 15.7 3.5 20.9 8.4 2.6 2.4 4.6 5.1 11.5 22.6 1.5 3.6 3.3 8.1 5.2 12.4-24.2-9.1-50.9-12.7-78.3-9.4-31.5 3.7-60 16-83.4 34.4v-1.5zm-20.6 33.1c1.3-1.5 2.5-3 3.9-4.5 3.5-4.1 7.2-7.9 11.1-11.5 1.6-1.5 3.3-3 5-4.6 23.3-19.9 52.4-33.5 85-37.3a158.03 158.03 0 0 1 87.7 14.7c7.5 3.5 14.7 7.8 21.4 12.5.6.4 1.4.9 1.9 1.3 23.5 16.8 42.4 39.8 54 67.1 5.9 13.6 9.9 28.4 11.7 43.8 10.4 87.2-52.1 166.5-139.3 176.8-16.7 2-33.2 1.3-48.9-1.8-18.6-35.6-55.5-59.4-96.8-60.2a158.97 158.97 0 0 1-31.2-77.3c-5.1-44.3 8.4-86.7 34.5-119zm-575.4 20.2c2.6-18.6 4-21.7 5.9-24.6 3.9-6 9.3-8.7 18.3-13 14.8-7.2 32.4-9.7 47.7-11.9l6-.7c13-1.5 28.7-2.4 44 1 9.8 2.1 15.7 3.5 20.9 8.4 2.7 2.6 4.7 5.6 11.4 22.6 1.9 4.9 3.8 10 5.7 15l.6 1.8c.1.3.3.7.3 1.2a165.4 165.4 0 0 0-89.1-13.9c-27.4 3.3-52.5 13-73.9 27.5.8-4.8 1.6-9.5 2.2-13.4zm-65.4 125.6c4.9-29.2 17.9-56 36.8-77.9.4-.6 1.1-1.1 1.6-1.7 5.5-6.2 11.5-12 17.9-17.1 1.5-1.4 3.2-2.7 4.9-3.9 21.7-16.4 48-27.5 76.9-31 32.6-3.9 64.1 2.5 91.4 16.4 2 1.1 4 2.2 5.9 3.3 4.6 2.6 9.1 5.4 13.5 8.6 1.7 1.2 3.2 2.3 4.8 3.5 33 25.3 56.1 63.3 61.3 107.6 3.5 29.1-1.2 57.3-12.2 82.4-40 10.4-70.3 42.2-80 81.2-14.6 6.7-30.4 11.2-47.1 13.2-87.2 10.4-166.5-52.1-176.8-139.3-1.9-15.4-1.4-30.6 1.1-45.3zm227.1 324.2c-1.3 4.5-3.2 8.8-5.2 13.3-.8 1.8-1.5 3.5-2.4 5.2-3.2 7.5-6.3 15-9.4 22.4-5.1 12.5-10.5 25.3-16.1 37.8-12.9 28.3-34.4 49.7-60.5 60.3-14.4 5.8-35.2 12.4-53 11-1.6-.1-3.3-.3-5-.6-20-3-40.7-13.1-54-26.2-11.6-11.5-20.2-27.5-26.5-49.1-2-7.1-3.7-14.3-4.8-21.8-.5-3.1-.9-6.1-1.3-9.1-2.2-19.9-1-40.6.2-60.7.5-7.8 1-15.6 1.2-23.3.9-25.3 1.6-53 2.2-87.1l.2-16.5c.4-24.2.9-47 1.9-79.1.2-7.5.5-14.9.8-22.3.1-2 .2-4.1.2-6.1 22 78 98.2 130.7 181.1 120.9 15.6-1.8 30.4-5.8 44.2-11.5-1.6 9.7-1.7 19.7-.5 29.8a110.4 110.4 0 0 0 26.8 60.2l-20.1 52.5zm207.1-117.9c-.5 7-1.7 13.9-3.7 20.5-.1.3-.3.6-.3 1-13.2 38.2-47.2 67.6-90.1 72.7-4.9.6-9.6.8-14.3.8-26.6-1.4-51.1-13.1-68.8-31.5-.2-.1-.4-.3-.5-.5-14.8-15.6-25-35.9-27.7-58.9-1.3-11.3-.8-22.4 1.4-33 .4-1.8.8-3.6 1.3-5.3.5-1.9 1-3.9 1.7-5.7 9.9-30.5 33.7-55.2 64.7-65.7 1.9-.7 3.7-1.3 5.7-1.9h.1c1.7-.5 3.5-.9 5.2-1.3 3.4-.7 6.8-1.3 10.2-1.7 56.6-6.7 108.1 33.8 114.8 90.3.8 6.8.9 13.5.3 20.2zm94.4-11.2l-85.8 10.2c.4-6.7.3-13.4-.5-20.3-7.3-61.2-63-105-124.1-97.7-1.8.2-3.4.4-5.2.8 9.9-25 13.9-52.7 10.5-81.3-5.2-43.6-26.7-81.3-57.8-107.7l13.2-1.2 337-40 13.1-1.9c-24 33-36.1 74.6-30.9 118.2a166.7 166.7 0 0 0 29.3 76.5c-1.8 0-3.5.2-5.2.5-61.2 7.3-105 62.9-97.8 124.1.8 6.8 2.3 13.4 4.2 19.8zm196.1 18.5c-.1.2-.2.4-.4.6-12.9 22.1-34 39.2-59.5 46.8-4.6 1.1-9.3 2-14.1 2.6-42.9 5.1-82.9-15.4-104.7-49.5-.1-.3-.3-.6-.5-.9a105.4 105.4 0 0 1-12.8-38.9c-6.7-56.5 33.8-108 90.4-114.7 3.4-.4 6.9-.6 10.4-.7h5.5c2 .1 4 .2 6 .5 32.6 3 61.5 21.5 78.3 48.7 1.1 1.6 2.1 3.4 3 5.2 1 1.6 1.7 3.2 2.5 4.9 4.6 9.8 7.8 20.5 9.1 31.8 2.7 22.9-2.4 45-13.2 63.6z" class="st24"/>
    </g>
    <g>
      <path d="M1707.9 429.3c177 46.2 355.3 90.4 532.3 136.6l34.2 8.7c6.2 1.6 12.9 1.2 18.6-1.6 4.7-2.3 9.3-6.2 11.4-13.2 4.4-14.2 5.9-20.9 5.9-20.9 29.4-118.3 58.7-236.6 88.1-355 0 0 3.1-13.5 4.6-19.2 1.3-5.1.5-10.1-1.1-12.3-4.8-6.5-17.9-9.8-17.9-9.8l-33.4-8.5c-177-46.2-434.1-110.5-611.1-156.7 0 0-11.7-3.9-16.4-1.1s-7.4 11.2-7.4 11.2l-7.6 29.3c-31.1 121.9-62.2 243.8-93.3 365.8 0 0-4.5 19.5 12.9 25.9 17.5 6.5 80.2 20.8 80.2 20.8z" class="st25"/>
      <path d="M1707.2 433c182.9 47.7 366.2 94.2 549.4 141 22.9 5.8 44.8 9.1 53.1-18.4 11.9-39.6 20.4-80.5 30.4-120.7 12-48.5 24.1-97 36.1-145.5 10.1-40.9 23.8-82.3 30.6-123.9 3.7-22.7-20.3-26-37.1-30.3-28.8-7.3-57.5-14.9-86.3-22.3-80.7-20.8-161.6-41.4-242.4-62-79.7-20.3-159.4-40.6-239.1-61.1-17.8-4.6-35.6-9.2-53.3-13.8-8.7-2.3-20.6-7.6-28.7-1.6-6.2 4.7-7.8 13-9.7 20.1l-9.3 36.2-74.1 290.3c-5.2 20.3-12.8 41.3-15.8 62.1-1.1 7.8.3 16.3 5.6 22.4 6.5 7.5 18.2 9.4 27.3 12 13.6 3.8 27.3 7.1 41 10.4 7.4 1.7 14.8 3.4 22.3 5.1 4.7 1.1 6.1-6.3 1.4-7.4-19.1-4.4-38.1-8.9-57.1-14-10.8-2.9-28.6-5-32.5-17.3-4.4-13.9 5.2-32.9 8.5-45.9 22.2-87.1 44.4-174.2 66.7-261.3 8-31.3 15.4-62.8 24-93.8.6-2.3.9-5.3 2.3-7.3 6.5-10 14.3-6 22.5-3.8 16.9 4.5 33.9 8.8 50.8 13.2 71.1 18.4 142.2 36.5 213.4 54.6 74.1 18.9 148.2 37.7 222.2 56.7 51.3 13.2 104 24 154.5 39.8 9.1 2.9 16.1 6.5 15.4 17.5-.4 6-3 12.6-4.4 18.4-5.2 21.6-10.7 43.2-16.1 64.8l-31.8 128c-11.1 44.6-22.2 89.2-33.2 133.8-3.4 13.6-6.4 27.3-10.3 40.8-4.4 14.7-11.8 24.1-28.4 21.1-3.9-.7-7.7-2-11.5-2.9-185-47.3-370.2-94.2-555-142.4-4.7-1.2-6.1 6.2-1.4 7.4z"/>
      <path fill="#ffdd79" d="M2324.8 172.5c-6.9-3.3-211.7-54.3-266.6-67.9-54.8-14.3-259-67.4-266.7-67.8-8.8-.5-11.3 7-11.3 7-20.7 82.3-39.3 157.2-60 239.6-.6 2.4-3.2 12.5-1.9 14.6 1.1 1.8 3.2 2.6 5.2 3.2 5.7 1.9 14.6 5 25.1 7.7l240.1 61.2 3.4.9 248.1 63.1c5.9 1 11.8 2 17.8 3.1 2.1.4 4.3.7 6.1-.3 2.2-1.2 3-3.9 3.6-6.3 21.2-82.2 41.4-165 62.5-247.1.2-.1 2.6-7.2-5.4-11z"/>
      <path d="M2326.5 169.1c-13.5-5.8-29.2-8.2-43.4-11.8-30.5-7.9-61-15.6-91.6-23.3-52.3-13.1-104.6-25.9-156.8-39.4-61.2-15.9-122.3-31.8-183.6-47.3-18.4-4.7-37.6-11.4-56.5-13.8-7.1-.9-13.4.9-17.2 7.4-4.9 8.5-5.8 21.7-8.2 31.3-3.6 14.3-7.1 28.5-10.7 42.8-14 55.9-28.7 111.6-41.9 167.6-3.2 13.5-3.7 18.8 10.3 23.6 8.2 2.8 16.5 5.2 24.8 7.3 45.1 11.6 90.2 23 135.4 34.5 73.7 18.8 147.5 37.6 221.2 56.3 42.9 10.9 85.7 22.9 128.9 32.8 7.9 1.8 20.7 7.1 28.4 3.2 6-3 6.8-12.2 8.3-17.7 3.7-14.3 7.3-28.7 11-43.1 14.3-56.5 28.3-113.1 42.7-169.6 3.2-12.6 13.6-31-.2-40.3-4-2.7-9 3-4.9 5.7 9.5 6.4-.1 24.8-2.3 33.2l-10.2 40.2c-6.8 26.8-13.5 53.7-20.2 80.5-6.5 25.9-13 51.8-19.6 77.6-1.9 7.2-2.6 16.3-7.8 21.9-6.2 6.6-2.1 3.5-9.3 3.7-2.7.1-6.2-1-8.9-1.5-1.7-.3-3.2-.6-4.9-1-39-8.8-77.6-19.7-116.3-29.6-65.6-16.7-131.2-33.4-196.9-50.1-49-12.5-98-25-146.9-37.5-10.7-2.7-21.5-5.3-32.2-8.2-10.2-2.8-24.5-3.4-23.9-16.1.5-10.8 5.7-23 8.4-33.5 6.6-26.5 13.3-53 19.9-79.4 6.3-25.4 12.7-50.7 19-76.1 3.1-12.5 6.2-24.9 9.4-37.4 2-8.1 2.5-20.9 13-21.2 5.5-.2 12.5 2.8 17.8 4.1 10.4 2.5 20.7 5.1 31.1 7.7 58 14.6 115.8 29.6 173.7 44.6 98.4 25.6 197.6 48.5 295.7 75.1 4 1.1 8.4 1.9 12.3 3.6 4.2 1.8 7.5-4.9 3.1-6.8z"/>
      <path fill="#ff9fc4" d="M1740.3 294.6c6.7 2.7 201.2 51.5 253.4 64.5 52.1 13.5 246.3 63.6 253.4 64.4 8.3.9 10-3.9 10-3.9 13.6-54.4 27.2-108.7 40.7-163.1.4-1.6.7-3.4-.7-4.9-1.2-1.3-3.2-2-5.1-2.6l-16.3-5.1-235.8-60-3.2-.8-235.8-60-16.8-3.3c-1.9-.4-4.1-.8-5.7-.2-1.9.7-2.5 2.4-2.9 4-14.1 54.3-28.1 108.5-42.2 162.8.1-.1-.7 5 7 8.2z"/>
      <path d="M2225.4 272.2c-9.2-24.4-36-36.9-59.7-42.4l-268-68.2c-11.4-2.9-33.1-5.4-45.2-2a68.7 68.7 0 0 0-41.6 32.8c-9 16.1-11.3 34.8-6.3 52.6 6.9 24.6 27.8 42.8 58.9 50.7l268 68.2c.5.1 1 .3 1.5.4 11.4 2.9 33.2 5.4 45.3 2a68.7 68.7 0 0 0 41.6-32.8c9-16.1 13-41.4 5.5-61.3z" class="st25"/>
      <path d="M2137.8 369.6c-2.1-.4-4.1-.8-5.8-1.3-.2 0-.4-.1-.6-.2l-.9-.2-271.7-69.1v-.1c-30.5-8.7-51.1-27.3-58.2-52.5-5.3-18.8-3-38.6 6.6-55.7a72.68 72.68 0 0 1 44.1-34.7c11.6-3.3 30.6-1.5 43.1 1v-.1l4.2 1 270.1 68.7c.3.1.6.1.8.2l1.2.3c19.1 5.1 48.2 17.1 58.3 43.9 8.5 22.3 2.9 49.2-5.7 64.7a72.68 72.68 0 0 1-44.1 34.7c-11 3.2-29 1.7-41.4-.6zm-9.2-10.6l4.7 1.3c.2.1.5.1.7.2 10.7 2.7 31.7 5.2 43.2 2a64.56 64.56 0 0 0 39.2-30.9c7.8-13.9 12.8-38 5.2-57.9-9.6-25.4-39.8-35.9-56.9-39.9l-4.3-1v-.1l-263.8-67.1c-10.6-2.7-31.7-5.2-43.1-2a64.56 64.56 0 0 0-39.2 30.9 65.04 65.04 0 0 0-5.9 49.6c6.6 23.3 26.5 40.4 56 47.9l264.2 67z"/>
      <path d="M1703.8 424.6c17.7-25 35.4-49.9 53.2-74.9 2.9-4.1 5.9-8.3 10-11.2 10.8-7.7 34-1.7 46.8 2 9.2 2.7 60.5 15.9 69.7 18.5l196.4 50c9.4 2.1 60.7 15 70.1 17 13 2.9 36.2 8.7 42.1 20.6 2.2 4.5 2.8 9.6 3.4 14.6 3.6 30.4 7.3 60.8 10.9 91.2" class="st25"/>
      <path d="M1706.7 427.1c11.1-15.6 22.2-31.2 33.2-46.8 5.5-7.8 11.1-15.6 16.6-23.4 8.4-11.7 14.9-19.2 30.4-18.1 19.7 1.5 40.2 9.3 59.3 14.3 23.7 6.2 47.4 12.5 71.1 18.5 59.6 15.2 119.2 30.7 179 45.3 22.2 5.4 45.1 9.8 67 16.5 7.4 2.3 17 5.1 22.4 11.1 8.3 9.3 7.3 28 8.7 39.9 2.7 22.8 5.5 45.6 8.2 68.4.6 4.8 8.1 4.2 7.5-.6l-7.5-62.7c-1.7-14.2-.3-36.4-9.8-48.3-12.8-16.2-40.5-18.3-59.4-22.9-27.7-6.8-55.4-13.5-83-20.6-66.5-16.9-133-33.7-199.4-51.1-22.6-5.9-51.6-18.8-75.1-15.1-15.7 2.4-23.3 18-31.7 29.8l-43.2 60.9c-2.8 3.9 2.9 8.9 5.7 4.9z"/>
      <path d="M1989.5 197h51.7v131.9h-51.7z" class="st28" transform="rotate(-75.72 2015.38 263)"/>
      <path d="M2074.3 306.7l-131.7-33.5 13.7-53.9 131.7 33.5-13.7 53.9zm-126.9-36.4l124 31.6 11.8-46.3-124-31.6-11.8 46.3z"/>
      <path d="M1797.1 420.6c-1.8 7.2-9.2 11.6-16.4 9.8-7.2-1.8-11.6-9.2-9.8-16.4 1.8-7.2 9.2-11.6 16.4-9.8a13.4 13.4 0 0 1 9.8 16.4z" class="st28"/>
      <path d="M1781.3 431.9c-.3-.1-.6-.1-.9-.2-7.9-2-12.8-10.1-10.7-18.1 2-7.9 10.2-12.7 18.1-10.7a14.85 14.85 0 0 1 10.7 18.1c-1 3.8-3.4 7.1-6.8 9.1-3.2 1.8-6.9 2.5-10.4 1.8zm5-26.6a12.2 12.2 0 0 0-14.1 9c-1.7 6.5 2.3 13.2 8.8 14.8a12.15 12.15 0 0 0 14.8-8.8 12.15 12.15 0 0 0-8.8-14.8c-.2-.1-.5-.2-.7-.2z"/>
      <path d="M1845.3 422.7l-14.2-3.6c-3-.8-4.8-3.8-4-6.8l3.6-14.2c.8-3 3.8-4.8 6.8-4l14.2 3.6c3 .8 4.8 3.8 4 6.8l-3.6 14.2c-.7 3-3.8 4.8-6.8 4z" class="st28"/>
      <path d="M1845.4 424.1c-.1 0-.3-.1-.4-.1l-14.2-3.6c-3.7-.9-5.9-4.7-5-8.4l3.6-14.2c.9-3.7 4.8-5.9 8.4-5l14.2 3.6c1.8.5 3.3 1.6 4.2 3.2.9 1.6 1.2 3.4.8 5.2l-3.6 14.2a6.8 6.8 0 0 1-3.2 4.2c-1.4.9-3.1 1.2-4.8.9zm-8.5-28.8c-2.2-.4-4.3.9-4.9 3.1l-3.6 14.2c-.6 2.3.8 4.6 3.1 5.2l14.2 3.6c1.1.3 2.2.1 3.2-.5s1.7-1.5 1.9-2.6l3.6-14.2c.3-1.1.1-2.2-.5-3.2s-1.5-1.7-2.6-1.9l-14.2-3.6c0-.1-.1-.1-.2-.1z"/>
      <path d="M2128 504.8c-1.8 7.2 2.5 14.6 9.8 16.4 7.2 1.8 14.6-2.5 16.4-9.8 1.8-7.2-2.5-14.6-9.8-16.4-7.2-1.8-14.6 2.6-16.4 9.8z" class="st28"/>
      <path d="M2138.3 522.7c-.3-.1-.6-.1-.9-.2a14.85 14.85 0 0 1-10.7-18.1 14.85 14.85 0 0 1 18.1-10.7c7.9 2 12.8 10.1 10.7 18.1-1.9 7.7-9.5 12.4-17.2 10.9zm5.1-26.5c-2.9-.6-5.9 0-8.5 1.5-2.8 1.7-4.8 4.3-5.6 7.5a12.15 12.15 0 0 0 8.8 14.8c6.5 1.7 13.2-2.3 14.8-8.8 1.7-6.5-2.3-13.2-8.8-14.8-.2-.1-.5-.2-.7-.2z"/>
      <path d="M2084.6 483.6l14.2 3.6c3 .8 6-1.1 6.8-4l3.6-14.2c.8-3-1.1-6-4-6.8l-14.2-3.6c-3-.8-6 1.1-6.8 4l-3.6 14.2c-.7 3 1.1 6.1 4 6.8z" class="st28"/>
      <path d="M2099 488.6c-.1 0-.3-.1-.4-.1l-14.2-3.6c-3.7-.9-5.9-4.7-5-8.4l3.6-14.2a6.8 6.8 0 0 1 3.2-4.2c1.6-.9 3.4-1.2 5.2-.8l14.2 3.6c3.7.9 5.9 4.7 5 8.4l-3.6 14.2c-1 3.6-4.5 5.8-8 5.1zm-8.6-28.8c-1-.2-2.1 0-3 .5-1 .6-1.7 1.5-1.9 2.6l-3.6 14.2c-.3 1.1-.1 2.2.5 3.2s1.5 1.7 2.6 1.9l14.2 3.6c2.3.6 4.6-.8 5.2-3.1l3.6-14.2c.6-2.3-.8-4.6-3.1-5.2l-14.2-3.6c-.1.2-.2.1-.3.1z"/>
      <path d="M1988 416.3a13.4 13.4 0 0 1-16.3 9.7c-7.2-1.8-11.5-9.1-9.7-16.3s9.1-11.5 16.3-9.7a13.4 13.4 0 0 1 9.7 16.3z" class="st28"/>
      <path d="M1972.3 427.5c-.3-.1-.6-.1-.9-.2-3.8-1-7.1-3.4-9.1-6.8s-2.6-7.4-1.6-11.2c2-7.9 10.1-12.8 18-10.7 7.9 2 12.7 10.1 10.7 18-1.9 7.6-9.5 12.4-17.1 10.9zm5-26.2a11.94 11.94 0 0 0-5.2 23.3 11.9 11.9 0 0 0 14.5-8.6 11.9 11.9 0 0 0-8.6-14.5c-.2-.1-.5-.2-.7-.2z"/>
      <path d="M1967.2 419c-.4-.1-.8-.3-1.1-.7-.4-.7-.2-1.7.6-2.2l15.2-9c.7-.4 1.7-.2 2.2.5.4.7.2 1.7-.6 2.2l-15.2 9c-.3.2-.7.3-1.1.2z"/>
      <path d="M1979.3 422.1c-.4-.1-.8-.3-1.1-.7l-9-15.2c-.4-.7-.2-1.7.6-2.2.7-.4 1.7-.2 2.2.5l9 15.2c.4.7.2 1.7-.6 2.2-.4.2-.8.3-1.1.2z"/>
      <g>
        <path d="M1665.4 374.6a13.3 13.3 0 0 1-4.7 18.3 13.3 13.3 0 0 1-18.3-4.7 13.3 13.3 0 0 1 4.7-18.3c6.4-3.8 14.6-1.7 18.3 4.7z" class="st28"/>
        <path d="M1651.2 396c-4-.8-7.7-3.2-10-7-4.2-7-1.9-16.1 5.2-20.3 7-4.2 16.1-1.9 20.3 5.2 4.2 7 1.9 16.2-5.2 20.3-3.2 1.9-6.9 2.4-10.3 1.8zm5-26.3c-2.9-.5-5.8 0-8.3 1.5-5.6 3.4-7.5 10.7-4.2 16.3a12 12 0 0 0 16.3 4.2 11.9 11.9 0 0 0 4.1-16.3c-1.6-2.7-4.2-4.7-7.3-5.5-.2-.1-.4-.2-.6-.2z"/>
        <path d="M1651.5 391.5s-.1 0 0 0c-.9-.2-1.5-1.1-1.2-1.9l4.3-17.1c.2-.8 1.1-1.4 1.9-1.1.8.2 1.4 1.1 1.1 1.9l-4.3 17.1c-.2.7-1 1.2-1.8 1.1z"/>
        <path d="M1662.2 385.1s-.1 0 0 0l-17.2-4.4c-.8-.2-1.4-1.1-1.1-1.9.2-.8 1.1-1.4 1.9-1.1l17.1 4.3c.8.2 1.4 1.1 1.1 1.9-.2.9-1 1.4-1.8 1.2z"/>
      </g>
      <g>
        <path d="M2287.7 542.7a13.4 13.4 0 0 1-16.3 9.7 13.4 13.4 0 0 1-9.7-16.3 13.4 13.4 0 0 1 16.3-9.7 13.4 13.4 0 0 1 9.7 16.3z" class="st28"/>
        <path d="M2272 553.9c-.3-.1-.6-.1-.9-.2-7.9-2-12.7-10.1-10.7-18 1-3.8 3.4-7.1 6.8-9.1s7.4-2.6 11.2-1.6c7.9 2 12.7 10.1 10.7 18-1 3.8-3.4 7.1-6.8 9.1-3.1 1.9-6.8 2.5-10.3 1.8zm5-26.2a12.01 12.01 0 0 0-13.8 8.8c-1.6 6.4 2.2 12.8 8.6 14.5a11.96 11.96 0 0 0 14.5-8.6c1.6-6.4-2.2-12.8-8.6-14.5-.3-.1-.5-.2-.7-.2z"/>
        <path d="M2266.9 545.4c-.4-.1-.8-.3-1.1-.7-.4-.7-.2-1.7.6-2.2l15.2-9c.7-.4 1.7-.2 2.2.6.4.7.2 1.7-.6 2.2l-15.2 9c-.4.1-.8.2-1.1.1z"/>
        <path d="M2278.9 548.5c-.4-.1-.8-.3-1.1-.7l-9-15.2c-.4-.7-.2-1.7.6-2.2.8-.4 1.7-.2 2.2.5l9 15.2c.4.7.2 1.7-.6 2.2-.3.2-.7.3-1.1.2z"/>
      </g>
      <g>
        <path d="M1752.3-5a13.4 13.4 0 0 1 9.7 16.3 13.4 13.4 0 0 1-16.3 9.7 13.4 13.4 0 0 1-9.7-16.3c1.9-7.2 9.1-11.6 16.3-9.7z" class="st28"/>
        <path d="M1746.2 22.5c-.3-.1-.6-.1-.9-.2-7.9-2-12.7-10.1-10.7-18s10.1-12.8 18-10.7c3.8 1 7.1 3.4 9.1 6.8s2.6 7.4 1.6 11.2c-1.9 7.6-9.4 12.3-17.1 10.9zm5-26.3c-6.1-1.2-12.2 2.6-13.8 8.8a11.9 11.9 0 0 0 8.6 14.5c6.3 1.6 12.9-2.2 14.5-8.6a11.96 11.96 0 0 0-8.6-14.5c-.2-.1-.5-.1-.7-.2z"/>
        <path d="M1753.2 17c-.4-.1-.8-.3-1.1-.7l-9-15.2c-.4-.7-.2-1.7.6-2.2.7-.4 1.7-.2 2.2.6l9 15.2c.4.7.2 1.7-.6 2.2-.3.2-.7.2-1.1.1z"/>
        <path d="M1741.1 14c-.4-.1-.8-.3-1.1-.7-.4-.7-.2-1.7.6-2.2l15.2-9c.7-.4 1.7-.2 2.2.5.4.7.2 1.7-.6 2.2l-15.2 9c-.3.2-.7.2-1.1.2z"/>
      </g>
      <g>
        <ellipse cx="2369.8" cy="165.9" class="st28" rx="13.4" ry="13.4" transform="rotate(-77.89 2369.82 165.93)"/>
        <path d="M2367 180.4c-4-.8-7.7-3.2-10-7-4.2-7-1.9-16.1 5.2-20.3 7-4.2 16.1-1.9 20.3 5.2 4.2 7 1.9 16.2-5.2 20.3-3.2 2-6.9 2.5-10.3 1.8zm5-26.2c-2.9-.5-5.8 0-8.3 1.5-5.6 3.4-7.5 10.7-4.2 16.3 3.4 5.6 10.7 7.5 16.3 4.2a11.9 11.9 0 0 0 4.1-16.3c-1.6-2.7-4.2-4.7-7.3-5.5-.1-.1-.4-.2-.6-.2z"/>
        <path d="M2367.3 176s-.1 0 0 0c-.9-.2-1.5-1.1-1.2-1.9l4.3-17.1c.2-.8 1.1-1.4 1.9-1.1.8.2 1.4 1.1 1.1 1.9l-4.3 17.1c-.2.7-1 1.2-1.8 1.1z"/>
        <path d="M2378 169.6l-17.2-4.4c-.8-.2-1.4-1.1-1.1-1.9.2-.8 1.1-1.4 1.9-1.1l17.1 4.3c.8.2 1.4 1.1 1.1 1.9-.2.9-1 1.4-1.8 1.2z"/>
      </g>
      <g>
        <path d="M2009.4 234.8l-51.6-13.1-12.7 50.1 51.1 13c12.6-25.4 13.6-42.7 13.2-50z"/>
        <path d="M1997.2 287.1l-54.5-13.9 13.7-53.9 54.9 14 .1 1.4c.4 8.2-.8 25.6-13.5 50.9l-.7 1.5zm-49.8-16.8l47.7 12.1c10.9-22.4 12.6-38 12.4-46.1l-48.3-12.3-11.8 46.3z"/>
        <g>
          <path d="M2085.7 254.2l-15.1-3.1c-3.9 7.8-13.4 23.6-12.5 49.4l14.9 3.8 12.7-50.1z"/>
          <path d="M2074.3 306.7l-18.2-4.6v-1.5c-.8-24 7.3-39.7 11.6-48.1.4-.8.8-1.6 1.2-2.3l.7-1.4 18.6 3.8-13.9 54.1zm-14.4-7.7l11.5 2.9 11.8-46.2-11.6-2.4c-.2.3-.3.6-.5 1-4 7.9-11.6 22.5-11.2 44.7z"/>
        </g>
      </g>
      <path d="M1847 123.8c148.8 38.8 298.3 74.6 447.1 113.4 1.1.3 1.4-1.5.3-1.7-148.8-38.8-298.3-74.6-447.1-113.4-1-.3-1.4 1.4-.3 1.7zM1821.9 117.6l-34.1-8.7c-3-.8-4.8-3.8-4-6.8l8.7-34.1c.8-3 3.8-4.8 6.8-4l34.1 8.7c3 .8 4.8 3.8 4 6.8l-8.7 34.1c-.8 3-3.8 4.8-6.8 4z"/>
      <g>
        <path d="M1800.3 100.9c5.2-7.9 11-15.2 16.2-23.1-1.4-.3-2.8-.5-4.2-.8 1.4 9.5 4.1 18.7 4.9 28.3.2 2.8 4.6 2.5 4.4-.4-.8-9.6-3.5-18.8-4.9-28.3-.3-2.3-3-2.6-4.2-.8-5.2 7.9-11 15.2-16.2 23.1-1.6 2.4 2.4 4.3 4 2z" class="st28"/>
        <path d="M1802.2 96.2c5.1 1.1 10.1 2.3 15.1 3.8 2.7.8 3.5-3.5.8-4.3-5-1.6-10-2.7-15.1-3.8-2.7-.6-3.5 3.7-.8 4.3z" class="st28"/>
      </g>
      <g>
        <path d="M2103.6 324.9a54.13 54.13 0 0 1-.7-54.1c14.6-26 47.5-35.2 73.5-20.7 26 14.6 35.2 47.5 20.7 73.5a54.08 54.08 0 0 1-73.5 20.7 53.3 53.3 0 0 1-20-19.4z"/>
        <path d="M2149.4 255.8c-7 .1-14.1 2-20.6 5.8a41.32 41.32 0 0 0-19 25.4 41.57 41.57 0 0 0 4.5 31.4 41.54 41.54 0 0 0 56.8 14.5c19.7-11.7 26.2-37.2 14.5-56.8a41.19 41.19 0 0 0-36.2-20.3z" class="st28"/>
        <path d="M2162.8 319.4h14.1v18h-14.1z" transform="rotate(-35.23 2169.67 328.43)"/>
        <path d="M2177.8 288.6h18v14.1h-18z" transform="matrix(.9958 -.09116 .09116 .9958 -17.84 200.6)"/>
        <path d="M2158 257.4h18v14.1h-18z" transform="rotate(-65.23 2167.04 264.43)"/>
        <path d="M2123.1 257.1h14.1v18h-14.1z" transform="rotate(-35.23 2129.98 266.17)"/>
        <path d="M2104.1 291.8h18v14.1h-18z" transform="matrix(.9958 -.09116 .09116 .9958 -18.44 193.87)"/>
        <path d="M2123.9 323h18v14.1h-18z" transform="rotate(-65.23 2132.97 329.93)"/>
      </g>
      <g>
        <path d="M1843.2 267.4a53.98 53.98 0 0 1-14.7-52c7.3-28.8 36.8-46.3 65.6-39 28.8 7.3 46.3 36.8 39 65.6-7.3 28.8-36.8 46.3-65.6 39-9.5-2.4-17.8-7.2-24.3-13.6z"/>
        <path d="M1869.5 188.8a42 42 0 0 0-18.4 10.9 41.5 41.5 0 0 0-11.8 29.5 41.3 41.3 0 0 0 12.5 29.2c16.4 16 42.7 15.6 58.7-.7 16-16.4 15.6-42.7-.7-58.7a41.65 41.65 0 0 0-40.3-10.2z" class="st28"/>
        <path d="M1901 244.7h14.1v18H1901z" transform="rotate(-50.23 1908.04 253.7)"/>
        <path d="M1907 210.6h18v14.1h-18z" transform="rotate(-20.23 1916.04 217.66)"/>
        <path d="M1879.8 185.7h18v14.1h-18z" transform="rotate(-80.23 1888.76 192.68)"/>
        <path d="M1846.5 194.8h14.1v18h-14.1z" transform="rotate(-50.23 1853.59 203.83)"/>
        <path d="M1836.6 232.8h18v14.1h-18z" transform="rotate(-20.23 1845.63 239.89)"/>
        <path d="M1863.8 257.8h18v14.1h-18z" transform="rotate(-80.23 1872.8 264.77)"/>
      </g>
    </g>
  </g>
</svg>
