<svg xmlns="http://www.w3.org/2000/svg" viewBox="0 0 180.46 184.57">
  <defs>
    <style>
      .cls-1 {
        fill:#fff;
      }

      .cls-2 {
        fill:#ffdd79;
      }

      .cls-3 {
        fill:#b3b3b3;
      }
    </style>
  </defs>

  <title>Asset 1</title>

  <g id="Layer_2" data-name="Layer 2">
    <g id="Layer_1-2" data-name="Layer 1">
      <path
        class="cls-1"
        d="M11.59,184.17a18.89,18.89,0,0,0,2.05.23c2.14.11,4.47.17,7.14.17,2.36,0,4.72,0,7-.08s4.55-.08,6.77-.08l127.2.06H163l1.56,0a17,17,0,0,0,6.34-1c9.63-3.86,9-15.19,8.71-22-.07-1.3-.13-2.52-.13-3.51.1-25.14.21-50.11.34-74.22.08-16.49.17-31.64.26-46.34l.07-11.61c0-.4.06-1.07.12-1.73.24-2.82.54-6.33-1.1-9.16a22.39,22.39,0,0,0-5.49-5.73c-.65-.53-1.33-1.08-1.78-1.52l-6-5.69A6.18,6.18,0,0,0,161.69.36C139.37.34,28,.27,27.62.24L22,.18h0C20.56.09,19,0,17.31,0,13.1,0,7.06.55,3.18,5.37a13.91,13.91,0,0,0-3,8.12C0,16.36,0,19.21.08,22c0,1.34,0,2.59,0,3.85C.07,33.5.05,41.63,0,50,0,76.17,0,103.59.12,133.79c0,10,.09,19.85.14,29.32,0,.46,0,.92,0,1.39,0,3.64,0,7.77,1.38,11.47A12.52,12.52,0,0,0,11.59,184.17Z"
      />

      <path
        class="cls-2"
        d="M161.69,6.62l12.25,11.73c-.43,62.86-.69,130.63-.77,152.56a7.32,7.32,0,0,1-7.32,7.29l-152-.06a7.31,7.31,0,0,1-7.31-7.27C6.43,148.45,6,78,6.44,13.83a7.32,7.32,0,0,1,7.32-7.27H25.2c0,1.09,0,2.12,0,3.22H45.09l89.52,1.65,7.07-4.84Z"
      />

      <path
        d="M161,7.52l5.42,5.18c1.78,1.71,5.51,4.07,6.62,6.34.7,1.43-.27,6.78-.28,8.71q0,5.59-.07,11.17-.08,11.13-.14,22.25-.21,39.3-.38,78.6,0,12.64-.1,25.29c0,5.06.44,11.47-6.36,12-.47,0-1,0-1.42,0-8.44.26-16.94,0-25.38,0l-89.26,0-30.81,0a40.84,40.84,0,0,1-5.07,0c-6.79-.87-6.08-7.1-6.11-12.15,0-3.86,0-7.73-.07-11.59q-.2-39.73-.2-79.48,0-24.58.11-49.16c0-4.12-1.08-10.82,1.35-14.19,1.83-2.56,4.06-2.68,6.88-2.77,3.2-.1,6.41,0,9.6,0l-1.25-1,0,3.22c0,.66.7,1,1.25,1,16.69.17,32.63.25,49.65.57l39.26.72,14.35.27c1.75,0,4.1.5,5.82.11,2-.46,3.89-2.3,5.59-3.47,2.4-1.65,1.65-1.38,4.73-1.38h17.06c1.44,0,1.17-2.23-.26-2.23H146.45c-1.43,0-3.51-.4-4.9,0-2,.55-4,2.6-5.66,3.72-.49.34-2.76,1.5-1.16,1.13a5.42,5.42,0,0,1-.57,0,25.81,25.81,0,0,1-3.29-.06L117.48,10,48.32,8.75c-7.74-.14-15.48,0-23.22-.07l1.24,1c0-1.08,0-2.15,0-3.22,0-.66-.7-1-1.25-1-5.46,0-13.83-1.72-17.78,3-3.34,4-2,10.79-2,15.53Q5.21,35.9,5.18,47.83q-.1,42.92.09,85.82.06,14.88.14,29.77c0,6.87-.44,15.28,8.61,15.84,6.65.41,13.45,0,20.11,0l95.09,0,33,0c2.69,0,5.47.27,7.91-1.14,6.27-3.65,4.22-13.8,4.24-19.89q.15-37.39.34-74.79.12-23.82.27-47.63c0-3.72.05-7.44.07-11.17,0-2.2.69-5.37-.41-7.27-1.25-2.15-4.32-4.13-6.1-5.84l-6.13-5.86C161.33,4.73,160,6.52,161,7.52Z"
      />

      <rect
        class="cls-1"
        x="10.75"
        y="158.39"
        width="10.49"
        height="7.27"
        rx="0.61"
        ry="0.61"
      />

      <path
        d="M21,166a.94.94,0,0,1-.37.07H11.35a1,1,0,0,1-1-1V159a1,1,0,0,1,.29-.7,1,1,0,0,1,.7-.28h9.27a1,1,0,0,1,.7.29,1,1,0,0,1,.29.69v6.06A1,1,0,0,1,21,166Zm-9.73-7.19a.16.16,0,0,0-.08.06.24.24,0,0,0-.07.16v6.06a.24.24,0,0,0,.23.23h9.28a.19.19,0,0,0,.16-.06.23.23,0,0,0,.07-.17V159a.24.24,0,0,0-.24-.23H11.27Z"
      />

      <rect
        class="cls-1"
        x="158.39"
        y="158.45"
        width="10.49"
        height="7.27"
        rx="0.61"
        ry="0.61"
      />

      <path
        d="M168.65,166a.94.94,0,0,1-.37.07H159a.94.94,0,0,1-.69-.29,1,1,0,0,1-.29-.69v-6.06a1,1,0,0,1,1-1h9.28a1,1,0,0,1,1,1v6.06a1,1,0,0,1-.61.91Zm-9.73-7.19a.24.24,0,0,0-.15.22v6.06a.24.24,0,0,0,.23.23h9.28a.23.23,0,0,0,.16-.06.23.23,0,0,0,.07-.17v-6.06a.23.23,0,0,0-.06-.16.23.23,0,0,0-.17-.07h-9.36Z"
      />

      <polygon
        points="13.73 27.92 13.73 32.98 17.11 32.98 17.12 27.92 19.66 27.92 15.43 18.54 11.19 27.92 13.73 27.92"
      />

      <path
        class="cls-3"
        d="M45.16,6.17c.18,15.75.21,30.7.1,51.87A5.9,5.9,0,0,0,51.15,64l78.35,0a5.9,5.9,0,0,0,5.89-5.87c.11-21.2.08-36.16-.1-51.92Z"
      />

      <path
        d="M44.05,6.3q.16,15.57.16,31.13,0,8.43,0,16.84c0,4-.2,8.1,3.95,10.13,2.08,1,4.84.69,7.1.69H68.71l39.12,0c7.14,0,14.66.69,21.78,0a7.25,7.25,0,0,0,6.69-5.34c.66-2.32.23-5.2.24-7.58l0-10.76q0-17.68-.16-35.36c0-.66-.7-1-1.25-1l-78.91,0H45c-1.44,0-1.17,2.24.26,2.24l78.91,0h11.22l-1.25-1q.15,13.54.16,27.09,0,7.66,0,15.32c0,4.9,1.31,13.33-5.09,14.13s-13.43,0-19.87,0H75.12c-7.51,0-15.73,1-23.18,0a7.3,7.3,0,0,1-.81,0c-4.26-1-4.75-4-4.73-7.87q0-8.91,0-17.81,0-15.57-.16-31.13C46.26,4.59,44,4.87,44.05,6.3Z"
      />

      <path
        d="M110.1,65.12a1.13,1.13,0,0,0,0-2.25,1.13,1.13,0,0,0,0,2.25Z"
      />

      <rect
        class="cls-2"
        x="98.63"
        y="12.87"
        width="23.04"
        height="44.05"
        transform="translate(220.28 69.83) rotate(-179.98)"
      />

      <path
        d="M122.11,58.05a1.18,1.18,0,0,1-.46.09h-23a1.22,1.22,0,0,1-1.22-1.21l0-44.06a1.22,1.22,0,0,1,.36-.86,1.25,1.25,0,0,1,.86-.35h23a1.2,1.2,0,0,1,1.21,1.21V56.93a1.18,1.18,0,0,1-.36.85A1.09,1.09,0,0,1,122.11,58.05ZM99.83,55.7h20.61l0-41.63H99.85Z"/><path d="M24.11,9.94c.06,9.62,0,19.24-.06,28.86Q24,47,24,55.25c0,3.65.14,7.06,3.71,9,3,1.61,7.71.83,10.92.83H51.86c1.45,0,1.17-2.24-.26-2.24H41.21c-3.24,0-7.14.59-10.33,0-6.83-1.26-4.67-11.19-4.64-16.29q0-6.15.08-12.29c0-8.19.07-16.38,0-24.58,0-1.44-2.24-1.17-2.23.26Z"/><path class="cls-1" d="M28.64,174.83l0-75q0-6.44,0-12.85c0-3.25-.49-6.5,3.11-7.84,2-.74,5.49-.48,7.56-.48H53.19l81.46,0c5.61,0,16-2,16.64,6.11s0,16.41,0,24.49l0,67.66H135.76l-107.13-.05S28.64,175.41,28.64,174.83Z"/><path d="M26.26,177.8l0-66.42c0-9.67-.81-19.75,0-29.38.37-4.26,3.49-5.61,7.13-5.6H44.37l82.09,0c6.82,0,14.21-.81,21,0,6.49.79,6.22,5.9,6.22,10.59s0,9.63,0,14.44l0,76.64,1-1.24-113.48-.05H25c-1.45,0-1.17,2.24.26,2.24l113.47,0h16.13c.65,0,1-.7,1-1.25l0-71.13q0-8.76,0-17.5c0-2.55.34-5.4-.12-7.94-1.64-9.14-13.3-7.08-20-7.08l-85.63,0H35.89c-2.06,0-4.47-.3-6.5.23-8,2.09-5.33,16.74-5.33,22.69l0,81C24,179.51,26.26,179.23,26.26,177.8Z"/><path class="cls-3" d="M146,158.37c-37.14.39-74.28-.1-111.41.41-.71,0-.58,1.1.13,1.09,37.13-.51,74.27,0,111.41-.41.71,0,.57-1.1-.13-1.09Z"/><path class="cls-3" d="M34.72,143.44c37.14-.4,74.28.1,111.42-.41.7,0,.57-1.11-.13-1.1-37.14.51-74.28,0-111.41.41-.71,0-.58,1.1.12,1.1Z"/><path class="cls-3" d="M146,125.5c-37.13.39-74.27-.1-111.41.41-.71,0-.57,1.1.13,1.09,37.14-.51,74.28,0,111.41-.41.71,0,.58-1.1-.13-1.09Z"/><path class="cls-3" d="M34.74,110.57c37.13-.4,74.27.09,111.41-.41.71,0,.57-1.11-.13-1.1-37.13.51-74.27,0-111.41.41-.71,0-.58,1.1.13,1.1Z"/><path class="cls-3" d="M146,92.62c-37.14.4-74.28-.09-111.41.42-.71,0-.58,1.1.12,1.09,37.14-.51,74.28,0,111.42-.41.7,0,.57-1.1-.13-1.1Z"/>

    </g>
  </g>
</svg>
