<?xml version="1.0" encoding="utf-8"?>
<!-- Generator: Adobe Illustrator 23.0.3, SVG Export Plug-In . SVG Version: 6.00 Build 0)  -->
<svg version="1.1" id="Layer_1" xmlns="http://www.w3.org/2000/svg" xmlns:xlink="http://www.w3.org/1999/xlink" x="0px" y="0px"
	 viewBox="0 0 256 263" style="enable-background:new 0 0 256 263;" xml:space="preserve">
<style type="text/css">
	.st0{fill:#222C37;}
</style>
<path class="st0" d="M142.2,124.2l39.1-67.5l18.9,67.5l-18.9,67.6L142.2,124.2L142.2,124.2z M123.1,135.3l39.2,67.5l-68.2-17.5
	l-49.3-50.2H123L123.1,135.3z M162.2,45.7l-39.1,67.6H44.9l49.2-50.1C94.1,63.2,162.2,45.7,162.2,45.7z M218,101.2l-23.8-88.8
	l-89.1,23.9L91.9,59.5l-26.8-0.2L0,124.2l65.2,65l26.8-0.2l13.2,23.2l89.1,23.8l23.9-88.8l-13.5-23l13.6-23H218z"/>
</svg>
