<?xml version="1.0" encoding="utf-8"?>
<!-- Generator: Adobe Illustrator 22.1.0, SVG Export Plug-In . SVG Version: 6.00 Build 0)  -->
<svg version="1.1" id="Layer_1" xmlns="http://www.w3.org/2000/svg" xmlns:xlink="http://www.w3.org/1999/xlink" x="0px" y="0px"
	 viewBox="0 0 240 240" style="enable-background:new 0 0 240 240;" xml:space="preserve">
<style type="text/css">
	.st0{fill:#FFFFFF;}
	.st1{fill:#808080;}
	.st2{fill:#DFDFDF;}
</style>
<g>
	<rect class="st0" width="40" height="200"/>
	<rect x="100" y="-60" transform="matrix(6.123234e-17 -1 1 6.123234e-17 100 140)" class="st0" width="40" height="160"/>
	<rect x="200" transform="matrix(-1 -1.224647e-16 1.224647e-16 -1 440 240)" width="40" height="240"/>
	<rect x="80" y="120" transform="matrix(-1.836970e-16 1 -1 -1.836970e-16 320 120)" width="40" height="200"/>
	<rect x="160" y="40" class="st1" width="40" height="160"/>
	<rect x="80" y="120" transform="matrix(-1.836970e-16 1 -1 -1.836970e-16 280 80)" class="st1" width="40" height="120"/>
	<rect x="40" y="80" transform="matrix(-1 -1.224647e-16 1.224647e-16 -1 120 240)" class="st2" width="40" height="80"/>
	<rect x="80" transform="matrix(6.123234e-17 -1 1 6.123234e-17 40 160)" class="st2" width="40" height="120"/>
</g>
</svg>
