<svg xmlns="http://www.w3.org/2000/svg" viewBox="0 0 256 256"><linearGradient id="a" gradientUnits="userSpaceOnUse" y1="128" x2="256" y2="128" gradientTransform="rotate(90 128 128)"><stop offset="0" stop-color="#9300bf"/><stop offset="1" stop-color="#3f0073"/></linearGradient><path fill="url(#a)" d="M0 0h256v256H0z"/><g fill="#FFF"><path d="M31.6 108.1l4.8-.2 10.7 30 4 .9v2.9h-14v-2.9l4.5-.9-1.8-5.4H27.3l-1.9 5.4 4.5.9v2.9H16.7v-2.9l4-.9 10.9-29.8zm2.1 6l-5.1 14.5h9.9l-4.8-14.5zM60.4 118.4c1.6-1.3 4.1-2.8 7.2-2.8 7 0 10.1 5.1 10.1 12.6 0 8.2-4.6 14-13.3 14-5.3 0-8.9-1.2-8.9-1.2v-32.6l-3.9-1v-2.7l8.7-.2v13.9zm0 19.4s1.3.5 4.8.5c5.6 0 7.5-4.3 7.5-9.7 0-5.3-1.7-9.2-6-9.2a7.7 7.7 0 0 0-6.3 3.1v15.3zM105.5 128.4c0 8.2-4.8 13.8-12.1 13.8s-11.6-4.3-11.6-13c0-8.2 5.1-13.5 12.3-13.5s11.4 5 11.4 12.7zm-18.5.5c0 5.8 1.9 9.4 6.8 9.4 4.8 0 6.8-3.4 6.8-9.7 0-5.3-1.7-9.2-6.5-9.2-5 .1-7.1 3.2-7.1 9.5zM137.7 141.4l-8 .2-.5-3.4c-1.2 1-5 3.9-8.9 3.9-5.3 0-7.7-3.3-7.7-8.6v-13.6l-4.1-1v-2.7l8.9-.2v17c0 3.4 1.2 5 4.3 5 4.1 0 7-3.8 7-3.8v-14.3l-4.1-1v-2.7l8.9-.2v21.7l4.1 1v2.7zM156.5 119.9h-7v15.5c0 2.2 1.1 2.9 2.4 2.9 1.2 0 2.5-.5 3.8-1.2l1.3 2.6a11 11 0 0 1-6.8 2.4c-2.9 0-5.6-1.6-5.6-7v-15.2h-4.8v-3.1l4.8-.5v-6.1l4.8-1v7.1h7v3.6zM200.9 113.7l-1.4 3.6-7.5 15.2-3.9.2-7.5-15.7-1.2-3.4v24.1l4.6 1v2.9h-13v-2.9l4.1-1v-26.1l-4.1-1v-2.7l10.9-.2 8.7 19.3 9.1-19.1 10.1-.2v2.9l-4.1 1v26.1l4.1 1v2.9h-13.5v-2.9l4.6-1v-24zM218.8 129.6c0 5.3 2.8 8.7 7 8.7 4.8 0 8.1-2.7 8.1-2.7l1.7 2.5s-4.5 4-10.3 4c-7.7 0-11.6-5.1-11.6-13 0-7.7 4.8-13.5 11.8-13.5s10.1 4.1 10.1 11.3l-.2 2.7h-16.6zm11.8-3.6c0-3.6-1.4-6.6-5.3-6.6s-6 3-6.3 6.6h11.6z"/></g></svg>
