<?xml version="1.0" encoding="utf-8"?>
<!-- Generator: Adobe Illustrator 22.1.0, SVG Export Plug-In . SVG Version: 6.00 Build 0)  -->
<svg version="1.1" xmlns="http://www.w3.org/2000/svg" xmlns:xlink="http://www.w3.org/1999/xlink" x="0px" y="0px"
	 viewBox="0 0 256 256" enable-background="new 0 0 256 256" xml:space="preserve">
<g id="Layer_1">
	<g>
		
			<linearGradient id="SVGID_1_" gradientUnits="userSpaceOnUse" x1="0" y1="128" x2="256" y2="128" gradientTransform="matrix(0 1 -1 0 256 0)">
			<stop  offset="1.953869e-07" style="stop-color:#9300BF"/>
			<stop  offset="1" style="stop-color:#3F0073"/>
		</linearGradient>
		<rect fill="url(#SVGID_1_)" width="256" height="256"/>
	</g>
</g>
<g id="G">
	<g>
		<path fill="#FFFFFF" d="M83.5,111.7l-4.1-1v-2.7l8.9-0.2h5.6c6,0,10.4,2.7,10.4,8.5c0,4.3-2.2,6.8-6.3,7.8c5.1,1.2,7.5,4,7.5,7.9
			c0,6.8-4.3,9.7-12.3,9.7H79.4v-2.9l4.1-1V111.7z M92,122.4c4.3,0,7.2-1.7,7.2-5.6c0-3.4-2.4-5.1-5.6-5.1h-5.3v10.6H92z
			 M93.4,137.8c4.6,0,7-1.9,7-5.6c0-4.8-3.1-6.3-8.5-6.3h-3.6v11.8H93.4z"/>
		<path fill="#FFFFFF" d="M122.5,141.7h-13.4V139l4.1-1.2v-29.5l-4.1-1v-2.7l9-0.2v33.3l4.3,1.2V141.7z"/>
		<path fill="#FFFFFF" d="M148.3,128.4c0,8.2-4.8,13.8-12.1,13.8s-11.6-4.3-11.6-13c0-8.2,5.1-13.5,12.3-13.5
			S148.3,120.7,148.3,128.4z M129.7,128.9c0,5.8,1.9,9.4,6.8,9.4c4.8,0,6.8-3.4,6.8-9.7c0-5.3-1.7-9.2-6.5-9.2
			C131.9,119.5,129.7,122.6,129.7,128.9z"/>
		<path fill="#FFFFFF" d="M172.6,119.6c0,0,1.3,1.7,1.3,4.9c0,6.5-4.3,9.4-10.6,9.4c-2.2,0-3.6-0.4-3.6-0.4l-0.2,4.5h7.5
			c6.3,0,9.7,2.4,9.7,7c0,5.3-4.1,8.7-12.6,8.7c-6.8,0-11.6-1.7-11.6-7c0-4.3,5.1-6,5.1-6s-2.9-0.2-2.9-2.8c0-1.6,2.5-5.5,2.5-5.5
			s-3.7-1.7-3.7-7.5c0-6.3,4.3-9.4,10.6-9.4c3.1,0,4.8,0.9,4.8,0.9l8.5-0.2v2.7L172.6,119.6z M160.4,141.7c0,0-3.1,1.4-3.1,4.3
			c0,3.4,2.9,4.1,7.5,4.1c4.8,0,7.2-1.4,7.2-4.6c0-3.1-2.4-3.9-6.3-3.9H160.4z M158.2,124.8c0,3.4,1.7,5.8,5.3,5.8
			c3.9,0,5.6-1.7,5.6-5.8c0-3.6-1.7-5.8-5.3-5.8C159.9,119,158.2,120.9,158.2,124.8z"/>
	</g>
</g>
</svg>
