<?xml version="1.0" encoding="utf-8"?>
<!-- Generator: Adobe Illustrator 22.1.0, SVG Export Plug-In . SVG Version: 6.00 Build 0)  -->
<svg version="1.1" xmlns="http://www.w3.org/2000/svg" xmlns:xlink="http://www.w3.org/1999/xlink" x="0px" y="0px"
	 viewBox="0 0 256 256" enable-background="new 0 0 256 256" xml:space="preserve">
<g id="Layer_1">
	<g>
		
			<linearGradient id="SVGID_1_" gradientUnits="userSpaceOnUse" x1="0" y1="128" x2="256" y2="128" gradientTransform="matrix(0 1 -1 0 256 0)">
			<stop  offset="1.953869e-07" style="stop-color:#9300BF"/>
			<stop  offset="1" style="stop-color:#3F0073"/>
		</linearGradient>
		<rect fill="url(#SVGID_1_)" width="256" height="256"/>
	</g>
</g>
<g id="G">
	<g>
		<path fill="#FFFFFF" d="M61.8,112.5c0,0-2.6-1-6.2-1c-6.5,0-10.1,4.8-10.1,13.8c0,8.7,4.3,12.6,10.4,12.6c5.1,0,9.7-3.9,9.7-3.9
			l1.9,3.1c0,0-4.8,5.1-12.1,5.1c-9.7,0-15.5-5.8-15.5-16.7c0-11.1,6.3-18.1,16.2-18.1c5.3,0,10.9,2.4,10.9,2.4l-0.2,8.2h-3.6
			L61.8,112.5z"/>
		<path fill="#FFFFFF" d="M94.8,128.4c0,8.2-4.8,13.8-12.1,13.8s-11.6-4.3-11.6-13c0-8.2,5.1-13.5,12.3-13.5S94.8,120.7,94.8,128.4z
			 M76.2,128.9c0,5.8,1.9,9.4,6.8,9.4c4.8,0,6.8-3.4,6.8-9.7c0-5.3-1.7-9.2-6.5-9.2C78.4,119.5,76.2,122.6,76.2,128.9z"/>
		<path fill="#FFFFFF" d="M107.1,119.5c1.2-1,5-3.9,9-3.9c5.3,0,7.7,3.4,7.7,8.7v13.5l3.6,1.2v2.7h-11.6V139l3.1-1.2v-13
			c0-3.4-1.2-5.1-4.3-5.1c-4.1,0-7,3.9-7,3.9v14.2l3.1,1.2v2.7H98.7V139l4.1-1.2v-17.9l-4.1-1v-2.7l8-0.2L107.1,119.5z"/>
		<path fill="#FFFFFF" d="M146.5,119.9h-7v15.5c0,2.2,1.1,2.9,2.4,2.9c1.2,0,2.5-0.5,3.8-1.2l1.3,2.6c-2.2,1.6-4.3,2.4-6.8,2.4
			c-2.9,0-5.6-1.6-5.6-7v-15.2h-4.8v-3.1l4.8-0.5v-6.1l4.8-1v7.1h7V119.9z"/>
		<path fill="#FFFFFF" d="M151.5,117.5c0,0,5.3-1.9,9.4-1.9c5.6,0,8.9,1.9,8.9,7.5v14.7l3.9,1v2.7l-7.5,0.2l-1-3.4
			c-1.6,1.6-4.5,3.9-7.9,3.9c-4.6,0-7.2-2.7-7.2-7.2c0-5.6,4.3-7.5,11.1-7.5h3.9v-3.9c0-2.9-1.7-4.3-4.6-4.3c-2.9,0-4.9,0.7-4.9,0.7
			l-0.7,3.6h-3.1L151.5,117.5z M161.7,130.6c-4.8,0-6.7,1.2-6.7,4.1c0,2.2,1.4,3.6,3.5,3.6c3.6,0,6.5-3.9,6.5-3.9v-3.9H161.7z"/>
		<path fill="#FFFFFF" d="M193.8,119.9c0,0-1.9-0.5-4.3-0.5c-4.6,0-7.2,2.9-7.2,8.9c0,6.5,2.9,9.9,7.5,9.9s7.5-2.9,7.5-2.9l1.7,2.9
			c0,0-4.3,3.9-9.7,3.9c-8,0-12.1-5.1-12.1-13.3c0-7.7,4.8-13.3,12.6-13.3c4.3,0,8.2,1.9,8.2,1.9l-0.2,6.5h-3.1L193.8,119.9z"/>
		<path fill="#FFFFFF" d="M217.5,119.9h-7v15.5c0,2.2,1.1,2.9,2.4,2.9c1.2,0,2.5-0.5,3.8-1.2l1.3,2.6c-2.2,1.6-4.3,2.4-6.8,2.4
			c-2.9,0-5.6-1.6-5.6-7v-15.2h-4.8v-3.1l4.8-0.5v-6.1l4.8-1v7.1h7V119.9z"/>
	</g>
</g>
</svg>
