<?xml version="1.0" encoding="utf-8"?>
<!-- Generator: Adobe Illustrator 22.1.0, SVG Export Plug-In . SVG Version: 6.00 Build 0)  -->
<svg version="1.1" id="Layer_1" xmlns="http://www.w3.org/2000/svg" xmlns:xlink="http://www.w3.org/1999/xlink" x="0px" y="0px"
	 viewBox="0 0 180 180" style="enable-background:new 0 0 180 180;" xml:space="preserve">
<style type="text/css">
	.st0{fill:#DFDFDF;}
	.st1{fill:#FFFFFF;}
	.st2{fill:#808080;}
	.st3{fill:#C0C0C0;}
</style>
<g>
	<rect class="st0" width="20" height="160"/>
	<rect x="20" class="st0" width="140" height="20"/>
	<rect x="160" width="20" height="180"/>
	<rect x="70" y="90" transform="matrix(6.123234e-17 -1 1 6.123234e-17 -90 250)" width="20" height="160"/>
	<rect x="20" y="20" class="st1" width="20" height="120"/>
	<rect x="80" y="-20" transform="matrix(6.123234e-17 -1 1 6.123234e-17 60 120)" class="st1" width="20" height="100"/>
	<rect x="140" y="20" class="st2" width="20" height="140"/>
	<rect x="70" y="90" transform="matrix(6.123234e-17 -1 1 6.123234e-17 -70 230)" class="st2" width="20" height="120"/>
	<rect x="80" transform="matrix(6.123234e-17 -1 1 6.123234e-17 40 140)" class="st3" width="20" height="100"/>
	<rect x="80" y="80" transform="matrix(6.123234e-17 -1 1 6.123234e-17 -40 220)" class="st3" width="20" height="100"/>
	<rect x="120" y="60" class="st3" width="20" height="60"/>
	<rect x="40" y="60" class="st3" width="20" height="60"/>
</g>
</svg>
